<?xml version="1.0" encoding="UTF-8"?><svg id="Layer_2" xmlns="http://www.w3.org/2000/svg" viewBox="0 0 99.76 16"><defs><style>.cls-1{fill:#e62b1e;}</style></defs><g id="wtp-lock-v1"><path class="cls-1" d="M0,5.86v-2.48h2.48v2.48H0ZM0,5.86v-2.48h2.48v2.48H0ZM0,5.86v-2.48h2.48v2.48H0ZM0,5.86v-2.48h2.48v2.48H0ZM0,12.62v-2.48h2.48v2.48H0ZM0,12.62v-2.48h2.48v2.48H0ZM0,12.62v-2.48h2.48v2.48H0ZM0,12.62v-2.48h2.48v2.48H0ZM3.38,7.55v-2.48h2.48v2.48h-2.48ZM3.38,7.55v-2.48h2.48v2.48h-2.48ZM3.38,7.55v-2.48h2.48v2.48h-2.48ZM3.38,7.55v-2.48h2.48v2.48h-2.48ZM3.38,10.93v-2.48h2.48v2.48h-2.48ZM3.38,10.93v-2.48h2.48v2.48h-2.48ZM3.38,10.93v-2.48h2.48v2.48h-2.48ZM3.38,10.93v-2.48h2.48v2.48h-2.48ZM6.76,2.48V0h2.48v2.48h-2.48ZM6.76,2.48V0h2.48v2.48h-2.48ZM6.76,2.48V0h2.48v2.48h-2.48ZM6.76,2.48V0h2.48v2.48h-2.48ZM6.76,5.86v-2.48h2.48v2.48h-2.48ZM6.76,5.86v-2.48h2.48v2.48h-2.48ZM6.76,5.86v-2.48h2.48v2.48h-2.48ZM6.76,5.86v-2.48h2.48v2.48h-2.48ZM6.76,12.62v-2.48h2.48v2.48h-2.48ZM6.76,12.62v-2.48h2.48v2.48h-2.48ZM6.76,12.62v-2.48h2.48v2.48h-2.48ZM6.76,12.62v-2.48h2.48v2.48h-2.48ZM6.76,16v-2.48h2.48v2.48h-2.48ZM6.76,16v-2.48h2.48v2.48h-2.48ZM6.76,16v-2.48h2.48v2.48h-2.48ZM6.76,16v-2.48h2.48v2.48h-2.48ZM10.14,7.55v-2.48h2.48v2.48h-2.48ZM10.14,7.55v-2.48h2.48v2.48h-2.48ZM10.14,7.55v-2.48h2.48v2.48h-2.48ZM10.14,7.55v-2.48h2.48v2.48h-2.48ZM10.14,10.93v-2.48h2.48v2.48h-2.48ZM10.14,10.93v-2.48h2.48v2.48h-2.48ZM10.14,10.93v-2.48h2.48v2.48h-2.48ZM10.14,10.93v-2.48h2.48v2.48h-2.48ZM13.52,5.86v-2.48h2.48v2.48h-2.48ZM13.52,5.86v-2.48h2.48v2.48h-2.48ZM13.52,5.86v-2.48h2.48v2.48h-2.48ZM13.52,5.86v-2.48h2.48v2.48h-2.48ZM13.52,12.62v-2.48h2.48v2.48h-2.48ZM13.52,12.62v-2.48h2.48v2.48h-2.48ZM13.52,12.62v-2.48h2.48v2.48h-2.48ZM13.52,12.62v-2.48h2.48v2.48h-2.48ZM6.76,9.25v-2.48h2.48v2.48h-2.48ZM6.76,9.25v-2.48h2.48v2.48h-2.48ZM6.76,9.25v-2.48h2.48v2.48h-2.48Z"/><path class="cls-1" d="M27.92,5.86v-2.48h2.48v2.48h-2.48ZM27.92,5.86v-2.48h2.48v2.48h-2.48ZM27.92,5.86v-2.48h2.48v2.48h-2.48ZM27.92,5.86v-2.48h2.48v2.48h-2.48ZM27.92,12.62v-2.48h2.48v2.48h-2.48ZM27.92,12.62v-2.48h2.48v2.48h-2.48ZM27.92,12.62v-2.48h2.48v2.48h-2.48ZM27.92,12.62v-2.48h2.48v2.48h-2.48ZM31.3,7.55v-2.48h2.48v2.48h-2.48ZM31.3,7.55v-2.48h2.48v2.48h-2.48ZM31.3,7.55v-2.48h2.48v2.48h-2.48ZM31.3,7.55v-2.48h2.48v2.48h-2.48ZM31.3,10.93v-2.48h2.48v2.48h-2.48ZM31.3,10.93v-2.48h2.48v2.48h-2.48ZM31.3,10.93v-2.48h2.48v2.48h-2.48ZM31.3,10.93v-2.48h2.48v2.48h-2.48ZM34.68,2.48V0h2.48v2.48h-2.48ZM34.68,2.48V0h2.48v2.48h-2.48ZM34.68,2.48V0h2.48v2.48h-2.48ZM34.68,2.48V0h2.48v2.48h-2.48ZM34.68,5.86v-2.48h2.48v2.48h-2.48ZM34.68,5.86v-2.48h2.48v2.48h-2.48ZM34.68,5.86v-2.48h2.48v2.48h-2.48ZM34.68,5.86v-2.48h2.48v2.48h-2.48ZM34.68,12.62v-2.48h2.48v2.48h-2.48ZM34.68,12.62v-2.48h2.48v2.48h-2.48ZM34.68,12.62v-2.48h2.48v2.48h-2.48ZM34.68,12.62v-2.48h2.48v2.48h-2.48ZM34.68,16v-2.48h2.48v2.48h-2.48ZM34.68,16v-2.48h2.48v2.48h-2.48ZM34.68,16v-2.48h2.48v2.48h-2.48ZM34.68,16v-2.48h2.48v2.48h-2.48ZM38.06,7.55v-2.48h2.48v2.48h-2.48ZM38.06,7.55v-2.48h2.48v2.48h-2.48ZM38.06,7.55v-2.48h2.48v2.48h-2.48ZM38.06,7.55v-2.48h2.48v2.48h-2.48ZM38.06,10.93v-2.48h2.48v2.48h-2.48ZM38.06,10.93v-2.48h2.48v2.48h-2.48ZM38.06,10.93v-2.48h2.48v2.48h-2.48ZM38.06,10.93v-2.48h2.48v2.48h-2.48ZM41.44,5.86v-2.48h2.48v2.48h-2.48ZM41.44,5.86v-2.48h2.48v2.48h-2.48ZM41.44,5.86v-2.48h2.48v2.48h-2.48ZM41.44,5.86v-2.48h2.48v2.48h-2.48ZM41.44,12.62v-2.48h2.48v2.48h-2.48ZM41.44,12.62v-2.48h2.48v2.48h-2.48ZM41.44,12.62v-2.48h2.48v2.48h-2.48ZM41.44,12.62v-2.48h2.48v2.48h-2.48ZM34.68,9.25v-2.48h2.48v2.48h-2.48ZM34.68,9.25v-2.48h2.48v2.48h-2.48ZM34.68,9.25v-2.48h2.48v2.48h-2.48Z"/><path class="cls-1" d="M55.84,5.86v-2.48h2.48v2.48h-2.48ZM55.84,5.86v-2.48h2.48v2.48h-2.48ZM55.84,5.86v-2.48h2.48v2.48h-2.48ZM55.84,5.86v-2.48h2.48v2.48h-2.48ZM55.84,12.62v-2.48h2.48v2.48h-2.48ZM55.84,12.62v-2.48h2.48v2.48h-2.48ZM55.84,12.62v-2.48h2.48v2.48h-2.48ZM55.84,12.62v-2.48h2.48v2.48h-2.48ZM59.22,7.55v-2.48h2.48v2.48h-2.48ZM59.22,7.55v-2.48h2.48v2.48h-2.48ZM59.22,7.55v-2.48h2.48v2.48h-2.48ZM59.22,7.55v-2.48h2.48v2.48h-2.48ZM59.22,10.93v-2.48h2.48v2.48h-2.48ZM59.22,10.93v-2.48h2.48v2.48h-2.48ZM59.22,10.93v-2.48h2.48v2.48h-2.48ZM59.22,10.93v-2.48h2.48v2.48h-2.48ZM62.6,2.48V0h2.48v2.48h-2.48ZM62.6,2.48V0h2.48v2.48h-2.48ZM62.6,2.48V0h2.48v2.48h-2.48ZM62.6,2.48V0h2.48v2.48h-2.48ZM62.6,5.86v-2.48h2.48v2.48h-2.48ZM62.6,5.86v-2.48h2.48v2.48h-2.48ZM62.6,5.86v-2.48h2.48v2.48h-2.48ZM62.6,5.86v-2.48h2.48v2.48h-2.48ZM62.6,12.62v-2.48h2.48v2.48h-2.48ZM62.6,12.62v-2.48h2.48v2.48h-2.48ZM62.6,12.62v-2.48h2.48v2.48h-2.48ZM62.6,12.62v-2.48h2.48v2.48h-2.48ZM62.6,16v-2.48h2.48v2.48h-2.48ZM62.6,16v-2.48h2.48v2.48h-2.48ZM62.6,16v-2.48h2.48v2.48h-2.48ZM62.6,16v-2.48h2.48v2.48h-2.48ZM65.98,7.55v-2.48h2.48v2.48h-2.48ZM65.98,7.55v-2.48h2.48v2.48h-2.48ZM65.98,7.55v-2.48h2.48v2.48h-2.48ZM65.98,7.55v-2.48h2.48v2.48h-2.48ZM65.98,10.93v-2.48h2.48v2.48h-2.48ZM65.98,10.93v-2.48h2.48v2.48h-2.48ZM65.98,10.93v-2.48h2.48v2.48h-2.48ZM65.98,10.93v-2.48h2.48v2.48h-2.48ZM69.36,5.86v-2.48h2.48v2.48h-2.48ZM69.36,5.86v-2.48h2.48v2.48h-2.48ZM69.36,5.86v-2.48h2.48v2.48h-2.48ZM69.36,5.86v-2.48h2.48v2.48h-2.48ZM69.36,12.62v-2.48h2.48v2.48h-2.48ZM69.36,12.62v-2.48h2.48v2.48h-2.48ZM69.36,12.62v-2.48h2.48v2.48h-2.48ZM69.36,12.62v-2.48h2.48v2.48h-2.48ZM62.6,9.25v-2.48h2.48v2.48h-2.48ZM62.6,9.25v-2.48h2.48v2.48h-2.48ZM62.6,9.25v-2.48h2.48v2.48h-2.48Z"/><path class="cls-1" d="M83.76,5.86v-2.48h2.48v2.48h-2.48ZM83.76,5.86v-2.48h2.48v2.48h-2.48ZM83.76,5.86v-2.48h2.48v2.48h-2.48ZM83.76,5.86v-2.48h2.48v2.48h-2.48ZM83.76,12.62v-2.48h2.48v2.48h-2.48ZM83.76,12.62v-2.48h2.48v2.48h-2.48ZM83.76,12.62v-2.48h2.48v2.48h-2.48ZM83.76,12.62v-2.48h2.48v2.48h-2.48ZM87.14,7.55v-2.48h2.48v2.48h-2.48ZM87.14,7.55v-2.48h2.48v2.48h-2.48ZM87.14,7.55v-2.48h2.48v2.48h-2.48ZM87.14,7.55v-2.48h2.48v2.48h-2.48ZM87.14,10.93v-2.48h2.48v2.48h-2.48ZM87.14,10.93v-2.48h2.48v2.48h-2.48ZM87.14,10.93v-2.48h2.48v2.48h-2.48ZM87.14,10.93v-2.48h2.48v2.48h-2.48ZM90.52,2.48V0h2.48v2.48h-2.48ZM90.52,2.48V0h2.48v2.48h-2.48ZM90.52,2.48V0h2.48v2.48h-2.48ZM90.52,2.48V0h2.48v2.48h-2.48ZM90.52,5.86v-2.48h2.48v2.48h-2.48ZM90.52,5.86v-2.48h2.48v2.48h-2.48ZM90.52,5.86v-2.48h2.48v2.48h-2.48ZM90.52,5.86v-2.48h2.48v2.48h-2.48ZM90.52,12.62v-2.48h2.48v2.48h-2.48ZM90.52,12.62v-2.48h2.48v2.48h-2.48ZM90.52,12.62v-2.48h2.48v2.48h-2.48ZM90.52,12.62v-2.48h2.48v2.48h-2.48ZM90.52,16v-2.48h2.48v2.48h-2.48ZM90.52,16v-2.48h2.48v2.48h-2.48ZM90.52,16v-2.48h2.48v2.48h-2.48ZM90.52,16v-2.48h2.48v2.48h-2.48ZM93.9,7.55v-2.48h2.48v2.48h-2.48ZM93.9,7.55v-2.48h2.48v2.48h-2.48ZM93.9,7.55v-2.48h2.48v2.48h-2.48ZM93.9,7.55v-2.48h2.48v2.48h-2.48ZM93.9,10.93v-2.48h2.48v2.48h-2.48ZM93.9,10.93v-2.48h2.48v2.48h-2.48ZM93.9,10.93v-2.48h2.48v2.48h-2.48ZM93.9,10.93v-2.48h2.48v2.48h-2.48ZM97.28,5.86v-2.48h2.48v2.48h-2.48ZM97.28,5.86v-2.48h2.48v2.48h-2.48ZM97.28,5.86v-2.48h2.48v2.48h-2.48ZM97.28,5.86v-2.48h2.48v2.48h-2.48ZM97.28,12.62v-2.48h2.48v2.48h-2.48ZM97.28,12.62v-2.48h2.48v2.48h-2.48ZM97.28,12.62v-2.48h2.48v2.48h-2.48ZM97.28,12.62v-2.48h2.48v2.48h-2.48ZM90.52,9.25v-2.48h2.48v2.48h-2.48ZM90.52,9.25v-2.48h2.48v2.48h-2.48ZM90.52,9.25v-2.48h2.48v2.48h-2.48Z"/></g></svg>