<?xml version="1.0" encoding="UTF-8"?><svg id="wtp-lock-v2-6" xmlns="http://www.w3.org/2000/svg" viewBox="0 0 420 520"><path d="M214.1,10h93.54v69.46c0,33.58-7.96,59.75-23.88,78.51-15.92,18.76-40.02,31.11-69.66,37.03v-34.23c22.62-6.58,38.98-18.88,46.44-36.87,4.18-9.66,5.82-18.77,4.94-27.32h-51.38V10ZM205.21,10h-93.54v69.46c0,33.58,7.96,59.75,23.88,78.51,15.92,18.76,40.02,31.11,69.66,37.03v-34.23c-22.62-6.58-38.98-18.88-46.44-36.87-4.18-9.66-5.82-18.77-4.94-27.32h51.38V10ZM316.54,96.58h51.38c.88,8.56-.76,17.66-4.94,27.32-7.46,17.99-23.83,30.28-46.44,36.87v34.23c29.64-5.92,53.74-18.27,69.66-37.03,15.92-18.76,23.88-44.93,23.88-78.51V10h-93.54v86.58ZM103.62,10H10.08v69.46c0,33.58,7.96,59.75,23.88,78.51,15.92,18.76,40.02,31.11,69.66,37.03v-34.23c-22.62-6.58-38.98-18.88-46.44-36.87-4.18-9.66-5.82-18.77-4.94-27.32h51.38V10Z"/><path d="M9.92,243.39v-8.29h8.29v8.29h-8.29ZM9.92,243.39v-8.29h8.29v8.29h-8.29ZM9.92,243.39v-8.29h8.29v8.29h-8.29ZM9.92,243.39v-8.29h8.29v8.29h-8.29ZM9.92,254.7v-8.29h8.29v8.29h-8.29ZM9.92,254.7v-8.29h8.29v8.29h-8.29ZM9.92,254.7v-8.29h8.29v8.29h-8.29ZM9.92,254.7v-8.29h8.29v8.29h-8.29ZM9.92,266.01v-8.29h8.29v8.29h-8.29ZM9.92,266.01v-8.29h8.29v8.29h-8.29ZM9.92,266.01v-8.29h8.29v8.29h-8.29ZM9.92,266.01v-8.29h8.29v8.29h-8.29ZM9.92,277.32v-8.29h8.29v8.29h-8.29ZM9.92,277.32v-8.29h8.29v8.29h-8.29ZM9.92,277.32v-8.29h8.29v8.29h-8.29ZM9.92,277.32v-8.29h8.29v8.29h-8.29ZM9.92,288.63v-8.29h8.29v8.29h-8.29ZM9.92,288.63v-8.29h8.29v8.29h-8.29ZM9.92,288.63v-8.29h8.29v8.29h-8.29ZM9.92,288.63v-8.29h8.29v8.29h-8.29ZM9.92,299.94v-8.29h8.29v8.29h-8.29ZM9.92,299.94v-8.29h8.29v8.29h-8.29ZM9.92,299.94v-8.29h8.29v8.29h-8.29ZM9.92,299.94v-8.29h8.29v8.29h-8.29ZM9.92,311.24v-8.29h8.29v8.29h-8.29ZM9.92,311.24v-8.29h8.29v8.29h-8.29ZM9.92,311.24v-8.29h8.29v8.29h-8.29ZM9.92,311.24v-8.29h8.29v8.29h-8.29ZM15.57,322.55v-8.29h8.29v8.29h-8.29ZM15.57,322.55v-8.29h8.29v8.29h-8.29ZM15.57,322.55v-8.29h8.29v8.29h-8.29ZM15.57,322.55v-8.29h8.29v8.29h-8.29ZM21.23,333.86v-8.29h8.29v8.29h-8.29ZM21.23,333.86v-8.29h8.29v8.29h-8.29ZM21.23,333.86v-8.29h8.29v8.29h-8.29ZM21.23,333.86v-8.29h8.29v8.29h-8.29ZM26.88,345.17v-8.29h8.29v8.29h-8.29ZM26.88,345.17v-8.29h8.29v8.29h-8.29ZM26.88,345.17v-8.29h8.29v8.29h-8.29ZM26.88,345.17v-8.29h8.29v8.29h-8.29ZM32.54,356.48v-8.29h8.29v8.29h-8.29ZM32.54,356.48v-8.29h8.29v8.29h-8.29ZM32.54,356.48v-8.29h8.29v8.29h-8.29ZM32.54,356.48v-8.29h8.29v8.29h-8.29ZM38.19,345.17v-8.29h8.29v8.29h-8.29ZM38.19,345.17v-8.29h8.29v8.29h-8.29ZM38.19,345.17v-8.29h8.29v8.29h-8.29ZM38.19,345.17v-8.29h8.29v8.29h-8.29ZM43.85,333.86v-8.29h8.29v8.29h-8.29ZM43.85,333.86v-8.29h8.29v8.29h-8.29ZM43.85,333.86v-8.29h8.29v8.29h-8.29ZM43.85,333.86v-8.29h8.29v8.29h-8.29ZM49.5,322.55v-8.29h8.29v8.29h-8.29ZM49.5,322.55v-8.29h8.29v8.29h-8.29ZM49.5,322.55v-8.29h8.29v8.29h-8.29ZM49.5,322.55v-8.29h8.29v8.29h-8.29ZM55.15,243.39v-8.29h8.29v8.29h-8.29ZM55.15,243.39v-8.29h8.29v8.29h-8.29ZM55.15,243.39v-8.29h8.29v8.29h-8.29ZM55.15,243.39v-8.29h8.29v8.29h-8.29ZM55.15,254.7v-8.29h8.29v8.29h-8.29ZM55.15,254.7v-8.29h8.29v8.29h-8.29ZM55.15,254.7v-8.29h8.29v8.29h-8.29ZM55.15,254.7v-8.29h8.29v8.29h-8.29ZM55.15,266.01v-8.29h8.29v8.29h-8.29ZM55.15,266.01v-8.29h8.29v8.29h-8.29ZM55.15,266.01v-8.29h8.29v8.29h-8.29ZM55.15,266.01v-8.29h8.29v8.29h-8.29ZM55.15,277.32v-8.29h8.29v8.29h-8.29ZM55.15,277.32v-8.29h8.29v8.29h-8.29ZM55.15,277.32v-8.29h8.29v8.29h-8.29ZM55.15,277.32v-8.29h8.29v8.29h-8.29ZM55.15,288.63v-8.29h8.29v8.29h-8.29ZM55.15,288.63v-8.29h8.29v8.29h-8.29ZM55.15,288.63v-8.29h8.29v8.29h-8.29ZM55.15,288.63v-8.29h8.29v8.29h-8.29ZM55.15,299.94v-8.29h8.29v8.29h-8.29ZM55.15,299.94v-8.29h8.29v8.29h-8.29ZM55.15,299.94v-8.29h8.29v8.29h-8.29ZM55.15,299.94v-8.29h8.29v8.29h-8.29ZM55.15,311.24v-8.29h8.29v8.29h-8.29ZM55.15,311.24v-8.29h8.29v8.29h-8.29ZM55.15,311.24v-8.29h8.29v8.29h-8.29ZM55.15,311.24v-8.29h8.29v8.29h-8.29ZM60.81,322.55v-8.29h8.29v8.29h-8.29ZM60.81,322.55v-8.29h8.29v8.29h-8.29ZM60.81,322.55v-8.29h8.29v8.29h-8.29ZM60.81,322.55v-8.29h8.29v8.29h-8.29ZM66.46,333.86v-8.29h8.29v8.29h-8.29ZM66.46,333.86v-8.29h8.29v8.29h-8.29ZM66.46,333.86v-8.29h8.29v8.29h-8.29ZM66.46,333.86v-8.29h8.29v8.29h-8.29ZM72.12,345.17v-8.29h8.29v8.29h-8.29ZM72.12,345.17v-8.29h8.29v8.29h-8.29ZM72.12,345.17v-8.29h8.29v8.29h-8.29ZM72.12,345.17v-8.29h8.29v8.29h-8.29ZM77.77,356.48v-8.29h8.29v8.29h-8.29ZM77.77,356.48v-8.29h8.29v8.29h-8.29ZM77.77,356.48v-8.29h8.29v8.29h-8.29ZM77.77,356.48v-8.29h8.29v8.29h-8.29ZM83.42,345.17v-8.29h8.29v8.29h-8.29ZM83.42,345.17v-8.29h8.29v8.29h-8.29ZM83.42,345.17v-8.29h8.29v8.29h-8.29ZM83.42,345.17v-8.29h8.29v8.29h-8.29ZM89.08,333.86v-8.29h8.29v8.29h-8.29ZM89.08,333.86v-8.29h8.29v8.29h-8.29ZM89.08,333.86v-8.29h8.29v8.29h-8.29ZM89.08,333.86v-8.29h8.29v8.29h-8.29ZM94.73,322.55v-8.29h8.29v8.29h-8.29ZM94.73,322.55v-8.29h8.29v8.29h-8.29ZM94.73,322.55v-8.29h8.29v8.29h-8.29ZM94.73,322.55v-8.29h8.29v8.29h-8.29ZM100.39,243.39v-8.29h8.29v8.29h-8.29ZM100.39,243.39v-8.29h8.29v8.29h-8.29ZM100.39,243.39v-8.29h8.29v8.29h-8.29ZM100.39,243.39v-8.29h8.29v8.29h-8.29ZM100.39,254.7v-8.29h8.29v8.29h-8.29ZM100.39,254.7v-8.29h8.29v8.29h-8.29ZM100.39,254.7v-8.29h8.29v8.29h-8.29ZM100.39,254.7v-8.29h8.29v8.29h-8.29ZM100.39,266.01v-8.29h8.29v8.29h-8.29ZM100.39,266.01v-8.29h8.29v8.29h-8.29ZM100.39,266.01v-8.29h8.29v8.29h-8.29ZM100.39,266.01v-8.29h8.29v8.29h-8.29ZM100.39,277.32v-8.29h8.29v8.29h-8.29ZM100.39,277.32v-8.29h8.29v8.29h-8.29ZM100.39,277.32v-8.29h8.29v8.29h-8.29ZM100.39,277.32v-8.29h8.29v8.29h-8.29ZM100.39,288.63v-8.29h8.29v8.29h-8.29ZM100.39,288.63v-8.29h8.29v8.29h-8.29ZM100.39,288.63v-8.29h8.29v8.29h-8.29ZM100.39,288.63v-8.29h8.29v8.29h-8.29ZM100.39,299.94v-8.29h8.29v8.29h-8.29ZM100.39,299.94v-8.29h8.29v8.29h-8.29ZM100.39,299.94v-8.29h8.29v8.29h-8.29ZM100.39,299.94v-8.29h8.29v8.29h-8.29ZM100.39,311.24v-8.29h8.29v8.29h-8.29ZM100.39,311.24v-8.29h8.29v8.29h-8.29ZM100.39,311.24v-8.29h8.29v8.29h-8.29ZM100.39,311.24v-8.29h8.29v8.29h-8.29ZM127.39,243.39v-8.29h8.29v8.29h-8.29ZM127.39,243.39v-8.29h8.29v8.29h-8.29ZM127.39,243.39v-8.29h8.29v8.29h-8.29ZM127.39,243.39v-8.29h8.29v8.29h-8.29ZM127.39,254.7v-8.29h8.29v8.29h-8.29ZM127.39,254.7v-8.29h8.29v8.29h-8.29ZM127.39,254.7v-8.29h8.29v8.29h-8.29ZM127.39,254.7v-8.29h8.29v8.29h-8.29ZM127.39,266.01v-8.29h8.29v8.29h-8.29ZM127.39,266.01v-8.29h8.29v8.29h-8.29ZM127.39,266.01v-8.29h8.29v8.29h-8.29ZM127.39,266.01v-8.29h8.29v8.29h-8.29ZM127.39,277.32v-8.29h8.29v8.29h-8.29ZM127.39,277.32v-8.29h8.29v8.29h-8.29ZM127.39,277.32v-8.29h8.29v8.29h-8.29ZM127.39,277.32v-8.29h8.29v8.29h-8.29ZM127.39,288.63v-8.29h8.29v8.29h-8.29ZM127.39,288.63v-8.29h8.29v8.29h-8.29ZM127.39,288.63v-8.29h8.29v8.29h-8.29ZM127.39,288.63v-8.29h8.29v8.29h-8.29ZM127.39,299.94v-8.29h8.29v8.29h-8.29ZM127.39,299.94v-8.29h8.29v8.29h-8.29ZM127.39,299.94v-8.29h8.29v8.29h-8.29ZM127.39,299.94v-8.29h8.29v8.29h-8.29ZM127.39,311.24v-8.29h8.29v8.29h-8.29ZM127.39,311.24v-8.29h8.29v8.29h-8.29ZM127.39,311.24v-8.29h8.29v8.29h-8.29ZM127.39,311.24v-8.29h8.29v8.29h-8.29ZM127.39,322.55v-8.29h8.29v8.29h-8.29ZM127.39,322.55v-8.29h8.29v8.29h-8.29ZM127.39,322.55v-8.29h8.29v8.29h-8.29ZM127.39,322.55v-8.29h8.29v8.29h-8.29ZM127.39,333.86v-8.29h8.29v8.29h-8.29ZM127.39,333.86v-8.29h8.29v8.29h-8.29ZM127.39,333.86v-8.29h8.29v8.29h-8.29ZM127.39,333.86v-8.29h8.29v8.29h-8.29ZM127.39,345.17v-8.29h8.29v8.29h-8.29ZM127.39,345.17v-8.29h8.29v8.29h-8.29ZM127.39,345.17v-8.29h8.29v8.29h-8.29ZM127.39,345.17v-8.29h8.29v8.29h-8.29ZM127.39,356.48v-8.29h8.29v8.29h-8.29ZM127.39,356.48v-8.29h8.29v8.29h-8.29ZM127.39,356.48v-8.29h8.29v8.29h-8.29ZM127.39,356.48v-8.29h8.29v8.29h-8.29ZM138.7,243.39v-8.29h8.29v8.29h-8.29ZM138.7,243.39v-8.29h8.29v8.29h-8.29ZM138.7,243.39v-8.29h8.29v8.29h-8.29ZM138.7,243.39v-8.29h8.29v8.29h-8.29ZM138.7,299.94v-8.29h8.29v8.29h-8.29ZM138.7,299.94v-8.29h8.29v8.29h-8.29ZM138.7,299.94v-8.29h8.29v8.29h-8.29ZM138.7,299.94v-8.29h8.29v8.29h-8.29ZM138.7,356.48v-8.29h8.29v8.29h-8.29ZM138.7,356.48v-8.29h8.29v8.29h-8.29ZM138.7,356.48v-8.29h8.29v8.29h-8.29ZM138.7,356.48v-8.29h8.29v8.29h-8.29ZM150.01,243.39v-8.29h8.29v8.29h-8.29ZM150.01,243.39v-8.29h8.29v8.29h-8.29ZM150.01,243.39v-8.29h8.29v8.29h-8.29ZM150.01,243.39v-8.29h8.29v8.29h-8.29ZM150.01,299.94v-8.29h8.29v8.29h-8.29ZM150.01,299.94v-8.29h8.29v8.29h-8.29ZM150.01,299.94v-8.29h8.29v8.29h-8.29ZM150.01,299.94v-8.29h8.29v8.29h-8.29ZM150.01,356.48v-8.29h8.29v8.29h-8.29ZM150.01,356.48v-8.29h8.29v8.29h-8.29ZM150.01,356.48v-8.29h8.29v8.29h-8.29ZM150.01,356.48v-8.29h8.29v8.29h-8.29ZM161.31,243.39v-8.29h8.29v8.29h-8.29ZM161.31,243.39v-8.29h8.29v8.29h-8.29ZM161.31,243.39v-8.29h8.29v8.29h-8.29ZM161.31,243.39v-8.29h8.29v8.29h-8.29ZM161.31,299.94v-8.29h8.29v8.29h-8.29ZM161.31,299.94v-8.29h8.29v8.29h-8.29ZM161.31,299.94v-8.29h8.29v8.29h-8.29ZM161.31,299.94v-8.29h8.29v8.29h-8.29ZM161.31,356.48v-8.29h8.29v8.29h-8.29ZM161.31,356.48v-8.29h8.29v8.29h-8.29ZM161.31,356.48v-8.29h8.29v8.29h-8.29ZM161.31,356.48v-8.29h8.29v8.29h-8.29Z"/><path d="M226.67,243.39v-8.29h8.29v8.29h-8.29ZM226.67,243.39v-8.29h8.29v8.29h-8.29ZM226.67,243.39v-8.29h8.29v8.29h-8.29ZM226.67,243.39v-8.29h8.29v8.29h-8.29ZM237.98,243.39v-8.29h8.29v8.29h-8.29ZM237.98,243.39v-8.29h8.29v8.29h-8.29ZM237.98,243.39v-8.29h8.29v8.29h-8.29ZM237.98,243.39v-8.29h8.29v8.29h-8.29ZM249.29,243.39v-8.29h8.29v8.29h-8.29ZM249.29,243.39v-8.29h8.29v8.29h-8.29ZM249.29,243.39v-8.29h8.29v8.29h-8.29ZM249.29,243.39v-8.29h8.29v8.29h-8.29ZM249.29,254.7v-8.29h8.29v8.29h-8.29ZM249.29,254.7v-8.29h8.29v8.29h-8.29ZM249.29,254.7v-8.29h8.29v8.29h-8.29ZM249.29,254.7v-8.29h8.29v8.29h-8.29ZM249.29,266.01v-8.29h8.29v8.29h-8.29ZM249.29,266.01v-8.29h8.29v8.29h-8.29ZM249.29,266.01v-8.29h8.29v8.29h-8.29ZM249.29,266.01v-8.29h8.29v8.29h-8.29ZM249.29,277.32v-8.29h8.29v8.29h-8.29ZM249.29,277.32v-8.29h8.29v8.29h-8.29ZM249.29,277.32v-8.29h8.29v8.29h-8.29ZM249.29,277.32v-8.29h8.29v8.29h-8.29ZM249.29,288.63v-8.29h8.29v8.29h-8.29ZM249.29,288.63v-8.29h8.29v8.29h-8.29ZM249.29,288.63v-8.29h8.29v8.29h-8.29ZM249.29,288.63v-8.29h8.29v8.29h-8.29ZM249.29,299.94v-8.29h8.29v8.29h-8.29ZM249.29,299.94v-8.29h8.29v8.29h-8.29ZM249.29,299.94v-8.29h8.29v8.29h-8.29ZM249.29,299.94v-8.29h8.29v8.29h-8.29ZM249.29,311.24v-8.29h8.29v8.29h-8.29ZM249.29,311.24v-8.29h8.29v8.29h-8.29ZM249.29,311.24v-8.29h8.29v8.29h-8.29ZM249.29,311.24v-8.29h8.29v8.29h-8.29ZM249.29,322.55v-8.29h8.29v8.29h-8.29ZM249.29,322.55v-8.29h8.29v8.29h-8.29ZM249.29,322.55v-8.29h8.29v8.29h-8.29ZM249.29,322.55v-8.29h8.29v8.29h-8.29ZM249.29,333.86v-8.29h8.29v8.29h-8.29ZM249.29,333.86v-8.29h8.29v8.29h-8.29ZM249.29,333.86v-8.29h8.29v8.29h-8.29ZM249.29,333.86v-8.29h8.29v8.29h-8.29ZM249.29,345.17v-8.29h8.29v8.29h-8.29ZM249.29,345.17v-8.29h8.29v8.29h-8.29ZM249.29,345.17v-8.29h8.29v8.29h-8.29ZM249.29,345.17v-8.29h8.29v8.29h-8.29ZM249.29,356.48v-8.29h8.29v8.29h-8.29ZM249.29,356.48v-8.29h8.29v8.29h-8.29ZM249.29,356.48v-8.29h8.29v8.29h-8.29ZM249.29,356.48v-8.29h8.29v8.29h-8.29ZM260.6,243.39v-8.29h8.29v8.29h-8.29ZM260.6,243.39v-8.29h8.29v8.29h-8.29ZM260.6,243.39v-8.29h8.29v8.29h-8.29ZM260.6,243.39v-8.29h8.29v8.29h-8.29ZM271.9,243.39v-8.29h8.29v8.29h-8.29ZM271.9,243.39v-8.29h8.29v8.29h-8.29ZM271.9,243.39v-8.29h8.29v8.29h-8.29ZM271.9,243.39v-8.29h8.29v8.29h-8.29ZM296.42,243.39v-8.29h8.29v8.29h-8.29ZM296.42,243.39v-8.29h8.29v8.29h-8.29ZM296.42,243.39v-8.29h8.29v8.29h-8.29ZM296.42,243.39v-8.29h8.29v8.29h-8.29ZM296.42,254.7v-8.29h8.29v8.29h-8.29ZM296.42,254.7v-8.29h8.29v8.29h-8.29ZM296.42,254.7v-8.29h8.29v8.29h-8.29ZM296.42,254.7v-8.29h8.29v8.29h-8.29ZM296.42,266.01v-8.29h8.29v8.29h-8.29ZM296.42,266.01v-8.29h8.29v8.29h-8.29ZM296.42,266.01v-8.29h8.29v8.29h-8.29ZM296.42,266.01v-8.29h8.29v8.29h-8.29ZM296.42,277.32v-8.29h8.29v8.29h-8.29ZM296.42,277.32v-8.29h8.29v8.29h-8.29ZM296.42,277.32v-8.29h8.29v8.29h-8.29ZM296.42,277.32v-8.29h8.29v8.29h-8.29ZM296.42,288.63v-8.29h8.29v8.29h-8.29ZM296.42,288.63v-8.29h8.29v8.29h-8.29ZM296.42,288.63v-8.29h8.29v8.29h-8.29ZM296.42,288.63v-8.29h8.29v8.29h-8.29ZM296.42,299.94v-8.29h8.29v8.29h-8.29ZM296.42,299.94v-8.29h8.29v8.29h-8.29ZM296.42,299.94v-8.29h8.29v8.29h-8.29ZM296.42,299.94v-8.29h8.29v8.29h-8.29ZM296.42,311.24v-8.29h8.29v8.29h-8.29ZM296.42,311.24v-8.29h8.29v8.29h-8.29ZM296.42,311.24v-8.29h8.29v8.29h-8.29ZM296.42,311.24v-8.29h8.29v8.29h-8.29ZM296.42,322.55v-8.29h8.29v8.29h-8.29ZM296.42,322.55v-8.29h8.29v8.29h-8.29ZM296.42,322.55v-8.29h8.29v8.29h-8.29ZM296.42,322.55v-8.29h8.29v8.29h-8.29ZM296.42,333.86v-8.29h8.29v8.29h-8.29ZM296.42,333.86v-8.29h8.29v8.29h-8.29ZM296.42,333.86v-8.29h8.29v8.29h-8.29ZM296.42,333.86v-8.29h8.29v8.29h-8.29ZM296.42,345.17v-8.29h8.29v8.29h-8.29ZM296.42,345.17v-8.29h8.29v8.29h-8.29ZM296.42,345.17v-8.29h8.29v8.29h-8.29ZM296.42,345.17v-8.29h8.29v8.29h-8.29ZM296.42,356.48v-8.29h8.29v8.29h-8.29ZM296.42,356.48v-8.29h8.29v8.29h-8.29ZM296.42,356.48v-8.29h8.29v8.29h-8.29ZM296.42,356.48v-8.29h8.29v8.29h-8.29ZM307.73,299.94v-8.29h8.29v8.29h-8.29ZM307.73,299.94v-8.29h8.29v8.29h-8.29ZM307.73,299.94v-8.29h8.29v8.29h-8.29ZM307.73,299.94v-8.29h8.29v8.29h-8.29ZM319.04,299.94v-8.29h8.29v8.29h-8.29ZM319.04,299.94v-8.29h8.29v8.29h-8.29ZM319.04,299.94v-8.29h8.29v8.29h-8.29ZM319.04,299.94v-8.29h8.29v8.29h-8.29ZM330.35,299.94v-8.29h8.29v8.29h-8.29ZM330.35,299.94v-8.29h8.29v8.29h-8.29ZM330.35,299.94v-8.29h8.29v8.29h-8.29ZM330.35,299.94v-8.29h8.29v8.29h-8.29ZM341.66,243.39v-8.29h8.29v8.29h-8.29ZM341.66,243.39v-8.29h8.29v8.29h-8.29ZM341.66,243.39v-8.29h8.29v8.29h-8.29ZM341.66,243.39v-8.29h8.29v8.29h-8.29ZM341.66,254.7v-8.29h8.29v8.29h-8.29ZM341.66,254.7v-8.29h8.29v8.29h-8.29ZM341.66,254.7v-8.29h8.29v8.29h-8.29ZM341.66,254.7v-8.29h8.29v8.29h-8.29ZM341.66,266.01v-8.29h8.29v8.29h-8.29ZM341.66,266.01v-8.29h8.29v8.29h-8.29ZM341.66,266.01v-8.29h8.29v8.29h-8.29ZM341.66,266.01v-8.29h8.29v8.29h-8.29ZM341.66,277.32v-8.29h8.29v8.29h-8.29ZM341.66,277.32v-8.29h8.29v8.29h-8.29ZM341.66,277.32v-8.29h8.29v8.29h-8.29ZM341.66,277.32v-8.29h8.29v8.29h-8.29ZM341.66,288.63v-8.29h8.29v8.29h-8.29ZM341.66,288.63v-8.29h8.29v8.29h-8.29ZM341.66,288.63v-8.29h8.29v8.29h-8.29ZM341.66,288.63v-8.29h8.29v8.29h-8.29ZM341.66,299.94v-8.29h8.29v8.29h-8.29ZM341.66,299.94v-8.29h8.29v8.29h-8.29ZM341.66,299.94v-8.29h8.29v8.29h-8.29ZM341.66,299.94v-8.29h8.29v8.29h-8.29ZM341.66,311.24v-8.29h8.29v8.29h-8.29ZM341.66,311.24v-8.29h8.29v8.29h-8.29ZM341.66,311.24v-8.29h8.29v8.29h-8.29ZM341.66,311.24v-8.29h8.29v8.29h-8.29ZM341.66,322.55v-8.29h8.29v8.29h-8.29ZM341.66,322.55v-8.29h8.29v8.29h-8.29ZM341.66,322.55v-8.29h8.29v8.29h-8.29ZM341.66,322.55v-8.29h8.29v8.29h-8.29ZM341.66,333.86v-8.29h8.29v8.29h-8.29ZM341.66,333.86v-8.29h8.29v8.29h-8.29ZM341.66,333.86v-8.29h8.29v8.29h-8.29ZM341.66,333.86v-8.29h8.29v8.29h-8.29ZM341.66,345.17v-8.29h8.29v8.29h-8.29ZM341.66,345.17v-8.29h8.29v8.29h-8.29ZM341.66,345.17v-8.29h8.29v8.29h-8.29ZM341.66,345.17v-8.29h8.29v8.29h-8.29ZM341.66,356.48v-8.29h8.29v8.29h-8.29ZM341.66,356.48v-8.29h8.29v8.29h-8.29ZM341.66,356.48v-8.29h8.29v8.29h-8.29ZM341.66,356.48v-8.29h8.29v8.29h-8.29ZM367.7,243.39v-8.29h8.29v8.29h-8.29ZM367.7,243.39v-8.29h8.29v8.29h-8.29ZM367.7,243.39v-8.29h8.29v8.29h-8.29ZM367.7,243.39v-8.29h8.29v8.29h-8.29ZM367.7,254.7v-8.29h8.29v8.29h-8.29ZM367.7,254.7v-8.29h8.29v8.29h-8.29ZM367.7,254.7v-8.29h8.29v8.29h-8.29ZM367.7,254.7v-8.29h8.29v8.29h-8.29ZM367.7,266.01v-8.29h8.29v8.29h-8.29ZM367.7,266.01v-8.29h8.29v8.29h-8.29ZM367.7,266.01v-8.29h8.29v8.29h-8.29ZM367.7,266.01v-8.29h8.29v8.29h-8.29ZM367.7,277.32v-8.29h8.29v8.29h-8.29ZM367.7,277.32v-8.29h8.29v8.29h-8.29ZM367.7,277.32v-8.29h8.29v8.29h-8.29ZM367.7,277.32v-8.29h8.29v8.29h-8.29ZM367.7,288.63v-8.29h8.29v8.29h-8.29ZM367.7,288.63v-8.29h8.29v8.29h-8.29ZM367.7,288.63v-8.29h8.29v8.29h-8.29ZM367.7,288.63v-8.29h8.29v8.29h-8.29ZM367.7,299.94v-8.29h8.29v8.29h-8.29ZM367.7,299.94v-8.29h8.29v8.29h-8.29ZM367.7,299.94v-8.29h8.29v8.29h-8.29ZM367.7,299.94v-8.29h8.29v8.29h-8.29ZM367.7,311.24v-8.29h8.29v8.29h-8.29ZM367.7,311.24v-8.29h8.29v8.29h-8.29ZM367.7,311.24v-8.29h8.29v8.29h-8.29ZM367.7,311.24v-8.29h8.29v8.29h-8.29ZM367.7,322.55v-8.29h8.29v8.29h-8.29ZM367.7,322.55v-8.29h8.29v8.29h-8.29ZM367.7,322.55v-8.29h8.29v8.29h-8.29ZM367.7,322.55v-8.29h8.29v8.29h-8.29ZM367.7,333.86v-8.29h8.29v8.29h-8.29ZM367.7,333.86v-8.29h8.29v8.29h-8.29ZM367.7,333.86v-8.29h8.29v8.29h-8.29ZM367.7,333.86v-8.29h8.29v8.29h-8.29ZM367.7,345.17v-8.29h8.29v8.29h-8.29ZM367.7,345.17v-8.29h8.29v8.29h-8.29ZM367.7,345.17v-8.29h8.29v8.29h-8.29ZM367.7,345.17v-8.29h8.29v8.29h-8.29ZM367.7,356.48v-8.29h8.29v8.29h-8.29ZM367.7,356.48v-8.29h8.29v8.29h-8.29ZM367.7,356.48v-8.29h8.29v8.29h-8.29ZM367.7,356.48v-8.29h8.29v8.29h-8.29ZM379.01,243.39v-8.29h8.29v8.29h-8.29ZM379.01,243.39v-8.29h8.29v8.29h-8.29ZM379.01,243.39v-8.29h8.29v8.29h-8.29ZM379.01,243.39v-8.29h8.29v8.29h-8.29ZM379.01,299.94v-8.29h8.29v8.29h-8.29ZM379.01,299.94v-8.29h8.29v8.29h-8.29ZM379.01,299.94v-8.29h8.29v8.29h-8.29ZM379.01,299.94v-8.29h8.29v8.29h-8.29ZM379.01,356.48v-8.29h8.29v8.29h-8.29ZM379.01,356.48v-8.29h8.29v8.29h-8.29ZM379.01,356.48v-8.29h8.29v8.29h-8.29ZM379.01,356.48v-8.29h8.29v8.29h-8.29ZM390.32,243.39v-8.29h8.29v8.29h-8.29ZM390.32,243.39v-8.29h8.29v8.29h-8.29ZM390.32,243.39v-8.29h8.29v8.29h-8.29ZM390.32,243.39v-8.29h8.29v8.29h-8.29ZM390.32,299.94v-8.29h8.29v8.29h-8.29ZM390.32,299.94v-8.29h8.29v8.29h-8.29ZM390.32,299.94v-8.29h8.29v8.29h-8.29ZM390.32,299.94v-8.29h8.29v8.29h-8.29ZM390.32,356.48v-8.29h8.29v8.29h-8.29ZM390.32,356.48v-8.29h8.29v8.29h-8.29ZM390.32,356.48v-8.29h8.29v8.29h-8.29ZM390.32,356.48v-8.29h8.29v8.29h-8.29ZM401.63,243.39v-8.29h8.29v8.29h-8.29ZM401.63,243.39v-8.29h8.29v8.29h-8.29ZM401.63,243.39v-8.29h8.29v8.29h-8.29ZM401.63,243.39v-8.29h8.29v8.29h-8.29ZM401.63,299.94v-8.29h8.29v8.29h-8.29ZM401.63,299.94v-8.29h8.29v8.29h-8.29ZM401.63,299.94v-8.29h8.29v8.29h-8.29ZM401.63,299.94v-8.29h8.29v8.29h-8.29ZM401.63,356.48v-8.29h8.29v8.29h-8.29ZM401.63,356.48v-8.29h8.29v8.29h-8.29ZM401.63,356.48v-8.29h8.29v8.29h-8.29ZM401.63,356.48v-8.29h8.29v8.29h-8.29Z"/><path d="M9.92,396.92v-8.29h8.29v8.29h-8.29ZM9.92,396.92v-8.29h8.29v8.29h-8.29ZM9.92,396.92v-8.29h8.29v8.29h-8.29ZM9.92,396.92v-8.29h8.29v8.29h-8.29ZM9.92,408.22v-8.29h8.29v8.29h-8.29ZM9.92,408.22v-8.29h8.29v8.29h-8.29ZM9.92,408.22v-8.29h8.29v8.29h-8.29ZM9.92,408.22v-8.29h8.29v8.29h-8.29ZM9.92,419.53v-8.29h8.29v8.29h-8.29ZM9.92,419.53v-8.29h8.29v8.29h-8.29ZM9.92,419.53v-8.29h8.29v8.29h-8.29ZM9.92,419.53v-8.29h8.29v8.29h-8.29ZM9.92,430.84v-8.29h8.29v8.29h-8.29ZM9.92,430.84v-8.29h8.29v8.29h-8.29ZM9.92,430.84v-8.29h8.29v8.29h-8.29ZM9.92,430.84v-8.29h8.29v8.29h-8.29ZM9.92,442.15v-8.29h8.29v8.29h-8.29ZM9.92,442.15v-8.29h8.29v8.29h-8.29ZM9.92,442.15v-8.29h8.29v8.29h-8.29ZM9.92,442.15v-8.29h8.29v8.29h-8.29ZM9.92,453.46v-8.29h8.29v8.29h-8.29ZM9.92,453.46v-8.29h8.29v8.29h-8.29ZM9.92,453.46v-8.29h8.29v8.29h-8.29ZM9.92,453.46v-8.29h8.29v8.29h-8.29ZM9.92,464.77v-8.29h8.29v8.29h-8.29ZM9.92,464.77v-8.29h8.29v8.29h-8.29ZM9.92,464.77v-8.29h8.29v8.29h-8.29ZM9.92,464.77v-8.29h8.29v8.29h-8.29ZM9.92,476.07v-8.29h8.29v8.29h-8.29ZM9.92,476.07v-8.29h8.29v8.29h-8.29ZM9.92,476.07v-8.29h8.29v8.29h-8.29ZM9.92,476.07v-8.29h8.29v8.29h-8.29ZM9.92,487.38v-8.29h8.29v8.29h-8.29ZM9.92,487.38v-8.29h8.29v8.29h-8.29ZM9.92,487.38v-8.29h8.29v8.29h-8.29ZM9.92,487.38v-8.29h8.29v8.29h-8.29ZM9.92,498.69v-8.29h8.29v8.29h-8.29ZM9.92,498.69v-8.29h8.29v8.29h-8.29ZM9.92,498.69v-8.29h8.29v8.29h-8.29ZM9.92,498.69v-8.29h8.29v8.29h-8.29ZM9.92,510v-8.29h8.29v8.29h-8.29ZM9.92,510v-8.29h8.29v8.29h-8.29ZM9.92,510v-8.29h8.29v8.29h-8.29ZM9.92,510v-8.29h8.29v8.29h-8.29ZM21.23,396.92v-8.29h8.29v8.29h-8.29ZM21.23,396.92v-8.29h8.29v8.29h-8.29ZM21.23,396.92v-8.29h8.29v8.29h-8.29ZM21.23,396.92v-8.29h8.29v8.29h-8.29ZM21.23,464.77v-8.29h8.29v8.29h-8.29ZM21.23,464.77v-8.29h8.29v8.29h-8.29ZM21.23,464.77v-8.29h8.29v8.29h-8.29ZM21.23,464.77v-8.29h8.29v8.29h-8.29ZM32.54,396.92v-8.29h8.29v8.29h-8.29ZM32.54,396.92v-8.29h8.29v8.29h-8.29ZM32.54,396.92v-8.29h8.29v8.29h-8.29ZM32.54,396.92v-8.29h8.29v8.29h-8.29ZM32.54,464.77v-8.29h8.29v8.29h-8.29ZM32.54,464.77v-8.29h8.29v8.29h-8.29ZM32.54,464.77v-8.29h8.29v8.29h-8.29ZM32.54,464.77v-8.29h8.29v8.29h-8.29ZM43.85,396.92v-8.29h8.29v8.29h-8.29ZM43.85,396.92v-8.29h8.29v8.29h-8.29ZM43.85,396.92v-8.29h8.29v8.29h-8.29ZM43.85,396.92v-8.29h8.29v8.29h-8.29ZM43.85,464.77v-8.29h8.29v8.29h-8.29ZM43.85,464.77v-8.29h8.29v8.29h-8.29ZM43.85,464.77v-8.29h8.29v8.29h-8.29ZM43.85,464.77v-8.29h8.29v8.29h-8.29ZM55.15,408.22v-8.29h8.29v8.29h-8.29ZM55.15,408.22v-8.29h8.29v8.29h-8.29ZM55.15,408.22v-8.29h8.29v8.29h-8.29ZM55.15,408.22v-8.29h8.29v8.29h-8.29ZM55.15,419.53v-8.29h8.29v8.29h-8.29ZM55.15,419.53v-8.29h8.29v8.29h-8.29ZM55.15,419.53v-8.29h8.29v8.29h-8.29ZM55.15,419.53v-8.29h8.29v8.29h-8.29ZM55.15,430.84v-8.29h8.29v8.29h-8.29ZM55.15,430.84v-8.29h8.29v8.29h-8.29ZM55.15,430.84v-8.29h8.29v8.29h-8.29ZM55.15,430.84v-8.29h8.29v8.29h-8.29ZM55.15,442.15v-8.29h8.29v8.29h-8.29ZM55.15,442.15v-8.29h8.29v8.29h-8.29ZM55.15,442.15v-8.29h8.29v8.29h-8.29ZM55.15,442.15v-8.29h8.29v8.29h-8.29ZM55.15,453.46v-8.29h8.29v8.29h-8.29ZM55.15,453.46v-8.29h8.29v8.29h-8.29ZM55.15,453.46v-8.29h8.29v8.29h-8.29ZM55.15,453.46v-8.29h8.29v8.29h-8.29ZM83.51,396.92v-8.29h8.29v8.29h-8.29ZM83.51,396.92v-8.29h8.29v8.29h-8.29ZM83.51,396.92v-8.29h8.29v8.29h-8.29ZM83.51,396.92v-8.29h8.29v8.29h-8.29ZM83.51,408.22v-8.29h8.29v8.29h-8.29ZM83.51,408.22v-8.29h8.29v8.29h-8.29ZM83.51,408.22v-8.29h8.29v8.29h-8.29ZM83.51,408.22v-8.29h8.29v8.29h-8.29ZM83.51,419.53v-8.29h8.29v8.29h-8.29ZM83.51,419.53v-8.29h8.29v8.29h-8.29ZM83.51,419.53v-8.29h8.29v8.29h-8.29ZM83.51,419.53v-8.29h8.29v8.29h-8.29ZM83.51,430.84v-8.29h8.29v8.29h-8.29ZM83.51,430.84v-8.29h8.29v8.29h-8.29ZM83.51,430.84v-8.29h8.29v8.29h-8.29ZM83.51,430.84v-8.29h8.29v8.29h-8.29ZM83.51,442.15v-8.29h8.29v8.29h-8.29ZM83.51,442.15v-8.29h8.29v8.29h-8.29ZM83.51,442.15v-8.29h8.29v8.29h-8.29ZM83.51,442.15v-8.29h8.29v8.29h-8.29ZM83.51,453.46v-8.29h8.29v8.29h-8.29ZM83.51,453.46v-8.29h8.29v8.29h-8.29ZM83.51,453.46v-8.29h8.29v8.29h-8.29ZM83.51,453.46v-8.29h8.29v8.29h-8.29ZM83.51,464.77v-8.29h8.29v8.29h-8.29ZM83.51,464.77v-8.29h8.29v8.29h-8.29ZM83.51,464.77v-8.29h8.29v8.29h-8.29ZM83.51,464.77v-8.29h8.29v8.29h-8.29ZM83.51,476.07v-8.29h8.29v8.29h-8.29ZM83.51,476.07v-8.29h8.29v8.29h-8.29ZM83.51,476.07v-8.29h8.29v8.29h-8.29ZM83.51,476.07v-8.29h8.29v8.29h-8.29ZM83.51,487.38v-8.29h8.29v8.29h-8.29ZM83.51,487.38v-8.29h8.29v8.29h-8.29ZM83.51,487.38v-8.29h8.29v8.29h-8.29ZM83.51,487.38v-8.29h8.29v8.29h-8.29ZM83.51,498.69v-8.29h8.29v8.29h-8.29ZM83.51,498.69v-8.29h8.29v8.29h-8.29ZM83.51,498.69v-8.29h8.29v8.29h-8.29ZM83.51,498.69v-8.29h8.29v8.29h-8.29ZM83.51,510v-8.29h8.29v8.29h-8.29ZM83.51,510v-8.29h8.29v8.29h-8.29ZM83.51,510v-8.29h8.29v8.29h-8.29ZM83.51,510v-8.29h8.29v8.29h-8.29ZM94.82,396.92v-8.29h8.29v8.29h-8.29ZM94.82,396.92v-8.29h8.29v8.29h-8.29ZM94.82,396.92v-8.29h8.29v8.29h-8.29ZM94.82,396.92v-8.29h8.29v8.29h-8.29ZM94.82,453.46v-8.29h8.29v8.29h-8.29ZM94.82,453.46v-8.29h8.29v8.29h-8.29ZM94.82,453.46v-8.29h8.29v8.29h-8.29ZM94.82,453.46v-8.29h8.29v8.29h-8.29ZM94.82,510v-8.29h8.29v8.29h-8.29ZM94.82,510v-8.29h8.29v8.29h-8.29ZM94.82,510v-8.29h8.29v8.29h-8.29ZM94.82,510v-8.29h8.29v8.29h-8.29ZM106.13,396.92v-8.29h8.29v8.29h-8.29ZM106.13,396.92v-8.29h8.29v8.29h-8.29ZM106.13,396.92v-8.29h8.29v8.29h-8.29ZM106.13,396.92v-8.29h8.29v8.29h-8.29ZM106.13,453.46v-8.29h8.29v8.29h-8.29ZM106.13,453.46v-8.29h8.29v8.29h-8.29ZM106.13,453.46v-8.29h8.29v8.29h-8.29ZM106.13,453.46v-8.29h8.29v8.29h-8.29ZM106.13,510v-8.29h8.29v8.29h-8.29ZM106.13,510v-8.29h8.29v8.29h-8.29ZM106.13,510v-8.29h8.29v8.29h-8.29ZM106.13,510v-8.29h8.29v8.29h-8.29ZM117.44,396.92v-8.29h8.29v8.29h-8.29ZM117.44,396.92v-8.29h8.29v8.29h-8.29ZM117.44,396.92v-8.29h8.29v8.29h-8.29ZM117.44,396.92v-8.29h8.29v8.29h-8.29ZM117.44,453.46v-8.29h8.29v8.29h-8.29ZM117.44,453.46v-8.29h8.29v8.29h-8.29ZM117.44,453.46v-8.29h8.29v8.29h-8.29ZM117.44,453.46v-8.29h8.29v8.29h-8.29ZM117.44,510v-8.29h8.29v8.29h-8.29ZM117.44,510v-8.29h8.29v8.29h-8.29ZM117.44,510v-8.29h8.29v8.29h-8.29ZM117.44,510v-8.29h8.29v8.29h-8.29ZM149.32,408.22v-8.29h8.29v8.29h-8.29ZM149.32,408.22v-8.29h8.29v8.29h-8.29ZM149.32,408.22v-8.29h8.29v8.29h-8.29ZM149.32,408.22v-8.29h8.29v8.29h-8.29ZM149.32,419.53v-8.29h8.29v8.29h-8.29ZM149.32,419.53v-8.29h8.29v8.29h-8.29ZM149.32,419.53v-8.29h8.29v8.29h-8.29ZM149.32,419.53v-8.29h8.29v8.29h-8.29ZM149.32,430.84v-8.29h8.29v8.29h-8.29ZM149.32,430.84v-8.29h8.29v8.29h-8.29ZM149.32,430.84v-8.29h8.29v8.29h-8.29ZM149.32,430.84v-8.29h8.29v8.29h-8.29ZM149.32,442.15v-8.29h8.29v8.29h-8.29ZM149.32,442.15v-8.29h8.29v8.29h-8.29ZM149.32,442.15v-8.29h8.29v8.29h-8.29ZM149.32,442.15v-8.29h8.29v8.29h-8.29ZM149.32,453.46v-8.29h8.29v8.29h-8.29ZM149.32,453.46v-8.29h8.29v8.29h-8.29ZM149.32,453.46v-8.29h8.29v8.29h-8.29ZM149.32,453.46v-8.29h8.29v8.29h-8.29ZM149.32,464.77v-8.29h8.29v8.29h-8.29ZM149.32,464.77v-8.29h8.29v8.29h-8.29ZM149.32,464.77v-8.29h8.29v8.29h-8.29ZM149.32,464.77v-8.29h8.29v8.29h-8.29ZM149.32,476.07v-8.29h8.29v8.29h-8.29ZM149.32,476.07v-8.29h8.29v8.29h-8.29ZM149.32,476.07v-8.29h8.29v8.29h-8.29ZM149.32,476.07v-8.29h8.29v8.29h-8.29ZM149.32,487.38v-8.29h8.29v8.29h-8.29ZM149.32,487.38v-8.29h8.29v8.29h-8.29ZM149.32,487.38v-8.29h8.29v8.29h-8.29ZM149.32,487.38v-8.29h8.29v8.29h-8.29ZM149.32,498.69v-8.29h8.29v8.29h-8.29ZM149.32,498.69v-8.29h8.29v8.29h-8.29ZM149.32,498.69v-8.29h8.29v8.29h-8.29ZM149.32,498.69v-8.29h8.29v8.29h-8.29ZM160.63,396.92v-8.29h8.29v8.29h-8.29ZM160.63,396.92v-8.29h8.29v8.29h-8.29ZM160.63,396.92v-8.29h8.29v8.29h-8.29ZM160.63,396.92v-8.29h8.29v8.29h-8.29ZM160.63,510v-8.29h8.29v8.29h-8.29ZM160.63,510v-8.29h8.29v8.29h-8.29ZM160.63,510v-8.29h8.29v8.29h-8.29ZM160.63,510v-8.29h8.29v8.29h-8.29ZM171.94,396.92v-8.29h8.29v8.29h-8.29ZM171.94,396.92v-8.29h8.29v8.29h-8.29ZM171.94,396.92v-8.29h8.29v8.29h-8.29ZM171.94,396.92v-8.29h8.29v8.29h-8.29ZM171.94,510v-8.29h8.29v8.29h-8.29ZM171.94,510v-8.29h8.29v8.29h-8.29ZM171.94,510v-8.29h8.29v8.29h-8.29ZM171.94,510v-8.29h8.29v8.29h-8.29ZM183.25,396.92v-8.29h8.29v8.29h-8.29ZM183.25,396.92v-8.29h8.29v8.29h-8.29ZM183.25,396.92v-8.29h8.29v8.29h-8.29ZM183.25,396.92v-8.29h8.29v8.29h-8.29ZM183.25,510v-8.29h8.29v8.29h-8.29ZM183.25,510v-8.29h8.29v8.29h-8.29ZM183.25,510v-8.29h8.29v8.29h-8.29ZM183.25,510v-8.29h8.29v8.29h-8.29ZM194.56,408.22v-8.29h8.29v8.29h-8.29ZM194.56,408.22v-8.29h8.29v8.29h-8.29ZM194.56,408.22v-8.29h8.29v8.29h-8.29ZM194.56,408.22v-8.29h8.29v8.29h-8.29ZM194.56,419.53v-8.29h8.29v8.29h-8.29ZM194.56,419.53v-8.29h8.29v8.29h-8.29ZM194.56,419.53v-8.29h8.29v8.29h-8.29ZM194.56,419.53v-8.29h8.29v8.29h-8.29ZM194.56,430.84v-8.29h8.29v8.29h-8.29ZM194.56,430.84v-8.29h8.29v8.29h-8.29ZM194.56,430.84v-8.29h8.29v8.29h-8.29ZM194.56,430.84v-8.29h8.29v8.29h-8.29ZM194.56,442.15v-8.29h8.29v8.29h-8.29ZM194.56,442.15v-8.29h8.29v8.29h-8.29ZM194.56,442.15v-8.29h8.29v8.29h-8.29ZM194.56,442.15v-8.29h8.29v8.29h-8.29ZM194.56,453.46v-8.29h8.29v8.29h-8.29ZM194.56,453.46v-8.29h8.29v8.29h-8.29ZM194.56,453.46v-8.29h8.29v8.29h-8.29ZM194.56,453.46v-8.29h8.29v8.29h-8.29ZM194.56,464.77v-8.29h8.29v8.29h-8.29ZM194.56,464.77v-8.29h8.29v8.29h-8.29ZM194.56,464.77v-8.29h8.29v8.29h-8.29ZM194.56,464.77v-8.29h8.29v8.29h-8.29ZM194.56,476.07v-8.29h8.29v8.29h-8.29ZM194.56,476.07v-8.29h8.29v8.29h-8.29ZM194.56,476.07v-8.29h8.29v8.29h-8.29ZM194.56,476.07v-8.29h8.29v8.29h-8.29ZM194.56,487.38v-8.29h8.29v8.29h-8.29ZM194.56,487.38v-8.29h8.29v8.29h-8.29ZM194.56,487.38v-8.29h8.29v8.29h-8.29ZM194.56,487.38v-8.29h8.29v8.29h-8.29ZM194.56,498.69v-8.29h8.29v8.29h-8.29ZM194.56,498.69v-8.29h8.29v8.29h-8.29ZM194.56,498.69v-8.29h8.29v8.29h-8.29ZM194.56,498.69v-8.29h8.29v8.29h-8.29ZM229.1,396.92v-8.29h8.29v8.29h-8.29ZM229.1,396.92v-8.29h8.29v8.29h-8.29ZM229.1,396.92v-8.29h8.29v8.29h-8.29ZM229.1,396.92v-8.29h8.29v8.29h-8.29ZM229.1,408.22v-8.29h8.29v8.29h-8.29ZM229.1,408.22v-8.29h8.29v8.29h-8.29ZM229.1,408.22v-8.29h8.29v8.29h-8.29ZM229.1,408.22v-8.29h8.29v8.29h-8.29ZM229.1,419.53v-8.29h8.29v8.29h-8.29ZM229.1,419.53v-8.29h8.29v8.29h-8.29ZM229.1,419.53v-8.29h8.29v8.29h-8.29ZM229.1,419.53v-8.29h8.29v8.29h-8.29ZM229.1,430.84v-8.29h8.29v8.29h-8.29ZM229.1,430.84v-8.29h8.29v8.29h-8.29ZM229.1,430.84v-8.29h8.29v8.29h-8.29ZM229.1,430.84v-8.29h8.29v8.29h-8.29ZM229.1,442.15v-8.29h8.29v8.29h-8.29ZM229.1,442.15v-8.29h8.29v8.29h-8.29ZM229.1,442.15v-8.29h8.29v8.29h-8.29ZM229.1,442.15v-8.29h8.29v8.29h-8.29ZM229.1,453.46v-8.29h8.29v8.29h-8.29ZM229.1,453.46v-8.29h8.29v8.29h-8.29ZM229.1,453.46v-8.29h8.29v8.29h-8.29ZM229.1,453.46v-8.29h8.29v8.29h-8.29ZM229.1,464.77v-8.29h8.29v8.29h-8.29ZM229.1,464.77v-8.29h8.29v8.29h-8.29ZM229.1,464.77v-8.29h8.29v8.29h-8.29ZM229.1,464.77v-8.29h8.29v8.29h-8.29ZM229.1,476.07v-8.29h8.29v8.29h-8.29ZM229.1,476.07v-8.29h8.29v8.29h-8.29ZM229.1,476.07v-8.29h8.29v8.29h-8.29ZM229.1,476.07v-8.29h8.29v8.29h-8.29ZM229.1,487.38v-8.29h8.29v8.29h-8.29ZM229.1,487.38v-8.29h8.29v8.29h-8.29ZM229.1,487.38v-8.29h8.29v8.29h-8.29ZM229.1,487.38v-8.29h8.29v8.29h-8.29ZM229.1,498.69v-8.29h8.29v8.29h-8.29ZM229.1,498.69v-8.29h8.29v8.29h-8.29ZM229.1,498.69v-8.29h8.29v8.29h-8.29ZM229.1,498.69v-8.29h8.29v8.29h-8.29ZM229.1,510v-8.29h8.29v8.29h-8.29ZM229.1,510v-8.29h8.29v8.29h-8.29ZM229.1,510v-8.29h8.29v8.29h-8.29ZM229.1,510v-8.29h8.29v8.29h-8.29ZM240.41,396.92v-8.29h8.29v8.29h-8.29ZM240.41,396.92v-8.29h8.29v8.29h-8.29ZM240.41,396.92v-8.29h8.29v8.29h-8.29ZM240.41,396.92v-8.29h8.29v8.29h-8.29ZM240.41,464.77v-8.29h8.29v8.29h-8.29ZM240.41,464.77v-8.29h8.29v8.29h-8.29ZM240.41,464.77v-8.29h8.29v8.29h-8.29ZM240.41,464.77v-8.29h8.29v8.29h-8.29ZM251.71,396.92v-8.29h8.29v8.29h-8.29ZM251.71,396.92v-8.29h8.29v8.29h-8.29ZM251.71,396.92v-8.29h8.29v8.29h-8.29ZM251.71,396.92v-8.29h8.29v8.29h-8.29ZM251.71,464.77v-8.29h8.29v8.29h-8.29ZM251.71,464.77v-8.29h8.29v8.29h-8.29ZM251.71,464.77v-8.29h8.29v8.29h-8.29ZM251.71,464.77v-8.29h8.29v8.29h-8.29ZM263.02,396.92v-8.29h8.29v8.29h-8.29ZM263.02,396.92v-8.29h8.29v8.29h-8.29ZM263.02,396.92v-8.29h8.29v8.29h-8.29ZM263.02,396.92v-8.29h8.29v8.29h-8.29ZM263.02,464.77v-8.29h8.29v8.29h-8.29ZM263.02,464.77v-8.29h8.29v8.29h-8.29ZM263.02,464.77v-8.29h8.29v8.29h-8.29ZM263.02,464.77v-8.29h8.29v8.29h-8.29ZM274.33,408.22v-8.29h8.29v8.29h-8.29ZM274.33,408.22v-8.29h8.29v8.29h-8.29ZM274.33,408.22v-8.29h8.29v8.29h-8.29ZM274.33,408.22v-8.29h8.29v8.29h-8.29ZM274.33,419.53v-8.29h8.29v8.29h-8.29ZM274.33,419.53v-8.29h8.29v8.29h-8.29ZM274.33,419.53v-8.29h8.29v8.29h-8.29ZM274.33,419.53v-8.29h8.29v8.29h-8.29ZM274.33,430.84v-8.29h8.29v8.29h-8.29ZM274.33,430.84v-8.29h8.29v8.29h-8.29ZM274.33,430.84v-8.29h8.29v8.29h-8.29ZM274.33,430.84v-8.29h8.29v8.29h-8.29ZM274.33,442.15v-8.29h8.29v8.29h-8.29ZM274.33,442.15v-8.29h8.29v8.29h-8.29ZM274.33,442.15v-8.29h8.29v8.29h-8.29ZM274.33,442.15v-8.29h8.29v8.29h-8.29ZM274.33,453.46v-8.29h8.29v8.29h-8.29ZM274.33,453.46v-8.29h8.29v8.29h-8.29ZM274.33,453.46v-8.29h8.29v8.29h-8.29ZM274.33,453.46v-8.29h8.29v8.29h-8.29ZM306.23,396.92v-8.29h8.29v8.29h-8.29ZM306.23,396.92v-8.29h8.29v8.29h-8.29ZM306.23,396.92v-8.29h8.29v8.29h-8.29ZM306.23,396.92v-8.29h8.29v8.29h-8.29ZM306.23,408.22v-8.29h8.29v8.29h-8.29ZM306.23,408.22v-8.29h8.29v8.29h-8.29ZM306.23,408.22v-8.29h8.29v8.29h-8.29ZM306.23,408.22v-8.29h8.29v8.29h-8.29ZM306.23,419.53v-8.29h8.29v8.29h-8.29ZM306.23,419.53v-8.29h8.29v8.29h-8.29ZM306.23,419.53v-8.29h8.29v8.29h-8.29ZM306.23,419.53v-8.29h8.29v8.29h-8.29ZM306.23,430.84v-8.29h8.29v8.29h-8.29ZM306.23,430.84v-8.29h8.29v8.29h-8.29ZM306.23,430.84v-8.29h8.29v8.29h-8.29ZM306.23,430.84v-8.29h8.29v8.29h-8.29ZM306.23,442.15v-8.29h8.29v8.29h-8.29ZM306.23,442.15v-8.29h8.29v8.29h-8.29ZM306.23,442.15v-8.29h8.29v8.29h-8.29ZM306.23,442.15v-8.29h8.29v8.29h-8.29ZM306.23,453.46v-8.29h8.29v8.29h-8.29ZM306.23,453.46v-8.29h8.29v8.29h-8.29ZM306.23,453.46v-8.29h8.29v8.29h-8.29ZM306.23,453.46v-8.29h8.29v8.29h-8.29ZM306.23,464.77v-8.29h8.29v8.29h-8.29ZM306.23,464.77v-8.29h8.29v8.29h-8.29ZM306.23,464.77v-8.29h8.29v8.29h-8.29ZM306.23,464.77v-8.29h8.29v8.29h-8.29ZM306.23,476.07v-8.29h8.29v8.29h-8.29ZM306.23,476.07v-8.29h8.29v8.29h-8.29ZM306.23,476.07v-8.29h8.29v8.29h-8.29ZM306.23,476.07v-8.29h8.29v8.29h-8.29ZM306.23,487.38v-8.29h8.29v8.29h-8.29ZM306.23,487.38v-8.29h8.29v8.29h-8.29ZM306.23,487.38v-8.29h8.29v8.29h-8.29ZM306.23,487.38v-8.29h8.29v8.29h-8.29ZM306.23,498.69v-8.29h8.29v8.29h-8.29ZM306.23,498.69v-8.29h8.29v8.29h-8.29ZM306.23,498.69v-8.29h8.29v8.29h-8.29ZM306.23,498.69v-8.29h8.29v8.29h-8.29ZM306.23,510v-8.29h8.29v8.29h-8.29ZM306.23,510v-8.29h8.29v8.29h-8.29ZM306.23,510v-8.29h8.29v8.29h-8.29ZM306.23,510v-8.29h8.29v8.29h-8.29ZM317.54,510v-8.29h8.29v8.29h-8.29ZM317.54,510v-8.29h8.29v8.29h-8.29ZM317.54,510v-8.29h8.29v8.29h-8.29ZM317.54,510v-8.29h8.29v8.29h-8.29ZM328.85,510v-8.29h8.29v8.29h-8.29ZM328.85,510v-8.29h8.29v8.29h-8.29ZM328.85,510v-8.29h8.29v8.29h-8.29ZM328.85,510v-8.29h8.29v8.29h-8.29ZM340.16,510v-8.29h8.29v8.29h-8.29ZM340.16,510v-8.29h8.29v8.29h-8.29ZM340.16,510v-8.29h8.29v8.29h-8.29ZM340.16,510v-8.29h8.29v8.29h-8.29ZM367.7,396.92v-8.29h8.29v8.29h-8.29ZM367.7,396.92v-8.29h8.29v8.29h-8.29ZM367.7,396.92v-8.29h8.29v8.29h-8.29ZM367.7,396.92v-8.29h8.29v8.29h-8.29ZM367.7,408.22v-8.29h8.29v8.29h-8.29ZM367.7,408.22v-8.29h8.29v8.29h-8.29ZM367.7,408.22v-8.29h8.29v8.29h-8.29ZM367.7,408.22v-8.29h8.29v8.29h-8.29ZM367.7,419.53v-8.29h8.29v8.29h-8.29ZM367.7,419.53v-8.29h8.29v8.29h-8.29ZM367.7,419.53v-8.29h8.29v8.29h-8.29ZM367.7,419.53v-8.29h8.29v8.29h-8.29ZM367.7,430.84v-8.29h8.29v8.29h-8.29ZM367.7,430.84v-8.29h8.29v8.29h-8.29ZM367.7,430.84v-8.29h8.29v8.29h-8.29ZM367.7,430.84v-8.29h8.29v8.29h-8.29ZM367.7,442.15v-8.29h8.29v8.29h-8.29ZM367.7,442.15v-8.29h8.29v8.29h-8.29ZM367.7,442.15v-8.29h8.29v8.29h-8.29ZM367.7,442.15v-8.29h8.29v8.29h-8.29ZM367.7,453.46v-8.29h8.29v8.29h-8.29ZM367.7,453.46v-8.29h8.29v8.29h-8.29ZM367.7,453.46v-8.29h8.29v8.29h-8.29ZM367.7,453.46v-8.29h8.29v8.29h-8.29ZM367.7,464.77v-8.29h8.29v8.29h-8.29ZM367.7,464.77v-8.29h8.29v8.29h-8.29ZM367.7,464.77v-8.29h8.29v8.29h-8.29ZM367.7,464.77v-8.29h8.29v8.29h-8.29ZM367.7,476.07v-8.29h8.29v8.29h-8.29ZM367.7,476.07v-8.29h8.29v8.29h-8.29ZM367.7,476.07v-8.29h8.29v8.29h-8.29ZM367.7,476.07v-8.29h8.29v8.29h-8.29ZM367.7,487.38v-8.29h8.29v8.29h-8.29ZM367.7,487.38v-8.29h8.29v8.29h-8.29ZM367.7,487.38v-8.29h8.29v8.29h-8.29ZM367.7,487.38v-8.29h8.29v8.29h-8.29ZM367.7,498.69v-8.29h8.29v8.29h-8.29ZM367.7,498.69v-8.29h8.29v8.29h-8.29ZM367.7,498.69v-8.29h8.29v8.29h-8.29ZM367.7,498.69v-8.29h8.29v8.29h-8.29ZM367.7,510v-8.29h8.29v8.29h-8.29ZM367.7,510v-8.29h8.29v8.29h-8.29ZM367.7,510v-8.29h8.29v8.29h-8.29ZM367.7,510v-8.29h8.29v8.29h-8.29ZM379.01,396.92v-8.29h8.29v8.29h-8.29ZM379.01,396.92v-8.29h8.29v8.29h-8.29ZM379.01,396.92v-8.29h8.29v8.29h-8.29ZM379.01,396.92v-8.29h8.29v8.29h-8.29ZM379.01,453.46v-8.29h8.29v8.29h-8.29ZM379.01,453.46v-8.29h8.29v8.29h-8.29ZM379.01,453.46v-8.29h8.29v8.29h-8.29ZM379.01,453.46v-8.29h8.29v8.29h-8.29ZM379.01,510v-8.29h8.29v8.29h-8.29ZM379.01,510v-8.29h8.29v8.29h-8.29ZM379.01,510v-8.29h8.29v8.29h-8.29ZM379.01,510v-8.29h8.29v8.29h-8.29ZM390.32,396.92v-8.29h8.29v8.29h-8.29ZM390.32,396.92v-8.29h8.29v8.29h-8.29ZM390.32,396.92v-8.29h8.29v8.29h-8.29ZM390.32,396.92v-8.29h8.29v8.29h-8.29ZM390.32,453.46v-8.29h8.29v8.29h-8.29ZM390.32,453.46v-8.29h8.29v8.29h-8.29ZM390.32,453.46v-8.29h8.29v8.29h-8.29ZM390.32,453.46v-8.29h8.29v8.29h-8.29ZM390.32,510v-8.29h8.29v8.29h-8.29ZM390.32,510v-8.29h8.29v8.29h-8.29ZM390.32,510v-8.29h8.29v8.29h-8.29ZM390.32,510v-8.29h8.29v8.29h-8.29ZM401.63,396.92v-8.29h8.29v8.29h-8.29ZM401.63,396.92v-8.29h8.29v8.29h-8.29ZM401.63,396.92v-8.29h8.29v8.29h-8.29ZM401.63,396.92v-8.29h8.29v8.29h-8.29ZM401.63,453.46v-8.29h8.29v8.29h-8.29ZM401.63,453.46v-8.29h8.29v8.29h-8.29ZM401.63,453.46v-8.29h8.29v8.29h-8.29ZM401.63,453.46v-8.29h8.29v8.29h-8.29ZM401.63,510v-8.29h8.29v8.29h-8.29ZM401.63,510v-8.29h8.29v8.29h-8.29ZM401.63,510v-8.29h8.29v8.29h-8.29ZM401.63,510v-8.29h8.29v8.29h-8.29Z"/></svg>