<?xml version="1.0" encoding="UTF-8"?><svg id="wtp-lock-v1-3" xmlns="http://www.w3.org/2000/svg" viewBox="0 0 420 310"><defs><style>.cls-1{fill:#abbdcf;}</style></defs><path class="cls-1" d="M214.02,115h93.54v69.46c0,33.58-7.96,59.75-23.88,78.51-15.92,18.76-40.02,31.11-69.66,37.03v-34.23c22.62-6.58,38.98-18.88,46.44-36.87,4.18-9.66,5.82-18.77,4.94-27.32h-51.38v-86.58ZM205.13,115h-93.54v69.46c0,33.58,7.96,59.75,23.88,78.51,15.92,18.76,40.02,31.11,69.66,37.03v-34.23c-22.62-6.58-38.98-18.88-46.44-36.87-4.18-9.66-5.82-18.77-4.94-27.32h51.38v-86.58ZM316.46,201.58h51.38c.88,8.56-.76,17.66-4.94,27.32-7.46,17.99-23.83,30.28-46.44,36.87v34.23c29.64-5.92,53.74-18.27,69.66-37.03,15.92-18.76,23.88-44.93,23.88-78.51v-69.46h-93.54v86.58ZM103.54,115H10v69.46c0,33.58,7.96,59.75,23.88,78.51,15.92,18.76,40.02,31.11,69.66,37.03v-34.23c-22.62-6.58-38.98-18.88-46.44-36.87-4.18-9.66-5.82-18.77-4.94-27.32h51.38v-86.58Z"/><path class="cls-1" d="M10,14.12v-4.12h4.13v4.12h-4.13ZM10,14.12v-4.12h4.13v4.12h-4.13ZM10,14.12v-4.12h4.13v4.12h-4.13ZM10,14.12v-4.12h4.13v4.12h-4.13ZM10,19.75v-4.12h4.13v4.12h-4.13ZM10,19.75v-4.12h4.13v4.12h-4.13ZM10,19.75v-4.12h4.13v4.12h-4.13ZM10,19.75v-4.12h4.13v4.12h-4.13ZM10,25.37v-4.12h4.13v4.12h-4.13ZM10,25.37v-4.12h4.13v4.12h-4.13ZM10,25.37v-4.12h4.13v4.12h-4.13ZM10,25.37v-4.12h4.13v4.12h-4.13ZM10,31v-4.13h4.13v4.13h-4.13ZM10,31v-4.13h4.13v4.13h-4.13ZM10,31v-4.13h4.13v4.13h-4.13ZM10,31v-4.13h4.13v4.13h-4.13ZM10,36.62v-4.12h4.13v4.12h-4.13ZM10,36.62v-4.12h4.13v4.12h-4.13ZM10,36.62v-4.12h4.13v4.12h-4.13ZM10,36.62v-4.12h4.13v4.12h-4.13ZM10,42.24v-4.12h4.13v4.12h-4.13ZM10,42.24v-4.12h4.13v4.12h-4.13ZM10,42.24v-4.12h4.13v4.12h-4.13ZM10,42.24v-4.12h4.13v4.12h-4.13ZM10,47.86v-4.12h4.13v4.12h-4.13ZM10,47.86v-4.12h4.13v4.12h-4.13ZM10,47.86v-4.12h4.13v4.12h-4.13ZM10,47.86v-4.12h4.13v4.12h-4.13ZM12.81,53.49v-4.13h4.12v4.13h-4.12ZM12.81,53.49v-4.13h4.12v4.13h-4.12ZM12.81,53.49v-4.13h4.12v4.13h-4.12ZM12.81,53.49v-4.13h4.12v4.13h-4.12ZM15.62,59.11v-4.13h4.13v4.13h-4.13ZM15.62,59.11v-4.13h4.13v4.13h-4.13ZM15.62,59.11v-4.13h4.13v4.13h-4.13ZM15.62,59.11v-4.13h4.13v4.13h-4.13ZM18.43,64.73v-4.13h4.12v4.13h-4.12ZM18.43,64.73v-4.13h4.12v4.13h-4.12ZM18.43,64.73v-4.13h4.12v4.13h-4.12ZM18.43,64.73v-4.13h4.12v4.13h-4.12ZM21.24,70.36v-4.13h4.13v4.13h-4.13ZM21.24,70.36v-4.13h4.13v4.13h-4.13ZM21.24,70.36v-4.13h4.13v4.13h-4.13ZM21.24,70.36v-4.13h4.13v4.13h-4.13ZM24.06,64.73v-4.13h4.12v4.13h-4.12ZM24.06,64.73v-4.13h4.12v4.13h-4.12ZM24.06,64.73v-4.13h4.12v4.13h-4.12ZM24.06,64.73v-4.13h4.12v4.13h-4.12ZM26.87,59.11v-4.13h4.13v4.13h-4.13ZM26.87,59.11v-4.13h4.13v4.13h-4.13ZM26.87,59.11v-4.13h4.13v4.13h-4.13ZM26.87,59.11v-4.13h4.13v4.13h-4.13ZM29.68,53.49v-4.13h4.12v4.13h-4.12ZM29.68,53.49v-4.13h4.12v4.13h-4.12ZM29.68,53.49v-4.13h4.12v4.13h-4.12ZM29.68,53.49v-4.13h4.12v4.13h-4.12ZM32.49,14.12v-4.12h4.13v4.12h-4.13ZM32.49,14.12v-4.12h4.13v4.12h-4.13ZM32.49,14.12v-4.12h4.13v4.12h-4.13ZM32.49,14.12v-4.12h4.13v4.12h-4.13ZM32.49,19.75v-4.12h4.13v4.12h-4.13ZM32.49,19.75v-4.12h4.13v4.12h-4.13ZM32.49,19.75v-4.12h4.13v4.12h-4.13ZM32.49,19.75v-4.12h4.13v4.12h-4.13ZM32.49,25.37v-4.12h4.13v4.12h-4.13ZM32.49,25.37v-4.12h4.13v4.12h-4.13ZM32.49,25.37v-4.12h4.13v4.12h-4.13ZM32.49,25.37v-4.12h4.13v4.12h-4.13ZM32.49,31v-4.13h4.13v4.13h-4.13ZM32.49,31v-4.13h4.13v4.13h-4.13ZM32.49,31v-4.13h4.13v4.13h-4.13ZM32.49,31v-4.13h4.13v4.13h-4.13ZM32.49,36.62v-4.12h4.13v4.12h-4.13ZM32.49,36.62v-4.12h4.13v4.12h-4.13ZM32.49,36.62v-4.12h4.13v4.12h-4.13ZM32.49,36.62v-4.12h4.13v4.12h-4.13ZM32.49,42.24v-4.12h4.13v4.12h-4.13ZM32.49,42.24v-4.12h4.13v4.12h-4.13ZM32.49,42.24v-4.12h4.13v4.12h-4.13ZM32.49,42.24v-4.12h4.13v4.12h-4.13ZM32.49,47.86v-4.12h4.13v4.12h-4.13ZM32.49,47.86v-4.12h4.13v4.12h-4.13ZM32.49,47.86v-4.12h4.13v4.12h-4.13ZM32.49,47.86v-4.12h4.13v4.12h-4.13ZM35.31,53.49v-4.13h4.12v4.13h-4.12ZM35.31,53.49v-4.13h4.12v4.13h-4.12ZM35.31,53.49v-4.13h4.12v4.13h-4.12ZM35.31,53.49v-4.13h4.12v4.13h-4.12ZM38.12,59.11v-4.13h4.13v4.13h-4.13ZM38.12,59.11v-4.13h4.13v4.13h-4.13ZM38.12,59.11v-4.13h4.13v4.13h-4.13ZM38.12,59.11v-4.13h4.13v4.13h-4.13ZM40.93,64.73v-4.13h4.13v4.13h-4.13ZM40.93,64.73v-4.13h4.13v4.13h-4.13ZM40.93,64.73v-4.13h4.13v4.13h-4.13ZM40.93,64.73v-4.13h4.13v4.13h-4.13ZM43.74,70.36v-4.13h4.13v4.13h-4.13ZM43.74,70.36v-4.13h4.13v4.13h-4.13ZM43.74,70.36v-4.13h4.13v4.13h-4.13ZM43.74,70.36v-4.13h4.13v4.13h-4.13ZM46.55,64.73v-4.13h4.12v4.13h-4.12ZM46.55,64.73v-4.13h4.12v4.13h-4.12ZM46.55,64.73v-4.13h4.12v4.13h-4.12ZM46.55,64.73v-4.13h4.12v4.13h-4.12ZM49.36,59.11v-4.13h4.13v4.13h-4.13ZM49.36,59.11v-4.13h4.13v4.13h-4.13ZM49.36,59.11v-4.13h4.13v4.13h-4.13ZM49.36,59.11v-4.13h4.13v4.13h-4.13ZM52.18,53.49v-4.13h4.12v4.13h-4.12ZM52.18,53.49v-4.13h4.12v4.13h-4.12ZM52.18,53.49v-4.13h4.12v4.13h-4.12ZM52.18,53.49v-4.13h4.12v4.13h-4.12ZM54.99,14.12v-4.12h4.12v4.12h-4.12ZM54.99,14.12v-4.12h4.12v4.12h-4.12ZM54.99,14.12v-4.12h4.12v4.12h-4.12ZM54.99,14.12v-4.12h4.12v4.12h-4.12ZM54.99,19.75v-4.12h4.12v4.12h-4.12ZM54.99,19.75v-4.12h4.12v4.12h-4.12ZM54.99,19.75v-4.12h4.12v4.12h-4.12ZM54.99,19.75v-4.12h4.12v4.12h-4.12ZM54.99,25.37v-4.12h4.12v4.12h-4.12ZM54.99,25.37v-4.12h4.12v4.12h-4.12ZM54.99,25.37v-4.12h4.12v4.12h-4.12ZM54.99,25.37v-4.12h4.12v4.12h-4.12ZM54.99,31v-4.13h4.12v4.13h-4.12ZM54.99,31v-4.13h4.12v4.13h-4.12ZM54.99,31v-4.13h4.12v4.13h-4.12ZM54.99,31v-4.13h4.12v4.13h-4.12ZM54.99,36.62v-4.12h4.12v4.12h-4.12ZM54.99,36.62v-4.12h4.12v4.12h-4.12ZM54.99,36.62v-4.12h4.12v4.12h-4.12ZM54.99,36.62v-4.12h4.12v4.12h-4.12ZM54.99,42.24v-4.12h4.12v4.12h-4.12ZM54.99,42.24v-4.12h4.12v4.12h-4.12ZM54.99,42.24v-4.12h4.12v4.12h-4.12ZM54.99,42.24v-4.12h4.12v4.12h-4.12ZM54.99,47.86v-4.12h4.12v4.12h-4.12ZM54.99,47.86v-4.12h4.12v4.12h-4.12ZM54.99,47.86v-4.12h4.12v4.12h-4.12ZM54.99,47.86v-4.12h4.12v4.12h-4.12ZM66.65,36.62v-4.12h4.13v4.12h-4.13ZM66.65,36.62v-4.12h4.13v4.12h-4.13ZM66.65,36.62v-4.12h4.13v4.12h-4.13ZM66.65,36.62v-4.12h4.13v4.12h-4.13ZM66.65,42.24v-4.12h4.13v4.12h-4.13ZM66.65,42.24v-4.12h4.13v4.12h-4.13ZM66.65,42.24v-4.12h4.13v4.12h-4.13ZM66.65,42.24v-4.12h4.13v4.12h-4.13ZM66.65,47.87v-4.13h4.13v4.13h-4.13ZM66.65,47.87v-4.13h4.13v4.13h-4.13ZM66.65,47.87v-4.13h4.13v4.13h-4.13ZM66.65,47.87v-4.13h4.13v4.13h-4.13ZM66.65,53.49v-4.12h4.13v4.12h-4.13ZM66.65,53.49v-4.12h4.13v4.12h-4.13ZM66.65,53.49v-4.12h4.13v4.12h-4.13ZM66.65,53.49v-4.12h4.13v4.12h-4.13ZM66.65,59.11v-4.12h4.13v4.12h-4.13ZM66.65,59.11v-4.12h4.13v4.12h-4.13ZM66.65,59.11v-4.12h4.13v4.12h-4.13ZM66.65,59.11v-4.12h4.13v4.12h-4.13ZM66.65,64.73v-4.12h4.13v4.12h-4.13ZM66.65,64.73v-4.12h4.13v4.12h-4.13ZM66.65,64.73v-4.12h4.13v4.12h-4.13ZM66.65,64.73v-4.12h4.13v4.12h-4.13ZM72.28,30.99v-4.12h4.12v4.12h-4.12ZM72.28,30.99v-4.12h4.12v4.12h-4.12ZM72.28,30.99v-4.12h4.12v4.12h-4.12ZM72.28,30.99v-4.12h4.12v4.12h-4.12ZM72.28,47.87v-4.13h4.12v4.13h-4.12ZM72.28,47.87v-4.13h4.12v4.13h-4.12ZM72.28,47.87v-4.13h4.12v4.13h-4.12ZM72.28,47.87v-4.13h4.12v4.13h-4.12ZM72.28,70.36v-4.13h4.12v4.13h-4.12ZM72.28,70.36v-4.13h4.12v4.13h-4.12ZM72.28,70.36v-4.13h4.12v4.13h-4.12ZM72.28,70.36v-4.13h4.12v4.13h-4.12ZM77.9,30.99v-4.12h4.13v4.12h-4.13ZM77.9,30.99v-4.12h4.13v4.12h-4.13ZM77.9,30.99v-4.12h4.13v4.12h-4.13ZM77.9,30.99v-4.12h4.13v4.12h-4.13ZM77.9,47.87v-4.13h4.13v4.13h-4.13ZM77.9,47.87v-4.13h4.13v4.13h-4.13ZM77.9,47.87v-4.13h4.13v4.13h-4.13ZM77.9,47.87v-4.13h4.13v4.13h-4.13ZM77.9,70.36v-4.13h4.13v4.13h-4.13ZM77.9,70.36v-4.13h4.13v4.13h-4.13ZM77.9,70.36v-4.13h4.13v4.13h-4.13ZM77.9,70.36v-4.13h4.13v4.13h-4.13ZM83.52,30.99v-4.12h4.13v4.12h-4.13ZM83.52,30.99v-4.12h4.13v4.12h-4.13ZM83.52,30.99v-4.12h4.13v4.12h-4.13ZM83.52,30.99v-4.12h4.13v4.12h-4.13ZM83.52,47.87v-4.13h4.13v4.13h-4.13ZM83.52,47.87v-4.13h4.13v4.13h-4.13ZM83.52,47.87v-4.13h4.13v4.13h-4.13ZM83.52,47.87v-4.13h4.13v4.13h-4.13ZM83.52,70.36v-4.13h4.13v4.13h-4.13ZM83.52,70.36v-4.13h4.13v4.13h-4.13ZM83.52,70.36v-4.13h4.13v4.13h-4.13ZM83.52,70.36v-4.13h4.13v4.13h-4.13ZM89.15,36.62v-4.12h4.12v4.12h-4.12ZM89.15,36.62v-4.12h4.12v4.12h-4.12ZM89.15,36.62v-4.12h4.12v4.12h-4.12ZM89.15,36.62v-4.12h4.12v4.12h-4.12ZM89.15,42.24v-4.12h4.12v4.12h-4.12ZM89.15,42.24v-4.12h4.12v4.12h-4.12ZM89.15,42.24v-4.12h4.12v4.12h-4.12ZM89.15,42.24v-4.12h4.12v4.12h-4.12ZM89.15,47.87v-4.13h4.12v4.13h-4.12ZM89.15,47.87v-4.13h4.12v4.13h-4.12ZM89.15,47.87v-4.13h4.12v4.13h-4.12ZM89.15,47.87v-4.13h4.12v4.13h-4.12ZM89.15,64.73v-4.12h4.12v4.12h-4.12ZM89.15,64.73v-4.12h4.12v4.12h-4.12ZM89.15,64.73v-4.12h4.12v4.12h-4.12ZM89.15,64.73v-4.12h4.12v4.12h-4.12Z"/><path class="cls-1" d="M109.67,14.12v-4.12h4.13v4.12h-4.13ZM109.67,14.12v-4.12h4.13v4.12h-4.13ZM109.67,14.12v-4.12h4.13v4.12h-4.13ZM109.67,14.12v-4.12h4.13v4.12h-4.13ZM115.3,14.12v-4.12h4.12v4.12h-4.12ZM115.3,14.12v-4.12h4.12v4.12h-4.12ZM115.3,14.12v-4.12h4.12v4.12h-4.12ZM115.3,14.12v-4.12h4.12v4.12h-4.12ZM120.92,14.12v-4.12h4.13v4.12h-4.13ZM120.92,14.12v-4.12h4.13v4.12h-4.13ZM120.92,14.12v-4.12h4.13v4.12h-4.13ZM120.92,14.12v-4.12h4.13v4.12h-4.13ZM120.92,19.75v-4.13h4.13v4.13h-4.13ZM120.92,19.75v-4.13h4.13v4.13h-4.13ZM120.92,19.75v-4.13h4.13v4.13h-4.13ZM120.92,19.75v-4.13h4.13v4.13h-4.13ZM120.92,25.37v-4.13h4.13v4.13h-4.13ZM120.92,25.37v-4.13h4.13v4.13h-4.13ZM120.92,25.37v-4.13h4.13v4.13h-4.13ZM120.92,25.37v-4.13h4.13v4.13h-4.13ZM120.92,30.99v-4.13h4.13v4.13h-4.13ZM120.92,30.99v-4.13h4.13v4.13h-4.13ZM120.92,30.99v-4.13h4.13v4.13h-4.13ZM120.92,30.99v-4.13h4.13v4.13h-4.13ZM120.92,36.62v-4.13h4.13v4.13h-4.13ZM120.92,36.62v-4.13h4.13v4.13h-4.13ZM120.92,36.62v-4.13h4.13v4.13h-4.13ZM120.92,36.62v-4.13h4.13v4.13h-4.13ZM120.92,42.24v-4.13h4.13v4.13h-4.13ZM120.92,42.24v-4.13h4.13v4.13h-4.13ZM120.92,42.24v-4.13h4.13v4.13h-4.13ZM120.92,42.24v-4.13h4.13v4.13h-4.13ZM120.92,47.87v-4.13h4.13v4.13h-4.13ZM120.92,47.87v-4.13h4.13v4.13h-4.13ZM120.92,47.87v-4.13h4.13v4.13h-4.13ZM120.92,47.87v-4.13h4.13v4.13h-4.13ZM120.92,53.49v-4.13h4.13v4.13h-4.13ZM120.92,53.49v-4.13h4.13v4.13h-4.13ZM120.92,53.49v-4.13h4.13v4.13h-4.13ZM120.92,53.49v-4.13h4.13v4.13h-4.13ZM120.92,59.11v-4.13h4.13v4.13h-4.13ZM120.92,59.11v-4.13h4.13v4.13h-4.13ZM120.92,59.11v-4.13h4.13v4.13h-4.13ZM120.92,59.11v-4.13h4.13v4.13h-4.13ZM120.92,64.74v-4.13h4.13v4.13h-4.13ZM120.92,64.74v-4.13h4.13v4.13h-4.13ZM120.92,64.74v-4.13h4.13v4.13h-4.13ZM120.92,64.74v-4.13h4.13v4.13h-4.13ZM120.92,70.36v-4.12h4.13v4.12h-4.13ZM120.92,70.36v-4.12h4.13v4.12h-4.13ZM120.92,70.36v-4.12h4.13v4.12h-4.13ZM120.92,70.36v-4.12h4.13v4.12h-4.13ZM126.54,14.12v-4.12h4.13v4.12h-4.13ZM126.54,14.12v-4.12h4.13v4.12h-4.13ZM126.54,14.12v-4.12h4.13v4.12h-4.13ZM126.54,14.12v-4.12h4.13v4.12h-4.13ZM132.17,14.12v-4.12h4.12v4.12h-4.12ZM132.17,14.12v-4.12h4.12v4.12h-4.12ZM132.17,14.12v-4.12h4.12v4.12h-4.12ZM132.17,14.12v-4.12h4.12v4.12h-4.12ZM141.02,14.13v-4.13h4.13v4.13h-4.13ZM141.02,14.13v-4.13h4.13v4.13h-4.13ZM141.02,14.13v-4.13h4.13v4.13h-4.13ZM141.02,14.13v-4.13h4.13v4.13h-4.13ZM141.02,19.75v-4.12h4.13v4.12h-4.13ZM141.02,19.75v-4.12h4.13v4.12h-4.13ZM141.02,19.75v-4.12h4.13v4.12h-4.13ZM141.02,19.75v-4.12h4.13v4.12h-4.13ZM141.02,25.37v-4.12h4.13v4.12h-4.13ZM141.02,25.37v-4.12h4.13v4.12h-4.13ZM141.02,25.37v-4.12h4.13v4.12h-4.13ZM141.02,25.37v-4.12h4.13v4.12h-4.13ZM141.02,30.99v-4.13h4.13v4.13h-4.13ZM141.02,30.99v-4.13h4.13v4.13h-4.13ZM141.02,30.99v-4.13h4.13v4.13h-4.13ZM141.02,30.99v-4.13h4.13v4.13h-4.13ZM141.02,36.62v-4.12h4.13v4.12h-4.13ZM141.02,36.62v-4.12h4.13v4.12h-4.13ZM141.02,36.62v-4.12h4.13v4.12h-4.13ZM141.02,36.62v-4.12h4.13v4.12h-4.13ZM141.02,42.24v-4.12h4.13v4.12h-4.13ZM141.02,42.24v-4.12h4.13v4.12h-4.13ZM141.02,42.24v-4.12h4.13v4.12h-4.13ZM141.02,42.24v-4.12h4.13v4.12h-4.13ZM141.02,47.86v-4.12h4.13v4.12h-4.13ZM141.02,47.86v-4.12h4.13v4.12h-4.13ZM141.02,47.86v-4.12h4.13v4.12h-4.13ZM141.02,47.86v-4.12h4.13v4.12h-4.13ZM141.02,53.49v-4.12h4.13v4.12h-4.13ZM141.02,53.49v-4.12h4.13v4.12h-4.13ZM141.02,53.49v-4.12h4.13v4.12h-4.13ZM141.02,53.49v-4.12h4.13v4.12h-4.13ZM141.02,59.11v-4.12h4.13v4.12h-4.13ZM141.02,59.11v-4.12h4.13v4.12h-4.13ZM141.02,59.11v-4.12h4.13v4.12h-4.13ZM141.02,59.11v-4.12h4.13v4.12h-4.13ZM141.02,64.73v-4.12h4.13v4.12h-4.13ZM141.02,64.73v-4.12h4.13v4.12h-4.13ZM141.02,64.73v-4.12h4.13v4.12h-4.13ZM141.02,64.73v-4.12h4.13v4.12h-4.13ZM141.02,70.36v-4.12h4.13v4.12h-4.13ZM141.02,70.36v-4.12h4.13v4.12h-4.13ZM141.02,70.36v-4.12h4.13v4.12h-4.13ZM141.02,70.36v-4.12h4.13v4.12h-4.13ZM146.65,36.62v-4.12h4.12v4.12h-4.12ZM146.65,36.62v-4.12h4.12v4.12h-4.12ZM146.65,36.62v-4.12h4.12v4.12h-4.12ZM146.65,36.62v-4.12h4.12v4.12h-4.12ZM152.27,30.99v-4.13h4.12v4.13h-4.12ZM152.27,30.99v-4.13h4.12v4.13h-4.12ZM152.27,30.99v-4.13h4.12v4.13h-4.12ZM152.27,30.99v-4.13h4.12v4.13h-4.12ZM157.89,30.99v-4.13h4.13v4.13h-4.13ZM157.89,30.99v-4.13h4.13v4.13h-4.13ZM157.89,30.99v-4.13h4.13v4.13h-4.13ZM157.89,30.99v-4.13h4.13v4.13h-4.13ZM163.52,36.62v-4.12h4.12v4.12h-4.12ZM163.52,36.62v-4.12h4.12v4.12h-4.12ZM163.52,36.62v-4.12h4.12v4.12h-4.12ZM163.52,36.62v-4.12h4.12v4.12h-4.12ZM163.52,42.24v-4.12h4.12v4.12h-4.12ZM163.52,42.24v-4.12h4.12v4.12h-4.12ZM163.52,42.24v-4.12h4.12v4.12h-4.12ZM163.52,42.24v-4.12h4.12v4.12h-4.12ZM163.52,47.86v-4.12h4.12v4.12h-4.12ZM163.52,47.86v-4.12h4.12v4.12h-4.12ZM163.52,47.86v-4.12h4.12v4.12h-4.12ZM163.52,47.86v-4.12h4.12v4.12h-4.12ZM163.52,53.49v-4.12h4.12v4.12h-4.12ZM163.52,53.49v-4.12h4.12v4.12h-4.12ZM163.52,53.49v-4.12h4.12v4.12h-4.12ZM163.52,53.49v-4.12h4.12v4.12h-4.12ZM163.52,59.11v-4.12h4.12v4.12h-4.12ZM163.52,59.11v-4.12h4.12v4.12h-4.12ZM163.52,59.11v-4.12h4.12v4.12h-4.12ZM163.52,59.11v-4.12h4.12v4.12h-4.12ZM163.52,64.73v-4.12h4.12v4.12h-4.12ZM163.52,64.73v-4.12h4.12v4.12h-4.12ZM163.52,64.73v-4.12h4.12v4.12h-4.12ZM163.52,64.73v-4.12h4.12v4.12h-4.12ZM163.52,70.36v-4.12h4.12v4.12h-4.12ZM163.52,70.36v-4.12h4.12v4.12h-4.12ZM163.52,70.36v-4.12h4.12v4.12h-4.12ZM163.52,70.36v-4.12h4.12v4.12h-4.12ZM178,36.62v-4.12h4.13v4.12h-4.13ZM178,36.62v-4.12h4.13v4.12h-4.13ZM178,36.62v-4.12h4.13v4.12h-4.13ZM178,36.62v-4.12h4.13v4.12h-4.13ZM178,42.24v-4.12h4.13v4.12h-4.13ZM178,42.24v-4.12h4.13v4.12h-4.13ZM178,42.24v-4.12h4.13v4.12h-4.13ZM178,42.24v-4.12h4.13v4.12h-4.13ZM178,47.87v-4.13h4.13v4.13h-4.13ZM178,47.87v-4.13h4.13v4.13h-4.13ZM178,47.87v-4.13h4.13v4.13h-4.13ZM178,47.87v-4.13h4.13v4.13h-4.13ZM178,53.49v-4.12h4.13v4.12h-4.13ZM178,53.49v-4.12h4.13v4.12h-4.13ZM178,53.49v-4.12h4.13v4.12h-4.13ZM178,53.49v-4.12h4.13v4.12h-4.13ZM178,59.11v-4.12h4.13v4.12h-4.13ZM178,59.11v-4.12h4.13v4.12h-4.13ZM178,59.11v-4.12h4.13v4.12h-4.13ZM178,59.11v-4.12h4.13v4.12h-4.13ZM178,64.73v-4.12h4.13v4.12h-4.13ZM178,64.73v-4.12h4.13v4.12h-4.13ZM178,64.73v-4.12h4.13v4.12h-4.13ZM178,64.73v-4.12h4.13v4.12h-4.13ZM183.62,30.99v-4.12h4.13v4.12h-4.13ZM183.62,30.99v-4.12h4.13v4.12h-4.13ZM183.62,30.99v-4.12h4.13v4.12h-4.13ZM183.62,30.99v-4.12h4.13v4.12h-4.13ZM183.62,47.87v-4.13h4.13v4.13h-4.13ZM183.62,47.87v-4.13h4.13v4.13h-4.13ZM183.62,47.87v-4.13h4.13v4.13h-4.13ZM183.62,47.87v-4.13h4.13v4.13h-4.13ZM183.62,70.36v-4.13h4.13v4.13h-4.13ZM183.62,70.36v-4.13h4.13v4.13h-4.13ZM183.62,70.36v-4.13h4.13v4.13h-4.13ZM183.62,70.36v-4.13h4.13v4.13h-4.13ZM189.24,30.99v-4.12h4.13v4.12h-4.13ZM189.24,30.99v-4.12h4.13v4.12h-4.13ZM189.24,30.99v-4.12h4.13v4.12h-4.13ZM189.24,30.99v-4.12h4.13v4.12h-4.13ZM189.24,47.87v-4.13h4.13v4.13h-4.13ZM189.24,47.87v-4.13h4.13v4.13h-4.13ZM189.24,47.87v-4.13h4.13v4.13h-4.13ZM189.24,47.87v-4.13h4.13v4.13h-4.13ZM189.24,70.36v-4.13h4.13v4.13h-4.13ZM189.24,70.36v-4.13h4.13v4.13h-4.13ZM189.24,70.36v-4.13h4.13v4.13h-4.13ZM189.24,70.36v-4.13h4.13v4.13h-4.13ZM194.86,30.99v-4.12h4.13v4.12h-4.13ZM194.86,30.99v-4.12h4.13v4.12h-4.13ZM194.86,30.99v-4.12h4.13v4.12h-4.13ZM194.86,30.99v-4.12h4.13v4.12h-4.13ZM194.86,47.87v-4.13h4.13v4.13h-4.13ZM194.86,47.87v-4.13h4.13v4.13h-4.13ZM194.86,47.87v-4.13h4.13v4.13h-4.13ZM194.86,47.87v-4.13h4.13v4.13h-4.13ZM194.86,70.36v-4.13h4.13v4.13h-4.13ZM194.86,70.36v-4.13h4.13v4.13h-4.13ZM194.86,70.36v-4.13h4.13v4.13h-4.13ZM194.86,70.36v-4.13h4.13v4.13h-4.13ZM200.49,36.62v-4.12h4.12v4.12h-4.12ZM200.49,36.62v-4.12h4.12v4.12h-4.12ZM200.49,36.62v-4.12h4.12v4.12h-4.12ZM200.49,36.62v-4.12h4.12v4.12h-4.12ZM200.49,42.24v-4.12h4.12v4.12h-4.12ZM200.49,42.24v-4.12h4.12v4.12h-4.12ZM200.49,42.24v-4.12h4.12v4.12h-4.12ZM200.49,42.24v-4.12h4.12v4.12h-4.12ZM200.49,47.87v-4.13h4.12v4.13h-4.12ZM200.49,47.87v-4.13h4.12v4.13h-4.12ZM200.49,47.87v-4.13h4.12v4.13h-4.12ZM200.49,47.87v-4.13h4.12v4.13h-4.12ZM200.49,64.73v-4.12h4.12v4.12h-4.12ZM200.49,64.73v-4.12h4.12v4.12h-4.12ZM200.49,64.73v-4.12h4.12v4.12h-4.12ZM200.49,64.73v-4.12h4.12v4.12h-4.12Z"/><path class="cls-1" d="M226.64,14.12v-4.12h4.13v4.12h-4.13ZM226.64,14.12v-4.12h4.13v4.12h-4.13ZM226.64,14.12v-4.12h4.13v4.12h-4.13ZM226.64,14.12v-4.12h4.13v4.12h-4.13ZM226.64,19.75v-4.12h4.13v4.12h-4.13ZM226.64,19.75v-4.12h4.13v4.12h-4.13ZM226.64,19.75v-4.12h4.13v4.12h-4.13ZM226.64,19.75v-4.12h4.13v4.12h-4.13ZM226.64,25.37v-4.13h4.13v4.13h-4.13ZM226.64,25.37v-4.13h4.13v4.13h-4.13ZM226.64,25.37v-4.13h4.13v4.13h-4.13ZM226.64,25.37v-4.13h4.13v4.13h-4.13ZM226.64,30.99v-4.12h4.13v4.12h-4.13ZM226.64,30.99v-4.12h4.13v4.12h-4.13ZM226.64,30.99v-4.12h4.13v4.12h-4.13ZM226.64,30.99v-4.12h4.13v4.12h-4.13ZM226.64,36.62v-4.12h4.13v4.12h-4.13ZM226.64,36.62v-4.12h4.13v4.12h-4.13ZM226.64,36.62v-4.12h4.13v4.12h-4.13ZM226.64,36.62v-4.12h4.13v4.12h-4.13ZM226.64,42.24v-4.12h4.13v4.12h-4.13ZM226.64,42.24v-4.12h4.13v4.12h-4.13ZM226.64,42.24v-4.12h4.13v4.12h-4.13ZM226.64,42.24v-4.12h4.13v4.12h-4.13ZM226.64,47.87v-4.13h4.13v4.13h-4.13ZM226.64,47.87v-4.13h4.13v4.13h-4.13ZM226.64,47.87v-4.13h4.13v4.13h-4.13ZM226.64,47.87v-4.13h4.13v4.13h-4.13ZM226.64,53.49v-4.13h4.13v4.13h-4.13ZM226.64,53.49v-4.13h4.13v4.13h-4.13ZM226.64,53.49v-4.13h4.13v4.13h-4.13ZM226.64,53.49v-4.13h4.13v4.13h-4.13ZM226.64,59.11v-4.13h4.13v4.13h-4.13ZM226.64,59.11v-4.13h4.13v4.13h-4.13ZM226.64,59.11v-4.13h4.13v4.13h-4.13ZM226.64,59.11v-4.13h4.13v4.13h-4.13ZM226.64,64.73v-4.13h4.13v4.13h-4.13ZM226.64,64.73v-4.13h4.13v4.13h-4.13ZM226.64,64.73v-4.13h4.13v4.13h-4.13ZM226.64,64.73v-4.13h4.13v4.13h-4.13ZM226.64,70.36v-4.13h4.13v4.13h-4.13ZM226.64,70.36v-4.13h4.13v4.13h-4.13ZM226.64,70.36v-4.13h4.13v4.13h-4.13ZM226.64,70.36v-4.13h4.13v4.13h-4.13ZM232.26,14.12v-4.12h4.12v4.12h-4.12ZM232.26,14.12v-4.12h4.12v4.12h-4.12ZM232.26,14.12v-4.12h4.12v4.12h-4.12ZM232.26,14.12v-4.12h4.12v4.12h-4.12ZM232.26,47.87v-4.13h4.12v4.13h-4.12ZM232.26,47.87v-4.13h4.12v4.13h-4.12ZM232.26,47.87v-4.13h4.12v4.13h-4.12ZM232.26,47.87v-4.13h4.12v4.13h-4.12ZM237.88,14.12v-4.12h4.13v4.12h-4.13ZM237.88,14.12v-4.12h4.13v4.12h-4.13ZM237.88,14.12v-4.12h4.13v4.12h-4.13ZM237.88,14.12v-4.12h4.13v4.12h-4.13ZM237.88,47.87v-4.13h4.13v4.13h-4.13ZM237.88,47.87v-4.13h4.13v4.13h-4.13ZM237.88,47.87v-4.13h4.13v4.13h-4.13ZM237.88,47.87v-4.13h4.13v4.13h-4.13ZM243.51,14.12v-4.12h4.13v4.12h-4.13ZM243.51,14.12v-4.12h4.13v4.12h-4.13ZM243.51,14.12v-4.12h4.13v4.12h-4.13ZM243.51,14.12v-4.12h4.13v4.12h-4.13ZM243.51,47.87v-4.13h4.13v4.13h-4.13ZM243.51,47.87v-4.13h4.13v4.13h-4.13ZM243.51,47.87v-4.13h4.13v4.13h-4.13ZM243.51,47.87v-4.13h4.13v4.13h-4.13ZM249.13,19.75v-4.12h4.12v4.12h-4.12ZM249.13,19.75v-4.12h4.12v4.12h-4.12ZM249.13,19.75v-4.12h4.12v4.12h-4.12ZM249.13,19.75v-4.12h4.12v4.12h-4.12ZM249.13,25.37v-4.13h4.12v4.13h-4.12ZM249.13,25.37v-4.13h4.12v4.13h-4.12ZM249.13,25.37v-4.13h4.12v4.13h-4.12ZM249.13,25.37v-4.13h4.12v4.13h-4.12ZM249.13,30.99v-4.12h4.12v4.12h-4.12ZM249.13,30.99v-4.12h4.12v4.12h-4.12ZM249.13,30.99v-4.12h4.12v4.12h-4.12ZM249.13,30.99v-4.12h4.12v4.12h-4.12ZM249.13,36.62v-4.12h4.12v4.12h-4.12ZM249.13,36.62v-4.12h4.12v4.12h-4.12ZM249.13,36.62v-4.12h4.12v4.12h-4.12ZM249.13,36.62v-4.12h4.12v4.12h-4.12ZM249.13,42.24v-4.12h4.12v4.12h-4.12ZM249.13,42.24v-4.12h4.12v4.12h-4.12ZM249.13,42.24v-4.12h4.12v4.12h-4.12ZM249.13,42.24v-4.12h4.12v4.12h-4.12ZM260.8,36.62v-4.12h4.13v4.12h-4.13ZM260.8,36.62v-4.12h4.13v4.12h-4.13ZM260.8,36.62v-4.12h4.13v4.12h-4.13ZM260.8,36.62v-4.12h4.13v4.12h-4.13ZM260.8,42.24v-4.12h4.13v4.12h-4.13ZM260.8,42.24v-4.12h4.13v4.12h-4.13ZM260.8,42.24v-4.12h4.13v4.12h-4.13ZM260.8,42.24v-4.12h4.13v4.12h-4.13ZM260.8,47.87v-4.13h4.13v4.13h-4.13ZM260.8,47.87v-4.13h4.13v4.13h-4.13ZM260.8,47.87v-4.13h4.13v4.13h-4.13ZM260.8,47.87v-4.13h4.13v4.13h-4.13ZM260.8,53.49v-4.12h4.13v4.12h-4.13ZM260.8,53.49v-4.12h4.13v4.12h-4.13ZM260.8,53.49v-4.12h4.13v4.12h-4.13ZM260.8,53.49v-4.12h4.13v4.12h-4.13ZM260.8,59.11v-4.12h4.13v4.12h-4.13ZM260.8,59.11v-4.12h4.13v4.12h-4.13ZM260.8,59.11v-4.12h4.13v4.12h-4.13ZM260.8,59.11v-4.12h4.13v4.12h-4.13ZM260.8,64.73v-4.12h4.13v4.12h-4.13ZM260.8,64.73v-4.12h4.13v4.12h-4.13ZM260.8,64.73v-4.12h4.13v4.12h-4.13ZM260.8,64.73v-4.12h4.13v4.12h-4.13ZM266.42,30.99v-4.12h4.12v4.12h-4.12ZM266.42,30.99v-4.12h4.12v4.12h-4.12ZM266.42,30.99v-4.12h4.12v4.12h-4.12ZM266.42,30.99v-4.12h4.12v4.12h-4.12ZM266.42,47.87v-4.13h4.12v4.13h-4.12ZM266.42,47.87v-4.13h4.12v4.13h-4.12ZM266.42,47.87v-4.13h4.12v4.13h-4.12ZM266.42,47.87v-4.13h4.12v4.13h-4.12ZM266.42,70.36v-4.13h4.12v4.13h-4.12ZM266.42,70.36v-4.13h4.12v4.13h-4.12ZM266.42,70.36v-4.13h4.12v4.13h-4.12ZM266.42,70.36v-4.13h4.12v4.13h-4.12ZM272.04,30.99v-4.12h4.13v4.12h-4.13ZM272.04,30.99v-4.12h4.13v4.12h-4.13ZM272.04,30.99v-4.12h4.13v4.12h-4.13ZM272.04,30.99v-4.12h4.13v4.12h-4.13ZM272.04,47.87v-4.13h4.13v4.13h-4.13ZM272.04,47.87v-4.13h4.13v4.13h-4.13ZM272.04,47.87v-4.13h4.13v4.13h-4.13ZM272.04,47.87v-4.13h4.13v4.13h-4.13ZM272.04,70.36v-4.13h4.13v4.13h-4.13ZM272.04,70.36v-4.13h4.13v4.13h-4.13ZM272.04,70.36v-4.13h4.13v4.13h-4.13ZM272.04,70.36v-4.13h4.13v4.13h-4.13ZM277.67,30.99v-4.12h4.13v4.12h-4.13ZM277.67,30.99v-4.12h4.13v4.12h-4.13ZM277.67,30.99v-4.12h4.13v4.12h-4.13ZM277.67,30.99v-4.12h4.13v4.12h-4.13ZM277.67,47.87v-4.13h4.13v4.13h-4.13ZM277.67,47.87v-4.13h4.13v4.13h-4.13ZM277.67,47.87v-4.13h4.13v4.13h-4.13ZM277.67,47.87v-4.13h4.13v4.13h-4.13ZM277.67,70.36v-4.13h4.13v4.13h-4.13ZM277.67,70.36v-4.13h4.13v4.13h-4.13ZM277.67,70.36v-4.13h4.13v4.13h-4.13ZM277.67,70.36v-4.13h4.13v4.13h-4.13ZM283.29,36.62v-4.12h4.12v4.12h-4.12ZM283.29,36.62v-4.12h4.12v4.12h-4.12ZM283.29,36.62v-4.12h4.12v4.12h-4.12ZM283.29,36.62v-4.12h4.12v4.12h-4.12ZM283.29,42.24v-4.12h4.12v4.12h-4.12ZM283.29,42.24v-4.12h4.12v4.12h-4.12ZM283.29,42.24v-4.12h4.12v4.12h-4.12ZM283.29,42.24v-4.12h4.12v4.12h-4.12ZM283.29,47.87v-4.13h4.12v4.13h-4.12ZM283.29,47.87v-4.13h4.12v4.13h-4.12ZM283.29,47.87v-4.13h4.12v4.13h-4.12ZM283.29,47.87v-4.13h4.12v4.13h-4.12ZM283.29,64.73v-4.12h4.12v4.12h-4.12ZM283.29,64.73v-4.12h4.12v4.12h-4.12ZM283.29,64.73v-4.12h4.12v4.12h-4.12ZM283.29,64.73v-4.12h4.12v4.12h-4.12ZM294.96,36.62v-4.12h4.13v4.12h-4.13ZM294.96,36.62v-4.12h4.13v4.12h-4.13ZM294.96,36.62v-4.12h4.13v4.12h-4.13ZM294.96,36.62v-4.12h4.13v4.12h-4.13ZM294.96,42.24v-4.12h4.13v4.12h-4.13ZM294.96,42.24v-4.12h4.13v4.12h-4.13ZM294.96,42.24v-4.12h4.13v4.12h-4.13ZM294.96,42.24v-4.12h4.13v4.12h-4.13ZM294.96,47.87v-4.13h4.13v4.13h-4.13ZM294.96,47.87v-4.13h4.13v4.13h-4.13ZM294.96,47.87v-4.13h4.13v4.13h-4.13ZM294.96,47.87v-4.13h4.13v4.13h-4.13ZM294.96,53.49v-4.12h4.13v4.12h-4.13ZM294.96,53.49v-4.12h4.13v4.12h-4.13ZM294.96,53.49v-4.12h4.13v4.12h-4.13ZM294.96,53.49v-4.12h4.13v4.12h-4.13ZM294.96,59.11v-4.12h4.13v4.12h-4.13ZM294.96,59.11v-4.12h4.13v4.12h-4.13ZM294.96,59.11v-4.12h4.13v4.12h-4.13ZM294.96,59.11v-4.12h4.13v4.12h-4.13ZM294.96,64.73v-4.12h4.13v4.12h-4.13ZM294.96,64.73v-4.12h4.13v4.12h-4.13ZM294.96,64.73v-4.12h4.13v4.12h-4.13ZM294.96,64.73v-4.12h4.13v4.12h-4.13ZM300.58,30.99v-4.12h4.12v4.12h-4.12ZM300.58,30.99v-4.12h4.12v4.12h-4.12ZM300.58,30.99v-4.12h4.12v4.12h-4.12ZM300.58,30.99v-4.12h4.12v4.12h-4.12ZM300.58,70.36v-4.13h4.12v4.13h-4.12ZM300.58,70.36v-4.13h4.12v4.13h-4.12ZM300.58,70.36v-4.13h4.12v4.13h-4.12ZM300.58,70.36v-4.13h4.12v4.13h-4.12ZM306.2,30.99v-4.12h4.13v4.12h-4.13ZM306.2,30.99v-4.12h4.13v4.12h-4.13ZM306.2,30.99v-4.12h4.13v4.12h-4.13ZM306.2,30.99v-4.12h4.13v4.12h-4.13ZM306.2,70.36v-4.13h4.13v4.13h-4.13ZM306.2,70.36v-4.13h4.13v4.13h-4.13ZM306.2,70.36v-4.13h4.13v4.13h-4.13ZM306.2,70.36v-4.13h4.13v4.13h-4.13ZM311.83,30.99v-4.12h4.13v4.12h-4.13ZM311.83,30.99v-4.12h4.13v4.12h-4.13ZM311.83,30.99v-4.12h4.13v4.12h-4.13ZM311.83,30.99v-4.12h4.13v4.12h-4.13ZM311.83,70.36v-4.13h4.13v4.13h-4.13ZM311.83,70.36v-4.13h4.13v4.13h-4.13ZM311.83,70.36v-4.13h4.13v4.13h-4.13ZM311.83,70.36v-4.13h4.13v4.13h-4.13ZM317.45,36.62v-4.12h4.12v4.12h-4.12ZM317.45,36.62v-4.12h4.12v4.12h-4.12ZM317.45,36.62v-4.12h4.12v4.12h-4.12ZM317.45,36.62v-4.12h4.12v4.12h-4.12ZM317.45,42.24v-4.12h4.12v4.12h-4.12ZM317.45,42.24v-4.12h4.12v4.12h-4.12ZM317.45,42.24v-4.12h4.12v4.12h-4.12ZM317.45,42.24v-4.12h4.12v4.12h-4.12ZM317.45,47.87v-4.13h4.12v4.13h-4.12ZM317.45,47.87v-4.13h4.12v4.13h-4.12ZM317.45,47.87v-4.13h4.12v4.13h-4.12ZM317.45,47.87v-4.13h4.12v4.13h-4.12ZM317.45,53.49v-4.12h4.12v4.12h-4.12ZM317.45,53.49v-4.12h4.12v4.12h-4.12ZM317.45,53.49v-4.12h4.12v4.12h-4.12ZM317.45,53.49v-4.12h4.12v4.12h-4.12ZM317.45,59.11v-4.12h4.12v4.12h-4.12ZM317.45,59.11v-4.12h4.12v4.12h-4.12ZM317.45,59.11v-4.12h4.12v4.12h-4.12ZM317.45,59.11v-4.12h4.12v4.12h-4.12ZM317.45,64.73v-4.12h4.12v4.12h-4.12ZM317.45,64.73v-4.12h4.12v4.12h-4.12ZM317.45,64.73v-4.12h4.12v4.12h-4.12ZM317.45,64.73v-4.12h4.12v4.12h-4.12ZM331.93,30.99v-4.12h4.13v4.12h-4.13ZM331.93,30.99v-4.12h4.13v4.12h-4.13ZM331.93,30.99v-4.12h4.13v4.12h-4.13ZM331.93,30.99v-4.12h4.13v4.12h-4.13ZM331.93,36.62v-4.12h4.13v4.12h-4.13ZM331.93,36.62v-4.12h4.13v4.12h-4.13ZM331.93,36.62v-4.12h4.13v4.12h-4.13ZM331.93,36.62v-4.12h4.13v4.12h-4.13ZM331.93,42.24v-4.12h4.13v4.12h-4.13ZM331.93,42.24v-4.12h4.13v4.12h-4.13ZM331.93,42.24v-4.12h4.13v4.12h-4.13ZM331.93,42.24v-4.12h4.13v4.12h-4.13ZM331.93,47.87v-4.13h4.13v4.13h-4.13ZM331.93,47.87v-4.13h4.13v4.13h-4.13ZM331.93,47.87v-4.13h4.13v4.13h-4.13ZM331.93,47.87v-4.13h4.13v4.13h-4.13ZM331.93,53.49v-4.12h4.13v4.12h-4.13ZM331.93,53.49v-4.12h4.13v4.12h-4.13ZM331.93,53.49v-4.12h4.13v4.12h-4.13ZM331.93,53.49v-4.12h4.13v4.12h-4.13ZM331.93,59.11v-4.12h4.13v4.12h-4.13ZM331.93,59.11v-4.12h4.13v4.12h-4.13ZM331.93,59.11v-4.12h4.13v4.12h-4.13ZM331.93,59.11v-4.12h4.13v4.12h-4.13ZM331.93,64.73v-4.12h4.13v4.12h-4.13ZM331.93,64.73v-4.12h4.13v4.12h-4.13ZM331.93,64.73v-4.12h4.13v4.12h-4.13ZM331.93,64.73v-4.12h4.13v4.12h-4.13ZM331.93,70.36v-4.13h4.13v4.13h-4.13ZM331.93,70.36v-4.13h4.13v4.13h-4.13ZM331.93,70.36v-4.13h4.13v4.13h-4.13ZM331.93,70.36v-4.13h4.13v4.13h-4.13ZM331.93,75.98v-4.13h4.13v4.13h-4.13ZM331.93,75.98v-4.13h4.13v4.13h-4.13ZM331.93,75.98v-4.13h4.13v4.13h-4.13ZM331.93,75.98v-4.13h4.13v4.13h-4.13ZM331.93,81.6v-4.13h4.13v4.13h-4.13ZM331.93,81.6v-4.13h4.13v4.13h-4.13ZM331.93,81.6v-4.13h4.13v4.13h-4.13ZM331.93,81.6v-4.13h4.13v4.13h-4.13ZM331.93,87.23v-4.13h4.13v4.13h-4.13ZM331.93,87.23v-4.13h4.13v4.13h-4.13ZM331.93,87.23v-4.13h4.13v4.13h-4.13ZM331.93,87.23v-4.13h4.13v4.13h-4.13ZM337.56,36.62v-4.12h4.12v4.12h-4.12ZM337.56,36.62v-4.12h4.12v4.12h-4.12ZM337.56,36.62v-4.12h4.12v4.12h-4.12ZM337.56,36.62v-4.12h4.12v4.12h-4.12ZM337.56,64.73v-4.12h4.12v4.12h-4.12ZM337.56,64.73v-4.12h4.12v4.12h-4.12ZM337.56,64.73v-4.12h4.12v4.12h-4.12ZM337.56,64.73v-4.12h4.12v4.12h-4.12ZM343.18,30.99v-4.12h4.13v4.12h-4.13ZM343.18,30.99v-4.12h4.13v4.12h-4.13ZM343.18,30.99v-4.12h4.13v4.12h-4.13ZM343.18,30.99v-4.12h4.13v4.12h-4.13ZM343.18,70.36v-4.13h4.13v4.13h-4.13ZM343.18,70.36v-4.13h4.13v4.13h-4.13ZM343.18,70.36v-4.13h4.13v4.13h-4.13ZM343.18,70.36v-4.13h4.13v4.13h-4.13ZM348.8,30.99v-4.12h4.13v4.12h-4.13ZM348.8,30.99v-4.12h4.13v4.12h-4.13ZM348.8,30.99v-4.12h4.13v4.12h-4.13ZM348.8,30.99v-4.12h4.13v4.12h-4.13ZM348.8,70.36v-4.13h4.13v4.13h-4.13ZM348.8,70.36v-4.13h4.13v4.13h-4.13ZM348.8,70.36v-4.13h4.13v4.13h-4.13ZM348.8,70.36v-4.13h4.13v4.13h-4.13ZM354.43,36.62v-4.12h4.12v4.12h-4.12ZM354.43,36.62v-4.12h4.12v4.12h-4.12ZM354.43,36.62v-4.12h4.12v4.12h-4.12ZM354.43,36.62v-4.12h4.12v4.12h-4.12ZM354.43,42.24v-4.12h4.12v4.12h-4.12ZM354.43,42.24v-4.12h4.12v4.12h-4.12ZM354.43,42.24v-4.12h4.12v4.12h-4.12ZM354.43,42.24v-4.12h4.12v4.12h-4.12ZM354.43,47.87v-4.13h4.12v4.13h-4.12ZM354.43,47.87v-4.13h4.12v4.13h-4.12ZM354.43,47.87v-4.13h4.12v4.13h-4.12ZM354.43,47.87v-4.13h4.12v4.13h-4.12ZM354.43,53.49v-4.12h4.12v4.12h-4.12ZM354.43,53.49v-4.12h4.12v4.12h-4.12ZM354.43,53.49v-4.12h4.12v4.12h-4.12ZM354.43,53.49v-4.12h4.12v4.12h-4.12ZM354.43,59.11v-4.12h4.12v4.12h-4.12ZM354.43,59.11v-4.12h4.12v4.12h-4.12ZM354.43,59.11v-4.12h4.12v4.12h-4.12ZM354.43,59.11v-4.12h4.12v4.12h-4.12ZM354.43,64.73v-4.12h4.12v4.12h-4.12ZM354.43,64.73v-4.12h4.12v4.12h-4.12ZM354.43,64.73v-4.12h4.12v4.12h-4.12ZM354.43,64.73v-4.12h4.12v4.12h-4.12ZM368.9,14.13v-4.13h4.12v4.13h-4.12ZM368.9,14.13v-4.13h4.12v4.13h-4.12ZM368.9,14.13v-4.13h4.12v4.13h-4.12ZM368.9,14.13v-4.13h4.12v4.13h-4.12ZM368.9,19.75v-4.12h4.12v4.12h-4.12ZM368.9,19.75v-4.12h4.12v4.12h-4.12ZM368.9,19.75v-4.12h4.12v4.12h-4.12ZM368.9,19.75v-4.12h4.12v4.12h-4.12ZM368.9,25.37v-4.12h4.12v4.12h-4.12ZM368.9,25.37v-4.12h4.12v4.12h-4.12ZM368.9,25.37v-4.12h4.12v4.12h-4.12ZM368.9,25.37v-4.12h4.12v4.12h-4.12ZM368.9,30.99v-4.13h4.12v4.13h-4.12ZM368.9,30.99v-4.13h4.12v4.13h-4.12ZM368.9,30.99v-4.13h4.12v4.13h-4.12ZM368.9,30.99v-4.13h4.12v4.13h-4.12ZM368.9,36.62v-4.12h4.12v4.12h-4.12ZM368.9,36.62v-4.12h4.12v4.12h-4.12ZM368.9,36.62v-4.12h4.12v4.12h-4.12ZM368.9,36.62v-4.12h4.12v4.12h-4.12ZM368.9,42.24v-4.12h4.12v4.12h-4.12ZM368.9,42.24v-4.12h4.12v4.12h-4.12ZM368.9,42.24v-4.12h4.12v4.12h-4.12ZM368.9,42.24v-4.12h4.12v4.12h-4.12ZM368.9,47.86v-4.12h4.12v4.12h-4.12ZM368.9,47.86v-4.12h4.12v4.12h-4.12ZM368.9,47.86v-4.12h4.12v4.12h-4.12ZM368.9,47.86v-4.12h4.12v4.12h-4.12ZM368.9,53.49v-4.12h4.12v4.12h-4.12ZM368.9,53.49v-4.12h4.12v4.12h-4.12ZM368.9,53.49v-4.12h4.12v4.12h-4.12ZM368.9,53.49v-4.12h4.12v4.12h-4.12ZM368.9,59.11v-4.12h4.12v4.12h-4.12ZM368.9,59.11v-4.12h4.12v4.12h-4.12ZM368.9,59.11v-4.12h4.12v4.12h-4.12ZM368.9,59.11v-4.12h4.12v4.12h-4.12ZM368.9,64.73v-4.12h4.12v4.12h-4.12ZM368.9,64.73v-4.12h4.12v4.12h-4.12ZM368.9,64.73v-4.12h4.12v4.12h-4.12ZM368.9,64.73v-4.12h4.12v4.12h-4.12ZM368.9,70.36v-4.12h4.12v4.12h-4.12ZM368.9,70.36v-4.12h4.12v4.12h-4.12ZM368.9,70.36v-4.12h4.12v4.12h-4.12ZM368.9,70.36v-4.12h4.12v4.12h-4.12ZM383.38,36.62v-4.12h4.13v4.12h-4.13ZM383.38,36.62v-4.12h4.13v4.12h-4.13ZM383.38,36.62v-4.12h4.13v4.12h-4.13ZM383.38,36.62v-4.12h4.13v4.12h-4.13ZM383.38,42.24v-4.12h4.13v4.12h-4.13ZM383.38,42.24v-4.12h4.13v4.12h-4.13ZM383.38,42.24v-4.12h4.13v4.12h-4.13ZM383.38,42.24v-4.12h4.13v4.12h-4.13ZM383.38,47.87v-4.13h4.13v4.13h-4.13ZM383.38,47.87v-4.13h4.13v4.13h-4.13ZM383.38,47.87v-4.13h4.13v4.13h-4.13ZM383.38,47.87v-4.13h4.13v4.13h-4.13ZM383.38,53.49v-4.12h4.13v4.12h-4.13ZM383.38,53.49v-4.12h4.13v4.12h-4.13ZM383.38,53.49v-4.12h4.13v4.12h-4.13ZM383.38,53.49v-4.12h4.13v4.12h-4.13ZM383.38,59.11v-4.12h4.13v4.12h-4.13ZM383.38,59.11v-4.12h4.13v4.12h-4.13ZM383.38,59.11v-4.12h4.13v4.12h-4.13ZM383.38,59.11v-4.12h4.13v4.12h-4.13ZM383.38,64.73v-4.12h4.13v4.12h-4.13ZM383.38,64.73v-4.12h4.13v4.12h-4.13ZM383.38,64.73v-4.12h4.13v4.12h-4.13ZM383.38,64.73v-4.12h4.13v4.12h-4.13ZM389.01,30.99v-4.12h4.13v4.12h-4.13ZM389.01,30.99v-4.12h4.13v4.12h-4.13ZM389.01,30.99v-4.12h4.13v4.12h-4.13ZM389.01,30.99v-4.12h4.13v4.12h-4.13ZM389.01,47.87v-4.13h4.13v4.13h-4.13ZM389.01,47.87v-4.13h4.13v4.13h-4.13ZM389.01,47.87v-4.13h4.13v4.13h-4.13ZM389.01,47.87v-4.13h4.13v4.13h-4.13ZM389.01,70.36v-4.13h4.13v4.13h-4.13ZM389.01,70.36v-4.13h4.13v4.13h-4.13ZM389.01,70.36v-4.13h4.13v4.13h-4.13ZM389.01,70.36v-4.13h4.13v4.13h-4.13ZM394.63,30.99v-4.12h4.13v4.12h-4.13ZM394.63,30.99v-4.12h4.13v4.12h-4.13ZM394.63,30.99v-4.12h4.13v4.12h-4.13ZM394.63,30.99v-4.12h4.13v4.12h-4.13ZM394.63,47.87v-4.13h4.13v4.13h-4.13ZM394.63,47.87v-4.13h4.13v4.13h-4.13ZM394.63,47.87v-4.13h4.13v4.13h-4.13ZM394.63,47.87v-4.13h4.13v4.13h-4.13ZM394.63,70.36v-4.13h4.13v4.13h-4.13ZM394.63,70.36v-4.13h4.13v4.13h-4.13ZM394.63,70.36v-4.13h4.13v4.13h-4.13ZM394.63,70.36v-4.13h4.13v4.13h-4.13ZM400.25,30.99v-4.12h4.13v4.12h-4.13ZM400.25,30.99v-4.12h4.13v4.12h-4.13ZM400.25,30.99v-4.12h4.13v4.12h-4.13ZM400.25,30.99v-4.12h4.13v4.12h-4.13ZM400.25,47.87v-4.13h4.13v4.13h-4.13ZM400.25,47.87v-4.13h4.13v4.13h-4.13ZM400.25,47.87v-4.13h4.13v4.13h-4.13ZM400.25,47.87v-4.13h4.13v4.13h-4.13ZM400.25,70.36v-4.13h4.13v4.13h-4.13ZM400.25,70.36v-4.13h4.13v4.13h-4.13ZM400.25,70.36v-4.13h4.13v4.13h-4.13ZM400.25,70.36v-4.13h4.13v4.13h-4.13ZM405.88,36.62v-4.12h4.12v4.12h-4.12ZM405.88,36.62v-4.12h4.12v4.12h-4.12ZM405.88,36.62v-4.12h4.12v4.12h-4.12ZM405.88,36.62v-4.12h4.12v4.12h-4.12ZM405.88,42.24v-4.12h4.12v4.12h-4.12ZM405.88,42.24v-4.12h4.12v4.12h-4.12ZM405.88,42.24v-4.12h4.12v4.12h-4.12ZM405.88,42.24v-4.12h4.12v4.12h-4.12ZM405.88,47.87v-4.13h4.12v4.13h-4.12ZM405.88,47.87v-4.13h4.12v4.13h-4.12ZM405.88,47.87v-4.13h4.12v4.13h-4.12ZM405.88,47.87v-4.13h4.12v4.13h-4.12ZM405.88,64.73v-4.12h4.12v4.12h-4.12ZM405.88,64.73v-4.12h4.12v4.12h-4.12ZM405.88,64.73v-4.12h4.12v4.12h-4.12ZM405.88,64.73v-4.12h4.12v4.12h-4.12Z"/></svg>