<?xml version="1.0" encoding="UTF-8"?><svg id="wtp-mark-caps-5" xmlns="http://www.w3.org/2000/svg" viewBox="0 0 620 445"><defs><style>.cls-1{fill:#231f20;}</style></defs><path class="cls-1" d="M10,22.98v-13.27h13.29v13.27h-13.29Z"/><path class="cls-1" d="M10,22.98v-13.27h13.29v13.27h-13.29Z"/><path class="cls-1" d="M10,22.98v-13.27h13.29v13.27h-13.29Z"/><path class="cls-1" d="M10,22.98v-13.27h13.29v13.27h-13.29Z"/><path class="cls-1" d="M10,41.08v-13.27h13.29v13.27h-13.29Z"/><path class="cls-1" d="M10,41.08v-13.27h13.29v13.27h-13.29Z"/><path class="cls-1" d="M10,41.08v-13.27h13.29v13.27h-13.29Z"/><path class="cls-1" d="M10,41.08v-13.27h13.29v13.27h-13.29Z"/><path class="cls-1" d="M10,59.17v-13.27h13.29v13.27h-13.29Z"/><path class="cls-1" d="M10,59.17v-13.27h13.29v13.27h-13.29Z"/><path class="cls-1" d="M10,59.17v-13.27h13.29v13.27h-13.29Z"/><path class="cls-1" d="M10,59.17v-13.27h13.29v13.27h-13.29Z"/><path class="cls-1" d="M10,77.27v-13.27h13.29v13.27h-13.29Z"/><path class="cls-1" d="M10,77.27v-13.27h13.29v13.27h-13.29Z"/><path class="cls-1" d="M10,77.27v-13.27h13.29v13.27h-13.29Z"/><path class="cls-1" d="M10,77.27v-13.27h13.29v13.27h-13.29Z"/><path class="cls-1" d="M10,95.37v-13.27h13.29v13.27h-13.29Z"/><path class="cls-1" d="M10,95.37v-13.27h13.29v13.27h-13.29Z"/><path class="cls-1" d="M10,95.37v-13.27h13.29v13.27h-13.29Z"/><path class="cls-1" d="M10,95.37v-13.27h13.29v13.27h-13.29Z"/><path class="cls-1" d="M10,113.47v-13.27h13.29v13.27h-13.29Z"/><path class="cls-1" d="M10,113.47v-13.27h13.29v13.27h-13.29Z"/><path class="cls-1" d="M10,113.47v-13.27h13.29v13.27h-13.29Z"/><path class="cls-1" d="M10,113.47v-13.27h13.29v13.27h-13.29Z"/><path class="cls-1" d="M10,131.57v-13.27h13.29v13.27h-13.29Z"/><path class="cls-1" d="M10,131.57v-13.27h13.29v13.27h-13.29Z"/><path class="cls-1" d="M10,131.57v-13.27h13.29v13.27h-13.29Z"/><path class="cls-1" d="M10,131.57v-13.27h13.29v13.27h-13.29Z"/><path class="cls-1" d="M19.06,149.66v-13.27h13.29v13.27h-13.29Z"/><path class="cls-1" d="M19.06,149.66v-13.27h13.29v13.27h-13.29Z"/><path class="cls-1" d="M19.06,149.66v-13.27h13.29v13.27h-13.29Z"/><path class="cls-1" d="M19.06,149.66v-13.27h13.29v13.27h-13.29Z"/><path class="cls-1" d="M28.12,167.76v-13.27h13.29v13.27h-13.29Z"/><path class="cls-1" d="M28.12,167.76v-13.27h13.29v13.27h-13.29Z"/><path class="cls-1" d="M28.12,167.76v-13.27h13.29v13.27h-13.29Z"/><path class="cls-1" d="M28.12,167.76v-13.27h13.29v13.27h-13.29Z"/><path class="cls-1" d="M37.18,185.86v-13.27h13.29v13.27h-13.29Z"/><path class="cls-1" d="M37.18,185.86v-13.27h13.29v13.27h-13.29Z"/><path class="cls-1" d="M37.18,185.86v-13.27h13.29v13.27h-13.29Z"/><path class="cls-1" d="M37.18,185.86v-13.27h13.29v13.27h-13.29Z"/><path class="cls-1" d="M46.24,203.96v-13.27h13.29v13.27h-13.29Z"/><path class="cls-1" d="M46.24,203.96v-13.27h13.29v13.27h-13.29Z"/><path class="cls-1" d="M46.24,203.96v-13.27h13.29v13.27h-13.29Z"/><path class="cls-1" d="M46.24,203.96v-13.27h13.29v13.27h-13.29Z"/><path class="cls-1" d="M55.31,185.86v-13.27h13.29v13.27h-13.29Z"/><path class="cls-1" d="M55.31,185.86v-13.27h13.29v13.27h-13.29Z"/><path class="cls-1" d="M55.31,185.86v-13.27h13.29v13.27h-13.29Z"/><path class="cls-1" d="M55.31,185.86v-13.27h13.29v13.27h-13.29Z"/><path class="cls-1" d="M64.37,167.76v-13.27h13.29v13.27h-13.29Z"/><path class="cls-1" d="M64.37,167.76v-13.27h13.29v13.27h-13.29Z"/><path class="cls-1" d="M64.37,167.76v-13.27h13.29v13.27h-13.29Z"/><path class="cls-1" d="M64.37,167.76v-13.27h13.29v13.27h-13.29Z"/><path class="cls-1" d="M73.43,149.66v-13.27h13.29v13.27h-13.29Z"/><path class="cls-1" d="M73.43,149.66v-13.27h13.29v13.27h-13.29Z"/><path class="cls-1" d="M73.43,149.66v-13.27h13.29v13.27h-13.29Z"/><path class="cls-1" d="M73.43,149.66v-13.27h13.29v13.27h-13.29Z"/><path class="cls-1" d="M82.49,22.98v-13.27h13.29v13.27h-13.29Z"/><path class="cls-1" d="M82.49,22.98v-13.27h13.29v13.27h-13.29Z"/><path class="cls-1" d="M82.49,22.98v-13.27h13.29v13.27h-13.29Z"/><path class="cls-1" d="M82.49,22.98v-13.27h13.29v13.27h-13.29Z"/><path class="cls-1" d="M82.49,41.08v-13.27h13.29v13.27h-13.29Z"/><path class="cls-1" d="M82.49,41.08v-13.27h13.29v13.27h-13.29Z"/><path class="cls-1" d="M82.49,41.08v-13.27h13.29v13.27h-13.29Z"/><path class="cls-1" d="M82.49,41.08v-13.27h13.29v13.27h-13.29Z"/><path class="cls-1" d="M82.49,59.17v-13.27h13.29v13.27h-13.29Z"/><path class="cls-1" d="M82.49,59.17v-13.27h13.29v13.27h-13.29Z"/><path class="cls-1" d="M82.49,59.17v-13.27h13.29v13.27h-13.29Z"/><path class="cls-1" d="M82.49,59.17v-13.27h13.29v13.27h-13.29Z"/><path class="cls-1" d="M82.49,77.27v-13.27h13.29v13.27h-13.29Z"/><path class="cls-1" d="M82.49,77.27v-13.27h13.29v13.27h-13.29Z"/><path class="cls-1" d="M82.49,77.27v-13.27h13.29v13.27h-13.29Z"/><path class="cls-1" d="M82.49,77.27v-13.27h13.29v13.27h-13.29Z"/><path class="cls-1" d="M82.49,95.37v-13.27h13.29v13.27h-13.29Z"/><path class="cls-1" d="M82.49,95.37v-13.27h13.29v13.27h-13.29Z"/><path class="cls-1" d="M82.49,95.37v-13.27h13.29v13.27h-13.29Z"/><path class="cls-1" d="M82.49,95.37v-13.27h13.29v13.27h-13.29Z"/><path class="cls-1" d="M82.49,113.47v-13.27h13.29v13.27h-13.29Z"/><path class="cls-1" d="M82.49,113.47v-13.27h13.29v13.27h-13.29Z"/><path class="cls-1" d="M82.49,113.47v-13.27h13.29v13.27h-13.29Z"/><path class="cls-1" d="M82.49,113.47v-13.27h13.29v13.27h-13.29Z"/><path class="cls-1" d="M82.49,131.57v-13.27h13.29v13.27h-13.29Z"/><path class="cls-1" d="M82.49,131.57v-13.27h13.29v13.27h-13.29Z"/><path class="cls-1" d="M82.49,131.57v-13.27h13.29v13.27h-13.29Z"/><path class="cls-1" d="M82.49,131.57v-13.27h13.29v13.27h-13.29Z"/><path class="cls-1" d="M91.55,149.66v-13.27h13.29v13.27h-13.29Z"/><path class="cls-1" d="M91.55,149.66v-13.27h13.29v13.27h-13.29Z"/><path class="cls-1" d="M91.55,149.66v-13.27h13.29v13.27h-13.29Z"/><path class="cls-1" d="M91.55,149.66v-13.27h13.29v13.27h-13.29Z"/><path class="cls-1" d="M100.61,167.76v-13.27h13.29v13.27h-13.29Z"/><path class="cls-1" d="M100.61,167.76v-13.27h13.29v13.27h-13.29Z"/><path class="cls-1" d="M100.61,167.76v-13.27h13.29v13.27h-13.29Z"/><path class="cls-1" d="M100.61,167.76v-13.27h13.29v13.27h-13.29Z"/><path class="cls-1" d="M109.68,185.86v-13.27h13.29v13.27h-13.29Z"/><path class="cls-1" d="M109.68,185.86v-13.27h13.29v13.27h-13.29Z"/><path class="cls-1" d="M109.68,185.86v-13.27h13.29v13.27h-13.29Z"/><path class="cls-1" d="M109.68,185.86v-13.27h13.29v13.27h-13.29Z"/><path class="cls-1" d="M118.74,203.96v-13.27h13.29v13.27h-13.29Z"/><path class="cls-1" d="M118.74,203.96v-13.27h13.29v13.27h-13.29Z"/><path class="cls-1" d="M118.74,203.96v-13.27h13.29v13.27h-13.29Z"/><path class="cls-1" d="M118.74,203.96v-13.27h13.29v13.27h-13.29Z"/><path class="cls-1" d="M127.8,185.86v-13.27h13.29v13.27h-13.29Z"/><path class="cls-1" d="M127.8,185.86v-13.27h13.29v13.27h-13.29Z"/><path class="cls-1" d="M127.8,185.86v-13.27h13.29v13.27h-13.29Z"/><path class="cls-1" d="M127.8,185.86v-13.27h13.29v13.27h-13.29Z"/><path class="cls-1" d="M136.86,167.76v-13.27h13.29v13.27h-13.29Z"/><path class="cls-1" d="M136.86,167.76v-13.27h13.29v13.27h-13.29Z"/><path class="cls-1" d="M136.86,167.76v-13.27h13.29v13.27h-13.29Z"/><path class="cls-1" d="M136.86,167.76v-13.27h13.29v13.27h-13.29Z"/><path class="cls-1" d="M145.92,149.66v-13.27h13.29v13.27h-13.29Z"/><path class="cls-1" d="M145.92,149.66v-13.27h13.29v13.27h-13.29Z"/><path class="cls-1" d="M145.92,149.66v-13.27h13.29v13.27h-13.29Z"/><path class="cls-1" d="M145.92,149.66v-13.27h13.29v13.27h-13.29Z"/><path class="cls-1" d="M154.98,22.98v-13.27h13.29v13.27h-13.29Z"/><path class="cls-1" d="M154.98,22.98v-13.27h13.29v13.27h-13.29Z"/><path class="cls-1" d="M154.98,22.98v-13.27h13.29v13.27h-13.29Z"/><path class="cls-1" d="M154.98,22.98v-13.27h13.29v13.27h-13.29Z"/><path class="cls-1" d="M154.98,41.08v-13.27h13.29v13.27h-13.29Z"/><path class="cls-1" d="M154.98,41.08v-13.27h13.29v13.27h-13.29Z"/><path class="cls-1" d="M154.98,41.08v-13.27h13.29v13.27h-13.29Z"/><path class="cls-1" d="M154.98,41.08v-13.27h13.29v13.27h-13.29Z"/><path class="cls-1" d="M154.98,59.17v-13.27h13.29v13.27h-13.29Z"/><path class="cls-1" d="M154.98,59.17v-13.27h13.29v13.27h-13.29Z"/><path class="cls-1" d="M154.98,59.17v-13.27h13.29v13.27h-13.29Z"/><path class="cls-1" d="M154.98,59.17v-13.27h13.29v13.27h-13.29Z"/><path class="cls-1" d="M154.98,77.27v-13.27h13.29v13.27h-13.29Z"/><path class="cls-1" d="M154.98,77.27v-13.27h13.29v13.27h-13.29Z"/><path class="cls-1" d="M154.98,77.27v-13.27h13.29v13.27h-13.29Z"/><path class="cls-1" d="M154.98,77.27v-13.27h13.29v13.27h-13.29Z"/><path class="cls-1" d="M154.98,95.37v-13.27h13.29v13.27h-13.29Z"/><path class="cls-1" d="M154.98,95.37v-13.27h13.29v13.27h-13.29Z"/><path class="cls-1" d="M154.98,95.37v-13.27h13.29v13.27h-13.29Z"/><path class="cls-1" d="M154.98,95.37v-13.27h13.29v13.27h-13.29Z"/><path class="cls-1" d="M154.98,113.47v-13.27h13.29v13.27h-13.29Z"/><path class="cls-1" d="M154.98,113.47v-13.27h13.29v13.27h-13.29Z"/><path class="cls-1" d="M154.98,113.47v-13.27h13.29v13.27h-13.29Z"/><path class="cls-1" d="M154.98,113.47v-13.27h13.29v13.27h-13.29Z"/><path class="cls-1" d="M154.98,131.57v-13.27h13.29v13.27h-13.29Z"/><path class="cls-1" d="M154.98,131.57v-13.27h13.29v13.27h-13.29Z"/><path class="cls-1" d="M154.98,131.57v-13.27h13.29v13.27h-13.29Z"/><path class="cls-1" d="M154.98,131.57v-13.27h13.29v13.27h-13.29Z"/><path class="cls-1" d="M191.86,22.98v-13.27h13.29v13.27h-13.29Z"/><path class="cls-1" d="M191.86,22.98v-13.27h13.29v13.27h-13.29Z"/><path class="cls-1" d="M191.86,22.98v-13.27h13.29v13.27h-13.29Z"/><path class="cls-1" d="M191.86,22.98v-13.27h13.29v13.27h-13.29Z"/><path class="cls-1" d="M191.86,41.08v-13.27h13.29v13.27h-13.29Z"/><path class="cls-1" d="M191.86,41.08v-13.27h13.29v13.27h-13.29Z"/><path class="cls-1" d="M191.86,41.08v-13.27h13.29v13.27h-13.29Z"/><path class="cls-1" d="M191.86,41.08v-13.27h13.29v13.27h-13.29Z"/><path class="cls-1" d="M191.86,59.17v-13.27h13.29v13.27h-13.29Z"/><path class="cls-1" d="M191.86,59.17v-13.27h13.29v13.27h-13.29Z"/><path class="cls-1" d="M191.86,59.17v-13.27h13.29v13.27h-13.29Z"/><path class="cls-1" d="M191.86,59.17v-13.27h13.29v13.27h-13.29Z"/><path class="cls-1" d="M191.86,77.27v-13.27h13.29v13.27h-13.29Z"/><path class="cls-1" d="M191.86,77.27v-13.27h13.29v13.27h-13.29Z"/><path class="cls-1" d="M191.86,77.27v-13.27h13.29v13.27h-13.29Z"/><path class="cls-1" d="M191.86,77.27v-13.27h13.29v13.27h-13.29Z"/><path class="cls-1" d="M191.86,95.37v-13.27h13.29v13.27h-13.29Z"/><path class="cls-1" d="M191.86,95.37v-13.27h13.29v13.27h-13.29Z"/><path class="cls-1" d="M191.86,95.37v-13.27h13.29v13.27h-13.29Z"/><path class="cls-1" d="M191.86,95.37v-13.27h13.29v13.27h-13.29Z"/><path class="cls-1" d="M191.86,113.47v-13.27h13.29v13.27h-13.29Z"/><path class="cls-1" d="M191.86,113.47v-13.27h13.29v13.27h-13.29Z"/><path class="cls-1" d="M191.86,113.47v-13.27h13.29v13.27h-13.29Z"/><path class="cls-1" d="M191.86,113.47v-13.27h13.29v13.27h-13.29Z"/><path class="cls-1" d="M191.86,131.57v-13.27h13.29v13.27h-13.29Z"/><path class="cls-1" d="M191.86,131.57v-13.27h13.29v13.27h-13.29Z"/><path class="cls-1" d="M191.86,131.57v-13.27h13.29v13.27h-13.29Z"/><path class="cls-1" d="M191.86,131.57v-13.27h13.29v13.27h-13.29Z"/><path class="cls-1" d="M191.86,149.66v-13.27h13.29v13.27h-13.29Z"/><path class="cls-1" d="M191.86,149.66v-13.27h13.29v13.27h-13.29Z"/><path class="cls-1" d="M191.86,149.66v-13.27h13.29v13.27h-13.29Z"/><path class="cls-1" d="M191.86,149.66v-13.27h13.29v13.27h-13.29Z"/><path class="cls-1" d="M191.86,167.76v-13.27h13.29v13.27h-13.29Z"/><path class="cls-1" d="M191.86,167.76v-13.27h13.29v13.27h-13.29Z"/><path class="cls-1" d="M191.86,167.76v-13.27h13.29v13.27h-13.29Z"/><path class="cls-1" d="M191.86,167.76v-13.27h13.29v13.27h-13.29Z"/><path class="cls-1" d="M191.86,185.86v-13.27h13.29v13.27h-13.29Z"/><path class="cls-1" d="M191.86,185.86v-13.27h13.29v13.27h-13.29Z"/><path class="cls-1" d="M191.86,185.86v-13.27h13.29v13.27h-13.29Z"/><path class="cls-1" d="M191.86,185.86v-13.27h13.29v13.27h-13.29Z"/><path class="cls-1" d="M191.86,203.96v-13.27h13.29v13.27h-13.29Z"/><path class="cls-1" d="M191.86,203.96v-13.27h13.29v13.27h-13.29Z"/><path class="cls-1" d="M191.86,203.96v-13.27h13.29v13.27h-13.29Z"/><path class="cls-1" d="M191.86,203.96v-13.27h13.29v13.27h-13.29Z"/><path class="cls-1" d="M209.98,22.98v-13.27h13.29v13.27h-13.29Z"/><path class="cls-1" d="M209.98,22.98v-13.27h13.29v13.27h-13.29Z"/><path class="cls-1" d="M209.98,22.98v-13.27h13.29v13.27h-13.29Z"/><path class="cls-1" d="M209.98,22.98v-13.27h13.29v13.27h-13.29Z"/><path class="cls-1" d="M209.98,113.47v-13.27h13.29v13.27h-13.29Z"/><path class="cls-1" d="M209.98,113.47v-13.27h13.29v13.27h-13.29Z"/><path class="cls-1" d="M209.98,113.47v-13.27h13.29v13.27h-13.29Z"/><path class="cls-1" d="M209.98,113.47v-13.27h13.29v13.27h-13.29Z"/><path class="cls-1" d="M209.98,203.96v-13.27h13.29v13.27h-13.29Z"/><path class="cls-1" d="M209.98,203.96v-13.27h13.29v13.27h-13.29Z"/><path class="cls-1" d="M209.98,203.96v-13.27h13.29v13.27h-13.29Z"/><path class="cls-1" d="M209.98,203.96v-13.27h13.29v13.27h-13.29Z"/><path class="cls-1" d="M228.11,22.98v-13.27h13.29v13.27h-13.29Z"/><path class="cls-1" d="M228.11,22.98v-13.27h13.29v13.27h-13.29Z"/><path class="cls-1" d="M228.11,22.98v-13.27h13.29v13.27h-13.29Z"/><path class="cls-1" d="M228.11,22.98v-13.27h13.29v13.27h-13.29Z"/><path class="cls-1" d="M228.11,113.47v-13.27h13.29v13.27h-13.29Z"/><path class="cls-1" d="M228.11,113.47v-13.27h13.29v13.27h-13.29Z"/><path class="cls-1" d="M228.11,113.47v-13.27h13.29v13.27h-13.29Z"/><path class="cls-1" d="M228.11,113.47v-13.27h13.29v13.27h-13.29Z"/><path class="cls-1" d="M228.11,203.96v-13.27h13.29v13.27h-13.29Z"/><path class="cls-1" d="M228.11,203.96v-13.27h13.29v13.27h-13.29Z"/><path class="cls-1" d="M228.11,203.96v-13.27h13.29v13.27h-13.29Z"/><path class="cls-1" d="M228.11,203.96v-13.27h13.29v13.27h-13.29Z"/><path class="cls-1" d="M246.23,22.98v-13.27h13.29v13.27h-13.29Z"/><path class="cls-1" d="M246.23,22.98v-13.27h13.29v13.27h-13.29Z"/><path class="cls-1" d="M246.23,22.98v-13.27h13.29v13.27h-13.29Z"/><path class="cls-1" d="M246.23,22.98v-13.27h13.29v13.27h-13.29Z"/><path class="cls-1" d="M246.23,113.47v-13.27h13.29v13.27h-13.29Z"/><path class="cls-1" d="M246.23,113.47v-13.27h13.29v13.27h-13.29Z"/><path class="cls-1" d="M246.23,113.47v-13.27h13.29v13.27h-13.29Z"/><path class="cls-1" d="M246.23,113.47v-13.27h13.29v13.27h-13.29Z"/><path class="cls-1" d="M246.23,203.96v-13.27h13.29v13.27h-13.29Z"/><path class="cls-1" d="M246.23,203.96v-13.27h13.29v13.27h-13.29Z"/><path class="cls-1" d="M246.23,203.96v-13.27h13.29v13.27h-13.29Z"/><path class="cls-1" d="M246.23,203.96v-13.27h13.29v13.27h-13.29Z"/><path class="cls-1" d="M321.78,22.98v-13.27h13.29v13.27h-13.29Z"/><path class="cls-1" d="M321.78,22.98v-13.27h13.29v13.27h-13.29Z"/><path class="cls-1" d="M321.78,22.98v-13.27h13.29v13.27h-13.29Z"/><path class="cls-1" d="M321.78,22.98v-13.27h13.29v13.27h-13.29Z"/><path class="cls-1" d="M339.9,22.98v-13.27h13.29v13.27h-13.29Z"/><path class="cls-1" d="M339.9,22.98v-13.27h13.29v13.27h-13.29Z"/><path class="cls-1" d="M339.9,22.98v-13.27h13.29v13.27h-13.29Z"/><path class="cls-1" d="M339.9,22.98v-13.27h13.29v13.27h-13.29Z"/><path class="cls-1" d="M358.02,22.98v-13.27h13.29v13.27h-13.29Z"/><path class="cls-1" d="M358.02,22.98v-13.27h13.29v13.27h-13.29Z"/><path class="cls-1" d="M358.02,22.98v-13.27h13.29v13.27h-13.29Z"/><path class="cls-1" d="M358.02,22.98v-13.27h13.29v13.27h-13.29Z"/><path class="cls-1" d="M358.02,41.08v-13.27h13.29v13.27h-13.29Z"/><path class="cls-1" d="M358.02,41.08v-13.27h13.29v13.27h-13.29Z"/><path class="cls-1" d="M358.02,41.08v-13.27h13.29v13.27h-13.29Z"/><path class="cls-1" d="M358.02,41.08v-13.27h13.29v13.27h-13.29Z"/><path class="cls-1" d="M358.02,59.17v-13.27h13.29v13.27h-13.29Z"/><path class="cls-1" d="M358.02,59.17v-13.27h13.29v13.27h-13.29Z"/><path class="cls-1" d="M358.02,59.17v-13.27h13.29v13.27h-13.29Z"/><path class="cls-1" d="M358.02,59.17v-13.27h13.29v13.27h-13.29Z"/><path class="cls-1" d="M358.02,77.27v-13.27h13.29v13.27h-13.29Z"/><path class="cls-1" d="M358.02,77.27v-13.27h13.29v13.27h-13.29Z"/><path class="cls-1" d="M358.02,77.27v-13.27h13.29v13.27h-13.29Z"/><path class="cls-1" d="M358.02,77.27v-13.27h13.29v13.27h-13.29Z"/><path class="cls-1" d="M358.02,95.37v-13.27h13.29v13.27h-13.29Z"/><path class="cls-1" d="M358.02,95.37v-13.27h13.29v13.27h-13.29Z"/><path class="cls-1" d="M358.02,95.37v-13.27h13.29v13.27h-13.29Z"/><path class="cls-1" d="M358.02,95.37v-13.27h13.29v13.27h-13.29Z"/><path class="cls-1" d="M358.02,113.47v-13.27h13.29v13.27h-13.29Z"/><path class="cls-1" d="M358.02,113.47v-13.27h13.29v13.27h-13.29Z"/><path class="cls-1" d="M358.02,113.47v-13.27h13.29v13.27h-13.29Z"/><path class="cls-1" d="M358.02,113.47v-13.27h13.29v13.27h-13.29Z"/><path class="cls-1" d="M358.02,131.57v-13.27h13.29v13.27h-13.29Z"/><path class="cls-1" d="M358.02,131.57v-13.27h13.29v13.27h-13.29Z"/><path class="cls-1" d="M358.02,131.57v-13.27h13.29v13.27h-13.29Z"/><path class="cls-1" d="M358.02,131.57v-13.27h13.29v13.27h-13.29Z"/><path class="cls-1" d="M358.02,149.66v-13.27h13.29v13.27h-13.29Z"/><path class="cls-1" d="M358.02,149.66v-13.27h13.29v13.27h-13.29Z"/><path class="cls-1" d="M358.02,149.66v-13.27h13.29v13.27h-13.29Z"/><path class="cls-1" d="M358.02,149.66v-13.27h13.29v13.27h-13.29Z"/><path class="cls-1" d="M358.02,167.76v-13.27h13.29v13.27h-13.29Z"/><path class="cls-1" d="M358.02,167.76v-13.27h13.29v13.27h-13.29Z"/><path class="cls-1" d="M358.02,167.76v-13.27h13.29v13.27h-13.29Z"/><path class="cls-1" d="M358.02,167.76v-13.27h13.29v13.27h-13.29Z"/><path class="cls-1" d="M358.02,185.86v-13.27h13.29v13.27h-13.29Z"/><path class="cls-1" d="M358.02,185.86v-13.27h13.29v13.27h-13.29Z"/><path class="cls-1" d="M358.02,185.86v-13.27h13.29v13.27h-13.29Z"/><path class="cls-1" d="M358.02,185.86v-13.27h13.29v13.27h-13.29Z"/><path class="cls-1" d="M358.02,203.96v-13.27h13.29v13.27h-13.29Z"/><path class="cls-1" d="M358.02,203.96v-13.27h13.29v13.27h-13.29Z"/><path class="cls-1" d="M358.02,203.96v-13.27h13.29v13.27h-13.29Z"/><path class="cls-1" d="M358.02,203.96v-13.27h13.29v13.27h-13.29Z"/><path class="cls-1" d="M376.15,22.98v-13.27h13.29v13.27h-13.29Z"/><path class="cls-1" d="M376.15,22.98v-13.27h13.29v13.27h-13.29Z"/><path class="cls-1" d="M376.15,22.98v-13.27h13.29v13.27h-13.29Z"/><path class="cls-1" d="M376.15,22.98v-13.27h13.29v13.27h-13.29Z"/><path class="cls-1" d="M394.27,22.98v-13.27h13.29v13.27h-13.29Z"/><path class="cls-1" d="M394.27,22.98v-13.27h13.29v13.27h-13.29Z"/><path class="cls-1" d="M394.27,22.98v-13.27h13.29v13.27h-13.29Z"/><path class="cls-1" d="M394.27,22.98v-13.27h13.29v13.27h-13.29Z"/><path class="cls-1" d="M431.34,22.98v-13.27h13.29v13.27h-13.29Z"/><path class="cls-1" d="M431.34,22.98v-13.27h13.29v13.27h-13.29Z"/><path class="cls-1" d="M431.34,22.98v-13.27h13.29v13.27h-13.29Z"/><path class="cls-1" d="M431.34,22.98v-13.27h13.29v13.27h-13.29Z"/><path class="cls-1" d="M431.34,41.08v-13.27h13.29v13.27h-13.29Z"/><path class="cls-1" d="M431.34,41.08v-13.27h13.29v13.27h-13.29Z"/><path class="cls-1" d="M431.34,41.08v-13.27h13.29v13.27h-13.29Z"/><path class="cls-1" d="M431.34,41.08v-13.27h13.29v13.27h-13.29Z"/><path class="cls-1" d="M431.34,59.17v-13.27h13.29v13.27h-13.29Z"/><path class="cls-1" d="M431.34,59.17v-13.27h13.29v13.27h-13.29Z"/><path class="cls-1" d="M431.34,59.17v-13.27h13.29v13.27h-13.29Z"/><path class="cls-1" d="M431.34,59.17v-13.27h13.29v13.27h-13.29Z"/><path class="cls-1" d="M431.34,77.27v-13.27h13.29v13.27h-13.29Z"/><path class="cls-1" d="M431.34,77.27v-13.27h13.29v13.27h-13.29Z"/><path class="cls-1" d="M431.34,77.27v-13.27h13.29v13.27h-13.29Z"/><path class="cls-1" d="M431.34,77.27v-13.27h13.29v13.27h-13.29Z"/><path class="cls-1" d="M431.34,95.37v-13.27h13.29v13.27h-13.29Z"/><path class="cls-1" d="M431.34,95.37v-13.27h13.29v13.27h-13.29Z"/><path class="cls-1" d="M431.34,95.37v-13.27h13.29v13.27h-13.29Z"/><path class="cls-1" d="M431.34,95.37v-13.27h13.29v13.27h-13.29Z"/><path class="cls-1" d="M431.34,113.47v-13.27h13.29v13.27h-13.29Z"/><path class="cls-1" d="M431.34,113.47v-13.27h13.29v13.27h-13.29Z"/><path class="cls-1" d="M431.34,113.47v-13.27h13.29v13.27h-13.29Z"/><path class="cls-1" d="M431.34,113.47v-13.27h13.29v13.27h-13.29Z"/><path class="cls-1" d="M431.34,131.57v-13.27h13.29v13.27h-13.29Z"/><path class="cls-1" d="M431.34,131.57v-13.27h13.29v13.27h-13.29Z"/><path class="cls-1" d="M431.34,131.57v-13.27h13.29v13.27h-13.29Z"/><path class="cls-1" d="M431.34,131.57v-13.27h13.29v13.27h-13.29Z"/><path class="cls-1" d="M431.34,149.66v-13.27h13.29v13.27h-13.29Z"/><path class="cls-1" d="M431.34,149.66v-13.27h13.29v13.27h-13.29Z"/><path class="cls-1" d="M431.34,149.66v-13.27h13.29v13.27h-13.29Z"/><path class="cls-1" d="M431.34,149.66v-13.27h13.29v13.27h-13.29Z"/><path class="cls-1" d="M431.34,167.76v-13.27h13.29v13.27h-13.29Z"/><path class="cls-1" d="M431.34,167.76v-13.27h13.29v13.27h-13.29Z"/><path class="cls-1" d="M431.34,167.76v-13.27h13.29v13.27h-13.29Z"/><path class="cls-1" d="M431.34,167.76v-13.27h13.29v13.27h-13.29Z"/><path class="cls-1" d="M431.34,185.86v-13.27h13.29v13.27h-13.29Z"/><path class="cls-1" d="M431.34,185.86v-13.27h13.29v13.27h-13.29Z"/><path class="cls-1" d="M431.34,185.86v-13.27h13.29v13.27h-13.29Z"/><path class="cls-1" d="M431.34,185.86v-13.27h13.29v13.27h-13.29Z"/><path class="cls-1" d="M431.34,203.96v-13.27h13.29v13.27h-13.29Z"/><path class="cls-1" d="M431.34,203.96v-13.27h13.29v13.27h-13.29Z"/><path class="cls-1" d="M431.34,203.96v-13.27h13.29v13.27h-13.29Z"/><path class="cls-1" d="M431.34,203.96v-13.27h13.29v13.27h-13.29Z"/><path class="cls-1" d="M449.46,113.47v-13.27h13.29v13.27h-13.29Z"/><path class="cls-1" d="M449.46,113.47v-13.27h13.29v13.27h-13.29Z"/><path class="cls-1" d="M449.46,113.47v-13.27h13.29v13.27h-13.29Z"/><path class="cls-1" d="M449.46,113.47v-13.27h13.29v13.27h-13.29Z"/><path class="cls-1" d="M467.58,113.47v-13.27h13.29v13.27h-13.29Z"/><path class="cls-1" d="M467.58,113.47v-13.27h13.29v13.27h-13.29Z"/><path class="cls-1" d="M467.58,113.47v-13.27h13.29v13.27h-13.29Z"/><path class="cls-1" d="M467.58,113.47v-13.27h13.29v13.27h-13.29Z"/><path class="cls-1" d="M485.7,113.47v-13.27h13.29v13.27h-13.29Z"/><path class="cls-1" d="M485.7,113.47v-13.27h13.29v13.27h-13.29Z"/><path class="cls-1" d="M485.7,113.47v-13.27h13.29v13.27h-13.29Z"/><path class="cls-1" d="M485.7,113.47v-13.27h13.29v13.27h-13.29Z"/><path class="cls-1" d="M503.83,22.98v-13.27h13.29v13.27h-13.29Z"/><path class="cls-1" d="M503.83,22.98v-13.27h13.29v13.27h-13.29Z"/><path class="cls-1" d="M503.83,22.98v-13.27h13.29v13.27h-13.29Z"/><path class="cls-1" d="M503.83,22.98v-13.27h13.29v13.27h-13.29Z"/><path class="cls-1" d="M503.83,41.08v-13.27h13.29v13.27h-13.29Z"/><path class="cls-1" d="M503.83,41.08v-13.27h13.29v13.27h-13.29Z"/><path class="cls-1" d="M503.83,41.08v-13.27h13.29v13.27h-13.29Z"/><path class="cls-1" d="M503.83,41.08v-13.27h13.29v13.27h-13.29Z"/><path class="cls-1" d="M503.83,59.17v-13.27h13.29v13.27h-13.29Z"/><path class="cls-1" d="M503.83,59.17v-13.27h13.29v13.27h-13.29Z"/><path class="cls-1" d="M503.83,59.17v-13.27h13.29v13.27h-13.29Z"/><path class="cls-1" d="M503.83,59.17v-13.27h13.29v13.27h-13.29Z"/><path class="cls-1" d="M503.83,77.27v-13.27h13.29v13.27h-13.29Z"/><path class="cls-1" d="M503.83,77.27v-13.27h13.29v13.27h-13.29Z"/><path class="cls-1" d="M503.83,77.27v-13.27h13.29v13.27h-13.29Z"/><path class="cls-1" d="M503.83,77.27v-13.27h13.29v13.27h-13.29Z"/><path class="cls-1" d="M503.83,95.37v-13.27h13.29v13.27h-13.29Z"/><path class="cls-1" d="M503.83,95.37v-13.27h13.29v13.27h-13.29Z"/><path class="cls-1" d="M503.83,95.37v-13.27h13.29v13.27h-13.29Z"/><path class="cls-1" d="M503.83,95.37v-13.27h13.29v13.27h-13.29Z"/><path class="cls-1" d="M503.83,113.47v-13.27h13.29v13.27h-13.29Z"/><path class="cls-1" d="M503.83,113.47v-13.27h13.29v13.27h-13.29Z"/><path class="cls-1" d="M503.83,113.47v-13.27h13.29v13.27h-13.29Z"/><path class="cls-1" d="M503.83,113.47v-13.27h13.29v13.27h-13.29Z"/><path class="cls-1" d="M503.83,131.57v-13.27h13.29v13.27h-13.29Z"/><path class="cls-1" d="M503.83,131.57v-13.27h13.29v13.27h-13.29Z"/><path class="cls-1" d="M503.83,131.57v-13.27h13.29v13.27h-13.29Z"/><path class="cls-1" d="M503.83,131.57v-13.27h13.29v13.27h-13.29Z"/><path class="cls-1" d="M503.83,149.66v-13.27h13.29v13.27h-13.29Z"/><path class="cls-1" d="M503.83,149.66v-13.27h13.29v13.27h-13.29Z"/><path class="cls-1" d="M503.83,149.66v-13.27h13.29v13.27h-13.29Z"/><path class="cls-1" d="M503.83,149.66v-13.27h13.29v13.27h-13.29Z"/><path class="cls-1" d="M503.83,167.76v-13.27h13.29v13.27h-13.29Z"/><path class="cls-1" d="M503.83,167.76v-13.27h13.29v13.27h-13.29Z"/><path class="cls-1" d="M503.83,167.76v-13.27h13.29v13.27h-13.29Z"/><path class="cls-1" d="M503.83,167.76v-13.27h13.29v13.27h-13.29Z"/><path class="cls-1" d="M503.83,185.86v-13.27h13.29v13.27h-13.29Z"/><path class="cls-1" d="M503.83,185.86v-13.27h13.29v13.27h-13.29Z"/><path class="cls-1" d="M503.83,185.86v-13.27h13.29v13.27h-13.29Z"/><path class="cls-1" d="M503.83,185.86v-13.27h13.29v13.27h-13.29Z"/><path class="cls-1" d="M503.83,203.96v-13.27h13.29v13.27h-13.29Z"/><path class="cls-1" d="M503.83,203.96v-13.27h13.29v13.27h-13.29Z"/><path class="cls-1" d="M503.83,203.96v-13.27h13.29v13.27h-13.29Z"/><path class="cls-1" d="M503.83,203.96v-13.27h13.29v13.27h-13.29Z"/><path class="cls-1" d="M542.34,22.98v-13.27h13.29v13.27h-13.29Z"/><path class="cls-1" d="M542.34,22.98v-13.27h13.29v13.27h-13.29Z"/><path class="cls-1" d="M542.34,22.98v-13.27h13.29v13.27h-13.29Z"/><path class="cls-1" d="M542.34,22.98v-13.27h13.29v13.27h-13.29Z"/><path class="cls-1" d="M542.34,41.08v-13.27h13.29v13.27h-13.29Z"/><path class="cls-1" d="M542.34,41.08v-13.27h13.29v13.27h-13.29Z"/><path class="cls-1" d="M542.34,41.08v-13.27h13.29v13.27h-13.29Z"/><path class="cls-1" d="M542.34,41.08v-13.27h13.29v13.27h-13.29Z"/><path class="cls-1" d="M542.34,59.17v-13.27h13.29v13.27h-13.29Z"/><path class="cls-1" d="M542.34,59.17v-13.27h13.29v13.27h-13.29Z"/><path class="cls-1" d="M542.34,59.17v-13.27h13.29v13.27h-13.29Z"/><path class="cls-1" d="M542.34,59.17v-13.27h13.29v13.27h-13.29Z"/><path class="cls-1" d="M542.34,77.27v-13.27h13.29v13.27h-13.29Z"/><path class="cls-1" d="M542.34,77.27v-13.27h13.29v13.27h-13.29Z"/><path class="cls-1" d="M542.34,77.27v-13.27h13.29v13.27h-13.29Z"/><path class="cls-1" d="M542.34,77.27v-13.27h13.29v13.27h-13.29Z"/><path class="cls-1" d="M542.34,95.37v-13.27h13.29v13.27h-13.29Z"/><path class="cls-1" d="M542.34,95.37v-13.27h13.29v13.27h-13.29Z"/><path class="cls-1" d="M542.34,95.37v-13.27h13.29v13.27h-13.29Z"/><path class="cls-1" d="M542.34,95.37v-13.27h13.29v13.27h-13.29Z"/><path class="cls-1" d="M542.34,113.47v-13.27h13.29v13.27h-13.29Z"/><path class="cls-1" d="M542.34,113.47v-13.27h13.29v13.27h-13.29Z"/><path class="cls-1" d="M542.34,113.47v-13.27h13.29v13.27h-13.29Z"/><path class="cls-1" d="M542.34,113.47v-13.27h13.29v13.27h-13.29Z"/><path class="cls-1" d="M542.34,131.57v-13.27h13.29v13.27h-13.29Z"/><path class="cls-1" d="M542.34,131.57v-13.27h13.29v13.27h-13.29Z"/><path class="cls-1" d="M542.34,131.57v-13.27h13.29v13.27h-13.29Z"/><path class="cls-1" d="M542.34,131.57v-13.27h13.29v13.27h-13.29Z"/><path class="cls-1" d="M542.34,149.66v-13.27h13.29v13.27h-13.29Z"/><path class="cls-1" d="M542.34,149.66v-13.27h13.29v13.27h-13.29Z"/><path class="cls-1" d="M542.34,149.66v-13.27h13.29v13.27h-13.29Z"/><path class="cls-1" d="M542.34,149.66v-13.27h13.29v13.27h-13.29Z"/><path class="cls-1" d="M542.34,167.76v-13.27h13.29v13.27h-13.29Z"/><path class="cls-1" d="M542.34,167.76v-13.27h13.29v13.27h-13.29Z"/><path class="cls-1" d="M542.34,167.76v-13.27h13.29v13.27h-13.29Z"/><path class="cls-1" d="M542.34,167.76v-13.27h13.29v13.27h-13.29Z"/><path class="cls-1" d="M542.34,185.86v-13.27h13.29v13.27h-13.29Z"/><path class="cls-1" d="M542.34,185.86v-13.27h13.29v13.27h-13.29Z"/><path class="cls-1" d="M542.34,185.86v-13.27h13.29v13.27h-13.29Z"/><path class="cls-1" d="M542.34,185.86v-13.27h13.29v13.27h-13.29Z"/><path class="cls-1" d="M542.34,203.96v-13.27h13.29v13.27h-13.29Z"/><path class="cls-1" d="M542.34,203.96v-13.27h13.29v13.27h-13.29Z"/><path class="cls-1" d="M542.34,203.96v-13.27h13.29v13.27h-13.29Z"/><path class="cls-1" d="M542.34,203.96v-13.27h13.29v13.27h-13.29Z"/><path class="cls-1" d="M560.46,22.98v-13.27h13.29v13.27h-13.29Z"/><path class="cls-1" d="M560.46,22.98v-13.27h13.29v13.27h-13.29Z"/><path class="cls-1" d="M560.46,22.98v-13.27h13.29v13.27h-13.29Z"/><path class="cls-1" d="M560.46,22.98v-13.27h13.29v13.27h-13.29Z"/><path class="cls-1" d="M560.46,113.47v-13.27h13.29v13.27h-13.29Z"/><path class="cls-1" d="M560.46,113.47v-13.27h13.29v13.27h-13.29Z"/><path class="cls-1" d="M560.46,113.47v-13.27h13.29v13.27h-13.29Z"/><path class="cls-1" d="M560.46,113.47v-13.27h13.29v13.27h-13.29Z"/><path class="cls-1" d="M560.46,203.96v-13.27h13.29v13.27h-13.29Z"/><path class="cls-1" d="M560.46,203.96v-13.27h13.29v13.27h-13.29Z"/><path class="cls-1" d="M560.46,203.96v-13.27h13.29v13.27h-13.29Z"/><path class="cls-1" d="M560.46,203.96v-13.27h13.29v13.27h-13.29Z"/><path class="cls-1" d="M578.59,22.98v-13.27h13.29v13.27h-13.29Z"/><path class="cls-1" d="M578.59,22.98v-13.27h13.29v13.27h-13.29Z"/><path class="cls-1" d="M578.59,22.98v-13.27h13.29v13.27h-13.29Z"/><path class="cls-1" d="M578.59,22.98v-13.27h13.29v13.27h-13.29Z"/><path class="cls-1" d="M578.59,113.47v-13.27h13.29v13.27h-13.29Z"/><path class="cls-1" d="M578.59,113.47v-13.27h13.29v13.27h-13.29Z"/><path class="cls-1" d="M578.59,113.47v-13.27h13.29v13.27h-13.29Z"/><path class="cls-1" d="M578.59,113.47v-13.27h13.29v13.27h-13.29Z"/><path class="cls-1" d="M578.59,203.96v-13.27h13.29v13.27h-13.29Z"/><path class="cls-1" d="M578.59,203.96v-13.27h13.29v13.27h-13.29Z"/><path class="cls-1" d="M578.59,203.96v-13.27h13.29v13.27h-13.29Z"/><path class="cls-1" d="M578.59,203.96v-13.27h13.29v13.27h-13.29Z"/><path class="cls-1" d="M596.71,22.98v-13.27h13.29v13.27h-13.29Z"/><path class="cls-1" d="M596.71,22.98v-13.27h13.29v13.27h-13.29Z"/><path class="cls-1" d="M596.71,22.98v-13.27h13.29v13.27h-13.29Z"/><path class="cls-1" d="M596.71,22.98v-13.27h13.29v13.27h-13.29Z"/><path class="cls-1" d="M596.71,113.47v-13.27h13.29v13.27h-13.29Z"/><path class="cls-1" d="M596.71,113.47v-13.27h13.29v13.27h-13.29Z"/><path class="cls-1" d="M596.71,113.47v-13.27h13.29v13.27h-13.29Z"/><path class="cls-1" d="M596.71,113.47v-13.27h13.29v13.27h-13.29Z"/><path class="cls-1" d="M596.71,203.96v-13.27h13.29v13.27h-13.29Z"/><path class="cls-1" d="M596.71,203.96v-13.27h13.29v13.27h-13.29Z"/><path class="cls-1" d="M596.71,203.96v-13.27h13.29v13.27h-13.29Z"/><path class="cls-1" d="M596.71,203.96v-13.27h13.29v13.27h-13.29Z"/><path class="cls-1" d="M10,253.73v-13.27h13.29v13.27h-13.29ZM10,253.73v-13.27h13.29v13.27h-13.29ZM10,253.73v-13.27h13.29v13.27h-13.29ZM10,253.73v-13.27h13.29v13.27h-13.29ZM10,271.83v-13.27h13.29v13.27h-13.29ZM10,271.83v-13.27h13.29v13.27h-13.29ZM10,271.83v-13.27h13.29v13.27h-13.29ZM10,271.83v-13.27h13.29v13.27h-13.29ZM10,289.92v-13.27h13.29v13.27h-13.29ZM10,289.92v-13.27h13.29v13.27h-13.29ZM10,289.92v-13.27h13.29v13.27h-13.29ZM10,289.92v-13.27h13.29v13.27h-13.29ZM10,308.02v-13.27h13.29v13.27h-13.29ZM10,308.02v-13.27h13.29v13.27h-13.29ZM10,308.02v-13.27h13.29v13.27h-13.29ZM10,308.02v-13.27h13.29v13.27h-13.29ZM10,326.12v-13.27h13.29v13.27h-13.29ZM10,326.12v-13.27h13.29v13.27h-13.29ZM10,326.12v-13.27h13.29v13.27h-13.29ZM10,326.12v-13.27h13.29v13.27h-13.29ZM10,344.22v-13.27h13.29v13.27h-13.29ZM10,344.22v-13.27h13.29v13.27h-13.29ZM10,344.22v-13.27h13.29v13.27h-13.29ZM10,344.22v-13.27h13.29v13.27h-13.29ZM10,362.32v-13.27h13.29v13.27h-13.29ZM10,362.32v-13.27h13.29v13.27h-13.29ZM10,362.32v-13.27h13.29v13.27h-13.29ZM10,362.32v-13.27h13.29v13.27h-13.29ZM10,380.41v-13.27h13.29v13.27h-13.29ZM10,380.41v-13.27h13.29v13.27h-13.29ZM10,380.41v-13.27h13.29v13.27h-13.29ZM10,380.41v-13.27h13.29v13.27h-13.29ZM10,398.51v-13.27h13.29v13.27h-13.29ZM10,398.51v-13.27h13.29v13.27h-13.29ZM10,398.51v-13.27h13.29v13.27h-13.29ZM10,398.51v-13.27h13.29v13.27h-13.29ZM10,416.61v-13.27h13.29v13.27h-13.29ZM10,416.61v-13.27h13.29v13.27h-13.29ZM10,416.61v-13.27h13.29v13.27h-13.29ZM10,416.61v-13.27h13.29v13.27h-13.29ZM10,434.71v-13.27h13.29v13.27h-13.29ZM10,434.71v-13.27h13.29v13.27h-13.29ZM10,434.71v-13.27h13.29v13.27h-13.29ZM10,434.71v-13.27h13.29v13.27h-13.29ZM28.12,253.73v-13.27h13.29v13.27h-13.29ZM28.12,253.73v-13.27h13.29v13.27h-13.29ZM28.12,253.73v-13.27h13.29v13.27h-13.29ZM28.12,253.73v-13.27h13.29v13.27h-13.29ZM28.12,362.32v-13.27h13.29v13.27h-13.29ZM28.12,362.32v-13.27h13.29v13.27h-13.29ZM28.12,362.32v-13.27h13.29v13.27h-13.29ZM28.12,362.32v-13.27h13.29v13.27h-13.29ZM46.25,253.73v-13.27h13.29v13.27h-13.29ZM46.25,253.73v-13.27h13.29v13.27h-13.29ZM46.25,253.73v-13.27h13.29v13.27h-13.29ZM46.25,253.73v-13.27h13.29v13.27h-13.29ZM46.25,362.32v-13.27h13.29v13.27h-13.29ZM46.25,362.32v-13.27h13.29v13.27h-13.29ZM46.25,362.32v-13.27h13.29v13.27h-13.29ZM46.25,362.32v-13.27h13.29v13.27h-13.29ZM64.37,253.73v-13.27h13.29v13.27h-13.29ZM64.37,253.73v-13.27h13.29v13.27h-13.29ZM64.37,253.73v-13.27h13.29v13.27h-13.29ZM64.37,253.73v-13.27h13.29v13.27h-13.29ZM64.37,362.32v-13.27h13.29v13.27h-13.29ZM64.37,362.32v-13.27h13.29v13.27h-13.29ZM64.37,362.32v-13.27h13.29v13.27h-13.29ZM64.37,362.32v-13.27h13.29v13.27h-13.29ZM82.49,271.83v-13.27h13.29v13.27h-13.29ZM82.49,271.83v-13.27h13.29v13.27h-13.29ZM82.49,271.83v-13.27h13.29v13.27h-13.29ZM82.49,271.83v-13.27h13.29v13.27h-13.29ZM82.49,289.92v-13.27h13.29v13.27h-13.29ZM82.49,289.92v-13.27h13.29v13.27h-13.29ZM82.49,289.92v-13.27h13.29v13.27h-13.29ZM82.49,289.92v-13.27h13.29v13.27h-13.29ZM82.49,308.02v-13.27h13.29v13.27h-13.29ZM82.49,308.02v-13.27h13.29v13.27h-13.29ZM82.49,308.02v-13.27h13.29v13.27h-13.29ZM82.49,308.02v-13.27h13.29v13.27h-13.29ZM82.49,326.12v-13.27h13.29v13.27h-13.29ZM82.49,326.12v-13.27h13.29v13.27h-13.29ZM82.49,326.12v-13.27h13.29v13.27h-13.29ZM82.49,326.12v-13.27h13.29v13.27h-13.29ZM82.49,344.22v-13.27h13.29v13.27h-13.29ZM82.49,344.22v-13.27h13.29v13.27h-13.29ZM82.49,344.22v-13.27h13.29v13.27h-13.29ZM82.49,344.22v-13.27h13.29v13.27h-13.29ZM122.27,253.73v-13.27h13.29v13.27h-13.29ZM122.27,253.73v-13.27h13.29v13.27h-13.29ZM122.27,253.73v-13.27h13.29v13.27h-13.29ZM122.27,253.73v-13.27h13.29v13.27h-13.29ZM122.27,271.83v-13.27h13.29v13.27h-13.29ZM122.27,271.83v-13.27h13.29v13.27h-13.29ZM122.27,271.83v-13.27h13.29v13.27h-13.29ZM122.27,271.83v-13.27h13.29v13.27h-13.29ZM122.27,289.92v-13.27h13.29v13.27h-13.29ZM122.27,289.92v-13.27h13.29v13.27h-13.29ZM122.27,289.92v-13.27h13.29v13.27h-13.29ZM122.27,289.92v-13.27h13.29v13.27h-13.29ZM122.27,308.02v-13.27h13.29v13.27h-13.29ZM122.27,308.02v-13.27h13.29v13.27h-13.29ZM122.27,308.02v-13.27h13.29v13.27h-13.29ZM122.27,308.02v-13.27h13.29v13.27h-13.29ZM122.27,326.12v-13.27h13.29v13.27h-13.29ZM122.27,326.12v-13.27h13.29v13.27h-13.29ZM122.27,326.12v-13.27h13.29v13.27h-13.29ZM122.27,326.12v-13.27h13.29v13.27h-13.29ZM122.27,344.22v-13.27h13.29v13.27h-13.29ZM122.27,344.22v-13.27h13.29v13.27h-13.29ZM122.27,344.22v-13.27h13.29v13.27h-13.29ZM122.27,344.22v-13.27h13.29v13.27h-13.29ZM122.27,362.32v-13.27h13.29v13.27h-13.29ZM122.27,362.32v-13.27h13.29v13.27h-13.29ZM122.27,362.32v-13.27h13.29v13.27h-13.29ZM122.27,362.32v-13.27h13.29v13.27h-13.29ZM122.27,380.41v-13.27h13.29v13.27h-13.29ZM122.27,380.41v-13.27h13.29v13.27h-13.29ZM122.27,380.41v-13.27h13.29v13.27h-13.29ZM122.27,380.41v-13.27h13.29v13.27h-13.29ZM122.27,398.51v-13.27h13.29v13.27h-13.29ZM122.27,398.51v-13.27h13.29v13.27h-13.29ZM122.27,398.51v-13.27h13.29v13.27h-13.29ZM122.27,398.51v-13.27h13.29v13.27h-13.29ZM122.27,416.61v-13.27h13.29v13.27h-13.29ZM122.27,416.61v-13.27h13.29v13.27h-13.29ZM122.27,416.61v-13.27h13.29v13.27h-13.29ZM122.27,416.61v-13.27h13.29v13.27h-13.29ZM122.27,434.71v-13.27h13.29v13.27h-13.29ZM122.27,434.71v-13.27h13.29v13.27h-13.29ZM122.27,434.71v-13.27h13.29v13.27h-13.29ZM122.27,434.71v-13.27h13.29v13.27h-13.29ZM140.39,253.73v-13.27h13.29v13.27h-13.29ZM140.39,253.73v-13.27h13.29v13.27h-13.29ZM140.39,253.73v-13.27h13.29v13.27h-13.29ZM140.39,253.73v-13.27h13.29v13.27h-13.29ZM140.39,344.22v-13.27h13.29v13.27h-13.29ZM140.39,344.22v-13.27h13.29v13.27h-13.29ZM140.39,344.22v-13.27h13.29v13.27h-13.29ZM140.39,344.22v-13.27h13.29v13.27h-13.29ZM140.39,434.71v-13.27h13.29v13.27h-13.29ZM140.39,434.71v-13.27h13.29v13.27h-13.29ZM140.39,434.71v-13.27h13.29v13.27h-13.29ZM140.39,434.71v-13.27h13.29v13.27h-13.29ZM158.52,253.73v-13.27h13.29v13.27h-13.29ZM158.52,253.73v-13.27h13.29v13.27h-13.29ZM158.52,253.73v-13.27h13.29v13.27h-13.29ZM158.52,253.73v-13.27h13.29v13.27h-13.29ZM158.52,344.22v-13.27h13.29v13.27h-13.29ZM158.52,344.22v-13.27h13.29v13.27h-13.29ZM158.52,344.22v-13.27h13.29v13.27h-13.29ZM158.52,344.22v-13.27h13.29v13.27h-13.29ZM158.52,434.71v-13.27h13.29v13.27h-13.29ZM158.52,434.71v-13.27h13.29v13.27h-13.29ZM158.52,434.71v-13.27h13.29v13.27h-13.29ZM158.52,434.71v-13.27h13.29v13.27h-13.29ZM176.64,253.73v-13.27h13.29v13.27h-13.29ZM176.64,253.73v-13.27h13.29v13.27h-13.29ZM176.64,253.73v-13.27h13.29v13.27h-13.29ZM176.64,253.73v-13.27h13.29v13.27h-13.29ZM176.64,344.22v-13.27h13.29v13.27h-13.29ZM176.64,344.22v-13.27h13.29v13.27h-13.29ZM176.64,344.22v-13.27h13.29v13.27h-13.29ZM176.64,344.22v-13.27h13.29v13.27h-13.29ZM176.64,434.71v-13.27h13.29v13.27h-13.29ZM176.64,434.71v-13.27h13.29v13.27h-13.29ZM176.64,434.71v-13.27h13.29v13.27h-13.29ZM176.64,434.71v-13.27h13.29v13.27h-13.29ZM220.76,271.83v-13.27h13.29v13.27h-13.29ZM220.76,271.83v-13.27h13.29v13.27h-13.29ZM220.76,271.83v-13.27h13.29v13.27h-13.29ZM220.76,271.83v-13.27h13.29v13.27h-13.29ZM220.76,289.92v-13.27h13.29v13.27h-13.29ZM220.76,289.92v-13.27h13.29v13.27h-13.29ZM220.76,289.92v-13.27h13.29v13.27h-13.29ZM220.76,289.92v-13.27h13.29v13.27h-13.29ZM220.76,308.02v-13.27h13.29v13.27h-13.29ZM220.76,308.02v-13.27h13.29v13.27h-13.29ZM220.76,308.02v-13.27h13.29v13.27h-13.29ZM220.76,308.02v-13.27h13.29v13.27h-13.29ZM220.76,326.12v-13.27h13.29v13.27h-13.29ZM220.76,326.12v-13.27h13.29v13.27h-13.29ZM220.76,326.12v-13.27h13.29v13.27h-13.29ZM220.76,326.12v-13.27h13.29v13.27h-13.29ZM220.76,344.22v-13.27h13.29v13.27h-13.29ZM220.76,344.22v-13.27h13.29v13.27h-13.29ZM220.76,344.22v-13.27h13.29v13.27h-13.29ZM220.76,344.22v-13.27h13.29v13.27h-13.29ZM220.76,362.32v-13.27h13.29v13.27h-13.29ZM220.76,362.32v-13.27h13.29v13.27h-13.29ZM220.76,362.32v-13.27h13.29v13.27h-13.29ZM220.76,362.32v-13.27h13.29v13.27h-13.29ZM220.76,380.41v-13.27h13.29v13.27h-13.29ZM220.76,380.41v-13.27h13.29v13.27h-13.29ZM220.76,380.41v-13.27h13.29v13.27h-13.29ZM220.76,380.41v-13.27h13.29v13.27h-13.29ZM220.76,398.51v-13.27h13.29v13.27h-13.29ZM220.76,398.51v-13.27h13.29v13.27h-13.29ZM220.76,398.51v-13.27h13.29v13.27h-13.29ZM220.76,398.51v-13.27h13.29v13.27h-13.29ZM220.76,416.61v-13.27h13.29v13.27h-13.29ZM220.76,416.61v-13.27h13.29v13.27h-13.29ZM220.76,416.61v-13.27h13.29v13.27h-13.29ZM220.76,416.61v-13.27h13.29v13.27h-13.29ZM238.88,253.73v-13.27h13.29v13.27h-13.29ZM238.88,253.73v-13.27h13.29v13.27h-13.29ZM238.88,253.73v-13.27h13.29v13.27h-13.29ZM238.88,253.73v-13.27h13.29v13.27h-13.29ZM238.88,434.71v-13.27h13.29v13.27h-13.29ZM238.88,434.71v-13.27h13.29v13.27h-13.29ZM238.88,434.71v-13.27h13.29v13.27h-13.29ZM238.88,434.71v-13.27h13.29v13.27h-13.29ZM257,253.73v-13.27h13.29v13.27h-13.29ZM257,253.73v-13.27h13.29v13.27h-13.29ZM257,253.73v-13.27h13.29v13.27h-13.29ZM257,253.73v-13.27h13.29v13.27h-13.29ZM257,434.71v-13.27h13.29v13.27h-13.29ZM257,434.71v-13.27h13.29v13.27h-13.29ZM257,434.71v-13.27h13.29v13.27h-13.29ZM257,434.71v-13.27h13.29v13.27h-13.29ZM275.13,253.73v-13.27h13.29v13.27h-13.29ZM275.13,253.73v-13.27h13.29v13.27h-13.29ZM275.13,253.73v-13.27h13.29v13.27h-13.29ZM275.13,253.73v-13.27h13.29v13.27h-13.29ZM275.13,434.71v-13.27h13.29v13.27h-13.29ZM275.13,434.71v-13.27h13.29v13.27h-13.29ZM275.13,434.71v-13.27h13.29v13.27h-13.29ZM275.13,434.71v-13.27h13.29v13.27h-13.29ZM293.25,271.83v-13.27h13.29v13.27h-13.29ZM293.25,271.83v-13.27h13.29v13.27h-13.29ZM293.25,271.83v-13.27h13.29v13.27h-13.29ZM293.25,271.83v-13.27h13.29v13.27h-13.29ZM293.25,289.92v-13.27h13.29v13.27h-13.29ZM293.25,289.92v-13.27h13.29v13.27h-13.29ZM293.25,289.92v-13.27h13.29v13.27h-13.29ZM293.25,289.92v-13.27h13.29v13.27h-13.29ZM293.25,308.02v-13.27h13.29v13.27h-13.29ZM293.25,308.02v-13.27h13.29v13.27h-13.29ZM293.25,308.02v-13.27h13.29v13.27h-13.29ZM293.25,308.02v-13.27h13.29v13.27h-13.29ZM293.25,326.12v-13.27h13.29v13.27h-13.29ZM293.25,326.12v-13.27h13.29v13.27h-13.29ZM293.25,326.12v-13.27h13.29v13.27h-13.29ZM293.25,326.12v-13.27h13.29v13.27h-13.29ZM293.25,344.22v-13.27h13.29v13.27h-13.29ZM293.25,344.22v-13.27h13.29v13.27h-13.29ZM293.25,344.22v-13.27h13.29v13.27h-13.29ZM293.25,344.22v-13.27h13.29v13.27h-13.29ZM293.25,362.32v-13.27h13.29v13.27h-13.29ZM293.25,362.32v-13.27h13.29v13.27h-13.29ZM293.25,362.32v-13.27h13.29v13.27h-13.29ZM293.25,362.32v-13.27h13.29v13.27h-13.29ZM293.25,380.41v-13.27h13.29v13.27h-13.29ZM293.25,380.41v-13.27h13.29v13.27h-13.29ZM293.25,380.41v-13.27h13.29v13.27h-13.29ZM293.25,380.41v-13.27h13.29v13.27h-13.29ZM293.25,398.51v-13.27h13.29v13.27h-13.29ZM293.25,398.51v-13.27h13.29v13.27h-13.29ZM293.25,398.51v-13.27h13.29v13.27h-13.29ZM293.25,398.51v-13.27h13.29v13.27h-13.29ZM293.25,416.61v-13.27h13.29v13.27h-13.29ZM293.25,416.61v-13.27h13.29v13.27h-13.29ZM293.25,416.61v-13.27h13.29v13.27h-13.29ZM293.25,416.61v-13.27h13.29v13.27h-13.29ZM334.48,253.73v-13.27h13.29v13.27h-13.29ZM334.48,253.73v-13.27h13.29v13.27h-13.29ZM334.48,253.73v-13.27h13.29v13.27h-13.29ZM334.48,253.73v-13.27h13.29v13.27h-13.29ZM334.48,271.83v-13.27h13.29v13.27h-13.29ZM334.48,271.83v-13.27h13.29v13.27h-13.29ZM334.48,271.83v-13.27h13.29v13.27h-13.29ZM334.48,271.83v-13.27h13.29v13.27h-13.29ZM334.48,289.92v-13.27h13.29v13.27h-13.29ZM334.48,289.92v-13.27h13.29v13.27h-13.29ZM334.48,289.92v-13.27h13.29v13.27h-13.29ZM334.48,289.92v-13.27h13.29v13.27h-13.29ZM334.48,308.02v-13.27h13.29v13.27h-13.29ZM334.48,308.02v-13.27h13.29v13.27h-13.29ZM334.48,308.02v-13.27h13.29v13.27h-13.29ZM334.48,308.02v-13.27h13.29v13.27h-13.29ZM334.48,326.12v-13.27h13.29v13.27h-13.29ZM334.48,326.12v-13.27h13.29v13.27h-13.29ZM334.48,326.12v-13.27h13.29v13.27h-13.29ZM334.48,326.12v-13.27h13.29v13.27h-13.29ZM334.48,344.22v-13.27h13.29v13.27h-13.29ZM334.48,344.22v-13.27h13.29v13.27h-13.29ZM334.48,344.22v-13.27h13.29v13.27h-13.29ZM334.48,344.22v-13.27h13.29v13.27h-13.29ZM334.48,362.32v-13.27h13.29v13.27h-13.29ZM334.48,362.32v-13.27h13.29v13.27h-13.29ZM334.48,362.32v-13.27h13.29v13.27h-13.29ZM334.48,362.32v-13.27h13.29v13.27h-13.29ZM334.48,380.41v-13.27h13.29v13.27h-13.29ZM334.48,380.41v-13.27h13.29v13.27h-13.29ZM334.48,380.41v-13.27h13.29v13.27h-13.29ZM334.48,380.41v-13.27h13.29v13.27h-13.29ZM334.48,398.51v-13.27h13.29v13.27h-13.29ZM334.48,398.51v-13.27h13.29v13.27h-13.29ZM334.48,398.51v-13.27h13.29v13.27h-13.29ZM334.48,398.51v-13.27h13.29v13.27h-13.29ZM334.48,416.61v-13.27h13.29v13.27h-13.29ZM334.48,416.61v-13.27h13.29v13.27h-13.29ZM334.48,416.61v-13.27h13.29v13.27h-13.29ZM334.48,416.61v-13.27h13.29v13.27h-13.29ZM334.48,434.71v-13.27h13.29v13.27h-13.29ZM334.48,434.71v-13.27h13.29v13.27h-13.29ZM334.48,434.71v-13.27h13.29v13.27h-13.29ZM334.48,434.71v-13.27h13.29v13.27h-13.29ZM352.6,253.73v-13.27h13.29v13.27h-13.29ZM352.6,253.73v-13.27h13.29v13.27h-13.29ZM352.6,253.73v-13.27h13.29v13.27h-13.29ZM352.6,253.73v-13.27h13.29v13.27h-13.29ZM352.6,362.32v-13.27h13.29v13.27h-13.29ZM352.6,362.32v-13.27h13.29v13.27h-13.29ZM352.6,362.32v-13.27h13.29v13.27h-13.29ZM352.6,362.32v-13.27h13.29v13.27h-13.29ZM370.72,253.73v-13.27h13.29v13.27h-13.29ZM370.72,253.73v-13.27h13.29v13.27h-13.29ZM370.72,253.73v-13.27h13.29v13.27h-13.29ZM370.72,253.73v-13.27h13.29v13.27h-13.29ZM370.72,362.32v-13.27h13.29v13.27h-13.29ZM370.72,362.32v-13.27h13.29v13.27h-13.29ZM370.72,362.32v-13.27h13.29v13.27h-13.29ZM370.72,362.32v-13.27h13.29v13.27h-13.29ZM388.84,253.73v-13.27h13.29v13.27h-13.29ZM388.84,253.73v-13.27h13.29v13.27h-13.29ZM388.84,253.73v-13.27h13.29v13.27h-13.29ZM388.84,253.73v-13.27h13.29v13.27h-13.29ZM388.84,362.32v-13.27h13.29v13.27h-13.29ZM388.84,362.32v-13.27h13.29v13.27h-13.29ZM388.84,362.32v-13.27h13.29v13.27h-13.29ZM388.84,362.32v-13.27h13.29v13.27h-13.29ZM406.97,271.83v-13.27h13.29v13.27h-13.29ZM406.97,271.83v-13.27h13.29v13.27h-13.29ZM406.97,271.83v-13.27h13.29v13.27h-13.29ZM406.97,271.83v-13.27h13.29v13.27h-13.29ZM406.97,289.92v-13.27h13.29v13.27h-13.29ZM406.97,289.92v-13.27h13.29v13.27h-13.29ZM406.97,289.92v-13.27h13.29v13.27h-13.29ZM406.97,289.92v-13.27h13.29v13.27h-13.29ZM406.97,308.02v-13.27h13.29v13.27h-13.29ZM406.97,308.02v-13.27h13.29v13.27h-13.29ZM406.97,308.02v-13.27h13.29v13.27h-13.29ZM406.97,308.02v-13.27h13.29v13.27h-13.29ZM406.97,326.12v-13.27h13.29v13.27h-13.29ZM406.97,326.12v-13.27h13.29v13.27h-13.29ZM406.97,326.12v-13.27h13.29v13.27h-13.29ZM406.97,326.12v-13.27h13.29v13.27h-13.29ZM406.97,344.22v-13.27h13.29v13.27h-13.29ZM406.97,344.22v-13.27h13.29v13.27h-13.29ZM406.97,344.22v-13.27h13.29v13.27h-13.29ZM406.97,344.22v-13.27h13.29v13.27h-13.29ZM451.09,253.73v-13.27h13.29v13.27h-13.29ZM451.09,253.73v-13.27h13.29v13.27h-13.29ZM451.09,253.73v-13.27h13.29v13.27h-13.29ZM451.09,253.73v-13.27h13.29v13.27h-13.29ZM451.09,271.83v-13.27h13.29v13.27h-13.29ZM451.09,271.83v-13.27h13.29v13.27h-13.29ZM451.09,271.83v-13.27h13.29v13.27h-13.29ZM451.09,271.83v-13.27h13.29v13.27h-13.29ZM451.09,289.92v-13.27h13.29v13.27h-13.29ZM451.09,289.92v-13.27h13.29v13.27h-13.29ZM451.09,289.92v-13.27h13.29v13.27h-13.29ZM451.09,289.92v-13.27h13.29v13.27h-13.29ZM451.09,308.02v-13.27h13.29v13.27h-13.29ZM451.09,308.02v-13.27h13.29v13.27h-13.29ZM451.09,308.02v-13.27h13.29v13.27h-13.29ZM451.09,308.02v-13.27h13.29v13.27h-13.29ZM451.09,326.12v-13.27h13.29v13.27h-13.29ZM451.09,326.12v-13.27h13.29v13.27h-13.29ZM451.09,326.12v-13.27h13.29v13.27h-13.29ZM451.09,326.12v-13.27h13.29v13.27h-13.29ZM451.09,344.22v-13.27h13.29v13.27h-13.29ZM451.09,344.22v-13.27h13.29v13.27h-13.29ZM451.09,344.22v-13.27h13.29v13.27h-13.29ZM451.09,344.22v-13.27h13.29v13.27h-13.29ZM451.09,362.32v-13.27h13.29v13.27h-13.29ZM451.09,362.32v-13.27h13.29v13.27h-13.29ZM451.09,362.32v-13.27h13.29v13.27h-13.29ZM451.09,362.32v-13.27h13.29v13.27h-13.29ZM451.09,380.41v-13.27h13.29v13.27h-13.29ZM451.09,380.41v-13.27h13.29v13.27h-13.29ZM451.09,380.41v-13.27h13.29v13.27h-13.29ZM451.09,380.41v-13.27h13.29v13.27h-13.29ZM451.09,398.51v-13.27h13.29v13.27h-13.29ZM451.09,398.51v-13.27h13.29v13.27h-13.29ZM451.09,398.51v-13.27h13.29v13.27h-13.29ZM451.09,398.51v-13.27h13.29v13.27h-13.29ZM451.09,416.61v-13.27h13.29v13.27h-13.29ZM451.09,416.61v-13.27h13.29v13.27h-13.29ZM451.09,416.61v-13.27h13.29v13.27h-13.29ZM451.09,416.61v-13.27h13.29v13.27h-13.29ZM451.09,434.71v-13.27h13.29v13.27h-13.29ZM451.09,434.71v-13.27h13.29v13.27h-13.29ZM451.09,434.71v-13.27h13.29v13.27h-13.29ZM451.09,434.71v-13.27h13.29v13.27h-13.29ZM469.21,434.71v-13.27h13.29v13.27h-13.29ZM469.21,434.71v-13.27h13.29v13.27h-13.29ZM469.21,434.71v-13.27h13.29v13.27h-13.29ZM469.21,434.71v-13.27h13.29v13.27h-13.29ZM487.33,434.71v-13.27h13.29v13.27h-13.29ZM487.33,434.71v-13.27h13.29v13.27h-13.29ZM487.33,434.71v-13.27h13.29v13.27h-13.29ZM487.33,434.71v-13.27h13.29v13.27h-13.29ZM505.46,434.71v-13.27h13.29v13.27h-13.29ZM505.46,434.71v-13.27h13.29v13.27h-13.29ZM505.46,434.71v-13.27h13.29v13.27h-13.29ZM505.46,434.71v-13.27h13.29v13.27h-13.29ZM542.34,253.73v-13.27h13.29v13.27h-13.29ZM542.34,253.73v-13.27h13.29v13.27h-13.29ZM542.34,253.73v-13.27h13.29v13.27h-13.29ZM542.34,253.73v-13.27h13.29v13.27h-13.29ZM542.34,271.83v-13.27h13.29v13.27h-13.29ZM542.34,271.83v-13.27h13.29v13.27h-13.29ZM542.34,271.83v-13.27h13.29v13.27h-13.29ZM542.34,271.83v-13.27h13.29v13.27h-13.29ZM542.34,289.92v-13.27h13.29v13.27h-13.29ZM542.34,289.92v-13.27h13.29v13.27h-13.29ZM542.34,289.92v-13.27h13.29v13.27h-13.29ZM542.34,289.92v-13.27h13.29v13.27h-13.29ZM542.34,308.02v-13.27h13.29v13.27h-13.29ZM542.34,308.02v-13.27h13.29v13.27h-13.29ZM542.34,308.02v-13.27h13.29v13.27h-13.29ZM542.34,308.02v-13.27h13.29v13.27h-13.29ZM542.34,326.12v-13.27h13.29v13.27h-13.29ZM542.34,326.12v-13.27h13.29v13.27h-13.29ZM542.34,326.12v-13.27h13.29v13.27h-13.29ZM542.34,326.12v-13.27h13.29v13.27h-13.29ZM542.34,344.22v-13.27h13.29v13.27h-13.29ZM542.34,344.22v-13.27h13.29v13.27h-13.29ZM542.34,344.22v-13.27h13.29v13.27h-13.29ZM542.34,344.22v-13.27h13.29v13.27h-13.29ZM542.34,362.32v-13.27h13.29v13.27h-13.29ZM542.34,362.32v-13.27h13.29v13.27h-13.29ZM542.34,362.32v-13.27h13.29v13.27h-13.29ZM542.34,362.32v-13.27h13.29v13.27h-13.29ZM542.34,380.41v-13.27h13.29v13.27h-13.29ZM542.34,380.41v-13.27h13.29v13.27h-13.29ZM542.34,380.41v-13.27h13.29v13.27h-13.29ZM542.34,380.41v-13.27h13.29v13.27h-13.29ZM542.34,398.51v-13.27h13.29v13.27h-13.29ZM542.34,398.51v-13.27h13.29v13.27h-13.29ZM542.34,398.51v-13.27h13.29v13.27h-13.29ZM542.34,398.51v-13.27h13.29v13.27h-13.29ZM542.34,416.61v-13.27h13.29v13.27h-13.29ZM542.34,416.61v-13.27h13.29v13.27h-13.29ZM542.34,416.61v-13.27h13.29v13.27h-13.29ZM542.34,416.61v-13.27h13.29v13.27h-13.29ZM542.34,434.71v-13.27h13.29v13.27h-13.29ZM542.34,434.71v-13.27h13.29v13.27h-13.29ZM542.34,434.71v-13.27h13.29v13.27h-13.29ZM542.34,434.71v-13.27h13.29v13.27h-13.29ZM560.46,253.73v-13.27h13.29v13.27h-13.29ZM560.46,253.73v-13.27h13.29v13.27h-13.29ZM560.46,253.73v-13.27h13.29v13.27h-13.29ZM560.46,253.73v-13.27h13.29v13.27h-13.29ZM560.46,344.22v-13.27h13.29v13.27h-13.29ZM560.46,344.22v-13.27h13.29v13.27h-13.29ZM560.46,344.22v-13.27h13.29v13.27h-13.29ZM560.46,344.22v-13.27h13.29v13.27h-13.29ZM560.46,434.71v-13.27h13.29v13.27h-13.29ZM560.46,434.71v-13.27h13.29v13.27h-13.29ZM560.46,434.71v-13.27h13.29v13.27h-13.29ZM560.46,434.71v-13.27h13.29v13.27h-13.29ZM578.59,253.73v-13.27h13.29v13.27h-13.29ZM578.59,253.73v-13.27h13.29v13.27h-13.29ZM578.59,253.73v-13.27h13.29v13.27h-13.29ZM578.59,253.73v-13.27h13.29v13.27h-13.29ZM578.59,344.22v-13.27h13.29v13.27h-13.29ZM578.59,344.22v-13.27h13.29v13.27h-13.29ZM578.59,344.22v-13.27h13.29v13.27h-13.29ZM578.59,344.22v-13.27h13.29v13.27h-13.29ZM578.59,434.71v-13.27h13.29v13.27h-13.29ZM578.59,434.71v-13.27h13.29v13.27h-13.29ZM578.59,434.71v-13.27h13.29v13.27h-13.29ZM578.59,434.71v-13.27h13.29v13.27h-13.29ZM596.71,253.73v-13.27h13.29v13.27h-13.29ZM596.71,253.73v-13.27h13.29v13.27h-13.29ZM596.71,253.73v-13.27h13.29v13.27h-13.29ZM596.71,253.73v-13.27h13.29v13.27h-13.29ZM596.71,344.22v-13.27h13.29v13.27h-13.29ZM596.71,344.22v-13.27h13.29v13.27h-13.29ZM596.71,344.22v-13.27h13.29v13.27h-13.29ZM596.71,344.22v-13.27h13.29v13.27h-13.29ZM596.71,434.71v-13.27h13.29v13.27h-13.29ZM596.71,434.71v-13.27h13.29v13.27h-13.29ZM596.71,434.71v-13.27h13.29v13.27h-13.29ZM596.71,434.71v-13.27h13.29v13.27h-13.29Z"/></svg>