<?xml version="1.0" encoding="UTF-8"?><svg id="Layer_2" xmlns="http://www.w3.org/2000/svg" viewBox="0 0 829.3 588.23"><defs><style>.cls-1{fill:#231f20;}</style></defs><g id="Layer_1-2"><path class="cls-1" d="M0,18.37V0h18.37v18.37H0ZM0,18.37V0h18.37v18.37H0ZM0,18.37V0h18.37v18.37H0ZM0,18.37V0h18.37v18.37H0ZM0,43.42v-18.37h18.37v18.37H0ZM0,43.42v-18.37h18.37v18.37H0ZM0,43.42v-18.37h18.37v18.37H0ZM0,43.42v-18.37h18.37v18.37H0ZM0,68.47v-18.37h18.37v18.37H0ZM0,68.47v-18.37h18.37v18.37H0ZM0,68.47v-18.37h18.37v18.37H0ZM0,68.47v-18.37h18.37v18.37H0ZM0,93.52v-18.37h18.37v18.37H0ZM0,93.52v-18.37h18.37v18.37H0ZM0,93.52v-18.37h18.37v18.37H0ZM0,93.52v-18.37h18.37v18.37H0ZM0,118.56v-18.37h18.37v18.37H0ZM0,118.56v-18.37h18.37v18.37H0ZM0,118.56v-18.37h18.37v18.37H0ZM0,118.56v-18.37h18.37v18.37H0ZM0,143.61v-18.37h18.37v18.37H0ZM0,143.61v-18.37h18.37v18.37H0ZM0,143.61v-18.37h18.37v18.37H0ZM0,143.61v-18.37h18.37v18.37H0ZM0,168.66v-18.37h18.37v18.37H0ZM0,168.66v-18.37h18.37v18.37H0ZM0,168.66v-18.37h18.37v18.37H0ZM0,168.66v-18.37h18.37v18.37H0ZM12.52,193.71v-18.37h18.37v18.37H12.52ZM12.52,193.71v-18.37h18.37v18.37H12.52ZM12.52,193.71v-18.37h18.37v18.37H12.52ZM12.52,193.71v-18.37h18.37v18.37H12.52ZM25.05,218.76v-18.37h18.37v18.37h-18.37ZM25.05,218.76v-18.37h18.37v18.37h-18.37ZM25.05,218.76v-18.37h18.37v18.37h-18.37ZM25.05,218.76v-18.37h18.37v18.37h-18.37ZM37.57,243.81v-18.37h18.37v18.37h-18.37ZM37.57,243.81v-18.37h18.37v18.37h-18.37ZM37.57,243.81v-18.37h18.37v18.37h-18.37ZM37.57,243.81v-18.37h18.37v18.37h-18.37ZM50.1,268.86v-18.37h18.37v18.37h-18.37ZM50.1,268.86v-18.37h18.37v18.37h-18.37ZM50.1,268.86v-18.37h18.37v18.37h-18.37ZM50.1,268.86v-18.37h18.37v18.37h-18.37ZM62.62,243.81v-18.37h18.37v18.37h-18.37ZM62.62,243.81v-18.37h18.37v18.37h-18.37ZM62.62,243.81v-18.37h18.37v18.37h-18.37ZM62.62,243.81v-18.37h18.37v18.37h-18.37ZM75.15,218.76v-18.37h18.37v18.37h-18.37ZM75.15,218.76v-18.37h18.37v18.37h-18.37ZM75.15,218.76v-18.37h18.37v18.37h-18.37ZM75.15,218.76v-18.37h18.37v18.37h-18.37ZM87.67,193.71v-18.37h18.37v18.37h-18.37ZM87.67,193.71v-18.37h18.37v18.37h-18.37ZM87.67,193.71v-18.37h18.37v18.37h-18.37ZM87.67,193.71v-18.37h18.37v18.37h-18.37ZM100.19,18.37V0h18.37v18.37h-18.37ZM100.19,18.37V0h18.37v18.37h-18.37ZM100.19,18.37V0h18.37v18.37h-18.37ZM100.19,18.37V0h18.37v18.37h-18.37ZM100.19,43.42v-18.37h18.37v18.37h-18.37ZM100.19,43.42v-18.37h18.37v18.37h-18.37ZM100.19,43.42v-18.37h18.37v18.37h-18.37ZM100.19,43.42v-18.37h18.37v18.37h-18.37ZM100.19,68.47v-18.37h18.37v18.37h-18.37ZM100.19,68.47v-18.37h18.37v18.37h-18.37ZM100.19,68.47v-18.37h18.37v18.37h-18.37ZM100.19,68.47v-18.37h18.37v18.37h-18.37ZM100.19,93.52v-18.37h18.37v18.37h-18.37ZM100.19,93.52v-18.37h18.37v18.37h-18.37ZM100.19,93.52v-18.37h18.37v18.37h-18.37ZM100.19,93.52v-18.37h18.37v18.37h-18.37ZM100.19,118.56v-18.37h18.37v18.37h-18.37ZM100.19,118.56v-18.37h18.37v18.37h-18.37ZM100.19,118.56v-18.37h18.37v18.37h-18.37ZM100.19,118.56v-18.37h18.37v18.37h-18.37ZM100.19,143.61v-18.37h18.37v18.37h-18.37ZM100.19,143.61v-18.37h18.37v18.37h-18.37ZM100.19,143.61v-18.37h18.37v18.37h-18.37ZM100.19,143.61v-18.37h18.37v18.37h-18.37ZM100.19,168.66v-18.37h18.37v18.37h-18.37ZM100.19,168.66v-18.37h18.37v18.37h-18.37ZM100.19,168.66v-18.37h18.37v18.37h-18.37ZM100.19,168.66v-18.37h18.37v18.37h-18.37ZM112.72,193.71v-18.37h18.37v18.37h-18.37ZM112.72,193.71v-18.37h18.37v18.37h-18.37ZM112.72,193.71v-18.37h18.37v18.37h-18.37ZM112.72,193.71v-18.37h18.37v18.37h-18.37ZM125.24,218.76v-18.37h18.37v18.37h-18.37ZM125.24,218.76v-18.37h18.37v18.37h-18.37ZM125.24,218.76v-18.37h18.37v18.37h-18.37ZM125.24,218.76v-18.37h18.37v18.37h-18.37ZM137.77,243.81v-18.37h18.37v18.37h-18.37ZM137.77,243.81v-18.37h18.37v18.37h-18.37ZM137.77,243.81v-18.37h18.37v18.37h-18.37ZM137.77,243.81v-18.37h18.37v18.37h-18.37ZM150.29,268.86v-18.37h18.37v18.37h-18.37ZM150.29,268.86v-18.37h18.37v18.37h-18.37ZM150.29,268.86v-18.37h18.37v18.37h-18.37ZM150.29,268.86v-18.37h18.37v18.37h-18.37ZM162.82,243.81v-18.37h18.37v18.37h-18.37ZM162.82,243.81v-18.37h18.37v18.37h-18.37ZM162.82,243.81v-18.37h18.37v18.37h-18.37ZM162.82,243.81v-18.37h18.37v18.37h-18.37ZM175.34,218.76v-18.37h18.37v18.37h-18.37ZM175.34,218.76v-18.37h18.37v18.37h-18.37ZM175.34,218.76v-18.37h18.37v18.37h-18.37ZM175.34,218.76v-18.37h18.37v18.37h-18.37ZM187.87,193.71v-18.37h18.37v18.37h-18.37ZM187.87,193.71v-18.37h18.37v18.37h-18.37ZM187.87,193.71v-18.37h18.37v18.37h-18.37ZM187.87,193.71v-18.37h18.37v18.37h-18.37ZM200.39,18.37V0h18.37v18.37h-18.37ZM200.39,18.37V0h18.37v18.37h-18.37ZM200.39,18.37V0h18.37v18.37h-18.37ZM200.39,18.37V0h18.37v18.37h-18.37ZM200.39,43.42v-18.37h18.37v18.37h-18.37ZM200.39,43.42v-18.37h18.37v18.37h-18.37ZM200.39,43.42v-18.37h18.37v18.37h-18.37ZM200.39,43.42v-18.37h18.37v18.37h-18.37ZM200.39,68.47v-18.37h18.37v18.37h-18.37ZM200.39,68.47v-18.37h18.37v18.37h-18.37ZM200.39,68.47v-18.37h18.37v18.37h-18.37ZM200.39,68.47v-18.37h18.37v18.37h-18.37ZM200.39,93.52v-18.37h18.37v18.37h-18.37ZM200.39,93.52v-18.37h18.37v18.37h-18.37ZM200.39,93.52v-18.37h18.37v18.37h-18.37ZM200.39,93.52v-18.37h18.37v18.37h-18.37ZM200.39,118.56v-18.37h18.37v18.37h-18.37ZM200.39,118.56v-18.37h18.37v18.37h-18.37ZM200.39,118.56v-18.37h18.37v18.37h-18.37ZM200.39,118.56v-18.37h18.37v18.37h-18.37ZM200.39,143.61v-18.37h18.37v18.37h-18.37ZM200.39,143.61v-18.37h18.37v18.37h-18.37ZM200.39,143.61v-18.37h18.37v18.37h-18.37ZM200.39,143.61v-18.37h18.37v18.37h-18.37ZM200.39,168.66v-18.37h18.37v18.37h-18.37ZM200.39,168.66v-18.37h18.37v18.37h-18.37ZM200.39,168.66v-18.37h18.37v18.37h-18.37ZM200.39,168.66v-18.37h18.37v18.37h-18.37ZM252.36,18.37V0h18.37v18.37h-18.37ZM252.36,18.37V0h18.37v18.37h-18.37ZM252.36,18.37V0h18.37v18.37h-18.37ZM252.36,18.37V0h18.37v18.37h-18.37ZM252.36,43.42v-18.37h18.37v18.37h-18.37ZM252.36,43.42v-18.37h18.37v18.37h-18.37ZM252.36,43.42v-18.37h18.37v18.37h-18.37ZM252.36,43.42v-18.37h18.37v18.37h-18.37ZM252.36,68.47v-18.37h18.37v18.37h-18.37ZM252.36,68.47v-18.37h18.37v18.37h-18.37ZM252.36,68.47v-18.37h18.37v18.37h-18.37ZM252.36,68.47v-18.37h18.37v18.37h-18.37ZM252.36,93.52v-18.37h18.37v18.37h-18.37ZM252.36,93.52v-18.37h18.37v18.37h-18.37ZM252.36,93.52v-18.37h18.37v18.37h-18.37ZM252.36,93.52v-18.37h18.37v18.37h-18.37ZM252.36,118.56v-18.37h18.37v18.37h-18.37ZM252.36,118.56v-18.37h18.37v18.37h-18.37ZM252.36,118.56v-18.37h18.37v18.37h-18.37ZM252.36,118.56v-18.37h18.37v18.37h-18.37ZM252.36,143.61v-18.37h18.37v18.37h-18.37ZM252.36,143.61v-18.37h18.37v18.37h-18.37ZM252.36,143.61v-18.37h18.37v18.37h-18.37ZM252.36,143.61v-18.37h18.37v18.37h-18.37ZM252.36,168.66v-18.37h18.37v18.37h-18.37ZM252.36,168.66v-18.37h18.37v18.37h-18.37ZM252.36,168.66v-18.37h18.37v18.37h-18.37ZM252.36,168.66v-18.37h18.37v18.37h-18.37ZM252.36,193.71v-18.37h18.37v18.37h-18.37ZM252.36,193.71v-18.37h18.37v18.37h-18.37ZM252.36,193.71v-18.37h18.37v18.37h-18.37ZM252.36,193.71v-18.37h18.37v18.37h-18.37ZM252.36,218.76v-18.37h18.37v18.37h-18.37ZM252.36,218.76v-18.37h18.37v18.37h-18.37ZM252.36,218.76v-18.37h18.37v18.37h-18.37ZM252.36,218.76v-18.37h18.37v18.37h-18.37ZM252.36,243.81v-18.37h18.37v18.37h-18.37ZM252.36,243.81v-18.37h18.37v18.37h-18.37ZM252.36,243.81v-18.37h18.37v18.37h-18.37ZM252.36,243.81v-18.37h18.37v18.37h-18.37ZM252.36,268.86v-18.37h18.37v18.37h-18.37ZM252.36,268.86v-18.37h18.37v18.37h-18.37ZM252.36,268.86v-18.37h18.37v18.37h-18.37ZM252.36,268.86v-18.37h18.37v18.37h-18.37ZM277.41,18.37V0h18.37v18.37h-18.37ZM277.41,18.37V0h18.37v18.37h-18.37ZM277.41,18.37V0h18.37v18.37h-18.37ZM277.41,18.37V0h18.37v18.37h-18.37ZM277.41,143.61v-18.37h18.37v18.37h-18.37ZM277.41,143.61v-18.37h18.37v18.37h-18.37ZM277.41,143.61v-18.37h18.37v18.37h-18.37ZM277.41,143.61v-18.37h18.37v18.37h-18.37ZM277.41,268.86v-18.37h18.37v18.37h-18.37ZM277.41,268.86v-18.37h18.37v18.37h-18.37ZM277.41,268.86v-18.37h18.37v18.37h-18.37ZM277.41,268.86v-18.37h18.37v18.37h-18.37ZM302.46,18.37V0h18.37v18.37h-18.37ZM302.46,18.37V0h18.37v18.37h-18.37ZM302.46,18.37V0h18.37v18.37h-18.37ZM302.46,18.37V0h18.37v18.37h-18.37ZM302.46,143.61v-18.37h18.37v18.37h-18.37ZM302.46,143.61v-18.37h18.37v18.37h-18.37ZM302.46,143.61v-18.37h18.37v18.37h-18.37ZM302.46,143.61v-18.37h18.37v18.37h-18.37ZM302.46,268.86v-18.37h18.37v18.37h-18.37ZM302.46,268.86v-18.37h18.37v18.37h-18.37ZM302.46,268.86v-18.37h18.37v18.37h-18.37ZM302.46,268.86v-18.37h18.37v18.37h-18.37ZM327.51,18.37V0h18.37v18.37h-18.37ZM327.51,18.37V0h18.37v18.37h-18.37ZM327.51,18.37V0h18.37v18.37h-18.37ZM327.51,18.37V0h18.37v18.37h-18.37ZM327.51,143.61v-18.37h18.37v18.37h-18.37ZM327.51,143.61v-18.37h18.37v18.37h-18.37ZM327.51,143.61v-18.37h18.37v18.37h-18.37ZM327.51,143.61v-18.37h18.37v18.37h-18.37ZM327.51,268.86v-18.37h18.37v18.37h-18.37ZM327.51,268.86v-18.37h18.37v18.37h-18.37ZM327.51,268.86v-18.37h18.37v18.37h-18.37ZM327.51,268.86v-18.37h18.37v18.37h-18.37ZM418.93,18.37V0h18.37v18.37h-18.37ZM418.93,18.37V0h18.37v18.37h-18.37ZM418.93,18.37V0h18.37v18.37h-18.37ZM418.93,18.37V0h18.37v18.37h-18.37ZM443.98,18.37V0h18.37v18.37h-18.37ZM443.98,18.37V0h18.37v18.37h-18.37ZM443.98,18.37V0h18.37v18.37h-18.37ZM443.98,18.37V0h18.37v18.37h-18.37ZM469.03,18.37V0h18.37v18.37h-18.37ZM469.03,18.37V0h18.37v18.37h-18.37ZM469.03,18.37V0h18.37v18.37h-18.37ZM469.03,18.37V0h18.37v18.37h-18.37ZM469.03,43.42v-18.37h18.37v18.37h-18.37ZM469.03,43.42v-18.37h18.37v18.37h-18.37ZM469.03,43.42v-18.37h18.37v18.37h-18.37ZM469.03,43.42v-18.37h18.37v18.37h-18.37ZM469.03,68.47v-18.37h18.37v18.37h-18.37ZM469.03,68.47v-18.37h18.37v18.37h-18.37ZM469.03,68.47v-18.37h18.37v18.37h-18.37ZM469.03,68.47v-18.37h18.37v18.37h-18.37ZM469.03,93.52v-18.37h18.37v18.37h-18.37ZM469.03,93.52v-18.37h18.37v18.37h-18.37ZM469.03,93.52v-18.37h18.37v18.37h-18.37ZM469.03,93.52v-18.37h18.37v18.37h-18.37ZM469.03,118.56v-18.37h18.37v18.37h-18.37ZM469.03,118.56v-18.37h18.37v18.37h-18.37ZM469.03,118.56v-18.37h18.37v18.37h-18.37ZM469.03,118.56v-18.37h18.37v18.37h-18.37ZM469.03,143.61v-18.37h18.37v18.37h-18.37ZM469.03,143.61v-18.37h18.37v18.37h-18.37ZM469.03,143.61v-18.37h18.37v18.37h-18.37ZM469.03,143.61v-18.37h18.37v18.37h-18.37ZM469.03,168.66v-18.37h18.37v18.37h-18.37ZM469.03,168.66v-18.37h18.37v18.37h-18.37ZM469.03,168.66v-18.37h18.37v18.37h-18.37ZM469.03,168.66v-18.37h18.37v18.37h-18.37ZM469.03,193.71v-18.37h18.37v18.37h-18.37ZM469.03,193.71v-18.37h18.37v18.37h-18.37ZM469.03,193.71v-18.37h18.37v18.37h-18.37ZM469.03,193.71v-18.37h18.37v18.37h-18.37ZM469.03,218.76v-18.37h18.37v18.37h-18.37ZM469.03,218.76v-18.37h18.37v18.37h-18.37ZM469.03,218.76v-18.37h18.37v18.37h-18.37ZM469.03,218.76v-18.37h18.37v18.37h-18.37ZM469.03,243.81v-18.37h18.37v18.37h-18.37ZM469.03,243.81v-18.37h18.37v18.37h-18.37ZM469.03,243.81v-18.37h18.37v18.37h-18.37ZM469.03,243.81v-18.37h18.37v18.37h-18.37ZM469.03,268.86v-18.37h18.37v18.37h-18.37ZM469.03,268.86v-18.37h18.37v18.37h-18.37ZM469.03,268.86v-18.37h18.37v18.37h-18.37ZM469.03,268.86v-18.37h18.37v18.37h-18.37ZM494.08,18.37V0h18.37v18.37h-18.37ZM494.08,18.37V0h18.37v18.37h-18.37ZM494.08,18.37V0h18.37v18.37h-18.37ZM494.08,18.37V0h18.37v18.37h-18.37ZM519.13,18.37V0h18.37v18.37h-18.37ZM519.13,18.37V0h18.37v18.37h-18.37ZM519.13,18.37V0h18.37v18.37h-18.37ZM519.13,18.37V0h18.37v18.37h-18.37ZM558.58,18.37V0h18.37v18.37h-18.37ZM558.58,18.37V0h18.37v18.37h-18.37ZM558.58,18.37V0h18.37v18.37h-18.37ZM558.58,18.37V0h18.37v18.37h-18.37ZM558.58,43.42v-18.37h18.37v18.37h-18.37ZM558.58,43.42v-18.37h18.37v18.37h-18.37ZM558.58,43.42v-18.37h18.37v18.37h-18.37ZM558.58,43.42v-18.37h18.37v18.37h-18.37ZM558.58,68.47v-18.37h18.37v18.37h-18.37ZM558.58,68.47v-18.37h18.37v18.37h-18.37ZM558.58,68.47v-18.37h18.37v18.37h-18.37ZM558.58,68.47v-18.37h18.37v18.37h-18.37ZM558.58,93.52v-18.37h18.37v18.37h-18.37ZM558.58,93.52v-18.37h18.37v18.37h-18.37ZM558.58,93.52v-18.37h18.37v18.37h-18.37ZM558.58,93.52v-18.37h18.37v18.37h-18.37ZM558.58,118.56v-18.37h18.37v18.37h-18.37ZM558.58,118.56v-18.37h18.37v18.37h-18.37ZM558.58,118.56v-18.37h18.37v18.37h-18.37ZM558.58,118.56v-18.37h18.37v18.37h-18.37ZM558.58,143.61v-18.37h18.37v18.37h-18.37ZM558.58,143.61v-18.37h18.37v18.37h-18.37ZM558.58,143.61v-18.37h18.37v18.37h-18.37ZM558.58,143.61v-18.37h18.37v18.37h-18.37ZM558.58,168.66v-18.37h18.37v18.37h-18.37ZM558.58,168.66v-18.37h18.37v18.37h-18.37ZM558.58,168.66v-18.37h18.37v18.37h-18.37ZM558.58,168.66v-18.37h18.37v18.37h-18.37ZM558.58,193.71v-18.37h18.37v18.37h-18.37ZM558.58,193.71v-18.37h18.37v18.37h-18.37ZM558.58,193.71v-18.37h18.37v18.37h-18.37ZM558.58,193.71v-18.37h18.37v18.37h-18.37ZM558.58,218.76v-18.37h18.37v18.37h-18.37ZM558.58,218.76v-18.37h18.37v18.37h-18.37ZM558.58,218.76v-18.37h18.37v18.37h-18.37ZM558.58,218.76v-18.37h18.37v18.37h-18.37ZM558.58,243.81v-18.37h18.37v18.37h-18.37ZM558.58,243.81v-18.37h18.37v18.37h-18.37ZM558.58,243.81v-18.37h18.37v18.37h-18.37ZM558.58,243.81v-18.37h18.37v18.37h-18.37ZM558.58,268.86v-18.37h18.37v18.37h-18.37ZM558.58,268.86v-18.37h18.37v18.37h-18.37ZM558.58,268.86v-18.37h18.37v18.37h-18.37ZM558.58,268.86v-18.37h18.37v18.37h-18.37ZM583.63,143.61v-18.37h18.37v18.37h-18.37ZM583.63,143.61v-18.37h18.37v18.37h-18.37ZM583.63,143.61v-18.37h18.37v18.37h-18.37ZM583.63,143.61v-18.37h18.37v18.37h-18.37ZM608.68,143.61v-18.37h18.37v18.37h-18.37ZM608.68,143.61v-18.37h18.37v18.37h-18.37ZM608.68,143.61v-18.37h18.37v18.37h-18.37ZM608.68,143.61v-18.37h18.37v18.37h-18.37ZM633.73,143.61v-18.37h18.37v18.37h-18.37ZM633.73,143.61v-18.37h18.37v18.37h-18.37ZM633.73,143.61v-18.37h18.37v18.37h-18.37ZM633.73,143.61v-18.37h18.37v18.37h-18.37ZM658.77,18.37V0h18.37v18.37h-18.37ZM658.77,18.37V0h18.37v18.37h-18.37ZM658.77,18.37V0h18.37v18.37h-18.37ZM658.77,18.37V0h18.37v18.37h-18.37ZM658.77,43.42v-18.37h18.37v18.37h-18.37ZM658.77,43.42v-18.37h18.37v18.37h-18.37ZM658.77,43.42v-18.37h18.37v18.37h-18.37ZM658.77,43.42v-18.37h18.37v18.37h-18.37ZM658.77,68.47v-18.37h18.37v18.37h-18.37ZM658.77,68.47v-18.37h18.37v18.37h-18.37ZM658.77,68.47v-18.37h18.37v18.37h-18.37ZM658.77,68.47v-18.37h18.37v18.37h-18.37ZM658.77,93.52v-18.37h18.37v18.37h-18.37ZM658.77,93.52v-18.37h18.37v18.37h-18.37ZM658.77,93.52v-18.37h18.37v18.37h-18.37ZM658.77,93.52v-18.37h18.37v18.37h-18.37ZM658.77,118.56v-18.37h18.37v18.37h-18.37ZM658.77,118.56v-18.37h18.37v18.37h-18.37ZM658.77,118.56v-18.37h18.37v18.37h-18.37ZM658.77,118.56v-18.37h18.37v18.37h-18.37ZM658.77,143.61v-18.37h18.37v18.37h-18.37ZM658.77,143.61v-18.37h18.37v18.37h-18.37ZM658.77,143.61v-18.37h18.37v18.37h-18.37ZM658.77,143.61v-18.37h18.37v18.37h-18.37ZM658.77,168.66v-18.37h18.37v18.37h-18.37ZM658.77,168.66v-18.37h18.37v18.37h-18.37ZM658.77,168.66v-18.37h18.37v18.37h-18.37ZM658.77,168.66v-18.37h18.37v18.37h-18.37ZM658.77,193.71v-18.37h18.37v18.37h-18.37ZM658.77,193.71v-18.37h18.37v18.37h-18.37ZM658.77,193.71v-18.37h18.37v18.37h-18.37ZM658.77,193.71v-18.37h18.37v18.37h-18.37ZM658.77,218.76v-18.37h18.37v18.37h-18.37ZM658.77,218.76v-18.37h18.37v18.37h-18.37ZM658.77,218.76v-18.37h18.37v18.37h-18.37ZM658.77,218.76v-18.37h18.37v18.37h-18.37ZM658.77,243.81v-18.37h18.37v18.37h-18.37ZM658.77,243.81v-18.37h18.37v18.37h-18.37ZM658.77,243.81v-18.37h18.37v18.37h-18.37ZM658.77,243.81v-18.37h18.37v18.37h-18.37ZM658.77,268.86v-18.37h18.37v18.37h-18.37ZM658.77,268.86v-18.37h18.37v18.37h-18.37ZM658.77,268.86v-18.37h18.37v18.37h-18.37ZM658.77,268.86v-18.37h18.37v18.37h-18.37ZM723.27,18.37V0h18.37v18.37h-18.37ZM723.27,18.37V0h18.37v18.37h-18.37ZM723.27,18.37V0h18.37v18.37h-18.37ZM723.27,18.37V0h18.37v18.37h-18.37ZM723.27,43.42v-18.37h18.37v18.37h-18.37ZM723.27,43.42v-18.37h18.37v18.37h-18.37ZM723.27,43.42v-18.37h18.37v18.37h-18.37ZM723.27,43.42v-18.37h18.37v18.37h-18.37ZM723.27,68.47v-18.37h18.37v18.37h-18.37ZM723.27,68.47v-18.37h18.37v18.37h-18.37ZM723.27,68.47v-18.37h18.37v18.37h-18.37ZM723.27,68.47v-18.37h18.37v18.37h-18.37ZM723.27,93.52v-18.37h18.37v18.37h-18.37ZM723.27,93.52v-18.37h18.37v18.37h-18.37ZM723.27,93.52v-18.37h18.37v18.37h-18.37ZM723.27,93.52v-18.37h18.37v18.37h-18.37ZM723.27,118.56v-18.37h18.37v18.37h-18.37ZM723.27,118.56v-18.37h18.37v18.37h-18.37ZM723.27,118.56v-18.37h18.37v18.37h-18.37ZM723.27,118.56v-18.37h18.37v18.37h-18.37ZM723.27,143.61v-18.37h18.37v18.37h-18.37ZM723.27,143.61v-18.37h18.37v18.37h-18.37ZM723.27,143.61v-18.37h18.37v18.37h-18.37ZM723.27,143.61v-18.37h18.37v18.37h-18.37ZM723.27,168.66v-18.37h18.37v18.37h-18.37ZM723.27,168.66v-18.37h18.37v18.37h-18.37ZM723.27,168.66v-18.37h18.37v18.37h-18.37ZM723.27,168.66v-18.37h18.37v18.37h-18.37ZM723.27,193.71v-18.37h18.37v18.37h-18.37ZM723.27,193.71v-18.37h18.37v18.37h-18.37ZM723.27,193.71v-18.37h18.37v18.37h-18.37ZM723.27,193.71v-18.37h18.37v18.37h-18.37ZM723.27,218.76v-18.37h18.37v18.37h-18.37ZM723.27,218.76v-18.37h18.37v18.37h-18.37ZM723.27,218.76v-18.37h18.37v18.37h-18.37ZM723.27,218.76v-18.37h18.37v18.37h-18.37ZM723.27,243.81v-18.37h18.37v18.37h-18.37ZM723.27,243.81v-18.37h18.37v18.37h-18.37ZM723.27,243.81v-18.37h18.37v18.37h-18.37ZM723.27,243.81v-18.37h18.37v18.37h-18.37ZM723.27,268.86v-18.37h18.37v18.37h-18.37ZM723.27,268.86v-18.37h18.37v18.37h-18.37ZM723.27,268.86v-18.37h18.37v18.37h-18.37ZM723.27,268.86v-18.37h18.37v18.37h-18.37ZM748.32,18.37V0h18.37v18.37h-18.37ZM748.32,18.37V0h18.37v18.37h-18.37ZM748.32,18.37V0h18.37v18.37h-18.37ZM748.32,18.37V0h18.37v18.37h-18.37ZM748.32,143.61v-18.37h18.37v18.37h-18.37ZM748.32,143.61v-18.37h18.37v18.37h-18.37ZM748.32,143.61v-18.37h18.37v18.37h-18.37ZM748.32,143.61v-18.37h18.37v18.37h-18.37ZM748.32,268.86v-18.37h18.37v18.37h-18.37ZM748.32,268.86v-18.37h18.37v18.37h-18.37ZM748.32,268.86v-18.37h18.37v18.37h-18.37ZM748.32,268.86v-18.37h18.37v18.37h-18.37ZM773.37,18.37V0h18.37v18.37h-18.37ZM773.37,18.37V0h18.37v18.37h-18.37ZM773.37,18.37V0h18.37v18.37h-18.37ZM773.37,18.37V0h18.37v18.37h-18.37ZM773.37,143.61v-18.37h18.37v18.37h-18.37ZM773.37,143.61v-18.37h18.37v18.37h-18.37ZM773.37,143.61v-18.37h18.37v18.37h-18.37ZM773.37,143.61v-18.37h18.37v18.37h-18.37ZM773.37,268.86v-18.37h18.37v18.37h-18.37ZM773.37,268.86v-18.37h18.37v18.37h-18.37ZM773.37,268.86v-18.37h18.37v18.37h-18.37ZM773.37,268.86v-18.37h18.37v18.37h-18.37ZM798.42,18.37V0h18.37v18.37h-18.37ZM798.42,18.37V0h18.37v18.37h-18.37ZM798.42,18.37V0h18.37v18.37h-18.37ZM798.42,18.37V0h18.37v18.37h-18.37ZM798.42,143.61v-18.37h18.37v18.37h-18.37ZM798.42,143.61v-18.37h18.37v18.37h-18.37ZM798.42,143.61v-18.37h18.37v18.37h-18.37ZM798.42,143.61v-18.37h18.37v18.37h-18.37ZM798.42,268.86v-18.37h18.37v18.37h-18.37ZM798.42,268.86v-18.37h18.37v18.37h-18.37ZM798.42,268.86v-18.37h18.37v18.37h-18.37ZM798.42,268.86v-18.37h18.37v18.37h-18.37ZM12.52,337.74v-18.37h18.37v18.37H12.52ZM12.52,337.74v-18.37h18.37v18.37H12.52ZM12.52,337.74v-18.37h18.37v18.37H12.52ZM12.52,337.74v-18.37h18.37v18.37H12.52ZM12.52,362.79v-18.37h18.37v18.37H12.52ZM12.52,362.79v-18.37h18.37v18.37H12.52ZM12.52,362.79v-18.37h18.37v18.37H12.52ZM12.52,362.79v-18.37h18.37v18.37H12.52ZM12.52,387.84v-18.37h18.37v18.37H12.52ZM12.52,387.84v-18.37h18.37v18.37H12.52ZM12.52,387.84v-18.37h18.37v18.37H12.52ZM12.52,387.84v-18.37h18.37v18.37H12.52ZM12.52,412.89v-18.37h18.37v18.37H12.52ZM12.52,412.89v-18.37h18.37v18.37H12.52ZM12.52,412.89v-18.37h18.37v18.37H12.52ZM12.52,412.89v-18.37h18.37v18.37H12.52ZM12.52,437.94v-18.37h18.37v18.37H12.52ZM12.52,437.94v-18.37h18.37v18.37H12.52ZM12.52,437.94v-18.37h18.37v18.37H12.52ZM12.52,437.94v-18.37h18.37v18.37H12.52ZM12.52,462.99v-18.37h18.37v18.37H12.52ZM12.52,462.99v-18.37h18.37v18.37H12.52ZM12.52,462.99v-18.37h18.37v18.37H12.52ZM12.52,462.99v-18.37h18.37v18.37H12.52ZM12.52,488.04v-18.37h18.37v18.37H12.52ZM12.52,488.04v-18.37h18.37v18.37H12.52ZM12.52,488.04v-18.37h18.37v18.37H12.52ZM12.52,488.04v-18.37h18.37v18.37H12.52ZM12.52,513.09v-18.37h18.37v18.37H12.52ZM12.52,513.09v-18.37h18.37v18.37H12.52ZM12.52,513.09v-18.37h18.37v18.37H12.52ZM12.52,513.09v-18.37h18.37v18.37H12.52ZM12.52,538.13v-18.37h18.37v18.37H12.52ZM12.52,538.13v-18.37h18.37v18.37H12.52ZM12.52,538.13v-18.37h18.37v18.37H12.52ZM12.52,538.13v-18.37h18.37v18.37H12.52ZM12.52,563.18v-18.37h18.37v18.37H12.52ZM12.52,563.18v-18.37h18.37v18.37H12.52ZM12.52,563.18v-18.37h18.37v18.37H12.52ZM12.52,563.18v-18.37h18.37v18.37H12.52ZM12.52,588.23v-18.37h18.37v18.37H12.52ZM12.52,588.23v-18.37h18.37v18.37H12.52ZM12.52,588.23v-18.37h18.37v18.37H12.52ZM12.52,588.23v-18.37h18.37v18.37H12.52ZM37.57,337.74v-18.37h18.37v18.37h-18.37ZM37.57,337.74v-18.37h18.37v18.37h-18.37ZM37.57,337.74v-18.37h18.37v18.37h-18.37ZM37.57,337.74v-18.37h18.37v18.37h-18.37ZM37.57,488.04v-18.37h18.37v18.37h-18.37ZM37.57,488.04v-18.37h18.37v18.37h-18.37ZM37.57,488.04v-18.37h18.37v18.37h-18.37ZM37.57,488.04v-18.37h18.37v18.37h-18.37ZM62.62,337.74v-18.37h18.37v18.37h-18.37ZM62.62,337.74v-18.37h18.37v18.37h-18.37ZM62.62,337.74v-18.37h18.37v18.37h-18.37ZM62.62,337.74v-18.37h18.37v18.37h-18.37ZM62.62,488.04v-18.37h18.37v18.37h-18.37ZM62.62,488.04v-18.37h18.37v18.37h-18.37ZM62.62,488.04v-18.37h18.37v18.37h-18.37ZM62.62,488.04v-18.37h18.37v18.37h-18.37ZM87.67,337.74v-18.37h18.37v18.37h-18.37ZM87.67,337.74v-18.37h18.37v18.37h-18.37ZM87.67,337.74v-18.37h18.37v18.37h-18.37ZM87.67,337.74v-18.37h18.37v18.37h-18.37ZM87.67,488.04v-18.37h18.37v18.37h-18.37ZM87.67,488.04v-18.37h18.37v18.37h-18.37ZM87.67,488.04v-18.37h18.37v18.37h-18.37ZM87.67,488.04v-18.37h18.37v18.37h-18.37ZM112.72,362.79v-18.37h18.37v18.37h-18.37ZM112.72,362.79v-18.37h18.37v18.37h-18.37ZM112.72,362.79v-18.37h18.37v18.37h-18.37ZM112.72,362.79v-18.37h18.37v18.37h-18.37ZM112.72,387.84v-18.37h18.37v18.37h-18.37ZM112.72,387.84v-18.37h18.37v18.37h-18.37ZM112.72,387.84v-18.37h18.37v18.37h-18.37ZM112.72,387.84v-18.37h18.37v18.37h-18.37ZM112.72,412.89v-18.37h18.37v18.37h-18.37ZM112.72,412.89v-18.37h18.37v18.37h-18.37ZM112.72,412.89v-18.37h18.37v18.37h-18.37ZM112.72,412.89v-18.37h18.37v18.37h-18.37ZM112.72,437.94v-18.37h18.37v18.37h-18.37ZM112.72,437.94v-18.37h18.37v18.37h-18.37ZM112.72,437.94v-18.37h18.37v18.37h-18.37ZM112.72,437.94v-18.37h18.37v18.37h-18.37ZM112.72,462.99v-18.37h18.37v18.37h-18.37ZM112.72,462.99v-18.37h18.37v18.37h-18.37ZM112.72,462.99v-18.37h18.37v18.37h-18.37ZM112.72,462.99v-18.37h18.37v18.37h-18.37ZM164.69,337.74v-18.37h18.37v18.37h-18.37ZM164.69,337.74v-18.37h18.37v18.37h-18.37ZM164.69,337.74v-18.37h18.37v18.37h-18.37ZM164.69,337.74v-18.37h18.37v18.37h-18.37ZM164.69,362.79v-18.37h18.37v18.37h-18.37ZM164.69,362.79v-18.37h18.37v18.37h-18.37ZM164.69,362.79v-18.37h18.37v18.37h-18.37ZM164.69,362.79v-18.37h18.37v18.37h-18.37ZM164.69,387.84v-18.37h18.37v18.37h-18.37ZM164.69,387.84v-18.37h18.37v18.37h-18.37ZM164.69,387.84v-18.37h18.37v18.37h-18.37ZM164.69,387.84v-18.37h18.37v18.37h-18.37ZM164.69,412.89v-18.37h18.37v18.37h-18.37ZM164.69,412.89v-18.37h18.37v18.37h-18.37ZM164.69,412.89v-18.37h18.37v18.37h-18.37ZM164.69,412.89v-18.37h18.37v18.37h-18.37ZM164.69,437.94v-18.37h18.37v18.37h-18.37ZM164.69,437.94v-18.37h18.37v18.37h-18.37ZM164.69,437.94v-18.37h18.37v18.37h-18.37ZM164.69,437.94v-18.37h18.37v18.37h-18.37ZM164.69,462.99v-18.37h18.37v18.37h-18.37ZM164.69,462.99v-18.37h18.37v18.37h-18.37ZM164.69,462.99v-18.37h18.37v18.37h-18.37ZM164.69,462.99v-18.37h18.37v18.37h-18.37ZM164.69,488.04v-18.37h18.37v18.37h-18.37ZM164.69,488.04v-18.37h18.37v18.37h-18.37ZM164.69,488.04v-18.37h18.37v18.37h-18.37ZM164.69,488.04v-18.37h18.37v18.37h-18.37ZM164.69,513.09v-18.37h18.37v18.37h-18.37ZM164.69,513.09v-18.37h18.37v18.37h-18.37ZM164.69,513.09v-18.37h18.37v18.37h-18.37ZM164.69,513.09v-18.37h18.37v18.37h-18.37ZM164.69,538.13v-18.37h18.37v18.37h-18.37ZM164.69,538.13v-18.37h18.37v18.37h-18.37ZM164.69,538.13v-18.37h18.37v18.37h-18.37ZM164.69,538.13v-18.37h18.37v18.37h-18.37ZM164.69,563.18v-18.37h18.37v18.37h-18.37ZM164.69,563.18v-18.37h18.37v18.37h-18.37ZM164.69,563.18v-18.37h18.37v18.37h-18.37ZM164.69,563.18v-18.37h18.37v18.37h-18.37ZM164.69,588.23v-18.37h18.37v18.37h-18.37ZM164.69,588.23v-18.37h18.37v18.37h-18.37ZM164.69,588.23v-18.37h18.37v18.37h-18.37ZM164.69,588.23v-18.37h18.37v18.37h-18.37ZM189.74,337.74v-18.37h18.37v18.37h-18.37ZM189.74,337.74v-18.37h18.37v18.37h-18.37ZM189.74,337.74v-18.37h18.37v18.37h-18.37ZM189.74,337.74v-18.37h18.37v18.37h-18.37ZM189.74,462.99v-18.37h18.37v18.37h-18.37ZM189.74,462.99v-18.37h18.37v18.37h-18.37ZM189.74,462.99v-18.37h18.37v18.37h-18.37ZM189.74,462.99v-18.37h18.37v18.37h-18.37ZM189.74,588.23v-18.37h18.37v18.37h-18.37ZM189.74,588.23v-18.37h18.37v18.37h-18.37ZM189.74,588.23v-18.37h18.37v18.37h-18.37ZM189.74,588.23v-18.37h18.37v18.37h-18.37ZM214.79,337.74v-18.37h18.37v18.37h-18.37ZM214.79,337.74v-18.37h18.37v18.37h-18.37ZM214.79,337.74v-18.37h18.37v18.37h-18.37ZM214.79,337.74v-18.37h18.37v18.37h-18.37ZM214.79,462.99v-18.37h18.37v18.37h-18.37ZM214.79,462.99v-18.37h18.37v18.37h-18.37ZM214.79,462.99v-18.37h18.37v18.37h-18.37ZM214.79,462.99v-18.37h18.37v18.37h-18.37ZM214.79,588.23v-18.37h18.37v18.37h-18.37ZM214.79,588.23v-18.37h18.37v18.37h-18.37ZM214.79,588.23v-18.37h18.37v18.37h-18.37ZM214.79,588.23v-18.37h18.37v18.37h-18.37ZM239.84,337.74v-18.37h18.37v18.37h-18.37ZM239.84,337.74v-18.37h18.37v18.37h-18.37ZM239.84,337.74v-18.37h18.37v18.37h-18.37ZM239.84,337.74v-18.37h18.37v18.37h-18.37ZM239.84,462.99v-18.37h18.37v18.37h-18.37ZM239.84,462.99v-18.37h18.37v18.37h-18.37ZM239.84,462.99v-18.37h18.37v18.37h-18.37ZM239.84,462.99v-18.37h18.37v18.37h-18.37ZM239.84,588.23v-18.37h18.37v18.37h-18.37ZM239.84,588.23v-18.37h18.37v18.37h-18.37ZM239.84,588.23v-18.37h18.37v18.37h-18.37ZM239.84,588.23v-18.37h18.37v18.37h-18.37ZM291.81,362.79v-18.37h18.37v18.37h-18.37ZM291.81,362.79v-18.37h18.37v18.37h-18.37ZM291.81,362.79v-18.37h18.37v18.37h-18.37ZM291.81,362.79v-18.37h18.37v18.37h-18.37ZM291.81,387.84v-18.37h18.37v18.37h-18.37ZM291.81,387.84v-18.37h18.37v18.37h-18.37ZM291.81,387.84v-18.37h18.37v18.37h-18.37ZM291.81,387.84v-18.37h18.37v18.37h-18.37ZM291.81,412.89v-18.37h18.37v18.37h-18.37ZM291.81,412.89v-18.37h18.37v18.37h-18.37ZM291.81,412.89v-18.37h18.37v18.37h-18.37ZM291.81,412.89v-18.37h18.37v18.37h-18.37ZM291.81,437.94v-18.37h18.37v18.37h-18.37ZM291.81,437.94v-18.37h18.37v18.37h-18.37ZM291.81,437.94v-18.37h18.37v18.37h-18.37ZM291.81,437.94v-18.37h18.37v18.37h-18.37ZM291.81,462.99v-18.37h18.37v18.37h-18.37ZM291.81,462.99v-18.37h18.37v18.37h-18.37ZM291.81,462.99v-18.37h18.37v18.37h-18.37ZM291.81,462.99v-18.37h18.37v18.37h-18.37ZM291.81,488.04v-18.37h18.37v18.37h-18.37ZM291.81,488.04v-18.37h18.37v18.37h-18.37ZM291.81,488.04v-18.37h18.37v18.37h-18.37ZM291.81,488.04v-18.37h18.37v18.37h-18.37ZM291.81,513.09v-18.37h18.37v18.37h-18.37ZM291.81,513.09v-18.37h18.37v18.37h-18.37ZM291.81,513.09v-18.37h18.37v18.37h-18.37ZM291.81,513.09v-18.37h18.37v18.37h-18.37ZM291.81,538.13v-18.37h18.37v18.37h-18.37ZM291.81,538.13v-18.37h18.37v18.37h-18.37ZM291.81,538.13v-18.37h18.37v18.37h-18.37ZM291.81,538.13v-18.37h18.37v18.37h-18.37ZM291.81,563.18v-18.37h18.37v18.37h-18.37ZM291.81,563.18v-18.37h18.37v18.37h-18.37ZM291.81,563.18v-18.37h18.37v18.37h-18.37ZM291.81,563.18v-18.37h18.37v18.37h-18.37ZM316.86,337.74v-18.37h18.37v18.37h-18.37ZM316.86,337.74v-18.37h18.37v18.37h-18.37ZM316.86,337.74v-18.37h18.37v18.37h-18.37ZM316.86,337.74v-18.37h18.37v18.37h-18.37ZM316.86,588.23v-18.37h18.37v18.37h-18.37ZM316.86,588.23v-18.37h18.37v18.37h-18.37ZM316.86,588.23v-18.37h18.37v18.37h-18.37ZM316.86,588.23v-18.37h18.37v18.37h-18.37ZM341.91,337.74v-18.37h18.37v18.37h-18.37ZM341.91,337.74v-18.37h18.37v18.37h-18.37ZM341.91,337.74v-18.37h18.37v18.37h-18.37ZM341.91,337.74v-18.37h18.37v18.37h-18.37ZM341.91,588.23v-18.37h18.37v18.37h-18.37ZM341.91,588.23v-18.37h18.37v18.37h-18.37ZM341.91,588.23v-18.37h18.37v18.37h-18.37ZM341.91,588.23v-18.37h18.37v18.37h-18.37ZM366.96,337.74v-18.37h18.37v18.37h-18.37ZM366.96,337.74v-18.37h18.37v18.37h-18.37ZM366.96,337.74v-18.37h18.37v18.37h-18.37ZM366.96,337.74v-18.37h18.37v18.37h-18.37ZM366.96,588.23v-18.37h18.37v18.37h-18.37ZM366.96,588.23v-18.37h18.37v18.37h-18.37ZM366.96,588.23v-18.37h18.37v18.37h-18.37ZM366.96,588.23v-18.37h18.37v18.37h-18.37ZM392,362.79v-18.37h18.37v18.37h-18.37ZM392,362.79v-18.37h18.37v18.37h-18.37ZM392,362.79v-18.37h18.37v18.37h-18.37ZM392,362.79v-18.37h18.37v18.37h-18.37ZM392,387.84v-18.37h18.37v18.37h-18.37ZM392,387.84v-18.37h18.37v18.37h-18.37ZM392,387.84v-18.37h18.37v18.37h-18.37ZM392,387.84v-18.37h18.37v18.37h-18.37ZM392,412.89v-18.37h18.37v18.37h-18.37ZM392,412.89v-18.37h18.37v18.37h-18.37ZM392,412.89v-18.37h18.37v18.37h-18.37ZM392,412.89v-18.37h18.37v18.37h-18.37ZM392,437.94v-18.37h18.37v18.37h-18.37ZM392,437.94v-18.37h18.37v18.37h-18.37ZM392,437.94v-18.37h18.37v18.37h-18.37ZM392,437.94v-18.37h18.37v18.37h-18.37ZM392,462.99v-18.37h18.37v18.37h-18.37ZM392,462.99v-18.37h18.37v18.37h-18.37ZM392,462.99v-18.37h18.37v18.37h-18.37ZM392,462.99v-18.37h18.37v18.37h-18.37ZM392,488.04v-18.37h18.37v18.37h-18.37ZM392,488.04v-18.37h18.37v18.37h-18.37ZM392,488.04v-18.37h18.37v18.37h-18.37ZM392,488.04v-18.37h18.37v18.37h-18.37ZM392,513.09v-18.37h18.37v18.37h-18.37ZM392,513.09v-18.37h18.37v18.37h-18.37ZM392,513.09v-18.37h18.37v18.37h-18.37ZM392,513.09v-18.37h18.37v18.37h-18.37ZM392,538.13v-18.37h18.37v18.37h-18.37ZM392,538.13v-18.37h18.37v18.37h-18.37ZM392,538.13v-18.37h18.37v18.37h-18.37ZM392,538.13v-18.37h18.37v18.37h-18.37ZM392,563.18v-18.37h18.37v18.37h-18.37ZM392,563.18v-18.37h18.37v18.37h-18.37ZM392,563.18v-18.37h18.37v18.37h-18.37ZM392,563.18v-18.37h18.37v18.37h-18.37ZM456.5,337.74v-18.37h18.37v18.37h-18.37ZM456.5,337.74v-18.37h18.37v18.37h-18.37ZM456.5,337.74v-18.37h18.37v18.37h-18.37ZM456.5,337.74v-18.37h18.37v18.37h-18.37ZM456.5,362.79v-18.37h18.37v18.37h-18.37ZM456.5,362.79v-18.37h18.37v18.37h-18.37ZM456.5,362.79v-18.37h18.37v18.37h-18.37ZM456.5,362.79v-18.37h18.37v18.37h-18.37ZM456.5,387.84v-18.37h18.37v18.37h-18.37ZM456.5,387.84v-18.37h18.37v18.37h-18.37ZM456.5,387.84v-18.37h18.37v18.37h-18.37ZM456.5,387.84v-18.37h18.37v18.37h-18.37ZM456.5,412.89v-18.37h18.37v18.37h-18.37ZM456.5,412.89v-18.37h18.37v18.37h-18.37ZM456.5,412.89v-18.37h18.37v18.37h-18.37ZM456.5,412.89v-18.37h18.37v18.37h-18.37ZM456.5,437.94v-18.37h18.37v18.37h-18.37ZM456.5,437.94v-18.37h18.37v18.37h-18.37ZM456.5,437.94v-18.37h18.37v18.37h-18.37ZM456.5,437.94v-18.37h18.37v18.37h-18.37ZM456.5,462.99v-18.37h18.37v18.37h-18.37ZM456.5,462.99v-18.37h18.37v18.37h-18.37ZM456.5,462.99v-18.37h18.37v18.37h-18.37ZM456.5,462.99v-18.37h18.37v18.37h-18.37ZM456.5,488.04v-18.37h18.37v18.37h-18.37ZM456.5,488.04v-18.37h18.37v18.37h-18.37ZM456.5,488.04v-18.37h18.37v18.37h-18.37ZM456.5,488.04v-18.37h18.37v18.37h-18.37ZM456.5,513.09v-18.37h18.37v18.37h-18.37ZM456.5,513.09v-18.37h18.37v18.37h-18.37ZM456.5,513.09v-18.37h18.37v18.37h-18.37ZM456.5,513.09v-18.37h18.37v18.37h-18.37ZM456.5,538.13v-18.37h18.37v18.37h-18.37ZM456.5,538.13v-18.37h18.37v18.37h-18.37ZM456.5,538.13v-18.37h18.37v18.37h-18.37ZM456.5,538.13v-18.37h18.37v18.37h-18.37ZM456.5,563.18v-18.37h18.37v18.37h-18.37ZM456.5,563.18v-18.37h18.37v18.37h-18.37ZM456.5,563.18v-18.37h18.37v18.37h-18.37ZM456.5,563.18v-18.37h18.37v18.37h-18.37ZM456.5,588.23v-18.37h18.37v18.37h-18.37ZM456.5,588.23v-18.37h18.37v18.37h-18.37ZM456.5,588.23v-18.37h18.37v18.37h-18.37ZM456.5,588.23v-18.37h18.37v18.37h-18.37ZM481.55,337.74v-18.37h18.37v18.37h-18.37ZM481.55,337.74v-18.37h18.37v18.37h-18.37ZM481.55,337.74v-18.37h18.37v18.37h-18.37ZM481.55,337.74v-18.37h18.37v18.37h-18.37ZM481.55,488.04v-18.37h18.37v18.37h-18.37ZM481.55,488.04v-18.37h18.37v18.37h-18.37ZM481.55,488.04v-18.37h18.37v18.37h-18.37ZM481.55,488.04v-18.37h18.37v18.37h-18.37ZM506.6,337.74v-18.37h18.37v18.37h-18.37ZM506.6,337.74v-18.37h18.37v18.37h-18.37ZM506.6,337.74v-18.37h18.37v18.37h-18.37ZM506.6,337.74v-18.37h18.37v18.37h-18.37ZM506.6,488.04v-18.37h18.37v18.37h-18.37ZM506.6,488.04v-18.37h18.37v18.37h-18.37ZM506.6,488.04v-18.37h18.37v18.37h-18.37ZM506.6,488.04v-18.37h18.37v18.37h-18.37ZM531.65,337.74v-18.37h18.37v18.37h-18.37ZM531.65,337.74v-18.37h18.37v18.37h-18.37ZM531.65,337.74v-18.37h18.37v18.37h-18.37ZM531.65,337.74v-18.37h18.37v18.37h-18.37ZM531.65,488.04v-18.37h18.37v18.37h-18.37ZM531.65,488.04v-18.37h18.37v18.37h-18.37ZM531.65,488.04v-18.37h18.37v18.37h-18.37ZM531.65,488.04v-18.37h18.37v18.37h-18.37ZM556.7,362.79v-18.37h18.37v18.37h-18.37ZM556.7,362.79v-18.37h18.37v18.37h-18.37ZM556.7,362.79v-18.37h18.37v18.37h-18.37ZM556.7,362.79v-18.37h18.37v18.37h-18.37ZM556.7,387.84v-18.37h18.37v18.37h-18.37ZM556.7,387.84v-18.37h18.37v18.37h-18.37ZM556.7,387.84v-18.37h18.37v18.37h-18.37ZM556.7,387.84v-18.37h18.37v18.37h-18.37ZM556.7,412.89v-18.37h18.37v18.37h-18.37ZM556.7,412.89v-18.37h18.37v18.37h-18.37ZM556.7,412.89v-18.37h18.37v18.37h-18.37ZM556.7,412.89v-18.37h18.37v18.37h-18.37ZM556.7,437.94v-18.37h18.37v18.37h-18.37ZM556.7,437.94v-18.37h18.37v18.37h-18.37ZM556.7,437.94v-18.37h18.37v18.37h-18.37ZM556.7,437.94v-18.37h18.37v18.37h-18.37ZM556.7,462.99v-18.37h18.37v18.37h-18.37ZM556.7,462.99v-18.37h18.37v18.37h-18.37ZM556.7,462.99v-18.37h18.37v18.37h-18.37ZM556.7,462.99v-18.37h18.37v18.37h-18.37ZM608.67,337.74v-18.37h18.37v18.37h-18.37ZM608.67,337.74v-18.37h18.37v18.37h-18.37ZM608.67,337.74v-18.37h18.37v18.37h-18.37ZM608.67,337.74v-18.37h18.37v18.37h-18.37ZM608.67,362.79v-18.37h18.37v18.37h-18.37ZM608.67,362.79v-18.37h18.37v18.37h-18.37ZM608.67,362.79v-18.37h18.37v18.37h-18.37ZM608.67,362.79v-18.37h18.37v18.37h-18.37ZM608.67,387.84v-18.37h18.37v18.37h-18.37ZM608.67,387.84v-18.37h18.37v18.37h-18.37ZM608.67,387.84v-18.37h18.37v18.37h-18.37ZM608.67,387.84v-18.37h18.37v18.37h-18.37ZM608.67,412.89v-18.37h18.37v18.37h-18.37ZM608.67,412.89v-18.37h18.37v18.37h-18.37ZM608.67,412.89v-18.37h18.37v18.37h-18.37ZM608.67,412.89v-18.37h18.37v18.37h-18.37ZM608.67,437.94v-18.37h18.37v18.37h-18.37ZM608.67,437.94v-18.37h18.37v18.37h-18.37ZM608.67,437.94v-18.37h18.37v18.37h-18.37ZM608.67,437.94v-18.37h18.37v18.37h-18.37ZM608.67,462.99v-18.37h18.37v18.37h-18.37ZM608.67,462.99v-18.37h18.37v18.37h-18.37ZM608.67,462.99v-18.37h18.37v18.37h-18.37ZM608.67,462.99v-18.37h18.37v18.37h-18.37ZM608.67,488.04v-18.37h18.37v18.37h-18.37ZM608.67,488.04v-18.37h18.37v18.37h-18.37ZM608.67,488.04v-18.37h18.37v18.37h-18.37ZM608.67,488.04v-18.37h18.37v18.37h-18.37ZM608.67,513.09v-18.37h18.37v18.37h-18.37ZM608.67,513.09v-18.37h18.37v18.37h-18.37ZM608.67,513.09v-18.37h18.37v18.37h-18.37ZM608.67,513.09v-18.37h18.37v18.37h-18.37ZM608.67,538.13v-18.37h18.37v18.37h-18.37ZM608.67,538.13v-18.37h18.37v18.37h-18.37ZM608.67,538.13v-18.37h18.37v18.37h-18.37ZM608.67,538.13v-18.37h18.37v18.37h-18.37ZM608.67,563.18v-18.37h18.37v18.37h-18.37ZM608.67,563.18v-18.37h18.37v18.37h-18.37ZM608.67,563.18v-18.37h18.37v18.37h-18.37ZM608.67,563.18v-18.37h18.37v18.37h-18.37ZM608.67,588.23v-18.37h18.37v18.37h-18.37ZM608.67,588.23v-18.37h18.37v18.37h-18.37ZM608.67,588.23v-18.37h18.37v18.37h-18.37ZM608.67,588.23v-18.37h18.37v18.37h-18.37ZM633.72,588.23v-18.37h18.37v18.37h-18.37ZM633.72,588.23v-18.37h18.37v18.37h-18.37ZM633.72,588.23v-18.37h18.37v18.37h-18.37ZM633.72,588.23v-18.37h18.37v18.37h-18.37ZM658.77,588.23v-18.37h18.37v18.37h-18.37ZM658.77,588.23v-18.37h18.37v18.37h-18.37ZM658.77,588.23v-18.37h18.37v18.37h-18.37ZM658.77,588.23v-18.37h18.37v18.37h-18.37ZM683.82,588.23v-18.37h18.37v18.37h-18.37ZM683.82,588.23v-18.37h18.37v18.37h-18.37ZM683.82,588.23v-18.37h18.37v18.37h-18.37ZM683.82,588.23v-18.37h18.37v18.37h-18.37ZM735.79,337.74v-18.37h18.37v18.37h-18.37ZM735.79,337.74v-18.37h18.37v18.37h-18.37ZM735.79,337.74v-18.37h18.37v18.37h-18.37ZM735.79,337.74v-18.37h18.37v18.37h-18.37ZM735.79,362.79v-18.37h18.37v18.37h-18.37ZM735.79,362.79v-18.37h18.37v18.37h-18.37ZM735.79,362.79v-18.37h18.37v18.37h-18.37ZM735.79,362.79v-18.37h18.37v18.37h-18.37ZM735.79,387.84v-18.37h18.37v18.37h-18.37ZM735.79,387.84v-18.37h18.37v18.37h-18.37ZM735.79,387.84v-18.37h18.37v18.37h-18.37ZM735.79,387.84v-18.37h18.37v18.37h-18.37ZM735.79,412.89v-18.37h18.37v18.37h-18.37ZM735.79,412.89v-18.37h18.37v18.37h-18.37ZM735.79,412.89v-18.37h18.37v18.37h-18.37ZM735.79,412.89v-18.37h18.37v18.37h-18.37ZM735.79,437.94v-18.37h18.37v18.37h-18.37ZM735.79,437.94v-18.37h18.37v18.37h-18.37ZM735.79,437.94v-18.37h18.37v18.37h-18.37ZM735.79,437.94v-18.37h18.37v18.37h-18.37ZM735.79,462.99v-18.37h18.37v18.37h-18.37ZM735.79,462.99v-18.37h18.37v18.37h-18.37ZM735.79,462.99v-18.37h18.37v18.37h-18.37ZM735.79,462.99v-18.37h18.37v18.37h-18.37ZM735.79,488.04v-18.37h18.37v18.37h-18.37ZM735.79,488.04v-18.37h18.37v18.37h-18.37ZM735.79,488.04v-18.37h18.37v18.37h-18.37ZM735.79,488.04v-18.37h18.37v18.37h-18.37ZM735.79,513.09v-18.37h18.37v18.37h-18.37ZM735.79,513.09v-18.37h18.37v18.37h-18.37ZM735.79,513.09v-18.37h18.37v18.37h-18.37ZM735.79,513.09v-18.37h18.37v18.37h-18.37ZM735.79,538.13v-18.37h18.37v18.37h-18.37ZM735.79,538.13v-18.37h18.37v18.37h-18.37ZM735.79,538.13v-18.37h18.37v18.37h-18.37ZM735.79,538.13v-18.37h18.37v18.37h-18.37ZM735.79,563.18v-18.37h18.37v18.37h-18.37ZM735.79,563.18v-18.37h18.37v18.37h-18.37ZM735.79,563.18v-18.37h18.37v18.37h-18.37ZM735.79,563.18v-18.37h18.37v18.37h-18.37ZM735.79,588.23v-18.37h18.37v18.37h-18.37ZM735.79,588.23v-18.37h18.37v18.37h-18.37ZM735.79,588.23v-18.37h18.37v18.37h-18.37ZM735.79,588.23v-18.37h18.37v18.37h-18.37ZM760.84,337.74v-18.37h18.37v18.37h-18.37ZM760.84,337.74v-18.37h18.37v18.37h-18.37ZM760.84,337.74v-18.37h18.37v18.37h-18.37ZM760.84,337.74v-18.37h18.37v18.37h-18.37ZM760.84,462.99v-18.37h18.37v18.37h-18.37ZM760.84,462.99v-18.37h18.37v18.37h-18.37ZM760.84,462.99v-18.37h18.37v18.37h-18.37ZM760.84,462.99v-18.37h18.37v18.37h-18.37ZM760.84,588.23v-18.37h18.37v18.37h-18.37ZM760.84,588.23v-18.37h18.37v18.37h-18.37ZM760.84,588.23v-18.37h18.37v18.37h-18.37ZM760.84,588.23v-18.37h18.37v18.37h-18.37ZM785.89,337.74v-18.37h18.37v18.37h-18.37ZM785.89,337.74v-18.37h18.37v18.37h-18.37ZM785.89,337.74v-18.37h18.37v18.37h-18.37ZM785.89,337.74v-18.37h18.37v18.37h-18.37ZM785.89,462.99v-18.37h18.37v18.37h-18.37ZM785.89,462.99v-18.37h18.37v18.37h-18.37ZM785.89,462.99v-18.37h18.37v18.37h-18.37ZM785.89,462.99v-18.37h18.37v18.37h-18.37ZM785.89,588.23v-18.37h18.37v18.37h-18.37ZM785.89,588.23v-18.37h18.37v18.37h-18.37ZM785.89,588.23v-18.37h18.37v18.37h-18.37ZM785.89,588.23v-18.37h18.37v18.37h-18.37ZM810.93,337.74v-18.37h18.37v18.37h-18.37ZM810.93,337.74v-18.37h18.37v18.37h-18.37ZM810.93,337.74v-18.37h18.37v18.37h-18.37ZM810.93,337.74v-18.37h18.37v18.37h-18.37ZM810.93,462.99v-18.37h18.37v18.37h-18.37ZM810.93,462.99v-18.37h18.37v18.37h-18.37ZM810.93,462.99v-18.37h18.37v18.37h-18.37ZM810.93,462.99v-18.37h18.37v18.37h-18.37ZM810.93,588.23v-18.37h18.37v18.37h-18.37ZM810.93,588.23v-18.37h18.37v18.37h-18.37ZM810.93,588.23v-18.37h18.37v18.37h-18.37ZM810.93,588.23v-18.37h18.37v18.37h-18.37Z"/></g></svg>