<svg width="550" height="145" viewBox="0 0 550 145" fill="none" xmlns="http://www.w3.org/2000/svg">
<g clip-path="url(#clip0_142_243)">
<path d="M397.463 0H470.27V54.1894C470.27 80.3862 464.079 100.804 451.682 115.443C439.292 130.082 420.537 139.716 397.463 144.337V117.622C415.063 112.49 427.803 102.895 433.612 88.863C436.854 81.328 438.137 74.2241 437.452 67.5432H397.463V0Z" fill="#E62B1E"/>
<path d="M477.194 0H550V54.1894C550 80.3862 543.809 100.804 531.42 115.443C519.03 130.082 500.267 139.716 477.201 144.337V117.622C494.81 112.49 507.541 102.895 513.35 88.863C516.592 81.328 517.875 74.2241 517.19 67.5432H477.201V0H477.194Z" fill="#E62B1E"/>
<path d="M151.867 67.5432H111.871C111.186 74.2241 112.468 81.328 115.719 88.863C121.527 102.895 134.259 112.49 151.867 117.622V144.337C128.794 139.716 110.038 130.082 97.6489 115.443C85.2595 100.804 79.0688 80.3862 79.0688 54.1894V0H151.875V67.5432H151.867ZM72.8064 0H0V54.1894C0 80.3862 6.1907 100.804 18.5801 115.443C30.9694 130.082 49.7327 139.716 72.7985 144.337V117.622C55.1904 112.49 42.4585 102.895 36.6502 88.863C33.4075 81.328 32.1247 74.2241 32.8099 67.5432H72.7985V0H72.8064Z" fill="#E62B1E"/>
<path d="M172.646 4.52576V0H177.164V4.52576H172.646ZM172.646 4.52576V0H177.164V4.52576H172.646ZM172.646 4.52576V0H177.164V4.52576H172.646ZM172.646 4.52576V0H177.164V4.52576H172.646ZM172.646 10.7038V6.17802H177.164V10.7038H172.646ZM172.646 10.7038V6.17802H177.164V10.7038H172.646ZM172.646 10.7038V6.17802H177.164V10.7038H172.646ZM172.646 10.7038V6.17802H177.164V10.7038H172.646ZM172.646 16.8738V12.3481H177.164V16.8738H172.646ZM172.646 16.8738V12.3481H177.164V16.8738H172.646ZM172.646 16.8738V12.3481H177.164V16.8738H172.646ZM172.646 16.8738V12.3481H177.164V16.8738H172.646ZM172.646 23.0519V18.5261H177.164V23.0519H172.646ZM172.646 23.0519V18.5261H177.164V23.0519H172.646ZM172.646 23.0519V18.5261H177.164V23.0519H172.646ZM172.646 23.0519V18.5261H177.164V23.0519H172.646ZM172.646 29.2299V24.7041H177.164V29.2299H172.646ZM172.646 29.2299V24.7041H177.164V29.2299H172.646ZM172.646 29.2299V24.7041H177.164V29.2299H172.646ZM172.646 29.2299V24.7041H177.164V29.2299H172.646ZM172.646 35.3999V30.8742H177.164V35.3999H172.646ZM172.646 35.3999V30.8742H177.164V35.3999H172.646ZM172.646 35.3999V30.8742H177.164V35.3999H172.646ZM172.646 35.3999V30.8742H177.164V35.3999H172.646ZM172.646 41.5779V37.0522H177.164V41.5779H172.646ZM172.646 41.5779V37.0522H177.164V41.5779H172.646ZM172.646 41.5779V37.0522H177.164V41.5779H172.646ZM172.646 41.5779V37.0522H177.164V41.5779H172.646ZM175.722 47.756V43.2222H180.239V47.756H175.722ZM175.722 47.756V43.2222H180.239V47.756H175.722ZM175.722 47.756V43.2222H180.239V47.756H175.722ZM175.722 47.756V43.2222H180.239V47.756H175.722ZM178.805 53.926V49.4003H183.323V53.926H178.805ZM178.805 53.926V49.4003H183.323V53.926H178.805ZM178.805 53.926V49.4003H183.323V53.926H178.805ZM178.805 53.926V49.4003H183.323V53.926H178.805ZM181.888 60.0961V55.5703H186.406V60.0961H181.888ZM181.888 60.0961V55.5703H186.406V60.0961H181.888ZM181.888 60.0961V55.5703H186.406V60.0961H181.888ZM181.888 60.0961V55.5703H186.406V60.0961H181.888ZM184.964 66.2741V61.7483H189.481V66.2741H184.964ZM184.964 66.2741V61.7483H189.481V66.2741H184.964ZM184.964 66.2741V61.7483H189.481V66.2741H184.964ZM184.964 66.2741V61.7483H189.481V66.2741H184.964ZM188.047 60.0961V55.5703H192.573V60.0961H188.047ZM188.047 60.0961V55.5703H192.573V60.0961H188.047ZM188.047 60.0961V55.5703H192.573V60.0961H188.047ZM188.047 60.0961V55.5703H192.573V60.0961H188.047ZM191.131 53.926V49.4003H195.648V53.926H191.131ZM191.131 53.926V49.4003H195.648V53.926H191.131ZM191.131 53.926V49.4003H195.648V53.926H191.131ZM191.131 53.926V49.4003H195.648V53.926H191.131ZM194.214 47.756V43.2222H198.732V47.756H194.214ZM194.214 47.756V43.2222H198.732V47.756H194.214ZM194.214 47.756V43.2222H198.732V47.756H194.214ZM194.214 47.756V43.2222H198.732V47.756H194.214ZM197.297 4.52576V0H201.815V4.52576H197.297ZM197.297 4.52576V0H201.815V4.52576H197.297ZM197.297 4.52576V0H201.815V4.52576H197.297ZM197.297 4.52576V0H201.815V4.52576H197.297ZM197.297 10.7038V6.17802H201.815V10.7038H197.297ZM197.297 10.7038V6.17802H201.815V10.7038H197.297ZM197.297 10.7038V6.17802H201.815V10.7038H197.297ZM197.297 10.7038V6.17802H201.815V10.7038H197.297ZM197.297 16.8738V12.3481H201.815V16.8738H197.297ZM197.297 16.8738V12.3481H201.815V16.8738H197.297ZM197.297 16.8738V12.3481H201.815V16.8738H197.297ZM197.297 16.8738V12.3481H201.815V16.8738H197.297ZM197.297 23.0519V18.5261H201.815V23.0519H197.297ZM197.297 23.0519V18.5261H201.815V23.0519H197.297ZM197.297 23.0519V18.5261H201.815V23.0519H197.297ZM197.297 23.0519V18.5261H201.815V23.0519H197.297ZM197.297 29.2299V24.7041H201.815V29.2299H197.297ZM197.297 29.2299V24.7041H201.815V29.2299H197.297ZM197.297 29.2299V24.7041H201.815V29.2299H197.297ZM197.297 29.2299V24.7041H201.815V29.2299H197.297ZM197.297 35.3999V30.8742H201.815V35.3999H197.297ZM197.297 35.3999V30.8742H201.815V35.3999H197.297ZM197.297 35.3999V30.8742H201.815V35.3999H197.297ZM197.297 35.3999V30.8742H201.815V35.3999H197.297ZM197.297 41.5779V37.0522H201.815V41.5779H197.297ZM197.297 41.5779V37.0522H201.815V41.5779H197.297ZM197.297 41.5779V37.0522H201.815V41.5779H197.297ZM197.297 41.5779V37.0522H201.815V41.5779H197.297ZM200.381 47.756V43.2222H204.898V47.756H200.381ZM200.381 47.756V43.2222H204.898V47.756H200.381ZM200.381 47.756V43.2222H204.898V47.756H200.381ZM200.381 47.756V43.2222H204.898V47.756H200.381ZM203.456 53.926V49.4003H207.974V53.926H203.456ZM203.456 53.926V49.4003H207.974V53.926H203.456ZM203.456 53.926V49.4003H207.974V53.926H203.456ZM203.456 53.926V49.4003H207.974V53.926H203.456ZM206.54 60.0961V55.5703H211.057V60.0961H206.54ZM206.54 60.0961V55.5703H211.057V60.0961H206.54ZM206.54 60.0961V55.5703H211.057V60.0961H206.54ZM206.54 60.0961V55.5703H211.057V60.0961H206.54ZM209.623 66.2741V61.7483H214.141V66.2741H209.623ZM209.623 66.2741V61.7483H214.141V66.2741H209.623ZM209.623 66.2741V61.7483H214.141V66.2741H209.623ZM209.623 66.2741V61.7483H214.141V66.2741H209.623ZM212.699 60.0961V55.5703H217.216V60.0961H212.699ZM212.699 60.0961V55.5703H217.216V60.0961H212.699ZM212.699 60.0961V55.5703H217.216V60.0961H212.699ZM212.699 60.0961V55.5703H217.216V60.0961H212.699ZM215.782 53.926V49.4003H220.307V53.926H215.782ZM215.782 53.926V49.4003H220.307V53.926H215.782ZM215.782 53.926V49.4003H220.307V53.926H215.782ZM215.782 53.926V49.4003H220.307V53.926H215.782ZM218.865 47.756V43.2222H223.383V47.756H218.865ZM218.865 47.756V43.2222H223.383V47.756H218.865ZM218.865 47.756V43.2222H223.383V47.756H218.865ZM218.865 47.756V43.2222H223.383V47.756H218.865ZM221.949 4.52576V0H226.466V4.52576H221.949ZM221.949 4.52576V0H226.466V4.52576H221.949ZM221.949 4.52576V0H226.466V4.52576H221.949ZM221.949 4.52576V0H226.466V4.52576H221.949ZM221.949 10.7038V6.17802H226.466V10.7038H221.949ZM221.949 10.7038V6.17802H226.466V10.7038H221.949ZM221.949 10.7038V6.17802H226.466V10.7038H221.949ZM221.949 10.7038V6.17802H226.466V10.7038H221.949ZM221.949 16.8738V12.3481H226.466V16.8738H221.949ZM221.949 16.8738V12.3481H226.466V16.8738H221.949ZM221.949 16.8738V12.3481H226.466V16.8738H221.949ZM221.949 16.8738V12.3481H226.466V16.8738H221.949ZM221.949 23.0519V18.5261H226.466V23.0519H221.949ZM221.949 23.0519V18.5261H226.466V23.0519H221.949ZM221.949 23.0519V18.5261H226.466V23.0519H221.949ZM221.949 23.0519V18.5261H226.466V23.0519H221.949ZM221.949 29.2299V24.7041H226.466V29.2299H221.949ZM221.949 29.2299V24.7041H226.466V29.2299H221.949ZM221.949 29.2299V24.7041H226.466V29.2299H221.949ZM221.949 29.2299V24.7041H226.466V29.2299H221.949ZM221.949 35.3999V30.8742H226.466V35.3999H221.949ZM221.949 35.3999V30.8742H226.466V35.3999H221.949ZM221.949 35.3999V30.8742H226.466V35.3999H221.949ZM221.949 35.3999V30.8742H226.466V35.3999H221.949ZM221.949 41.5779V37.0522H226.466V41.5779H221.949ZM221.949 41.5779V37.0522H226.466V41.5779H221.949ZM221.949 41.5779V37.0522H226.466V41.5779H221.949ZM221.949 41.5779V37.0522H226.466V41.5779H221.949ZM234.736 4.52576V0H239.254V4.52576H234.736ZM234.736 4.52576V0H239.254V4.52576H234.736ZM234.736 4.52576V0H239.254V4.52576H234.736ZM234.736 4.52576V0H239.254V4.52576H234.736ZM234.736 10.7038V6.17802H239.254V10.7038H234.736ZM234.736 10.7038V6.17802H239.254V10.7038H234.736ZM234.736 10.7038V6.17802H239.254V10.7038H234.736ZM234.736 10.7038V6.17802H239.254V10.7038H234.736ZM234.736 16.8818V12.356H239.254V16.8818H234.736ZM234.736 16.8818V12.356H239.254V16.8818H234.736ZM234.736 16.8818V12.356H239.254V16.8818H234.736ZM234.736 16.8818V12.356H239.254V16.8818H234.736ZM234.736 23.0519V18.5261H239.254V23.0519H234.736ZM234.736 23.0519V18.5261H239.254V23.0519H234.736ZM234.736 23.0519V18.5261H239.254V23.0519H234.736ZM234.736 23.0519V18.5261H239.254V23.0519H234.736ZM234.736 29.2299V24.7041H239.254V29.2299H234.736ZM234.736 29.2299V24.7041H239.254V29.2299H234.736ZM234.736 29.2299V24.7041H239.254V29.2299H234.736ZM234.736 29.2299V24.7041H239.254V29.2299H234.736ZM234.736 35.3999V30.8742H239.254V35.3999H234.736ZM234.736 35.3999V30.8742H239.254V35.3999H234.736ZM234.736 35.3999V30.8742H239.254V35.3999H234.736ZM234.736 35.3999V30.8742H239.254V35.3999H234.736ZM234.736 41.5779V37.0522H239.254V41.5779H234.736ZM234.736 41.5779V37.0522H239.254V41.5779H234.736ZM234.736 41.5779V37.0522H239.254V41.5779H234.736ZM234.736 41.5779V37.0522H239.254V41.5779H234.736ZM234.736 47.748V43.2222H239.254V47.748H234.736ZM234.736 47.748V43.2222H239.254V47.748H234.736ZM234.736 47.748V43.2222H239.254V47.748H234.736ZM234.736 47.748V43.2222H239.254V47.748H234.736ZM234.736 53.926V49.4003H239.254V53.926H234.736ZM234.736 53.926V49.4003H239.254V53.926H234.736ZM234.736 53.926V49.4003H239.254V53.926H234.736ZM234.736 53.926V49.4003H239.254V53.926H234.736ZM234.736 60.0961V55.5703H239.254V60.0961H234.736ZM234.736 60.0961V55.5703H239.254V60.0961H234.736ZM234.736 60.0961V55.5703H239.254V60.0961H234.736ZM234.736 60.0961V55.5703H239.254V60.0961H234.736ZM234.736 66.2741V61.7483H239.254V66.2741H234.736ZM234.736 66.2741V61.7483H239.254V66.2741H234.736ZM234.736 66.2741V61.7483H239.254V66.2741H234.736ZM234.736 66.2741V61.7483H239.254V66.2741H234.736ZM240.895 4.52576V0H245.413V4.52576H240.895ZM240.895 4.52576V0H245.413V4.52576H240.895ZM240.895 4.52576V0H245.413V4.52576H240.895ZM240.895 4.52576V0H245.413V4.52576H240.895ZM240.895 35.3999V30.8742H245.413V35.3999H240.895ZM240.895 35.3999V30.8742H245.413V35.3999H240.895ZM240.895 35.3999V30.8742H245.413V35.3999H240.895ZM240.895 35.3999V30.8742H245.413V35.3999H240.895ZM240.895 66.2741V61.7483H245.413V66.2741H240.895ZM240.895 66.2741V61.7483H245.413V66.2741H240.895ZM240.895 66.2741V61.7483H245.413V66.2741H240.895ZM240.895 66.2741V61.7483H245.413V66.2741H240.895ZM247.062 4.52576V0H251.588V4.52576H247.062ZM247.062 4.52576V0H251.588V4.52576H247.062ZM247.062 4.52576V0H251.588V4.52576H247.062ZM247.062 4.52576V0H251.588V4.52576H247.062ZM247.062 35.3999V30.8742H251.588V35.3999H247.062ZM247.062 35.3999V30.8742H251.588V35.3999H247.062ZM247.062 35.3999V30.8742H251.588V35.3999H247.062ZM247.062 35.3999V30.8742H251.588V35.3999H247.062ZM247.062 66.2741V61.7483H251.588V66.2741H247.062ZM247.062 66.2741V61.7483H251.588V66.2741H247.062ZM247.062 66.2741V61.7483H251.588V66.2741H247.062ZM247.062 66.2741V61.7483H251.588V66.2741H247.062ZM253.229 4.52576V0H257.746V4.52576H253.229ZM253.229 4.52576V0H257.746V4.52576H253.229ZM253.229 4.52576V0H257.746V4.52576H253.229ZM253.229 4.52576V0H257.746V4.52576H253.229ZM253.229 35.3999V30.8742H257.746V35.3999H253.229ZM253.229 35.3999V30.8742H257.746V35.3999H253.229ZM253.229 35.3999V30.8742H257.746V35.3999H253.229ZM253.229 35.3999V30.8742H257.746V35.3999H253.229ZM253.229 66.2741V61.7483H257.746V66.2741H253.229ZM253.229 66.2741V61.7483H257.746V66.2741H253.229ZM253.229 66.2741V61.7483H257.746V66.2741H253.229ZM253.229 66.2741V61.7483H257.746V66.2741H253.229ZM275.721 4.52576V0H280.238V4.52576H275.721ZM275.721 4.52576V0H280.238V4.52576H275.721ZM275.721 4.52576V0H280.238V4.52576H275.721ZM275.721 4.52576V0H280.238V4.52576H275.721ZM281.888 4.52576V0H286.405V4.52576H281.888ZM281.888 4.52576V0H286.405V4.52576H281.888ZM281.888 4.52576V0H286.405V4.52576H281.888ZM281.888 4.52576V0H286.405V4.52576H281.888ZM288.047 4.52576V0H292.564V4.52576H288.047ZM288.047 4.52576V0H292.564V4.52576H288.047ZM288.047 4.52576V0H292.564V4.52576H288.047ZM288.047 4.52576V0H292.564V4.52576H288.047ZM288.047 10.7038V6.17802H292.564V10.7038H288.047ZM288.047 10.7038V6.17802H292.564V10.7038H288.047ZM288.047 10.7038V6.17802H292.564V10.7038H288.047ZM288.047 10.7038V6.17802H292.564V10.7038H288.047ZM288.047 16.8818V12.356H292.564V16.8818H288.047ZM288.047 16.8818V12.356H292.564V16.8818H288.047ZM288.047 16.8818V12.356H292.564V16.8818H288.047ZM288.047 16.8818V12.356H292.564V16.8818H288.047ZM288.047 23.0519V18.5261H292.564V23.0519H288.047ZM288.047 23.0519V18.5261H292.564V23.0519H288.047ZM288.047 23.0519V18.5261H292.564V23.0519H288.047ZM288.047 23.0519V18.5261H292.564V23.0519H288.047ZM288.047 29.2299V24.7041H292.564V29.2299H288.047ZM288.047 29.2299V24.7041H292.564V29.2299H288.047ZM288.047 29.2299V24.7041H292.564V29.2299H288.047ZM288.047 29.2299V24.7041H292.564V29.2299H288.047ZM288.047 35.3999V30.8742H292.564V35.3999H288.047ZM288.047 35.3999V30.8742H292.564V35.3999H288.047ZM288.047 35.3999V30.8742H292.564V35.3999H288.047ZM288.047 35.3999V30.8742H292.564V35.3999H288.047ZM288.047 41.5779V37.0522H292.564V41.5779H288.047ZM288.047 41.5779V37.0522H292.564V41.5779H288.047ZM288.047 41.5779V37.0522H292.564V41.5779H288.047ZM288.047 41.5779V37.0522H292.564V41.5779H288.047ZM288.047 47.748V43.2222H292.564V47.748H288.047ZM288.047 47.748V43.2222H292.564V47.748H288.047ZM288.047 47.748V43.2222H292.564V47.748H288.047ZM288.047 47.748V43.2222H292.564V47.748H288.047ZM288.047 53.926V49.4003H292.564V53.926H288.047ZM288.047 53.926V49.4003H292.564V53.926H288.047ZM288.047 53.926V49.4003H292.564V53.926H288.047ZM288.047 53.926V49.4003H292.564V53.926H288.047ZM288.047 60.104V55.5783H292.564V60.104H288.047ZM288.047 60.104V55.5783H292.564V60.104H288.047ZM288.047 60.104V55.5783H292.564V60.104H288.047ZM288.047 60.104V55.5783H292.564V60.104H288.047ZM288.047 66.2741V61.7483H292.564V66.2741H288.047ZM288.047 66.2741V61.7483H292.564V66.2741H288.047ZM288.047 66.2741V61.7483H292.564V66.2741H288.047ZM288.047 66.2741V61.7483H292.564V66.2741H288.047ZM294.205 4.52576V0H298.731V4.52576H294.205ZM294.205 4.52576V0H298.731V4.52576H294.205ZM294.205 4.52576V0H298.731V4.52576H294.205ZM294.205 4.52576V0H298.731V4.52576H294.205ZM300.372 4.52576V0H304.89V4.52576H300.372ZM300.372 4.52576V0H304.89V4.52576H300.372ZM300.372 4.52576V0H304.89V4.52576H300.372ZM300.372 4.52576V0H304.89V4.52576H300.372ZM310.077 4.52576V0H314.594V4.52576H310.077ZM310.077 4.52576V0H314.594V4.52576H310.077ZM310.077 4.52576V0H314.594V4.52576H310.077ZM310.077 4.52576V0H314.594V4.52576H310.077ZM310.077 10.7038V6.17802H314.594V10.7038H310.077ZM310.077 10.7038V6.17802H314.594V10.7038H310.077ZM310.077 10.7038V6.17802H314.594V10.7038H310.077ZM310.077 10.7038V6.17802H314.594V10.7038H310.077ZM310.077 16.8818V12.356H314.594V16.8818H310.077ZM310.077 16.8818V12.356H314.594V16.8818H310.077ZM310.077 16.8818V12.356H314.594V16.8818H310.077ZM310.077 16.8818V12.356H314.594V16.8818H310.077ZM310.077 23.0519V18.5261H314.594V23.0519H310.077ZM310.077 23.0519V18.5261H314.594V23.0519H310.077ZM310.077 23.0519V18.5261H314.594V23.0519H310.077ZM310.077 23.0519V18.5261H314.594V23.0519H310.077ZM310.077 29.2299V24.7041H314.594V29.2299H310.077ZM310.077 29.2299V24.7041H314.594V29.2299H310.077ZM310.077 29.2299V24.7041H314.594V29.2299H310.077ZM310.077 29.2299V24.7041H314.594V29.2299H310.077ZM310.077 35.3999V30.8742H314.594V35.3999H310.077ZM310.077 35.3999V30.8742H314.594V35.3999H310.077ZM310.077 35.3999V30.8742H314.594V35.3999H310.077ZM310.077 35.3999V30.8742H314.594V35.3999H310.077ZM310.077 41.5779V37.0522H314.594V41.5779H310.077ZM310.077 41.5779V37.0522H314.594V41.5779H310.077ZM310.077 41.5779V37.0522H314.594V41.5779H310.077ZM310.077 41.5779V37.0522H314.594V41.5779H310.077ZM310.077 47.748V43.2222H314.594V47.748H310.077ZM310.077 47.748V43.2222H314.594V47.748H310.077ZM310.077 47.748V43.2222H314.594V47.748H310.077ZM310.077 47.748V43.2222H314.594V47.748H310.077ZM310.077 53.926V49.4003H314.594V53.926H310.077ZM310.077 53.926V49.4003H314.594V53.926H310.077ZM310.077 53.926V49.4003H314.594V53.926H310.077ZM310.077 53.926V49.4003H314.594V53.926H310.077ZM310.077 60.0961V55.5703H314.594V60.0961H310.077ZM310.077 60.0961V55.5703H314.594V60.0961H310.077ZM310.077 60.0961V55.5703H314.594V60.0961H310.077ZM310.077 60.0961V55.5703H314.594V60.0961H310.077ZM310.077 66.2741V61.7483H314.594V66.2741H310.077ZM310.077 66.2741V61.7483H314.594V66.2741H310.077ZM310.077 66.2741V61.7483H314.594V66.2741H310.077ZM310.077 66.2741V61.7483H314.594V66.2741H310.077ZM316.243 35.3999V30.8742H320.761V35.3999H316.243ZM316.243 35.3999V30.8742H320.761V35.3999H316.243ZM316.243 35.3999V30.8742H320.761V35.3999H316.243ZM316.243 35.3999V30.8742H320.761V35.3999H316.243ZM322.41 35.3999V30.8742H326.928V35.3999H322.41ZM322.41 35.3999V30.8742H326.928V35.3999H322.41ZM322.41 35.3999V30.8742H326.928V35.3999H322.41ZM322.41 35.3999V30.8742H326.928V35.3999H322.41ZM328.569 35.3999V30.8742H333.094V35.3999H328.569ZM328.569 35.3999V30.8742H333.094V35.3999H328.569ZM328.569 35.3999V30.8742H333.094V35.3999H328.569ZM328.569 35.3999V30.8742H333.094V35.3999H328.569ZM334.736 4.52576V0H339.253V4.52576H334.736ZM334.736 4.52576V0H339.253V4.52576H334.736ZM334.736 4.52576V0H339.253V4.52576H334.736ZM334.736 4.52576V0H339.253V4.52576H334.736ZM334.736 10.7038V6.17802H339.253V10.7038H334.736ZM334.736 10.7038V6.17802H339.253V10.7038H334.736ZM334.736 10.7038V6.17802H339.253V10.7038H334.736ZM334.736 10.7038V6.17802H339.253V10.7038H334.736ZM334.736 16.8818V12.356H339.253V16.8818H334.736ZM334.736 16.8818V12.356H339.253V16.8818H334.736ZM334.736 16.8818V12.356H339.253V16.8818H334.736ZM334.736 16.8818V12.356H339.253V16.8818H334.736ZM334.736 23.0519V18.5261H339.253V23.0519H334.736ZM334.736 23.0519V18.5261H339.253V23.0519H334.736ZM334.736 23.0519V18.5261H339.253V23.0519H334.736ZM334.736 23.0519V18.5261H339.253V23.0519H334.736ZM334.736 29.2299V24.7041H339.253V29.2299H334.736ZM334.736 29.2299V24.7041H339.253V29.2299H334.736ZM334.736 29.2299V24.7041H339.253V29.2299H334.736ZM334.736 29.2299V24.7041H339.253V29.2299H334.736ZM334.736 35.3999V30.8742H339.253V35.3999H334.736ZM334.736 35.3999V30.8742H339.253V35.3999H334.736ZM334.736 35.3999V30.8742H339.253V35.3999H334.736ZM334.736 35.3999V30.8742H339.253V35.3999H334.736ZM334.736 41.5779V37.0522H339.253V41.5779H334.736ZM334.736 41.5779V37.0522H339.253V41.5779H334.736ZM334.736 41.5779V37.0522H339.253V41.5779H334.736ZM334.736 41.5779V37.0522H339.253V41.5779H334.736ZM334.736 47.748V43.2222H339.253V47.748H334.736ZM334.736 47.748V43.2222H339.253V47.748H334.736ZM334.736 47.748V43.2222H339.253V47.748H334.736ZM334.736 47.748V43.2222H339.253V47.748H334.736ZM334.736 53.926V49.4003H339.253V53.926H334.736ZM334.736 53.926V49.4003H339.253V53.926H334.736ZM334.736 53.926V49.4003H339.253V53.926H334.736ZM334.736 53.926V49.4003H339.253V53.926H334.736ZM334.736 60.0961V55.5703H339.253V60.0961H334.736ZM334.736 60.0961V55.5703H339.253V60.0961H334.736ZM334.736 60.0961V55.5703H339.253V60.0961H334.736ZM334.736 60.0961V55.5703H339.253V60.0961H334.736ZM334.736 66.2741V61.7483H339.253V66.2741H334.736ZM334.736 66.2741V61.7483H339.253V66.2741H334.736ZM334.736 66.2741V61.7483H339.253V66.2741H334.736ZM334.736 66.2741V61.7483H339.253V66.2741H334.736ZM350.607 4.52576V0H355.124V4.52576H350.607ZM350.607 4.52576V0H355.124V4.52576H350.607ZM350.607 4.52576V0H355.124V4.52576H350.607ZM350.607 4.52576V0H355.124V4.52576H350.607ZM350.607 10.7038V6.17802H355.124V10.7038H350.607ZM350.607 10.7038V6.17802H355.124V10.7038H350.607ZM350.607 10.7038V6.17802H355.124V10.7038H350.607ZM350.607 10.7038V6.17802H355.124V10.7038H350.607ZM350.607 16.8818V12.356H355.124V16.8818H350.607ZM350.607 16.8818V12.356H355.124V16.8818H350.607ZM350.607 16.8818V12.356H355.124V16.8818H350.607ZM350.607 16.8818V12.356H355.124V16.8818H350.607ZM350.607 23.0519V18.5261H355.124V23.0519H350.607ZM350.607 23.0519V18.5261H355.124V23.0519H350.607ZM350.607 23.0519V18.5261H355.124V23.0519H350.607ZM350.607 23.0519V18.5261H355.124V23.0519H350.607ZM350.607 29.2299V24.7041H355.124V29.2299H350.607ZM350.607 29.2299V24.7041H355.124V29.2299H350.607ZM350.607 29.2299V24.7041H355.124V29.2299H350.607ZM350.607 29.2299V24.7041H355.124V29.2299H350.607ZM350.607 35.3999V30.8742H355.124V35.3999H350.607ZM350.607 35.3999V30.8742H355.124V35.3999H350.607ZM350.607 35.3999V30.8742H355.124V35.3999H350.607ZM350.607 35.3999V30.8742H355.124V35.3999H350.607ZM350.607 41.5779V37.0522H355.124V41.5779H350.607ZM350.607 41.5779V37.0522H355.124V41.5779H350.607ZM350.607 41.5779V37.0522H355.124V41.5779H350.607ZM350.607 41.5779V37.0522H355.124V41.5779H350.607ZM350.607 47.748V43.2222H355.124V47.748H350.607ZM350.607 47.748V43.2222H355.124V47.748H350.607ZM350.607 47.748V43.2222H355.124V47.748H350.607ZM350.607 47.748V43.2222H355.124V47.748H350.607ZM350.607 53.926V49.4003H355.124V53.926H350.607ZM350.607 53.926V49.4003H355.124V53.926H350.607ZM350.607 53.926V49.4003H355.124V53.926H350.607ZM350.607 53.926V49.4003H355.124V53.926H350.607ZM350.607 60.0961V55.5703H355.124V60.0961H350.607ZM350.607 60.0961V55.5703H355.124V60.0961H350.607ZM350.607 60.0961V55.5703H355.124V60.0961H350.607ZM350.607 60.0961V55.5703H355.124V60.0961H350.607ZM350.607 66.2741V61.7483H355.124V66.2741H350.607ZM350.607 66.2741V61.7483H355.124V66.2741H350.607ZM350.607 66.2741V61.7483H355.124V66.2741H350.607ZM350.607 66.2741V61.7483H355.124V66.2741H350.607ZM356.766 4.52576V0H361.283V4.52576H356.766ZM356.766 4.52576V0H361.283V4.52576H356.766ZM356.766 4.52576V0H361.283V4.52576H356.766ZM356.766 4.52576V0H361.283V4.52576H356.766ZM356.766 35.3999V30.8742H361.283V35.3999H356.766ZM356.766 35.3999V30.8742H361.283V35.3999H356.766ZM356.766 35.3999V30.8742H361.283V35.3999H356.766ZM356.766 35.3999V30.8742H361.283V35.3999H356.766ZM356.766 66.2741V61.7483H361.283V66.2741H356.766ZM356.766 66.2741V61.7483H361.283V66.2741H356.766ZM356.766 66.2741V61.7483H361.283V66.2741H356.766ZM356.766 66.2741V61.7483H361.283V66.2741H356.766ZM362.932 4.52576V0H367.458V4.52576H362.932ZM362.932 4.52576V0H367.458V4.52576H362.932ZM362.932 4.52576V0H367.458V4.52576H362.932ZM362.932 4.52576V0H367.458V4.52576H362.932ZM362.932 35.3999V30.8742H367.458V35.3999H362.932ZM362.932 35.3999V30.8742H367.458V35.3999H362.932ZM362.932 35.3999V30.8742H367.458V35.3999H362.932ZM362.932 35.3999V30.8742H367.458V35.3999H362.932ZM362.932 66.2741V61.7483H367.458V66.2741H362.932ZM362.932 66.2741V61.7483H367.458V66.2741H362.932ZM362.932 66.2741V61.7483H367.458V66.2741H362.932ZM362.932 66.2741V61.7483H367.458V66.2741H362.932ZM369.091 4.52576V0H373.609V4.52576H369.091ZM369.091 4.52576V0H373.609V4.52576H369.091ZM369.091 4.52576V0H373.609V4.52576H369.091ZM369.091 4.52576V0H373.609V4.52576H369.091ZM369.091 35.3999V30.8742H373.609V35.3999H369.091ZM369.091 35.3999V30.8742H373.609V35.3999H369.091ZM369.091 35.3999V30.8742H373.609V35.3999H369.091ZM369.091 35.3999V30.8742H373.609V35.3999H369.091ZM369.091 66.2741V61.7483H373.609V66.2741H369.091ZM369.091 66.2741V61.7483H373.609V66.2741H369.091ZM369.091 66.2741V61.7483H373.609V66.2741H369.091ZM369.091 66.2741V61.7483H373.609V66.2741H369.091ZM175.722 83.2517V78.7259H180.239V83.2517H175.722ZM175.722 83.2517V78.7259H180.239V83.2517H175.722ZM175.722 83.2517V78.7259H180.239V83.2517H175.722ZM175.722 83.2517V78.7259H180.239V83.2517H175.722ZM175.722 89.4297V84.9039H180.239V89.4297H175.722ZM175.722 89.4297V84.9039H180.239V89.4297H175.722ZM175.722 89.4297V84.9039H180.239V89.4297H175.722ZM175.722 89.4297V84.9039H180.239V89.4297H175.722ZM175.722 95.6077V91.082H180.239V95.6077H175.722ZM175.722 95.6077V91.082H180.239V95.6077H175.722ZM175.722 95.6077V91.082H180.239V95.6077H175.722ZM175.722 95.6077V91.082H180.239V95.6077H175.722ZM175.722 101.778V97.252H180.239V101.778H175.722ZM175.722 101.778V97.252H180.239V101.778H175.722ZM175.722 101.778V97.252H180.239V101.778H175.722ZM175.722 101.778V97.252H180.239V101.778H175.722ZM175.722 107.948V103.422H180.239V107.948H175.722ZM175.722 107.948V103.422H180.239V107.948H175.722ZM175.722 107.948V103.422H180.239V107.948H175.722ZM175.722 107.948V103.422H180.239V107.948H175.722ZM175.722 114.126V109.6H180.239V114.126H175.722ZM175.722 114.126V109.6H180.239V114.126H175.722ZM175.722 114.126V109.6H180.239V114.126H175.722ZM175.722 114.126V109.6H180.239V114.126H175.722ZM175.722 120.304V115.77H180.239V120.304H175.722ZM175.722 120.304V115.77H180.239V120.304H175.722ZM175.722 120.304V115.77H180.239V120.304H175.722ZM175.722 120.304V115.77H180.239V120.304H175.722ZM175.722 126.474V121.948H180.239V126.474H175.722ZM175.722 126.474V121.948H180.239V126.474H175.722ZM175.722 126.474V121.948H180.239V126.474H175.722ZM175.722 126.474V121.948H180.239V126.474H175.722ZM175.722 132.652V128.126H180.239V132.652H175.722ZM175.722 132.652V128.126H180.239V132.652H175.722ZM175.722 132.652V128.126H180.239V132.652H175.722ZM175.722 132.652V128.126H180.239V132.652H175.722ZM175.722 138.83V134.304H180.239V138.83H175.722ZM175.722 138.83V134.304H180.239V138.83H175.722ZM175.722 138.83V134.304H180.239V138.83H175.722ZM175.722 138.83V134.304H180.239V138.83H175.722ZM175.722 145V140.474H180.239V145H175.722ZM175.722 145V140.474H180.239V145H175.722ZM175.722 145V140.474H180.239V145H175.722ZM175.722 145V140.474H180.239V145H175.722ZM181.888 83.2517V78.7259H186.406V83.2517H181.888ZM181.888 83.2517V78.7259H186.406V83.2517H181.888ZM181.888 83.2517V78.7259H186.406V83.2517H181.888ZM181.888 83.2517V78.7259H186.406V83.2517H181.888ZM181.888 120.304V115.77H186.406V120.304H181.888ZM181.888 120.304V115.77H186.406V120.304H181.888ZM181.888 120.304V115.77H186.406V120.304H181.888ZM181.888 120.304V115.77H186.406V120.304H181.888ZM188.047 83.2517V78.7259H192.565V83.2517H188.047ZM188.047 83.2517V78.7259H192.565V83.2517H188.047ZM188.047 83.2517V78.7259H192.565V83.2517H188.047ZM188.047 83.2517V78.7259H192.565V83.2517H188.047ZM188.047 120.304V115.77H192.565V120.304H188.047ZM188.047 120.304V115.77H192.565V120.304H188.047ZM188.047 120.304V115.77H192.565V120.304H188.047ZM188.047 120.304V115.77H192.565V120.304H188.047ZM194.214 83.2517V78.7259H198.74V83.2517H194.214ZM194.214 83.2517V78.7259H198.74V83.2517H194.214ZM194.214 83.2517V78.7259H198.74V83.2517H194.214ZM194.214 83.2517V78.7259H198.74V83.2517H194.214ZM194.214 120.304V115.77H198.74V120.304H194.214ZM194.214 120.304V115.77H198.74V120.304H194.214ZM194.214 120.304V115.77H198.74V120.304H194.214ZM194.214 120.304V115.77H198.74V120.304H194.214ZM200.373 89.4297V84.9039H204.89V89.4297H200.373ZM200.373 89.4297V84.9039H204.89V89.4297H200.373ZM200.373 89.4297V84.9039H204.89V89.4297H200.373ZM200.373 89.4297V84.9039H204.89V89.4297H200.373ZM200.373 95.6077V91.082H204.89V95.6077H200.373ZM200.373 95.6077V91.082H204.89V95.6077H200.373ZM200.373 95.6077V91.082H204.89V95.6077H200.373ZM200.373 95.6077V91.082H204.89V95.6077H200.373ZM200.373 101.778V97.252H204.89V101.778H200.373ZM200.373 101.778V97.252H204.89V101.778H200.373ZM200.373 101.778V97.252H204.89V101.778H200.373ZM200.373 101.778V97.252H204.89V101.778H200.373ZM200.373 107.948V103.422H204.89V107.948H200.373ZM200.373 107.948V103.422H204.89V107.948H200.373ZM200.373 107.948V103.422H204.89V107.948H200.373ZM200.373 107.948V103.422H204.89V107.948H200.373ZM200.373 114.126V109.6H204.89V114.126H200.373ZM200.373 114.126V109.6H204.89V114.126H200.373ZM200.373 114.126V109.6H204.89V114.126H200.373ZM200.373 114.126V109.6H204.89V114.126H200.373ZM213.169 83.2517V78.7259H217.686V83.2517H213.169ZM213.169 83.2517V78.7259H217.686V83.2517H213.169ZM213.169 83.2517V78.7259H217.686V83.2517H213.169ZM213.169 83.2517V78.7259H217.686V83.2517H213.169ZM213.169 89.4297V84.9039H217.686V89.4297H213.169ZM213.169 89.4297V84.9039H217.686V89.4297H213.169ZM213.169 89.4297V84.9039H217.686V89.4297H213.169ZM213.169 89.4297V84.9039H217.686V89.4297H213.169ZM213.169 95.6077V91.082H217.686V95.6077H213.169ZM213.169 95.6077V91.082H217.686V95.6077H213.169ZM213.169 95.6077V91.082H217.686V95.6077H213.169ZM213.169 95.6077V91.082H217.686V95.6077H213.169ZM213.169 101.778V97.252H217.686V101.778H213.169ZM213.169 101.778V97.252H217.686V101.778H213.169ZM213.169 101.778V97.252H217.686V101.778H213.169ZM213.169 101.778V97.252H217.686V101.778H213.169ZM213.169 107.948V103.422H217.686V107.948H213.169ZM213.169 107.948V103.422H217.686V107.948H213.169ZM213.169 107.948V103.422H217.686V107.948H213.169ZM213.169 107.948V103.422H217.686V107.948H213.169ZM213.169 114.126V109.6H217.686V114.126H213.169ZM213.169 114.126V109.6H217.686V114.126H213.169ZM213.169 114.126V109.6H217.686V114.126H213.169ZM213.169 114.126V109.6H217.686V114.126H213.169ZM213.169 120.304V115.778H217.686V120.304H213.169ZM213.169 120.304V115.778H217.686V120.304H213.169ZM213.169 120.304V115.778H217.686V120.304H213.169ZM213.169 120.304V115.778H217.686V120.304H213.169ZM213.169 126.474V121.948H217.686V126.474H213.169ZM213.169 126.474V121.948H217.686V126.474H213.169ZM213.169 126.474V121.948H217.686V126.474H213.169ZM213.169 126.474V121.948H217.686V126.474H213.169ZM213.169 132.652V128.126H217.686V132.652H213.169ZM213.169 132.652V128.126H217.686V132.652H213.169ZM213.169 132.652V128.126H217.686V132.652H213.169ZM213.169 132.652V128.126H217.686V132.652H213.169ZM213.169 138.822V134.296H217.686V138.822H213.169ZM213.169 138.822V134.296H217.686V138.822H213.169ZM213.169 138.822V134.296H217.686V138.822H213.169ZM213.169 138.822V134.296H217.686V138.822H213.169ZM213.169 145V140.474H217.686V145H213.169ZM213.169 145V140.474H217.686V145H213.169ZM213.169 145V140.474H217.686V145H213.169ZM213.169 145V140.474H217.686V145H213.169ZM219.327 83.2517V78.7259H223.845V83.2517H219.327ZM219.327 83.2517V78.7259H223.845V83.2517H219.327ZM219.327 83.2517V78.7259H223.845V83.2517H219.327ZM219.327 83.2517V78.7259H223.845V83.2517H219.327ZM219.327 114.126V109.6H223.845V114.126H219.327ZM219.327 114.126V109.6H223.845V114.126H219.327ZM219.327 114.126V109.6H223.845V114.126H219.327ZM219.327 114.126V109.6H223.845V114.126H219.327ZM219.327 145V140.474H223.845V145H219.327ZM219.327 145V140.474H223.845V145H219.327ZM219.327 145V140.474H223.845V145H219.327ZM219.327 145V140.474H223.845V145H219.327ZM225.486 83.2517V78.7259H230.012V83.2517H225.486ZM225.486 83.2517V78.7259H230.012V83.2517H225.486ZM225.486 83.2517V78.7259H230.012V83.2517H225.486ZM225.486 83.2517V78.7259H230.012V83.2517H225.486ZM225.486 114.126V109.6H230.012V114.126H225.486ZM225.486 114.126V109.6H230.012V114.126H225.486ZM225.486 114.126V109.6H230.012V114.126H225.486ZM225.486 114.126V109.6H230.012V114.126H225.486ZM225.486 145V140.474H230.012V145H225.486ZM225.486 145V140.474H230.012V145H225.486ZM225.486 145V140.474H230.012V145H225.486ZM225.486 145V140.474H230.012V145H225.486ZM231.653 83.2517V78.7259H236.171V83.2517H231.653ZM231.653 83.2517V78.7259H236.171V83.2517H231.653ZM231.653 83.2517V78.7259H236.171V83.2517H231.653ZM231.653 83.2517V78.7259H236.171V83.2517H231.653ZM231.653 114.126V109.6H236.171V114.126H231.653ZM231.653 114.126V109.6H236.171V114.126H231.653ZM231.653 114.126V109.6H236.171V114.126H231.653ZM231.653 114.126V109.6H236.171V114.126H231.653ZM231.653 145V140.474H236.171V145H231.653ZM231.653 145V140.474H236.171V145H231.653ZM231.653 145V140.474H236.171V145H231.653ZM231.653 145V140.474H236.171V145H231.653ZM244.441 89.4297V84.9039H248.958V89.4297H244.441ZM244.441 89.4297V84.9039H248.958V89.4297H244.441ZM244.441 89.4297V84.9039H248.958V89.4297H244.441ZM244.441 89.4297V84.9039H248.958V89.4297H244.441ZM244.441 95.5997V91.074H248.958V95.5997H244.441ZM244.441 95.5997V91.074H248.958V95.5997H244.441ZM244.441 95.5997V91.074H248.958V95.5997H244.441ZM244.441 95.5997V91.074H248.958V95.5997H244.441ZM244.441 101.778V97.252H248.958V101.778H244.441ZM244.441 101.778V97.252H248.958V101.778H244.441ZM244.441 101.778V97.252H248.958V101.778H244.441ZM244.441 101.778V97.252H248.958V101.778H244.441ZM244.441 107.956V103.43H248.958V107.956H244.441ZM244.441 107.956V103.43H248.958V107.956H244.441ZM244.441 107.956V103.43H248.958V107.956H244.441ZM244.441 107.956V103.43H248.958V107.956H244.441ZM244.441 114.126V109.6H248.958V114.126H244.441ZM244.441 114.126V109.6H248.958V114.126H244.441ZM244.441 114.126V109.6H248.958V114.126H244.441ZM244.441 114.126V109.6H248.958V114.126H244.441ZM244.441 120.304V115.778H248.958V120.304H244.441ZM244.441 120.304V115.778H248.958V120.304H244.441ZM244.441 120.304V115.778H248.958V120.304H244.441ZM244.441 120.304V115.778H248.958V120.304H244.441ZM244.441 126.474V121.948H248.958V126.474H244.441ZM244.441 126.474V121.948H248.958V126.474H244.441ZM244.441 126.474V121.948H248.958V126.474H244.441ZM244.441 126.474V121.948H248.958V126.474H244.441ZM244.441 132.652V128.126H248.958V132.652H244.441ZM244.441 132.652V128.126H248.958V132.652H244.441ZM244.441 132.652V128.126H248.958V132.652H244.441ZM244.441 132.652V128.126H248.958V132.652H244.441ZM244.441 138.822V134.296H248.958V138.822H244.441ZM244.441 138.822V134.296H248.958V138.822H244.441ZM244.441 138.822V134.296H248.958V138.822H244.441ZM244.441 138.822V134.296H248.958V138.822H244.441ZM250.608 83.2517V78.7259H255.125V83.2517H250.608ZM250.608 83.2517V78.7259H255.125V83.2517H250.608ZM250.608 83.2517V78.7259H255.125V83.2517H250.608ZM250.608 83.2517V78.7259H255.125V83.2517H250.608ZM250.608 145V140.466H255.125V145H250.608ZM250.608 145V140.466H255.125V145H250.608ZM250.608 145V140.466H255.125V145H250.608ZM250.608 145V140.466H255.125V145H250.608ZM256.766 83.2517V78.7259H261.284V83.2517H256.766ZM256.766 83.2517V78.7259H261.284V83.2517H256.766ZM256.766 83.2517V78.7259H261.284V83.2517H256.766ZM256.766 83.2517V78.7259H261.284V83.2517H256.766ZM256.766 145V140.466H261.284V145H256.766ZM256.766 145V140.466H261.284V145H256.766ZM256.766 145V140.466H261.284V145H256.766ZM256.766 145V140.466H261.284V145H256.766ZM262.933 83.2517V78.7259H267.459V83.2517H262.933ZM262.933 83.2517V78.7259H267.459V83.2517H262.933ZM262.933 83.2517V78.7259H267.459V83.2517H262.933ZM262.933 83.2517V78.7259H267.459V83.2517H262.933ZM262.933 145V140.466H267.459V145H262.933ZM262.933 145V140.466H267.459V145H262.933ZM262.933 145V140.466H267.459V145H262.933ZM262.933 145V140.466H267.459V145H262.933ZM269.092 89.4297V84.9039H273.61V89.4297H269.092ZM269.092 89.4297V84.9039H273.61V89.4297H269.092ZM269.092 89.4297V84.9039H273.61V89.4297H269.092ZM269.092 89.4297V84.9039H273.61V89.4297H269.092ZM269.092 95.5997V91.074H273.61V95.5997H269.092ZM269.092 95.5997V91.074H273.61V95.5997H269.092ZM269.092 95.5997V91.074H273.61V95.5997H269.092ZM269.092 95.5997V91.074H273.61V95.5997H269.092ZM269.092 101.778V97.252H273.61V101.778H269.092ZM269.092 101.778V97.252H273.61V101.778H269.092ZM269.092 101.778V97.252H273.61V101.778H269.092ZM269.092 101.778V97.252H273.61V101.778H269.092ZM269.092 107.956V103.43H273.61V107.956H269.092ZM269.092 107.956V103.43H273.61V107.956H269.092ZM269.092 107.956V103.43H273.61V107.956H269.092ZM269.092 107.956V103.43H273.61V107.956H269.092ZM269.092 114.126V109.6H273.61V114.126H269.092ZM269.092 114.126V109.6H273.61V114.126H269.092ZM269.092 114.126V109.6H273.61V114.126H269.092ZM269.092 114.126V109.6H273.61V114.126H269.092ZM269.092 120.304V115.778H273.61V120.304H269.092ZM269.092 120.304V115.778H273.61V120.304H269.092ZM269.092 120.304V115.778H273.61V120.304H269.092ZM269.092 120.304V115.778H273.61V120.304H269.092ZM269.092 126.474V121.948H273.61V126.474H269.092ZM269.092 126.474V121.948H273.61V126.474H269.092ZM269.092 126.474V121.948H273.61V126.474H269.092ZM269.092 126.474V121.948H273.61V126.474H269.092ZM269.092 132.652V128.126H273.61V132.652H269.092ZM269.092 132.652V128.126H273.61V132.652H269.092ZM269.092 132.652V128.126H273.61V132.652H269.092ZM269.092 132.652V128.126H273.61V132.652H269.092ZM269.092 138.822V134.296H273.61V138.822H269.092ZM269.092 138.822V134.296H273.61V138.822H269.092ZM269.092 138.822V134.296H273.61V138.822H269.092ZM269.092 138.822V134.296H273.61V138.822H269.092ZM284.963 83.2517V78.7259H289.481V83.2517H284.963ZM284.963 83.2517V78.7259H289.481V83.2517H284.963ZM284.963 83.2517V78.7259H289.481V83.2517H284.963ZM284.963 83.2517V78.7259H289.481V83.2517H284.963ZM284.963 89.4297V84.9039H289.481V89.4297H284.963ZM284.963 89.4297V84.9039H289.481V89.4297H284.963ZM284.963 89.4297V84.9039H289.481V89.4297H284.963ZM284.963 89.4297V84.9039H289.481V89.4297H284.963ZM284.963 95.6077V91.082H289.481V95.6077H284.963ZM284.963 95.6077V91.082H289.481V95.6077H284.963ZM284.963 95.6077V91.082H289.481V95.6077H284.963ZM284.963 95.6077V91.082H289.481V95.6077H284.963ZM284.963 101.778V97.252H289.481V101.778H284.963ZM284.963 101.778V97.252H289.481V101.778H284.963ZM284.963 101.778V97.252H289.481V101.778H284.963ZM284.963 101.778V97.252H289.481V101.778H284.963ZM284.963 107.948V103.422H289.481V107.948H284.963ZM284.963 107.948V103.422H289.481V107.948H284.963ZM284.963 107.948V103.422H289.481V107.948H284.963ZM284.963 107.948V103.422H289.481V107.948H284.963ZM284.963 114.126V109.6H289.481V114.126H284.963ZM284.963 114.126V109.6H289.481V114.126H284.963ZM284.963 114.126V109.6H289.481V114.126H284.963ZM284.963 114.126V109.6H289.481V114.126H284.963ZM284.963 120.304V115.77H289.481V120.304H284.963ZM284.963 120.304V115.77H289.481V120.304H284.963ZM284.963 120.304V115.77H289.481V120.304H284.963ZM284.963 120.304V115.77H289.481V120.304H284.963ZM284.963 126.474V121.948H289.481V126.474H284.963ZM284.963 126.474V121.948H289.481V126.474H284.963ZM284.963 126.474V121.948H289.481V126.474H284.963ZM284.963 126.474V121.948H289.481V126.474H284.963ZM284.963 132.652V128.126H289.481V132.652H284.963ZM284.963 132.652V128.126H289.481V132.652H284.963ZM284.963 132.652V128.126H289.481V132.652H284.963ZM284.963 132.652V128.126H289.481V132.652H284.963ZM284.963 138.83V134.304H289.481V138.83H284.963ZM284.963 138.83V134.304H289.481V138.83H284.963ZM284.963 138.83V134.304H289.481V138.83H284.963ZM284.963 138.83V134.304H289.481V138.83H284.963ZM284.963 145V140.474H289.481V145H284.963ZM284.963 145V140.474H289.481V145H284.963ZM284.963 145V140.474H289.481V145H284.963ZM284.963 145V140.474H289.481V145H284.963ZM291.13 83.2517V78.7259H295.648V83.2517H291.13ZM291.13 83.2517V78.7259H295.648V83.2517H291.13ZM291.13 83.2517V78.7259H295.648V83.2517H291.13ZM291.13 83.2517V78.7259H295.648V83.2517H291.13ZM291.13 120.304V115.77H295.648V120.304H291.13ZM291.13 120.304V115.77H295.648V120.304H291.13ZM291.13 120.304V115.77H295.648V120.304H291.13ZM291.13 120.304V115.77H295.648V120.304H291.13ZM297.289 83.2517V78.7259H301.806V83.2517H297.289ZM297.289 83.2517V78.7259H301.806V83.2517H297.289ZM297.289 83.2517V78.7259H301.806V83.2517H297.289ZM297.289 83.2517V78.7259H301.806V83.2517H297.289ZM297.289 120.304V115.77H301.806V120.304H297.289ZM297.289 120.304V115.77H301.806V120.304H297.289ZM297.289 120.304V115.77H301.806V120.304H297.289ZM297.289 120.304V115.77H301.806V120.304H297.289ZM303.456 83.2517V78.7259H307.981V83.2517H303.456ZM303.456 83.2517V78.7259H307.981V83.2517H303.456ZM303.456 83.2517V78.7259H307.981V83.2517H303.456ZM303.456 83.2517V78.7259H307.981V83.2517H303.456ZM303.456 120.304V115.77H307.981V120.304H303.456ZM303.456 120.304V115.77H307.981V120.304H303.456ZM303.456 120.304V115.77H307.981V120.304H303.456ZM303.456 120.304V115.77H307.981V120.304H303.456ZM309.614 89.4297V84.9039H314.132V89.4297H309.614ZM309.614 89.4297V84.9039H314.132V89.4297H309.614ZM309.614 89.4297V84.9039H314.132V89.4297H309.614ZM309.614 89.4297V84.9039H314.132V89.4297H309.614ZM309.614 95.6077V91.082H314.132V95.6077H309.614ZM309.614 95.6077V91.082H314.132V95.6077H309.614ZM309.614 95.6077V91.082H314.132V95.6077H309.614ZM309.614 95.6077V91.082H314.132V95.6077H309.614ZM309.614 101.778V97.252H314.132V101.778H309.614ZM309.614 101.778V97.252H314.132V101.778H309.614ZM309.614 101.778V97.252H314.132V101.778H309.614ZM309.614 101.778V97.252H314.132V101.778H309.614ZM309.614 107.948V103.422H314.132V107.948H309.614ZM309.614 107.948V103.422H314.132V107.948H309.614ZM309.614 107.948V103.422H314.132V107.948H309.614ZM309.614 107.948V103.422H314.132V107.948H309.614ZM309.614 114.126V109.6H314.132V114.126H309.614ZM309.614 114.126V109.6H314.132V114.126H309.614ZM309.614 114.126V109.6H314.132V114.126H309.614ZM309.614 114.126V109.6H314.132V114.126H309.614ZM322.41 83.2517V78.7259H326.928V83.2517H322.41ZM322.41 83.2517V78.7259H326.928V83.2517H322.41ZM322.41 83.2517V78.7259H326.928V83.2517H322.41ZM322.41 83.2517V78.7259H326.928V83.2517H322.41ZM322.41 89.4297V84.9039H326.928V89.4297H322.41ZM322.41 89.4297V84.9039H326.928V89.4297H322.41ZM322.41 89.4297V84.9039H326.928V89.4297H322.41ZM322.41 89.4297V84.9039H326.928V89.4297H322.41ZM322.41 95.6077V91.082H326.928V95.6077H322.41ZM322.41 95.6077V91.082H326.928V95.6077H322.41ZM322.41 95.6077V91.082H326.928V95.6077H322.41ZM322.41 95.6077V91.082H326.928V95.6077H322.41ZM322.41 101.778V97.252H326.928V101.778H322.41ZM322.41 101.778V97.252H326.928V101.778H322.41ZM322.41 101.778V97.252H326.928V101.778H322.41ZM322.41 101.778V97.252H326.928V101.778H322.41ZM322.41 107.948V103.422H326.928V107.948H322.41ZM322.41 107.948V103.422H326.928V107.948H322.41ZM322.41 107.948V103.422H326.928V107.948H322.41ZM322.41 107.948V103.422H326.928V107.948H322.41ZM322.41 114.126V109.6H326.928V114.126H322.41ZM322.41 114.126V109.6H326.928V114.126H322.41ZM322.41 114.126V109.6H326.928V114.126H322.41ZM322.41 114.126V109.6H326.928V114.126H322.41ZM322.41 120.304V115.778H326.928V120.304H322.41ZM322.41 120.304V115.778H326.928V120.304H322.41ZM322.41 120.304V115.778H326.928V120.304H322.41ZM322.41 120.304V115.778H326.928V120.304H322.41ZM322.41 126.474V121.948H326.928V126.474H322.41ZM322.41 126.474V121.948H326.928V126.474H322.41ZM322.41 126.474V121.948H326.928V126.474H322.41ZM322.41 126.474V121.948H326.928V126.474H322.41ZM322.41 132.652V128.126H326.928V132.652H322.41ZM322.41 132.652V128.126H326.928V132.652H322.41ZM322.41 132.652V128.126H326.928V132.652H322.41ZM322.41 132.652V128.126H326.928V132.652H322.41ZM322.41 138.822V134.296H326.928V138.822H322.41ZM322.41 138.822V134.296H326.928V138.822H322.41ZM322.41 138.822V134.296H326.928V138.822H322.41ZM322.41 138.822V134.296H326.928V138.822H322.41ZM322.41 145V140.474H326.928V145H322.41ZM322.41 145V140.474H326.928V145H322.41ZM322.41 145V140.474H326.928V145H322.41ZM322.41 145V140.474H326.928V145H322.41ZM328.569 145V140.474H333.086V145H328.569ZM328.569 145V140.474H333.086V145H328.569ZM328.569 145V140.474H333.086V145H328.569ZM328.569 145V140.474H333.086V145H328.569ZM334.728 145V140.474H339.253V145H334.728ZM334.728 145V140.474H339.253V145H334.728ZM334.728 145V140.474H339.253V145H334.728ZM334.728 145V140.474H339.253V145H334.728ZM340.895 145V140.474H345.412V145H340.895ZM340.895 145V140.474H345.412V145H340.895ZM340.895 145V140.474H345.412V145H340.895ZM340.895 145V140.474H345.412V145H340.895ZM353.682 83.2517V78.7259H358.2V83.2517H353.682ZM353.682 83.2517V78.7259H358.2V83.2517H353.682ZM353.682 83.2517V78.7259H358.2V83.2517H353.682ZM353.682 83.2517V78.7259H358.2V83.2517H353.682ZM353.682 89.4297V84.9039H358.2V89.4297H353.682ZM353.682 89.4297V84.9039H358.2V89.4297H353.682ZM353.682 89.4297V84.9039H358.2V89.4297H353.682ZM353.682 89.4297V84.9039H358.2V89.4297H353.682ZM353.682 95.6077V91.082H358.2V95.6077H353.682ZM353.682 95.6077V91.082H358.2V95.6077H353.682ZM353.682 95.6077V91.082H358.2V95.6077H353.682ZM353.682 95.6077V91.082H358.2V95.6077H353.682ZM353.682 101.778V97.252H358.2V101.778H353.682ZM353.682 101.778V97.252H358.2V101.778H353.682ZM353.682 101.778V97.252H358.2V101.778H353.682ZM353.682 101.778V97.252H358.2V101.778H353.682ZM353.682 107.948V103.422H358.2V107.948H353.682ZM353.682 107.948V103.422H358.2V107.948H353.682ZM353.682 107.948V103.422H358.2V107.948H353.682ZM353.682 107.948V103.422H358.2V107.948H353.682ZM353.682 114.126V109.6H358.2V114.126H353.682ZM353.682 114.126V109.6H358.2V114.126H353.682ZM353.682 114.126V109.6H358.2V114.126H353.682ZM353.682 114.126V109.6H358.2V114.126H353.682ZM353.682 120.304V115.778H358.2V120.304H353.682ZM353.682 120.304V115.778H358.2V120.304H353.682ZM353.682 120.304V115.778H358.2V120.304H353.682ZM353.682 120.304V115.778H358.2V120.304H353.682ZM353.682 126.474V121.948H358.2V126.474H353.682ZM353.682 126.474V121.948H358.2V126.474H353.682ZM353.682 126.474V121.948H358.2V126.474H353.682ZM353.682 126.474V121.948H358.2V126.474H353.682ZM353.682 132.652V128.126H358.2V132.652H353.682ZM353.682 132.652V128.126H358.2V132.652H353.682ZM353.682 132.652V128.126H358.2V132.652H353.682ZM353.682 132.652V128.126H358.2V132.652H353.682ZM353.682 138.822V134.296H358.2V138.822H353.682ZM353.682 138.822V134.296H358.2V138.822H353.682ZM353.682 138.822V134.296H358.2V138.822H353.682ZM353.682 138.822V134.296H358.2V138.822H353.682ZM353.682 145V140.474H358.2V145H353.682ZM353.682 145V140.474H358.2V145H353.682ZM353.682 145V140.474H358.2V145H353.682ZM353.682 145V140.474H358.2V145H353.682ZM359.849 83.2517V78.7259H364.367V83.2517H359.849ZM359.849 83.2517V78.7259H364.367V83.2517H359.849ZM359.849 83.2517V78.7259H364.367V83.2517H359.849ZM359.849 83.2517V78.7259H364.367V83.2517H359.849ZM359.849 114.126V109.6H364.367V114.126H359.849ZM359.849 114.126V109.6H364.367V114.126H359.849ZM359.849 114.126V109.6H364.367V114.126H359.849ZM359.849 114.126V109.6H364.367V114.126H359.849ZM359.849 145V140.474H364.367V145H359.849ZM359.849 145V140.474H364.367V145H359.849ZM359.849 145V140.474H364.367V145H359.849ZM359.849 145V140.474H364.367V145H359.849ZM366.008 83.2517V78.7259H370.533V83.2517H366.008ZM366.008 83.2517V78.7259H370.533V83.2517H366.008ZM366.008 83.2517V78.7259H370.533V83.2517H366.008ZM366.008 83.2517V78.7259H370.533V83.2517H366.008ZM366.008 114.126V109.6H370.533V114.126H366.008ZM366.008 114.126V109.6H370.533V114.126H366.008ZM366.008 114.126V109.6H370.533V114.126H366.008ZM366.008 114.126V109.6H370.533V114.126H366.008ZM366.008 145V140.474H370.533V145H366.008ZM366.008 145V140.474H370.533V145H366.008ZM366.008 145V140.474H370.533V145H366.008ZM366.008 145V140.474H370.533V145H366.008ZM372.175 83.2517V78.7259H376.692V83.2517H372.175ZM372.175 83.2517V78.7259H376.692V83.2517H372.175ZM372.175 83.2517V78.7259H376.692V83.2517H372.175ZM372.175 83.2517V78.7259H376.692V83.2517H372.175ZM372.175 114.126V109.6H376.692V114.126H372.175ZM372.175 114.126V109.6H376.692V114.126H372.175ZM372.175 114.126V109.6H376.692V114.126H372.175ZM372.175 114.126V109.6H376.692V114.126H372.175ZM372.175 145V140.474H376.692V145H372.175ZM372.175 145V140.474H376.692V145H372.175ZM372.175 145V140.474H376.692V145H372.175ZM372.175 145V140.474H376.692V145H372.175Z" fill="#ABBCCF"/>
</g>
<defs>
<clipPath id="clip0_142_243">
<rect width="550" height="145" fill="white"/>
</clipPath>
</defs>
</svg>
