<?xml version="1.0" encoding="UTF-8"?><svg id="wtp-lock-v1-6" xmlns="http://www.w3.org/2000/svg" viewBox="0 0 420 310"><defs><style>.cls-1{fill:#231f20;}</style></defs><path class="cls-1" d="M213.63,115.46h93.54v69.46c0,33.58-7.96,59.75-23.88,78.51-15.92,18.76-40.02,31.11-69.66,37.03v-34.23c22.62-6.58,38.98-18.88,46.44-36.87,4.18-9.66,5.82-18.77,4.94-27.32h-51.38v-86.58ZM204.73,115.46h-93.54v69.46c0,33.58,7.96,59.75,23.88,78.51,15.92,18.76,40.02,31.11,69.66,37.03v-34.23c-22.62-6.58-38.98-18.88-46.44-36.87-4.18-9.66-5.82-18.77-4.94-27.32h51.38v-86.58ZM316.07,202.04h51.38c.88,8.56-.76,17.66-4.94,27.32-7.46,17.99-23.83,30.28-46.44,36.87v34.23c29.64-5.92,53.74-18.27,69.66-37.03,15.92-18.76,23.88-44.93,23.88-78.51v-69.46h-93.54v86.58ZM103.15,115.46H9.61v69.46c0,33.58,7.96,59.75,23.88,78.51,15.92,18.76,40.02,31.11,69.66,37.03v-34.23c-22.62-6.58-38.98-18.88-46.44-36.87-4.18-9.66-5.82-18.77-4.94-27.32h51.38v-86.58Z"/><path class="cls-1" d="M9.61,14.58v-4.12h4.13v4.12h-4.13ZM9.61,14.58v-4.12h4.13v4.12h-4.13ZM9.61,14.58v-4.12h4.13v4.12h-4.13ZM9.61,14.58v-4.12h4.13v4.12h-4.13ZM9.61,20.21v-4.12h4.13v4.12h-4.13ZM9.61,20.21v-4.12h4.13v4.12h-4.13ZM9.61,20.21v-4.12h4.13v4.12h-4.13ZM9.61,20.21v-4.12h4.13v4.12h-4.13ZM9.61,25.83v-4.12h4.13v4.12h-4.13ZM9.61,25.83v-4.12h4.13v4.12h-4.13ZM9.61,25.83v-4.12h4.13v4.12h-4.13ZM9.61,25.83v-4.12h4.13v4.12h-4.13ZM9.61,31.46v-4.13h4.13v4.13h-4.13ZM9.61,31.46v-4.13h4.13v4.13h-4.13ZM9.61,31.46v-4.13h4.13v4.13h-4.13ZM9.61,31.46v-4.13h4.13v4.13h-4.13ZM9.61,37.08v-4.12h4.13v4.12h-4.13ZM9.61,37.08v-4.12h4.13v4.12h-4.13ZM9.61,37.08v-4.12h4.13v4.12h-4.13ZM9.61,37.08v-4.12h4.13v4.12h-4.13ZM9.61,42.7v-4.12h4.13v4.12h-4.13ZM9.61,42.7v-4.12h4.13v4.12h-4.13ZM9.61,42.7v-4.12h4.13v4.12h-4.13ZM9.61,42.7v-4.12h4.13v4.12h-4.13ZM9.61,48.32v-4.12h4.13v4.12h-4.13ZM9.61,48.32v-4.12h4.13v4.12h-4.13ZM9.61,48.32v-4.12h4.13v4.12h-4.13ZM9.61,48.32v-4.12h4.13v4.12h-4.13ZM12.42,53.95v-4.13h4.12v4.13h-4.12ZM12.42,53.95v-4.13h4.12v4.13h-4.12ZM12.42,53.95v-4.13h4.12v4.13h-4.12ZM12.42,53.95v-4.13h4.12v4.13h-4.12ZM15.23,59.57v-4.13h4.13v4.13h-4.13ZM15.23,59.57v-4.13h4.13v4.13h-4.13ZM15.23,59.57v-4.13h4.13v4.13h-4.13ZM15.23,59.57v-4.13h4.13v4.13h-4.13ZM18.04,65.19v-4.13h4.12v4.13h-4.12ZM18.04,65.19v-4.13h4.12v4.13h-4.12ZM18.04,65.19v-4.13h4.12v4.13h-4.12ZM18.04,65.19v-4.13h4.12v4.13h-4.12ZM20.85,70.82v-4.13h4.13v4.13h-4.13ZM20.85,70.82v-4.13h4.13v4.13h-4.13ZM20.85,70.82v-4.13h4.13v4.13h-4.13ZM20.85,70.82v-4.13h4.13v4.13h-4.13ZM23.67,65.19v-4.13h4.12v4.13h-4.12ZM23.67,65.19v-4.13h4.12v4.13h-4.12ZM23.67,65.19v-4.13h4.12v4.13h-4.12ZM23.67,65.19v-4.13h4.12v4.13h-4.12ZM26.48,59.57v-4.13h4.13v4.13h-4.13ZM26.48,59.57v-4.13h4.13v4.13h-4.13ZM26.48,59.57v-4.13h4.13v4.13h-4.13ZM26.48,59.57v-4.13h4.13v4.13h-4.13ZM29.29,53.95v-4.13h4.12v4.13h-4.12ZM29.29,53.95v-4.13h4.12v4.13h-4.12ZM29.29,53.95v-4.13h4.12v4.13h-4.12ZM29.29,53.95v-4.13h4.12v4.13h-4.12ZM32.1,14.58v-4.12h4.13v4.12h-4.13ZM32.1,14.58v-4.12h4.13v4.12h-4.13ZM32.1,14.58v-4.12h4.13v4.12h-4.13ZM32.1,14.58v-4.12h4.13v4.12h-4.13ZM32.1,20.21v-4.12h4.13v4.12h-4.13ZM32.1,20.21v-4.12h4.13v4.12h-4.13ZM32.1,20.21v-4.12h4.13v4.12h-4.13ZM32.1,20.21v-4.12h4.13v4.12h-4.13ZM32.1,25.83v-4.12h4.13v4.12h-4.13ZM32.1,25.83v-4.12h4.13v4.12h-4.13ZM32.1,25.83v-4.12h4.13v4.12h-4.13ZM32.1,25.83v-4.12h4.13v4.12h-4.13ZM32.1,31.46v-4.13h4.13v4.13h-4.13ZM32.1,31.46v-4.13h4.13v4.13h-4.13ZM32.1,31.46v-4.13h4.13v4.13h-4.13ZM32.1,31.46v-4.13h4.13v4.13h-4.13ZM32.1,37.08v-4.12h4.13v4.12h-4.13ZM32.1,37.08v-4.12h4.13v4.12h-4.13ZM32.1,37.08v-4.12h4.13v4.12h-4.13ZM32.1,37.08v-4.12h4.13v4.12h-4.13ZM32.1,42.7v-4.12h4.13v4.12h-4.13ZM32.1,42.7v-4.12h4.13v4.12h-4.13ZM32.1,42.7v-4.12h4.13v4.12h-4.13ZM32.1,42.7v-4.12h4.13v4.12h-4.13ZM32.1,48.32v-4.12h4.13v4.12h-4.13ZM32.1,48.32v-4.12h4.13v4.12h-4.13ZM32.1,48.32v-4.12h4.13v4.12h-4.13ZM32.1,48.32v-4.12h4.13v4.12h-4.13ZM34.92,53.95v-4.13h4.12v4.13h-4.12ZM34.92,53.95v-4.13h4.12v4.13h-4.12ZM34.92,53.95v-4.13h4.12v4.13h-4.12ZM34.92,53.95v-4.13h4.12v4.13h-4.12ZM37.73,59.57v-4.13h4.13v4.13h-4.13ZM37.73,59.57v-4.13h4.13v4.13h-4.13ZM37.73,59.57v-4.13h4.13v4.13h-4.13ZM37.73,59.57v-4.13h4.13v4.13h-4.13ZM40.54,65.19v-4.13h4.13v4.13h-4.13ZM40.54,65.19v-4.13h4.13v4.13h-4.13ZM40.54,65.19v-4.13h4.13v4.13h-4.13ZM40.54,65.19v-4.13h4.13v4.13h-4.13ZM43.35,70.82v-4.13h4.13v4.13h-4.13ZM43.35,70.82v-4.13h4.13v4.13h-4.13ZM43.35,70.82v-4.13h4.13v4.13h-4.13ZM43.35,70.82v-4.13h4.13v4.13h-4.13ZM46.16,65.19v-4.13h4.12v4.13h-4.12ZM46.16,65.19v-4.13h4.12v4.13h-4.12ZM46.16,65.19v-4.13h4.12v4.13h-4.12ZM46.16,65.19v-4.13h4.12v4.13h-4.12ZM48.97,59.57v-4.13h4.13v4.13h-4.13ZM48.97,59.57v-4.13h4.13v4.13h-4.13ZM48.97,59.57v-4.13h4.13v4.13h-4.13ZM48.97,59.57v-4.13h4.13v4.13h-4.13ZM51.79,53.95v-4.13h4.12v4.13h-4.12ZM51.79,53.95v-4.13h4.12v4.13h-4.12ZM51.79,53.95v-4.13h4.12v4.13h-4.12ZM51.79,53.95v-4.13h4.12v4.13h-4.12ZM54.6,14.58v-4.12h4.12v4.12h-4.12ZM54.6,14.58v-4.12h4.12v4.12h-4.12ZM54.6,14.58v-4.12h4.12v4.12h-4.12ZM54.6,14.58v-4.12h4.12v4.12h-4.12ZM54.6,20.21v-4.12h4.12v4.12h-4.12ZM54.6,20.21v-4.12h4.12v4.12h-4.12ZM54.6,20.21v-4.12h4.12v4.12h-4.12ZM54.6,20.21v-4.12h4.12v4.12h-4.12ZM54.6,25.83v-4.12h4.12v4.12h-4.12ZM54.6,25.83v-4.12h4.12v4.12h-4.12ZM54.6,25.83v-4.12h4.12v4.12h-4.12ZM54.6,25.83v-4.12h4.12v4.12h-4.12ZM54.6,31.46v-4.13h4.12v4.13h-4.12ZM54.6,31.46v-4.13h4.12v4.13h-4.12ZM54.6,31.46v-4.13h4.12v4.13h-4.12ZM54.6,31.46v-4.13h4.12v4.13h-4.12ZM54.6,37.08v-4.12h4.12v4.12h-4.12ZM54.6,37.08v-4.12h4.12v4.12h-4.12ZM54.6,37.08v-4.12h4.12v4.12h-4.12ZM54.6,37.08v-4.12h4.12v4.12h-4.12ZM54.6,42.7v-4.12h4.12v4.12h-4.12ZM54.6,42.7v-4.12h4.12v4.12h-4.12ZM54.6,42.7v-4.12h4.12v4.12h-4.12ZM54.6,42.7v-4.12h4.12v4.12h-4.12ZM54.6,48.32v-4.12h4.12v4.12h-4.12ZM54.6,48.32v-4.12h4.12v4.12h-4.12ZM54.6,48.32v-4.12h4.12v4.12h-4.12ZM54.6,48.32v-4.12h4.12v4.12h-4.12ZM66.26,37.08v-4.12h4.13v4.12h-4.13ZM66.26,37.08v-4.12h4.13v4.12h-4.13ZM66.26,37.08v-4.12h4.13v4.12h-4.13ZM66.26,37.08v-4.12h4.13v4.12h-4.13ZM66.26,42.7v-4.12h4.13v4.12h-4.13ZM66.26,42.7v-4.12h4.13v4.12h-4.13ZM66.26,42.7v-4.12h4.13v4.12h-4.13ZM66.26,42.7v-4.12h4.13v4.12h-4.13ZM66.26,48.33v-4.13h4.13v4.13h-4.13ZM66.26,48.33v-4.13h4.13v4.13h-4.13ZM66.26,48.33v-4.13h4.13v4.13h-4.13ZM66.26,48.33v-4.13h4.13v4.13h-4.13ZM66.26,53.95v-4.12h4.13v4.12h-4.13ZM66.26,53.95v-4.12h4.13v4.12h-4.13ZM66.26,53.95v-4.12h4.13v4.12h-4.13ZM66.26,53.95v-4.12h4.13v4.12h-4.13ZM66.26,59.57v-4.12h4.13v4.12h-4.13ZM66.26,59.57v-4.12h4.13v4.12h-4.13ZM66.26,59.57v-4.12h4.13v4.12h-4.13ZM66.26,59.57v-4.12h4.13v4.12h-4.13ZM66.26,65.19v-4.12h4.13v4.12h-4.13ZM66.26,65.19v-4.12h4.13v4.12h-4.13ZM66.26,65.19v-4.12h4.13v4.12h-4.13ZM66.26,65.19v-4.12h4.13v4.12h-4.13ZM71.89,31.45v-4.12h4.12v4.12h-4.12ZM71.89,31.45v-4.12h4.12v4.12h-4.12ZM71.89,31.45v-4.12h4.12v4.12h-4.12ZM71.89,31.45v-4.12h4.12v4.12h-4.12ZM71.89,48.33v-4.13h4.12v4.13h-4.12ZM71.89,48.33v-4.13h4.12v4.13h-4.12ZM71.89,48.33v-4.13h4.12v4.13h-4.12ZM71.89,48.33v-4.13h4.12v4.13h-4.12ZM71.89,70.82v-4.13h4.12v4.13h-4.12ZM71.89,70.82v-4.13h4.12v4.13h-4.12ZM71.89,70.82v-4.13h4.12v4.13h-4.12ZM71.89,70.82v-4.13h4.12v4.13h-4.12ZM77.51,31.45v-4.12h4.13v4.12h-4.13ZM77.51,31.45v-4.12h4.13v4.12h-4.13ZM77.51,31.45v-4.12h4.13v4.12h-4.13ZM77.51,31.45v-4.12h4.13v4.12h-4.13ZM77.51,48.33v-4.13h4.13v4.13h-4.13ZM77.51,48.33v-4.13h4.13v4.13h-4.13ZM77.51,48.33v-4.13h4.13v4.13h-4.13ZM77.51,48.33v-4.13h4.13v4.13h-4.13ZM77.51,70.82v-4.13h4.13v4.13h-4.13ZM77.51,70.82v-4.13h4.13v4.13h-4.13ZM77.51,70.82v-4.13h4.13v4.13h-4.13ZM77.51,70.82v-4.13h4.13v4.13h-4.13ZM83.13,31.45v-4.12h4.13v4.12h-4.13ZM83.13,31.45v-4.12h4.13v4.12h-4.13ZM83.13,31.45v-4.12h4.13v4.12h-4.13ZM83.13,31.45v-4.12h4.13v4.12h-4.13ZM83.13,48.33v-4.13h4.13v4.13h-4.13ZM83.13,48.33v-4.13h4.13v4.13h-4.13ZM83.13,48.33v-4.13h4.13v4.13h-4.13ZM83.13,48.33v-4.13h4.13v4.13h-4.13ZM83.13,70.82v-4.13h4.13v4.13h-4.13ZM83.13,70.82v-4.13h4.13v4.13h-4.13ZM83.13,70.82v-4.13h4.13v4.13h-4.13ZM83.13,70.82v-4.13h4.13v4.13h-4.13ZM88.76,37.08v-4.12h4.12v4.12h-4.12ZM88.76,37.08v-4.12h4.12v4.12h-4.12ZM88.76,37.08v-4.12h4.12v4.12h-4.12ZM88.76,37.08v-4.12h4.12v4.12h-4.12ZM88.76,42.7v-4.12h4.12v4.12h-4.12ZM88.76,42.7v-4.12h4.12v4.12h-4.12ZM88.76,42.7v-4.12h4.12v4.12h-4.12ZM88.76,42.7v-4.12h4.12v4.12h-4.12ZM88.76,48.33v-4.13h4.12v4.13h-4.12ZM88.76,48.33v-4.13h4.12v4.13h-4.12ZM88.76,48.33v-4.13h4.12v4.13h-4.12ZM88.76,48.33v-4.13h4.12v4.13h-4.12ZM88.76,65.19v-4.12h4.12v4.12h-4.12ZM88.76,65.19v-4.12h4.12v4.12h-4.12ZM88.76,65.19v-4.12h4.12v4.12h-4.12ZM88.76,65.19v-4.12h4.12v4.12h-4.12Z"/><path class="cls-1" d="M109.28,14.58v-4.12h4.13v4.12h-4.13ZM109.28,14.58v-4.12h4.13v4.12h-4.13ZM109.28,14.58v-4.12h4.13v4.12h-4.13ZM109.28,14.58v-4.12h4.13v4.12h-4.13ZM114.91,14.58v-4.12h4.12v4.12h-4.12ZM114.91,14.58v-4.12h4.12v4.12h-4.12ZM114.91,14.58v-4.12h4.12v4.12h-4.12ZM114.91,14.58v-4.12h4.12v4.12h-4.12ZM120.53,14.58v-4.12h4.13v4.12h-4.13ZM120.53,14.58v-4.12h4.13v4.12h-4.13ZM120.53,14.58v-4.12h4.13v4.12h-4.13ZM120.53,14.58v-4.12h4.13v4.12h-4.13ZM120.53,20.21v-4.13h4.13v4.13h-4.13ZM120.53,20.21v-4.13h4.13v4.13h-4.13ZM120.53,20.21v-4.13h4.13v4.13h-4.13ZM120.53,20.21v-4.13h4.13v4.13h-4.13ZM120.53,25.83v-4.13h4.13v4.13h-4.13ZM120.53,25.83v-4.13h4.13v4.13h-4.13ZM120.53,25.83v-4.13h4.13v4.13h-4.13ZM120.53,25.83v-4.13h4.13v4.13h-4.13ZM120.53,31.45v-4.13h4.13v4.13h-4.13ZM120.53,31.45v-4.13h4.13v4.13h-4.13ZM120.53,31.45v-4.13h4.13v4.13h-4.13ZM120.53,31.45v-4.13h4.13v4.13h-4.13ZM120.53,37.08v-4.13h4.13v4.13h-4.13ZM120.53,37.08v-4.13h4.13v4.13h-4.13ZM120.53,37.08v-4.13h4.13v4.13h-4.13ZM120.53,37.08v-4.13h4.13v4.13h-4.13ZM120.53,42.7v-4.13h4.13v4.13h-4.13ZM120.53,42.7v-4.13h4.13v4.13h-4.13ZM120.53,42.7v-4.13h4.13v4.13h-4.13ZM120.53,42.7v-4.13h4.13v4.13h-4.13ZM120.53,48.33v-4.13h4.13v4.13h-4.13ZM120.53,48.33v-4.13h4.13v4.13h-4.13ZM120.53,48.33v-4.13h4.13v4.13h-4.13ZM120.53,48.33v-4.13h4.13v4.13h-4.13ZM120.53,53.95v-4.13h4.13v4.13h-4.13ZM120.53,53.95v-4.13h4.13v4.13h-4.13ZM120.53,53.95v-4.13h4.13v4.13h-4.13ZM120.53,53.95v-4.13h4.13v4.13h-4.13ZM120.53,59.57v-4.13h4.13v4.13h-4.13ZM120.53,59.57v-4.13h4.13v4.13h-4.13ZM120.53,59.57v-4.13h4.13v4.13h-4.13ZM120.53,59.57v-4.13h4.13v4.13h-4.13ZM120.53,65.2v-4.13h4.13v4.13h-4.13ZM120.53,65.2v-4.13h4.13v4.13h-4.13ZM120.53,65.2v-4.13h4.13v4.13h-4.13ZM120.53,65.2v-4.13h4.13v4.13h-4.13ZM120.53,70.82v-4.12h4.13v4.12h-4.13ZM120.53,70.82v-4.12h4.13v4.12h-4.13ZM120.53,70.82v-4.12h4.13v4.12h-4.13ZM120.53,70.82v-4.12h4.13v4.12h-4.13ZM126.15,14.58v-4.12h4.13v4.12h-4.13ZM126.15,14.58v-4.12h4.13v4.12h-4.13ZM126.15,14.58v-4.12h4.13v4.12h-4.13ZM126.15,14.58v-4.12h4.13v4.12h-4.13ZM131.78,14.58v-4.12h4.12v4.12h-4.12ZM131.78,14.58v-4.12h4.12v4.12h-4.12ZM131.78,14.58v-4.12h4.12v4.12h-4.12ZM131.78,14.58v-4.12h4.12v4.12h-4.12ZM140.63,14.59v-4.13h4.13v4.13h-4.13ZM140.63,14.59v-4.13h4.13v4.13h-4.13ZM140.63,14.59v-4.13h4.13v4.13h-4.13ZM140.63,14.59v-4.13h4.13v4.13h-4.13ZM140.63,20.21v-4.12h4.13v4.12h-4.13ZM140.63,20.21v-4.12h4.13v4.12h-4.13ZM140.63,20.21v-4.12h4.13v4.12h-4.13ZM140.63,20.21v-4.12h4.13v4.12h-4.13ZM140.63,25.83v-4.12h4.13v4.12h-4.13ZM140.63,25.83v-4.12h4.13v4.12h-4.13ZM140.63,25.83v-4.12h4.13v4.12h-4.13ZM140.63,25.83v-4.12h4.13v4.12h-4.13ZM140.63,31.45v-4.13h4.13v4.13h-4.13ZM140.63,31.45v-4.13h4.13v4.13h-4.13ZM140.63,31.45v-4.13h4.13v4.13h-4.13ZM140.63,31.45v-4.13h4.13v4.13h-4.13ZM140.63,37.08v-4.12h4.13v4.12h-4.13ZM140.63,37.08v-4.12h4.13v4.12h-4.13ZM140.63,37.08v-4.12h4.13v4.12h-4.13ZM140.63,37.08v-4.12h4.13v4.12h-4.13ZM140.63,42.7v-4.12h4.13v4.12h-4.13ZM140.63,42.7v-4.12h4.13v4.12h-4.13ZM140.63,42.7v-4.12h4.13v4.12h-4.13ZM140.63,42.7v-4.12h4.13v4.12h-4.13ZM140.63,48.32v-4.12h4.13v4.12h-4.13ZM140.63,48.32v-4.12h4.13v4.12h-4.13ZM140.63,48.32v-4.12h4.13v4.12h-4.13ZM140.63,48.32v-4.12h4.13v4.12h-4.13ZM140.63,53.95v-4.12h4.13v4.12h-4.13ZM140.63,53.95v-4.12h4.13v4.12h-4.13ZM140.63,53.95v-4.12h4.13v4.12h-4.13ZM140.63,53.95v-4.12h4.13v4.12h-4.13ZM140.63,59.57v-4.12h4.13v4.12h-4.13ZM140.63,59.57v-4.12h4.13v4.12h-4.13ZM140.63,59.57v-4.12h4.13v4.12h-4.13ZM140.63,59.57v-4.12h4.13v4.12h-4.13ZM140.63,65.19v-4.12h4.13v4.12h-4.13ZM140.63,65.19v-4.12h4.13v4.12h-4.13ZM140.63,65.19v-4.12h4.13v4.12h-4.13ZM140.63,65.19v-4.12h4.13v4.12h-4.13ZM140.63,70.82v-4.12h4.13v4.12h-4.13ZM140.63,70.82v-4.12h4.13v4.12h-4.13ZM140.63,70.82v-4.12h4.13v4.12h-4.13ZM140.63,70.82v-4.12h4.13v4.12h-4.13ZM146.26,37.08v-4.12h4.12v4.12h-4.12ZM146.26,37.08v-4.12h4.12v4.12h-4.12ZM146.26,37.08v-4.12h4.12v4.12h-4.12ZM146.26,37.08v-4.12h4.12v4.12h-4.12ZM151.88,31.45v-4.13h4.12v4.13h-4.12ZM151.88,31.45v-4.13h4.12v4.13h-4.12ZM151.88,31.45v-4.13h4.12v4.13h-4.12ZM151.88,31.45v-4.13h4.12v4.13h-4.12ZM157.5,31.45v-4.13h4.13v4.13h-4.13ZM157.5,31.45v-4.13h4.13v4.13h-4.13ZM157.5,31.45v-4.13h4.13v4.13h-4.13ZM157.5,31.45v-4.13h4.13v4.13h-4.13ZM163.13,37.08v-4.12h4.12v4.12h-4.12ZM163.13,37.08v-4.12h4.12v4.12h-4.12ZM163.13,37.08v-4.12h4.12v4.12h-4.12ZM163.13,37.08v-4.12h4.12v4.12h-4.12ZM163.13,42.7v-4.12h4.12v4.12h-4.12ZM163.13,42.7v-4.12h4.12v4.12h-4.12ZM163.13,42.7v-4.12h4.12v4.12h-4.12ZM163.13,42.7v-4.12h4.12v4.12h-4.12ZM163.13,48.32v-4.12h4.12v4.12h-4.12ZM163.13,48.32v-4.12h4.12v4.12h-4.12ZM163.13,48.32v-4.12h4.12v4.12h-4.12ZM163.13,48.32v-4.12h4.12v4.12h-4.12ZM163.13,53.95v-4.12h4.12v4.12h-4.12ZM163.13,53.95v-4.12h4.12v4.12h-4.12ZM163.13,53.95v-4.12h4.12v4.12h-4.12ZM163.13,53.95v-4.12h4.12v4.12h-4.12ZM163.13,59.57v-4.12h4.12v4.12h-4.12ZM163.13,59.57v-4.12h4.12v4.12h-4.12ZM163.13,59.57v-4.12h4.12v4.12h-4.12ZM163.13,59.57v-4.12h4.12v4.12h-4.12ZM163.13,65.19v-4.12h4.12v4.12h-4.12ZM163.13,65.19v-4.12h4.12v4.12h-4.12ZM163.13,65.19v-4.12h4.12v4.12h-4.12ZM163.13,65.19v-4.12h4.12v4.12h-4.12ZM163.13,70.82v-4.12h4.12v4.12h-4.12ZM163.13,70.82v-4.12h4.12v4.12h-4.12ZM163.13,70.82v-4.12h4.12v4.12h-4.12ZM163.13,70.82v-4.12h4.12v4.12h-4.12ZM177.6,37.08v-4.12h4.13v4.12h-4.13ZM177.6,37.08v-4.12h4.13v4.12h-4.13ZM177.6,37.08v-4.12h4.13v4.12h-4.13ZM177.6,37.08v-4.12h4.13v4.12h-4.13ZM177.6,42.7v-4.12h4.13v4.12h-4.13ZM177.6,42.7v-4.12h4.13v4.12h-4.13ZM177.6,42.7v-4.12h4.13v4.12h-4.13ZM177.6,42.7v-4.12h4.13v4.12h-4.13ZM177.6,48.33v-4.13h4.13v4.13h-4.13ZM177.6,48.33v-4.13h4.13v4.13h-4.13ZM177.6,48.33v-4.13h4.13v4.13h-4.13ZM177.6,48.33v-4.13h4.13v4.13h-4.13ZM177.6,53.95v-4.12h4.13v4.12h-4.13ZM177.6,53.95v-4.12h4.13v4.12h-4.13ZM177.6,53.95v-4.12h4.13v4.12h-4.13ZM177.6,53.95v-4.12h4.13v4.12h-4.13ZM177.6,59.57v-4.12h4.13v4.12h-4.13ZM177.6,59.57v-4.12h4.13v4.12h-4.13ZM177.6,59.57v-4.12h4.13v4.12h-4.13ZM177.6,59.57v-4.12h4.13v4.12h-4.13ZM177.6,65.19v-4.12h4.13v4.12h-4.13ZM177.6,65.19v-4.12h4.13v4.12h-4.13ZM177.6,65.19v-4.12h4.13v4.12h-4.13ZM177.6,65.19v-4.12h4.13v4.12h-4.13ZM183.23,31.45v-4.12h4.13v4.12h-4.13ZM183.23,31.45v-4.12h4.13v4.12h-4.13ZM183.23,31.45v-4.12h4.13v4.12h-4.13ZM183.23,31.45v-4.12h4.13v4.12h-4.13ZM183.23,48.33v-4.13h4.13v4.13h-4.13ZM183.23,48.33v-4.13h4.13v4.13h-4.13ZM183.23,48.33v-4.13h4.13v4.13h-4.13ZM183.23,48.33v-4.13h4.13v4.13h-4.13ZM183.23,70.82v-4.13h4.13v4.13h-4.13ZM183.23,70.82v-4.13h4.13v4.13h-4.13ZM183.23,70.82v-4.13h4.13v4.13h-4.13ZM183.23,70.82v-4.13h4.13v4.13h-4.13ZM188.85,31.45v-4.12h4.13v4.12h-4.13ZM188.85,31.45v-4.12h4.13v4.12h-4.13ZM188.85,31.45v-4.12h4.13v4.12h-4.13ZM188.85,31.45v-4.12h4.13v4.12h-4.13ZM188.85,48.33v-4.13h4.13v4.13h-4.13ZM188.85,48.33v-4.13h4.13v4.13h-4.13ZM188.85,48.33v-4.13h4.13v4.13h-4.13ZM188.85,48.33v-4.13h4.13v4.13h-4.13ZM188.85,70.82v-4.13h4.13v4.13h-4.13ZM188.85,70.82v-4.13h4.13v4.13h-4.13ZM188.85,70.82v-4.13h4.13v4.13h-4.13ZM188.85,70.82v-4.13h4.13v4.13h-4.13ZM194.47,31.45v-4.12h4.13v4.12h-4.13ZM194.47,31.45v-4.12h4.13v4.12h-4.13ZM194.47,31.45v-4.12h4.13v4.12h-4.13ZM194.47,31.45v-4.12h4.13v4.12h-4.13ZM194.47,48.33v-4.13h4.13v4.13h-4.13ZM194.47,48.33v-4.13h4.13v4.13h-4.13ZM194.47,48.33v-4.13h4.13v4.13h-4.13ZM194.47,48.33v-4.13h4.13v4.13h-4.13ZM194.47,70.82v-4.13h4.13v4.13h-4.13ZM194.47,70.82v-4.13h4.13v4.13h-4.13ZM194.47,70.82v-4.13h4.13v4.13h-4.13ZM194.47,70.82v-4.13h4.13v4.13h-4.13ZM200.1,37.08v-4.12h4.12v4.12h-4.12ZM200.1,37.08v-4.12h4.12v4.12h-4.12ZM200.1,37.08v-4.12h4.12v4.12h-4.12ZM200.1,37.08v-4.12h4.12v4.12h-4.12ZM200.1,42.7v-4.12h4.12v4.12h-4.12ZM200.1,42.7v-4.12h4.12v4.12h-4.12ZM200.1,42.7v-4.12h4.12v4.12h-4.12ZM200.1,42.7v-4.12h4.12v4.12h-4.12ZM200.1,48.33v-4.13h4.12v4.13h-4.12ZM200.1,48.33v-4.13h4.12v4.13h-4.12ZM200.1,48.33v-4.13h4.12v4.13h-4.12ZM200.1,48.33v-4.13h4.12v4.13h-4.12ZM200.1,65.19v-4.12h4.12v4.12h-4.12ZM200.1,65.19v-4.12h4.12v4.12h-4.12ZM200.1,65.19v-4.12h4.12v4.12h-4.12ZM200.1,65.19v-4.12h4.12v4.12h-4.12Z"/><path class="cls-1" d="M226.25,14.58v-4.12h4.13v4.12h-4.13ZM226.25,14.58v-4.12h4.13v4.12h-4.13ZM226.25,14.58v-4.12h4.13v4.12h-4.13ZM226.25,14.58v-4.12h4.13v4.12h-4.13ZM226.25,20.21v-4.12h4.13v4.12h-4.13ZM226.25,20.21v-4.12h4.13v4.12h-4.13ZM226.25,20.21v-4.12h4.13v4.12h-4.13ZM226.25,20.21v-4.12h4.13v4.12h-4.13ZM226.25,25.83v-4.13h4.13v4.13h-4.13ZM226.25,25.83v-4.13h4.13v4.13h-4.13ZM226.25,25.83v-4.13h4.13v4.13h-4.13ZM226.25,25.83v-4.13h4.13v4.13h-4.13ZM226.25,31.45v-4.12h4.13v4.12h-4.13ZM226.25,31.45v-4.12h4.13v4.12h-4.13ZM226.25,31.45v-4.12h4.13v4.12h-4.13ZM226.25,31.45v-4.12h4.13v4.12h-4.13ZM226.25,37.08v-4.12h4.13v4.12h-4.13ZM226.25,37.08v-4.12h4.13v4.12h-4.13ZM226.25,37.08v-4.12h4.13v4.12h-4.13ZM226.25,37.08v-4.12h4.13v4.12h-4.13ZM226.25,42.7v-4.12h4.13v4.12h-4.13ZM226.25,42.7v-4.12h4.13v4.12h-4.13ZM226.25,42.7v-4.12h4.13v4.12h-4.13ZM226.25,42.7v-4.12h4.13v4.12h-4.13ZM226.25,48.33v-4.13h4.13v4.13h-4.13ZM226.25,48.33v-4.13h4.13v4.13h-4.13ZM226.25,48.33v-4.13h4.13v4.13h-4.13ZM226.25,48.33v-4.13h4.13v4.13h-4.13ZM226.25,53.95v-4.13h4.13v4.13h-4.13ZM226.25,53.95v-4.13h4.13v4.13h-4.13ZM226.25,53.95v-4.13h4.13v4.13h-4.13ZM226.25,53.95v-4.13h4.13v4.13h-4.13ZM226.25,59.57v-4.13h4.13v4.13h-4.13ZM226.25,59.57v-4.13h4.13v4.13h-4.13ZM226.25,59.57v-4.13h4.13v4.13h-4.13ZM226.25,59.57v-4.13h4.13v4.13h-4.13ZM226.25,65.19v-4.13h4.13v4.13h-4.13ZM226.25,65.19v-4.13h4.13v4.13h-4.13ZM226.25,65.19v-4.13h4.13v4.13h-4.13ZM226.25,65.19v-4.13h4.13v4.13h-4.13ZM226.25,70.82v-4.13h4.13v4.13h-4.13ZM226.25,70.82v-4.13h4.13v4.13h-4.13ZM226.25,70.82v-4.13h4.13v4.13h-4.13ZM226.25,70.82v-4.13h4.13v4.13h-4.13ZM231.87,14.58v-4.12h4.12v4.12h-4.12ZM231.87,14.58v-4.12h4.12v4.12h-4.12ZM231.87,14.58v-4.12h4.12v4.12h-4.12ZM231.87,14.58v-4.12h4.12v4.12h-4.12ZM231.87,48.33v-4.13h4.12v4.13h-4.12ZM231.87,48.33v-4.13h4.12v4.13h-4.12ZM231.87,48.33v-4.13h4.12v4.13h-4.12ZM231.87,48.33v-4.13h4.12v4.13h-4.12ZM237.49,14.58v-4.12h4.13v4.12h-4.13ZM237.49,14.58v-4.12h4.13v4.12h-4.13ZM237.49,14.58v-4.12h4.13v4.12h-4.13ZM237.49,14.58v-4.12h4.13v4.12h-4.13ZM237.49,48.33v-4.13h4.13v4.13h-4.13ZM237.49,48.33v-4.13h4.13v4.13h-4.13ZM237.49,48.33v-4.13h4.13v4.13h-4.13ZM237.49,48.33v-4.13h4.13v4.13h-4.13ZM243.11,14.58v-4.12h4.13v4.12h-4.13ZM243.11,14.58v-4.12h4.13v4.12h-4.13ZM243.11,14.58v-4.12h4.13v4.12h-4.13ZM243.11,14.58v-4.12h4.13v4.12h-4.13ZM243.11,48.33v-4.13h4.13v4.13h-4.13ZM243.11,48.33v-4.13h4.13v4.13h-4.13ZM243.11,48.33v-4.13h4.13v4.13h-4.13ZM243.11,48.33v-4.13h4.13v4.13h-4.13ZM248.74,20.21v-4.12h4.12v4.12h-4.12ZM248.74,20.21v-4.12h4.12v4.12h-4.12ZM248.74,20.21v-4.12h4.12v4.12h-4.12ZM248.74,20.21v-4.12h4.12v4.12h-4.12ZM248.74,25.83v-4.13h4.12v4.13h-4.12ZM248.74,25.83v-4.13h4.12v4.13h-4.12ZM248.74,25.83v-4.13h4.12v4.13h-4.12ZM248.74,25.83v-4.13h4.12v4.13h-4.12ZM248.74,31.45v-4.12h4.12v4.12h-4.12ZM248.74,31.45v-4.12h4.12v4.12h-4.12ZM248.74,31.45v-4.12h4.12v4.12h-4.12ZM248.74,31.45v-4.12h4.12v4.12h-4.12ZM248.74,37.08v-4.12h4.12v4.12h-4.12ZM248.74,37.08v-4.12h4.12v4.12h-4.12ZM248.74,37.08v-4.12h4.12v4.12h-4.12ZM248.74,37.08v-4.12h4.12v4.12h-4.12ZM248.74,42.7v-4.12h4.12v4.12h-4.12ZM248.74,42.7v-4.12h4.12v4.12h-4.12ZM248.74,42.7v-4.12h4.12v4.12h-4.12ZM248.74,42.7v-4.12h4.12v4.12h-4.12ZM260.41,37.08v-4.12h4.13v4.12h-4.13ZM260.41,37.08v-4.12h4.13v4.12h-4.13ZM260.41,37.08v-4.12h4.13v4.12h-4.13ZM260.41,37.08v-4.12h4.13v4.12h-4.13ZM260.41,42.7v-4.12h4.13v4.12h-4.13ZM260.41,42.7v-4.12h4.13v4.12h-4.13ZM260.41,42.7v-4.12h4.13v4.12h-4.13ZM260.41,42.7v-4.12h4.13v4.12h-4.13ZM260.41,48.33v-4.13h4.13v4.13h-4.13ZM260.41,48.33v-4.13h4.13v4.13h-4.13ZM260.41,48.33v-4.13h4.13v4.13h-4.13ZM260.41,48.33v-4.13h4.13v4.13h-4.13ZM260.41,53.95v-4.12h4.13v4.12h-4.13ZM260.41,53.95v-4.12h4.13v4.12h-4.13ZM260.41,53.95v-4.12h4.13v4.12h-4.13ZM260.41,53.95v-4.12h4.13v4.12h-4.13ZM260.41,59.57v-4.12h4.13v4.12h-4.13ZM260.41,59.57v-4.12h4.13v4.12h-4.13ZM260.41,59.57v-4.12h4.13v4.12h-4.13ZM260.41,59.57v-4.12h4.13v4.12h-4.13ZM260.41,65.19v-4.12h4.13v4.12h-4.13ZM260.41,65.19v-4.12h4.13v4.12h-4.13ZM260.41,65.19v-4.12h4.13v4.12h-4.13ZM260.41,65.19v-4.12h4.13v4.12h-4.13ZM266.03,31.45v-4.12h4.12v4.12h-4.12ZM266.03,31.45v-4.12h4.12v4.12h-4.12ZM266.03,31.45v-4.12h4.12v4.12h-4.12ZM266.03,31.45v-4.12h4.12v4.12h-4.12ZM266.03,48.33v-4.13h4.12v4.13h-4.12ZM266.03,48.33v-4.13h4.12v4.13h-4.12ZM266.03,48.33v-4.13h4.12v4.13h-4.12ZM266.03,48.33v-4.13h4.12v4.13h-4.12ZM266.03,70.82v-4.13h4.12v4.13h-4.12ZM266.03,70.82v-4.13h4.12v4.13h-4.12ZM266.03,70.82v-4.13h4.12v4.13h-4.12ZM266.03,70.82v-4.13h4.12v4.13h-4.12ZM271.65,31.45v-4.12h4.13v4.12h-4.13ZM271.65,31.45v-4.12h4.13v4.12h-4.13ZM271.65,31.45v-4.12h4.13v4.12h-4.13ZM271.65,31.45v-4.12h4.13v4.12h-4.13ZM271.65,48.33v-4.13h4.13v4.13h-4.13ZM271.65,48.33v-4.13h4.13v4.13h-4.13ZM271.65,48.33v-4.13h4.13v4.13h-4.13ZM271.65,48.33v-4.13h4.13v4.13h-4.13ZM271.65,70.82v-4.13h4.13v4.13h-4.13ZM271.65,70.82v-4.13h4.13v4.13h-4.13ZM271.65,70.82v-4.13h4.13v4.13h-4.13ZM271.65,70.82v-4.13h4.13v4.13h-4.13ZM277.28,31.45v-4.12h4.13v4.12h-4.13ZM277.28,31.45v-4.12h4.13v4.12h-4.13ZM277.28,31.45v-4.12h4.13v4.12h-4.13ZM277.28,31.45v-4.12h4.13v4.12h-4.13ZM277.28,48.33v-4.13h4.13v4.13h-4.13ZM277.28,48.33v-4.13h4.13v4.13h-4.13ZM277.28,48.33v-4.13h4.13v4.13h-4.13ZM277.28,48.33v-4.13h4.13v4.13h-4.13ZM277.28,70.82v-4.13h4.13v4.13h-4.13ZM277.28,70.82v-4.13h4.13v4.13h-4.13ZM277.28,70.82v-4.13h4.13v4.13h-4.13ZM277.28,70.82v-4.13h4.13v4.13h-4.13ZM282.9,37.08v-4.12h4.12v4.12h-4.12ZM282.9,37.08v-4.12h4.12v4.12h-4.12ZM282.9,37.08v-4.12h4.12v4.12h-4.12ZM282.9,37.08v-4.12h4.12v4.12h-4.12ZM282.9,42.7v-4.12h4.12v4.12h-4.12ZM282.9,42.7v-4.12h4.12v4.12h-4.12ZM282.9,42.7v-4.12h4.12v4.12h-4.12ZM282.9,42.7v-4.12h4.12v4.12h-4.12ZM282.9,48.33v-4.13h4.12v4.13h-4.12ZM282.9,48.33v-4.13h4.12v4.13h-4.12ZM282.9,48.33v-4.13h4.12v4.13h-4.12ZM282.9,48.33v-4.13h4.12v4.13h-4.12ZM282.9,65.19v-4.12h4.12v4.12h-4.12ZM282.9,65.19v-4.12h4.12v4.12h-4.12ZM282.9,65.19v-4.12h4.12v4.12h-4.12ZM282.9,65.19v-4.12h4.12v4.12h-4.12ZM294.57,37.08v-4.12h4.13v4.12h-4.13ZM294.57,37.08v-4.12h4.13v4.12h-4.13ZM294.57,37.08v-4.12h4.13v4.12h-4.13ZM294.57,37.08v-4.12h4.13v4.12h-4.13ZM294.57,42.7v-4.12h4.13v4.12h-4.13ZM294.57,42.7v-4.12h4.13v4.12h-4.13ZM294.57,42.7v-4.12h4.13v4.12h-4.13ZM294.57,42.7v-4.12h4.13v4.12h-4.13ZM294.57,48.33v-4.13h4.13v4.13h-4.13ZM294.57,48.33v-4.13h4.13v4.13h-4.13ZM294.57,48.33v-4.13h4.13v4.13h-4.13ZM294.57,48.33v-4.13h4.13v4.13h-4.13ZM294.57,53.95v-4.12h4.13v4.12h-4.13ZM294.57,53.95v-4.12h4.13v4.12h-4.13ZM294.57,53.95v-4.12h4.13v4.12h-4.13ZM294.57,53.95v-4.12h4.13v4.12h-4.13ZM294.57,59.57v-4.12h4.13v4.12h-4.13ZM294.57,59.57v-4.12h4.13v4.12h-4.13ZM294.57,59.57v-4.12h4.13v4.12h-4.13ZM294.57,59.57v-4.12h4.13v4.12h-4.13ZM294.57,65.19v-4.12h4.13v4.12h-4.13ZM294.57,65.19v-4.12h4.13v4.12h-4.13ZM294.57,65.19v-4.12h4.13v4.12h-4.13ZM294.57,65.19v-4.12h4.13v4.12h-4.13ZM300.19,31.45v-4.12h4.12v4.12h-4.12ZM300.19,31.45v-4.12h4.12v4.12h-4.12ZM300.19,31.45v-4.12h4.12v4.12h-4.12ZM300.19,31.45v-4.12h4.12v4.12h-4.12ZM300.19,70.82v-4.13h4.12v4.13h-4.12ZM300.19,70.82v-4.13h4.12v4.13h-4.12ZM300.19,70.82v-4.13h4.12v4.13h-4.12ZM300.19,70.82v-4.13h4.12v4.13h-4.12ZM305.81,31.45v-4.12h4.13v4.12h-4.13ZM305.81,31.45v-4.12h4.13v4.12h-4.13ZM305.81,31.45v-4.12h4.13v4.12h-4.13ZM305.81,31.45v-4.12h4.13v4.12h-4.13ZM305.81,70.82v-4.13h4.13v4.13h-4.13ZM305.81,70.82v-4.13h4.13v4.13h-4.13ZM305.81,70.82v-4.13h4.13v4.13h-4.13ZM305.81,70.82v-4.13h4.13v4.13h-4.13ZM311.44,31.45v-4.12h4.13v4.12h-4.13ZM311.44,31.45v-4.12h4.13v4.12h-4.13ZM311.44,31.45v-4.12h4.13v4.12h-4.13ZM311.44,31.45v-4.12h4.13v4.12h-4.13ZM311.44,70.82v-4.13h4.13v4.13h-4.13ZM311.44,70.82v-4.13h4.13v4.13h-4.13ZM311.44,70.82v-4.13h4.13v4.13h-4.13ZM311.44,70.82v-4.13h4.13v4.13h-4.13ZM317.06,37.08v-4.12h4.12v4.12h-4.12ZM317.06,37.08v-4.12h4.12v4.12h-4.12ZM317.06,37.08v-4.12h4.12v4.12h-4.12ZM317.06,37.08v-4.12h4.12v4.12h-4.12ZM317.06,42.7v-4.12h4.12v4.12h-4.12ZM317.06,42.7v-4.12h4.12v4.12h-4.12ZM317.06,42.7v-4.12h4.12v4.12h-4.12ZM317.06,42.7v-4.12h4.12v4.12h-4.12ZM317.06,48.33v-4.13h4.12v4.13h-4.12ZM317.06,48.33v-4.13h4.12v4.13h-4.12ZM317.06,48.33v-4.13h4.12v4.13h-4.12ZM317.06,48.33v-4.13h4.12v4.13h-4.12ZM317.06,53.95v-4.12h4.12v4.12h-4.12ZM317.06,53.95v-4.12h4.12v4.12h-4.12ZM317.06,53.95v-4.12h4.12v4.12h-4.12ZM317.06,53.95v-4.12h4.12v4.12h-4.12ZM317.06,59.57v-4.12h4.12v4.12h-4.12ZM317.06,59.57v-4.12h4.12v4.12h-4.12ZM317.06,59.57v-4.12h4.12v4.12h-4.12ZM317.06,59.57v-4.12h4.12v4.12h-4.12ZM317.06,65.19v-4.12h4.12v4.12h-4.12ZM317.06,65.19v-4.12h4.12v4.12h-4.12ZM317.06,65.19v-4.12h4.12v4.12h-4.12ZM317.06,65.19v-4.12h4.12v4.12h-4.12ZM331.54,31.45v-4.12h4.13v4.12h-4.13ZM331.54,31.45v-4.12h4.13v4.12h-4.13ZM331.54,31.45v-4.12h4.13v4.12h-4.13ZM331.54,31.45v-4.12h4.13v4.12h-4.13ZM331.54,37.08v-4.12h4.13v4.12h-4.13ZM331.54,37.08v-4.12h4.13v4.12h-4.13ZM331.54,37.08v-4.12h4.13v4.12h-4.13ZM331.54,37.08v-4.12h4.13v4.12h-4.13ZM331.54,42.7v-4.12h4.13v4.12h-4.13ZM331.54,42.7v-4.12h4.13v4.12h-4.13ZM331.54,42.7v-4.12h4.13v4.12h-4.13ZM331.54,42.7v-4.12h4.13v4.12h-4.13ZM331.54,48.33v-4.13h4.13v4.13h-4.13ZM331.54,48.33v-4.13h4.13v4.13h-4.13ZM331.54,48.33v-4.13h4.13v4.13h-4.13ZM331.54,48.33v-4.13h4.13v4.13h-4.13ZM331.54,53.95v-4.12h4.13v4.12h-4.13ZM331.54,53.95v-4.12h4.13v4.12h-4.13ZM331.54,53.95v-4.12h4.13v4.12h-4.13ZM331.54,53.95v-4.12h4.13v4.12h-4.13ZM331.54,59.57v-4.12h4.13v4.12h-4.13ZM331.54,59.57v-4.12h4.13v4.12h-4.13ZM331.54,59.57v-4.12h4.13v4.12h-4.13ZM331.54,59.57v-4.12h4.13v4.12h-4.13ZM331.54,65.19v-4.12h4.13v4.12h-4.13ZM331.54,65.19v-4.12h4.13v4.12h-4.13ZM331.54,65.19v-4.12h4.13v4.12h-4.13ZM331.54,65.19v-4.12h4.13v4.12h-4.13ZM331.54,70.82v-4.13h4.13v4.13h-4.13ZM331.54,70.82v-4.13h4.13v4.13h-4.13ZM331.54,70.82v-4.13h4.13v4.13h-4.13ZM331.54,70.82v-4.13h4.13v4.13h-4.13ZM331.54,76.44v-4.13h4.13v4.13h-4.13ZM331.54,76.44v-4.13h4.13v4.13h-4.13ZM331.54,76.44v-4.13h4.13v4.13h-4.13ZM331.54,76.44v-4.13h4.13v4.13h-4.13ZM331.54,82.06v-4.13h4.13v4.13h-4.13ZM331.54,82.06v-4.13h4.13v4.13h-4.13ZM331.54,82.06v-4.13h4.13v4.13h-4.13ZM331.54,82.06v-4.13h4.13v4.13h-4.13ZM331.54,87.69v-4.13h4.13v4.13h-4.13ZM331.54,87.69v-4.13h4.13v4.13h-4.13ZM331.54,87.69v-4.13h4.13v4.13h-4.13ZM331.54,87.69v-4.13h4.13v4.13h-4.13ZM337.17,37.08v-4.12h4.12v4.12h-4.12ZM337.17,37.08v-4.12h4.12v4.12h-4.12ZM337.17,37.08v-4.12h4.12v4.12h-4.12ZM337.17,37.08v-4.12h4.12v4.12h-4.12ZM337.17,65.19v-4.12h4.12v4.12h-4.12ZM337.17,65.19v-4.12h4.12v4.12h-4.12ZM337.17,65.19v-4.12h4.12v4.12h-4.12ZM337.17,65.19v-4.12h4.12v4.12h-4.12ZM342.79,31.45v-4.12h4.13v4.12h-4.13ZM342.79,31.45v-4.12h4.13v4.12h-4.13ZM342.79,31.45v-4.12h4.13v4.12h-4.13ZM342.79,31.45v-4.12h4.13v4.12h-4.13ZM342.79,70.82v-4.13h4.13v4.13h-4.13ZM342.79,70.82v-4.13h4.13v4.13h-4.13ZM342.79,70.82v-4.13h4.13v4.13h-4.13ZM342.79,70.82v-4.13h4.13v4.13h-4.13ZM348.41,31.45v-4.12h4.13v4.12h-4.13ZM348.41,31.45v-4.12h4.13v4.12h-4.13ZM348.41,31.45v-4.12h4.13v4.12h-4.13ZM348.41,31.45v-4.12h4.13v4.12h-4.13ZM348.41,70.82v-4.13h4.13v4.13h-4.13ZM348.41,70.82v-4.13h4.13v4.13h-4.13ZM348.41,70.82v-4.13h4.13v4.13h-4.13ZM348.41,70.82v-4.13h4.13v4.13h-4.13ZM354.03,37.08v-4.12h4.12v4.12h-4.12ZM354.03,37.08v-4.12h4.12v4.12h-4.12ZM354.03,37.08v-4.12h4.12v4.12h-4.12ZM354.03,37.08v-4.12h4.12v4.12h-4.12ZM354.03,42.7v-4.12h4.12v4.12h-4.12ZM354.03,42.7v-4.12h4.12v4.12h-4.12ZM354.03,42.7v-4.12h4.12v4.12h-4.12ZM354.03,42.7v-4.12h4.12v4.12h-4.12ZM354.03,48.33v-4.13h4.12v4.13h-4.12ZM354.03,48.33v-4.13h4.12v4.13h-4.12ZM354.03,48.33v-4.13h4.12v4.13h-4.12ZM354.03,48.33v-4.13h4.12v4.13h-4.12ZM354.03,53.95v-4.12h4.12v4.12h-4.12ZM354.03,53.95v-4.12h4.12v4.12h-4.12ZM354.03,53.95v-4.12h4.12v4.12h-4.12ZM354.03,53.95v-4.12h4.12v4.12h-4.12ZM354.03,59.57v-4.12h4.12v4.12h-4.12ZM354.03,59.57v-4.12h4.12v4.12h-4.12ZM354.03,59.57v-4.12h4.12v4.12h-4.12ZM354.03,59.57v-4.12h4.12v4.12h-4.12ZM354.03,65.19v-4.12h4.12v4.12h-4.12ZM354.03,65.19v-4.12h4.12v4.12h-4.12ZM354.03,65.19v-4.12h4.12v4.12h-4.12ZM354.03,65.19v-4.12h4.12v4.12h-4.12ZM368.51,14.59v-4.13h4.12v4.13h-4.12ZM368.51,14.59v-4.13h4.12v4.13h-4.12ZM368.51,14.59v-4.13h4.12v4.13h-4.12ZM368.51,14.59v-4.13h4.12v4.13h-4.12ZM368.51,20.21v-4.12h4.12v4.12h-4.12ZM368.51,20.21v-4.12h4.12v4.12h-4.12ZM368.51,20.21v-4.12h4.12v4.12h-4.12ZM368.51,20.21v-4.12h4.12v4.12h-4.12ZM368.51,25.83v-4.12h4.12v4.12h-4.12ZM368.51,25.83v-4.12h4.12v4.12h-4.12ZM368.51,25.83v-4.12h4.12v4.12h-4.12ZM368.51,25.83v-4.12h4.12v4.12h-4.12ZM368.51,31.45v-4.13h4.12v4.13h-4.12ZM368.51,31.45v-4.13h4.12v4.13h-4.12ZM368.51,31.45v-4.13h4.12v4.13h-4.12ZM368.51,31.45v-4.13h4.12v4.13h-4.12ZM368.51,37.08v-4.12h4.12v4.12h-4.12ZM368.51,37.08v-4.12h4.12v4.12h-4.12ZM368.51,37.08v-4.12h4.12v4.12h-4.12ZM368.51,37.08v-4.12h4.12v4.12h-4.12ZM368.51,42.7v-4.12h4.12v4.12h-4.12ZM368.51,42.7v-4.12h4.12v4.12h-4.12ZM368.51,42.7v-4.12h4.12v4.12h-4.12ZM368.51,42.7v-4.12h4.12v4.12h-4.12ZM368.51,48.32v-4.12h4.12v4.12h-4.12ZM368.51,48.32v-4.12h4.12v4.12h-4.12ZM368.51,48.32v-4.12h4.12v4.12h-4.12ZM368.51,48.32v-4.12h4.12v4.12h-4.12ZM368.51,53.95v-4.12h4.12v4.12h-4.12ZM368.51,53.95v-4.12h4.12v4.12h-4.12ZM368.51,53.95v-4.12h4.12v4.12h-4.12ZM368.51,53.95v-4.12h4.12v4.12h-4.12ZM368.51,59.57v-4.12h4.12v4.12h-4.12ZM368.51,59.57v-4.12h4.12v4.12h-4.12ZM368.51,59.57v-4.12h4.12v4.12h-4.12ZM368.51,59.57v-4.12h4.12v4.12h-4.12ZM368.51,65.19v-4.12h4.12v4.12h-4.12ZM368.51,65.19v-4.12h4.12v4.12h-4.12ZM368.51,65.19v-4.12h4.12v4.12h-4.12ZM368.51,65.19v-4.12h4.12v4.12h-4.12ZM368.51,70.82v-4.12h4.12v4.12h-4.12ZM368.51,70.82v-4.12h4.12v4.12h-4.12ZM368.51,70.82v-4.12h4.12v4.12h-4.12ZM368.51,70.82v-4.12h4.12v4.12h-4.12ZM382.99,37.08v-4.12h4.13v4.12h-4.13ZM382.99,37.08v-4.12h4.13v4.12h-4.13ZM382.99,37.08v-4.12h4.13v4.12h-4.13ZM382.99,37.08v-4.12h4.13v4.12h-4.13ZM382.99,42.7v-4.12h4.13v4.12h-4.13ZM382.99,42.7v-4.12h4.13v4.12h-4.13ZM382.99,42.7v-4.12h4.13v4.12h-4.13ZM382.99,42.7v-4.12h4.13v4.12h-4.13ZM382.99,48.33v-4.13h4.13v4.13h-4.13ZM382.99,48.33v-4.13h4.13v4.13h-4.13ZM382.99,48.33v-4.13h4.13v4.13h-4.13ZM382.99,48.33v-4.13h4.13v4.13h-4.13ZM382.99,53.95v-4.12h4.13v4.12h-4.13ZM382.99,53.95v-4.12h4.13v4.12h-4.13ZM382.99,53.95v-4.12h4.13v4.12h-4.13ZM382.99,53.95v-4.12h4.13v4.12h-4.13ZM382.99,59.57v-4.12h4.13v4.12h-4.13ZM382.99,59.57v-4.12h4.13v4.12h-4.13ZM382.99,59.57v-4.12h4.13v4.12h-4.13ZM382.99,59.57v-4.12h4.13v4.12h-4.13ZM382.99,65.19v-4.12h4.13v4.12h-4.13ZM382.99,65.19v-4.12h4.13v4.12h-4.13ZM382.99,65.19v-4.12h4.13v4.12h-4.13ZM382.99,65.19v-4.12h4.13v4.12h-4.13ZM388.62,31.45v-4.12h4.13v4.12h-4.13ZM388.62,31.45v-4.12h4.13v4.12h-4.13ZM388.62,31.45v-4.12h4.13v4.12h-4.13ZM388.62,31.45v-4.12h4.13v4.12h-4.13ZM388.62,48.33v-4.13h4.13v4.13h-4.13ZM388.62,48.33v-4.13h4.13v4.13h-4.13ZM388.62,48.33v-4.13h4.13v4.13h-4.13ZM388.62,48.33v-4.13h4.13v4.13h-4.13ZM388.62,70.82v-4.13h4.13v4.13h-4.13ZM388.62,70.82v-4.13h4.13v4.13h-4.13ZM388.62,70.82v-4.13h4.13v4.13h-4.13ZM388.62,70.82v-4.13h4.13v4.13h-4.13ZM394.24,31.45v-4.12h4.13v4.12h-4.13ZM394.24,31.45v-4.12h4.13v4.12h-4.13ZM394.24,31.45v-4.12h4.13v4.12h-4.13ZM394.24,31.45v-4.12h4.13v4.12h-4.13ZM394.24,48.33v-4.13h4.13v4.13h-4.13ZM394.24,48.33v-4.13h4.13v4.13h-4.13ZM394.24,48.33v-4.13h4.13v4.13h-4.13ZM394.24,48.33v-4.13h4.13v4.13h-4.13ZM394.24,70.82v-4.13h4.13v4.13h-4.13ZM394.24,70.82v-4.13h4.13v4.13h-4.13ZM394.24,70.82v-4.13h4.13v4.13h-4.13ZM394.24,70.82v-4.13h4.13v4.13h-4.13ZM399.86,31.45v-4.12h4.13v4.12h-4.13ZM399.86,31.45v-4.12h4.13v4.12h-4.13ZM399.86,31.45v-4.12h4.13v4.12h-4.13ZM399.86,31.45v-4.12h4.13v4.12h-4.13ZM399.86,48.33v-4.13h4.13v4.13h-4.13ZM399.86,48.33v-4.13h4.13v4.13h-4.13ZM399.86,48.33v-4.13h4.13v4.13h-4.13ZM399.86,48.33v-4.13h4.13v4.13h-4.13ZM399.86,70.82v-4.13h4.13v4.13h-4.13ZM399.86,70.82v-4.13h4.13v4.13h-4.13ZM399.86,70.82v-4.13h4.13v4.13h-4.13ZM399.86,70.82v-4.13h4.13v4.13h-4.13ZM405.49,37.08v-4.12h4.12v4.12h-4.12ZM405.49,37.08v-4.12h4.12v4.12h-4.12ZM405.49,37.08v-4.12h4.12v4.12h-4.12ZM405.49,37.08v-4.12h4.12v4.12h-4.12ZM405.49,42.7v-4.12h4.12v4.12h-4.12ZM405.49,42.7v-4.12h4.12v4.12h-4.12ZM405.49,42.7v-4.12h4.12v4.12h-4.12ZM405.49,42.7v-4.12h4.12v4.12h-4.12ZM405.49,48.33v-4.13h4.12v4.13h-4.12ZM405.49,48.33v-4.13h4.12v4.13h-4.12ZM405.49,48.33v-4.13h4.12v4.13h-4.12ZM405.49,48.33v-4.13h4.12v4.13h-4.12ZM405.49,65.19v-4.12h4.12v4.12h-4.12ZM405.49,65.19v-4.12h4.12v4.12h-4.12ZM405.49,65.19v-4.12h4.12v4.12h-4.12ZM405.49,65.19v-4.12h4.12v4.12h-4.12Z"/></svg>