<?xml version="1.0" encoding="UTF-8"?><svg id="wtp-quote-icon-5" xmlns="http://www.w3.org/2000/svg" viewBox="0 0 320 160"><defs><style>.cls-1{fill:#080a14;}</style></defs><path class="cls-1" d="M163.02,10h70.16v52.56c0,25.41-5.97,45.21-17.91,59.41-11.94,14.2-30.01,23.54-52.25,28.02v-25.91c16.96-4.98,29.23-14.29,34.83-27.9,3.13-7.31,4.36-14.2,3.7-20.68h-38.54V10Z"/><path class="cls-1" d="M156.34,10h-70.16v52.56c0,25.41,5.97,45.21,17.91,59.41,11.94,14.2,30.01,23.54,52.25,28.02v-25.91c-16.96-4.98-29.23-14.29-34.83-27.9-3.13-7.31-4.36-14.2-3.7-20.68h38.54V10Z"/><path class="cls-1" d="M239.84,10h70.16v52.56c0,25.41-5.97,45.21-17.91,59.41-11.94,14.2-30.01,23.54-52.25,28.02v-25.91c16.96-4.98,29.23-14.29,34.83-27.9,3.13-7.31,4.36-14.2,3.71-20.68h-38.54V10Z"/><path class="cls-1" d="M80.16,10H10v52.56c0,25.41,5.97,45.21,17.91,59.41,11.94,14.2,30.01,23.54,52.25,28.02v-25.91c-16.96-4.98-29.23-14.29-34.83-27.9-3.13-7.31-4.36-14.2-3.7-20.68h38.54V10Z"/></svg>