<?xml version="1.0" encoding="UTF-8"?><svg id="wtp-lock-v2-3" xmlns="http://www.w3.org/2000/svg" viewBox="0 0 420 520"><defs><style>.cls-1{fill:#abbdcf;}</style></defs><path class="cls-1" d="M214.18,10h93.54v69.46c0,33.58-7.96,59.75-23.88,78.51-15.92,18.76-40.02,31.11-69.66,37.03v-34.23c22.62-6.58,38.98-18.88,46.44-36.87,4.18-9.66,5.82-18.77,4.94-27.32h-51.38V10ZM205.29,10h-93.54v69.46c0,33.58,7.96,59.75,23.88,78.51,15.92,18.76,40.02,31.11,69.66,37.03v-34.23c-22.62-6.58-38.98-18.88-46.44-36.87-4.18-9.66-5.82-18.77-4.94-27.32h51.38V10ZM316.62,96.58h51.38c.88,8.56-.76,17.66-4.94,27.32-7.46,17.99-23.83,30.28-46.44,36.87v34.23c29.64-5.92,53.74-18.27,69.66-37.03,15.92-18.76,23.88-44.93,23.88-78.51V10h-93.54v86.58ZM103.7,10H10.16v69.46c0,33.58,7.96,59.75,23.88,78.51,15.92,18.76,40.02,31.11,69.66,37.03v-34.23c-22.62-6.58-38.98-18.88-46.44-36.87-4.18-9.66-5.82-18.77-4.94-27.32h51.38V10Z"/><path class="cls-1" d="M10,243.39v-8.29h8.29v8.29h-8.29ZM10,243.39v-8.29h8.29v8.29h-8.29ZM10,243.39v-8.29h8.29v8.29h-8.29ZM10,243.39v-8.29h8.29v8.29h-8.29ZM10,254.7v-8.29h8.29v8.29h-8.29ZM10,254.7v-8.29h8.29v8.29h-8.29ZM10,254.7v-8.29h8.29v8.29h-8.29ZM10,254.7v-8.29h8.29v8.29h-8.29ZM10,266.01v-8.29h8.29v8.29h-8.29ZM10,266.01v-8.29h8.29v8.29h-8.29ZM10,266.01v-8.29h8.29v8.29h-8.29ZM10,266.01v-8.29h8.29v8.29h-8.29ZM10,277.32v-8.29h8.29v8.29h-8.29ZM10,277.32v-8.29h8.29v8.29h-8.29ZM10,277.32v-8.29h8.29v8.29h-8.29ZM10,277.32v-8.29h8.29v8.29h-8.29ZM10,288.63v-8.29h8.29v8.29h-8.29ZM10,288.63v-8.29h8.29v8.29h-8.29ZM10,288.63v-8.29h8.29v8.29h-8.29ZM10,288.63v-8.29h8.29v8.29h-8.29ZM10,299.94v-8.29h8.29v8.29h-8.29ZM10,299.94v-8.29h8.29v8.29h-8.29ZM10,299.94v-8.29h8.29v8.29h-8.29ZM10,299.94v-8.29h8.29v8.29h-8.29ZM10,311.24v-8.29h8.29v8.29h-8.29ZM10,311.24v-8.29h8.29v8.29h-8.29ZM10,311.24v-8.29h8.29v8.29h-8.29ZM10,311.24v-8.29h8.29v8.29h-8.29ZM15.65,322.55v-8.29h8.29v8.29h-8.29ZM15.65,322.55v-8.29h8.29v8.29h-8.29ZM15.65,322.55v-8.29h8.29v8.29h-8.29ZM15.65,322.55v-8.29h8.29v8.29h-8.29ZM21.31,333.86v-8.29h8.29v8.29h-8.29ZM21.31,333.86v-8.29h8.29v8.29h-8.29ZM21.31,333.86v-8.29h8.29v8.29h-8.29ZM21.31,333.86v-8.29h8.29v8.29h-8.29ZM26.96,345.17v-8.29h8.29v8.29h-8.29ZM26.96,345.17v-8.29h8.29v8.29h-8.29ZM26.96,345.17v-8.29h8.29v8.29h-8.29ZM26.96,345.17v-8.29h8.29v8.29h-8.29ZM32.62,356.48v-8.29h8.29v8.29h-8.29ZM32.62,356.48v-8.29h8.29v8.29h-8.29ZM32.62,356.48v-8.29h8.29v8.29h-8.29ZM32.62,356.48v-8.29h8.29v8.29h-8.29ZM38.27,345.17v-8.29h8.29v8.29h-8.29ZM38.27,345.17v-8.29h8.29v8.29h-8.29ZM38.27,345.17v-8.29h8.29v8.29h-8.29ZM38.27,345.17v-8.29h8.29v8.29h-8.29ZM43.93,333.86v-8.29h8.29v8.29h-8.29ZM43.93,333.86v-8.29h8.29v8.29h-8.29ZM43.93,333.86v-8.29h8.29v8.29h-8.29ZM43.93,333.86v-8.29h8.29v8.29h-8.29ZM49.58,322.55v-8.29h8.29v8.29h-8.29ZM49.58,322.55v-8.29h8.29v8.29h-8.29ZM49.58,322.55v-8.29h8.29v8.29h-8.29ZM49.58,322.55v-8.29h8.29v8.29h-8.29ZM55.23,243.39v-8.29h8.29v8.29h-8.29ZM55.23,243.39v-8.29h8.29v8.29h-8.29ZM55.23,243.39v-8.29h8.29v8.29h-8.29ZM55.23,243.39v-8.29h8.29v8.29h-8.29ZM55.23,254.7v-8.29h8.29v8.29h-8.29ZM55.23,254.7v-8.29h8.29v8.29h-8.29ZM55.23,254.7v-8.29h8.29v8.29h-8.29ZM55.23,254.7v-8.29h8.29v8.29h-8.29ZM55.23,266.01v-8.29h8.29v8.29h-8.29ZM55.23,266.01v-8.29h8.29v8.29h-8.29ZM55.23,266.01v-8.29h8.29v8.29h-8.29ZM55.23,266.01v-8.29h8.29v8.29h-8.29ZM55.23,277.32v-8.29h8.29v8.29h-8.29ZM55.23,277.32v-8.29h8.29v8.29h-8.29ZM55.23,277.32v-8.29h8.29v8.29h-8.29ZM55.23,277.32v-8.29h8.29v8.29h-8.29ZM55.23,288.63v-8.29h8.29v8.29h-8.29ZM55.23,288.63v-8.29h8.29v8.29h-8.29ZM55.23,288.63v-8.29h8.29v8.29h-8.29ZM55.23,288.63v-8.29h8.29v8.29h-8.29ZM55.23,299.94v-8.29h8.29v8.29h-8.29ZM55.23,299.94v-8.29h8.29v8.29h-8.29ZM55.23,299.94v-8.29h8.29v8.29h-8.29ZM55.23,299.94v-8.29h8.29v8.29h-8.29ZM55.23,311.24v-8.29h8.29v8.29h-8.29ZM55.23,311.24v-8.29h8.29v8.29h-8.29ZM55.23,311.24v-8.29h8.29v8.29h-8.29ZM55.23,311.24v-8.29h8.29v8.29h-8.29ZM60.89,322.55v-8.29h8.29v8.29h-8.29ZM60.89,322.55v-8.29h8.29v8.29h-8.29ZM60.89,322.55v-8.29h8.29v8.29h-8.29ZM60.89,322.55v-8.29h8.29v8.29h-8.29ZM66.54,333.86v-8.29h8.29v8.29h-8.29ZM66.54,333.86v-8.29h8.29v8.29h-8.29ZM66.54,333.86v-8.29h8.29v8.29h-8.29ZM66.54,333.86v-8.29h8.29v8.29h-8.29ZM72.2,345.17v-8.29h8.29v8.29h-8.29ZM72.2,345.17v-8.29h8.29v8.29h-8.29ZM72.2,345.17v-8.29h8.29v8.29h-8.29ZM72.2,345.17v-8.29h8.29v8.29h-8.29ZM77.85,356.48v-8.29h8.29v8.29h-8.29ZM77.85,356.48v-8.29h8.29v8.29h-8.29ZM77.85,356.48v-8.29h8.29v8.29h-8.29ZM77.85,356.48v-8.29h8.29v8.29h-8.29ZM83.5,345.17v-8.29h8.29v8.29h-8.29ZM83.5,345.17v-8.29h8.29v8.29h-8.29ZM83.5,345.17v-8.29h8.29v8.29h-8.29ZM83.5,345.17v-8.29h8.29v8.29h-8.29ZM89.16,333.86v-8.29h8.29v8.29h-8.29ZM89.16,333.86v-8.29h8.29v8.29h-8.29ZM89.16,333.86v-8.29h8.29v8.29h-8.29ZM89.16,333.86v-8.29h8.29v8.29h-8.29ZM94.81,322.55v-8.29h8.29v8.29h-8.29ZM94.81,322.55v-8.29h8.29v8.29h-8.29ZM94.81,322.55v-8.29h8.29v8.29h-8.29ZM94.81,322.55v-8.29h8.29v8.29h-8.29ZM100.47,243.39v-8.29h8.29v8.29h-8.29ZM100.47,243.39v-8.29h8.29v8.29h-8.29ZM100.47,243.39v-8.29h8.29v8.29h-8.29ZM100.47,243.39v-8.29h8.29v8.29h-8.29ZM100.47,254.7v-8.29h8.29v8.29h-8.29ZM100.47,254.7v-8.29h8.29v8.29h-8.29ZM100.47,254.7v-8.29h8.29v8.29h-8.29ZM100.47,254.7v-8.29h8.29v8.29h-8.29ZM100.47,266.01v-8.29h8.29v8.29h-8.29ZM100.47,266.01v-8.29h8.29v8.29h-8.29ZM100.47,266.01v-8.29h8.29v8.29h-8.29ZM100.47,266.01v-8.29h8.29v8.29h-8.29ZM100.47,277.32v-8.29h8.29v8.29h-8.29ZM100.47,277.32v-8.29h8.29v8.29h-8.29ZM100.47,277.32v-8.29h8.29v8.29h-8.29ZM100.47,277.32v-8.29h8.29v8.29h-8.29ZM100.47,288.63v-8.29h8.29v8.29h-8.29ZM100.47,288.63v-8.29h8.29v8.29h-8.29ZM100.47,288.63v-8.29h8.29v8.29h-8.29ZM100.47,288.63v-8.29h8.29v8.29h-8.29ZM100.47,299.94v-8.29h8.29v8.29h-8.29ZM100.47,299.94v-8.29h8.29v8.29h-8.29ZM100.47,299.94v-8.29h8.29v8.29h-8.29ZM100.47,299.94v-8.29h8.29v8.29h-8.29ZM100.47,311.24v-8.29h8.29v8.29h-8.29ZM100.47,311.24v-8.29h8.29v8.29h-8.29ZM100.47,311.24v-8.29h8.29v8.29h-8.29ZM100.47,311.24v-8.29h8.29v8.29h-8.29ZM127.47,243.39v-8.29h8.29v8.29h-8.29ZM127.47,243.39v-8.29h8.29v8.29h-8.29ZM127.47,243.39v-8.29h8.29v8.29h-8.29ZM127.47,243.39v-8.29h8.29v8.29h-8.29ZM127.47,254.7v-8.29h8.29v8.29h-8.29ZM127.47,254.7v-8.29h8.29v8.29h-8.29ZM127.47,254.7v-8.29h8.29v8.29h-8.29ZM127.47,254.7v-8.29h8.29v8.29h-8.29ZM127.47,266.01v-8.29h8.29v8.29h-8.29ZM127.47,266.01v-8.29h8.29v8.29h-8.29ZM127.47,266.01v-8.29h8.29v8.29h-8.29ZM127.47,266.01v-8.29h8.29v8.29h-8.29ZM127.47,277.32v-8.29h8.29v8.29h-8.29ZM127.47,277.32v-8.29h8.29v8.29h-8.29ZM127.47,277.32v-8.29h8.29v8.29h-8.29ZM127.47,277.32v-8.29h8.29v8.29h-8.29ZM127.47,288.63v-8.29h8.29v8.29h-8.29ZM127.47,288.63v-8.29h8.29v8.29h-8.29ZM127.47,288.63v-8.29h8.29v8.29h-8.29ZM127.47,288.63v-8.29h8.29v8.29h-8.29ZM127.47,299.94v-8.29h8.29v8.29h-8.29ZM127.47,299.94v-8.29h8.29v8.29h-8.29ZM127.47,299.94v-8.29h8.29v8.29h-8.29ZM127.47,299.94v-8.29h8.29v8.29h-8.29ZM127.47,311.24v-8.29h8.29v8.29h-8.29ZM127.47,311.24v-8.29h8.29v8.29h-8.29ZM127.47,311.24v-8.29h8.29v8.29h-8.29ZM127.47,311.24v-8.29h8.29v8.29h-8.29ZM127.47,322.55v-8.29h8.29v8.29h-8.29ZM127.47,322.55v-8.29h8.29v8.29h-8.29ZM127.47,322.55v-8.29h8.29v8.29h-8.29ZM127.47,322.55v-8.29h8.29v8.29h-8.29ZM127.47,333.86v-8.29h8.29v8.29h-8.29ZM127.47,333.86v-8.29h8.29v8.29h-8.29ZM127.47,333.86v-8.29h8.29v8.29h-8.29ZM127.47,333.86v-8.29h8.29v8.29h-8.29ZM127.47,345.17v-8.29h8.29v8.29h-8.29ZM127.47,345.17v-8.29h8.29v8.29h-8.29ZM127.47,345.17v-8.29h8.29v8.29h-8.29ZM127.47,345.17v-8.29h8.29v8.29h-8.29ZM127.47,356.48v-8.29h8.29v8.29h-8.29ZM127.47,356.48v-8.29h8.29v8.29h-8.29ZM127.47,356.48v-8.29h8.29v8.29h-8.29ZM127.47,356.48v-8.29h8.29v8.29h-8.29ZM138.78,243.39v-8.29h8.29v8.29h-8.29ZM138.78,243.39v-8.29h8.29v8.29h-8.29ZM138.78,243.39v-8.29h8.29v8.29h-8.29ZM138.78,243.39v-8.29h8.29v8.29h-8.29ZM138.78,299.94v-8.29h8.29v8.29h-8.29ZM138.78,299.94v-8.29h8.29v8.29h-8.29ZM138.78,299.94v-8.29h8.29v8.29h-8.29ZM138.78,299.94v-8.29h8.29v8.29h-8.29ZM138.78,356.48v-8.29h8.29v8.29h-8.29ZM138.78,356.48v-8.29h8.29v8.29h-8.29ZM138.78,356.48v-8.29h8.29v8.29h-8.29ZM138.78,356.48v-8.29h8.29v8.29h-8.29ZM150.09,243.39v-8.29h8.29v8.29h-8.29ZM150.09,243.39v-8.29h8.29v8.29h-8.29ZM150.09,243.39v-8.29h8.29v8.29h-8.29ZM150.09,243.39v-8.29h8.29v8.29h-8.29ZM150.09,299.94v-8.29h8.29v8.29h-8.29ZM150.09,299.94v-8.29h8.29v8.29h-8.29ZM150.09,299.94v-8.29h8.29v8.29h-8.29ZM150.09,299.94v-8.29h8.29v8.29h-8.29ZM150.09,356.48v-8.29h8.29v8.29h-8.29ZM150.09,356.48v-8.29h8.29v8.29h-8.29ZM150.09,356.48v-8.29h8.29v8.29h-8.29ZM150.09,356.48v-8.29h8.29v8.29h-8.29ZM161.39,243.39v-8.29h8.29v8.29h-8.29ZM161.39,243.39v-8.29h8.29v8.29h-8.29ZM161.39,243.39v-8.29h8.29v8.29h-8.29ZM161.39,243.39v-8.29h8.29v8.29h-8.29ZM161.39,299.94v-8.29h8.29v8.29h-8.29ZM161.39,299.94v-8.29h8.29v8.29h-8.29ZM161.39,299.94v-8.29h8.29v8.29h-8.29ZM161.39,299.94v-8.29h8.29v8.29h-8.29ZM161.39,356.48v-8.29h8.29v8.29h-8.29ZM161.39,356.48v-8.29h8.29v8.29h-8.29ZM161.39,356.48v-8.29h8.29v8.29h-8.29ZM161.39,356.48v-8.29h8.29v8.29h-8.29Z"/><path class="cls-1" d="M226.75,243.39v-8.29h8.29v8.29h-8.29ZM226.75,243.39v-8.29h8.29v8.29h-8.29ZM226.75,243.39v-8.29h8.29v8.29h-8.29ZM226.75,243.39v-8.29h8.29v8.29h-8.29ZM238.06,243.39v-8.29h8.29v8.29h-8.29ZM238.06,243.39v-8.29h8.29v8.29h-8.29ZM238.06,243.39v-8.29h8.29v8.29h-8.29ZM238.06,243.39v-8.29h8.29v8.29h-8.29ZM249.37,243.39v-8.29h8.29v8.29h-8.29ZM249.37,243.39v-8.29h8.29v8.29h-8.29ZM249.37,243.39v-8.29h8.29v8.29h-8.29ZM249.37,243.39v-8.29h8.29v8.29h-8.29ZM249.37,254.7v-8.29h8.29v8.29h-8.29ZM249.37,254.7v-8.29h8.29v8.29h-8.29ZM249.37,254.7v-8.29h8.29v8.29h-8.29ZM249.37,254.7v-8.29h8.29v8.29h-8.29ZM249.37,266.01v-8.29h8.29v8.29h-8.29ZM249.37,266.01v-8.29h8.29v8.29h-8.29ZM249.37,266.01v-8.29h8.29v8.29h-8.29ZM249.37,266.01v-8.29h8.29v8.29h-8.29ZM249.37,277.32v-8.29h8.29v8.29h-8.29ZM249.37,277.32v-8.29h8.29v8.29h-8.29ZM249.37,277.32v-8.29h8.29v8.29h-8.29ZM249.37,277.32v-8.29h8.29v8.29h-8.29ZM249.37,288.63v-8.29h8.29v8.29h-8.29ZM249.37,288.63v-8.29h8.29v8.29h-8.29ZM249.37,288.63v-8.29h8.29v8.29h-8.29ZM249.37,288.63v-8.29h8.29v8.29h-8.29ZM249.37,299.94v-8.29h8.29v8.29h-8.29ZM249.37,299.94v-8.29h8.29v8.29h-8.29ZM249.37,299.94v-8.29h8.29v8.29h-8.29ZM249.37,299.94v-8.29h8.29v8.29h-8.29ZM249.37,311.24v-8.29h8.29v8.29h-8.29ZM249.37,311.24v-8.29h8.29v8.29h-8.29ZM249.37,311.24v-8.29h8.29v8.29h-8.29ZM249.37,311.24v-8.29h8.29v8.29h-8.29ZM249.37,322.55v-8.29h8.29v8.29h-8.29ZM249.37,322.55v-8.29h8.29v8.29h-8.29ZM249.37,322.55v-8.29h8.29v8.29h-8.29ZM249.37,322.55v-8.29h8.29v8.29h-8.29ZM249.37,333.86v-8.29h8.29v8.29h-8.29ZM249.37,333.86v-8.29h8.29v8.29h-8.29ZM249.37,333.86v-8.29h8.29v8.29h-8.29ZM249.37,333.86v-8.29h8.29v8.29h-8.29ZM249.37,345.17v-8.29h8.29v8.29h-8.29ZM249.37,345.17v-8.29h8.29v8.29h-8.29ZM249.37,345.17v-8.29h8.29v8.29h-8.29ZM249.37,345.17v-8.29h8.29v8.29h-8.29ZM249.37,356.48v-8.29h8.29v8.29h-8.29ZM249.37,356.48v-8.29h8.29v8.29h-8.29ZM249.37,356.48v-8.29h8.29v8.29h-8.29ZM249.37,356.48v-8.29h8.29v8.29h-8.29ZM260.68,243.39v-8.29h8.29v8.29h-8.29ZM260.68,243.39v-8.29h8.29v8.29h-8.29ZM260.68,243.39v-8.29h8.29v8.29h-8.29ZM260.68,243.39v-8.29h8.29v8.29h-8.29ZM271.99,243.39v-8.29h8.29v8.29h-8.29ZM271.99,243.39v-8.29h8.29v8.29h-8.29ZM271.99,243.39v-8.29h8.29v8.29h-8.29ZM271.99,243.39v-8.29h8.29v8.29h-8.29ZM296.5,243.39v-8.29h8.29v8.29h-8.29ZM296.5,243.39v-8.29h8.29v8.29h-8.29ZM296.5,243.39v-8.29h8.29v8.29h-8.29ZM296.5,243.39v-8.29h8.29v8.29h-8.29ZM296.5,254.7v-8.29h8.29v8.29h-8.29ZM296.5,254.7v-8.29h8.29v8.29h-8.29ZM296.5,254.7v-8.29h8.29v8.29h-8.29ZM296.5,254.7v-8.29h8.29v8.29h-8.29ZM296.5,266.01v-8.29h8.29v8.29h-8.29ZM296.5,266.01v-8.29h8.29v8.29h-8.29ZM296.5,266.01v-8.29h8.29v8.29h-8.29ZM296.5,266.01v-8.29h8.29v8.29h-8.29ZM296.5,277.32v-8.29h8.29v8.29h-8.29ZM296.5,277.32v-8.29h8.29v8.29h-8.29ZM296.5,277.32v-8.29h8.29v8.29h-8.29ZM296.5,277.32v-8.29h8.29v8.29h-8.29ZM296.5,288.63v-8.29h8.29v8.29h-8.29ZM296.5,288.63v-8.29h8.29v8.29h-8.29ZM296.5,288.63v-8.29h8.29v8.29h-8.29ZM296.5,288.63v-8.29h8.29v8.29h-8.29ZM296.5,299.94v-8.29h8.29v8.29h-8.29ZM296.5,299.94v-8.29h8.29v8.29h-8.29ZM296.5,299.94v-8.29h8.29v8.29h-8.29ZM296.5,299.94v-8.29h8.29v8.29h-8.29ZM296.5,311.24v-8.29h8.29v8.29h-8.29ZM296.5,311.24v-8.29h8.29v8.29h-8.29ZM296.5,311.24v-8.29h8.29v8.29h-8.29ZM296.5,311.24v-8.29h8.29v8.29h-8.29ZM296.5,322.55v-8.29h8.29v8.29h-8.29ZM296.5,322.55v-8.29h8.29v8.29h-8.29ZM296.5,322.55v-8.29h8.29v8.29h-8.29ZM296.5,322.55v-8.29h8.29v8.29h-8.29ZM296.5,333.86v-8.29h8.29v8.29h-8.29ZM296.5,333.86v-8.29h8.29v8.29h-8.29ZM296.5,333.86v-8.29h8.29v8.29h-8.29ZM296.5,333.86v-8.29h8.29v8.29h-8.29ZM296.5,345.17v-8.29h8.29v8.29h-8.29ZM296.5,345.17v-8.29h8.29v8.29h-8.29ZM296.5,345.17v-8.29h8.29v8.29h-8.29ZM296.5,345.17v-8.29h8.29v8.29h-8.29ZM296.5,356.48v-8.29h8.29v8.29h-8.29ZM296.5,356.48v-8.29h8.29v8.29h-8.29ZM296.5,356.48v-8.29h8.29v8.29h-8.29ZM296.5,356.48v-8.29h8.29v8.29h-8.29ZM307.81,299.94v-8.29h8.29v8.29h-8.29ZM307.81,299.94v-8.29h8.29v8.29h-8.29ZM307.81,299.94v-8.29h8.29v8.29h-8.29ZM307.81,299.94v-8.29h8.29v8.29h-8.29ZM319.12,299.94v-8.29h8.29v8.29h-8.29ZM319.12,299.94v-8.29h8.29v8.29h-8.29ZM319.12,299.94v-8.29h8.29v8.29h-8.29ZM319.12,299.94v-8.29h8.29v8.29h-8.29ZM330.43,299.94v-8.29h8.29v8.29h-8.29ZM330.43,299.94v-8.29h8.29v8.29h-8.29ZM330.43,299.94v-8.29h8.29v8.29h-8.29ZM330.43,299.94v-8.29h8.29v8.29h-8.29ZM341.74,243.39v-8.29h8.29v8.29h-8.29ZM341.74,243.39v-8.29h8.29v8.29h-8.29ZM341.74,243.39v-8.29h8.29v8.29h-8.29ZM341.74,243.39v-8.29h8.29v8.29h-8.29ZM341.74,254.7v-8.29h8.29v8.29h-8.29ZM341.74,254.7v-8.29h8.29v8.29h-8.29ZM341.74,254.7v-8.29h8.29v8.29h-8.29ZM341.74,254.7v-8.29h8.29v8.29h-8.29ZM341.74,266.01v-8.29h8.29v8.29h-8.29ZM341.74,266.01v-8.29h8.29v8.29h-8.29ZM341.74,266.01v-8.29h8.29v8.29h-8.29ZM341.74,266.01v-8.29h8.29v8.29h-8.29ZM341.74,277.32v-8.29h8.29v8.29h-8.29ZM341.74,277.32v-8.29h8.29v8.29h-8.29ZM341.74,277.32v-8.29h8.29v8.29h-8.29ZM341.74,277.32v-8.29h8.29v8.29h-8.29ZM341.74,288.63v-8.29h8.29v8.29h-8.29ZM341.74,288.63v-8.29h8.29v8.29h-8.29ZM341.74,288.63v-8.29h8.29v8.29h-8.29ZM341.74,288.63v-8.29h8.29v8.29h-8.29ZM341.74,299.94v-8.29h8.29v8.29h-8.29ZM341.74,299.94v-8.29h8.29v8.29h-8.29ZM341.74,299.94v-8.29h8.29v8.29h-8.29ZM341.74,299.94v-8.29h8.29v8.29h-8.29ZM341.74,311.24v-8.29h8.29v8.29h-8.29ZM341.74,311.24v-8.29h8.29v8.29h-8.29ZM341.74,311.24v-8.29h8.29v8.29h-8.29ZM341.74,311.24v-8.29h8.29v8.29h-8.29ZM341.74,322.55v-8.29h8.29v8.29h-8.29ZM341.74,322.55v-8.29h8.29v8.29h-8.29ZM341.74,322.55v-8.29h8.29v8.29h-8.29ZM341.74,322.55v-8.29h8.29v8.29h-8.29ZM341.74,333.86v-8.29h8.29v8.29h-8.29ZM341.74,333.86v-8.29h8.29v8.29h-8.29ZM341.74,333.86v-8.29h8.29v8.29h-8.29ZM341.74,333.86v-8.29h8.29v8.29h-8.29ZM341.74,345.17v-8.29h8.29v8.29h-8.29ZM341.74,345.17v-8.29h8.29v8.29h-8.29ZM341.74,345.17v-8.29h8.29v8.29h-8.29ZM341.74,345.17v-8.29h8.29v8.29h-8.29ZM341.74,356.48v-8.29h8.29v8.29h-8.29ZM341.74,356.48v-8.29h8.29v8.29h-8.29ZM341.74,356.48v-8.29h8.29v8.29h-8.29ZM341.74,356.48v-8.29h8.29v8.29h-8.29ZM367.78,243.39v-8.29h8.29v8.29h-8.29ZM367.78,243.39v-8.29h8.29v8.29h-8.29ZM367.78,243.39v-8.29h8.29v8.29h-8.29ZM367.78,243.39v-8.29h8.29v8.29h-8.29ZM367.78,254.7v-8.29h8.29v8.29h-8.29ZM367.78,254.7v-8.29h8.29v8.29h-8.29ZM367.78,254.7v-8.29h8.29v8.29h-8.29ZM367.78,254.7v-8.29h8.29v8.29h-8.29ZM367.78,266.01v-8.29h8.29v8.29h-8.29ZM367.78,266.01v-8.29h8.29v8.29h-8.29ZM367.78,266.01v-8.29h8.29v8.29h-8.29ZM367.78,266.01v-8.29h8.29v8.29h-8.29ZM367.78,277.32v-8.29h8.29v8.29h-8.29ZM367.78,277.32v-8.29h8.29v8.29h-8.29ZM367.78,277.32v-8.29h8.29v8.29h-8.29ZM367.78,277.32v-8.29h8.29v8.29h-8.29ZM367.78,288.63v-8.29h8.29v8.29h-8.29ZM367.78,288.63v-8.29h8.29v8.29h-8.29ZM367.78,288.63v-8.29h8.29v8.29h-8.29ZM367.78,288.63v-8.29h8.29v8.29h-8.29ZM367.78,299.94v-8.29h8.29v8.29h-8.29ZM367.78,299.94v-8.29h8.29v8.29h-8.29ZM367.78,299.94v-8.29h8.29v8.29h-8.29ZM367.78,299.94v-8.29h8.29v8.29h-8.29ZM367.78,311.24v-8.29h8.29v8.29h-8.29ZM367.78,311.24v-8.29h8.29v8.29h-8.29ZM367.78,311.24v-8.29h8.29v8.29h-8.29ZM367.78,311.24v-8.29h8.29v8.29h-8.29ZM367.78,322.55v-8.29h8.29v8.29h-8.29ZM367.78,322.55v-8.29h8.29v8.29h-8.29ZM367.78,322.55v-8.29h8.29v8.29h-8.29ZM367.78,322.55v-8.29h8.29v8.29h-8.29ZM367.78,333.86v-8.29h8.29v8.29h-8.29ZM367.78,333.86v-8.29h8.29v8.29h-8.29ZM367.78,333.86v-8.29h8.29v8.29h-8.29ZM367.78,333.86v-8.29h8.29v8.29h-8.29ZM367.78,345.17v-8.29h8.29v8.29h-8.29ZM367.78,345.17v-8.29h8.29v8.29h-8.29ZM367.78,345.17v-8.29h8.29v8.29h-8.29ZM367.78,345.17v-8.29h8.29v8.29h-8.29ZM367.78,356.48v-8.29h8.29v8.29h-8.29ZM367.78,356.48v-8.29h8.29v8.29h-8.29ZM367.78,356.48v-8.29h8.29v8.29h-8.29ZM367.78,356.48v-8.29h8.29v8.29h-8.29ZM379.09,243.39v-8.29h8.29v8.29h-8.29ZM379.09,243.39v-8.29h8.29v8.29h-8.29ZM379.09,243.39v-8.29h8.29v8.29h-8.29ZM379.09,243.39v-8.29h8.29v8.29h-8.29ZM379.09,299.94v-8.29h8.29v8.29h-8.29ZM379.09,299.94v-8.29h8.29v8.29h-8.29ZM379.09,299.94v-8.29h8.29v8.29h-8.29ZM379.09,299.94v-8.29h8.29v8.29h-8.29ZM379.09,356.48v-8.29h8.29v8.29h-8.29ZM379.09,356.48v-8.29h8.29v8.29h-8.29ZM379.09,356.48v-8.29h8.29v8.29h-8.29ZM379.09,356.48v-8.29h8.29v8.29h-8.29ZM390.4,243.39v-8.29h8.29v8.29h-8.29ZM390.4,243.39v-8.29h8.29v8.29h-8.29ZM390.4,243.39v-8.29h8.29v8.29h-8.29ZM390.4,243.39v-8.29h8.29v8.29h-8.29ZM390.4,299.94v-8.29h8.29v8.29h-8.29ZM390.4,299.94v-8.29h8.29v8.29h-8.29ZM390.4,299.94v-8.29h8.29v8.29h-8.29ZM390.4,299.94v-8.29h8.29v8.29h-8.29ZM390.4,356.48v-8.29h8.29v8.29h-8.29ZM390.4,356.48v-8.29h8.29v8.29h-8.29ZM390.4,356.48v-8.29h8.29v8.29h-8.29ZM390.4,356.48v-8.29h8.29v8.29h-8.29ZM401.71,243.39v-8.29h8.29v8.29h-8.29ZM401.71,243.39v-8.29h8.29v8.29h-8.29ZM401.71,243.39v-8.29h8.29v8.29h-8.29ZM401.71,243.39v-8.29h8.29v8.29h-8.29ZM401.71,299.94v-8.29h8.29v8.29h-8.29ZM401.71,299.94v-8.29h8.29v8.29h-8.29ZM401.71,299.94v-8.29h8.29v8.29h-8.29ZM401.71,299.94v-8.29h8.29v8.29h-8.29ZM401.71,356.48v-8.29h8.29v8.29h-8.29ZM401.71,356.48v-8.29h8.29v8.29h-8.29ZM401.71,356.48v-8.29h8.29v8.29h-8.29ZM401.71,356.48v-8.29h8.29v8.29h-8.29Z"/><path class="cls-1" d="M10,396.92v-8.29h8.29v8.29h-8.29ZM10,396.92v-8.29h8.29v8.29h-8.29ZM10,396.92v-8.29h8.29v8.29h-8.29ZM10,396.92v-8.29h8.29v8.29h-8.29ZM10,408.22v-8.29h8.29v8.29h-8.29ZM10,408.22v-8.29h8.29v8.29h-8.29ZM10,408.22v-8.29h8.29v8.29h-8.29ZM10,408.22v-8.29h8.29v8.29h-8.29ZM10,419.53v-8.29h8.29v8.29h-8.29ZM10,419.53v-8.29h8.29v8.29h-8.29ZM10,419.53v-8.29h8.29v8.29h-8.29ZM10,419.53v-8.29h8.29v8.29h-8.29ZM10,430.84v-8.29h8.29v8.29h-8.29ZM10,430.84v-8.29h8.29v8.29h-8.29ZM10,430.84v-8.29h8.29v8.29h-8.29ZM10,430.84v-8.29h8.29v8.29h-8.29ZM10,442.15v-8.29h8.29v8.29h-8.29ZM10,442.15v-8.29h8.29v8.29h-8.29ZM10,442.15v-8.29h8.29v8.29h-8.29ZM10,442.15v-8.29h8.29v8.29h-8.29ZM10,453.46v-8.29h8.29v8.29h-8.29ZM10,453.46v-8.29h8.29v8.29h-8.29ZM10,453.46v-8.29h8.29v8.29h-8.29ZM10,453.46v-8.29h8.29v8.29h-8.29ZM10,464.77v-8.29h8.29v8.29h-8.29ZM10,464.77v-8.29h8.29v8.29h-8.29ZM10,464.77v-8.29h8.29v8.29h-8.29ZM10,464.77v-8.29h8.29v8.29h-8.29ZM10,476.07v-8.29h8.29v8.29h-8.29ZM10,476.07v-8.29h8.29v8.29h-8.29ZM10,476.07v-8.29h8.29v8.29h-8.29ZM10,476.07v-8.29h8.29v8.29h-8.29ZM10,487.38v-8.29h8.29v8.29h-8.29ZM10,487.38v-8.29h8.29v8.29h-8.29ZM10,487.38v-8.29h8.29v8.29h-8.29ZM10,487.38v-8.29h8.29v8.29h-8.29ZM10,498.69v-8.29h8.29v8.29h-8.29ZM10,498.69v-8.29h8.29v8.29h-8.29ZM10,498.69v-8.29h8.29v8.29h-8.29ZM10,498.69v-8.29h8.29v8.29h-8.29ZM10,510v-8.29h8.29v8.29h-8.29ZM10,510v-8.29h8.29v8.29h-8.29ZM10,510v-8.29h8.29v8.29h-8.29ZM10,510v-8.29h8.29v8.29h-8.29ZM21.31,396.92v-8.29h8.29v8.29h-8.29ZM21.31,396.92v-8.29h8.29v8.29h-8.29ZM21.31,396.92v-8.29h8.29v8.29h-8.29ZM21.31,396.92v-8.29h8.29v8.29h-8.29ZM21.31,464.77v-8.29h8.29v8.29h-8.29ZM21.31,464.77v-8.29h8.29v8.29h-8.29ZM21.31,464.77v-8.29h8.29v8.29h-8.29ZM21.31,464.77v-8.29h8.29v8.29h-8.29ZM32.62,396.92v-8.29h8.29v8.29h-8.29ZM32.62,396.92v-8.29h8.29v8.29h-8.29ZM32.62,396.92v-8.29h8.29v8.29h-8.29ZM32.62,396.92v-8.29h8.29v8.29h-8.29ZM32.62,464.77v-8.29h8.29v8.29h-8.29ZM32.62,464.77v-8.29h8.29v8.29h-8.29ZM32.62,464.77v-8.29h8.29v8.29h-8.29ZM32.62,464.77v-8.29h8.29v8.29h-8.29ZM43.93,396.92v-8.29h8.29v8.29h-8.29ZM43.93,396.92v-8.29h8.29v8.29h-8.29ZM43.93,396.92v-8.29h8.29v8.29h-8.29ZM43.93,396.92v-8.29h8.29v8.29h-8.29ZM43.93,464.77v-8.29h8.29v8.29h-8.29ZM43.93,464.77v-8.29h8.29v8.29h-8.29ZM43.93,464.77v-8.29h8.29v8.29h-8.29ZM43.93,464.77v-8.29h8.29v8.29h-8.29ZM55.23,408.22v-8.29h8.29v8.29h-8.29ZM55.23,408.22v-8.29h8.29v8.29h-8.29ZM55.23,408.22v-8.29h8.29v8.29h-8.29ZM55.23,408.22v-8.29h8.29v8.29h-8.29ZM55.23,419.53v-8.29h8.29v8.29h-8.29ZM55.23,419.53v-8.29h8.29v8.29h-8.29ZM55.23,419.53v-8.29h8.29v8.29h-8.29ZM55.23,419.53v-8.29h8.29v8.29h-8.29ZM55.23,430.84v-8.29h8.29v8.29h-8.29ZM55.23,430.84v-8.29h8.29v8.29h-8.29ZM55.23,430.84v-8.29h8.29v8.29h-8.29ZM55.23,430.84v-8.29h8.29v8.29h-8.29ZM55.23,442.15v-8.29h8.29v8.29h-8.29ZM55.23,442.15v-8.29h8.29v8.29h-8.29ZM55.23,442.15v-8.29h8.29v8.29h-8.29ZM55.23,442.15v-8.29h8.29v8.29h-8.29ZM55.23,453.46v-8.29h8.29v8.29h-8.29ZM55.23,453.46v-8.29h8.29v8.29h-8.29ZM55.23,453.46v-8.29h8.29v8.29h-8.29ZM55.23,453.46v-8.29h8.29v8.29h-8.29ZM83.59,396.92v-8.29h8.29v8.29h-8.29ZM83.59,396.92v-8.29h8.29v8.29h-8.29ZM83.59,396.92v-8.29h8.29v8.29h-8.29ZM83.59,396.92v-8.29h8.29v8.29h-8.29ZM83.59,408.22v-8.29h8.29v8.29h-8.29ZM83.59,408.22v-8.29h8.29v8.29h-8.29ZM83.59,408.22v-8.29h8.29v8.29h-8.29ZM83.59,408.22v-8.29h8.29v8.29h-8.29ZM83.59,419.53v-8.29h8.29v8.29h-8.29ZM83.59,419.53v-8.29h8.29v8.29h-8.29ZM83.59,419.53v-8.29h8.29v8.29h-8.29ZM83.59,419.53v-8.29h8.29v8.29h-8.29ZM83.59,430.84v-8.29h8.29v8.29h-8.29ZM83.59,430.84v-8.29h8.29v8.29h-8.29ZM83.59,430.84v-8.29h8.29v8.29h-8.29ZM83.59,430.84v-8.29h8.29v8.29h-8.29ZM83.59,442.15v-8.29h8.29v8.29h-8.29ZM83.59,442.15v-8.29h8.29v8.29h-8.29ZM83.59,442.15v-8.29h8.29v8.29h-8.29ZM83.59,442.15v-8.29h8.29v8.29h-8.29ZM83.59,453.46v-8.29h8.29v8.29h-8.29ZM83.59,453.46v-8.29h8.29v8.29h-8.29ZM83.59,453.46v-8.29h8.29v8.29h-8.29ZM83.59,453.46v-8.29h8.29v8.29h-8.29ZM83.59,464.77v-8.29h8.29v8.29h-8.29ZM83.59,464.77v-8.29h8.29v8.29h-8.29ZM83.59,464.77v-8.29h8.29v8.29h-8.29ZM83.59,464.77v-8.29h8.29v8.29h-8.29ZM83.59,476.07v-8.29h8.29v8.29h-8.29ZM83.59,476.07v-8.29h8.29v8.29h-8.29ZM83.59,476.07v-8.29h8.29v8.29h-8.29ZM83.59,476.07v-8.29h8.29v8.29h-8.29ZM83.59,487.38v-8.29h8.29v8.29h-8.29ZM83.59,487.38v-8.29h8.29v8.29h-8.29ZM83.59,487.38v-8.29h8.29v8.29h-8.29ZM83.59,487.38v-8.29h8.29v8.29h-8.29ZM83.59,498.69v-8.29h8.29v8.29h-8.29ZM83.59,498.69v-8.29h8.29v8.29h-8.29ZM83.59,498.69v-8.29h8.29v8.29h-8.29ZM83.59,498.69v-8.29h8.29v8.29h-8.29ZM83.59,510v-8.29h8.29v8.29h-8.29ZM83.59,510v-8.29h8.29v8.29h-8.29ZM83.59,510v-8.29h8.29v8.29h-8.29ZM83.59,510v-8.29h8.29v8.29h-8.29ZM94.9,396.92v-8.29h8.29v8.29h-8.29ZM94.9,396.92v-8.29h8.29v8.29h-8.29ZM94.9,396.92v-8.29h8.29v8.29h-8.29ZM94.9,396.92v-8.29h8.29v8.29h-8.29ZM94.9,453.46v-8.29h8.29v8.29h-8.29ZM94.9,453.46v-8.29h8.29v8.29h-8.29ZM94.9,453.46v-8.29h8.29v8.29h-8.29ZM94.9,453.46v-8.29h8.29v8.29h-8.29ZM94.9,510v-8.29h8.29v8.29h-8.29ZM94.9,510v-8.29h8.29v8.29h-8.29ZM94.9,510v-8.29h8.29v8.29h-8.29ZM94.9,510v-8.29h8.29v8.29h-8.29ZM106.21,396.92v-8.29h8.29v8.29h-8.29ZM106.21,396.92v-8.29h8.29v8.29h-8.29ZM106.21,396.92v-8.29h8.29v8.29h-8.29ZM106.21,396.92v-8.29h8.29v8.29h-8.29ZM106.21,453.46v-8.29h8.29v8.29h-8.29ZM106.21,453.46v-8.29h8.29v8.29h-8.29ZM106.21,453.46v-8.29h8.29v8.29h-8.29ZM106.21,453.46v-8.29h8.29v8.29h-8.29ZM106.21,510v-8.29h8.29v8.29h-8.29ZM106.21,510v-8.29h8.29v8.29h-8.29ZM106.21,510v-8.29h8.29v8.29h-8.29ZM106.21,510v-8.29h8.29v8.29h-8.29ZM117.52,396.92v-8.29h8.29v8.29h-8.29ZM117.52,396.92v-8.29h8.29v8.29h-8.29ZM117.52,396.92v-8.29h8.29v8.29h-8.29ZM117.52,396.92v-8.29h8.29v8.29h-8.29ZM117.52,453.46v-8.29h8.29v8.29h-8.29ZM117.52,453.46v-8.29h8.29v8.29h-8.29ZM117.52,453.46v-8.29h8.29v8.29h-8.29ZM117.52,453.46v-8.29h8.29v8.29h-8.29ZM117.52,510v-8.29h8.29v8.29h-8.29ZM117.52,510v-8.29h8.29v8.29h-8.29ZM117.52,510v-8.29h8.29v8.29h-8.29ZM117.52,510v-8.29h8.29v8.29h-8.29ZM149.4,408.22v-8.29h8.29v8.29h-8.29ZM149.4,408.22v-8.29h8.29v8.29h-8.29ZM149.4,408.22v-8.29h8.29v8.29h-8.29ZM149.4,408.22v-8.29h8.29v8.29h-8.29ZM149.4,419.53v-8.29h8.29v8.29h-8.29ZM149.4,419.53v-8.29h8.29v8.29h-8.29ZM149.4,419.53v-8.29h8.29v8.29h-8.29ZM149.4,419.53v-8.29h8.29v8.29h-8.29ZM149.4,430.84v-8.29h8.29v8.29h-8.29ZM149.4,430.84v-8.29h8.29v8.29h-8.29ZM149.4,430.84v-8.29h8.29v8.29h-8.29ZM149.4,430.84v-8.29h8.29v8.29h-8.29ZM149.4,442.15v-8.29h8.29v8.29h-8.29ZM149.4,442.15v-8.29h8.29v8.29h-8.29ZM149.4,442.15v-8.29h8.29v8.29h-8.29ZM149.4,442.15v-8.29h8.29v8.29h-8.29ZM149.4,453.46v-8.29h8.29v8.29h-8.29ZM149.4,453.46v-8.29h8.29v8.29h-8.29ZM149.4,453.46v-8.29h8.29v8.29h-8.29ZM149.4,453.46v-8.29h8.29v8.29h-8.29ZM149.4,464.77v-8.29h8.29v8.29h-8.29ZM149.4,464.77v-8.29h8.29v8.29h-8.29ZM149.4,464.77v-8.29h8.29v8.29h-8.29ZM149.4,464.77v-8.29h8.29v8.29h-8.29ZM149.4,476.07v-8.29h8.29v8.29h-8.29ZM149.4,476.07v-8.29h8.29v8.29h-8.29ZM149.4,476.07v-8.29h8.29v8.29h-8.29ZM149.4,476.07v-8.29h8.29v8.29h-8.29ZM149.4,487.38v-8.29h8.29v8.29h-8.29ZM149.4,487.38v-8.29h8.29v8.29h-8.29ZM149.4,487.38v-8.29h8.29v8.29h-8.29ZM149.4,487.38v-8.29h8.29v8.29h-8.29ZM149.4,498.69v-8.29h8.29v8.29h-8.29ZM149.4,498.69v-8.29h8.29v8.29h-8.29ZM149.4,498.69v-8.29h8.29v8.29h-8.29ZM149.4,498.69v-8.29h8.29v8.29h-8.29ZM160.71,396.92v-8.29h8.29v8.29h-8.29ZM160.71,396.92v-8.29h8.29v8.29h-8.29ZM160.71,396.92v-8.29h8.29v8.29h-8.29ZM160.71,396.92v-8.29h8.29v8.29h-8.29ZM160.71,510v-8.29h8.29v8.29h-8.29ZM160.71,510v-8.29h8.29v8.29h-8.29ZM160.71,510v-8.29h8.29v8.29h-8.29ZM160.71,510v-8.29h8.29v8.29h-8.29ZM172.02,396.92v-8.29h8.29v8.29h-8.29ZM172.02,396.92v-8.29h8.29v8.29h-8.29ZM172.02,396.92v-8.29h8.29v8.29h-8.29ZM172.02,396.92v-8.29h8.29v8.29h-8.29ZM172.02,510v-8.29h8.29v8.29h-8.29ZM172.02,510v-8.29h8.29v8.29h-8.29ZM172.02,510v-8.29h8.29v8.29h-8.29ZM172.02,510v-8.29h8.29v8.29h-8.29ZM183.33,396.92v-8.29h8.29v8.29h-8.29ZM183.33,396.92v-8.29h8.29v8.29h-8.29ZM183.33,396.92v-8.29h8.29v8.29h-8.29ZM183.33,396.92v-8.29h8.29v8.29h-8.29ZM183.33,510v-8.29h8.29v8.29h-8.29ZM183.33,510v-8.29h8.29v8.29h-8.29ZM183.33,510v-8.29h8.29v8.29h-8.29ZM183.33,510v-8.29h8.29v8.29h-8.29ZM194.64,408.22v-8.29h8.29v8.29h-8.29ZM194.64,408.22v-8.29h8.29v8.29h-8.29ZM194.64,408.22v-8.29h8.29v8.29h-8.29ZM194.64,408.22v-8.29h8.29v8.29h-8.29ZM194.64,419.53v-8.29h8.29v8.29h-8.29ZM194.64,419.53v-8.29h8.29v8.29h-8.29ZM194.64,419.53v-8.29h8.29v8.29h-8.29ZM194.64,419.53v-8.29h8.29v8.29h-8.29ZM194.64,430.84v-8.29h8.29v8.29h-8.29ZM194.64,430.84v-8.29h8.29v8.29h-8.29ZM194.64,430.84v-8.29h8.29v8.29h-8.29ZM194.64,430.84v-8.29h8.29v8.29h-8.29ZM194.64,442.15v-8.29h8.29v8.29h-8.29ZM194.64,442.15v-8.29h8.29v8.29h-8.29ZM194.64,442.15v-8.29h8.29v8.29h-8.29ZM194.64,442.15v-8.29h8.29v8.29h-8.29ZM194.64,453.46v-8.29h8.29v8.29h-8.29ZM194.64,453.46v-8.29h8.29v8.29h-8.29ZM194.64,453.46v-8.29h8.29v8.29h-8.29ZM194.64,453.46v-8.29h8.29v8.29h-8.29ZM194.64,464.77v-8.29h8.29v8.29h-8.29ZM194.64,464.77v-8.29h8.29v8.29h-8.29ZM194.64,464.77v-8.29h8.29v8.29h-8.29ZM194.64,464.77v-8.29h8.29v8.29h-8.29ZM194.64,476.07v-8.29h8.29v8.29h-8.29ZM194.64,476.07v-8.29h8.29v8.29h-8.29ZM194.64,476.07v-8.29h8.29v8.29h-8.29ZM194.64,476.07v-8.29h8.29v8.29h-8.29ZM194.64,487.38v-8.29h8.29v8.29h-8.29ZM194.64,487.38v-8.29h8.29v8.29h-8.29ZM194.64,487.38v-8.29h8.29v8.29h-8.29ZM194.64,487.38v-8.29h8.29v8.29h-8.29ZM194.64,498.69v-8.29h8.29v8.29h-8.29ZM194.64,498.69v-8.29h8.29v8.29h-8.29ZM194.64,498.69v-8.29h8.29v8.29h-8.29ZM194.64,498.69v-8.29h8.29v8.29h-8.29ZM229.18,396.92v-8.29h8.29v8.29h-8.29ZM229.18,396.92v-8.29h8.29v8.29h-8.29ZM229.18,396.92v-8.29h8.29v8.29h-8.29ZM229.18,396.92v-8.29h8.29v8.29h-8.29ZM229.18,408.22v-8.29h8.29v8.29h-8.29ZM229.18,408.22v-8.29h8.29v8.29h-8.29ZM229.18,408.22v-8.29h8.29v8.29h-8.29ZM229.18,408.22v-8.29h8.29v8.29h-8.29ZM229.18,419.53v-8.29h8.29v8.29h-8.29ZM229.18,419.53v-8.29h8.29v8.29h-8.29ZM229.18,419.53v-8.29h8.29v8.29h-8.29ZM229.18,419.53v-8.29h8.29v8.29h-8.29ZM229.18,430.84v-8.29h8.29v8.29h-8.29ZM229.18,430.84v-8.29h8.29v8.29h-8.29ZM229.18,430.84v-8.29h8.29v8.29h-8.29ZM229.18,430.84v-8.29h8.29v8.29h-8.29ZM229.18,442.15v-8.29h8.29v8.29h-8.29ZM229.18,442.15v-8.29h8.29v8.29h-8.29ZM229.18,442.15v-8.29h8.29v8.29h-8.29ZM229.18,442.15v-8.29h8.29v8.29h-8.29ZM229.18,453.46v-8.29h8.29v8.29h-8.29ZM229.18,453.46v-8.29h8.29v8.29h-8.29ZM229.18,453.46v-8.29h8.29v8.29h-8.29ZM229.18,453.46v-8.29h8.29v8.29h-8.29ZM229.18,464.77v-8.29h8.29v8.29h-8.29ZM229.18,464.77v-8.29h8.29v8.29h-8.29ZM229.18,464.77v-8.29h8.29v8.29h-8.29ZM229.18,464.77v-8.29h8.29v8.29h-8.29ZM229.18,476.07v-8.29h8.29v8.29h-8.29ZM229.18,476.07v-8.29h8.29v8.29h-8.29ZM229.18,476.07v-8.29h8.29v8.29h-8.29ZM229.18,476.07v-8.29h8.29v8.29h-8.29ZM229.18,487.38v-8.29h8.29v8.29h-8.29ZM229.18,487.38v-8.29h8.29v8.29h-8.29ZM229.18,487.38v-8.29h8.29v8.29h-8.29ZM229.18,487.38v-8.29h8.29v8.29h-8.29ZM229.18,498.69v-8.29h8.29v8.29h-8.29ZM229.18,498.69v-8.29h8.29v8.29h-8.29ZM229.18,498.69v-8.29h8.29v8.29h-8.29ZM229.18,498.69v-8.29h8.29v8.29h-8.29ZM229.18,510v-8.29h8.29v8.29h-8.29ZM229.18,510v-8.29h8.29v8.29h-8.29ZM229.18,510v-8.29h8.29v8.29h-8.29ZM229.18,510v-8.29h8.29v8.29h-8.29ZM240.49,396.92v-8.29h8.29v8.29h-8.29ZM240.49,396.92v-8.29h8.29v8.29h-8.29ZM240.49,396.92v-8.29h8.29v8.29h-8.29ZM240.49,396.92v-8.29h8.29v8.29h-8.29ZM240.49,464.77v-8.29h8.29v8.29h-8.29ZM240.49,464.77v-8.29h8.29v8.29h-8.29ZM240.49,464.77v-8.29h8.29v8.29h-8.29ZM240.49,464.77v-8.29h8.29v8.29h-8.29ZM251.79,396.92v-8.29h8.29v8.29h-8.29ZM251.79,396.92v-8.29h8.29v8.29h-8.29ZM251.79,396.92v-8.29h8.29v8.29h-8.29ZM251.79,396.92v-8.29h8.29v8.29h-8.29ZM251.79,464.77v-8.29h8.29v8.29h-8.29ZM251.79,464.77v-8.29h8.29v8.29h-8.29ZM251.79,464.77v-8.29h8.29v8.29h-8.29ZM251.79,464.77v-8.29h8.29v8.29h-8.29ZM263.1,396.92v-8.29h8.29v8.29h-8.29ZM263.1,396.92v-8.29h8.29v8.29h-8.29ZM263.1,396.92v-8.29h8.29v8.29h-8.29ZM263.1,396.92v-8.29h8.29v8.29h-8.29ZM263.1,464.77v-8.29h8.29v8.29h-8.29ZM263.1,464.77v-8.29h8.29v8.29h-8.29ZM263.1,464.77v-8.29h8.29v8.29h-8.29ZM263.1,464.77v-8.29h8.29v8.29h-8.29ZM274.41,408.22v-8.29h8.29v8.29h-8.29ZM274.41,408.22v-8.29h8.29v8.29h-8.29ZM274.41,408.22v-8.29h8.29v8.29h-8.29ZM274.41,408.22v-8.29h8.29v8.29h-8.29ZM274.41,419.53v-8.29h8.29v8.29h-8.29ZM274.41,419.53v-8.29h8.29v8.29h-8.29ZM274.41,419.53v-8.29h8.29v8.29h-8.29ZM274.41,419.53v-8.29h8.29v8.29h-8.29ZM274.41,430.84v-8.29h8.29v8.29h-8.29ZM274.41,430.84v-8.29h8.29v8.29h-8.29ZM274.41,430.84v-8.29h8.29v8.29h-8.29ZM274.41,430.84v-8.29h8.29v8.29h-8.29ZM274.41,442.15v-8.29h8.29v8.29h-8.29ZM274.41,442.15v-8.29h8.29v8.29h-8.29ZM274.41,442.15v-8.29h8.29v8.29h-8.29ZM274.41,442.15v-8.29h8.29v8.29h-8.29ZM274.41,453.46v-8.29h8.29v8.29h-8.29ZM274.41,453.46v-8.29h8.29v8.29h-8.29ZM274.41,453.46v-8.29h8.29v8.29h-8.29ZM274.41,453.46v-8.29h8.29v8.29h-8.29ZM306.31,396.92v-8.29h8.29v8.29h-8.29ZM306.31,396.92v-8.29h8.29v8.29h-8.29ZM306.31,396.92v-8.29h8.29v8.29h-8.29ZM306.31,396.92v-8.29h8.29v8.29h-8.29ZM306.31,408.22v-8.29h8.29v8.29h-8.29ZM306.31,408.22v-8.29h8.29v8.29h-8.29ZM306.31,408.22v-8.29h8.29v8.29h-8.29ZM306.31,408.22v-8.29h8.29v8.29h-8.29ZM306.31,419.53v-8.29h8.29v8.29h-8.29ZM306.31,419.53v-8.29h8.29v8.29h-8.29ZM306.31,419.53v-8.29h8.29v8.29h-8.29ZM306.31,419.53v-8.29h8.29v8.29h-8.29ZM306.31,430.84v-8.29h8.29v8.29h-8.29ZM306.31,430.84v-8.29h8.29v8.29h-8.29ZM306.31,430.84v-8.29h8.29v8.29h-8.29ZM306.31,430.84v-8.29h8.29v8.29h-8.29ZM306.31,442.15v-8.29h8.29v8.29h-8.29ZM306.31,442.15v-8.29h8.29v8.29h-8.29ZM306.31,442.15v-8.29h8.29v8.29h-8.29ZM306.31,442.15v-8.29h8.29v8.29h-8.29ZM306.31,453.46v-8.29h8.29v8.29h-8.29ZM306.31,453.46v-8.29h8.29v8.29h-8.29ZM306.31,453.46v-8.29h8.29v8.29h-8.29ZM306.31,453.46v-8.29h8.29v8.29h-8.29ZM306.31,464.77v-8.29h8.29v8.29h-8.29ZM306.31,464.77v-8.29h8.29v8.29h-8.29ZM306.31,464.77v-8.29h8.29v8.29h-8.29ZM306.31,464.77v-8.29h8.29v8.29h-8.29ZM306.31,476.07v-8.29h8.29v8.29h-8.29ZM306.31,476.07v-8.29h8.29v8.29h-8.29ZM306.31,476.07v-8.29h8.29v8.29h-8.29ZM306.31,476.07v-8.29h8.29v8.29h-8.29ZM306.31,487.38v-8.29h8.29v8.29h-8.29ZM306.31,487.38v-8.29h8.29v8.29h-8.29ZM306.31,487.38v-8.29h8.29v8.29h-8.29ZM306.31,487.38v-8.29h8.29v8.29h-8.29ZM306.31,498.69v-8.29h8.29v8.29h-8.29ZM306.31,498.69v-8.29h8.29v8.29h-8.29ZM306.31,498.69v-8.29h8.29v8.29h-8.29ZM306.31,498.69v-8.29h8.29v8.29h-8.29ZM306.31,510v-8.29h8.29v8.29h-8.29ZM306.31,510v-8.29h8.29v8.29h-8.29ZM306.31,510v-8.29h8.29v8.29h-8.29ZM306.31,510v-8.29h8.29v8.29h-8.29ZM317.62,510v-8.29h8.29v8.29h-8.29ZM317.62,510v-8.29h8.29v8.29h-8.29ZM317.62,510v-8.29h8.29v8.29h-8.29ZM317.62,510v-8.29h8.29v8.29h-8.29ZM328.93,510v-8.29h8.29v8.29h-8.29ZM328.93,510v-8.29h8.29v8.29h-8.29ZM328.93,510v-8.29h8.29v8.29h-8.29ZM328.93,510v-8.29h8.29v8.29h-8.29ZM340.24,510v-8.29h8.29v8.29h-8.29ZM340.24,510v-8.29h8.29v8.29h-8.29ZM340.24,510v-8.29h8.29v8.29h-8.29ZM340.24,510v-8.29h8.29v8.29h-8.29ZM367.78,396.92v-8.29h8.29v8.29h-8.29ZM367.78,396.92v-8.29h8.29v8.29h-8.29ZM367.78,396.92v-8.29h8.29v8.29h-8.29ZM367.78,396.92v-8.29h8.29v8.29h-8.29ZM367.78,408.22v-8.29h8.29v8.29h-8.29ZM367.78,408.22v-8.29h8.29v8.29h-8.29ZM367.78,408.22v-8.29h8.29v8.29h-8.29ZM367.78,408.22v-8.29h8.29v8.29h-8.29ZM367.78,419.53v-8.29h8.29v8.29h-8.29ZM367.78,419.53v-8.29h8.29v8.29h-8.29ZM367.78,419.53v-8.29h8.29v8.29h-8.29ZM367.78,419.53v-8.29h8.29v8.29h-8.29ZM367.78,430.84v-8.29h8.29v8.29h-8.29ZM367.78,430.84v-8.29h8.29v8.29h-8.29ZM367.78,430.84v-8.29h8.29v8.29h-8.29ZM367.78,430.84v-8.29h8.29v8.29h-8.29ZM367.78,442.15v-8.29h8.29v8.29h-8.29ZM367.78,442.15v-8.29h8.29v8.29h-8.29ZM367.78,442.15v-8.29h8.29v8.29h-8.29ZM367.78,442.15v-8.29h8.29v8.29h-8.29ZM367.78,453.46v-8.29h8.29v8.29h-8.29ZM367.78,453.46v-8.29h8.29v8.29h-8.29ZM367.78,453.46v-8.29h8.29v8.29h-8.29ZM367.78,453.46v-8.29h8.29v8.29h-8.29ZM367.78,464.77v-8.29h8.29v8.29h-8.29ZM367.78,464.77v-8.29h8.29v8.29h-8.29ZM367.78,464.77v-8.29h8.29v8.29h-8.29ZM367.78,464.77v-8.29h8.29v8.29h-8.29ZM367.78,476.07v-8.29h8.29v8.29h-8.29ZM367.78,476.07v-8.29h8.29v8.29h-8.29ZM367.78,476.07v-8.29h8.29v8.29h-8.29ZM367.78,476.07v-8.29h8.29v8.29h-8.29ZM367.78,487.38v-8.29h8.29v8.29h-8.29ZM367.78,487.38v-8.29h8.29v8.29h-8.29ZM367.78,487.38v-8.29h8.29v8.29h-8.29ZM367.78,487.38v-8.29h8.29v8.29h-8.29ZM367.78,498.69v-8.29h8.29v8.29h-8.29ZM367.78,498.69v-8.29h8.29v8.29h-8.29ZM367.78,498.69v-8.29h8.29v8.29h-8.29ZM367.78,498.69v-8.29h8.29v8.29h-8.29ZM367.78,510v-8.29h8.29v8.29h-8.29ZM367.78,510v-8.29h8.29v8.29h-8.29ZM367.78,510v-8.29h8.29v8.29h-8.29ZM367.78,510v-8.29h8.29v8.29h-8.29ZM379.09,396.92v-8.29h8.29v8.29h-8.29ZM379.09,396.92v-8.29h8.29v8.29h-8.29ZM379.09,396.92v-8.29h8.29v8.29h-8.29ZM379.09,396.92v-8.29h8.29v8.29h-8.29ZM379.09,453.46v-8.29h8.29v8.29h-8.29ZM379.09,453.46v-8.29h8.29v8.29h-8.29ZM379.09,453.46v-8.29h8.29v8.29h-8.29ZM379.09,453.46v-8.29h8.29v8.29h-8.29ZM379.09,510v-8.29h8.29v8.29h-8.29ZM379.09,510v-8.29h8.29v8.29h-8.29ZM379.09,510v-8.29h8.29v8.29h-8.29ZM379.09,510v-8.29h8.29v8.29h-8.29ZM390.4,396.92v-8.29h8.29v8.29h-8.29ZM390.4,396.92v-8.29h8.29v8.29h-8.29ZM390.4,396.92v-8.29h8.29v8.29h-8.29ZM390.4,396.92v-8.29h8.29v8.29h-8.29ZM390.4,453.46v-8.29h8.29v8.29h-8.29ZM390.4,453.46v-8.29h8.29v8.29h-8.29ZM390.4,453.46v-8.29h8.29v8.29h-8.29ZM390.4,453.46v-8.29h8.29v8.29h-8.29ZM390.4,510v-8.29h8.29v8.29h-8.29ZM390.4,510v-8.29h8.29v8.29h-8.29ZM390.4,510v-8.29h8.29v8.29h-8.29ZM390.4,510v-8.29h8.29v8.29h-8.29ZM401.71,396.92v-8.29h8.29v8.29h-8.29ZM401.71,396.92v-8.29h8.29v8.29h-8.29ZM401.71,396.92v-8.29h8.29v8.29h-8.29ZM401.71,396.92v-8.29h8.29v8.29h-8.29ZM401.71,453.46v-8.29h8.29v8.29h-8.29ZM401.71,453.46v-8.29h8.29v8.29h-8.29ZM401.71,453.46v-8.29h8.29v8.29h-8.29ZM401.71,453.46v-8.29h8.29v8.29h-8.29ZM401.71,510v-8.29h8.29v8.29h-8.29ZM401.71,510v-8.29h8.29v8.29h-8.29ZM401.71,510v-8.29h8.29v8.29h-8.29ZM401.71,510v-8.29h8.29v8.29h-8.29Z"/></svg>