<?xml version="1.0" encoding="UTF-8"?><svg id="wtp-lock-h1-6" xmlns="http://www.w3.org/2000/svg" viewBox="0 0 620 180"><path d="M180,84.88h-44.77c-.76,7.41.67,15.28,4.3,23.63,6.51,15.56,20.76,26.19,40.46,31.88v29.61c-25.83-5.12-46.82-15.8-60.7-32.03-13.87-16.23-20.8-38.86-20.8-67.9V10h81.5v74.88ZM91.5,10H10s0,60.07,0,60.07c0,29.04,6.93,51.68,20.81,67.9,13.87,16.23,34.86,26.9,60.69,32.03v-29.61c-19.71-5.69-33.96-16.33-40.46-31.88-3.63-8.36-5.06-16.23-4.3-23.63h44.77s0-74.88,0-74.88Z"/><path d="M440,10h81.5v60.07c0,29.04-6.93,51.68-20.8,67.9-13.87,16.23-34.87,26.9-60.7,32.03v-29.61c19.71-5.69,33.96-16.33,40.46-31.88,3.63-8.36,5.06-16.23,4.3-23.63h-44.77V10ZM528.5,84.88h44.77c.76,7.41-.67,15.28-4.3,23.63-6.51,15.56-20.76,26.19-40.46,31.88v29.61c25.83-5.12,46.82-15.8,60.69-32.03,13.87-16.23,20.81-38.86,20.81-67.9V10h-81.5s0,74.88,0,74.88Z"/><path d="M197.5,15v-5h4.98v5h-4.98Z"/><path d="M197.5,15v-5h4.98v5h-4.98Z"/><path d="M197.5,15v-5h4.98v5h-4.98Z"/><path d="M197.5,15v-5h4.98v5h-4.98Z"/><path d="M197.5,21.81v-5h4.98v5h-4.98Z"/><path d="M197.5,21.81v-5h4.98v5h-4.98Z"/><path d="M197.5,21.81v-5h4.98v5h-4.98Z"/><path d="M197.5,21.81v-5h4.98v5h-4.98Z"/><path d="M197.5,28.62v-5h4.98v5h-4.98Z"/><path d="M197.5,28.62v-5h4.98v5h-4.98Z"/><path d="M197.5,28.62v-5h4.98v5h-4.98Z"/><path d="M197.5,28.62v-5h4.98v5h-4.98Z"/><path d="M197.5,35.44v-5h4.98v5h-4.98Z"/><path d="M197.5,35.44v-5h4.98v5h-4.98Z"/><path d="M197.5,35.44v-5h4.98v5h-4.98Z"/><path d="M197.5,35.44v-5h4.98v5h-4.98Z"/><path d="M197.5,42.25v-5h4.98v5h-4.98Z"/><path d="M197.5,42.25v-5h4.98v5h-4.98Z"/><path d="M197.5,42.25v-5h4.98v5h-4.98Z"/><path d="M197.5,42.25v-5h4.98v5h-4.98Z"/><path d="M197.5,49.06v-5h4.98v5h-4.98Z"/><path d="M197.5,49.06v-5h4.98v5h-4.98Z"/><path d="M197.5,49.06v-5h4.98v5h-4.98Z"/><path d="M197.5,49.06v-5h4.98v5h-4.98Z"/><path d="M197.5,55.88v-5h4.98v5h-4.98Z"/><path d="M197.5,55.88v-5h4.98v5h-4.98Z"/><path d="M197.5,55.88v-5h4.98v5h-4.98Z"/><path d="M197.5,55.88v-5h4.98v5h-4.98Z"/><path d="M200.9,62.69v-5h4.98v5h-4.98Z"/><path d="M200.9,62.69v-5h4.98v5h-4.98Z"/><path d="M200.9,62.69v-5h4.98v5h-4.98Z"/><path d="M200.9,62.69v-5h4.98v5h-4.98Z"/><path d="M204.3,69.5v-5h4.98v5h-4.98Z"/><path d="M204.3,69.5v-5h4.98v5h-4.98Z"/><path d="M204.3,69.5v-5h4.98v5h-4.98Z"/><path d="M204.3,69.5v-5h4.98v5h-4.98Z"/><path d="M207.69,76.32v-5h4.98v5h-4.98Z"/><path d="M207.69,76.32v-5h4.98v5h-4.98Z"/><path d="M207.69,76.32v-5h4.98v5h-4.98Z"/><path d="M207.69,76.32v-5h4.98v5h-4.98Z"/><path d="M211.09,83.13v-5h4.98v5h-4.98Z"/><path d="M211.09,83.13v-5h4.98v5h-4.98Z"/><path d="M211.09,83.13v-5h4.98v5h-4.98Z"/><path d="M211.09,83.13v-5h4.98v5h-4.98Z"/><path d="M214.49,76.32v-5h4.98v5h-4.98Z"/><path d="M214.49,76.32v-5h4.98v5h-4.98Z"/><path d="M214.49,76.32v-5h4.98v5h-4.98Z"/><path d="M214.49,76.32v-5h4.98v5h-4.98Z"/><path d="M217.89,69.5v-5h4.98v5h-4.98Z"/><path d="M217.89,69.5v-5h4.98v5h-4.98Z"/><path d="M217.89,69.5v-5h4.98v5h-4.98Z"/><path d="M217.89,69.5v-5h4.98v5h-4.98Z"/><path d="M221.29,62.69v-5h4.98v5h-4.98Z"/><path d="M221.29,62.69v-5h4.98v5h-4.98Z"/><path d="M221.29,62.69v-5h4.98v5h-4.98Z"/><path d="M221.29,62.69v-5h4.98v5h-4.98Z"/><path d="M224.68,15v-5h4.98v5h-4.98Z"/><path d="M224.68,15v-5h4.98v5h-4.98Z"/><path d="M224.68,15v-5h4.98v5h-4.98Z"/><path d="M224.68,15v-5h4.98v5h-4.98Z"/><path d="M224.68,21.81v-5h4.98v5h-4.98Z"/><path d="M224.68,21.81v-5h4.98v5h-4.98Z"/><path d="M224.68,21.81v-5h4.98v5h-4.98Z"/><path d="M224.68,21.81v-5h4.98v5h-4.98Z"/><path d="M224.68,28.62v-5h4.98v5h-4.98Z"/><path d="M224.68,28.62v-5h4.98v5h-4.98Z"/><path d="M224.68,28.62v-5h4.98v5h-4.98Z"/><path d="M224.68,28.62v-5h4.98v5h-4.98Z"/><path d="M224.68,35.44v-5h4.98v5h-4.98Z"/><path d="M224.68,35.44v-5h4.98v5h-4.98Z"/><path d="M224.68,35.44v-5h4.98v5h-4.98Z"/><path d="M224.68,35.44v-5h4.98v5h-4.98Z"/><path d="M224.68,42.25v-5h4.98v5h-4.98Z"/><path d="M224.68,42.25v-5h4.98v5h-4.98Z"/><path d="M224.68,42.25v-5h4.98v5h-4.98Z"/><path d="M224.68,42.25v-5h4.98v5h-4.98Z"/><path d="M224.68,49.06v-5h4.98v5h-4.98Z"/><path d="M224.68,49.06v-5h4.98v5h-4.98Z"/><path d="M224.68,49.06v-5h4.98v5h-4.98Z"/><path d="M224.68,49.06v-5h4.98v5h-4.98Z"/><path d="M224.68,55.88v-5h4.98v5h-4.98Z"/><path d="M224.68,55.88v-5h4.98v5h-4.98Z"/><path d="M224.68,55.88v-5h4.98v5h-4.98Z"/><path d="M224.68,55.88v-5h4.98v5h-4.98Z"/><path d="M228.08,62.69v-5h4.98v5h-4.98Z"/><path d="M228.08,62.69v-5h4.98v5h-4.98Z"/><path d="M228.08,62.69v-5h4.98v5h-4.98Z"/><path d="M228.08,62.69v-5h4.98v5h-4.98Z"/><path d="M231.48,69.5v-5h4.98v5h-4.98Z"/><path d="M231.48,69.5v-5h4.98v5h-4.98Z"/><path d="M231.48,69.5v-5h4.98v5h-4.98Z"/><path d="M231.48,69.5v-5h4.98v5h-4.98Z"/><path d="M234.88,76.32v-5h4.98v5h-4.98Z"/><path d="M234.88,76.32v-5h4.98v5h-4.98Z"/><path d="M234.88,76.32v-5h4.98v5h-4.98Z"/><path d="M234.88,76.32v-5h4.98v5h-4.98Z"/><path d="M238.28,83.13v-5h4.98v5h-4.98Z"/><path d="M238.28,83.13v-5h4.98v5h-4.98Z"/><path d="M238.28,83.13v-5h4.98v5h-4.98Z"/><path d="M238.28,83.13v-5h4.98v5h-4.98Z"/><path d="M241.67,76.32v-5h4.98v5h-4.98Z"/><path d="M241.67,76.32v-5h4.98v5h-4.98Z"/><path d="M241.67,76.32v-5h4.98v5h-4.98Z"/><path d="M241.67,76.32v-5h4.98v5h-4.98Z"/><path d="M245.07,69.5v-5h4.98v5h-4.98Z"/><path d="M245.07,69.5v-5h4.98v5h-4.98Z"/><path d="M245.07,69.5v-5h4.98v5h-4.98Z"/><path d="M245.07,69.5v-5h4.98v5h-4.98Z"/><path d="M248.47,62.69v-5h4.98v5h-4.98Z"/><path d="M248.47,62.69v-5h4.98v5h-4.98Z"/><path d="M248.47,62.69v-5h4.98v5h-4.98Z"/><path d="M248.47,62.69v-5h4.98v5h-4.98Z"/><path d="M251.87,15v-5h4.98v5h-4.98Z"/><path d="M251.87,15v-5h4.98v5h-4.98Z"/><path d="M251.87,15v-5h4.98v5h-4.98Z"/><path d="M251.87,15v-5h4.98v5h-4.98Z"/><path d="M251.87,21.81v-5h4.98v5h-4.98Z"/><path d="M251.87,21.81v-5h4.98v5h-4.98Z"/><path d="M251.87,21.81v-5h4.98v5h-4.98Z"/><path d="M251.87,21.81v-5h4.98v5h-4.98Z"/><path d="M251.87,28.62v-5h4.98v5h-4.98Z"/><path d="M251.87,28.62v-5h4.98v5h-4.98Z"/><path d="M251.87,28.62v-5h4.98v5h-4.98Z"/><path d="M251.87,28.62v-5h4.98v5h-4.98Z"/><path d="M251.87,35.44v-5h4.98v5h-4.98Z"/><path d="M251.87,35.44v-5h4.98v5h-4.98Z"/><path d="M251.87,35.44v-5h4.98v5h-4.98Z"/><path d="M251.87,35.44v-5h4.98v5h-4.98Z"/><path d="M251.87,42.25v-5h4.98v5h-4.98Z"/><path d="M251.87,42.25v-5h4.98v5h-4.98Z"/><path d="M251.87,42.25v-5h4.98v5h-4.98Z"/><path d="M251.87,42.25v-5h4.98v5h-4.98Z"/><path d="M251.87,49.06v-5h4.98v5h-4.98Z"/><path d="M251.87,49.06v-5h4.98v5h-4.98Z"/><path d="M251.87,49.06v-5h4.98v5h-4.98Z"/><path d="M251.87,49.06v-5h4.98v5h-4.98Z"/><path d="M251.87,55.88v-5h4.98v5h-4.98Z"/><path d="M251.87,55.88v-5h4.98v5h-4.98Z"/><path d="M251.87,55.88v-5h4.98v5h-4.98Z"/><path d="M251.87,55.88v-5h4.98v5h-4.98Z"/><path d="M265.7,15v-5h4.98v5h-4.98Z"/><path d="M265.7,15v-5h4.98v5h-4.98Z"/><path d="M265.7,15v-5h4.98v5h-4.98Z"/><path d="M265.7,15v-5h4.98v5h-4.98Z"/><path d="M265.7,21.81v-5h4.98v5h-4.98Z"/><path d="M265.7,21.81v-5h4.98v5h-4.98Z"/><path d="M265.7,21.81v-5h4.98v5h-4.98Z"/><path d="M265.7,21.81v-5h4.98v5h-4.98Z"/><path d="M265.7,28.62v-5h4.98v5h-4.98Z"/><path d="M265.7,28.62v-5h4.98v5h-4.98Z"/><path d="M265.7,28.62v-5h4.98v5h-4.98Z"/><path d="M265.7,28.62v-5h4.98v5h-4.98Z"/><path d="M265.7,35.44v-5h4.98v5h-4.98Z"/><path d="M265.7,35.44v-5h4.98v5h-4.98Z"/><path d="M265.7,35.44v-5h4.98v5h-4.98Z"/><path d="M265.7,35.44v-5h4.98v5h-4.98Z"/><path d="M265.7,42.25v-5h4.98v5h-4.98Z"/><path d="M265.7,42.25v-5h4.98v5h-4.98Z"/><path d="M265.7,42.25v-5h4.98v5h-4.98Z"/><path d="M265.7,42.25v-5h4.98v5h-4.98Z"/><path d="M265.7,49.06v-5h4.98v5h-4.98Z"/><path d="M265.7,49.06v-5h4.98v5h-4.98Z"/><path d="M265.7,49.06v-5h4.98v5h-4.98Z"/><path d="M265.7,49.06v-5h4.98v5h-4.98Z"/><path d="M265.7,55.88v-5h4.98v5h-4.98Z"/><path d="M265.7,55.88v-5h4.98v5h-4.98Z"/><path d="M265.7,55.88v-5h4.98v5h-4.98Z"/><path d="M265.7,55.88v-5h4.98v5h-4.98Z"/><path d="M265.7,62.69v-5h4.98v5h-4.98Z"/><path d="M265.7,62.69v-5h4.98v5h-4.98Z"/><path d="M265.7,62.69v-5h4.98v5h-4.98Z"/><path d="M265.7,62.69v-5h4.98v5h-4.98Z"/><path d="M265.7,69.5v-5h4.98v5h-4.98Z"/><path d="M265.7,69.5v-5h4.98v5h-4.98Z"/><path d="M265.7,69.5v-5h4.98v5h-4.98Z"/><path d="M265.7,69.5v-5h4.98v5h-4.98Z"/><path d="M265.7,76.32v-5h4.98v5h-4.98Z"/><path d="M265.7,76.32v-5h4.98v5h-4.98Z"/><path d="M265.7,76.32v-5h4.98v5h-4.98Z"/><path d="M265.7,76.32v-5h4.98v5h-4.98Z"/><path d="M265.7,83.13v-5h4.98v5h-4.98Z"/><path d="M265.7,83.13v-5h4.98v5h-4.98Z"/><path d="M265.7,83.13v-5h4.98v5h-4.98Z"/><path d="M265.7,83.13v-5h4.98v5h-4.98Z"/><path d="M272.49,15v-5h4.98v5h-4.98Z"/><path d="M272.49,15v-5h4.98v5h-4.98Z"/><path d="M272.49,15v-5h4.98v5h-4.98Z"/><path d="M272.49,15v-5h4.98v5h-4.98Z"/><path d="M272.49,49.06v-5h4.98v5h-4.98Z"/><path d="M272.49,49.06v-5h4.98v5h-4.98Z"/><path d="M272.49,49.06v-5h4.98v5h-4.98Z"/><path d="M272.49,49.06v-5h4.98v5h-4.98Z"/><path d="M272.49,83.13v-5h4.98v5h-4.98Z"/><path d="M272.49,83.13v-5h4.98v5h-4.98Z"/><path d="M272.49,83.13v-5h4.98v5h-4.98Z"/><path d="M272.49,83.13v-5h4.98v5h-4.98Z"/><path d="M279.29,15v-5h4.98v5h-4.98Z"/><path d="M279.29,15v-5h4.98v5h-4.98Z"/><path d="M279.29,15v-5h4.98v5h-4.98Z"/><path d="M279.29,15v-5h4.98v5h-4.98Z"/><path d="M279.29,49.06v-5h4.98v5h-4.98Z"/><path d="M279.29,49.06v-5h4.98v5h-4.98Z"/><path d="M279.29,49.06v-5h4.98v5h-4.98Z"/><path d="M279.29,49.06v-5h4.98v5h-4.98Z"/><path d="M279.29,83.13v-5h4.98v5h-4.98Z"/><path d="M279.29,83.13v-5h4.98v5h-4.98Z"/><path d="M279.29,83.13v-5h4.98v5h-4.98Z"/><path d="M279.29,83.13v-5h4.98v5h-4.98Z"/><path d="M286.09,15v-5h4.98v5h-4.98Z"/><path d="M286.09,15v-5h4.98v5h-4.98Z"/><path d="M286.09,15v-5h4.98v5h-4.98Z"/><path d="M286.09,15v-5h4.98v5h-4.98Z"/><path d="M286.09,49.06v-5h4.98v5h-4.98Z"/><path d="M286.09,49.06v-5h4.98v5h-4.98Z"/><path d="M286.09,49.06v-5h4.98v5h-4.98Z"/><path d="M286.09,49.06v-5h4.98v5h-4.98Z"/><path d="M286.09,83.13v-5h4.98v5h-4.98Z"/><path d="M286.09,83.13v-5h4.98v5h-4.98Z"/><path d="M286.09,83.13v-5h4.98v5h-4.98Z"/><path d="M286.09,83.13v-5h4.98v5h-4.98Z"/><path d="M314.42,15v-5h4.98v5h-4.98Z"/><path d="M314.42,15v-5h4.98v5h-4.98Z"/><path d="M314.42,15v-5h4.98v5h-4.98Z"/><path d="M314.42,15v-5h4.98v5h-4.98Z"/><path d="M321.21,15v-5h4.98v5h-4.98Z"/><path d="M321.21,15v-5h4.98v5h-4.98Z"/><path d="M321.21,15v-5h4.98v5h-4.98Z"/><path d="M321.21,15v-5h4.98v5h-4.98Z"/><path d="M328.01,15v-5h4.98v5h-4.98Z"/><path d="M328.01,15v-5h4.98v5h-4.98Z"/><path d="M328.01,15v-5h4.98v5h-4.98Z"/><path d="M328.01,15v-5h4.98v5h-4.98Z"/><path d="M328.01,21.81v-5h4.98v5h-4.98Z"/><path d="M328.01,21.81v-5h4.98v5h-4.98Z"/><path d="M328.01,21.81v-5h4.98v5h-4.98Z"/><path d="M328.01,21.81v-5h4.98v5h-4.98Z"/><path d="M328.01,28.62v-5h4.98v5h-4.98Z"/><path d="M328.01,28.62v-5h4.98v5h-4.98Z"/><path d="M328.01,28.62v-5h4.98v5h-4.98Z"/><path d="M328.01,28.62v-5h4.98v5h-4.98Z"/><path d="M328.01,35.44v-5h4.98v5h-4.98Z"/><path d="M328.01,35.44v-5h4.98v5h-4.98Z"/><path d="M328.01,35.44v-5h4.98v5h-4.98Z"/><path d="M328.01,35.44v-5h4.98v5h-4.98Z"/><path d="M328.01,42.25v-5h4.98v5h-4.98Z"/><path d="M328.01,42.25v-5h4.98v5h-4.98Z"/><path d="M328.01,42.25v-5h4.98v5h-4.98Z"/><path d="M328.01,42.25v-5h4.98v5h-4.98Z"/><path d="M328.01,49.06v-5h4.98v5h-4.98Z"/><path d="M328.01,49.06v-5h4.98v5h-4.98Z"/><path d="M328.01,49.06v-5h4.98v5h-4.98Z"/><path d="M328.01,49.06v-5h4.98v5h-4.98Z"/><path d="M328.01,55.88v-5h4.98v5h-4.98Z"/><path d="M328.01,55.88v-5h4.98v5h-4.98Z"/><path d="M328.01,55.88v-5h4.98v5h-4.98Z"/><path d="M328.01,55.88v-5h4.98v5h-4.98Z"/><path d="M328.01,62.69v-5h4.98v5h-4.98Z"/><path d="M328.01,62.69v-5h4.98v5h-4.98Z"/><path d="M328.01,62.69v-5h4.98v5h-4.98Z"/><path d="M328.01,62.69v-5h4.98v5h-4.98Z"/><path d="M328.01,69.5v-5h4.98v5h-4.98Z"/><path d="M328.01,69.5v-5h4.98v5h-4.98Z"/><path d="M328.01,69.5v-5h4.98v5h-4.98Z"/><path d="M328.01,69.5v-5h4.98v5h-4.98Z"/><path d="M328.01,76.32v-5h4.98v5h-4.98Z"/><path d="M328.01,76.32v-5h4.98v5h-4.98Z"/><path d="M328.01,76.32v-5h4.98v5h-4.98Z"/><path d="M328.01,76.32v-5h4.98v5h-4.98Z"/><path d="M328.01,83.13v-5h4.98v5h-4.98Z"/><path d="M328.01,83.13v-5h4.98v5h-4.98Z"/><path d="M328.01,83.13v-5h4.98v5h-4.98Z"/><path d="M328.01,83.13v-5h4.98v5h-4.98Z"/><path d="M334.81,15v-5h4.98v5h-4.98Z"/><path d="M334.81,15v-5h4.98v5h-4.98Z"/><path d="M334.81,15v-5h4.98v5h-4.98Z"/><path d="M334.81,15v-5h4.98v5h-4.98Z"/><path d="M341.6,15v-5h4.98v5h-4.98Z"/><path d="M341.6,15v-5h4.98v5h-4.98Z"/><path d="M341.6,15v-5h4.98v5h-4.98Z"/><path d="M341.6,15v-5h4.98v5h-4.98Z"/><path d="M355.5,15v-5h4.98v5h-4.98Z"/><path d="M355.5,15v-5h4.98v5h-4.98Z"/><path d="M355.5,15v-5h4.98v5h-4.98Z"/><path d="M355.5,15v-5h4.98v5h-4.98Z"/><path d="M355.5,21.81v-5h4.98v5h-4.98Z"/><path d="M355.5,21.81v-5h4.98v5h-4.98Z"/><path d="M355.5,21.81v-5h4.98v5h-4.98Z"/><path d="M355.5,21.81v-5h4.98v5h-4.98Z"/><path d="M355.5,28.62v-5h4.98v5h-4.98Z"/><path d="M355.5,28.62v-5h4.98v5h-4.98Z"/><path d="M355.5,28.62v-5h4.98v5h-4.98Z"/><path d="M355.5,28.62v-5h4.98v5h-4.98Z"/><path d="M355.5,35.44v-5h4.98v5h-4.98Z"/><path d="M355.5,35.44v-5h4.98v5h-4.98Z"/><path d="M355.5,35.44v-5h4.98v5h-4.98Z"/><path d="M355.5,35.44v-5h4.98v5h-4.98Z"/><path d="M355.5,42.25v-5h4.98v5h-4.98Z"/><path d="M355.5,42.25v-5h4.98v5h-4.98Z"/><path d="M355.5,42.25v-5h4.98v5h-4.98Z"/><path d="M355.5,42.25v-5h4.98v5h-4.98Z"/><path d="M355.5,49.06v-5h4.98v5h-4.98Z"/><path d="M355.5,49.06v-5h4.98v5h-4.98Z"/><path d="M355.5,49.06v-5h4.98v5h-4.98Z"/><path d="M355.5,49.06v-5h4.98v5h-4.98Z"/><path d="M355.5,55.88v-5h4.98v5h-4.98Z"/><path d="M355.5,55.88v-5h4.98v5h-4.98Z"/><path d="M355.5,55.88v-5h4.98v5h-4.98Z"/><path d="M355.5,55.88v-5h4.98v5h-4.98Z"/><path d="M355.5,62.69v-5h4.98v5h-4.98Z"/><path d="M355.5,62.69v-5h4.98v5h-4.98Z"/><path d="M355.5,62.69v-5h4.98v5h-4.98Z"/><path d="M355.5,62.69v-5h4.98v5h-4.98Z"/><path d="M355.5,69.5v-5h4.98v5h-4.98Z"/><path d="M355.5,69.5v-5h4.98v5h-4.98Z"/><path d="M355.5,69.5v-5h4.98v5h-4.98Z"/><path d="M355.5,69.5v-5h4.98v5h-4.98Z"/><path d="M355.5,76.32v-5h4.98v5h-4.98Z"/><path d="M355.5,76.32v-5h4.98v5h-4.98Z"/><path d="M355.5,76.32v-5h4.98v5h-4.98Z"/><path d="M355.5,76.32v-5h4.98v5h-4.98Z"/><path d="M355.5,83.13v-5h4.98v5h-4.98Z"/><path d="M355.5,83.13v-5h4.98v5h-4.98Z"/><path d="M355.5,83.13v-5h4.98v5h-4.98Z"/><path d="M355.5,83.13v-5h4.98v5h-4.98Z"/><path d="M362.3,49.06v-5h4.98v5h-4.98Z"/><path d="M362.3,49.06v-5h4.98v5h-4.98Z"/><path d="M362.3,49.06v-5h4.98v5h-4.98Z"/><path d="M362.3,49.06v-5h4.98v5h-4.98Z"/><path d="M369.09,49.06v-5h4.98v5h-4.98Z"/><path d="M369.09,49.06v-5h4.98v5h-4.98Z"/><path d="M369.09,49.06v-5h4.98v5h-4.98Z"/><path d="M369.09,49.06v-5h4.98v5h-4.98Z"/><path d="M375.89,49.06v-5h4.98v5h-4.98Z"/><path d="M375.89,49.06v-5h4.98v5h-4.98Z"/><path d="M375.89,49.06v-5h4.98v5h-4.98Z"/><path d="M375.89,49.06v-5h4.98v5h-4.98Z"/><path d="M382.69,15v-5h4.98v5h-4.98Z"/><path d="M382.69,15v-5h4.98v5h-4.98Z"/><path d="M382.69,15v-5h4.98v5h-4.98Z"/><path d="M382.69,15v-5h4.98v5h-4.98Z"/><path d="M382.69,21.81v-5h4.98v5h-4.98Z"/><path d="M382.69,21.81v-5h4.98v5h-4.98Z"/><path d="M382.69,21.81v-5h4.98v5h-4.98Z"/><path d="M382.69,21.81v-5h4.98v5h-4.98Z"/><path d="M382.69,28.62v-5h4.98v5h-4.98Z"/><path d="M382.69,28.62v-5h4.98v5h-4.98Z"/><path d="M382.69,28.62v-5h4.98v5h-4.98Z"/><path d="M382.69,28.62v-5h4.98v5h-4.98Z"/><path d="M382.69,35.44v-5h4.98v5h-4.98Z"/><path d="M382.69,35.44v-5h4.98v5h-4.98Z"/><path d="M382.69,35.44v-5h4.98v5h-4.98Z"/><path d="M382.69,35.44v-5h4.98v5h-4.98Z"/><path d="M382.69,42.25v-5h4.98v5h-4.98Z"/><path d="M382.69,42.25v-5h4.98v5h-4.98Z"/><path d="M382.69,42.25v-5h4.98v5h-4.98Z"/><path d="M382.69,42.25v-5h4.98v5h-4.98Z"/><path d="M382.69,49.06v-5h4.98v5h-4.98Z"/><path d="M382.69,49.06v-5h4.98v5h-4.98Z"/><path d="M382.69,49.06v-5h4.98v5h-4.98Z"/><path d="M382.69,49.06v-5h4.98v5h-4.98Z"/><path d="M382.69,55.88v-5h4.98v5h-4.98Z"/><path d="M382.69,55.88v-5h4.98v5h-4.98Z"/><path d="M382.69,55.88v-5h4.98v5h-4.98Z"/><path d="M382.69,55.88v-5h4.98v5h-4.98Z"/><path d="M382.69,62.69v-5h4.98v5h-4.98Z"/><path d="M382.69,62.69v-5h4.98v5h-4.98Z"/><path d="M382.69,62.69v-5h4.98v5h-4.98Z"/><path d="M382.69,62.69v-5h4.98v5h-4.98Z"/><path d="M382.69,69.5v-5h4.98v5h-4.98Z"/><path d="M382.69,69.5v-5h4.98v5h-4.98Z"/><path d="M382.69,69.5v-5h4.98v5h-4.98Z"/><path d="M382.69,69.5v-5h4.98v5h-4.98Z"/><path d="M382.69,76.32v-5h4.98v5h-4.98Z"/><path d="M382.69,76.32v-5h4.98v5h-4.98Z"/><path d="M382.69,76.32v-5h4.98v5h-4.98Z"/><path d="M382.69,76.32v-5h4.98v5h-4.98Z"/><path d="M382.69,83.13v-5h4.98v5h-4.98Z"/><path d="M382.69,83.13v-5h4.98v5h-4.98Z"/><path d="M382.69,83.13v-5h4.98v5h-4.98Z"/><path d="M382.69,83.13v-5h4.98v5h-4.98Z"/><path d="M397.13,15v-5h4.98v5h-4.98Z"/><path d="M397.13,15v-5h4.98v5h-4.98Z"/><path d="M397.13,15v-5h4.98v5h-4.98Z"/><path d="M397.13,15v-5h4.98v5h-4.98Z"/><path d="M397.13,21.81v-5h4.98v5h-4.98Z"/><path d="M397.13,21.81v-5h4.98v5h-4.98Z"/><path d="M397.13,21.81v-5h4.98v5h-4.98Z"/><path d="M397.13,21.81v-5h4.98v5h-4.98Z"/><path d="M397.13,28.62v-5h4.98v5h-4.98Z"/><path d="M397.13,28.62v-5h4.98v5h-4.98Z"/><path d="M397.13,28.62v-5h4.98v5h-4.98Z"/><path d="M397.13,28.62v-5h4.98v5h-4.98Z"/><path d="M397.13,35.44v-5h4.98v5h-4.98Z"/><path d="M397.13,35.44v-5h4.98v5h-4.98Z"/><path d="M397.13,35.44v-5h4.98v5h-4.98Z"/><path d="M397.13,35.44v-5h4.98v5h-4.98Z"/><path d="M397.13,42.25v-5h4.98v5h-4.98Z"/><path d="M397.13,42.25v-5h4.98v5h-4.98Z"/><path d="M397.13,42.25v-5h4.98v5h-4.98Z"/><path d="M397.13,42.25v-5h4.98v5h-4.98Z"/><path d="M397.13,49.06v-5h4.98v5h-4.98Z"/><path d="M397.13,49.06v-5h4.98v5h-4.98Z"/><path d="M397.13,49.06v-5h4.98v5h-4.98Z"/><path d="M397.13,49.06v-5h4.98v5h-4.98Z"/><path d="M397.13,55.88v-5h4.98v5h-4.98Z"/><path d="M397.13,55.88v-5h4.98v5h-4.98Z"/><path d="M397.13,55.88v-5h4.98v5h-4.98Z"/><path d="M397.13,55.88v-5h4.98v5h-4.98Z"/><path d="M397.13,62.69v-5h4.98v5h-4.98Z"/><path d="M397.13,62.69v-5h4.98v5h-4.98Z"/><path d="M397.13,62.69v-5h4.98v5h-4.98Z"/><path d="M397.13,62.69v-5h4.98v5h-4.98Z"/><path d="M397.13,69.5v-5h4.98v5h-4.98Z"/><path d="M397.13,69.5v-5h4.98v5h-4.98Z"/><path d="M397.13,69.5v-5h4.98v5h-4.98Z"/><path d="M397.13,69.5v-5h4.98v5h-4.98Z"/><path d="M397.13,76.32v-5h4.98v5h-4.98Z"/><path d="M397.13,76.32v-5h4.98v5h-4.98Z"/><path d="M397.13,76.32v-5h4.98v5h-4.98Z"/><path d="M397.13,76.32v-5h4.98v5h-4.98Z"/><path d="M397.13,83.13v-5h4.98v5h-4.98Z"/><path d="M397.13,83.13v-5h4.98v5h-4.98Z"/><path d="M397.13,83.13v-5h4.98v5h-4.98Z"/><path d="M397.13,83.13v-5h4.98v5h-4.98Z"/><path d="M403.92,15v-5h4.98v5h-4.98Z"/><path d="M403.92,15v-5h4.98v5h-4.98Z"/><path d="M403.92,15v-5h4.98v5h-4.98Z"/><path d="M403.92,15v-5h4.98v5h-4.98Z"/><path d="M403.92,49.06v-5h4.98v5h-4.98Z"/><path d="M403.92,49.06v-5h4.98v5h-4.98Z"/><path d="M403.92,49.06v-5h4.98v5h-4.98Z"/><path d="M403.92,49.06v-5h4.98v5h-4.98Z"/><path d="M403.92,83.13v-5h4.98v5h-4.98Z"/><path d="M403.92,83.13v-5h4.98v5h-4.98Z"/><path d="M403.92,83.13v-5h4.98v5h-4.98Z"/><path d="M403.92,83.13v-5h4.98v5h-4.98Z"/><path d="M410.72,15v-5h4.98v5h-4.98Z"/><path d="M410.72,15v-5h4.98v5h-4.98Z"/><path d="M410.72,15v-5h4.98v5h-4.98Z"/><path d="M410.72,15v-5h4.98v5h-4.98Z"/><path d="M410.72,49.06v-5h4.98v5h-4.98Z"/><path d="M410.72,49.06v-5h4.98v5h-4.98Z"/><path d="M410.72,49.06v-5h4.98v5h-4.98Z"/><path d="M410.72,49.06v-5h4.98v5h-4.98Z"/><path d="M410.72,83.13v-5h4.98v5h-4.98Z"/><path d="M410.72,83.13v-5h4.98v5h-4.98Z"/><path d="M410.72,83.13v-5h4.98v5h-4.98Z"/><path d="M410.72,83.13v-5h4.98v5h-4.98Z"/><path d="M417.52,15v-5h4.98v5h-4.98Z"/><path d="M417.52,15v-5h4.98v5h-4.98Z"/><path d="M417.52,15v-5h4.98v5h-4.98Z"/><path d="M417.52,15v-5h4.98v5h-4.98Z"/><path d="M417.52,49.06v-5h4.98v5h-4.98Z"/><path d="M417.52,49.06v-5h4.98v5h-4.98Z"/><path d="M417.52,49.06v-5h4.98v5h-4.98Z"/><path d="M417.52,49.06v-5h4.98v5h-4.98Z"/><path d="M417.52,83.13v-5h4.98v5h-4.98Z"/><path d="M417.52,83.13v-5h4.98v5h-4.98Z"/><path d="M417.52,83.13v-5h4.98v5h-4.98Z"/><path d="M417.52,83.13v-5h4.98v5h-4.98Z"/><path d="M197.5,101.87v-5h4.98v5h-4.98ZM197.5,101.87v-5h4.98v5h-4.98ZM197.5,101.87v-5h4.98v5h-4.98ZM197.5,101.87v-5h4.98v5h-4.98ZM197.5,108.68v-5h4.98v5h-4.98ZM197.5,108.68v-5h4.98v5h-4.98ZM197.5,108.68v-5h4.98v5h-4.98ZM197.5,108.68v-5h4.98v5h-4.98ZM197.5,115.49v-5h4.98v5h-4.98ZM197.5,115.49v-5h4.98v5h-4.98ZM197.5,115.49v-5h4.98v5h-4.98ZM197.5,115.49v-5h4.98v5h-4.98ZM197.5,122.31v-5h4.98v5h-4.98ZM197.5,122.31v-5h4.98v5h-4.98ZM197.5,122.31v-5h4.98v5h-4.98ZM197.5,122.31v-5h4.98v5h-4.98ZM197.5,129.12v-5h4.98v5h-4.98ZM197.5,129.12v-5h4.98v5h-4.98ZM197.5,129.12v-5h4.98v5h-4.98ZM197.5,129.12v-5h4.98v5h-4.98ZM197.5,135.93v-5h4.98v5h-4.98ZM197.5,135.93v-5h4.98v5h-4.98ZM197.5,135.93v-5h4.98v5h-4.98ZM197.5,135.93v-5h4.98v5h-4.98ZM197.5,142.75v-5h4.98v5h-4.98ZM197.5,142.75v-5h4.98v5h-4.98ZM197.5,142.75v-5h4.98v5h-4.98ZM197.5,142.75v-5h4.98v5h-4.98ZM197.5,149.56v-5h4.98v5h-4.98ZM197.5,149.56v-5h4.98v5h-4.98ZM197.5,149.56v-5h4.98v5h-4.98ZM197.5,149.56v-5h4.98v5h-4.98ZM197.5,156.37v-5h4.98v5h-4.98ZM197.5,156.37v-5h4.98v5h-4.98ZM197.5,156.37v-5h4.98v5h-4.98ZM197.5,156.37v-5h4.98v5h-4.98ZM197.5,163.19v-5h4.98v5h-4.98ZM197.5,163.19v-5h4.98v5h-4.98ZM197.5,163.19v-5h4.98v5h-4.98ZM197.5,163.19v-5h4.98v5h-4.98ZM197.5,170v-5h4.98v5h-4.98ZM197.5,170v-5h4.98v5h-4.98ZM197.5,170v-5h4.98v5h-4.98ZM197.5,170v-5h4.98v5h-4.98ZM204.3,101.87v-5h4.98v5h-4.98ZM204.3,101.87v-5h4.98v5h-4.98ZM204.3,101.87v-5h4.98v5h-4.98ZM204.3,101.87v-5h4.98v5h-4.98ZM204.3,142.75v-5h4.98v5h-4.98ZM204.3,142.75v-5h4.98v5h-4.98ZM204.3,142.75v-5h4.98v5h-4.98ZM204.3,142.75v-5h4.98v5h-4.98ZM211.09,101.87v-5h4.98v5h-4.98ZM211.09,101.87v-5h4.98v5h-4.98ZM211.09,101.87v-5h4.98v5h-4.98ZM211.09,101.87v-5h4.98v5h-4.98ZM211.09,142.75v-5h4.98v5h-4.98ZM211.09,142.75v-5h4.98v5h-4.98ZM211.09,142.75v-5h4.98v5h-4.98ZM211.09,142.75v-5h4.98v5h-4.98ZM217.89,101.87v-5h4.98v5h-4.98ZM217.89,101.87v-5h4.98v5h-4.98ZM217.89,101.87v-5h4.98v5h-4.98ZM217.89,101.87v-5h4.98v5h-4.98ZM217.89,142.75v-5h4.98v5h-4.98ZM217.89,142.75v-5h4.98v5h-4.98ZM217.89,142.75v-5h4.98v5h-4.98ZM217.89,142.75v-5h4.98v5h-4.98ZM224.68,108.68v-5h4.98v5h-4.98ZM224.68,108.68v-5h4.98v5h-4.98ZM224.68,108.68v-5h4.98v5h-4.98ZM224.68,108.68v-5h4.98v5h-4.98ZM224.68,115.49v-5h4.98v5h-4.98ZM224.68,115.49v-5h4.98v5h-4.98ZM224.68,115.49v-5h4.98v5h-4.98ZM224.68,115.49v-5h4.98v5h-4.98ZM224.68,122.31v-5h4.98v5h-4.98ZM224.68,122.31v-5h4.98v5h-4.98ZM224.68,122.31v-5h4.98v5h-4.98ZM224.68,122.31v-5h4.98v5h-4.98ZM224.68,129.12v-5h4.98v5h-4.98ZM224.68,129.12v-5h4.98v5h-4.98ZM224.68,129.12v-5h4.98v5h-4.98ZM224.68,129.12v-5h4.98v5h-4.98ZM224.68,135.93v-5h4.98v5h-4.98ZM224.68,135.93v-5h4.98v5h-4.98ZM224.68,135.93v-5h4.98v5h-4.98ZM224.68,135.93v-5h4.98v5h-4.98ZM239.6,101.87v-5h4.98v5h-4.98ZM239.6,101.87v-5h4.98v5h-4.98ZM239.6,101.87v-5h4.98v5h-4.98ZM239.6,101.87v-5h4.98v5h-4.98ZM239.6,108.68v-5h4.98v5h-4.98ZM239.6,108.68v-5h4.98v5h-4.98ZM239.6,108.68v-5h4.98v5h-4.98ZM239.6,108.68v-5h4.98v5h-4.98ZM239.6,115.49v-5h4.98v5h-4.98ZM239.6,115.49v-5h4.98v5h-4.98ZM239.6,115.49v-5h4.98v5h-4.98ZM239.6,115.49v-5h4.98v5h-4.98ZM239.6,122.31v-5h4.98v5h-4.98ZM239.6,122.31v-5h4.98v5h-4.98ZM239.6,122.31v-5h4.98v5h-4.98ZM239.6,122.31v-5h4.98v5h-4.98ZM239.6,129.12v-5h4.98v5h-4.98ZM239.6,129.12v-5h4.98v5h-4.98ZM239.6,129.12v-5h4.98v5h-4.98ZM239.6,129.12v-5h4.98v5h-4.98ZM239.6,135.93v-5h4.98v5h-4.98ZM239.6,135.93v-5h4.98v5h-4.98ZM239.6,135.93v-5h4.98v5h-4.98ZM239.6,135.93v-5h4.98v5h-4.98ZM239.6,142.75v-5h4.98v5h-4.98ZM239.6,142.75v-5h4.98v5h-4.98ZM239.6,142.75v-5h4.98v5h-4.98ZM239.6,142.75v-5h4.98v5h-4.98ZM239.6,149.56v-5h4.98v5h-4.98ZM239.6,149.56v-5h4.98v5h-4.98ZM239.6,149.56v-5h4.98v5h-4.98ZM239.6,149.56v-5h4.98v5h-4.98ZM239.6,156.37v-5h4.98v5h-4.98ZM239.6,156.37v-5h4.98v5h-4.98ZM239.6,156.37v-5h4.98v5h-4.98ZM239.6,156.37v-5h4.98v5h-4.98ZM239.6,163.19v-5h4.98v5h-4.98ZM239.6,163.19v-5h4.98v5h-4.98ZM239.6,163.19v-5h4.98v5h-4.98ZM239.6,163.19v-5h4.98v5h-4.98ZM239.6,170v-5h4.98v5h-4.98ZM239.6,170v-5h4.98v5h-4.98ZM239.6,170v-5h4.98v5h-4.98ZM239.6,170v-5h4.98v5h-4.98ZM246.4,101.87v-5h4.98v5h-4.98ZM246.4,101.87v-5h4.98v5h-4.98ZM246.4,101.87v-5h4.98v5h-4.98ZM246.4,101.87v-5h4.98v5h-4.98ZM246.4,135.93v-5h4.98v5h-4.98ZM246.4,135.93v-5h4.98v5h-4.98ZM246.4,135.93v-5h4.98v5h-4.98ZM246.4,135.93v-5h4.98v5h-4.98ZM246.4,170v-5h4.98v5h-4.98ZM246.4,170v-5h4.98v5h-4.98ZM246.4,170v-5h4.98v5h-4.98ZM246.4,170v-5h4.98v5h-4.98ZM253.19,101.87v-5h4.98v5h-4.98ZM253.19,101.87v-5h4.98v5h-4.98ZM253.19,101.87v-5h4.98v5h-4.98ZM253.19,101.87v-5h4.98v5h-4.98ZM253.19,135.93v-5h4.98v5h-4.98ZM253.19,135.93v-5h4.98v5h-4.98ZM253.19,135.93v-5h4.98v5h-4.98ZM253.19,135.93v-5h4.98v5h-4.98ZM253.19,170v-5h4.98v5h-4.98ZM253.19,170v-5h4.98v5h-4.98ZM253.19,170v-5h4.98v5h-4.98ZM253.19,170v-5h4.98v5h-4.98ZM259.99,101.87v-5h4.98v5h-4.98ZM259.99,101.87v-5h4.98v5h-4.98ZM259.99,101.87v-5h4.98v5h-4.98ZM259.99,101.87v-5h4.98v5h-4.98ZM259.99,135.93v-5h4.98v5h-4.98ZM259.99,135.93v-5h4.98v5h-4.98ZM259.99,135.93v-5h4.98v5h-4.98ZM259.99,135.93v-5h4.98v5h-4.98ZM259.99,170v-5h4.98v5h-4.98ZM259.99,170v-5h4.98v5h-4.98ZM259.99,170v-5h4.98v5h-4.98ZM259.99,170v-5h4.98v5h-4.98ZM276.53,108.68v-5h4.98v5h-4.98ZM276.53,108.68v-5h4.98v5h-4.98ZM276.53,108.68v-5h4.98v5h-4.98ZM276.53,108.68v-5h4.98v5h-4.98ZM276.53,115.49v-5h4.98v5h-4.98ZM276.53,115.49v-5h4.98v5h-4.98ZM276.53,115.49v-5h4.98v5h-4.98ZM276.53,115.49v-5h4.98v5h-4.98ZM276.53,122.31v-5h4.98v5h-4.98ZM276.53,122.31v-5h4.98v5h-4.98ZM276.53,122.31v-5h4.98v5h-4.98ZM276.53,122.31v-5h4.98v5h-4.98ZM276.53,129.12v-5h4.98v5h-4.98ZM276.53,129.12v-5h4.98v5h-4.98ZM276.53,129.12v-5h4.98v5h-4.98ZM276.53,129.12v-5h4.98v5h-4.98ZM276.53,135.93v-5h4.98v5h-4.98ZM276.53,135.93v-5h4.98v5h-4.98ZM276.53,135.93v-5h4.98v5h-4.98ZM276.53,135.93v-5h4.98v5h-4.98ZM276.53,142.75v-5h4.98v5h-4.98ZM276.53,142.75v-5h4.98v5h-4.98ZM276.53,142.75v-5h4.98v5h-4.98ZM276.53,142.75v-5h4.98v5h-4.98ZM276.53,149.56v-5h4.98v5h-4.98ZM276.53,149.56v-5h4.98v5h-4.98ZM276.53,149.56v-5h4.98v5h-4.98ZM276.53,149.56v-5h4.98v5h-4.98ZM276.53,156.37v-5h4.98v5h-4.98ZM276.53,156.37v-5h4.98v5h-4.98ZM276.53,156.37v-5h4.98v5h-4.98ZM276.53,156.37v-5h4.98v5h-4.98ZM276.53,163.19v-5h4.98v5h-4.98ZM276.53,163.19v-5h4.98v5h-4.98ZM276.53,163.19v-5h4.98v5h-4.98ZM276.53,163.19v-5h4.98v5h-4.98ZM283.33,101.87v-5h4.98v5h-4.98ZM283.33,101.87v-5h4.98v5h-4.98ZM283.33,101.87v-5h4.98v5h-4.98ZM283.33,101.87v-5h4.98v5h-4.98ZM283.33,170v-5h4.98v5h-4.98ZM283.33,170v-5h4.98v5h-4.98ZM283.33,170v-5h4.98v5h-4.98ZM283.33,170v-5h4.98v5h-4.98ZM290.13,101.87v-5h4.98v5h-4.98ZM290.13,101.87v-5h4.98v5h-4.98ZM290.13,101.87v-5h4.98v5h-4.98ZM290.13,101.87v-5h4.98v5h-4.98ZM290.13,170v-5h4.98v5h-4.98ZM290.13,170v-5h4.98v5h-4.98ZM290.13,170v-5h4.98v5h-4.98ZM290.13,170v-5h4.98v5h-4.98ZM296.92,101.87v-5h4.98v5h-4.98ZM296.92,101.87v-5h4.98v5h-4.98ZM296.92,101.87v-5h4.98v5h-4.98ZM296.92,101.87v-5h4.98v5h-4.98ZM296.92,170v-5h4.98v5h-4.98ZM296.92,170v-5h4.98v5h-4.98ZM296.92,170v-5h4.98v5h-4.98ZM296.92,170v-5h4.98v5h-4.98ZM303.72,108.68v-5h4.98v5h-4.98ZM303.72,108.68v-5h4.98v5h-4.98ZM303.72,108.68v-5h4.98v5h-4.98ZM303.72,108.68v-5h4.98v5h-4.98ZM303.72,115.49v-5h4.98v5h-4.98ZM303.72,115.49v-5h4.98v5h-4.98ZM303.72,115.49v-5h4.98v5h-4.98ZM303.72,115.49v-5h4.98v5h-4.98ZM303.72,122.31v-5h4.98v5h-4.98ZM303.72,122.31v-5h4.98v5h-4.98ZM303.72,122.31v-5h4.98v5h-4.98ZM303.72,122.31v-5h4.98v5h-4.98ZM303.72,129.12v-5h4.98v5h-4.98ZM303.72,129.12v-5h4.98v5h-4.98ZM303.72,129.12v-5h4.98v5h-4.98ZM303.72,129.12v-5h4.98v5h-4.98ZM303.72,135.93v-5h4.98v5h-4.98ZM303.72,135.93v-5h4.98v5h-4.98ZM303.72,135.93v-5h4.98v5h-4.98ZM303.72,135.93v-5h4.98v5h-4.98ZM303.72,142.75v-5h4.98v5h-4.98ZM303.72,142.75v-5h4.98v5h-4.98ZM303.72,142.75v-5h4.98v5h-4.98ZM303.72,142.75v-5h4.98v5h-4.98ZM303.72,149.56v-5h4.98v5h-4.98ZM303.72,149.56v-5h4.98v5h-4.98ZM303.72,149.56v-5h4.98v5h-4.98ZM303.72,149.56v-5h4.98v5h-4.98ZM303.72,156.37v-5h4.98v5h-4.98ZM303.72,156.37v-5h4.98v5h-4.98ZM303.72,156.37v-5h4.98v5h-4.98ZM303.72,156.37v-5h4.98v5h-4.98ZM303.72,163.19v-5h4.98v5h-4.98ZM303.72,163.19v-5h4.98v5h-4.98ZM303.72,163.19v-5h4.98v5h-4.98ZM303.72,163.19v-5h4.98v5h-4.98ZM319.18,101.87v-5h4.98v5h-4.98ZM319.18,101.87v-5h4.98v5h-4.98ZM319.18,101.87v-5h4.98v5h-4.98ZM319.18,101.87v-5h4.98v5h-4.98ZM319.18,108.68v-5h4.98v5h-4.98ZM319.18,108.68v-5h4.98v5h-4.98ZM319.18,108.68v-5h4.98v5h-4.98ZM319.18,108.68v-5h4.98v5h-4.98ZM319.18,115.49v-5h4.98v5h-4.98ZM319.18,115.49v-5h4.98v5h-4.98ZM319.18,115.49v-5h4.98v5h-4.98ZM319.18,115.49v-5h4.98v5h-4.98ZM319.18,122.31v-5h4.98v5h-4.98ZM319.18,122.31v-5h4.98v5h-4.98ZM319.18,122.31v-5h4.98v5h-4.98ZM319.18,122.31v-5h4.98v5h-4.98ZM319.18,129.12v-5h4.98v5h-4.98ZM319.18,129.12v-5h4.98v5h-4.98ZM319.18,129.12v-5h4.98v5h-4.98ZM319.18,129.12v-5h4.98v5h-4.98ZM319.18,135.93v-5h4.98v5h-4.98ZM319.18,135.93v-5h4.98v5h-4.98ZM319.18,135.93v-5h4.98v5h-4.98ZM319.18,135.93v-5h4.98v5h-4.98ZM319.18,142.75v-5h4.98v5h-4.98ZM319.18,142.75v-5h4.98v5h-4.98ZM319.18,142.75v-5h4.98v5h-4.98ZM319.18,142.75v-5h4.98v5h-4.98ZM319.18,149.56v-5h4.98v5h-4.98ZM319.18,149.56v-5h4.98v5h-4.98ZM319.18,149.56v-5h4.98v5h-4.98ZM319.18,149.56v-5h4.98v5h-4.98ZM319.18,156.37v-5h4.98v5h-4.98ZM319.18,156.37v-5h4.98v5h-4.98ZM319.18,156.37v-5h4.98v5h-4.98ZM319.18,156.37v-5h4.98v5h-4.98ZM319.18,163.19v-5h4.98v5h-4.98ZM319.18,163.19v-5h4.98v5h-4.98ZM319.18,163.19v-5h4.98v5h-4.98ZM319.18,163.19v-5h4.98v5h-4.98ZM319.18,170v-5h4.98v5h-4.98ZM319.18,170v-5h4.98v5h-4.98ZM319.18,170v-5h4.98v5h-4.98ZM319.18,170v-5h4.98v5h-4.98ZM325.97,101.87v-5h4.98v5h-4.98ZM325.97,101.87v-5h4.98v5h-4.98ZM325.97,101.87v-5h4.98v5h-4.98ZM325.97,101.87v-5h4.98v5h-4.98ZM325.97,142.75v-5h4.98v5h-4.98ZM325.97,142.75v-5h4.98v5h-4.98ZM325.97,142.75v-5h4.98v5h-4.98ZM325.97,142.75v-5h4.98v5h-4.98ZM332.77,101.87v-5h4.98v5h-4.98ZM332.77,101.87v-5h4.98v5h-4.98ZM332.77,101.87v-5h4.98v5h-4.98ZM332.77,101.87v-5h4.98v5h-4.98ZM332.77,142.75v-5h4.98v5h-4.98ZM332.77,142.75v-5h4.98v5h-4.98ZM332.77,142.75v-5h4.98v5h-4.98ZM332.77,142.75v-5h4.98v5h-4.98ZM339.57,101.87v-5h4.98v5h-4.98ZM339.57,101.87v-5h4.98v5h-4.98ZM339.57,101.87v-5h4.98v5h-4.98ZM339.57,101.87v-5h4.98v5h-4.98ZM339.57,142.75v-5h4.98v5h-4.98ZM339.57,142.75v-5h4.98v5h-4.98ZM339.57,142.75v-5h4.98v5h-4.98ZM339.57,142.75v-5h4.98v5h-4.98ZM346.36,108.68v-5h4.98v5h-4.98ZM346.36,108.68v-5h4.98v5h-4.98ZM346.36,108.68v-5h4.98v5h-4.98ZM346.36,108.68v-5h4.98v5h-4.98ZM346.36,115.49v-5h4.98v5h-4.98ZM346.36,115.49v-5h4.98v5h-4.98ZM346.36,115.49v-5h4.98v5h-4.98ZM346.36,115.49v-5h4.98v5h-4.98ZM346.36,122.31v-5h4.98v5h-4.98ZM346.36,122.31v-5h4.98v5h-4.98ZM346.36,122.31v-5h4.98v5h-4.98ZM346.36,122.31v-5h4.98v5h-4.98ZM346.36,129.12v-5h4.98v5h-4.98ZM346.36,129.12v-5h4.98v5h-4.98ZM346.36,129.12v-5h4.98v5h-4.98ZM346.36,129.12v-5h4.98v5h-4.98ZM346.36,135.93v-5h4.98v5h-4.98ZM346.36,135.93v-5h4.98v5h-4.98ZM346.36,135.93v-5h4.98v5h-4.98ZM346.36,135.93v-5h4.98v5h-4.98ZM362.91,101.87v-5h4.98v5h-4.98ZM362.91,101.87v-5h4.98v5h-4.98ZM362.91,101.87v-5h4.98v5h-4.98ZM362.91,101.87v-5h4.98v5h-4.98ZM362.91,108.68v-5h4.98v5h-4.98ZM362.91,108.68v-5h4.98v5h-4.98ZM362.91,108.68v-5h4.98v5h-4.98ZM362.91,108.68v-5h4.98v5h-4.98ZM362.91,115.49v-5h4.98v5h-4.98ZM362.91,115.49v-5h4.98v5h-4.98ZM362.91,115.49v-5h4.98v5h-4.98ZM362.91,115.49v-5h4.98v5h-4.98ZM362.91,122.31v-5h4.98v5h-4.98ZM362.91,122.31v-5h4.98v5h-4.98ZM362.91,122.31v-5h4.98v5h-4.98ZM362.91,122.31v-5h4.98v5h-4.98ZM362.91,129.12v-5h4.98v5h-4.98ZM362.91,129.12v-5h4.98v5h-4.98ZM362.91,129.12v-5h4.98v5h-4.98ZM362.91,129.12v-5h4.98v5h-4.98ZM362.91,135.93v-5h4.98v5h-4.98ZM362.91,135.93v-5h4.98v5h-4.98ZM362.91,135.93v-5h4.98v5h-4.98ZM362.91,135.93v-5h4.98v5h-4.98ZM362.91,142.75v-5h4.98v5h-4.98ZM362.91,142.75v-5h4.98v5h-4.98ZM362.91,142.75v-5h4.98v5h-4.98ZM362.91,142.75v-5h4.98v5h-4.98ZM362.91,149.56v-5h4.98v5h-4.98ZM362.91,149.56v-5h4.98v5h-4.98ZM362.91,149.56v-5h4.98v5h-4.98ZM362.91,149.56v-5h4.98v5h-4.98ZM362.91,156.37v-5h4.98v5h-4.98ZM362.91,156.37v-5h4.98v5h-4.98ZM362.91,156.37v-5h4.98v5h-4.98ZM362.91,156.37v-5h4.98v5h-4.98ZM362.91,163.19v-5h4.98v5h-4.98ZM362.91,163.19v-5h4.98v5h-4.98ZM362.91,163.19v-5h4.98v5h-4.98ZM362.91,163.19v-5h4.98v5h-4.98ZM362.91,170v-5h4.98v5h-4.98ZM362.91,170v-5h4.98v5h-4.98ZM362.91,170v-5h4.98v5h-4.98ZM362.91,170v-5h4.98v5h-4.98ZM369.7,170v-5h4.98v5h-4.98ZM369.7,170v-5h4.98v5h-4.98ZM369.7,170v-5h4.98v5h-4.98ZM369.7,170v-5h4.98v5h-4.98ZM376.5,170v-5h4.98v5h-4.98ZM376.5,170v-5h4.98v5h-4.98ZM376.5,170v-5h4.98v5h-4.98ZM376.5,170v-5h4.98v5h-4.98ZM383.3,170v-5h4.98v5h-4.98ZM383.3,170v-5h4.98v5h-4.98ZM383.3,170v-5h4.98v5h-4.98ZM383.3,170v-5h4.98v5h-4.98ZM397.13,101.87v-5h4.98v5h-4.98ZM397.13,101.87v-5h4.98v5h-4.98ZM397.13,101.87v-5h4.98v5h-4.98ZM397.13,101.87v-5h4.98v5h-4.98ZM397.13,108.68v-5h4.98v5h-4.98ZM397.13,108.68v-5h4.98v5h-4.98ZM397.13,108.68v-5h4.98v5h-4.98ZM397.13,108.68v-5h4.98v5h-4.98ZM397.13,115.49v-5h4.98v5h-4.98ZM397.13,115.49v-5h4.98v5h-4.98ZM397.13,115.49v-5h4.98v5h-4.98ZM397.13,115.49v-5h4.98v5h-4.98ZM397.13,122.31v-5h4.98v5h-4.98ZM397.13,122.31v-5h4.98v5h-4.98ZM397.13,122.31v-5h4.98v5h-4.98ZM397.13,122.31v-5h4.98v5h-4.98ZM397.13,129.12v-5h4.98v5h-4.98ZM397.13,129.12v-5h4.98v5h-4.98ZM397.13,129.12v-5h4.98v5h-4.98ZM397.13,129.12v-5h4.98v5h-4.98ZM397.13,135.93v-5h4.98v5h-4.98ZM397.13,135.93v-5h4.98v5h-4.98ZM397.13,135.93v-5h4.98v5h-4.98ZM397.13,135.93v-5h4.98v5h-4.98ZM397.13,142.75v-5h4.98v5h-4.98ZM397.13,142.75v-5h4.98v5h-4.98ZM397.13,142.75v-5h4.98v5h-4.98ZM397.13,142.75v-5h4.98v5h-4.98ZM397.13,149.56v-5h4.98v5h-4.98ZM397.13,149.56v-5h4.98v5h-4.98ZM397.13,149.56v-5h4.98v5h-4.98ZM397.13,149.56v-5h4.98v5h-4.98ZM397.13,156.37v-5h4.98v5h-4.98ZM397.13,156.37v-5h4.98v5h-4.98ZM397.13,156.37v-5h4.98v5h-4.98ZM397.13,156.37v-5h4.98v5h-4.98ZM397.13,163.19v-5h4.98v5h-4.98ZM397.13,163.19v-5h4.98v5h-4.98ZM397.13,163.19v-5h4.98v5h-4.98ZM397.13,163.19v-5h4.98v5h-4.98ZM397.13,170v-5h4.98v5h-4.98ZM397.13,170v-5h4.98v5h-4.98ZM397.13,170v-5h4.98v5h-4.98ZM397.13,170v-5h4.98v5h-4.98ZM403.92,101.87v-5h4.98v5h-4.98ZM403.92,101.87v-5h4.98v5h-4.98ZM403.92,101.87v-5h4.98v5h-4.98ZM403.92,101.87v-5h4.98v5h-4.98ZM403.92,135.93v-5h4.98v5h-4.98ZM403.92,135.93v-5h4.98v5h-4.98ZM403.92,135.93v-5h4.98v5h-4.98ZM403.92,135.93v-5h4.98v5h-4.98ZM403.92,170v-5h4.98v5h-4.98ZM403.92,170v-5h4.98v5h-4.98ZM403.92,170v-5h4.98v5h-4.98ZM403.92,170v-5h4.98v5h-4.98ZM410.72,101.87v-5h4.98v5h-4.98ZM410.72,101.87v-5h4.98v5h-4.98ZM410.72,101.87v-5h4.98v5h-4.98ZM410.72,101.87v-5h4.98v5h-4.98ZM410.72,135.93v-5h4.98v5h-4.98ZM410.72,135.93v-5h4.98v5h-4.98ZM410.72,135.93v-5h4.98v5h-4.98ZM410.72,135.93v-5h4.98v5h-4.98ZM410.72,170v-5h4.98v5h-4.98ZM410.72,170v-5h4.98v5h-4.98ZM410.72,170v-5h4.98v5h-4.98ZM410.72,170v-5h4.98v5h-4.98ZM417.52,101.87v-5h4.98v5h-4.98ZM417.52,101.87v-5h4.98v5h-4.98ZM417.52,101.87v-5h4.98v5h-4.98ZM417.52,101.87v-5h4.98v5h-4.98ZM417.52,135.93v-5h4.98v5h-4.98ZM417.52,135.93v-5h4.98v5h-4.98ZM417.52,135.93v-5h4.98v5h-4.98ZM417.52,135.93v-5h4.98v5h-4.98ZM417.52,170v-5h4.98v5h-4.98ZM417.52,170v-5h4.98v5h-4.98ZM417.52,170v-5h4.98v5h-4.98ZM417.52,170v-5h4.98v5h-4.98Z"/></svg>