<?xml version="1.0" encoding="UTF-8"?><svg id="wtp-lock-h2-6" xmlns="http://www.w3.org/2000/svg" viewBox="0 0 620 110"><defs><style>.cls-1{fill:#243345;}</style></defs><path class="cls-1" d="M120.55,31.99v-3.84h3.91v3.84h-3.91ZM120.55,31.99v-3.84h3.91v3.84h-3.91ZM120.55,31.99v-3.84h3.91v3.84h-3.91ZM120.55,31.99v-3.84h3.91v3.84h-3.91ZM120.55,37.22v-3.84h3.91v3.84h-3.91ZM120.55,37.22v-3.84h3.91v3.84h-3.91ZM120.55,37.22v-3.84h3.91v3.84h-3.91ZM120.55,37.22v-3.84h3.91v3.84h-3.91ZM120.55,42.46v-3.84h3.91v3.84h-3.91ZM120.55,42.46v-3.84h3.91v3.84h-3.91ZM120.55,42.46v-3.84h3.91v3.84h-3.91ZM120.55,42.46v-3.84h3.91v3.84h-3.91ZM120.55,47.69v-3.84h3.91v3.84h-3.91ZM120.55,47.69v-3.84h3.91v3.84h-3.91ZM120.55,47.69v-3.84h3.91v3.84h-3.91ZM120.55,47.69v-3.84h3.91v3.84h-3.91ZM120.55,52.92v-3.84h3.91v3.84h-3.91ZM120.55,52.92v-3.84h3.91v3.84h-3.91ZM120.55,52.92v-3.84h3.91v3.84h-3.91ZM120.55,52.92v-3.84h3.91v3.84h-3.91ZM120.55,58.16v-3.84h3.91v3.84h-3.91ZM120.55,58.16v-3.84h3.91v3.84h-3.91ZM120.55,58.16v-3.84h3.91v3.84h-3.91ZM120.55,58.16v-3.84h3.91v3.84h-3.91ZM120.55,63.39v-3.84h3.91v3.84h-3.91ZM120.55,63.39v-3.84h3.91v3.84h-3.91ZM120.55,63.39v-3.84h3.91v3.84h-3.91ZM120.55,63.39v-3.84h3.91v3.84h-3.91ZM123.21,68.62v-3.84h3.91v3.84h-3.91ZM123.21,68.62v-3.84h3.91v3.84h-3.91ZM123.21,68.62v-3.84h3.91v3.84h-3.91ZM123.21,68.62v-3.84h3.91v3.84h-3.91ZM125.88,73.85v-3.84h3.9v3.84h-3.9ZM125.88,73.85v-3.84h3.9v3.84h-3.9ZM125.88,73.85v-3.84h3.9v3.84h-3.9ZM125.88,73.85v-3.84h3.9v3.84h-3.9ZM128.54,79.09v-3.84h3.9v3.84h-3.9ZM128.54,79.09v-3.84h3.9v3.84h-3.9ZM128.54,79.09v-3.84h3.9v3.84h-3.9ZM128.54,79.09v-3.84h3.9v3.84h-3.9ZM131.21,84.32v-3.84h3.91v3.84h-3.91ZM131.21,84.32v-3.84h3.91v3.84h-3.91ZM131.21,84.32v-3.84h3.91v3.84h-3.91ZM131.21,84.32v-3.84h3.91v3.84h-3.91ZM133.87,79.09v-3.84h3.91v3.84h-3.91ZM133.87,79.09v-3.84h3.91v3.84h-3.91ZM133.87,79.09v-3.84h3.91v3.84h-3.91ZM133.87,79.09v-3.84h3.91v3.84h-3.91ZM136.53,73.85v-3.84h3.91v3.84h-3.91ZM136.53,73.85v-3.84h3.91v3.84h-3.91ZM136.53,73.85v-3.84h3.91v3.84h-3.91ZM136.53,73.85v-3.84h3.91v3.84h-3.91ZM139.2,68.62v-3.84h3.91v3.84h-3.91ZM139.2,68.62v-3.84h3.91v3.84h-3.91ZM139.2,68.62v-3.84h3.91v3.84h-3.91ZM139.2,68.62v-3.84h3.91v3.84h-3.91ZM141.86,31.99v-3.84h3.91v3.84h-3.91ZM141.86,31.99v-3.84h3.91v3.84h-3.91ZM141.86,31.99v-3.84h3.91v3.84h-3.91ZM141.86,31.99v-3.84h3.91v3.84h-3.91ZM141.86,37.22v-3.84h3.91v3.84h-3.91ZM141.86,37.22v-3.84h3.91v3.84h-3.91ZM141.86,37.22v-3.84h3.91v3.84h-3.91ZM141.86,37.22v-3.84h3.91v3.84h-3.91ZM141.86,42.46v-3.84h3.91v3.84h-3.91ZM141.86,42.46v-3.84h3.91v3.84h-3.91ZM141.86,42.46v-3.84h3.91v3.84h-3.91ZM141.86,42.46v-3.84h3.91v3.84h-3.91ZM141.86,47.69v-3.84h3.91v3.84h-3.91ZM141.86,47.69v-3.84h3.91v3.84h-3.91ZM141.86,47.69v-3.84h3.91v3.84h-3.91ZM141.86,47.69v-3.84h3.91v3.84h-3.91ZM141.86,52.92v-3.84h3.91v3.84h-3.91ZM141.86,52.92v-3.84h3.91v3.84h-3.91ZM141.86,52.92v-3.84h3.91v3.84h-3.91ZM141.86,52.92v-3.84h3.91v3.84h-3.91ZM141.86,58.16v-3.84h3.91v3.84h-3.91ZM141.86,58.16v-3.84h3.91v3.84h-3.91ZM141.86,58.16v-3.84h3.91v3.84h-3.91ZM141.86,58.16v-3.84h3.91v3.84h-3.91ZM141.86,63.39v-3.84h3.91v3.84h-3.91ZM141.86,63.39v-3.84h3.91v3.84h-3.91ZM141.86,63.39v-3.84h3.91v3.84h-3.91ZM141.86,63.39v-3.84h3.91v3.84h-3.91ZM144.52,68.62v-3.84h3.91v3.84h-3.91ZM144.52,68.62v-3.84h3.91v3.84h-3.91ZM144.52,68.62v-3.84h3.91v3.84h-3.91ZM144.52,68.62v-3.84h3.91v3.84h-3.91ZM147.19,73.85v-3.84h3.9v3.84h-3.9ZM147.19,73.85v-3.84h3.9v3.84h-3.9ZM147.19,73.85v-3.84h3.9v3.84h-3.9ZM147.19,73.85v-3.84h3.9v3.84h-3.9ZM149.85,79.09v-3.84h3.91v3.84h-3.91ZM149.85,79.09v-3.84h3.91v3.84h-3.91ZM149.85,79.09v-3.84h3.91v3.84h-3.91ZM149.85,79.09v-3.84h3.91v3.84h-3.91ZM152.52,84.32v-3.84h3.9v3.84h-3.9ZM152.52,84.32v-3.84h3.9v3.84h-3.9ZM152.52,84.32v-3.84h3.9v3.84h-3.9ZM152.52,84.32v-3.84h3.9v3.84h-3.9ZM155.18,79.09v-3.84h3.9v3.84h-3.9ZM155.18,79.09v-3.84h3.9v3.84h-3.9ZM155.18,79.09v-3.84h3.9v3.84h-3.9ZM155.18,79.09v-3.84h3.9v3.84h-3.9ZM157.84,73.85v-3.84h3.91v3.84h-3.91ZM157.84,73.85v-3.84h3.91v3.84h-3.91ZM157.84,73.85v-3.84h3.91v3.84h-3.91ZM157.84,73.85v-3.84h3.91v3.84h-3.91ZM160.5,68.62v-3.84h3.91v3.84h-3.91ZM160.5,68.62v-3.84h3.91v3.84h-3.91ZM160.5,68.62v-3.84h3.91v3.84h-3.91ZM160.5,68.62v-3.84h3.91v3.84h-3.91ZM163.17,31.99v-3.84h3.9v3.84h-3.9ZM163.17,31.99v-3.84h3.9v3.84h-3.9ZM163.17,31.99v-3.84h3.9v3.84h-3.9ZM163.17,31.99v-3.84h3.9v3.84h-3.9ZM163.17,37.22v-3.84h3.9v3.84h-3.9ZM163.17,37.22v-3.84h3.9v3.84h-3.9ZM163.17,37.22v-3.84h3.9v3.84h-3.9ZM163.17,37.22v-3.84h3.9v3.84h-3.9ZM163.17,42.46v-3.84h3.9v3.84h-3.9ZM163.17,42.46v-3.84h3.9v3.84h-3.9ZM163.17,42.46v-3.84h3.9v3.84h-3.9ZM163.17,42.46v-3.84h3.9v3.84h-3.9ZM163.17,47.69v-3.84h3.9v3.84h-3.9ZM163.17,47.69v-3.84h3.9v3.84h-3.9ZM163.17,47.69v-3.84h3.9v3.84h-3.9ZM163.17,47.69v-3.84h3.9v3.84h-3.9ZM163.17,52.92v-3.84h3.9v3.84h-3.9ZM163.17,52.92v-3.84h3.9v3.84h-3.9ZM163.17,52.92v-3.84h3.9v3.84h-3.9ZM163.17,52.92v-3.84h3.9v3.84h-3.9ZM163.17,58.16v-3.84h3.9v3.84h-3.9ZM163.17,58.16v-3.84h3.9v3.84h-3.9ZM163.17,58.16v-3.84h3.9v3.84h-3.9ZM163.17,58.16v-3.84h3.9v3.84h-3.9ZM163.17,63.39v-3.84h3.9v3.84h-3.9ZM163.17,63.39v-3.84h3.9v3.84h-3.9ZM163.17,63.39v-3.84h3.9v3.84h-3.9ZM163.17,63.39v-3.84h3.9v3.84h-3.9ZM174.22,52.92v-3.84h3.91v3.84h-3.91ZM174.22,52.92v-3.84h3.91v3.84h-3.91ZM174.22,52.92v-3.84h3.91v3.84h-3.91ZM174.22,52.92v-3.84h3.91v3.84h-3.91ZM174.22,58.16v-3.84h3.91v3.84h-3.91ZM174.22,58.16v-3.84h3.91v3.84h-3.91ZM174.22,58.16v-3.84h3.91v3.84h-3.91ZM174.22,58.16v-3.84h3.91v3.84h-3.91ZM174.22,63.39v-3.84h3.91v3.84h-3.91ZM174.22,63.39v-3.84h3.91v3.84h-3.91ZM174.22,63.39v-3.84h3.91v3.84h-3.91ZM174.22,63.39v-3.84h3.91v3.84h-3.91ZM174.22,68.62v-3.84h3.91v3.84h-3.91ZM174.22,68.62v-3.84h3.91v3.84h-3.91ZM174.22,68.62v-3.84h3.91v3.84h-3.91ZM174.22,68.62v-3.84h3.91v3.84h-3.91ZM174.22,73.86v-3.84h3.91v3.84h-3.91ZM174.22,73.86v-3.84h3.91v3.84h-3.91ZM174.22,73.86v-3.84h3.91v3.84h-3.91ZM174.22,73.86v-3.84h3.91v3.84h-3.91ZM174.22,79.09v-3.84h3.91v3.84h-3.91ZM174.22,79.09v-3.84h3.91v3.84h-3.91ZM174.22,79.09v-3.84h3.91v3.84h-3.91ZM174.22,79.09v-3.84h3.91v3.84h-3.91ZM179.55,47.69v-3.84h3.9v3.84h-3.9ZM179.55,47.69v-3.84h3.9v3.84h-3.9ZM179.55,47.69v-3.84h3.9v3.84h-3.9ZM179.55,47.69v-3.84h3.9v3.84h-3.9ZM179.55,63.39v-3.84h3.9v3.84h-3.9ZM179.55,63.39v-3.84h3.9v3.84h-3.9ZM179.55,63.39v-3.84h3.9v3.84h-3.9ZM179.55,63.39v-3.84h3.9v3.84h-3.9ZM179.55,84.32v-3.84h3.9v3.84h-3.9ZM179.55,84.32v-3.84h3.9v3.84h-3.9ZM179.55,84.32v-3.84h3.9v3.84h-3.9ZM179.55,84.32v-3.84h3.9v3.84h-3.9ZM184.87,47.69v-3.84h3.9v3.84h-3.9ZM184.87,47.69v-3.84h3.9v3.84h-3.9ZM184.87,47.69v-3.84h3.9v3.84h-3.9ZM184.87,47.69v-3.84h3.9v3.84h-3.9ZM184.87,63.39v-3.84h3.9v3.84h-3.9ZM184.87,63.39v-3.84h3.9v3.84h-3.9ZM184.87,63.39v-3.84h3.9v3.84h-3.9ZM184.87,63.39v-3.84h3.9v3.84h-3.9ZM184.87,84.32v-3.84h3.9v3.84h-3.9ZM184.87,84.32v-3.84h3.9v3.84h-3.9ZM184.87,84.32v-3.84h3.9v3.84h-3.9ZM184.87,84.32v-3.84h3.9v3.84h-3.9ZM190.2,47.69v-3.84h3.91v3.84h-3.91ZM190.2,47.69v-3.84h3.91v3.84h-3.91ZM190.2,47.69v-3.84h3.91v3.84h-3.91ZM190.2,47.69v-3.84h3.91v3.84h-3.91ZM190.2,63.39v-3.84h3.91v3.84h-3.91ZM190.2,63.39v-3.84h3.91v3.84h-3.91ZM190.2,63.39v-3.84h3.91v3.84h-3.91ZM190.2,63.39v-3.84h3.91v3.84h-3.91ZM190.2,84.32v-3.84h3.91v3.84h-3.91ZM190.2,84.32v-3.84h3.91v3.84h-3.91ZM190.2,84.32v-3.84h3.91v3.84h-3.91ZM190.2,84.32v-3.84h3.91v3.84h-3.91ZM195.53,52.92v-3.84h3.9v3.84h-3.9ZM195.53,52.92v-3.84h3.9v3.84h-3.9ZM195.53,52.92v-3.84h3.9v3.84h-3.9ZM195.53,52.92v-3.84h3.9v3.84h-3.9ZM195.53,58.16v-3.84h3.9v3.84h-3.9ZM195.53,58.16v-3.84h3.9v3.84h-3.9ZM195.53,58.16v-3.84h3.9v3.84h-3.9ZM195.53,58.16v-3.84h3.9v3.84h-3.9ZM195.53,63.39v-3.84h3.9v3.84h-3.9ZM195.53,63.39v-3.84h3.9v3.84h-3.9ZM195.53,63.39v-3.84h3.9v3.84h-3.9ZM195.53,63.39v-3.84h3.9v3.84h-3.9ZM195.53,79.09v-3.84h3.9v3.84h-3.9ZM195.53,79.09v-3.84h3.9v3.84h-3.9ZM195.53,79.09v-3.84h3.9v3.84h-3.9ZM195.53,79.09v-3.84h3.9v3.84h-3.9ZM215.77,31.99v-3.84h3.91v3.84h-3.91ZM215.77,31.99v-3.84h3.91v3.84h-3.91ZM215.77,31.99v-3.84h3.91v3.84h-3.91ZM215.77,31.99v-3.84h3.91v3.84h-3.91ZM221.09,31.99v-3.84h3.9v3.84h-3.9ZM221.09,31.99v-3.84h3.9v3.84h-3.9ZM221.09,31.99v-3.84h3.9v3.84h-3.9ZM221.09,31.99v-3.84h3.9v3.84h-3.9ZM226.42,31.99v-3.84h3.9v3.84h-3.9ZM226.42,31.99v-3.84h3.9v3.84h-3.9ZM226.42,31.99v-3.84h3.9v3.84h-3.9ZM226.42,31.99v-3.84h3.9v3.84h-3.9ZM226.42,37.22v-3.84h3.9v3.84h-3.9ZM226.42,37.22v-3.84h3.9v3.84h-3.9ZM226.42,37.22v-3.84h3.9v3.84h-3.9ZM226.42,37.22v-3.84h3.9v3.84h-3.9ZM226.42,42.46v-3.84h3.9v3.84h-3.9ZM226.42,42.46v-3.84h3.9v3.84h-3.9ZM226.42,42.46v-3.84h3.9v3.84h-3.9ZM226.42,42.46v-3.84h3.9v3.84h-3.9ZM226.42,47.69v-3.84h3.9v3.84h-3.9ZM226.42,47.69v-3.84h3.9v3.84h-3.9ZM226.42,47.69v-3.84h3.9v3.84h-3.9ZM226.42,47.69v-3.84h3.9v3.84h-3.9ZM226.42,52.92v-3.84h3.9v3.84h-3.9ZM226.42,52.92v-3.84h3.9v3.84h-3.9ZM226.42,52.92v-3.84h3.9v3.84h-3.9ZM226.42,52.92v-3.84h3.9v3.84h-3.9ZM226.42,58.16v-3.84h3.9v3.84h-3.9ZM226.42,58.16v-3.84h3.9v3.84h-3.9ZM226.42,58.16v-3.84h3.9v3.84h-3.9ZM226.42,58.16v-3.84h3.9v3.84h-3.9ZM226.42,63.39v-3.84h3.9v3.84h-3.9ZM226.42,63.39v-3.84h3.9v3.84h-3.9ZM226.42,63.39v-3.84h3.9v3.84h-3.9ZM226.42,63.39v-3.84h3.9v3.84h-3.9ZM226.42,68.62v-3.84h3.9v3.84h-3.9ZM226.42,68.62v-3.84h3.9v3.84h-3.9ZM226.42,68.62v-3.84h3.9v3.84h-3.9ZM226.42,68.62v-3.84h3.9v3.84h-3.9ZM226.42,73.85v-3.84h3.9v3.84h-3.9ZM226.42,73.85v-3.84h3.9v3.84h-3.9ZM226.42,73.85v-3.84h3.9v3.84h-3.9ZM226.42,73.85v-3.84h3.9v3.84h-3.9ZM226.42,79.09v-3.84h3.9v3.84h-3.9ZM226.42,79.09v-3.84h3.9v3.84h-3.9ZM226.42,79.09v-3.84h3.9v3.84h-3.9ZM226.42,79.09v-3.84h3.9v3.84h-3.9ZM226.42,84.32v-3.84h3.9v3.84h-3.9ZM226.42,84.32v-3.84h3.9v3.84h-3.9ZM226.42,84.32v-3.84h3.9v3.84h-3.9ZM226.42,84.32v-3.84h3.9v3.84h-3.9ZM231.75,31.99v-3.84h3.91v3.84h-3.91ZM231.75,31.99v-3.84h3.91v3.84h-3.91ZM231.75,31.99v-3.84h3.91v3.84h-3.91ZM231.75,31.99v-3.84h3.91v3.84h-3.91ZM237.07,31.99v-3.84h3.9v3.84h-3.9ZM237.07,31.99v-3.84h3.9v3.84h-3.9ZM237.07,31.99v-3.84h3.9v3.84h-3.9ZM237.07,31.99v-3.84h3.9v3.84h-3.9ZM247.06,31.99v-3.84h3.91v3.84h-3.91ZM247.06,31.99v-3.84h3.91v3.84h-3.91ZM247.06,31.99v-3.84h3.91v3.84h-3.91ZM247.06,31.99v-3.84h3.91v3.84h-3.91ZM247.06,37.22v-3.84h3.91v3.84h-3.91ZM247.06,37.22v-3.84h3.91v3.84h-3.91ZM247.06,37.22v-3.84h3.91v3.84h-3.91ZM247.06,37.22v-3.84h3.91v3.84h-3.91ZM247.06,42.46v-3.84h3.91v3.84h-3.91ZM247.06,42.46v-3.84h3.91v3.84h-3.91ZM247.06,42.46v-3.84h3.91v3.84h-3.91ZM247.06,42.46v-3.84h3.91v3.84h-3.91ZM247.06,47.69v-3.84h3.91v3.84h-3.91ZM247.06,47.69v-3.84h3.91v3.84h-3.91ZM247.06,47.69v-3.84h3.91v3.84h-3.91ZM247.06,47.69v-3.84h3.91v3.84h-3.91ZM247.06,52.93v-3.84h3.91v3.84h-3.91ZM247.06,52.93v-3.84h3.91v3.84h-3.91ZM247.06,52.93v-3.84h3.91v3.84h-3.91ZM247.06,52.93v-3.84h3.91v3.84h-3.91ZM247.06,58.15v-3.84h3.91v3.84h-3.91ZM247.06,58.15v-3.84h3.91v3.84h-3.91ZM247.06,58.15v-3.84h3.91v3.84h-3.91ZM247.06,58.15v-3.84h3.91v3.84h-3.91ZM247.06,63.39v-3.84h3.91v3.84h-3.91ZM247.06,63.39v-3.84h3.91v3.84h-3.91ZM247.06,63.39v-3.84h3.91v3.84h-3.91ZM247.06,63.39v-3.84h3.91v3.84h-3.91ZM247.06,68.62v-3.84h3.91v3.84h-3.91ZM247.06,68.62v-3.84h3.91v3.84h-3.91ZM247.06,68.62v-3.84h3.91v3.84h-3.91ZM247.06,68.62v-3.84h3.91v3.84h-3.91ZM247.06,73.86v-3.84h3.91v3.84h-3.91ZM247.06,73.86v-3.84h3.91v3.84h-3.91ZM247.06,73.86v-3.84h3.91v3.84h-3.91ZM247.06,73.86v-3.84h3.91v3.84h-3.91ZM247.06,79.09v-3.84h3.91v3.84h-3.91ZM247.06,79.09v-3.84h3.91v3.84h-3.91ZM247.06,79.09v-3.84h3.91v3.84h-3.91ZM247.06,79.09v-3.84h3.91v3.84h-3.91ZM247.06,84.32v-3.84h3.91v3.84h-3.91ZM247.06,84.32v-3.84h3.91v3.84h-3.91ZM247.06,84.32v-3.84h3.91v3.84h-3.91ZM247.06,84.32v-3.84h3.91v3.84h-3.91ZM252.39,52.93v-3.84h3.9v3.84h-3.9ZM252.39,52.93v-3.84h3.9v3.84h-3.9ZM252.39,52.93v-3.84h3.9v3.84h-3.9ZM252.39,52.93v-3.84h3.9v3.84h-3.9ZM257.72,47.69v-3.84h3.9v3.84h-3.9ZM257.72,47.69v-3.84h3.9v3.84h-3.9ZM257.72,47.69v-3.84h3.9v3.84h-3.9ZM257.72,47.69v-3.84h3.9v3.84h-3.9ZM263.04,47.69v-3.84h3.91v3.84h-3.91ZM263.04,47.69v-3.84h3.91v3.84h-3.91ZM263.04,47.69v-3.84h3.91v3.84h-3.91ZM263.04,47.69v-3.84h3.91v3.84h-3.91ZM268.37,52.93v-3.84h3.9v3.84h-3.9ZM268.37,52.93v-3.84h3.9v3.84h-3.9ZM268.37,52.93v-3.84h3.9v3.84h-3.9ZM268.37,52.93v-3.84h3.9v3.84h-3.9ZM268.37,58.15v-3.84h3.9v3.84h-3.9ZM268.37,58.15v-3.84h3.9v3.84h-3.9ZM268.37,58.15v-3.84h3.9v3.84h-3.9ZM268.37,58.15v-3.84h3.9v3.84h-3.9ZM268.37,63.39v-3.84h3.9v3.84h-3.9ZM268.37,63.39v-3.84h3.9v3.84h-3.9ZM268.37,63.39v-3.84h3.9v3.84h-3.9ZM268.37,63.39v-3.84h3.9v3.84h-3.9ZM268.37,68.62v-3.84h3.9v3.84h-3.9ZM268.37,68.62v-3.84h3.9v3.84h-3.9ZM268.37,68.62v-3.84h3.9v3.84h-3.9ZM268.37,68.62v-3.84h3.9v3.84h-3.9ZM268.37,73.86v-3.84h3.9v3.84h-3.9ZM268.37,73.86v-3.84h3.9v3.84h-3.9ZM268.37,73.86v-3.84h3.9v3.84h-3.9ZM268.37,73.86v-3.84h3.9v3.84h-3.9ZM268.37,79.09v-3.84h3.9v3.84h-3.9ZM268.37,79.09v-3.84h3.9v3.84h-3.9ZM268.37,79.09v-3.84h3.9v3.84h-3.9ZM268.37,79.09v-3.84h3.9v3.84h-3.9ZM268.37,84.32v-3.84h3.9v3.84h-3.9ZM268.37,84.32v-3.84h3.9v3.84h-3.9ZM268.37,84.32v-3.84h3.9v3.84h-3.9ZM268.37,84.32v-3.84h3.9v3.84h-3.9ZM279.69,52.92v-3.84h3.91v3.84h-3.91ZM279.69,52.92v-3.84h3.91v3.84h-3.91ZM279.69,52.92v-3.84h3.91v3.84h-3.91ZM279.69,52.92v-3.84h3.91v3.84h-3.91ZM279.69,58.16v-3.84h3.91v3.84h-3.91ZM279.69,58.16v-3.84h3.91v3.84h-3.91ZM279.69,58.16v-3.84h3.91v3.84h-3.91ZM279.69,58.16v-3.84h3.91v3.84h-3.91ZM279.69,63.39v-3.84h3.91v3.84h-3.91ZM279.69,63.39v-3.84h3.91v3.84h-3.91ZM279.69,63.39v-3.84h3.91v3.84h-3.91ZM279.69,63.39v-3.84h3.91v3.84h-3.91ZM279.69,68.62v-3.84h3.91v3.84h-3.91ZM279.69,68.62v-3.84h3.91v3.84h-3.91ZM279.69,68.62v-3.84h3.91v3.84h-3.91ZM279.69,68.62v-3.84h3.91v3.84h-3.91ZM279.69,73.86v-3.84h3.91v3.84h-3.91ZM279.69,73.86v-3.84h3.91v3.84h-3.91ZM279.69,73.86v-3.84h3.91v3.84h-3.91ZM279.69,73.86v-3.84h3.91v3.84h-3.91ZM279.69,79.09v-3.84h3.91v3.84h-3.91ZM279.69,79.09v-3.84h3.91v3.84h-3.91ZM279.69,79.09v-3.84h3.91v3.84h-3.91ZM279.69,79.09v-3.84h3.91v3.84h-3.91ZM285.01,47.69v-3.84h3.9v3.84h-3.9ZM285.01,47.69v-3.84h3.9v3.84h-3.9ZM285.01,47.69v-3.84h3.9v3.84h-3.9ZM285.01,47.69v-3.84h3.9v3.84h-3.9ZM285.01,63.39v-3.84h3.9v3.84h-3.9ZM285.01,63.39v-3.84h3.9v3.84h-3.9ZM285.01,63.39v-3.84h3.9v3.84h-3.9ZM285.01,63.39v-3.84h3.9v3.84h-3.9ZM285.01,84.32v-3.84h3.9v3.84h-3.9ZM285.01,84.32v-3.84h3.9v3.84h-3.9ZM285.01,84.32v-3.84h3.9v3.84h-3.9ZM285.01,84.32v-3.84h3.9v3.84h-3.9ZM290.34,47.69v-3.84h3.9v3.84h-3.9ZM290.34,47.69v-3.84h3.9v3.84h-3.9ZM290.34,47.69v-3.84h3.9v3.84h-3.9ZM290.34,47.69v-3.84h3.9v3.84h-3.9ZM290.34,63.39v-3.84h3.9v3.84h-3.9ZM290.34,63.39v-3.84h3.9v3.84h-3.9ZM290.34,63.39v-3.84h3.9v3.84h-3.9ZM290.34,63.39v-3.84h3.9v3.84h-3.9ZM290.34,84.32v-3.84h3.9v3.84h-3.9ZM290.34,84.32v-3.84h3.9v3.84h-3.9ZM290.34,84.32v-3.84h3.9v3.84h-3.9ZM290.34,84.32v-3.84h3.9v3.84h-3.9ZM295.66,47.69v-3.84h3.91v3.84h-3.91ZM295.66,47.69v-3.84h3.91v3.84h-3.91ZM295.66,47.69v-3.84h3.91v3.84h-3.91ZM295.66,47.69v-3.84h3.91v3.84h-3.91ZM295.66,63.39v-3.84h3.91v3.84h-3.91ZM295.66,63.39v-3.84h3.91v3.84h-3.91ZM295.66,63.39v-3.84h3.91v3.84h-3.91ZM295.66,63.39v-3.84h3.91v3.84h-3.91ZM295.66,84.32v-3.84h3.91v3.84h-3.91ZM295.66,84.32v-3.84h3.91v3.84h-3.91ZM295.66,84.32v-3.84h3.91v3.84h-3.91ZM295.66,84.32v-3.84h3.91v3.84h-3.91ZM300.99,52.92v-3.84h3.9v3.84h-3.9ZM300.99,52.92v-3.84h3.9v3.84h-3.9ZM300.99,52.92v-3.84h3.9v3.84h-3.9ZM300.99,52.92v-3.84h3.9v3.84h-3.9ZM300.99,58.16v-3.84h3.9v3.84h-3.9ZM300.99,58.16v-3.84h3.9v3.84h-3.9ZM300.99,58.16v-3.84h3.9v3.84h-3.9ZM300.99,58.16v-3.84h3.9v3.84h-3.9ZM300.99,63.39v-3.84h3.9v3.84h-3.9ZM300.99,63.39v-3.84h3.9v3.84h-3.9ZM300.99,63.39v-3.84h3.9v3.84h-3.9ZM300.99,63.39v-3.84h3.9v3.84h-3.9ZM300.99,79.09v-3.84h3.9v3.84h-3.9ZM300.99,79.09v-3.84h3.9v3.84h-3.9ZM300.99,79.09v-3.84h3.9v3.84h-3.9ZM300.99,79.09v-3.84h3.9v3.84h-3.9ZM325.76,31.99v-3.84h3.91v3.84h-3.91ZM325.76,31.99v-3.84h3.91v3.84h-3.91ZM325.76,31.99v-3.84h3.91v3.84h-3.91ZM325.76,31.99v-3.84h3.91v3.84h-3.91ZM325.76,37.22v-3.84h3.91v3.84h-3.91ZM325.76,37.22v-3.84h3.91v3.84h-3.91ZM325.76,37.22v-3.84h3.91v3.84h-3.91ZM325.76,37.22v-3.84h3.91v3.84h-3.91ZM325.76,42.46v-3.84h3.91v3.84h-3.91ZM325.76,42.46v-3.84h3.91v3.84h-3.91ZM325.76,42.46v-3.84h3.91v3.84h-3.91ZM325.76,42.46v-3.84h3.91v3.84h-3.91ZM325.76,47.69v-3.84h3.91v3.84h-3.91ZM325.76,47.69v-3.84h3.91v3.84h-3.91ZM325.76,47.69v-3.84h3.91v3.84h-3.91ZM325.76,47.69v-3.84h3.91v3.84h-3.91ZM325.76,52.92v-3.84h3.91v3.84h-3.91ZM325.76,52.92v-3.84h3.91v3.84h-3.91ZM325.76,52.92v-3.84h3.91v3.84h-3.91ZM325.76,52.92v-3.84h3.91v3.84h-3.91ZM325.76,58.16v-3.84h3.91v3.84h-3.91ZM325.76,58.16v-3.84h3.91v3.84h-3.91ZM325.76,58.16v-3.84h3.91v3.84h-3.91ZM325.76,58.16v-3.84h3.91v3.84h-3.91ZM325.76,63.39v-3.84h3.91v3.84h-3.91ZM325.76,63.39v-3.84h3.91v3.84h-3.91ZM325.76,63.39v-3.84h3.91v3.84h-3.91ZM325.76,63.39v-3.84h3.91v3.84h-3.91ZM325.76,68.62v-3.84h3.91v3.84h-3.91ZM325.76,68.62v-3.84h3.91v3.84h-3.91ZM325.76,68.62v-3.84h3.91v3.84h-3.91ZM325.76,68.62v-3.84h3.91v3.84h-3.91ZM325.76,73.85v-3.84h3.91v3.84h-3.91ZM325.76,73.85v-3.84h3.91v3.84h-3.91ZM325.76,73.85v-3.84h3.91v3.84h-3.91ZM325.76,73.85v-3.84h3.91v3.84h-3.91ZM325.76,79.09v-3.84h3.91v3.84h-3.91ZM325.76,79.09v-3.84h3.91v3.84h-3.91ZM325.76,79.09v-3.84h3.91v3.84h-3.91ZM325.76,79.09v-3.84h3.91v3.84h-3.91ZM325.76,84.32v-3.84h3.91v3.84h-3.91ZM325.76,84.32v-3.84h3.91v3.84h-3.91ZM325.76,84.32v-3.84h3.91v3.84h-3.91ZM325.76,84.32v-3.84h3.91v3.84h-3.91ZM331.09,31.99v-3.84h3.9v3.84h-3.9ZM331.09,31.99v-3.84h3.9v3.84h-3.9ZM331.09,31.99v-3.84h3.9v3.84h-3.9ZM331.09,31.99v-3.84h3.9v3.84h-3.9ZM331.09,63.39v-3.84h3.9v3.84h-3.9ZM331.09,63.39v-3.84h3.9v3.84h-3.9ZM331.09,63.39v-3.84h3.9v3.84h-3.9ZM331.09,63.39v-3.84h3.9v3.84h-3.9ZM336.41,31.99v-3.84h3.9v3.84h-3.9ZM336.41,31.99v-3.84h3.9v3.84h-3.9ZM336.41,31.99v-3.84h3.9v3.84h-3.9ZM336.41,31.99v-3.84h3.9v3.84h-3.9ZM336.41,63.39v-3.84h3.9v3.84h-3.9ZM336.41,63.39v-3.84h3.9v3.84h-3.9ZM336.41,63.39v-3.84h3.9v3.84h-3.9ZM336.41,63.39v-3.84h3.9v3.84h-3.9ZM341.74,31.99v-3.84h3.91v3.84h-3.91ZM341.74,31.99v-3.84h3.91v3.84h-3.91ZM341.74,31.99v-3.84h3.91v3.84h-3.91ZM341.74,31.99v-3.84h3.91v3.84h-3.91ZM341.74,63.39v-3.84h3.91v3.84h-3.91ZM341.74,63.39v-3.84h3.91v3.84h-3.91ZM341.74,63.39v-3.84h3.91v3.84h-3.91ZM341.74,63.39v-3.84h3.91v3.84h-3.91ZM347.07,37.22v-3.84h3.9v3.84h-3.9ZM347.07,37.22v-3.84h3.9v3.84h-3.9ZM347.07,37.22v-3.84h3.9v3.84h-3.9ZM347.07,37.22v-3.84h3.9v3.84h-3.9ZM347.07,42.46v-3.84h3.9v3.84h-3.9ZM347.07,42.46v-3.84h3.9v3.84h-3.9ZM347.07,42.46v-3.84h3.9v3.84h-3.9ZM347.07,42.46v-3.84h3.9v3.84h-3.9ZM347.07,47.69v-3.84h3.9v3.84h-3.9ZM347.07,47.69v-3.84h3.9v3.84h-3.9ZM347.07,47.69v-3.84h3.9v3.84h-3.9ZM347.07,47.69v-3.84h3.9v3.84h-3.9ZM347.07,52.92v-3.84h3.9v3.84h-3.9ZM347.07,52.92v-3.84h3.9v3.84h-3.9ZM347.07,52.92v-3.84h3.9v3.84h-3.9ZM347.07,52.92v-3.84h3.9v3.84h-3.9ZM347.07,58.16v-3.84h3.9v3.84h-3.9ZM347.07,58.16v-3.84h3.9v3.84h-3.9ZM347.07,58.16v-3.84h3.9v3.84h-3.9ZM347.07,58.16v-3.84h3.9v3.84h-3.9ZM358.12,52.92v-3.84h3.91v3.84h-3.91ZM358.12,52.92v-3.84h3.91v3.84h-3.91ZM358.12,52.92v-3.84h3.91v3.84h-3.91ZM358.12,52.92v-3.84h3.91v3.84h-3.91ZM358.12,58.16v-3.84h3.91v3.84h-3.91ZM358.12,58.16v-3.84h3.91v3.84h-3.91ZM358.12,58.16v-3.84h3.91v3.84h-3.91ZM358.12,58.16v-3.84h3.91v3.84h-3.91ZM358.12,63.39v-3.84h3.91v3.84h-3.91ZM358.12,63.39v-3.84h3.91v3.84h-3.91ZM358.12,63.39v-3.84h3.91v3.84h-3.91ZM358.12,63.39v-3.84h3.91v3.84h-3.91ZM358.12,68.62v-3.84h3.91v3.84h-3.91ZM358.12,68.62v-3.84h3.91v3.84h-3.91ZM358.12,68.62v-3.84h3.91v3.84h-3.91ZM358.12,68.62v-3.84h3.91v3.84h-3.91ZM358.12,73.86v-3.84h3.91v3.84h-3.91ZM358.12,73.86v-3.84h3.91v3.84h-3.91ZM358.12,73.86v-3.84h3.91v3.84h-3.91ZM358.12,73.86v-3.84h3.91v3.84h-3.91ZM358.12,79.09v-3.84h3.91v3.84h-3.91ZM358.12,79.09v-3.84h3.91v3.84h-3.91ZM358.12,79.09v-3.84h3.91v3.84h-3.91ZM358.12,79.09v-3.84h3.91v3.84h-3.91ZM363.44,47.69v-3.84h3.9v3.84h-3.9ZM363.44,47.69v-3.84h3.9v3.84h-3.9ZM363.44,47.69v-3.84h3.9v3.84h-3.9ZM363.44,47.69v-3.84h3.9v3.84h-3.9ZM363.44,63.39v-3.84h3.9v3.84h-3.9ZM363.44,63.39v-3.84h3.9v3.84h-3.9ZM363.44,63.39v-3.84h3.9v3.84h-3.9ZM363.44,63.39v-3.84h3.9v3.84h-3.9ZM363.44,84.32v-3.84h3.9v3.84h-3.9ZM363.44,84.32v-3.84h3.9v3.84h-3.9ZM363.44,84.32v-3.84h3.9v3.84h-3.9ZM363.44,84.32v-3.84h3.9v3.84h-3.9ZM368.77,47.69v-3.84h3.91v3.84h-3.91ZM368.77,47.69v-3.84h3.91v3.84h-3.91ZM368.77,47.69v-3.84h3.91v3.84h-3.91ZM368.77,47.69v-3.84h3.91v3.84h-3.91ZM368.77,63.39v-3.84h3.91v3.84h-3.91ZM368.77,63.39v-3.84h3.91v3.84h-3.91ZM368.77,63.39v-3.84h3.91v3.84h-3.91ZM368.77,63.39v-3.84h3.91v3.84h-3.91ZM368.77,84.32v-3.84h3.91v3.84h-3.91ZM368.77,84.32v-3.84h3.91v3.84h-3.91ZM368.77,84.32v-3.84h3.91v3.84h-3.91ZM368.77,84.32v-3.84h3.91v3.84h-3.91ZM374.1,47.69v-3.84h3.91v3.84h-3.91ZM374.1,47.69v-3.84h3.91v3.84h-3.91ZM374.1,47.69v-3.84h3.91v3.84h-3.91ZM374.1,47.69v-3.84h3.91v3.84h-3.91ZM374.1,63.39v-3.84h3.91v3.84h-3.91ZM374.1,63.39v-3.84h3.91v3.84h-3.91ZM374.1,63.39v-3.84h3.91v3.84h-3.91ZM374.1,63.39v-3.84h3.91v3.84h-3.91ZM374.1,84.32v-3.84h3.91v3.84h-3.91ZM374.1,84.32v-3.84h3.91v3.84h-3.91ZM374.1,84.32v-3.84h3.91v3.84h-3.91ZM374.1,84.32v-3.84h3.91v3.84h-3.91ZM379.42,52.92v-3.84h3.9v3.84h-3.9ZM379.42,52.92v-3.84h3.9v3.84h-3.9ZM379.42,52.92v-3.84h3.9v3.84h-3.9ZM379.42,52.92v-3.84h3.9v3.84h-3.9ZM379.42,58.16v-3.84h3.9v3.84h-3.9ZM379.42,58.16v-3.84h3.9v3.84h-3.9ZM379.42,58.16v-3.84h3.9v3.84h-3.9ZM379.42,58.16v-3.84h3.9v3.84h-3.9ZM379.42,63.39v-3.84h3.9v3.84h-3.9ZM379.42,63.39v-3.84h3.9v3.84h-3.9ZM379.42,63.39v-3.84h3.9v3.84h-3.9ZM379.42,63.39v-3.84h3.9v3.84h-3.9ZM379.42,79.09v-3.84h3.9v3.84h-3.9ZM379.42,79.09v-3.84h3.9v3.84h-3.9ZM379.42,79.09v-3.84h3.9v3.84h-3.9ZM379.42,79.09v-3.84h3.9v3.84h-3.9ZM390.48,52.92v-3.84h3.91v3.84h-3.91ZM390.48,52.92v-3.84h3.91v3.84h-3.91ZM390.48,52.92v-3.84h3.91v3.84h-3.91ZM390.48,52.92v-3.84h3.91v3.84h-3.91ZM390.48,58.16v-3.84h3.91v3.84h-3.91ZM390.48,58.16v-3.84h3.91v3.84h-3.91ZM390.48,58.16v-3.84h3.91v3.84h-3.91ZM390.48,58.16v-3.84h3.91v3.84h-3.91ZM390.48,63.39v-3.84h3.91v3.84h-3.91ZM390.48,63.39v-3.84h3.91v3.84h-3.91ZM390.48,63.39v-3.84h3.91v3.84h-3.91ZM390.48,63.39v-3.84h3.91v3.84h-3.91ZM390.48,68.62v-3.84h3.91v3.84h-3.91ZM390.48,68.62v-3.84h3.91v3.84h-3.91ZM390.48,68.62v-3.84h3.91v3.84h-3.91ZM390.48,68.62v-3.84h3.91v3.84h-3.91ZM390.48,73.86v-3.84h3.91v3.84h-3.91ZM390.48,73.86v-3.84h3.91v3.84h-3.91ZM390.48,73.86v-3.84h3.91v3.84h-3.91ZM390.48,73.86v-3.84h3.91v3.84h-3.91ZM390.48,79.09v-3.84h3.91v3.84h-3.91ZM390.48,79.09v-3.84h3.91v3.84h-3.91ZM390.48,79.09v-3.84h3.91v3.84h-3.91ZM390.48,79.09v-3.84h3.91v3.84h-3.91ZM395.8,47.69v-3.84h3.9v3.84h-3.9ZM395.8,47.69v-3.84h3.9v3.84h-3.9ZM395.8,47.69v-3.84h3.9v3.84h-3.9ZM395.8,47.69v-3.84h3.9v3.84h-3.9ZM395.8,84.32v-3.84h3.9v3.84h-3.9ZM395.8,84.32v-3.84h3.9v3.84h-3.9ZM395.8,84.32v-3.84h3.9v3.84h-3.9ZM395.8,84.32v-3.84h3.9v3.84h-3.9ZM401.13,47.69v-3.84h3.91v3.84h-3.91ZM401.13,47.69v-3.84h3.91v3.84h-3.91ZM401.13,47.69v-3.84h3.91v3.84h-3.91ZM401.13,47.69v-3.84h3.91v3.84h-3.91ZM401.13,84.32v-3.84h3.91v3.84h-3.91ZM401.13,84.32v-3.84h3.91v3.84h-3.91ZM401.13,84.32v-3.84h3.91v3.84h-3.91ZM401.13,84.32v-3.84h3.91v3.84h-3.91ZM406.45,47.69v-3.84h3.91v3.84h-3.91ZM406.45,47.69v-3.84h3.91v3.84h-3.91ZM406.45,47.69v-3.84h3.91v3.84h-3.91ZM406.45,47.69v-3.84h3.91v3.84h-3.91ZM406.45,84.32v-3.84h3.91v3.84h-3.91ZM406.45,84.32v-3.84h3.91v3.84h-3.91ZM406.45,84.32v-3.84h3.91v3.84h-3.91ZM406.45,84.32v-3.84h3.91v3.84h-3.91ZM411.78,52.92v-3.84h3.9v3.84h-3.9ZM411.78,52.92v-3.84h3.9v3.84h-3.9ZM411.78,52.92v-3.84h3.9v3.84h-3.9ZM411.78,52.92v-3.84h3.9v3.84h-3.9ZM411.78,58.16v-3.84h3.9v3.84h-3.9ZM411.78,58.16v-3.84h3.9v3.84h-3.9ZM411.78,58.16v-3.84h3.9v3.84h-3.9ZM411.78,58.16v-3.84h3.9v3.84h-3.9ZM411.78,63.39v-3.84h3.9v3.84h-3.9ZM411.78,63.39v-3.84h3.9v3.84h-3.9ZM411.78,63.39v-3.84h3.9v3.84h-3.9ZM411.78,63.39v-3.84h3.9v3.84h-3.9ZM411.78,68.62v-3.84h3.9v3.84h-3.9ZM411.78,68.62v-3.84h3.9v3.84h-3.9ZM411.78,68.62v-3.84h3.9v3.84h-3.9ZM411.78,68.62v-3.84h3.9v3.84h-3.9ZM411.78,73.86v-3.84h3.9v3.84h-3.9ZM411.78,73.86v-3.84h3.9v3.84h-3.9ZM411.78,73.86v-3.84h3.9v3.84h-3.9ZM411.78,73.86v-3.84h3.9v3.84h-3.9ZM411.78,79.09v-3.84h3.9v3.84h-3.9ZM411.78,79.09v-3.84h3.9v3.84h-3.9ZM411.78,79.09v-3.84h3.9v3.84h-3.9ZM411.78,79.09v-3.84h3.9v3.84h-3.9ZM425.5,47.69v-3.84h3.91v3.84h-3.91ZM425.5,47.69v-3.84h3.91v3.84h-3.91ZM425.5,47.69v-3.84h3.91v3.84h-3.91ZM425.5,47.69v-3.84h3.91v3.84h-3.91ZM425.5,52.92v-3.84h3.91v3.84h-3.91ZM425.5,52.92v-3.84h3.91v3.84h-3.91ZM425.5,52.92v-3.84h3.91v3.84h-3.91ZM425.5,52.92v-3.84h3.91v3.84h-3.91ZM425.5,58.16v-3.84h3.91v3.84h-3.91ZM425.5,58.16v-3.84h3.91v3.84h-3.91ZM425.5,58.16v-3.84h3.91v3.84h-3.91ZM425.5,58.16v-3.84h3.91v3.84h-3.91ZM425.5,63.39v-3.84h3.91v3.84h-3.91ZM425.5,63.39v-3.84h3.91v3.84h-3.91ZM425.5,63.39v-3.84h3.91v3.84h-3.91ZM425.5,63.39v-3.84h3.91v3.84h-3.91ZM425.5,68.62v-3.84h3.91v3.84h-3.91ZM425.5,68.62v-3.84h3.91v3.84h-3.91ZM425.5,68.62v-3.84h3.91v3.84h-3.91ZM425.5,68.62v-3.84h3.91v3.84h-3.91ZM425.5,73.86v-3.84h3.91v3.84h-3.91ZM425.5,73.86v-3.84h3.91v3.84h-3.91ZM425.5,73.86v-3.84h3.91v3.84h-3.91ZM425.5,73.86v-3.84h3.91v3.84h-3.91ZM425.5,79.09v-3.84h3.91v3.84h-3.91ZM425.5,79.09v-3.84h3.91v3.84h-3.91ZM425.5,79.09v-3.84h3.91v3.84h-3.91ZM425.5,79.09v-3.84h3.91v3.84h-3.91ZM425.5,84.32v-3.84h3.91v3.84h-3.91ZM425.5,84.32v-3.84h3.91v3.84h-3.91ZM425.5,84.32v-3.84h3.91v3.84h-3.91ZM425.5,84.32v-3.84h3.91v3.84h-3.91ZM425.5,89.55v-3.84h3.91v3.84h-3.91ZM425.5,89.55v-3.84h3.91v3.84h-3.91ZM425.5,89.55v-3.84h3.91v3.84h-3.91ZM425.5,89.55v-3.84h3.91v3.84h-3.91ZM425.5,94.79v-3.84h3.91v3.84h-3.91ZM425.5,94.79v-3.84h3.91v3.84h-3.91ZM425.5,94.79v-3.84h3.91v3.84h-3.91ZM425.5,94.79v-3.84h3.91v3.84h-3.91ZM430.82,52.92v-3.84h3.9v3.84h-3.9ZM430.82,52.92v-3.84h3.9v3.84h-3.9ZM430.82,52.92v-3.84h3.9v3.84h-3.9ZM430.82,52.92v-3.84h3.9v3.84h-3.9ZM430.82,79.09v-3.84h3.9v3.84h-3.9ZM430.82,79.09v-3.84h3.9v3.84h-3.9ZM430.82,79.09v-3.84h3.9v3.84h-3.9ZM430.82,79.09v-3.84h3.9v3.84h-3.9ZM436.15,47.69v-3.84h3.91v3.84h-3.91ZM436.15,47.69v-3.84h3.91v3.84h-3.91ZM436.15,47.69v-3.84h3.91v3.84h-3.91ZM436.15,47.69v-3.84h3.91v3.84h-3.91ZM436.15,84.32v-3.84h3.91v3.84h-3.91ZM436.15,84.32v-3.84h3.91v3.84h-3.91ZM436.15,84.32v-3.84h3.91v3.84h-3.91ZM436.15,84.32v-3.84h3.91v3.84h-3.91ZM441.48,47.69v-3.84h3.91v3.84h-3.91ZM441.48,47.69v-3.84h3.91v3.84h-3.91ZM441.48,47.69v-3.84h3.91v3.84h-3.91ZM441.48,47.69v-3.84h3.91v3.84h-3.91ZM441.48,84.32v-3.84h3.91v3.84h-3.91ZM441.48,84.32v-3.84h3.91v3.84h-3.91ZM441.48,84.32v-3.84h3.91v3.84h-3.91ZM441.48,84.32v-3.84h3.91v3.84h-3.91ZM446.8,52.92v-3.84h3.9v3.84h-3.9ZM446.8,52.92v-3.84h3.9v3.84h-3.9ZM446.8,52.92v-3.84h3.9v3.84h-3.9ZM446.8,52.92v-3.84h3.9v3.84h-3.9ZM446.8,58.16v-3.84h3.9v3.84h-3.9ZM446.8,58.16v-3.84h3.9v3.84h-3.9ZM446.8,58.16v-3.84h3.9v3.84h-3.9ZM446.8,58.16v-3.84h3.9v3.84h-3.9ZM446.8,63.39v-3.84h3.9v3.84h-3.9ZM446.8,63.39v-3.84h3.9v3.84h-3.9ZM446.8,63.39v-3.84h3.9v3.84h-3.9ZM446.8,63.39v-3.84h3.9v3.84h-3.9ZM446.8,68.62v-3.84h3.9v3.84h-3.9ZM446.8,68.62v-3.84h3.9v3.84h-3.9ZM446.8,68.62v-3.84h3.9v3.84h-3.9ZM446.8,68.62v-3.84h3.9v3.84h-3.9ZM446.8,73.86v-3.84h3.9v3.84h-3.9ZM446.8,73.86v-3.84h3.9v3.84h-3.9ZM446.8,73.86v-3.84h3.9v3.84h-3.9ZM446.8,73.86v-3.84h3.9v3.84h-3.9ZM446.8,79.09v-3.84h3.9v3.84h-3.9ZM446.8,79.09v-3.84h3.9v3.84h-3.9ZM446.8,79.09v-3.84h3.9v3.84h-3.9ZM446.8,79.09v-3.84h3.9v3.84h-3.9ZM460.52,37.22v-3.84h3.9v3.84h-3.9ZM460.52,37.22v-3.84h3.9v3.84h-3.9ZM460.52,37.22v-3.84h3.9v3.84h-3.9ZM460.52,37.22v-3.84h3.9v3.84h-3.9ZM460.52,42.46v-3.84h3.9v3.84h-3.9ZM460.52,42.46v-3.84h3.9v3.84h-3.9ZM460.52,42.46v-3.84h3.9v3.84h-3.9ZM460.52,42.46v-3.84h3.9v3.84h-3.9ZM460.52,47.69v-3.84h3.9v3.84h-3.9ZM460.52,47.69v-3.84h3.9v3.84h-3.9ZM460.52,47.69v-3.84h3.9v3.84h-3.9ZM460.52,47.69v-3.84h3.9v3.84h-3.9ZM460.52,52.93v-3.84h3.9v3.84h-3.9ZM460.52,52.93v-3.84h3.9v3.84h-3.9ZM460.52,52.93v-3.84h3.9v3.84h-3.9ZM460.52,52.93v-3.84h3.9v3.84h-3.9ZM460.52,58.15v-3.84h3.9v3.84h-3.9ZM460.52,58.15v-3.84h3.9v3.84h-3.9ZM460.52,58.15v-3.84h3.9v3.84h-3.9ZM460.52,58.15v-3.84h3.9v3.84h-3.9ZM460.52,63.39v-3.84h3.9v3.84h-3.9ZM460.52,63.39v-3.84h3.9v3.84h-3.9ZM460.52,63.39v-3.84h3.9v3.84h-3.9ZM460.52,63.39v-3.84h3.9v3.84h-3.9ZM460.52,68.62v-3.84h3.9v3.84h-3.9ZM460.52,68.62v-3.84h3.9v3.84h-3.9ZM460.52,68.62v-3.84h3.9v3.84h-3.9ZM460.52,68.62v-3.84h3.9v3.84h-3.9ZM460.52,73.86v-3.84h3.9v3.84h-3.9ZM460.52,73.86v-3.84h3.9v3.84h-3.9ZM460.52,73.86v-3.84h3.9v3.84h-3.9ZM460.52,73.86v-3.84h3.9v3.84h-3.9ZM460.52,79.09v-3.84h3.9v3.84h-3.9ZM460.52,79.09v-3.84h3.9v3.84h-3.9ZM460.52,79.09v-3.84h3.9v3.84h-3.9ZM460.52,79.09v-3.84h3.9v3.84h-3.9ZM460.52,84.32v-3.84h3.9v3.84h-3.9ZM460.52,84.32v-3.84h3.9v3.84h-3.9ZM460.52,84.32v-3.84h3.9v3.84h-3.9ZM460.52,84.32v-3.84h3.9v3.84h-3.9ZM474.24,52.92v-3.84h3.91v3.84h-3.91ZM474.24,52.92v-3.84h3.91v3.84h-3.91ZM474.24,52.92v-3.84h3.91v3.84h-3.91ZM474.24,52.92v-3.84h3.91v3.84h-3.91ZM474.24,58.16v-3.84h3.91v3.84h-3.91ZM474.24,58.16v-3.84h3.91v3.84h-3.91ZM474.24,58.16v-3.84h3.91v3.84h-3.91ZM474.24,58.16v-3.84h3.91v3.84h-3.91ZM474.24,63.39v-3.84h3.91v3.84h-3.91ZM474.24,63.39v-3.84h3.91v3.84h-3.91ZM474.24,63.39v-3.84h3.91v3.84h-3.91ZM474.24,63.39v-3.84h3.91v3.84h-3.91ZM474.24,68.62v-3.84h3.91v3.84h-3.91ZM474.24,68.62v-3.84h3.91v3.84h-3.91ZM474.24,68.62v-3.84h3.91v3.84h-3.91ZM474.24,68.62v-3.84h3.91v3.84h-3.91ZM474.24,73.86v-3.84h3.91v3.84h-3.91ZM474.24,73.86v-3.84h3.91v3.84h-3.91ZM474.24,73.86v-3.84h3.91v3.84h-3.91ZM474.24,73.86v-3.84h3.91v3.84h-3.91ZM474.24,79.09v-3.84h3.91v3.84h-3.91ZM474.24,79.09v-3.84h3.91v3.84h-3.91ZM474.24,79.09v-3.84h3.91v3.84h-3.91ZM474.24,79.09v-3.84h3.91v3.84h-3.91ZM479.56,47.69v-3.84h3.9v3.84h-3.9ZM479.56,47.69v-3.84h3.9v3.84h-3.9ZM479.56,47.69v-3.84h3.9v3.84h-3.9ZM479.56,47.69v-3.84h3.9v3.84h-3.9ZM479.56,63.39v-3.84h3.9v3.84h-3.9ZM479.56,63.39v-3.84h3.9v3.84h-3.9ZM479.56,63.39v-3.84h3.9v3.84h-3.9ZM479.56,63.39v-3.84h3.9v3.84h-3.9ZM479.56,84.32v-3.84h3.9v3.84h-3.9ZM479.56,84.32v-3.84h3.9v3.84h-3.9ZM479.56,84.32v-3.84h3.9v3.84h-3.9ZM479.56,84.32v-3.84h3.9v3.84h-3.9ZM484.89,47.69v-3.84h3.9v3.84h-3.9ZM484.89,47.69v-3.84h3.9v3.84h-3.9ZM484.89,47.69v-3.84h3.9v3.84h-3.9ZM484.89,47.69v-3.84h3.9v3.84h-3.9ZM484.89,63.39v-3.84h3.9v3.84h-3.9ZM484.89,63.39v-3.84h3.9v3.84h-3.9ZM484.89,63.39v-3.84h3.9v3.84h-3.9ZM484.89,63.39v-3.84h3.9v3.84h-3.9ZM484.89,84.32v-3.84h3.9v3.84h-3.9ZM484.89,84.32v-3.84h3.9v3.84h-3.9ZM484.89,84.32v-3.84h3.9v3.84h-3.9ZM484.89,84.32v-3.84h3.9v3.84h-3.9ZM490.21,47.69v-3.84h3.91v3.84h-3.91ZM490.21,47.69v-3.84h3.91v3.84h-3.91ZM490.21,47.69v-3.84h3.91v3.84h-3.91ZM490.21,47.69v-3.84h3.91v3.84h-3.91ZM490.21,63.39v-3.84h3.91v3.84h-3.91ZM490.21,63.39v-3.84h3.91v3.84h-3.91ZM490.21,63.39v-3.84h3.91v3.84h-3.91ZM490.21,63.39v-3.84h3.91v3.84h-3.91ZM490.21,84.32v-3.84h3.91v3.84h-3.91ZM490.21,84.32v-3.84h3.91v3.84h-3.91ZM490.21,84.32v-3.84h3.91v3.84h-3.91ZM490.21,84.32v-3.84h3.91v3.84h-3.91ZM495.54,52.92v-3.84h3.9v3.84h-3.9ZM495.54,52.92v-3.84h3.9v3.84h-3.9ZM495.54,52.92v-3.84h3.9v3.84h-3.9ZM495.54,52.92v-3.84h3.9v3.84h-3.9ZM495.54,58.16v-3.84h3.9v3.84h-3.9ZM495.54,58.16v-3.84h3.9v3.84h-3.9ZM495.54,58.16v-3.84h3.9v3.84h-3.9ZM495.54,58.16v-3.84h3.9v3.84h-3.9ZM495.54,63.39v-3.84h3.9v3.84h-3.9ZM495.54,63.39v-3.84h3.9v3.84h-3.9ZM495.54,63.39v-3.84h3.9v3.84h-3.9ZM495.54,63.39v-3.84h3.9v3.84h-3.9ZM495.54,79.09v-3.84h3.9v3.84h-3.9ZM495.54,79.09v-3.84h3.9v3.84h-3.9ZM495.54,79.09v-3.84h3.9v3.84h-3.9ZM495.54,79.09v-3.84h3.9v3.84h-3.9Z"/><path class="cls-1" d="M528.47,10h39.09v28.95c0,14-3.33,24.91-9.98,32.73-6.65,7.82-16.72,12.97-29.11,15.44v-14.27c9.45-2.74,16.28-7.87,19.41-15.37,1.74-4.03,2.43-7.82,2.06-11.39h-21.47V10ZM570.91,46.09h21.47c.37,3.57-.32,7.36-2.06,11.39-3.12,7.5-9.95,12.62-19.41,15.37v14.27c12.39-2.47,22.46-7.62,29.11-15.44,6.65-7.82,9.98-18.73,9.98-32.73V10h-39.09v36.09Z"/><path class="cls-1" d="M91.53,46.09h-21.47c-.37,3.57.32,7.36,2.06,11.39,3.12,7.5,9.95,12.62,19.41,15.37v14.27c-12.39-2.47-22.46-7.62-29.11-15.44-6.65-7.82-9.98-18.73-9.98-32.73V10h39.09v36.09ZM49.09,10H10s0,28.95,0,28.95c0,14,3.33,24.91,9.98,32.73,6.65,7.82,16.72,12.97,29.11,15.44v-14.27c-9.45-2.74-16.28-7.87-19.41-15.37-1.74-4.03-2.43-7.82-2.06-11.39h21.47s0-36.09,0-36.09Z"/><polygon class="cls-1" points="425.5 100 425.5 98.08 425.5 96.16 427.45 96.16 429.4 96.16 429.4 98.08 429.4 100 427.45 100 425.5 100"/><polygon class="cls-1" points="425.5 100 425.5 98.08 425.5 96.16 427.45 96.16 429.4 96.16 429.4 98.08 429.4 100 427.45 100 425.5 100"/><polygon class="cls-1" points="425.5 100 425.5 98.08 425.5 96.16 427.45 96.16 429.4 96.16 429.4 98.08 429.4 100 427.45 100 425.5 100"/><polygon class="cls-1" points="425.5 100 425.5 98.08 425.5 96.16 427.45 96.16 429.4 96.16 429.4 98.08 429.4 100 427.45 100 425.5 100"/><polygon class="cls-1" points="460.52 32.17 460.52 30.26 460.52 28.34 462.47 28.34 464.43 28.34 464.43 30.26 464.43 32.17 462.47 32.17 460.52 32.17"/></svg>