<?xml version="1.0" encoding="UTF-8"?><svg id="Layer_1" xmlns="http://www.w3.org/2000/svg" viewBox="362.95 436.98 274.35 126.96"><defs><style>.cls-1{fill:#243345;}</style></defs><path class="cls-1" d="M502.88,436.98h64.16v47.67c0,23.04-5.46,41-16.38,53.88-10.92,12.88-27.45,21.35-47.78,25.41v-23.49c15.51-4.52,26.73-12.96,31.85-25.3,2.86-6.63,3.99-12.88,3.39-18.75h-35.24v-59.41Z"/><path class="cls-1" d="M496.78,436.98h-64.16v47.67c0,23.04,5.46,41,16.38,53.88,10.92,12.88,27.45,21.35,47.78,25.41v-23.49c-15.51-4.52-26.73-12.96-31.85-25.3-2.86-6.63-3.99-12.88-3.39-18.75h35.24v-59.41Z"/><path class="cls-1" d="M573.14,436.98h64.16v47.67c0,23.04-5.46,41-16.38,53.88-10.92,12.88-27.45,21.35-47.78,25.41v-23.49c15.51-4.52,26.73-12.96,31.85-25.3,2.86-6.63,3.99-12.88,3.39-18.75h-35.24v-59.41Z"/><path class="cls-1" d="M427.11,436.98h-64.16v47.67c0,23.04,5.46,41,16.38,53.88,10.92,12.88,27.45,21.35,47.78,25.41v-23.49c-15.51-4.52-26.73-12.96-31.85-25.3-2.86-6.63-3.99-12.88-3.39-18.75h35.24v-59.41Z"/></svg>