<svg width="360" height="440" viewBox="0 0 360 440" fill="none" xmlns="http://www.w3.org/2000/svg">
<path d="M0.442383 193.243V185.291H8.39768V193.243H0.442383ZM0.442383 193.243V185.291H8.39768V193.243H0.442383ZM0.442383 193.243V185.291H8.39768V193.243H0.442383ZM0.442383 193.243V185.291H8.39768V193.243H0.442383ZM0.442383 204.091V196.139H8.39768V204.091H0.442383ZM0.442383 204.091V196.139H8.39768V204.091H0.442383ZM0.442383 204.091V196.139H8.39768V204.091H0.442383ZM0.442383 204.091V196.139H8.39768V204.091H0.442383ZM0.442383 214.939V206.987H8.39768V214.939H0.442383ZM0.442383 214.939V206.987H8.39768V214.939H0.442383ZM0.442383 214.939V206.987H8.39768V214.939H0.442383ZM0.442383 214.939V206.987H8.39768V214.939H0.442383ZM0.442383 225.779V217.826H8.39768V225.779H0.442383ZM0.442383 225.779V217.826H8.39768V225.779H0.442383ZM0.442383 225.779V217.826H8.39768V225.779H0.442383ZM0.442383 225.779V217.826H8.39768V225.779H0.442383ZM0.442383 236.626V228.674H8.39768V236.626H0.442383ZM0.442383 236.626V228.674H8.39768V236.626H0.442383ZM0.442383 236.626V228.674H8.39768V236.626H0.442383ZM0.442383 236.626V228.674H8.39768V236.626H0.442383ZM0.442383 247.474V239.522H8.39768V247.474H0.442383ZM0.442383 247.474V239.522H8.39768V247.474H0.442383ZM0.442383 247.474V239.522H8.39768V247.474H0.442383ZM0.442383 247.474V239.522H8.39768V247.474H0.442383ZM0.442383 258.322V250.37H8.39768V258.322H0.442383ZM0.442383 258.322V250.37H8.39768V258.322H0.442383ZM0.442383 258.322V250.37H8.39768V258.322H0.442383ZM0.442383 258.322V250.37H8.39768V258.322H0.442383ZM5.86834 269.17V261.218H13.8236V269.17H5.86834ZM5.86834 269.17V261.218H13.8236V269.17H5.86834ZM5.86834 269.17V261.218H13.8236V269.17H5.86834ZM5.86834 269.17V261.218H13.8236V269.17H5.86834ZM11.286 280.018V272.066H19.2412V280.018H11.286ZM11.286 280.018V272.066H19.2412V280.018H11.286ZM11.286 280.018V272.066H19.2412V280.018H11.286ZM11.286 280.018V272.066H19.2412V280.018H11.286ZM16.7119 290.866V282.914H24.6672V290.866H16.7119ZM16.7119 290.866V282.914H24.6672V290.866H16.7119ZM16.7119 290.866V282.914H24.6672V290.866H16.7119ZM16.7119 290.866V282.914H24.6672V290.866H16.7119ZM22.1379 301.706V293.753H30.0932V301.706H22.1379ZM22.1379 301.706V293.753H30.0932V301.706H22.1379ZM22.1379 301.706V293.753H30.0932V301.706H22.1379ZM22.1379 301.706V293.753H30.0932V301.706H22.1379ZM27.5638 290.866V282.914H35.5191V290.866H27.5638ZM27.5638 290.866V282.914H35.5191V290.866H27.5638ZM27.5638 290.866V282.914H35.5191V290.866H27.5638ZM27.5638 290.866V282.914H35.5191V290.866H27.5638ZM32.9898 280.018V272.066H40.9451V280.018H32.9898ZM32.9898 280.018V272.066H40.9451V280.018H32.9898ZM32.9898 280.018V272.066H40.9451V280.018H32.9898ZM32.9898 280.018V272.066H40.9451V280.018H32.9898ZM38.4158 269.17V261.218H46.3711V269.17H38.4158ZM38.4158 269.17V261.218H46.3711V269.17H38.4158ZM38.4158 269.17V261.218H46.3711V269.17H38.4158ZM38.4158 269.17V261.218H46.3711V269.17H38.4158ZM43.8417 193.243V185.291H51.797V193.243H43.8417ZM43.8417 193.243V185.291H51.797V193.243H43.8417ZM43.8417 193.243V185.291H51.797V193.243H43.8417ZM43.8417 193.243V185.291H51.797V193.243H43.8417ZM43.8417 204.091V196.139H51.797V204.091H43.8417ZM43.8417 204.091V196.139H51.797V204.091H43.8417ZM43.8417 204.091V196.139H51.797V204.091H43.8417ZM43.8417 204.091V196.139H51.797V204.091H43.8417ZM43.8417 214.939V206.987H51.797V214.939H43.8417ZM43.8417 214.939V206.987H51.797V214.939H43.8417ZM43.8417 214.939V206.987H51.797V214.939H43.8417ZM43.8417 214.939V206.987H51.797V214.939H43.8417ZM43.8417 225.779V217.826H51.797V225.779H43.8417ZM43.8417 225.779V217.826H51.797V225.779H43.8417ZM43.8417 225.779V217.826H51.797V225.779H43.8417ZM43.8417 225.779V217.826H51.797V225.779H43.8417ZM43.8417 236.626V228.674H51.797V236.626H43.8417ZM43.8417 236.626V228.674H51.797V236.626H43.8417ZM43.8417 236.626V228.674H51.797V236.626H43.8417ZM43.8417 236.626V228.674H51.797V236.626H43.8417ZM43.8417 247.474V239.522H51.797V247.474H43.8417ZM43.8417 247.474V239.522H51.797V247.474H43.8417ZM43.8417 247.474V239.522H51.797V247.474H43.8417ZM43.8417 247.474V239.522H51.797V247.474H43.8417ZM43.8417 258.322V250.37H51.797V258.322H43.8417ZM43.8417 258.322V250.37H51.797V258.322H43.8417ZM43.8417 258.322V250.37H51.797V258.322H43.8417ZM43.8417 258.322V250.37H51.797V258.322H43.8417ZM49.2677 269.17V261.218H57.223V269.17H49.2677ZM49.2677 269.17V261.218H57.223V269.17H49.2677ZM49.2677 269.17V261.218H57.223V269.17H49.2677ZM49.2677 269.17V261.218H57.223V269.17H49.2677ZM54.6936 280.018V272.066H62.6489V280.018H54.6936ZM54.6936 280.018V272.066H62.6489V280.018H54.6936ZM54.6936 280.018V272.066H62.6489V280.018H54.6936ZM54.6936 280.018V272.066H62.6489V280.018H54.6936ZM60.1196 290.866V282.914H68.0749V290.866H60.1196ZM60.1196 290.866V282.914H68.0749V290.866H60.1196ZM60.1196 290.866V282.914H68.0749V290.866H60.1196ZM60.1196 290.866V282.914H68.0749V290.866H60.1196ZM65.5372 301.706V293.753H73.4925V301.706H65.5372ZM65.5372 301.706V293.753H73.4925V301.706H65.5372ZM65.5372 301.706V293.753H73.4925V301.706H65.5372ZM65.5372 301.706V293.753H73.4925V301.706H65.5372ZM70.9632 290.866V282.914H78.9185V290.866H70.9632ZM70.9632 290.866V282.914H78.9185V290.866H70.9632ZM70.9632 290.866V282.914H78.9185V290.866H70.9632ZM70.9632 290.866V282.914H78.9185V290.866H70.9632ZM76.3975 280.018V272.066H84.3528V280.018H76.3975ZM76.3975 280.018V272.066H84.3528V280.018H76.3975ZM76.3975 280.018V272.066H84.3528V280.018H76.3975ZM76.3975 280.018V272.066H84.3528V280.018H76.3975ZM81.8234 269.17V261.218H89.7787V269.17H81.8234ZM81.8234 269.17V261.218H89.7787V269.17H81.8234ZM81.8234 269.17V261.218H89.7787V269.17H81.8234ZM81.8234 269.17V261.218H89.7787V269.17H81.8234ZM87.2411 193.243V185.291H95.1964V193.243H87.2411ZM87.2411 193.243V185.291H95.1964V193.243H87.2411ZM87.2411 193.243V185.291H95.1964V193.243H87.2411ZM87.2411 193.243V185.291H95.1964V193.243H87.2411ZM87.2411 204.091V196.139H95.1964V204.091H87.2411ZM87.2411 204.091V196.139H95.1964V204.091H87.2411ZM87.2411 204.091V196.139H95.1964V204.091H87.2411ZM87.2411 204.091V196.139H95.1964V204.091H87.2411ZM87.2411 214.939V206.987H95.1964V214.939H87.2411ZM87.2411 214.939V206.987H95.1964V214.939H87.2411ZM87.2411 214.939V206.987H95.1964V214.939H87.2411ZM87.2411 214.939V206.987H95.1964V214.939H87.2411ZM87.2411 225.779V217.826H95.1964V225.779H87.2411ZM87.2411 225.779V217.826H95.1964V225.779H87.2411ZM87.2411 225.779V217.826H95.1964V225.779H87.2411ZM87.2411 225.779V217.826H95.1964V225.779H87.2411ZM87.2411 236.626V228.674H95.1964V236.626H87.2411ZM87.2411 236.626V228.674H95.1964V236.626H87.2411ZM87.2411 236.626V228.674H95.1964V236.626H87.2411ZM87.2411 236.626V228.674H95.1964V236.626H87.2411ZM87.2411 247.474V239.522H95.1964V247.474H87.2411ZM87.2411 247.474V239.522H95.1964V247.474H87.2411ZM87.2411 247.474V239.522H95.1964V247.474H87.2411ZM87.2411 247.474V239.522H95.1964V247.474H87.2411ZM87.2411 258.322V250.37H95.1964V258.322H87.2411ZM87.2411 258.322V250.37H95.1964V258.322H87.2411ZM87.2411 258.322V250.37H95.1964V258.322H87.2411ZM87.2411 258.322V250.37H95.1964V258.322H87.2411ZM109.755 193.243V185.291H117.71V193.243H109.755ZM109.755 193.243V185.291H117.71V193.243H109.755ZM109.755 193.243V185.291H117.71V193.243H109.755ZM109.755 193.243V185.291H117.71V193.243H109.755ZM109.755 204.091V196.139H117.71V204.091H109.755ZM109.755 204.091V196.139H117.71V204.091H109.755ZM109.755 204.091V196.139H117.71V204.091H109.755ZM109.755 204.091V196.139H117.71V204.091H109.755ZM109.755 214.939V206.987H117.71V214.939H109.755ZM109.755 214.939V206.987H117.71V214.939H109.755ZM109.755 214.939V206.987H117.71V214.939H109.755ZM109.755 214.939V206.987H117.71V214.939H109.755ZM109.755 225.779V217.826H117.71V225.779H109.755ZM109.755 225.779V217.826H117.71V225.779H109.755ZM109.755 225.779V217.826H117.71V225.779H109.755ZM109.755 225.779V217.826H117.71V225.779H109.755ZM109.755 236.626V228.674H117.71V236.626H109.755ZM109.755 236.626V228.674H117.71V236.626H109.755ZM109.755 236.626V228.674H117.71V236.626H109.755ZM109.755 236.626V228.674H117.71V236.626H109.755ZM109.755 247.474V239.522H117.71V247.474H109.755ZM109.755 247.474V239.522H117.71V247.474H109.755ZM109.755 247.474V239.522H117.71V247.474H109.755ZM109.755 247.474V239.522H117.71V247.474H109.755ZM109.755 258.322V250.37H117.71V258.322H109.755ZM109.755 258.322V250.37H117.71V258.322H109.755ZM109.755 258.322V250.37H117.71V258.322H109.755ZM109.755 258.322V250.37H117.71V258.322H109.755ZM109.755 269.17V261.218H117.71V269.17H109.755ZM109.755 269.17V261.218H117.71V269.17H109.755ZM109.755 269.17V261.218H117.71V269.17H109.755ZM109.755 269.17V261.218H117.71V269.17H109.755ZM109.755 280.018V272.066H117.71V280.018H109.755ZM109.755 280.018V272.066H117.71V280.018H109.755ZM109.755 280.018V272.066H117.71V280.018H109.755ZM109.755 280.018V272.066H117.71V280.018H109.755ZM109.755 290.866V282.914H117.71V290.866H109.755ZM109.755 290.866V282.914H117.71V290.866H109.755ZM109.755 290.866V282.914H117.71V290.866H109.755ZM109.755 290.866V282.914H117.71V290.866H109.755ZM109.755 301.706V293.753H117.71V301.706H109.755ZM109.755 301.706V293.753H117.71V301.706H109.755ZM109.755 301.706V293.753H117.71V301.706H109.755ZM109.755 301.706V293.753H117.71V301.706H109.755ZM120.607 193.243V185.291H128.562V193.243H120.607ZM120.607 193.243V185.291H128.562V193.243H120.607ZM120.607 193.243V185.291H128.562V193.243H120.607ZM120.607 193.243V185.291H128.562V193.243H120.607ZM120.607 247.474V239.522H128.562V247.474H120.607ZM120.607 247.474V239.522H128.562V247.474H120.607ZM120.607 247.474V239.522H128.562V247.474H120.607ZM120.607 247.474V239.522H128.562V247.474H120.607ZM120.607 301.706V293.753H128.562V301.706H120.607ZM120.607 301.706V293.753H128.562V301.706H120.607ZM120.607 301.706V293.753H128.562V301.706H120.607ZM120.607 301.706V293.753H128.562V301.706H120.607ZM131.458 193.243V185.291H139.414V193.243H131.458ZM131.458 193.243V185.291H139.414V193.243H131.458ZM131.458 193.243V185.291H139.414V193.243H131.458ZM131.458 193.243V185.291H139.414V193.243H131.458ZM131.458 247.474V239.522H139.414V247.474H131.458ZM131.458 247.474V239.522H139.414V247.474H131.458ZM131.458 247.474V239.522H139.414V247.474H131.458ZM131.458 247.474V239.522H139.414V247.474H131.458ZM131.458 301.706V293.753H139.414V301.706H131.458ZM131.458 301.706V293.753H139.414V301.706H131.458ZM131.458 301.706V293.753H139.414V301.706H131.458ZM131.458 301.706V293.753H139.414V301.706H131.458ZM142.31 193.243V185.291H150.266V193.243H142.31ZM142.31 193.243V185.291H150.266V193.243H142.31ZM142.31 193.243V185.291H150.266V193.243H142.31ZM142.31 193.243V185.291H150.266V193.243H142.31ZM142.31 247.474V239.522H150.266V247.474H142.31ZM142.31 247.474V239.522H150.266V247.474H142.31ZM142.31 247.474V239.522H150.266V247.474H142.31ZM142.31 247.474V239.522H150.266V247.474H142.31ZM142.31 301.706V293.753H150.266V301.706H142.31ZM142.31 301.706V293.753H150.266V301.706H142.31ZM142.31 301.706V293.753H150.266V301.706H142.31ZM142.31 301.706V293.753H150.266V301.706H142.31ZM181.912 193.243V185.291H189.867V193.243H181.912ZM181.912 193.243V185.291H189.867V193.243H181.912ZM181.912 193.243V185.291H189.867V193.243H181.912ZM181.912 193.243V185.291H189.867V193.243H181.912ZM192.763 193.243V185.291H200.719V193.243H192.763ZM192.763 193.243V185.291H200.719V193.243H192.763ZM192.763 193.243V185.291H200.719V193.243H192.763ZM192.763 193.243V185.291H200.719V193.243H192.763ZM203.607 193.243V185.291H211.562V193.243H203.607ZM203.607 193.243V185.291H211.562V193.243H203.607ZM203.607 193.243V185.291H211.562V193.243H203.607ZM203.607 193.243V185.291H211.562V193.243H203.607ZM203.607 204.091V196.139H211.562V204.091H203.607ZM203.607 204.091V196.139H211.562V204.091H203.607ZM203.607 204.091V196.139H211.562V204.091H203.607ZM203.607 204.091V196.139H211.562V204.091H203.607ZM203.607 214.939V206.987H211.562V214.939H203.607ZM203.607 214.939V206.987H211.562V214.939H203.607ZM203.607 214.939V206.987H211.562V214.939H203.607ZM203.607 214.939V206.987H211.562V214.939H203.607ZM203.607 225.787V217.835H211.562V225.787H203.607ZM203.607 225.787V217.835H211.562V225.787H203.607ZM203.607 225.787V217.835H211.562V225.787H203.607ZM203.607 225.787V217.835H211.562V225.787H203.607ZM203.607 236.626V228.674H211.562V236.626H203.607ZM203.607 236.626V228.674H211.562V236.626H203.607ZM203.607 236.626V228.674H211.562V236.626H203.607ZM203.607 236.626V228.674H211.562V236.626H203.607ZM203.607 247.474V239.522H211.562V247.474H203.607ZM203.607 247.474V239.522H211.562V247.474H203.607ZM203.607 247.474V239.522H211.562V247.474H203.607ZM203.607 247.474V239.522H211.562V247.474H203.607ZM203.607 258.322V250.37H211.562V258.322H203.607ZM203.607 258.322V250.37H211.562V258.322H203.607ZM203.607 258.322V250.37H211.562V258.322H203.607ZM203.607 258.322V250.37H211.562V258.322H203.607ZM203.607 269.17V261.218H211.562V269.17H203.607ZM203.607 269.17V261.218H211.562V269.17H203.607ZM203.607 269.17V261.218H211.562V269.17H203.607ZM203.607 269.17V261.218H211.562V269.17H203.607ZM203.607 280.018V272.066H211.562V280.018H203.607ZM203.607 280.018V272.066H211.562V280.018H203.607ZM203.607 280.018V272.066H211.562V280.018H203.607ZM203.607 280.018V272.066H211.562V280.018H203.607ZM203.607 290.866V282.914H211.562V290.866H203.607ZM203.607 290.866V282.914H211.562V290.866H203.607ZM203.607 290.866V282.914H211.562V290.866H203.607ZM203.607 290.866V282.914H211.562V290.866H203.607ZM203.607 301.714V293.753H211.562V301.714H203.607ZM203.607 301.714V293.753H211.562V301.714H203.607ZM203.607 301.714V293.753H211.562V301.714H203.607ZM203.607 301.714V293.753H211.562V301.714H203.607ZM214.467 193.243V185.291H222.423V193.243H214.467ZM214.467 193.243V185.291H222.423V193.243H214.467ZM214.467 193.243V185.291H222.423V193.243H214.467ZM214.467 193.243V185.291H222.423V193.243H214.467ZM225.311 193.243V185.291H233.266V193.243H225.311ZM225.311 193.243V185.291H233.266V193.243H225.311ZM225.311 193.243V185.291H233.266V193.243H225.311ZM225.311 193.243V185.291H233.266V193.243H225.311ZM242.407 193.243V185.291H250.362V193.243H242.407ZM242.407 193.243V185.291H250.362V193.243H242.407ZM242.407 193.243V185.291H250.362V193.243H242.407ZM242.407 193.243V185.291H250.362V193.243H242.407ZM242.407 204.091V196.139H250.362V204.091H242.407ZM242.407 204.091V196.139H250.362V204.091H242.407ZM242.407 204.091V196.139H250.362V204.091H242.407ZM242.407 204.091V196.139H250.362V204.091H242.407ZM242.407 214.939V206.987H250.362V214.939H242.407ZM242.407 214.939V206.987H250.362V214.939H242.407ZM242.407 214.939V206.987H250.362V214.939H242.407ZM242.407 214.939V206.987H250.362V214.939H242.407ZM242.407 225.779V217.826H250.362V225.779H242.407ZM242.407 225.779V217.826H250.362V225.779H242.407ZM242.407 225.779V217.826H250.362V225.779H242.407ZM242.407 225.779V217.826H250.362V225.779H242.407ZM242.407 236.626V228.674H250.362V236.626H242.407ZM242.407 236.626V228.674H250.362V236.626H242.407ZM242.407 236.626V228.674H250.362V236.626H242.407ZM242.407 236.626V228.674H250.362V236.626H242.407ZM242.407 247.474V239.522H250.362V247.474H242.407ZM242.407 247.474V239.522H250.362V247.474H242.407ZM242.407 247.474V239.522H250.362V247.474H242.407ZM242.407 247.474V239.522H250.362V247.474H242.407ZM242.407 258.322V250.37H250.362V258.322H242.407ZM242.407 258.322V250.37H250.362V258.322H242.407ZM242.407 258.322V250.37H250.362V258.322H242.407ZM242.407 258.322V250.37H250.362V258.322H242.407ZM242.407 269.17V261.218H250.362V269.17H242.407ZM242.407 269.17V261.218H250.362V269.17H242.407ZM242.407 269.17V261.218H250.362V269.17H242.407ZM242.407 269.17V261.218H250.362V269.17H242.407ZM242.407 280.018V272.066H250.362V280.018H242.407ZM242.407 280.018V272.066H250.362V280.018H242.407ZM242.407 280.018V272.066H250.362V280.018H242.407ZM242.407 280.018V272.066H250.362V280.018H242.407ZM242.407 290.866V282.914H250.362V290.866H242.407ZM242.407 290.866V282.914H250.362V290.866H242.407ZM242.407 290.866V282.914H250.362V290.866H242.407ZM242.407 290.866V282.914H250.362V290.866H242.407ZM242.407 301.706V293.753H250.362V301.706H242.407ZM242.407 301.706V293.753H250.362V301.706H242.407ZM242.407 301.706V293.753H250.362V301.706H242.407ZM242.407 301.706V293.753H250.362V301.706H242.407ZM253.25 247.474V239.522H261.206V247.474H253.25ZM253.25 247.474V239.522H261.206V247.474H253.25ZM253.25 247.474V239.522H261.206V247.474H253.25ZM253.25 247.474V239.522H261.206V247.474H253.25ZM264.102 247.474V239.522H272.058V247.474H264.102ZM264.102 247.474V239.522H272.058V247.474H264.102ZM264.102 247.474V239.522H272.058V247.474H264.102ZM264.102 247.474V239.522H272.058V247.474H264.102ZM274.954 247.474V239.522H282.91V247.474H274.954ZM274.954 247.474V239.522H282.91V247.474H274.954ZM274.954 247.474V239.522H282.91V247.474H274.954ZM274.954 247.474V239.522H282.91V247.474H274.954ZM285.806 193.243V185.291H293.761V193.243H285.806ZM285.806 193.243V185.291H293.761V193.243H285.806ZM285.806 193.243V185.291H293.761V193.243H285.806ZM285.806 193.243V185.291H293.761V193.243H285.806ZM285.806 204.091V196.139H293.761V204.091H285.806ZM285.806 204.091V196.139H293.761V204.091H285.806ZM285.806 204.091V196.139H293.761V204.091H285.806ZM285.806 204.091V196.139H293.761V204.091H285.806ZM285.806 214.939V206.987H293.761V214.939H285.806ZM285.806 214.939V206.987H293.761V214.939H285.806ZM285.806 214.939V206.987H293.761V214.939H285.806ZM285.806 214.939V206.987H293.761V214.939H285.806ZM285.806 225.779V217.826H293.761V225.779H285.806ZM285.806 225.779V217.826H293.761V225.779H285.806ZM285.806 225.779V217.826H293.761V225.779H285.806ZM285.806 225.779V217.826H293.761V225.779H285.806ZM285.806 236.626V228.674H293.761V236.626H285.806ZM285.806 236.626V228.674H293.761V236.626H285.806ZM285.806 236.626V228.674H293.761V236.626H285.806ZM285.806 236.626V228.674H293.761V236.626H285.806ZM285.806 247.474V239.522H293.761V247.474H285.806ZM285.806 247.474V239.522H293.761V247.474H285.806ZM285.806 247.474V239.522H293.761V247.474H285.806ZM285.806 247.474V239.522H293.761V247.474H285.806ZM285.806 258.322V250.37H293.761V258.322H285.806ZM285.806 258.322V250.37H293.761V258.322H285.806ZM285.806 258.322V250.37H293.761V258.322H285.806ZM285.806 258.322V250.37H293.761V258.322H285.806ZM285.806 269.17V261.218H293.761V269.17H285.806ZM285.806 269.17V261.218H293.761V269.17H285.806ZM285.806 269.17V261.218H293.761V269.17H285.806ZM285.806 269.17V261.218H293.761V269.17H285.806ZM285.806 280.018V272.066H293.761V280.018H285.806ZM285.806 280.018V272.066H293.761V280.018H285.806ZM285.806 280.018V272.066H293.761V280.018H285.806ZM285.806 280.018V272.066H293.761V280.018H285.806ZM285.806 290.866V282.914H293.761V290.866H285.806ZM285.806 290.866V282.914H293.761V290.866H285.806ZM285.806 290.866V282.914H293.761V290.866H285.806ZM285.806 290.866V282.914H293.761V290.866H285.806ZM285.806 301.706V293.753H293.761V301.706H285.806ZM285.806 301.706V293.753H293.761V301.706H285.806ZM285.806 301.706V293.753H293.761V301.706H285.806ZM285.806 301.706V293.753H293.761V301.706H285.806ZM313.746 193.243V185.291H321.701V193.243H313.746ZM313.746 193.243V185.291H321.701V193.243H313.746ZM313.746 193.243V185.291H321.701V193.243H313.746ZM313.746 193.243V185.291H321.701V193.243H313.746ZM313.746 204.091V196.139H321.701V204.091H313.746ZM313.746 204.091V196.139H321.701V204.091H313.746ZM313.746 204.091V196.139H321.701V204.091H313.746ZM313.746 204.091V196.139H321.701V204.091H313.746ZM313.746 214.939V206.987H321.701V214.939H313.746ZM313.746 214.939V206.987H321.701V214.939H313.746ZM313.746 214.939V206.987H321.701V214.939H313.746ZM313.746 214.939V206.987H321.701V214.939H313.746ZM313.746 225.779V217.826H321.701V225.779H313.746ZM313.746 225.779V217.826H321.701V225.779H313.746ZM313.746 225.779V217.826H321.701V225.779H313.746ZM313.746 225.779V217.826H321.701V225.779H313.746ZM313.746 236.626V228.674H321.701V236.626H313.746ZM313.746 236.626V228.674H321.701V236.626H313.746ZM313.746 236.626V228.674H321.701V236.626H313.746ZM313.746 236.626V228.674H321.701V236.626H313.746ZM313.746 247.474V239.522H321.701V247.474H313.746ZM313.746 247.474V239.522H321.701V247.474H313.746ZM313.746 247.474V239.522H321.701V247.474H313.746ZM313.746 247.474V239.522H321.701V247.474H313.746ZM313.746 258.322V250.37H321.701V258.322H313.746ZM313.746 258.322V250.37H321.701V258.322H313.746ZM313.746 258.322V250.37H321.701V258.322H313.746ZM313.746 258.322V250.37H321.701V258.322H313.746ZM313.746 269.17V261.218H321.701V269.17H313.746ZM313.746 269.17V261.218H321.701V269.17H313.746ZM313.746 269.17V261.218H321.701V269.17H313.746ZM313.746 269.17V261.218H321.701V269.17H313.746ZM313.746 280.018V272.066H321.701V280.018H313.746ZM313.746 280.018V272.066H321.701V280.018H313.746ZM313.746 280.018V272.066H321.701V280.018H313.746ZM313.746 280.018V272.066H321.701V280.018H313.746ZM313.746 290.866V282.914H321.701V290.866H313.746ZM313.746 290.866V282.914H321.701V290.866H313.746ZM313.746 290.866V282.914H321.701V290.866H313.746ZM313.746 290.866V282.914H321.701V290.866H313.746ZM313.746 301.706V293.753H321.701V301.706H313.746ZM313.746 301.706V293.753H321.701V301.706H313.746ZM313.746 301.706V293.753H321.701V301.706H313.746ZM313.746 301.706V293.753H321.701V301.706H313.746ZM324.589 193.243V185.291H332.545V193.243H324.589ZM324.589 193.243V185.291H332.545V193.243H324.589ZM324.589 193.243V185.291H332.545V193.243H324.589ZM324.589 193.243V185.291H332.545V193.243H324.589ZM324.589 247.474V239.522H332.545V247.474H324.589ZM324.589 247.474V239.522H332.545V247.474H324.589ZM324.589 247.474V239.522H332.545V247.474H324.589ZM324.589 247.474V239.522H332.545V247.474H324.589ZM324.589 301.706V293.753H332.545V301.706H324.589ZM324.589 301.706V293.753H332.545V301.706H324.589ZM324.589 301.706V293.753H332.545V301.706H324.589ZM324.589 301.706V293.753H332.545V301.706H324.589ZM335.45 193.243V185.291H343.405V193.243H335.45ZM335.45 193.243V185.291H343.405V193.243H335.45ZM335.45 193.243V185.291H343.405V193.243H335.45ZM335.45 193.243V185.291H343.405V193.243H335.45ZM335.45 247.474V239.522H343.405V247.474H335.45ZM335.45 247.474V239.522H343.405V247.474H335.45ZM335.45 247.474V239.522H343.405V247.474H335.45ZM335.45 247.474V239.522H343.405V247.474H335.45ZM335.45 301.706V293.753H343.405V301.706H335.45ZM335.45 301.706V293.753H343.405V301.706H335.45ZM335.45 301.706V293.753H343.405V301.706H335.45ZM335.45 301.706V293.753H343.405V301.706H335.45ZM346.293 193.243V185.291H354.248V193.243H346.293ZM346.293 193.243V185.291H354.248V193.243H346.293ZM346.293 193.243V185.291H354.248V193.243H346.293ZM346.293 193.243V185.291H354.248V193.243H346.293ZM346.293 247.474V239.522H354.248V247.474H346.293ZM346.293 247.474V239.522H354.248V247.474H346.293ZM346.293 247.474V239.522H354.248V247.474H346.293ZM346.293 247.474V239.522H354.248V247.474H346.293ZM346.293 301.706V293.753H354.248V301.706H346.293ZM346.293 301.706V293.753H354.248V301.706H346.293ZM346.293 301.706V293.753H354.248V301.706H346.293ZM346.293 301.706V293.753H354.248V301.706H346.293ZM5.86834 331.537V323.585H13.8236V331.537H5.86834ZM5.86834 331.537V323.585H13.8236V331.537H5.86834ZM5.86834 331.537V323.585H13.8236V331.537H5.86834ZM5.86834 331.537V323.585H13.8236V331.537H5.86834ZM5.86834 342.385V334.433H13.8236V342.385H5.86834ZM5.86834 342.385V334.433H13.8236V342.385H5.86834ZM5.86834 342.385V334.433H13.8236V342.385H5.86834ZM5.86834 342.385V334.433H13.8236V342.385H5.86834ZM5.86834 353.225V345.273H13.8236V353.225H5.86834ZM5.86834 353.225V345.273H13.8236V353.225H5.86834ZM5.86834 353.225V345.273H13.8236V353.225H5.86834ZM5.86834 353.225V345.273H13.8236V353.225H5.86834ZM5.86834 364.081V356.129H13.8236V364.081H5.86834ZM5.86834 364.081V356.129H13.8236V364.081H5.86834ZM5.86834 364.081V356.129H13.8236V364.081H5.86834ZM5.86834 364.081V356.129H13.8236V364.081H5.86834ZM5.86834 374.921V366.968H13.8236V374.921H5.86834ZM5.86834 374.921V366.968H13.8236V374.921H5.86834ZM5.86834 374.921V366.968H13.8236V374.921H5.86834ZM5.86834 374.921V366.968H13.8236V374.921H5.86834ZM5.86834 385.769V377.816H13.8236V385.769H5.86834ZM5.86834 385.769V377.816H13.8236V385.769H5.86834ZM5.86834 385.769V377.816H13.8236V385.769H5.86834ZM5.86834 385.769V377.816H13.8236V385.769H5.86834ZM5.86834 396.617V388.664H13.8236V396.617H5.86834ZM5.86834 396.617V388.664H13.8236V396.617H5.86834ZM5.86834 396.617V388.664H13.8236V396.617H5.86834ZM5.86834 396.617V388.664H13.8236V396.617H5.86834ZM5.86834 407.465V399.512H13.8236V407.465H5.86834ZM5.86834 407.465V399.512H13.8236V407.465H5.86834ZM5.86834 407.465V399.512H13.8236V407.465H5.86834ZM5.86834 407.465V399.512H13.8236V407.465H5.86834ZM5.86834 418.312V410.36H13.8236V418.312H5.86834ZM5.86834 418.312V410.36H13.8236V418.312H5.86834ZM5.86834 418.312V410.36H13.8236V418.312H5.86834ZM5.86834 418.312V410.36H13.8236V418.312H5.86834ZM5.86834 429.152V421.2H13.8236V429.152H5.86834ZM5.86834 429.152V421.2H13.8236V429.152H5.86834ZM5.86834 429.152V421.2H13.8236V429.152H5.86834ZM5.86834 429.152V421.2H13.8236V429.152H5.86834ZM5.86834 440V432.048H13.8236V440H5.86834ZM5.86834 440V432.048H13.8236V440H5.86834ZM5.86834 440V432.048H13.8236V440H5.86834ZM5.86834 440V432.048H13.8236V440H5.86834ZM16.7119 331.537V323.585H24.6672V331.537H16.7119ZM16.7119 331.537V323.585H24.6672V331.537H16.7119ZM16.7119 331.537V323.585H24.6672V331.537H16.7119ZM16.7119 331.537V323.585H24.6672V331.537H16.7119ZM16.7119 396.617V388.664H24.6672V396.617H16.7119ZM16.7119 396.617V388.664H24.6672V396.617H16.7119ZM16.7119 396.617V388.664H24.6672V396.617H16.7119ZM16.7119 396.617V388.664H24.6672V396.617H16.7119ZM27.5638 331.537V323.585H35.5191V331.537H27.5638ZM27.5638 331.537V323.585H35.5191V331.537H27.5638ZM27.5638 331.537V323.585H35.5191V331.537H27.5638ZM27.5638 331.537V323.585H35.5191V331.537H27.5638ZM27.5638 396.617V388.664H35.5191V396.617H27.5638ZM27.5638 396.617V388.664H35.5191V396.617H27.5638ZM27.5638 396.617V388.664H35.5191V396.617H27.5638ZM27.5638 396.617V388.664H35.5191V396.617H27.5638ZM38.4158 331.537V323.585H46.3711V331.537H38.4158ZM38.4158 331.537V323.585H46.3711V331.537H38.4158ZM38.4158 331.537V323.585H46.3711V331.537H38.4158ZM38.4158 331.537V323.585H46.3711V331.537H38.4158ZM38.4158 396.617V388.664H46.3711V396.617H38.4158ZM38.4158 396.617V388.664H46.3711V396.617H38.4158ZM38.4158 396.617V388.664H46.3711V396.617H38.4158ZM38.4158 396.617V388.664H46.3711V396.617H38.4158ZM49.2677 342.385V334.433H57.223V342.385H49.2677ZM49.2677 342.385V334.433H57.223V342.385H49.2677ZM49.2677 342.385V334.433H57.223V342.385H49.2677ZM49.2677 342.385V334.433H57.223V342.385H49.2677ZM49.2677 353.225V345.273H57.223V353.225H49.2677ZM49.2677 353.225V345.273H57.223V353.225H49.2677ZM49.2677 353.225V345.273H57.223V353.225H49.2677ZM49.2677 353.225V345.273H57.223V353.225H49.2677ZM49.2677 364.081V356.129H57.223V364.081H49.2677ZM49.2677 364.081V356.129H57.223V364.081H49.2677ZM49.2677 364.081V356.129H57.223V364.081H49.2677ZM49.2677 364.081V356.129H57.223V364.081H49.2677ZM49.2677 374.921V366.968H57.223V374.921H49.2677ZM49.2677 374.921V366.968H57.223V374.921H49.2677ZM49.2677 374.921V366.968H57.223V374.921H49.2677ZM49.2677 374.921V366.968H57.223V374.921H49.2677ZM49.2677 385.769V377.816H57.223V385.769H49.2677ZM49.2677 385.769V377.816H57.223V385.769H49.2677ZM49.2677 385.769V377.816H57.223V385.769H49.2677ZM49.2677 385.769V377.816H57.223V385.769H49.2677ZM71.7812 331.537V323.585H79.7365V331.537H71.7812ZM71.7812 331.537V323.585H79.7365V331.537H71.7812ZM71.7812 331.537V323.585H79.7365V331.537H71.7812ZM71.7812 331.537V323.585H79.7365V331.537H71.7812ZM71.7812 342.385V334.433H79.7365V342.385H71.7812ZM71.7812 342.385V334.433H79.7365V342.385H71.7812ZM71.7812 342.385V334.433H79.7365V342.385H71.7812ZM71.7812 342.385V334.433H79.7365V342.385H71.7812ZM71.7812 353.233V345.281H79.7365V353.233H71.7812ZM71.7812 353.233V345.281H79.7365V353.233H71.7812ZM71.7812 353.233V345.281H79.7365V353.233H71.7812ZM71.7812 353.233V345.281H79.7365V353.233H71.7812ZM71.7812 364.073V356.12H79.7365V364.073H71.7812ZM71.7812 364.073V356.12H79.7365V364.073H71.7812ZM71.7812 364.073V356.12H79.7365V364.073H71.7812ZM71.7812 364.073V356.12H79.7365V364.073H71.7812ZM71.7812 374.921V366.968H79.7365V374.921H71.7812ZM71.7812 374.921V366.968H79.7365V374.921H71.7812ZM71.7812 374.921V366.968H79.7365V374.921H71.7812ZM71.7812 374.921V366.968H79.7365V374.921H71.7812ZM71.7812 385.769V377.816H79.7365V385.769H71.7812ZM71.7812 385.769V377.816H79.7365V385.769H71.7812ZM71.7812 385.769V377.816H79.7365V385.769H71.7812ZM71.7812 385.769V377.816H79.7365V385.769H71.7812ZM71.7812 396.617V388.664H79.7365V396.617H71.7812ZM71.7812 396.617V388.664H79.7365V396.617H71.7812ZM71.7812 396.617V388.664H79.7365V396.617H71.7812ZM71.7812 396.617V388.664H79.7365V396.617H71.7812ZM71.7812 407.465V399.512H79.7365V407.465H71.7812ZM71.7812 407.465V399.512H79.7365V407.465H71.7812ZM71.7812 407.465V399.512H79.7365V407.465H71.7812ZM71.7812 407.465V399.512H79.7365V407.465H71.7812ZM71.7812 418.312V410.36H79.7365V418.312H71.7812ZM71.7812 418.312V410.36H79.7365V418.312H71.7812ZM71.7812 418.312V410.36H79.7365V418.312H71.7812ZM71.7812 418.312V410.36H79.7365V418.312H71.7812ZM71.7812 429.16V421.208H79.7365V429.16H71.7812ZM71.7812 429.16V421.208H79.7365V429.16H71.7812ZM71.7812 429.16V421.208H79.7365V429.16H71.7812ZM71.7812 429.16V421.208H79.7365V429.16H71.7812ZM71.7812 440V432.048H79.7365V440H71.7812ZM71.7812 440V432.048H79.7365V440H71.7812ZM71.7812 440V432.048H79.7365V440H71.7812ZM71.7812 440V432.048H79.7365V440H71.7812ZM82.6248 331.537V323.585H90.5801V331.537H82.6248ZM82.6248 331.537V323.585H90.5801V331.537H82.6248ZM82.6248 331.537V323.585H90.5801V331.537H82.6248ZM82.6248 331.537V323.585H90.5801V331.537H82.6248ZM82.6248 385.769V377.816H90.5801V385.769H82.6248ZM82.6248 385.769V377.816H90.5801V385.769H82.6248ZM82.6248 385.769V377.816H90.5801V385.769H82.6248ZM82.6248 385.769V377.816H90.5801V385.769H82.6248ZM82.6248 440V432.048H90.5801V440H82.6248ZM82.6248 440V432.048H90.5801V440H82.6248ZM82.6248 440V432.048H90.5801V440H82.6248ZM82.6248 440V432.048H90.5801V440H82.6248ZM93.4851 331.537V323.585H101.44V331.537H93.4851ZM93.4851 331.537V323.585H101.44V331.537H93.4851ZM93.4851 331.537V323.585H101.44V331.537H93.4851ZM93.4851 331.537V323.585H101.44V331.537H93.4851ZM93.4851 385.769V377.816H101.44V385.769H93.4851ZM93.4851 385.769V377.816H101.44V385.769H93.4851ZM93.4851 385.769V377.816H101.44V385.769H93.4851ZM93.4851 385.769V377.816H101.44V385.769H93.4851ZM93.4851 440V432.048H101.44V440H93.4851ZM93.4851 440V432.048H101.44V440H93.4851ZM93.4851 440V432.048H101.44V440H93.4851ZM93.4851 440V432.048H101.44V440H93.4851ZM104.329 331.537V323.585H112.284V331.537H104.329ZM104.329 331.537V323.585H112.284V331.537H104.329ZM104.329 331.537V323.585H112.284V331.537H104.329ZM104.329 331.537V323.585H112.284V331.537H104.329ZM104.329 385.769V377.816H112.284V385.769H104.329ZM104.329 385.769V377.816H112.284V385.769H104.329ZM104.329 385.769V377.816H112.284V385.769H104.329ZM104.329 385.769V377.816H112.284V385.769H104.329ZM104.329 440V432.048H112.284V440H104.329ZM104.329 440V432.048H112.284V440H104.329ZM104.329 440V432.048H112.284V440H104.329ZM104.329 440V432.048H112.284V440H104.329ZM126.842 342.385V334.433H134.798V342.385H126.842ZM126.842 342.385V334.433H134.798V342.385H126.842ZM126.842 342.385V334.433H134.798V342.385H126.842ZM126.842 342.385V334.433H134.798V342.385H126.842ZM126.842 353.233V345.281H134.798V353.233H126.842ZM126.842 353.233V345.281H134.798V353.233H126.842ZM126.842 353.233V345.281H134.798V353.233H126.842ZM126.842 353.233V345.281H134.798V353.233H126.842ZM126.842 364.073V356.12H134.798V364.073H126.842ZM126.842 364.073V356.12H134.798V364.073H126.842ZM126.842 364.073V356.12H134.798V364.073H126.842ZM126.842 364.073V356.12H134.798V364.073H126.842ZM126.842 374.929V366.977H134.798V374.929H126.842ZM126.842 374.929V366.977H134.798V374.929H126.842ZM126.842 374.929V366.977H134.798V374.929H126.842ZM126.842 374.929V366.977H134.798V374.929H126.842ZM126.842 385.769V377.816H134.798V385.769H126.842ZM126.842 385.769V377.816H134.798V385.769H126.842ZM126.842 385.769V377.816H134.798V385.769H126.842ZM126.842 385.769V377.816H134.798V385.769H126.842ZM126.842 396.617V388.664H134.798V396.617H126.842ZM126.842 396.617V388.664H134.798V396.617H126.842ZM126.842 396.617V388.664H134.798V396.617H126.842ZM126.842 396.617V388.664H134.798V396.617H126.842ZM126.842 407.465V399.512H134.798V407.465H126.842ZM126.842 407.465V399.512H134.798V407.465H126.842ZM126.842 407.465V399.512H134.798V407.465H126.842ZM126.842 407.465V399.512H134.798V407.465H126.842ZM126.842 418.312V410.36H134.798V418.312H126.842ZM126.842 418.312V410.36H134.798V418.312H126.842ZM126.842 418.312V410.36H134.798V418.312H126.842ZM126.842 418.312V410.36H134.798V418.312H126.842ZM126.842 429.16V421.208H134.798V429.16H126.842ZM126.842 429.16V421.208H134.798V429.16H126.842ZM126.842 429.16V421.208H134.798V429.16H126.842ZM126.842 429.16V421.208H134.798V429.16H126.842ZM137.694 331.537V323.585H145.649V331.537H137.694ZM137.694 331.537V323.585H145.649V331.537H137.694ZM137.694 331.537V323.585H145.649V331.537H137.694ZM137.694 331.537V323.585H145.649V331.537H137.694ZM137.694 440V432.048H145.649V440H137.694ZM137.694 440V432.048H145.649V440H137.694ZM137.694 440V432.048H145.649V440H137.694ZM137.694 440V432.048H145.649V440H137.694ZM148.546 331.537V323.585H156.501V331.537H148.546ZM148.546 331.537V323.585H156.501V331.537H148.546ZM148.546 331.537V323.585H156.501V331.537H148.546ZM148.546 331.537V323.585H156.501V331.537H148.546ZM148.546 440V432.048H156.501V440H148.546ZM148.546 440V432.048H156.501V440H148.546ZM148.546 440V432.048H156.501V440H148.546ZM148.546 440V432.048H156.501V440H148.546ZM159.398 331.537V323.585H167.353V331.537H159.398ZM159.398 331.537V323.585H167.353V331.537H159.398ZM159.398 331.537V323.585H167.353V331.537H159.398ZM159.398 331.537V323.585H167.353V331.537H159.398ZM159.398 440V432.048H167.353V440H159.398ZM159.398 440V432.048H167.353V440H159.398ZM159.398 440V432.048H167.353V440H159.398ZM159.398 440V432.048H167.353V440H159.398ZM170.25 342.385V334.433H178.205V342.385H170.25ZM170.25 342.385V334.433H178.205V342.385H170.25ZM170.25 342.385V334.433H178.205V342.385H170.25ZM170.25 342.385V334.433H178.205V342.385H170.25ZM170.25 353.233V345.281H178.205V353.233H170.25ZM170.25 353.233V345.281H178.205V353.233H170.25ZM170.25 353.233V345.281H178.205V353.233H170.25ZM170.25 353.233V345.281H178.205V353.233H170.25ZM170.25 364.073V356.12H178.205V364.073H170.25ZM170.25 364.073V356.12H178.205V364.073H170.25ZM170.25 364.073V356.12H178.205V364.073H170.25ZM170.25 364.073V356.12H178.205V364.073H170.25ZM170.25 374.929V366.977H178.205V374.929H170.25ZM170.25 374.929V366.977H178.205V374.929H170.25ZM170.25 374.929V366.977H178.205V374.929H170.25ZM170.25 374.929V366.977H178.205V374.929H170.25ZM170.25 385.769V377.816H178.205V385.769H170.25ZM170.25 385.769V377.816H178.205V385.769H170.25ZM170.25 385.769V377.816H178.205V385.769H170.25ZM170.25 385.769V377.816H178.205V385.769H170.25ZM170.25 396.617V388.664H178.205V396.617H170.25ZM170.25 396.617V388.664H178.205V396.617H170.25ZM170.25 396.617V388.664H178.205V396.617H170.25ZM170.25 396.617V388.664H178.205V396.617H170.25ZM170.25 407.465V399.512H178.205V407.465H170.25ZM170.25 407.465V399.512H178.205V407.465H170.25ZM170.25 407.465V399.512H178.205V407.465H170.25ZM170.25 407.465V399.512H178.205V407.465H170.25ZM170.25 418.312V410.36H178.205V418.312H170.25ZM170.25 418.312V410.36H178.205V418.312H170.25ZM170.25 418.312V410.36H178.205V418.312H170.25ZM170.25 418.312V410.36H178.205V418.312H170.25ZM170.25 429.16V421.208H178.205V429.16H170.25ZM170.25 429.16V421.208H178.205V429.16H170.25ZM170.25 429.16V421.208H178.205V429.16H170.25ZM170.25 429.16V421.208H178.205V429.16H170.25ZM198.189 331.537V323.585H206.145V331.537H198.189ZM198.189 331.537V323.585H206.145V331.537H198.189ZM198.189 331.537V323.585H206.145V331.537H198.189ZM198.189 331.537V323.585H206.145V331.537H198.189ZM198.189 342.385V334.433H206.145V342.385H198.189ZM198.189 342.385V334.433H206.145V342.385H198.189ZM198.189 342.385V334.433H206.145V342.385H198.189ZM198.189 342.385V334.433H206.145V342.385H198.189ZM198.189 353.225V345.273H206.145V353.225H198.189ZM198.189 353.225V345.273H206.145V353.225H198.189ZM198.189 353.225V345.273H206.145V353.225H198.189ZM198.189 353.225V345.273H206.145V353.225H198.189ZM198.189 364.081V356.129H206.145V364.081H198.189ZM198.189 364.081V356.129H206.145V364.081H198.189ZM198.189 364.081V356.129H206.145V364.081H198.189ZM198.189 364.081V356.129H206.145V364.081H198.189ZM198.189 374.921V366.968H206.145V374.921H198.189ZM198.189 374.921V366.968H206.145V374.921H198.189ZM198.189 374.921V366.968H206.145V374.921H198.189ZM198.189 374.921V366.968H206.145V374.921H198.189ZM198.189 385.769V377.816H206.145V385.769H198.189ZM198.189 385.769V377.816H206.145V385.769H198.189ZM198.189 385.769V377.816H206.145V385.769H198.189ZM198.189 385.769V377.816H206.145V385.769H198.189ZM198.189 396.617V388.664H206.145V396.617H198.189ZM198.189 396.617V388.664H206.145V396.617H198.189ZM198.189 396.617V388.664H206.145V396.617H198.189ZM198.189 396.617V388.664H206.145V396.617H198.189ZM198.189 407.465V399.512H206.145V407.465H198.189ZM198.189 407.465V399.512H206.145V407.465H198.189ZM198.189 407.465V399.512H206.145V407.465H198.189ZM198.189 407.465V399.512H206.145V407.465H198.189ZM198.189 418.312V410.36H206.145V418.312H198.189ZM198.189 418.312V410.36H206.145V418.312H198.189ZM198.189 418.312V410.36H206.145V418.312H198.189ZM198.189 418.312V410.36H206.145V418.312H198.189ZM198.189 429.152V421.2H206.145V429.152H198.189ZM198.189 429.152V421.2H206.145V429.152H198.189ZM198.189 429.152V421.2H206.145V429.152H198.189ZM198.189 429.152V421.2H206.145V429.152H198.189ZM198.189 440V432.048H206.145V440H198.189ZM198.189 440V432.048H206.145V440H198.189ZM198.189 440V432.048H206.145V440H198.189ZM198.189 440V432.048H206.145V440H198.189ZM209.033 331.537V323.585H216.988V331.537H209.033ZM209.033 331.537V323.585H216.988V331.537H209.033ZM209.033 331.537V323.585H216.988V331.537H209.033ZM209.033 331.537V323.585H216.988V331.537H209.033ZM209.033 396.617V388.664H216.988V396.617H209.033ZM209.033 396.617V388.664H216.988V396.617H209.033ZM209.033 396.617V388.664H216.988V396.617H209.033ZM209.033 396.617V388.664H216.988V396.617H209.033ZM219.885 331.537V323.585H227.84V331.537H219.885ZM219.885 331.537V323.585H227.84V331.537H219.885ZM219.885 331.537V323.585H227.84V331.537H219.885ZM219.885 331.537V323.585H227.84V331.537H219.885ZM219.885 396.617V388.664H227.84V396.617H219.885ZM219.885 396.617V388.664H227.84V396.617H219.885ZM219.885 396.617V388.664H227.84V396.617H219.885ZM219.885 396.617V388.664H227.84V396.617H219.885ZM230.737 331.537V323.585H238.692V331.537H230.737ZM230.737 331.537V323.585H238.692V331.537H230.737ZM230.737 331.537V323.585H238.692V331.537H230.737ZM230.737 331.537V323.585H238.692V331.537H230.737ZM230.737 396.617V388.664H238.692V396.617H230.737ZM230.737 396.617V388.664H238.692V396.617H230.737ZM230.737 396.617V388.664H238.692V396.617H230.737ZM230.737 396.617V388.664H238.692V396.617H230.737ZM241.589 342.385V334.433H249.544V342.385H241.589ZM241.589 342.385V334.433H249.544V342.385H241.589ZM241.589 342.385V334.433H249.544V342.385H241.589ZM241.589 342.385V334.433H249.544V342.385H241.589ZM241.589 353.225V345.273H249.544V353.225H241.589ZM241.589 353.225V345.273H249.544V353.225H241.589ZM241.589 353.225V345.273H249.544V353.225H241.589ZM241.589 353.225V345.273H249.544V353.225H241.589ZM241.589 364.081V356.129H249.544V364.081H241.589ZM241.589 364.081V356.129H249.544V364.081H241.589ZM241.589 364.081V356.129H249.544V364.081H241.589ZM241.589 364.081V356.129H249.544V364.081H241.589ZM241.589 374.921V366.968H249.544V374.921H241.589ZM241.589 374.921V366.968H249.544V374.921H241.589ZM241.589 374.921V366.968H249.544V374.921H241.589ZM241.589 374.921V366.968H249.544V374.921H241.589ZM241.589 385.769V377.816H249.544V385.769H241.589ZM241.589 385.769V377.816H249.544V385.769H241.589ZM241.589 385.769V377.816H249.544V385.769H241.589ZM241.589 385.769V377.816H249.544V385.769H241.589ZM264.102 331.537V323.585H272.058V331.537H264.102ZM264.102 331.537V323.585H272.058V331.537H264.102ZM264.102 331.537V323.585H272.058V331.537H264.102ZM264.102 331.537V323.585H272.058V331.537H264.102ZM264.102 342.385V334.433H272.058V342.385H264.102ZM264.102 342.385V334.433H272.058V342.385H264.102ZM264.102 342.385V334.433H272.058V342.385H264.102ZM264.102 342.385V334.433H272.058V342.385H264.102ZM264.102 353.233V345.281H272.058V353.233H264.102ZM264.102 353.233V345.281H272.058V353.233H264.102ZM264.102 353.233V345.281H272.058V353.233H264.102ZM264.102 353.233V345.281H272.058V353.233H264.102ZM264.102 364.073V356.12H272.058V364.073H264.102ZM264.102 364.073V356.12H272.058V364.073H264.102ZM264.102 364.073V356.12H272.058V364.073H264.102ZM264.102 364.073V356.12H272.058V364.073H264.102ZM264.102 374.921V366.968H272.058V374.921H264.102ZM264.102 374.921V366.968H272.058V374.921H264.102ZM264.102 374.921V366.968H272.058V374.921H264.102ZM264.102 374.921V366.968H272.058V374.921H264.102ZM264.102 385.769V377.816H272.058V385.769H264.102ZM264.102 385.769V377.816H272.058V385.769H264.102ZM264.102 385.769V377.816H272.058V385.769H264.102ZM264.102 385.769V377.816H272.058V385.769H264.102ZM264.102 396.617V388.664H272.058V396.617H264.102ZM264.102 396.617V388.664H272.058V396.617H264.102ZM264.102 396.617V388.664H272.058V396.617H264.102ZM264.102 396.617V388.664H272.058V396.617H264.102ZM264.102 407.465V399.512H272.058V407.465H264.102ZM264.102 407.465V399.512H272.058V407.465H264.102ZM264.102 407.465V399.512H272.058V407.465H264.102ZM264.102 407.465V399.512H272.058V407.465H264.102ZM264.102 418.312V410.36H272.058V418.312H264.102ZM264.102 418.312V410.36H272.058V418.312H264.102ZM264.102 418.312V410.36H272.058V418.312H264.102ZM264.102 418.312V410.36H272.058V418.312H264.102ZM264.102 429.16V421.208H272.058V429.16H264.102ZM264.102 429.16V421.208H272.058V429.16H264.102ZM264.102 429.16V421.208H272.058V429.16H264.102ZM264.102 429.16V421.208H272.058V429.16H264.102ZM264.102 440V432.048H272.058V440H264.102ZM264.102 440V432.048H272.058V440H264.102ZM264.102 440V432.048H272.058V440H264.102ZM264.102 440V432.048H272.058V440H264.102ZM274.946 440V432.048H282.901V440H274.946ZM274.946 440V432.048H282.901V440H274.946ZM274.946 440V432.048H282.901V440H274.946ZM274.946 440V432.048H282.901V440H274.946ZM285.806 440V432.048H293.761V440H285.806ZM285.806 440V432.048H293.761V440H285.806ZM285.806 440V432.048H293.761V440H285.806ZM285.806 440V432.048H293.761V440H285.806ZM296.65 440V432.048H304.605V440H296.65ZM296.65 440V432.048H304.605V440H296.65ZM296.65 440V432.048H304.605V440H296.65ZM296.65 440V432.048H304.605V440H296.65ZM319.163 331.537V323.585H327.119V331.537H319.163ZM319.163 331.537V323.585H327.119V331.537H319.163ZM319.163 331.537V323.585H327.119V331.537H319.163ZM319.163 331.537V323.585H327.119V331.537H319.163ZM319.163 342.385V334.433H327.119V342.385H319.163ZM319.163 342.385V334.433H327.119V342.385H319.163ZM319.163 342.385V334.433H327.119V342.385H319.163ZM319.163 342.385V334.433H327.119V342.385H319.163ZM319.163 353.233V345.281H327.119V353.233H319.163ZM319.163 353.233V345.281H327.119V353.233H319.163ZM319.163 353.233V345.281H327.119V353.233H319.163ZM319.163 353.233V345.281H327.119V353.233H319.163ZM319.163 364.073V356.12H327.119V364.073H319.163ZM319.163 364.073V356.12H327.119V364.073H319.163ZM319.163 364.073V356.12H327.119V364.073H319.163ZM319.163 364.073V356.12H327.119V364.073H319.163ZM319.163 374.921V366.968H327.119V374.921H319.163ZM319.163 374.921V366.968H327.119V374.921H319.163ZM319.163 374.921V366.968H327.119V374.921H319.163ZM319.163 374.921V366.968H327.119V374.921H319.163ZM319.163 385.769V377.816H327.119V385.769H319.163ZM319.163 385.769V377.816H327.119V385.769H319.163ZM319.163 385.769V377.816H327.119V385.769H319.163ZM319.163 385.769V377.816H327.119V385.769H319.163ZM319.163 396.617V388.664H327.119V396.617H319.163ZM319.163 396.617V388.664H327.119V396.617H319.163ZM319.163 396.617V388.664H327.119V396.617H319.163ZM319.163 396.617V388.664H327.119V396.617H319.163ZM319.163 407.465V399.512H327.119V407.465H319.163ZM319.163 407.465V399.512H327.119V407.465H319.163ZM319.163 407.465V399.512H327.119V407.465H319.163ZM319.163 407.465V399.512H327.119V407.465H319.163ZM319.163 418.312V410.36H327.119V418.312H319.163ZM319.163 418.312V410.36H327.119V418.312H319.163ZM319.163 418.312V410.36H327.119V418.312H319.163ZM319.163 418.312V410.36H327.119V418.312H319.163ZM319.163 429.16V421.208H327.119V429.16H319.163ZM319.163 429.16V421.208H327.119V429.16H319.163ZM319.163 429.16V421.208H327.119V429.16H319.163ZM319.163 429.16V421.208H327.119V429.16H319.163ZM319.163 440V432.048H327.119V440H319.163ZM319.163 440V432.048H327.119V440H319.163ZM319.163 440V432.048H327.119V440H319.163ZM319.163 440V432.048H327.119V440H319.163ZM330.015 331.537V323.585H337.971V331.537H330.015ZM330.015 331.537V323.585H337.971V331.537H330.015ZM330.015 331.537V323.585H337.971V331.537H330.015ZM330.015 331.537V323.585H337.971V331.537H330.015ZM330.015 385.769V377.816H337.971V385.769H330.015ZM330.015 385.769V377.816H337.971V385.769H330.015ZM330.015 385.769V377.816H337.971V385.769H330.015ZM330.015 385.769V377.816H337.971V385.769H330.015ZM330.015 440V432.048H337.971V440H330.015ZM330.015 440V432.048H337.971V440H330.015ZM330.015 440V432.048H337.971V440H330.015ZM330.015 440V432.048H337.971V440H330.015ZM340.867 331.537V323.585H348.822V331.537H340.867ZM340.867 331.537V323.585H348.822V331.537H340.867ZM340.867 331.537V323.585H348.822V331.537H340.867ZM340.867 331.537V323.585H348.822V331.537H340.867ZM340.867 385.769V377.816H348.822V385.769H340.867ZM340.867 385.769V377.816H348.822V385.769H340.867ZM340.867 385.769V377.816H348.822V385.769H340.867ZM340.867 385.769V377.816H348.822V385.769H340.867ZM340.867 440V432.048H348.822V440H340.867ZM340.867 440V432.048H348.822V440H340.867ZM340.867 440V432.048H348.822V440H340.867ZM340.867 440V432.048H348.822V440H340.867ZM351.719 331.537V323.585H359.674V331.537H351.719ZM351.719 331.537V323.585H359.674V331.537H351.719ZM351.719 331.537V323.585H359.674V331.537H351.719ZM351.719 331.537V323.585H359.674V331.537H351.719ZM351.719 385.769V377.816H359.674V385.769H351.719ZM351.719 385.769V377.816H359.674V385.769H351.719ZM351.719 385.769V377.816H359.674V385.769H351.719ZM351.719 385.769V377.816H359.674V385.769H351.719ZM351.719 440V432.048H359.674V440H351.719ZM351.719 440V432.048H359.674V440H351.719ZM351.719 440V432.048H359.674V440H351.719ZM351.719 440V432.048H359.674V440H351.719Z" fill="#ABBCCF"/>
<path d="M183.623 0H267.809V62.5257C267.809 92.7497 260.646 116.306 246.322 133.204C231.997 150.094 210.302 161.208 183.623 166.541V135.724C203.974 129.8 218.7 118.726 225.419 102.538C229.176 93.8429 230.653 85.6485 229.869 77.9381H183.623V0ZM175.617 0H91.4316V62.5257C91.4316 92.7497 98.5939 116.306 112.918 133.204C127.243 150.094 148.938 161.208 175.617 166.541V135.724C155.266 129.8 140.541 118.726 133.821 102.538C130.064 93.8429 128.587 85.6485 129.372 77.9381H175.617V0ZM275.814 77.9381H322.06C322.853 85.6402 321.376 93.8345 317.611 102.538C310.891 118.735 296.166 129.8 275.814 135.724V166.541C302.493 161.208 324.18 150.094 338.513 133.204C352.846 116.315 360 92.7581 360 62.5257V0H275.814V77.9381ZM84.1859 0H0V62.5257C0 92.7497 7.16227 116.306 21.4868 133.204C35.8113 150.094 57.5068 161.208 84.1859 166.541V135.724C63.8343 129.8 49.1091 118.726 42.3893 102.538C38.6328 93.8429 37.1553 85.6485 37.94 77.9381H84.1859V0Z" fill="#E62B1E"/>
</svg>