<?xml version="1.0" encoding="UTF-8"?><svg id="Layer_2" xmlns="http://www.w3.org/2000/svg" viewBox="0 0 750.92 115.57"><defs><style>.cls-1{fill:#243345;}</style></defs><g id="Layer_1-2"><path class="cls-1" d="M138.82,31.52v-4.88h4.88v4.88h-4.88ZM138.82,31.52v-4.88h4.88v4.88h-4.88ZM138.82,31.52v-4.88h4.88v4.88h-4.88ZM138.82,31.52v-4.88h4.88v4.88h-4.88ZM138.82,38.17v-4.88h4.88v4.88h-4.88ZM138.82,38.17v-4.88h4.88v4.88h-4.88ZM138.82,38.17v-4.88h4.88v4.88h-4.88ZM138.82,38.17v-4.88h4.88v4.88h-4.88ZM138.82,44.83v-4.88h4.88v4.88h-4.88ZM138.82,44.83v-4.88h4.88v4.88h-4.88ZM138.82,44.83v-4.88h4.88v4.88h-4.88ZM138.82,44.83v-4.88h4.88v4.88h-4.88ZM138.82,51.48v-4.88h4.88v4.88h-4.88ZM138.82,51.48v-4.88h4.88v4.88h-4.88ZM138.82,51.48v-4.88h4.88v4.88h-4.88ZM138.82,51.48v-4.88h4.88v4.88h-4.88ZM138.82,58.13v-4.88h4.88v4.88h-4.88ZM138.82,58.13v-4.88h4.88v4.88h-4.88ZM138.82,58.13v-4.88h4.88v4.88h-4.88ZM138.82,58.13v-4.88h4.88v4.88h-4.88ZM138.82,64.79v-4.88h4.88v4.88h-4.88ZM138.82,64.79v-4.88h4.88v4.88h-4.88ZM138.82,64.79v-4.88h4.88v4.88h-4.88ZM138.82,64.79v-4.88h4.88v4.88h-4.88ZM138.82,71.44v-4.88h4.88v4.88h-4.88ZM138.82,71.44v-4.88h4.88v4.88h-4.88ZM138.82,71.44v-4.88h4.88v4.88h-4.88ZM138.82,71.44v-4.88h4.88v4.88h-4.88ZM142.14,78.09v-4.88h4.88v4.88h-4.88ZM142.14,78.09v-4.88h4.88v4.88h-4.88ZM142.14,78.09v-4.88h4.88v4.88h-4.88ZM142.14,78.09v-4.88h4.88v4.88h-4.88ZM145.48,84.74v-4.88h4.88v4.88h-4.88ZM145.48,84.74v-4.88h4.88v4.88h-4.88ZM145.48,84.74v-4.88h4.88v4.88h-4.88ZM145.48,84.74v-4.88h4.88v4.88h-4.88ZM148.8,91.4v-4.88h4.88v4.88h-4.88ZM148.8,91.4v-4.88h4.88v4.88h-4.88ZM148.8,91.4v-4.88h4.88v4.88h-4.88ZM148.8,91.4v-4.88h4.88v4.88h-4.88ZM152.13,98.05v-4.88h4.88v4.88h-4.88ZM152.13,98.05v-4.88h4.88v4.88h-4.88ZM152.13,98.05v-4.88h4.88v4.88h-4.88ZM152.13,98.05v-4.88h4.88v4.88h-4.88ZM155.45,91.4v-4.88h4.88v4.88h-4.88ZM155.45,91.4v-4.88h4.88v4.88h-4.88ZM155.45,91.4v-4.88h4.88v4.88h-4.88ZM155.45,91.4v-4.88h4.88v4.88h-4.88ZM158.78,84.74v-4.88h4.88v4.88h-4.88ZM158.78,84.74v-4.88h4.88v4.88h-4.88ZM158.78,84.74v-4.88h4.88v4.88h-4.88ZM158.78,84.74v-4.88h4.88v4.88h-4.88ZM162.11,78.09v-4.88h4.88v4.88h-4.88ZM162.11,78.09v-4.88h4.88v4.88h-4.88ZM162.11,78.09v-4.88h4.88v4.88h-4.88ZM162.11,78.09v-4.88h4.88v4.88h-4.88ZM165.44,31.52v-4.88h4.88v4.88h-4.88ZM165.44,31.52v-4.88h4.88v4.88h-4.88ZM165.44,31.52v-4.88h4.88v4.88h-4.88ZM165.44,31.52v-4.88h4.88v4.88h-4.88ZM165.44,38.17v-4.88h4.88v4.88h-4.88ZM165.44,38.17v-4.88h4.88v4.88h-4.88ZM165.44,38.17v-4.88h4.88v4.88h-4.88ZM165.44,38.17v-4.88h4.88v4.88h-4.88ZM165.44,44.83v-4.88h4.88v4.88h-4.88ZM165.44,44.83v-4.88h4.88v4.88h-4.88ZM165.44,44.83v-4.88h4.88v4.88h-4.88ZM165.44,44.83v-4.88h4.88v4.88h-4.88ZM165.44,51.48v-4.88h4.88v4.88h-4.88ZM165.44,51.48v-4.88h4.88v4.88h-4.88ZM165.44,51.48v-4.88h4.88v4.88h-4.88ZM165.44,51.48v-4.88h4.88v4.88h-4.88ZM165.44,58.13v-4.88h4.88v4.88h-4.88ZM165.44,58.13v-4.88h4.88v4.88h-4.88ZM165.44,58.13v-4.88h4.88v4.88h-4.88ZM165.44,58.13v-4.88h4.88v4.88h-4.88ZM165.44,64.79v-4.88h4.88v4.88h-4.88ZM165.44,64.79v-4.88h4.88v4.88h-4.88ZM165.44,64.79v-4.88h4.88v4.88h-4.88ZM165.44,64.79v-4.88h4.88v4.88h-4.88ZM165.44,71.44v-4.88h4.88v4.88h-4.88ZM165.44,71.44v-4.88h4.88v4.88h-4.88ZM165.44,71.44v-4.88h4.88v4.88h-4.88ZM165.44,71.44v-4.88h4.88v4.88h-4.88ZM168.76,78.09v-4.88h4.88v4.88h-4.88ZM168.76,78.09v-4.88h4.88v4.88h-4.88ZM168.76,78.09v-4.88h4.88v4.88h-4.88ZM168.76,78.09v-4.88h4.88v4.88h-4.88ZM172.09,84.74v-4.88h4.88v4.88h-4.88ZM172.09,84.74v-4.88h4.88v4.88h-4.88ZM172.09,84.74v-4.88h4.88v4.88h-4.88ZM172.09,84.74v-4.88h4.88v4.88h-4.88ZM175.41,91.4v-4.88h4.88v4.88h-4.88ZM175.41,91.4v-4.88h4.88v4.88h-4.88ZM175.41,91.4v-4.88h4.88v4.88h-4.88ZM175.41,91.4v-4.88h4.88v4.88h-4.88ZM178.74,98.05v-4.88h4.88v4.88h-4.88ZM178.74,98.05v-4.88h4.88v4.88h-4.88ZM178.74,98.05v-4.88h4.88v4.88h-4.88ZM178.74,98.05v-4.88h4.88v4.88h-4.88ZM182.07,91.4v-4.88h4.88v4.88h-4.88ZM182.07,91.4v-4.88h4.88v4.88h-4.88ZM182.07,91.4v-4.88h4.88v4.88h-4.88ZM182.07,91.4v-4.88h4.88v4.88h-4.88ZM185.39,84.74v-4.88h4.88v4.88h-4.88ZM185.39,84.74v-4.88h4.88v4.88h-4.88ZM185.39,84.74v-4.88h4.88v4.88h-4.88ZM185.39,84.74v-4.88h4.88v4.88h-4.88ZM188.72,78.09v-4.88h4.88v4.88h-4.88ZM188.72,78.09v-4.88h4.88v4.88h-4.88ZM188.72,78.09v-4.88h4.88v4.88h-4.88ZM188.72,78.09v-4.88h4.88v4.88h-4.88ZM192.05,31.52v-4.88h4.88v4.88h-4.88ZM192.05,31.52v-4.88h4.88v4.88h-4.88ZM192.05,31.52v-4.88h4.88v4.88h-4.88ZM192.05,31.52v-4.88h4.88v4.88h-4.88ZM192.05,38.17v-4.88h4.88v4.88h-4.88ZM192.05,38.17v-4.88h4.88v4.88h-4.88ZM192.05,38.17v-4.88h4.88v4.88h-4.88ZM192.05,38.17v-4.88h4.88v4.88h-4.88ZM192.05,44.83v-4.88h4.88v4.88h-4.88ZM192.05,44.83v-4.88h4.88v4.88h-4.88ZM192.05,44.83v-4.88h4.88v4.88h-4.88ZM192.05,44.83v-4.88h4.88v4.88h-4.88ZM192.05,51.48v-4.88h4.88v4.88h-4.88ZM192.05,51.48v-4.88h4.88v4.88h-4.88ZM192.05,51.48v-4.88h4.88v4.88h-4.88ZM192.05,51.48v-4.88h4.88v4.88h-4.88ZM192.05,58.13v-4.88h4.88v4.88h-4.88ZM192.05,58.13v-4.88h4.88v4.88h-4.88ZM192.05,58.13v-4.88h4.88v4.88h-4.88ZM192.05,58.13v-4.88h4.88v4.88h-4.88ZM192.05,64.79v-4.88h4.88v4.88h-4.88ZM192.05,64.79v-4.88h4.88v4.88h-4.88ZM192.05,64.79v-4.88h4.88v4.88h-4.88ZM192.05,64.79v-4.88h4.88v4.88h-4.88ZM192.05,71.44v-4.88h4.88v4.88h-4.88ZM192.05,71.44v-4.88h4.88v4.88h-4.88ZM192.05,71.44v-4.88h4.88v4.88h-4.88ZM192.05,71.44v-4.88h4.88v4.88h-4.88ZM205.85,58.13v-4.88h4.88v4.88h-4.88ZM205.85,58.13v-4.88h4.88v4.88h-4.88ZM205.85,58.13v-4.88h4.88v4.88h-4.88ZM205.85,58.13v-4.88h4.88v4.88h-4.88ZM205.85,64.79v-4.88h4.88v4.88h-4.88ZM205.85,64.79v-4.88h4.88v4.88h-4.88ZM205.85,64.79v-4.88h4.88v4.88h-4.88ZM205.85,64.79v-4.88h4.88v4.88h-4.88ZM205.85,71.44v-4.88h4.88v4.88h-4.88ZM205.85,71.44v-4.88h4.88v4.88h-4.88ZM205.85,71.44v-4.88h4.88v4.88h-4.88ZM205.85,71.44v-4.88h4.88v4.88h-4.88ZM205.85,78.09v-4.88h4.88v4.88h-4.88ZM205.85,78.09v-4.88h4.88v4.88h-4.88ZM205.85,78.09v-4.88h4.88v4.88h-4.88ZM205.85,78.09v-4.88h4.88v4.88h-4.88ZM205.85,84.75v-4.88h4.88v4.88h-4.88ZM205.85,84.75v-4.88h4.88v4.88h-4.88ZM205.85,84.75v-4.88h4.88v4.88h-4.88ZM205.85,84.75v-4.88h4.88v4.88h-4.88ZM205.85,91.4v-4.88h4.88v4.88h-4.88ZM205.85,91.4v-4.88h4.88v4.88h-4.88ZM205.85,91.4v-4.88h4.88v4.88h-4.88ZM205.85,91.4v-4.88h4.88v4.88h-4.88ZM212.51,51.48v-4.88h4.88v4.88h-4.88ZM212.51,51.48v-4.88h4.88v4.88h-4.88ZM212.51,51.48v-4.88h4.88v4.88h-4.88ZM212.51,51.48v-4.88h4.88v4.88h-4.88ZM212.51,71.44v-4.88h4.88v4.88h-4.88ZM212.51,71.44v-4.88h4.88v4.88h-4.88ZM212.51,71.44v-4.88h4.88v4.88h-4.88ZM212.51,71.44v-4.88h4.88v4.88h-4.88ZM212.51,98.05v-4.88h4.88v4.88h-4.88ZM212.51,98.05v-4.88h4.88v4.88h-4.88ZM212.51,98.05v-4.88h4.88v4.88h-4.88ZM212.51,98.05v-4.88h4.88v4.88h-4.88ZM219.16,51.48v-4.88h4.88v4.88h-4.88ZM219.16,51.48v-4.88h4.88v4.88h-4.88ZM219.16,51.48v-4.88h4.88v4.88h-4.88ZM219.16,51.48v-4.88h4.88v4.88h-4.88ZM219.16,71.44v-4.88h4.88v4.88h-4.88ZM219.16,71.44v-4.88h4.88v4.88h-4.88ZM219.16,71.44v-4.88h4.88v4.88h-4.88ZM219.16,71.44v-4.88h4.88v4.88h-4.88ZM219.16,98.05v-4.88h4.88v4.88h-4.88ZM219.16,98.05v-4.88h4.88v4.88h-4.88ZM219.16,98.05v-4.88h4.88v4.88h-4.88ZM219.16,98.05v-4.88h4.88v4.88h-4.88ZM225.81,51.48v-4.88h4.88v4.88h-4.88ZM225.81,51.48v-4.88h4.88v4.88h-4.88ZM225.81,51.48v-4.88h4.88v4.88h-4.88ZM225.81,51.48v-4.88h4.88v4.88h-4.88ZM225.81,71.44v-4.88h4.88v4.88h-4.88ZM225.81,71.44v-4.88h4.88v4.88h-4.88ZM225.81,71.44v-4.88h4.88v4.88h-4.88ZM225.81,71.44v-4.88h4.88v4.88h-4.88ZM225.81,98.05v-4.88h4.88v4.88h-4.88ZM225.81,98.05v-4.88h4.88v4.88h-4.88ZM225.81,98.05v-4.88h4.88v4.88h-4.88ZM225.81,98.05v-4.88h4.88v4.88h-4.88ZM232.47,58.13v-4.88h4.88v4.88h-4.88ZM232.47,58.13v-4.88h4.88v4.88h-4.88ZM232.47,58.13v-4.88h4.88v4.88h-4.88ZM232.47,58.13v-4.88h4.88v4.88h-4.88ZM232.47,64.79v-4.88h4.88v4.88h-4.88ZM232.47,64.79v-4.88h4.88v4.88h-4.88ZM232.47,64.79v-4.88h4.88v4.88h-4.88ZM232.47,64.79v-4.88h4.88v4.88h-4.88ZM232.47,71.44v-4.88h4.88v4.88h-4.88ZM232.47,71.44v-4.88h4.88v4.88h-4.88ZM232.47,71.44v-4.88h4.88v4.88h-4.88ZM232.47,71.44v-4.88h4.88v4.88h-4.88ZM232.47,91.4v-4.88h4.88v4.88h-4.88ZM232.47,91.4v-4.88h4.88v4.88h-4.88ZM232.47,91.4v-4.88h4.88v4.88h-4.88ZM232.47,91.4v-4.88h4.88v4.88h-4.88ZM256.75,31.52v-4.88h4.88v4.88h-4.88ZM256.75,31.52v-4.88h4.88v4.88h-4.88ZM256.75,31.52v-4.88h4.88v4.88h-4.88ZM256.75,31.52v-4.88h4.88v4.88h-4.88ZM263.4,31.52v-4.88h4.88v4.88h-4.88ZM263.4,31.52v-4.88h4.88v4.88h-4.88ZM263.4,31.52v-4.88h4.88v4.88h-4.88ZM263.4,31.52v-4.88h4.88v4.88h-4.88ZM270.06,31.52v-4.88h4.88v4.88h-4.88ZM270.06,31.52v-4.88h4.88v4.88h-4.88ZM270.06,31.52v-4.88h4.88v4.88h-4.88ZM270.06,31.52v-4.88h4.88v4.88h-4.88ZM270.06,38.17v-4.88h4.88v4.88h-4.88ZM270.06,38.17v-4.88h4.88v4.88h-4.88ZM270.06,38.17v-4.88h4.88v4.88h-4.88ZM270.06,38.17v-4.88h4.88v4.88h-4.88ZM270.06,44.82v-4.88h4.88v4.88h-4.88ZM270.06,44.82v-4.88h4.88v4.88h-4.88ZM270.06,44.82v-4.88h4.88v4.88h-4.88ZM270.06,44.82v-4.88h4.88v4.88h-4.88ZM270.06,51.48v-4.88h4.88v4.88h-4.88ZM270.06,51.48v-4.88h4.88v4.88h-4.88ZM270.06,51.48v-4.88h4.88v4.88h-4.88ZM270.06,51.48v-4.88h4.88v4.88h-4.88ZM270.06,58.13v-4.88h4.88v4.88h-4.88ZM270.06,58.13v-4.88h4.88v4.88h-4.88ZM270.06,58.13v-4.88h4.88v4.88h-4.88ZM270.06,58.13v-4.88h4.88v4.88h-4.88ZM270.06,64.79v-4.88h4.88v4.88h-4.88ZM270.06,64.79v-4.88h4.88v4.88h-4.88ZM270.06,64.79v-4.88h4.88v4.88h-4.88ZM270.06,64.79v-4.88h4.88v4.88h-4.88ZM270.06,71.43v-4.88h4.88v4.88h-4.88ZM270.06,71.43v-4.88h4.88v4.88h-4.88ZM270.06,71.43v-4.88h4.88v4.88h-4.88ZM270.06,71.43v-4.88h4.88v4.88h-4.88ZM270.06,78.09v-4.88h4.88v4.88h-4.88ZM270.06,78.09v-4.88h4.88v4.88h-4.88ZM270.06,78.09v-4.88h4.88v4.88h-4.88ZM270.06,78.09v-4.88h4.88v4.88h-4.88ZM270.06,84.74v-4.88h4.88v4.88h-4.88ZM270.06,84.74v-4.88h4.88v4.88h-4.88ZM270.06,84.74v-4.88h4.88v4.88h-4.88ZM270.06,84.74v-4.88h4.88v4.88h-4.88ZM270.06,91.4v-4.88h4.88v4.88h-4.88ZM270.06,91.4v-4.88h4.88v4.88h-4.88ZM270.06,91.4v-4.88h4.88v4.88h-4.88ZM270.06,91.4v-4.88h4.88v4.88h-4.88ZM270.06,98.05v-4.88h4.88v4.88h-4.88ZM270.06,98.05v-4.88h4.88v4.88h-4.88ZM270.06,98.05v-4.88h4.88v4.88h-4.88ZM270.06,98.05v-4.88h4.88v4.88h-4.88ZM276.71,31.52v-4.88h4.88v4.88h-4.88ZM276.71,31.52v-4.88h4.88v4.88h-4.88ZM276.71,31.52v-4.88h4.88v4.88h-4.88ZM276.71,31.52v-4.88h4.88v4.88h-4.88ZM283.37,31.52v-4.88h4.88v4.88h-4.88ZM283.37,31.52v-4.88h4.88v4.88h-4.88ZM283.37,31.52v-4.88h4.88v4.88h-4.88ZM283.37,31.52v-4.88h4.88v4.88h-4.88ZM293.84,24.86v-4.88h4.88v4.88h-4.88ZM293.84,24.86v-4.88h4.88v4.88h-4.88ZM293.84,24.86v-4.88h4.88v4.88h-4.88ZM293.84,24.86v-4.88h4.88v4.88h-4.88ZM293.84,31.52v-4.88h4.88v4.88h-4.88ZM293.84,31.52v-4.88h4.88v4.88h-4.88ZM293.84,31.52v-4.88h4.88v4.88h-4.88ZM293.84,31.52v-4.88h4.88v4.88h-4.88ZM293.84,38.17v-4.88h4.88v4.88h-4.88ZM293.84,38.17v-4.88h4.88v4.88h-4.88ZM293.84,38.17v-4.88h4.88v4.88h-4.88ZM293.84,38.17v-4.88h4.88v4.88h-4.88ZM293.84,44.83v-4.88h4.88v4.88h-4.88ZM293.84,44.83v-4.88h4.88v4.88h-4.88ZM293.84,44.83v-4.88h4.88v4.88h-4.88ZM293.84,44.83v-4.88h4.88v4.88h-4.88ZM293.84,51.48v-4.88h4.88v4.88h-4.88ZM293.84,51.48v-4.88h4.88v4.88h-4.88ZM293.84,51.48v-4.88h4.88v4.88h-4.88ZM293.84,51.48v-4.88h4.88v4.88h-4.88ZM293.84,58.13v-4.88h4.88v4.88h-4.88ZM293.84,58.13v-4.88h4.88v4.88h-4.88ZM293.84,58.13v-4.88h4.88v4.88h-4.88ZM293.84,58.13v-4.88h4.88v4.88h-4.88ZM293.84,64.78v-4.88h4.88v4.88h-4.88ZM293.84,64.78v-4.88h4.88v4.88h-4.88ZM293.84,64.78v-4.88h4.88v4.88h-4.88ZM293.84,64.78v-4.88h4.88v4.88h-4.88ZM293.84,71.44v-4.88h4.88v4.88h-4.88ZM293.84,71.44v-4.88h4.88v4.88h-4.88ZM293.84,71.44v-4.88h4.88v4.88h-4.88ZM293.84,71.44v-4.88h4.88v4.88h-4.88ZM293.84,78.09v-4.88h4.88v4.88h-4.88ZM293.84,78.09v-4.88h4.88v4.88h-4.88ZM293.84,78.09v-4.88h4.88v4.88h-4.88ZM293.84,78.09v-4.88h4.88v4.88h-4.88ZM293.84,84.75v-4.88h4.88v4.88h-4.88ZM293.84,84.75v-4.88h4.88v4.88h-4.88ZM293.84,84.75v-4.88h4.88v4.88h-4.88ZM293.84,84.75v-4.88h4.88v4.88h-4.88ZM293.84,91.4v-4.88h4.88v4.88h-4.88ZM293.84,91.4v-4.88h4.88v4.88h-4.88ZM293.84,91.4v-4.88h4.88v4.88h-4.88ZM293.84,91.4v-4.88h4.88v4.88h-4.88ZM293.84,98.05v-4.88h4.88v4.88h-4.88ZM293.84,98.05v-4.88h4.88v4.88h-4.88ZM293.84,98.05v-4.88h4.88v4.88h-4.88ZM293.84,98.05v-4.88h4.88v4.88h-4.88ZM300.5,58.13v-4.88h4.88v4.88h-4.88ZM300.5,58.13v-4.88h4.88v4.88h-4.88ZM300.5,58.13v-4.88h4.88v4.88h-4.88ZM300.5,58.13v-4.88h4.88v4.88h-4.88ZM307.15,51.48v-4.88h4.88v4.88h-4.88ZM307.15,51.48v-4.88h4.88v4.88h-4.88ZM307.15,51.48v-4.88h4.88v4.88h-4.88ZM307.15,51.48v-4.88h4.88v4.88h-4.88ZM313.8,51.48v-4.88h4.88v4.88h-4.88ZM313.8,51.48v-4.88h4.88v4.88h-4.88ZM313.8,51.48v-4.88h4.88v4.88h-4.88ZM313.8,51.48v-4.88h4.88v4.88h-4.88ZM320.46,58.13v-4.88h4.88v4.88h-4.88ZM320.46,58.13v-4.88h4.88v4.88h-4.88ZM320.46,58.13v-4.88h4.88v4.88h-4.88ZM320.46,58.13v-4.88h4.88v4.88h-4.88ZM320.46,64.78v-4.88h4.88v4.88h-4.88ZM320.46,64.78v-4.88h4.88v4.88h-4.88ZM320.46,64.78v-4.88h4.88v4.88h-4.88ZM320.46,64.78v-4.88h4.88v4.88h-4.88ZM320.46,71.44v-4.88h4.88v4.88h-4.88ZM320.46,71.44v-4.88h4.88v4.88h-4.88ZM320.46,71.44v-4.88h4.88v4.88h-4.88ZM320.46,71.44v-4.88h4.88v4.88h-4.88ZM320.46,78.09v-4.88h4.88v4.88h-4.88ZM320.46,78.09v-4.88h4.88v4.88h-4.88ZM320.46,78.09v-4.88h4.88v4.88h-4.88ZM320.46,78.09v-4.88h4.88v4.88h-4.88ZM320.46,84.75v-4.88h4.88v4.88h-4.88ZM320.46,84.75v-4.88h4.88v4.88h-4.88ZM320.46,84.75v-4.88h4.88v4.88h-4.88ZM320.46,84.75v-4.88h4.88v4.88h-4.88ZM320.46,91.4v-4.88h4.88v4.88h-4.88ZM320.46,91.4v-4.88h4.88v4.88h-4.88ZM320.46,91.4v-4.88h4.88v4.88h-4.88ZM320.46,91.4v-4.88h4.88v4.88h-4.88ZM320.46,98.05v-4.88h4.88v4.88h-4.88ZM320.46,98.05v-4.88h4.88v4.88h-4.88ZM320.46,98.05v-4.88h4.88v4.88h-4.88ZM320.46,98.05v-4.88h4.88v4.88h-4.88ZM337.59,58.13v-4.88h4.88v4.88h-4.88ZM337.59,58.13v-4.88h4.88v4.88h-4.88ZM337.59,58.13v-4.88h4.88v4.88h-4.88ZM337.59,58.13v-4.88h4.88v4.88h-4.88ZM337.59,64.79v-4.88h4.88v4.88h-4.88ZM337.59,64.79v-4.88h4.88v4.88h-4.88ZM337.59,64.79v-4.88h4.88v4.88h-4.88ZM337.59,64.79v-4.88h4.88v4.88h-4.88ZM337.59,71.44v-4.88h4.88v4.88h-4.88ZM337.59,71.44v-4.88h4.88v4.88h-4.88ZM337.59,71.44v-4.88h4.88v4.88h-4.88ZM337.59,71.44v-4.88h4.88v4.88h-4.88ZM337.59,78.09v-4.88h4.88v4.88h-4.88ZM337.59,78.09v-4.88h4.88v4.88h-4.88ZM337.59,78.09v-4.88h4.88v4.88h-4.88ZM337.59,78.09v-4.88h4.88v4.88h-4.88ZM337.59,84.75v-4.88h4.88v4.88h-4.88ZM337.59,84.75v-4.88h4.88v4.88h-4.88ZM337.59,84.75v-4.88h4.88v4.88h-4.88ZM337.59,84.75v-4.88h4.88v4.88h-4.88ZM337.59,91.4v-4.88h4.88v4.88h-4.88ZM337.59,91.4v-4.88h4.88v4.88h-4.88ZM337.59,91.4v-4.88h4.88v4.88h-4.88ZM337.59,91.4v-4.88h4.88v4.88h-4.88ZM344.24,51.48v-4.88h4.88v4.88h-4.88ZM344.24,51.48v-4.88h4.88v4.88h-4.88ZM344.24,51.48v-4.88h4.88v4.88h-4.88ZM344.24,51.48v-4.88h4.88v4.88h-4.88ZM344.24,71.44v-4.88h4.88v4.88h-4.88ZM344.24,71.44v-4.88h4.88v4.88h-4.88ZM344.24,71.44v-4.88h4.88v4.88h-4.88ZM344.24,71.44v-4.88h4.88v4.88h-4.88ZM344.24,98.05v-4.88h4.88v4.88h-4.88ZM344.24,98.05v-4.88h4.88v4.88h-4.88ZM344.24,98.05v-4.88h4.88v4.88h-4.88ZM344.24,98.05v-4.88h4.88v4.88h-4.88ZM350.9,51.48v-4.88h4.88v4.88h-4.88ZM350.9,51.48v-4.88h4.88v4.88h-4.88ZM350.9,51.48v-4.88h4.88v4.88h-4.88ZM350.9,51.48v-4.88h4.88v4.88h-4.88ZM350.9,71.44v-4.88h4.88v4.88h-4.88ZM350.9,71.44v-4.88h4.88v4.88h-4.88ZM350.9,71.44v-4.88h4.88v4.88h-4.88ZM350.9,71.44v-4.88h4.88v4.88h-4.88ZM350.9,98.05v-4.88h4.88v4.88h-4.88ZM350.9,98.05v-4.88h4.88v4.88h-4.88ZM350.9,98.05v-4.88h4.88v4.88h-4.88ZM350.9,98.05v-4.88h4.88v4.88h-4.88ZM357.55,51.48v-4.88h4.88v4.88h-4.88ZM357.55,51.48v-4.88h4.88v4.88h-4.88ZM357.55,51.48v-4.88h4.88v4.88h-4.88ZM357.55,51.48v-4.88h4.88v4.88h-4.88ZM357.55,71.44v-4.88h4.88v4.88h-4.88ZM357.55,71.44v-4.88h4.88v4.88h-4.88ZM357.55,71.44v-4.88h4.88v4.88h-4.88ZM357.55,71.44v-4.88h4.88v4.88h-4.88ZM357.55,98.05v-4.88h4.88v4.88h-4.88ZM357.55,98.05v-4.88h4.88v4.88h-4.88ZM357.55,98.05v-4.88h4.88v4.88h-4.88ZM357.55,98.05v-4.88h4.88v4.88h-4.88ZM364.2,58.13v-4.88h4.88v4.88h-4.88ZM364.2,58.13v-4.88h4.88v4.88h-4.88ZM364.2,58.13v-4.88h4.88v4.88h-4.88ZM364.2,58.13v-4.88h4.88v4.88h-4.88ZM364.2,64.79v-4.88h4.88v4.88h-4.88ZM364.2,64.79v-4.88h4.88v4.88h-4.88ZM364.2,64.79v-4.88h4.88v4.88h-4.88ZM364.2,64.79v-4.88h4.88v4.88h-4.88ZM364.2,71.44v-4.88h4.88v4.88h-4.88ZM364.2,71.44v-4.88h4.88v4.88h-4.88ZM364.2,71.44v-4.88h4.88v4.88h-4.88ZM364.2,71.44v-4.88h4.88v4.88h-4.88ZM364.2,91.4v-4.88h4.88v4.88h-4.88ZM364.2,91.4v-4.88h4.88v4.88h-4.88ZM364.2,91.4v-4.88h4.88v4.88h-4.88ZM364.2,91.4v-4.88h4.88v4.88h-4.88ZM395.14,31.51v-4.88h4.88v4.88h-4.88ZM395.14,31.51v-4.88h4.88v4.88h-4.88ZM395.14,31.51v-4.88h4.88v4.88h-4.88ZM395.14,31.51v-4.88h4.88v4.88h-4.88ZM395.14,38.17v-4.88h4.88v4.88h-4.88ZM395.14,38.17v-4.88h4.88v4.88h-4.88ZM395.14,38.17v-4.88h4.88v4.88h-4.88ZM395.14,38.17v-4.88h4.88v4.88h-4.88ZM395.14,44.82v-4.88h4.88v4.88h-4.88ZM395.14,44.82v-4.88h4.88v4.88h-4.88ZM395.14,44.82v-4.88h4.88v4.88h-4.88ZM395.14,44.82v-4.88h4.88v4.88h-4.88ZM395.14,51.48v-4.88h4.88v4.88h-4.88ZM395.14,51.48v-4.88h4.88v4.88h-4.88ZM395.14,51.48v-4.88h4.88v4.88h-4.88ZM395.14,51.48v-4.88h4.88v4.88h-4.88ZM395.14,58.13v-4.88h4.88v4.88h-4.88ZM395.14,58.13v-4.88h4.88v4.88h-4.88ZM395.14,58.13v-4.88h4.88v4.88h-4.88ZM395.14,58.13v-4.88h4.88v4.88h-4.88ZM395.14,64.78v-4.88h4.88v4.88h-4.88ZM395.14,64.78v-4.88h4.88v4.88h-4.88ZM395.14,64.78v-4.88h4.88v4.88h-4.88ZM395.14,64.78v-4.88h4.88v4.88h-4.88ZM395.14,71.44v-4.88h4.88v4.88h-4.88ZM395.14,71.44v-4.88h4.88v4.88h-4.88ZM395.14,71.44v-4.88h4.88v4.88h-4.88ZM395.14,71.44v-4.88h4.88v4.88h-4.88ZM395.14,78.09v-4.88h4.88v4.88h-4.88ZM395.14,78.09v-4.88h4.88v4.88h-4.88ZM395.14,78.09v-4.88h4.88v4.88h-4.88ZM395.14,78.09v-4.88h4.88v4.88h-4.88ZM395.14,84.75v-4.88h4.88v4.88h-4.88ZM395.14,84.75v-4.88h4.88v4.88h-4.88ZM395.14,84.75v-4.88h4.88v4.88h-4.88ZM395.14,84.75v-4.88h4.88v4.88h-4.88ZM395.14,91.4v-4.88h4.88v4.88h-4.88ZM395.14,91.4v-4.88h4.88v4.88h-4.88ZM395.14,91.4v-4.88h4.88v4.88h-4.88ZM395.14,91.4v-4.88h4.88v4.88h-4.88ZM395.14,98.05v-4.88h4.88v4.88h-4.88ZM395.14,98.05v-4.88h4.88v4.88h-4.88ZM395.14,98.05v-4.88h4.88v4.88h-4.88ZM395.14,98.05v-4.88h4.88v4.88h-4.88ZM401.79,31.51v-4.88h4.88v4.88h-4.88ZM401.79,31.51v-4.88h4.88v4.88h-4.88ZM401.79,31.51v-4.88h4.88v4.88h-4.88ZM401.79,31.51v-4.88h4.88v4.88h-4.88ZM401.79,71.44v-4.88h4.88v4.88h-4.88ZM401.79,71.44v-4.88h4.88v4.88h-4.88ZM401.79,71.44v-4.88h4.88v4.88h-4.88ZM401.79,71.44v-4.88h4.88v4.88h-4.88ZM408.45,31.51v-4.88h4.88v4.88h-4.88ZM408.45,31.51v-4.88h4.88v4.88h-4.88ZM408.45,31.51v-4.88h4.88v4.88h-4.88ZM408.45,31.51v-4.88h4.88v4.88h-4.88ZM408.45,71.44v-4.88h4.88v4.88h-4.88ZM408.45,71.44v-4.88h4.88v4.88h-4.88ZM408.45,71.44v-4.88h4.88v4.88h-4.88ZM408.45,71.44v-4.88h4.88v4.88h-4.88ZM415.1,31.51v-4.88h4.88v4.88h-4.88ZM415.1,31.51v-4.88h4.88v4.88h-4.88ZM415.1,31.51v-4.88h4.88v4.88h-4.88ZM415.1,31.51v-4.88h4.88v4.88h-4.88ZM415.1,71.44v-4.88h4.88v4.88h-4.88ZM415.1,71.44v-4.88h4.88v4.88h-4.88ZM415.1,71.44v-4.88h4.88v4.88h-4.88ZM415.1,71.44v-4.88h4.88v4.88h-4.88ZM421.75,38.17v-4.88h4.88v4.88h-4.88ZM421.75,38.17v-4.88h4.88v4.88h-4.88ZM421.75,38.17v-4.88h4.88v4.88h-4.88ZM421.75,38.17v-4.88h4.88v4.88h-4.88ZM421.75,44.82v-4.88h4.88v4.88h-4.88ZM421.75,44.82v-4.88h4.88v4.88h-4.88ZM421.75,44.82v-4.88h4.88v4.88h-4.88ZM421.75,44.82v-4.88h4.88v4.88h-4.88ZM421.75,51.48v-4.88h4.88v4.88h-4.88ZM421.75,51.48v-4.88h4.88v4.88h-4.88ZM421.75,51.48v-4.88h4.88v4.88h-4.88ZM421.75,51.48v-4.88h4.88v4.88h-4.88ZM421.75,58.13v-4.88h4.88v4.88h-4.88ZM421.75,58.13v-4.88h4.88v4.88h-4.88ZM421.75,58.13v-4.88h4.88v4.88h-4.88ZM421.75,58.13v-4.88h4.88v4.88h-4.88ZM421.75,64.78v-4.88h4.88v4.88h-4.88ZM421.75,64.78v-4.88h4.88v4.88h-4.88ZM421.75,64.78v-4.88h4.88v4.88h-4.88ZM421.75,64.78v-4.88h4.88v4.88h-4.88ZM435.56,58.13v-4.88h4.88v4.88h-4.88ZM435.56,58.13v-4.88h4.88v4.88h-4.88ZM435.56,58.13v-4.88h4.88v4.88h-4.88ZM435.56,58.13v-4.88h4.88v4.88h-4.88ZM435.56,64.79v-4.88h4.88v4.88h-4.88ZM435.56,64.79v-4.88h4.88v4.88h-4.88ZM435.56,64.79v-4.88h4.88v4.88h-4.88ZM435.56,64.79v-4.88h4.88v4.88h-4.88ZM435.56,71.44v-4.88h4.88v4.88h-4.88ZM435.56,71.44v-4.88h4.88v4.88h-4.88ZM435.56,71.44v-4.88h4.88v4.88h-4.88ZM435.56,71.44v-4.88h4.88v4.88h-4.88ZM435.56,78.09v-4.88h4.88v4.88h-4.88ZM435.56,78.09v-4.88h4.88v4.88h-4.88ZM435.56,78.09v-4.88h4.88v4.88h-4.88ZM435.56,78.09v-4.88h4.88v4.88h-4.88ZM435.56,84.75v-4.88h4.88v4.88h-4.88ZM435.56,84.75v-4.88h4.88v4.88h-4.88ZM435.56,84.75v-4.88h4.88v4.88h-4.88ZM435.56,84.75v-4.88h4.88v4.88h-4.88ZM435.56,91.4v-4.88h4.88v4.88h-4.88ZM435.56,91.4v-4.88h4.88v4.88h-4.88ZM435.56,91.4v-4.88h4.88v4.88h-4.88ZM435.56,91.4v-4.88h4.88v4.88h-4.88ZM442.21,51.48v-4.88h4.88v4.88h-4.88ZM442.21,51.48v-4.88h4.88v4.88h-4.88ZM442.21,51.48v-4.88h4.88v4.88h-4.88ZM442.21,51.48v-4.88h4.88v4.88h-4.88ZM442.21,71.44v-4.88h4.88v4.88h-4.88ZM442.21,71.44v-4.88h4.88v4.88h-4.88ZM442.21,71.44v-4.88h4.88v4.88h-4.88ZM442.21,71.44v-4.88h4.88v4.88h-4.88ZM442.21,98.05v-4.88h4.88v4.88h-4.88ZM442.21,98.05v-4.88h4.88v4.88h-4.88ZM442.21,98.05v-4.88h4.88v4.88h-4.88ZM442.21,98.05v-4.88h4.88v4.88h-4.88ZM448.86,51.48v-4.88h4.88v4.88h-4.88ZM448.86,51.48v-4.88h4.88v4.88h-4.88ZM448.86,51.48v-4.88h4.88v4.88h-4.88ZM448.86,51.48v-4.88h4.88v4.88h-4.88ZM448.86,71.44v-4.88h4.88v4.88h-4.88ZM448.86,71.44v-4.88h4.88v4.88h-4.88ZM448.86,71.44v-4.88h4.88v4.88h-4.88ZM448.86,71.44v-4.88h4.88v4.88h-4.88ZM448.86,98.05v-4.88h4.88v4.88h-4.88ZM448.86,98.05v-4.88h4.88v4.88h-4.88ZM448.86,98.05v-4.88h4.88v4.88h-4.88ZM448.86,98.05v-4.88h4.88v4.88h-4.88ZM455.52,51.48v-4.88h4.88v4.88h-4.88ZM455.52,51.48v-4.88h4.88v4.88h-4.88ZM455.52,51.48v-4.88h4.88v4.88h-4.88ZM455.52,51.48v-4.88h4.88v4.88h-4.88ZM455.52,71.44v-4.88h4.88v4.88h-4.88ZM455.52,71.44v-4.88h4.88v4.88h-4.88ZM455.52,71.44v-4.88h4.88v4.88h-4.88ZM455.52,71.44v-4.88h4.88v4.88h-4.88ZM455.52,98.05v-4.88h4.88v4.88h-4.88ZM455.52,98.05v-4.88h4.88v4.88h-4.88ZM455.52,98.05v-4.88h4.88v4.88h-4.88ZM455.52,98.05v-4.88h4.88v4.88h-4.88ZM462.17,58.13v-4.88h4.88v4.88h-4.88ZM462.17,58.13v-4.88h4.88v4.88h-4.88ZM462.17,58.13v-4.88h4.88v4.88h-4.88ZM462.17,58.13v-4.88h4.88v4.88h-4.88ZM462.17,64.79v-4.88h4.88v4.88h-4.88ZM462.17,64.79v-4.88h4.88v4.88h-4.88ZM462.17,64.79v-4.88h4.88v4.88h-4.88ZM462.17,64.79v-4.88h4.88v4.88h-4.88ZM462.17,71.44v-4.88h4.88v4.88h-4.88ZM462.17,71.44v-4.88h4.88v4.88h-4.88ZM462.17,71.44v-4.88h4.88v4.88h-4.88ZM462.17,71.44v-4.88h4.88v4.88h-4.88ZM462.17,91.4v-4.88h4.88v4.88h-4.88ZM462.17,91.4v-4.88h4.88v4.88h-4.88ZM462.17,91.4v-4.88h4.88v4.88h-4.88ZM462.17,91.4v-4.88h4.88v4.88h-4.88ZM475.98,58.13v-4.88h4.88v4.88h-4.88ZM475.98,58.13v-4.88h4.88v4.88h-4.88ZM475.98,58.13v-4.88h4.88v4.88h-4.88ZM475.98,58.13v-4.88h4.88v4.88h-4.88ZM475.98,64.79v-4.88h4.88v4.88h-4.88ZM475.98,64.79v-4.88h4.88v4.88h-4.88ZM475.98,64.79v-4.88h4.88v4.88h-4.88ZM475.98,64.79v-4.88h4.88v4.88h-4.88ZM475.98,71.44v-4.88h4.88v4.88h-4.88ZM475.98,71.44v-4.88h4.88v4.88h-4.88ZM475.98,71.44v-4.88h4.88v4.88h-4.88ZM475.98,71.44v-4.88h4.88v4.88h-4.88ZM475.98,78.09v-4.88h4.88v4.88h-4.88ZM475.98,78.09v-4.88h4.88v4.88h-4.88ZM475.98,78.09v-4.88h4.88v4.88h-4.88ZM475.98,78.09v-4.88h4.88v4.88h-4.88ZM475.98,84.75v-4.88h4.88v4.88h-4.88ZM475.98,84.75v-4.88h4.88v4.88h-4.88ZM475.98,84.75v-4.88h4.88v4.88h-4.88ZM475.98,84.75v-4.88h4.88v4.88h-4.88ZM475.98,91.4v-4.88h4.88v4.88h-4.88ZM475.98,91.4v-4.88h4.88v4.88h-4.88ZM475.98,91.4v-4.88h4.88v4.88h-4.88ZM475.98,91.4v-4.88h4.88v4.88h-4.88ZM482.63,51.48v-4.88h4.88v4.88h-4.88ZM482.63,51.48v-4.88h4.88v4.88h-4.88ZM482.63,51.48v-4.88h4.88v4.88h-4.88ZM482.63,51.48v-4.88h4.88v4.88h-4.88ZM482.63,98.05v-4.88h4.88v4.88h-4.88ZM482.63,98.05v-4.88h4.88v4.88h-4.88ZM482.63,98.05v-4.88h4.88v4.88h-4.88ZM482.63,98.05v-4.88h4.88v4.88h-4.88ZM489.28,51.48v-4.88h4.88v4.88h-4.88ZM489.28,51.48v-4.88h4.88v4.88h-4.88ZM489.28,51.48v-4.88h4.88v4.88h-4.88ZM489.28,51.48v-4.88h4.88v4.88h-4.88ZM489.28,98.05v-4.88h4.88v4.88h-4.88ZM489.28,98.05v-4.88h4.88v4.88h-4.88ZM489.28,98.05v-4.88h4.88v4.88h-4.88ZM489.28,98.05v-4.88h4.88v4.88h-4.88ZM495.93,51.48v-4.88h4.88v4.88h-4.88ZM495.93,51.48v-4.88h4.88v4.88h-4.88ZM495.93,51.48v-4.88h4.88v4.88h-4.88ZM495.93,51.48v-4.88h4.88v4.88h-4.88ZM495.93,98.05v-4.88h4.88v4.88h-4.88ZM495.93,98.05v-4.88h4.88v4.88h-4.88ZM495.93,98.05v-4.88h4.88v4.88h-4.88ZM495.93,98.05v-4.88h4.88v4.88h-4.88ZM502.59,58.13v-4.88h4.88v4.88h-4.88ZM502.59,58.13v-4.88h4.88v4.88h-4.88ZM502.59,58.13v-4.88h4.88v4.88h-4.88ZM502.59,58.13v-4.88h4.88v4.88h-4.88ZM502.59,64.79v-4.88h4.88v4.88h-4.88ZM502.59,64.79v-4.88h4.88v4.88h-4.88ZM502.59,64.79v-4.88h4.88v4.88h-4.88ZM502.59,64.79v-4.88h4.88v4.88h-4.88ZM502.59,71.44v-4.88h4.88v4.88h-4.88ZM502.59,71.44v-4.88h4.88v4.88h-4.88ZM502.59,71.44v-4.88h4.88v4.88h-4.88ZM502.59,71.44v-4.88h4.88v4.88h-4.88ZM502.59,78.09v-4.88h4.88v4.88h-4.88ZM502.59,78.09v-4.88h4.88v4.88h-4.88ZM502.59,78.09v-4.88h4.88v4.88h-4.88ZM502.59,78.09v-4.88h4.88v4.88h-4.88ZM502.59,84.75v-4.88h4.88v4.88h-4.88ZM502.59,84.75v-4.88h4.88v4.88h-4.88ZM502.59,84.75v-4.88h4.88v4.88h-4.88ZM502.59,84.75v-4.88h4.88v4.88h-4.88ZM502.59,91.4v-4.88h4.88v4.88h-4.88ZM502.59,91.4v-4.88h4.88v4.88h-4.88ZM502.59,91.4v-4.88h4.88v4.88h-4.88ZM502.59,91.4v-4.88h4.88v4.88h-4.88ZM519.72,51.48v-4.88h4.88v4.88h-4.88ZM519.72,51.48v-4.88h4.88v4.88h-4.88ZM519.72,51.48v-4.88h4.88v4.88h-4.88ZM519.72,51.48v-4.88h4.88v4.88h-4.88ZM519.72,58.13v-4.88h4.88v4.88h-4.88ZM519.72,58.13v-4.88h4.88v4.88h-4.88ZM519.72,58.13v-4.88h4.88v4.88h-4.88ZM519.72,58.13v-4.88h4.88v4.88h-4.88ZM519.72,64.79v-4.88h4.88v4.88h-4.88ZM519.72,64.79v-4.88h4.88v4.88h-4.88ZM519.72,64.79v-4.88h4.88v4.88h-4.88ZM519.72,64.79v-4.88h4.88v4.88h-4.88ZM519.72,71.44v-4.88h4.88v4.88h-4.88ZM519.72,71.44v-4.88h4.88v4.88h-4.88ZM519.72,71.44v-4.88h4.88v4.88h-4.88ZM519.72,71.44v-4.88h4.88v4.88h-4.88ZM519.72,78.09v-4.88h4.88v4.88h-4.88ZM519.72,78.09v-4.88h4.88v4.88h-4.88ZM519.72,78.09v-4.88h4.88v4.88h-4.88ZM519.72,78.09v-4.88h4.88v4.88h-4.88ZM519.72,84.75v-4.88h4.88v4.88h-4.88ZM519.72,84.75v-4.88h4.88v4.88h-4.88ZM519.72,84.75v-4.88h4.88v4.88h-4.88ZM519.72,84.75v-4.88h4.88v4.88h-4.88ZM519.72,91.4v-4.88h4.88v4.88h-4.88ZM519.72,91.4v-4.88h4.88v4.88h-4.88ZM519.72,91.4v-4.88h4.88v4.88h-4.88ZM519.72,91.4v-4.88h4.88v4.88h-4.88ZM519.72,98.05v-4.88h4.88v4.88h-4.88ZM519.72,98.05v-4.88h4.88v4.88h-4.88ZM519.72,98.05v-4.88h4.88v4.88h-4.88ZM519.72,98.05v-4.88h4.88v4.88h-4.88ZM519.72,104.7v-4.88h4.88v4.88h-4.88ZM519.72,104.7v-4.88h4.88v4.88h-4.88ZM519.72,104.7v-4.88h4.88v4.88h-4.88ZM519.72,104.7v-4.88h4.88v4.88h-4.88ZM519.72,111.36v-4.88h4.88v4.88h-4.88ZM519.72,111.36v-4.88h4.88v4.88h-4.88ZM519.72,111.36v-4.88h4.88v4.88h-4.88ZM519.72,111.36v-4.88h4.88v4.88h-4.88ZM519.72,115.57v-2.44h4.88v2.44M519.72,115.57v-2.44h4.88v2.44M519.72,115.57v-2.44h4.88v2.44M519.72,115.57v-2.44h4.88v2.44M526.38,58.13v-4.88h4.88v4.88h-4.88ZM526.38,58.13v-4.88h4.88v4.88h-4.88ZM526.38,58.13v-4.88h4.88v4.88h-4.88ZM526.38,58.13v-4.88h4.88v4.88h-4.88ZM526.38,91.4v-4.88h4.88v4.88h-4.88ZM526.38,91.4v-4.88h4.88v4.88h-4.88ZM526.38,91.4v-4.88h4.88v4.88h-4.88ZM526.38,91.4v-4.88h4.88v4.88h-4.88ZM533.03,51.48v-4.88h4.88v4.88h-4.88ZM533.03,51.48v-4.88h4.88v4.88h-4.88ZM533.03,51.48v-4.88h4.88v4.88h-4.88ZM533.03,51.48v-4.88h4.88v4.88h-4.88ZM533.03,98.05v-4.88h4.88v4.88h-4.88ZM533.03,98.05v-4.88h4.88v4.88h-4.88ZM533.03,98.05v-4.88h4.88v4.88h-4.88ZM533.03,98.05v-4.88h4.88v4.88h-4.88ZM539.68,51.48v-4.88h4.88v4.88h-4.88ZM539.68,51.48v-4.88h4.88v4.88h-4.88ZM539.68,51.48v-4.88h4.88v4.88h-4.88ZM539.68,51.48v-4.88h4.88v4.88h-4.88ZM539.68,98.05v-4.88h4.88v4.88h-4.88ZM539.68,98.05v-4.88h4.88v4.88h-4.88ZM539.68,98.05v-4.88h4.88v4.88h-4.88ZM539.68,98.05v-4.88h4.88v4.88h-4.88ZM546.34,58.13v-4.88h4.88v4.88h-4.88ZM546.34,58.13v-4.88h4.88v4.88h-4.88ZM546.34,58.13v-4.88h4.88v4.88h-4.88ZM546.34,58.13v-4.88h4.88v4.88h-4.88ZM546.34,64.79v-4.88h4.88v4.88h-4.88ZM546.34,64.79v-4.88h4.88v4.88h-4.88ZM546.34,64.79v-4.88h4.88v4.88h-4.88ZM546.34,64.79v-4.88h4.88v4.88h-4.88ZM546.34,71.44v-4.88h4.88v4.88h-4.88ZM546.34,71.44v-4.88h4.88v4.88h-4.88ZM546.34,71.44v-4.88h4.88v4.88h-4.88ZM546.34,71.44v-4.88h4.88v4.88h-4.88ZM546.34,78.09v-4.88h4.88v4.88h-4.88ZM546.34,78.09v-4.88h4.88v4.88h-4.88ZM546.34,78.09v-4.88h4.88v4.88h-4.88ZM546.34,78.09v-4.88h4.88v4.88h-4.88ZM546.34,84.75v-4.88h4.88v4.88h-4.88ZM546.34,84.75v-4.88h4.88v4.88h-4.88ZM546.34,84.75v-4.88h4.88v4.88h-4.88ZM546.34,84.75v-4.88h4.88v4.88h-4.88ZM546.34,91.4v-4.88h4.88v4.88h-4.88ZM546.34,91.4v-4.88h4.88v4.88h-4.88ZM546.34,91.4v-4.88h4.88v4.88h-4.88ZM546.34,91.4v-4.88h4.88v4.88h-4.88ZM563.47,24.86v-4.88h4.88v4.88h-4.88ZM563.47,24.86v-4.88h4.88v4.88h-4.88ZM563.47,24.86v-4.88h4.88v4.88h-4.88ZM563.47,24.86v-4.88h4.88v4.88h-4.88ZM563.47,31.52v-4.88h4.88v4.88h-4.88ZM563.47,31.52v-4.88h4.88v4.88h-4.88ZM563.47,31.52v-4.88h4.88v4.88h-4.88ZM563.47,31.52v-4.88h4.88v4.88h-4.88ZM563.47,38.17v-4.88h4.88v4.88h-4.88ZM563.47,38.17v-4.88h4.88v4.88h-4.88ZM563.47,38.17v-4.88h4.88v4.88h-4.88ZM563.47,38.17v-4.88h4.88v4.88h-4.88ZM563.47,44.83v-4.88h4.88v4.88h-4.88ZM563.47,44.83v-4.88h4.88v4.88h-4.88ZM563.47,44.83v-4.88h4.88v4.88h-4.88ZM563.47,44.83v-4.88h4.88v4.88h-4.88ZM563.47,51.48v-4.88h4.88v4.88h-4.88ZM563.47,51.48v-4.88h4.88v4.88h-4.88ZM563.47,51.48v-4.88h4.88v4.88h-4.88ZM563.47,51.48v-4.88h4.88v4.88h-4.88ZM563.47,58.13v-4.88h4.88v4.88h-4.88ZM563.47,58.13v-4.88h4.88v4.88h-4.88ZM563.47,58.13v-4.88h4.88v4.88h-4.88ZM563.47,58.13v-4.88h4.88v4.88h-4.88ZM563.47,64.78v-4.88h4.88v4.88h-4.88ZM563.47,64.78v-4.88h4.88v4.88h-4.88ZM563.47,64.78v-4.88h4.88v4.88h-4.88ZM563.47,64.78v-4.88h4.88v4.88h-4.88ZM563.47,71.44v-4.88h4.88v4.88h-4.88ZM563.47,71.44v-4.88h4.88v4.88h-4.88ZM563.47,71.44v-4.88h4.88v4.88h-4.88ZM563.47,71.44v-4.88h4.88v4.88h-4.88ZM563.47,78.09v-4.88h4.88v4.88h-4.88ZM563.47,78.09v-4.88h4.88v4.88h-4.88ZM563.47,78.09v-4.88h4.88v4.88h-4.88ZM563.47,78.09v-4.88h4.88v4.88h-4.88ZM563.47,84.75v-4.88h4.88v4.88h-4.88ZM563.47,84.75v-4.88h4.88v4.88h-4.88ZM563.47,84.75v-4.88h4.88v4.88h-4.88ZM563.47,84.75v-4.88h4.88v4.88h-4.88ZM563.47,91.4v-4.88h4.88v4.88h-4.88ZM563.47,91.4v-4.88h4.88v4.88h-4.88ZM563.47,91.4v-4.88h4.88v4.88h-4.88ZM563.47,91.4v-4.88h4.88v4.88h-4.88ZM563.47,98.05v-4.88h4.88v4.88h-4.88ZM563.47,98.05v-4.88h4.88v4.88h-4.88ZM563.47,98.05v-4.88h4.88v4.88h-4.88ZM563.47,98.05v-4.88h4.88v4.88h-4.88ZM580.6,58.13v-4.88h4.88v4.88h-4.88ZM580.6,58.13v-4.88h4.88v4.88h-4.88ZM580.6,58.13v-4.88h4.88v4.88h-4.88ZM580.6,58.13v-4.88h4.88v4.88h-4.88ZM580.6,64.79v-4.88h4.88v4.88h-4.88ZM580.6,64.79v-4.88h4.88v4.88h-4.88ZM580.6,64.79v-4.88h4.88v4.88h-4.88ZM580.6,64.79v-4.88h4.88v4.88h-4.88ZM580.6,71.44v-4.88h4.88v4.88h-4.88ZM580.6,71.44v-4.88h4.88v4.88h-4.88ZM580.6,71.44v-4.88h4.88v4.88h-4.88ZM580.6,71.44v-4.88h4.88v4.88h-4.88ZM580.6,78.09v-4.88h4.88v4.88h-4.88ZM580.6,78.09v-4.88h4.88v4.88h-4.88ZM580.6,78.09v-4.88h4.88v4.88h-4.88ZM580.6,78.09v-4.88h4.88v4.88h-4.88ZM580.6,84.75v-4.88h4.88v4.88h-4.88ZM580.6,84.75v-4.88h4.88v4.88h-4.88ZM580.6,84.75v-4.88h4.88v4.88h-4.88ZM580.6,84.75v-4.88h4.88v4.88h-4.88ZM580.6,91.4v-4.88h4.88v4.88h-4.88ZM580.6,91.4v-4.88h4.88v4.88h-4.88ZM580.6,91.4v-4.88h4.88v4.88h-4.88ZM580.6,91.4v-4.88h4.88v4.88h-4.88ZM587.25,51.48v-4.88h4.88v4.88h-4.88ZM587.25,51.48v-4.88h4.88v4.88h-4.88ZM587.25,51.48v-4.88h4.88v4.88h-4.88ZM587.25,51.48v-4.88h4.88v4.88h-4.88ZM587.25,71.44v-4.88h4.88v4.88h-4.88ZM587.25,71.44v-4.88h4.88v4.88h-4.88ZM587.25,71.44v-4.88h4.88v4.88h-4.88ZM587.25,71.44v-4.88h4.88v4.88h-4.88ZM587.25,98.05v-4.88h4.88v4.88h-4.88ZM587.25,98.05v-4.88h4.88v4.88h-4.88ZM587.25,98.05v-4.88h4.88v4.88h-4.88ZM587.25,98.05v-4.88h4.88v4.88h-4.88ZM593.91,51.48v-4.88h4.88v4.88h-4.88ZM593.91,51.48v-4.88h4.88v4.88h-4.88ZM593.91,51.48v-4.88h4.88v4.88h-4.88ZM593.91,51.48v-4.88h4.88v4.88h-4.88ZM593.91,71.44v-4.88h4.88v4.88h-4.88ZM593.91,71.44v-4.88h4.88v4.88h-4.88ZM593.91,71.44v-4.88h4.88v4.88h-4.88ZM593.91,71.44v-4.88h4.88v4.88h-4.88ZM593.91,98.05v-4.88h4.88v4.88h-4.88ZM593.91,98.05v-4.88h4.88v4.88h-4.88ZM593.91,98.05v-4.88h4.88v4.88h-4.88ZM593.91,98.05v-4.88h4.88v4.88h-4.88ZM600.56,51.48v-4.88h4.88v4.88h-4.88ZM600.56,51.48v-4.88h4.88v4.88h-4.88ZM600.56,51.48v-4.88h4.88v4.88h-4.88ZM600.56,51.48v-4.88h4.88v4.88h-4.88ZM600.56,71.44v-4.88h4.88v4.88h-4.88ZM600.56,71.44v-4.88h4.88v4.88h-4.88ZM600.56,71.44v-4.88h4.88v4.88h-4.88ZM600.56,71.44v-4.88h4.88v4.88h-4.88ZM600.56,98.05v-4.88h4.88v4.88h-4.88ZM600.56,98.05v-4.88h4.88v4.88h-4.88ZM600.56,98.05v-4.88h4.88v4.88h-4.88ZM600.56,98.05v-4.88h4.88v4.88h-4.88ZM607.22,58.13v-4.88h4.88v4.88h-4.88ZM607.22,58.13v-4.88h4.88v4.88h-4.88ZM607.22,58.13v-4.88h4.88v4.88h-4.88ZM607.22,58.13v-4.88h4.88v4.88h-4.88ZM607.22,64.79v-4.88h4.88v4.88h-4.88ZM607.22,64.79v-4.88h4.88v4.88h-4.88ZM607.22,64.79v-4.88h4.88v4.88h-4.88ZM607.22,64.79v-4.88h4.88v4.88h-4.88ZM607.22,71.44v-4.88h4.88v4.88h-4.88ZM607.22,71.44v-4.88h4.88v4.88h-4.88ZM607.22,71.44v-4.88h4.88v4.88h-4.88ZM607.22,71.44v-4.88h4.88v4.88h-4.88ZM607.22,91.4v-4.88h4.88v4.88h-4.88ZM607.22,91.4v-4.88h4.88v4.88h-4.88ZM607.22,91.4v-4.88h4.88v4.88h-4.88ZM607.22,91.4v-4.88h4.88v4.88h-4.88Z"/><path class="cls-1" d="M103.31,45.86h-27.2c-.47,4.53.41,9.36,2.61,14.48,3.95,9.53,12.61,16.04,24.59,19.53v18.13c-15.7-3.14-28.45-9.68-36.88-19.62-8.43-9.94-12.64-23.8-12.64-41.59V0h49.52v45.86ZM49.52,0H0v36.79c0,17.79,4.21,31.65,12.64,41.59,8.43,9.94,21.19,16.48,36.88,19.62v-18.13c-11.98-3.49-20.64-10-24.59-19.53-2.21-5.12-3.08-9.94-2.61-14.48h27.2V0Z"/><path class="cls-1" d="M647.61,0h49.52v36.79c0,17.79-4.21,31.65-12.64,41.59-8.43,9.94-21.19,16.48-36.88,19.62v-18.13c11.98-3.49,20.63-10,24.59-19.53,2.21-5.12,3.08-9.94,2.61-14.48h-27.2V0ZM701.39,45.86h27.2c.46,4.54-.41,9.36-2.61,14.48-3.96,9.53-12.61,16.04-24.59,19.53v18.13c15.69-3.14,28.45-9.68,36.88-19.62,8.43-9.94,12.64-23.8,12.64-41.59V0h-49.52v45.86Z"/></g></svg>