<?xml version="1.0" encoding="UTF-8"?><svg id="Layer_2" xmlns="http://www.w3.org/2000/svg" viewBox="0 0 267.54 55.42"><defs><style>.cls-1{fill:#243345;}</style></defs><g id="Layer_1-2"><path class="cls-1" d="M0,6.52v-2.76h2.76v2.76H0ZM0,6.52v-2.76h2.76v2.76H0ZM0,6.52v-2.76h2.76v2.76H0ZM0,6.52v-2.76h2.76v2.76H0ZM0,10.28v-2.76h2.76v2.76H0ZM0,10.28v-2.76h2.76v2.76H0ZM0,10.28v-2.76h2.76v2.76H0ZM0,10.28v-2.76h2.76v2.76H0ZM0,14.04v-2.76h2.76v2.76H0ZM0,14.04v-2.76h2.76v2.76H0ZM0,14.04v-2.76h2.76v2.76H0ZM0,14.04v-2.76h2.76v2.76H0ZM0,17.8v-2.76h2.76v2.76H0ZM0,17.8v-2.76h2.76v2.76H0ZM0,17.8v-2.76h2.76v2.76H0ZM0,17.8v-2.76h2.76v2.76H0ZM0,21.57v-2.76h2.76v2.76H0ZM0,21.57v-2.76h2.76v2.76H0ZM0,21.57v-2.76h2.76v2.76H0ZM0,21.57v-2.76h2.76v2.76H0ZM0,25.33v-2.76h2.76v2.76H0ZM0,25.33v-2.76h2.76v2.76H0ZM0,25.33v-2.76h2.76v2.76H0ZM0,25.33v-2.76h2.76v2.76H0ZM0,29.09v-2.76h2.76v2.76H0ZM0,29.09v-2.76h2.76v2.76H0ZM0,29.09v-2.76h2.76v2.76H0ZM0,29.09v-2.76h2.76v2.76H0ZM1.88,32.85v-2.76h2.76v2.76H1.88ZM1.88,32.85v-2.76h2.76v2.76H1.88ZM1.88,32.85v-2.76h2.76v2.76H1.88ZM1.88,32.85v-2.76h2.76v2.76H1.88ZM3.76,36.61v-2.76h2.76v2.76h-2.76ZM3.76,36.61v-2.76h2.76v2.76h-2.76ZM3.76,36.61v-2.76h2.76v2.76h-2.76ZM3.76,36.61v-2.76h2.76v2.76h-2.76ZM5.64,40.37v-2.76h2.76v2.76h-2.76ZM5.64,40.37v-2.76h2.76v2.76h-2.76ZM5.64,40.37v-2.76h2.76v2.76h-2.76ZM5.64,40.37v-2.76h2.76v2.76h-2.76ZM7.52,44.13v-2.76h2.76v2.76h-2.76ZM7.52,44.13v-2.76h2.76v2.76h-2.76ZM7.52,44.13v-2.76h2.76v2.76h-2.76ZM7.52,44.13v-2.76h2.76v2.76h-2.76ZM9.4,40.37v-2.76h2.76v2.76h-2.76ZM9.4,40.37v-2.76h2.76v2.76h-2.76ZM9.4,40.37v-2.76h2.76v2.76h-2.76ZM9.4,40.37v-2.76h2.76v2.76h-2.76ZM11.28,36.61v-2.76h2.76v2.76h-2.76ZM11.28,36.61v-2.76h2.76v2.76h-2.76ZM11.28,36.61v-2.76h2.76v2.76h-2.76ZM11.28,36.61v-2.76h2.76v2.76h-2.76ZM13.16,32.85v-2.76h2.76v2.76h-2.76ZM13.16,32.85v-2.76h2.76v2.76h-2.76ZM13.16,32.85v-2.76h2.76v2.76h-2.76ZM13.16,32.85v-2.76h2.76v2.76h-2.76ZM15.05,6.52v-2.76h2.76v2.76h-2.76ZM15.05,6.52v-2.76h2.76v2.76h-2.76ZM15.05,6.52v-2.76h2.76v2.76h-2.76ZM15.05,6.52v-2.76h2.76v2.76h-2.76ZM15.05,10.28v-2.76h2.76v2.76h-2.76ZM15.05,10.28v-2.76h2.76v2.76h-2.76ZM15.05,10.28v-2.76h2.76v2.76h-2.76ZM15.05,10.28v-2.76h2.76v2.76h-2.76ZM15.05,14.04v-2.76h2.76v2.76h-2.76ZM15.05,14.04v-2.76h2.76v2.76h-2.76ZM15.05,14.04v-2.76h2.76v2.76h-2.76ZM15.05,14.04v-2.76h2.76v2.76h-2.76ZM15.05,17.8v-2.76h2.76v2.76h-2.76ZM15.05,17.8v-2.76h2.76v2.76h-2.76ZM15.05,17.8v-2.76h2.76v2.76h-2.76ZM15.05,17.8v-2.76h2.76v2.76h-2.76ZM15.05,21.57v-2.76h2.76v2.76h-2.76ZM15.05,21.57v-2.76h2.76v2.76h-2.76ZM15.05,21.57v-2.76h2.76v2.76h-2.76ZM15.05,21.57v-2.76h2.76v2.76h-2.76ZM15.05,25.33v-2.76h2.76v2.76h-2.76ZM15.05,25.33v-2.76h2.76v2.76h-2.76ZM15.05,25.33v-2.76h2.76v2.76h-2.76ZM15.05,25.33v-2.76h2.76v2.76h-2.76ZM15.05,29.09v-2.76h2.76v2.76h-2.76ZM15.05,29.09v-2.76h2.76v2.76h-2.76ZM15.05,29.09v-2.76h2.76v2.76h-2.76ZM15.05,29.09v-2.76h2.76v2.76h-2.76ZM16.93,32.85v-2.76h2.76v2.76h-2.76ZM16.93,32.85v-2.76h2.76v2.76h-2.76ZM16.93,32.85v-2.76h2.76v2.76h-2.76ZM16.93,32.85v-2.76h2.76v2.76h-2.76ZM18.81,36.61v-2.76h2.76v2.76h-2.76ZM18.81,36.61v-2.76h2.76v2.76h-2.76ZM18.81,36.61v-2.76h2.76v2.76h-2.76ZM18.81,36.61v-2.76h2.76v2.76h-2.76ZM20.69,40.37v-2.76h2.76v2.76h-2.76ZM20.69,40.37v-2.76h2.76v2.76h-2.76ZM20.69,40.37v-2.76h2.76v2.76h-2.76ZM20.69,40.37v-2.76h2.76v2.76h-2.76ZM22.57,44.13v-2.76h2.76v2.76h-2.76ZM22.57,44.13v-2.76h2.76v2.76h-2.76ZM22.57,44.13v-2.76h2.76v2.76h-2.76ZM22.57,44.13v-2.76h2.76v2.76h-2.76ZM24.45,40.37v-2.76h2.76v2.76h-2.76ZM24.45,40.37v-2.76h2.76v2.76h-2.76ZM24.45,40.37v-2.76h2.76v2.76h-2.76ZM24.45,40.37v-2.76h2.76v2.76h-2.76ZM26.33,36.61v-2.76h2.76v2.76h-2.76ZM26.33,36.61v-2.76h2.76v2.76h-2.76ZM26.33,36.61v-2.76h2.76v2.76h-2.76ZM26.33,36.61v-2.76h2.76v2.76h-2.76ZM28.21,32.85v-2.76h2.76v2.76h-2.76ZM28.21,32.85v-2.76h2.76v2.76h-2.76ZM28.21,32.85v-2.76h2.76v2.76h-2.76ZM28.21,32.85v-2.76h2.76v2.76h-2.76ZM30.09,6.52v-2.76h2.76v2.76h-2.76ZM30.09,6.52v-2.76h2.76v2.76h-2.76ZM30.09,6.52v-2.76h2.76v2.76h-2.76ZM30.09,6.52v-2.76h2.76v2.76h-2.76ZM30.09,10.28v-2.76h2.76v2.76h-2.76ZM30.09,10.28v-2.76h2.76v2.76h-2.76ZM30.09,10.28v-2.76h2.76v2.76h-2.76ZM30.09,10.28v-2.76h2.76v2.76h-2.76ZM30.09,14.04v-2.76h2.76v2.76h-2.76ZM30.09,14.04v-2.76h2.76v2.76h-2.76ZM30.09,14.04v-2.76h2.76v2.76h-2.76ZM30.09,14.04v-2.76h2.76v2.76h-2.76ZM30.09,17.8v-2.76h2.76v2.76h-2.76ZM30.09,17.8v-2.76h2.76v2.76h-2.76ZM30.09,17.8v-2.76h2.76v2.76h-2.76ZM30.09,17.8v-2.76h2.76v2.76h-2.76ZM30.09,21.57v-2.76h2.76v2.76h-2.76ZM30.09,21.57v-2.76h2.76v2.76h-2.76ZM30.09,21.57v-2.76h2.76v2.76h-2.76ZM30.09,21.57v-2.76h2.76v2.76h-2.76ZM30.09,25.33v-2.76h2.76v2.76h-2.76ZM30.09,25.33v-2.76h2.76v2.76h-2.76ZM30.09,25.33v-2.76h2.76v2.76h-2.76ZM30.09,25.33v-2.76h2.76v2.76h-2.76ZM30.09,29.09v-2.76h2.76v2.76h-2.76ZM30.09,29.09v-2.76h2.76v2.76h-2.76ZM30.09,29.09v-2.76h2.76v2.76h-2.76ZM30.09,29.09v-2.76h2.76v2.76h-2.76ZM37.89,21.56v-2.76h2.76v2.76h-2.76ZM37.89,21.56v-2.76h2.76v2.76h-2.76ZM37.89,21.56v-2.76h2.76v2.76h-2.76ZM37.89,21.56v-2.76h2.76v2.76h-2.76ZM37.89,25.33v-2.76h2.76v2.76h-2.76ZM37.89,25.33v-2.76h2.76v2.76h-2.76ZM37.89,25.33v-2.76h2.76v2.76h-2.76ZM37.89,25.33v-2.76h2.76v2.76h-2.76ZM37.89,29.09v-2.76h2.76v2.76h-2.76ZM37.89,29.09v-2.76h2.76v2.76h-2.76ZM37.89,29.09v-2.76h2.76v2.76h-2.76ZM37.89,29.09v-2.76h2.76v2.76h-2.76ZM37.89,32.85v-2.76h2.76v2.76h-2.76ZM37.89,32.85v-2.76h2.76v2.76h-2.76ZM37.89,32.85v-2.76h2.76v2.76h-2.76ZM37.89,32.85v-2.76h2.76v2.76h-2.76ZM37.89,36.61v-2.76h2.76v2.76h-2.76ZM37.89,36.61v-2.76h2.76v2.76h-2.76ZM37.89,36.61v-2.76h2.76v2.76h-2.76ZM37.89,36.61v-2.76h2.76v2.76h-2.76ZM37.89,40.37v-2.76h2.76v2.76h-2.76ZM37.89,40.37v-2.76h2.76v2.76h-2.76ZM37.89,40.37v-2.76h2.76v2.76h-2.76ZM37.89,40.37v-2.76h2.76v2.76h-2.76ZM41.66,17.8v-2.76h2.76v2.76h-2.76ZM41.66,17.8v-2.76h2.76v2.76h-2.76ZM41.66,17.8v-2.76h2.76v2.76h-2.76ZM41.66,17.8v-2.76h2.76v2.76h-2.76ZM41.66,29.09v-2.76h2.76v2.76h-2.76ZM41.66,29.09v-2.76h2.76v2.76h-2.76ZM41.66,29.09v-2.76h2.76v2.76h-2.76ZM41.66,29.09v-2.76h2.76v2.76h-2.76ZM41.66,44.13v-2.76h2.76v2.76h-2.76ZM41.66,44.13v-2.76h2.76v2.76h-2.76ZM41.66,44.13v-2.76h2.76v2.76h-2.76ZM41.66,44.13v-2.76h2.76v2.76h-2.76ZM45.42,17.8v-2.76h2.76v2.76h-2.76ZM45.42,17.8v-2.76h2.76v2.76h-2.76ZM45.42,17.8v-2.76h2.76v2.76h-2.76ZM45.42,17.8v-2.76h2.76v2.76h-2.76ZM45.42,29.09v-2.76h2.76v2.76h-2.76ZM45.42,29.09v-2.76h2.76v2.76h-2.76ZM45.42,29.09v-2.76h2.76v2.76h-2.76ZM45.42,29.09v-2.76h2.76v2.76h-2.76ZM45.42,44.13v-2.76h2.76v2.76h-2.76ZM45.42,44.13v-2.76h2.76v2.76h-2.76ZM45.42,44.13v-2.76h2.76v2.76h-2.76ZM45.42,44.13v-2.76h2.76v2.76h-2.76ZM49.18,17.8v-2.76h2.76v2.76h-2.76ZM49.18,17.8v-2.76h2.76v2.76h-2.76ZM49.18,17.8v-2.76h2.76v2.76h-2.76ZM49.18,17.8v-2.76h2.76v2.76h-2.76ZM49.18,29.09v-2.76h2.76v2.76h-2.76ZM49.18,29.09v-2.76h2.76v2.76h-2.76ZM49.18,29.09v-2.76h2.76v2.76h-2.76ZM49.18,29.09v-2.76h2.76v2.76h-2.76ZM49.18,44.13v-2.76h2.76v2.76h-2.76ZM49.18,44.13v-2.76h2.76v2.76h-2.76ZM49.18,44.13v-2.76h2.76v2.76h-2.76ZM49.18,44.13v-2.76h2.76v2.76h-2.76ZM52.94,21.56v-2.76h2.76v2.76h-2.76ZM52.94,21.56v-2.76h2.76v2.76h-2.76ZM52.94,21.56v-2.76h2.76v2.76h-2.76ZM52.94,21.56v-2.76h2.76v2.76h-2.76ZM52.94,25.33v-2.76h2.76v2.76h-2.76ZM52.94,25.33v-2.76h2.76v2.76h-2.76ZM52.94,25.33v-2.76h2.76v2.76h-2.76ZM52.94,25.33v-2.76h2.76v2.76h-2.76ZM52.94,29.09v-2.76h2.76v2.76h-2.76ZM52.94,29.09v-2.76h2.76v2.76h-2.76ZM52.94,29.09v-2.76h2.76v2.76h-2.76ZM52.94,29.09v-2.76h2.76v2.76h-2.76ZM52.94,40.37v-2.76h2.76v2.76h-2.76ZM52.94,40.37v-2.76h2.76v2.76h-2.76ZM52.94,40.37v-2.76h2.76v2.76h-2.76ZM52.94,40.37v-2.76h2.76v2.76h-2.76ZM66.67,6.52v-2.76h2.76v2.76h-2.76ZM66.67,6.52v-2.76h2.76v2.76h-2.76ZM66.67,6.52v-2.76h2.76v2.76h-2.76ZM66.67,6.52v-2.76h2.76v2.76h-2.76ZM70.43,6.52v-2.76h2.76v2.76h-2.76ZM70.43,6.52v-2.76h2.76v2.76h-2.76ZM70.43,6.52v-2.76h2.76v2.76h-2.76ZM70.43,6.52v-2.76h2.76v2.76h-2.76ZM74.19,6.52v-2.76h2.76v2.76h-2.76ZM74.19,6.52v-2.76h2.76v2.76h-2.76ZM74.19,6.52v-2.76h2.76v2.76h-2.76ZM74.19,6.52v-2.76h2.76v2.76h-2.76ZM74.19,10.28v-2.76h2.76v2.76h-2.76ZM74.19,10.28v-2.76h2.76v2.76h-2.76ZM74.19,10.28v-2.76h2.76v2.76h-2.76ZM74.19,10.28v-2.76h2.76v2.76h-2.76ZM74.19,14.04v-2.76h2.76v2.76h-2.76ZM74.19,14.04v-2.76h2.76v2.76h-2.76ZM74.19,14.04v-2.76h2.76v2.76h-2.76ZM74.19,14.04v-2.76h2.76v2.76h-2.76ZM74.19,17.8v-2.76h2.76v2.76h-2.76ZM74.19,17.8v-2.76h2.76v2.76h-2.76ZM74.19,17.8v-2.76h2.76v2.76h-2.76ZM74.19,17.8v-2.76h2.76v2.76h-2.76ZM74.19,21.56v-2.76h2.76v2.76h-2.76ZM74.19,21.56v-2.76h2.76v2.76h-2.76ZM74.19,21.56v-2.76h2.76v2.76h-2.76ZM74.19,21.56v-2.76h2.76v2.76h-2.76ZM74.19,25.33v-2.76h2.76v2.76h-2.76ZM74.19,25.33v-2.76h2.76v2.76h-2.76ZM74.19,25.33v-2.76h2.76v2.76h-2.76ZM74.19,25.33v-2.76h2.76v2.76h-2.76ZM74.19,29.09v-2.76h2.76v2.76h-2.76ZM74.19,29.09v-2.76h2.76v2.76h-2.76ZM74.19,29.09v-2.76h2.76v2.76h-2.76ZM74.19,29.09v-2.76h2.76v2.76h-2.76ZM74.19,32.85v-2.76h2.76v2.76h-2.76ZM74.19,32.85v-2.76h2.76v2.76h-2.76ZM74.19,32.85v-2.76h2.76v2.76h-2.76ZM74.19,32.85v-2.76h2.76v2.76h-2.76ZM74.19,36.61v-2.76h2.76v2.76h-2.76ZM74.19,36.61v-2.76h2.76v2.76h-2.76ZM74.19,36.61v-2.76h2.76v2.76h-2.76ZM74.19,36.61v-2.76h2.76v2.76h-2.76ZM74.19,40.37v-2.76h2.76v2.76h-2.76ZM74.19,40.37v-2.76h2.76v2.76h-2.76ZM74.19,40.37v-2.76h2.76v2.76h-2.76ZM74.19,40.37v-2.76h2.76v2.76h-2.76ZM74.19,44.13v-2.76h2.76v2.76h-2.76ZM74.19,44.13v-2.76h2.76v2.76h-2.76ZM74.19,44.13v-2.76h2.76v2.76h-2.76ZM74.19,44.13v-2.76h2.76v2.76h-2.76ZM77.95,6.52v-2.76h2.76v2.76h-2.76ZM77.95,6.52v-2.76h2.76v2.76h-2.76ZM77.95,6.52v-2.76h2.76v2.76h-2.76ZM77.95,6.52v-2.76h2.76v2.76h-2.76ZM81.71,6.52v-2.76h2.76v2.76h-2.76ZM81.71,6.52v-2.76h2.76v2.76h-2.76ZM81.71,6.52v-2.76h2.76v2.76h-2.76ZM81.71,6.52v-2.76h2.76v2.76h-2.76ZM87.64,2.76V0h2.76v2.76h-2.76ZM87.64,2.76V0h2.76v2.76h-2.76ZM87.64,2.76V0h2.76v2.76h-2.76ZM87.64,2.76V0h2.76v2.76h-2.76ZM87.64,6.52v-2.76h2.76v2.76h-2.76ZM87.64,6.52v-2.76h2.76v2.76h-2.76ZM87.64,6.52v-2.76h2.76v2.76h-2.76ZM87.64,6.52v-2.76h2.76v2.76h-2.76ZM87.64,10.28v-2.76h2.76v2.76h-2.76ZM87.64,10.28v-2.76h2.76v2.76h-2.76ZM87.64,10.28v-2.76h2.76v2.76h-2.76ZM87.64,10.28v-2.76h2.76v2.76h-2.76ZM87.64,14.04v-2.76h2.76v2.76h-2.76ZM87.64,14.04v-2.76h2.76v2.76h-2.76ZM87.64,14.04v-2.76h2.76v2.76h-2.76ZM87.64,14.04v-2.76h2.76v2.76h-2.76ZM87.64,17.8v-2.76h2.76v2.76h-2.76ZM87.64,17.8v-2.76h2.76v2.76h-2.76ZM87.64,17.8v-2.76h2.76v2.76h-2.76ZM87.64,17.8v-2.76h2.76v2.76h-2.76ZM87.64,21.56v-2.76h2.76v2.76h-2.76ZM87.64,21.56v-2.76h2.76v2.76h-2.76ZM87.64,21.56v-2.76h2.76v2.76h-2.76ZM87.64,21.56v-2.76h2.76v2.76h-2.76ZM87.64,25.33v-2.76h2.76v2.76h-2.76ZM87.64,25.33v-2.76h2.76v2.76h-2.76ZM87.64,25.33v-2.76h2.76v2.76h-2.76ZM87.64,25.33v-2.76h2.76v2.76h-2.76ZM87.64,29.09v-2.76h2.76v2.76h-2.76ZM87.64,29.09v-2.76h2.76v2.76h-2.76ZM87.64,29.09v-2.76h2.76v2.76h-2.76ZM87.64,29.09v-2.76h2.76v2.76h-2.76ZM87.64,32.85v-2.76h2.76v2.76h-2.76ZM87.64,32.85v-2.76h2.76v2.76h-2.76ZM87.64,32.85v-2.76h2.76v2.76h-2.76ZM87.64,32.85v-2.76h2.76v2.76h-2.76ZM87.64,36.61v-2.76h2.76v2.76h-2.76ZM87.64,36.61v-2.76h2.76v2.76h-2.76ZM87.64,36.61v-2.76h2.76v2.76h-2.76ZM87.64,36.61v-2.76h2.76v2.76h-2.76ZM87.64,40.37v-2.76h2.76v2.76h-2.76ZM87.64,40.37v-2.76h2.76v2.76h-2.76ZM87.64,40.37v-2.76h2.76v2.76h-2.76ZM87.64,40.37v-2.76h2.76v2.76h-2.76ZM87.64,44.13v-2.76h2.76v2.76h-2.76ZM87.64,44.13v-2.76h2.76v2.76h-2.76ZM87.64,44.13v-2.76h2.76v2.76h-2.76ZM87.64,44.13v-2.76h2.76v2.76h-2.76ZM91.4,21.56v-2.76h2.76v2.76h-2.76ZM91.4,21.56v-2.76h2.76v2.76h-2.76ZM91.4,21.56v-2.76h2.76v2.76h-2.76ZM91.4,21.56v-2.76h2.76v2.76h-2.76ZM95.16,17.8v-2.76h2.76v2.76h-2.76ZM95.16,17.8v-2.76h2.76v2.76h-2.76ZM95.16,17.8v-2.76h2.76v2.76h-2.76ZM95.16,17.8v-2.76h2.76v2.76h-2.76ZM98.92,17.8v-2.76h2.76v2.76h-2.76ZM98.92,17.8v-2.76h2.76v2.76h-2.76ZM98.92,17.8v-2.76h2.76v2.76h-2.76ZM98.92,17.8v-2.76h2.76v2.76h-2.76ZM102.68,21.56v-2.76h2.76v2.76h-2.76ZM102.68,21.56v-2.76h2.76v2.76h-2.76ZM102.68,21.56v-2.76h2.76v2.76h-2.76ZM102.68,21.56v-2.76h2.76v2.76h-2.76ZM102.68,25.33v-2.76h2.76v2.76h-2.76ZM102.68,25.33v-2.76h2.76v2.76h-2.76ZM102.68,25.33v-2.76h2.76v2.76h-2.76ZM102.68,25.33v-2.76h2.76v2.76h-2.76ZM102.68,29.09v-2.76h2.76v2.76h-2.76ZM102.68,29.09v-2.76h2.76v2.76h-2.76ZM102.68,29.09v-2.76h2.76v2.76h-2.76ZM102.68,29.09v-2.76h2.76v2.76h-2.76ZM102.68,32.85v-2.76h2.76v2.76h-2.76ZM102.68,32.85v-2.76h2.76v2.76h-2.76ZM102.68,32.85v-2.76h2.76v2.76h-2.76ZM102.68,32.85v-2.76h2.76v2.76h-2.76ZM102.68,36.61v-2.76h2.76v2.76h-2.76ZM102.68,36.61v-2.76h2.76v2.76h-2.76ZM102.68,36.61v-2.76h2.76v2.76h-2.76ZM102.68,36.61v-2.76h2.76v2.76h-2.76ZM102.68,40.37v-2.76h2.76v2.76h-2.76ZM102.68,40.37v-2.76h2.76v2.76h-2.76ZM102.68,40.37v-2.76h2.76v2.76h-2.76ZM102.68,40.37v-2.76h2.76v2.76h-2.76ZM102.68,44.13v-2.76h2.76v2.76h-2.76ZM102.68,44.13v-2.76h2.76v2.76h-2.76ZM102.68,44.13v-2.76h2.76v2.76h-2.76ZM102.68,44.13v-2.76h2.76v2.76h-2.76ZM112.37,21.56v-2.76h2.76v2.76h-2.76ZM112.37,21.56v-2.76h2.76v2.76h-2.76ZM112.37,21.56v-2.76h2.76v2.76h-2.76ZM112.37,21.56v-2.76h2.76v2.76h-2.76ZM112.37,25.33v-2.76h2.76v2.76h-2.76ZM112.37,25.33v-2.76h2.76v2.76h-2.76ZM112.37,25.33v-2.76h2.76v2.76h-2.76ZM112.37,25.33v-2.76h2.76v2.76h-2.76ZM112.37,29.09v-2.76h2.76v2.76h-2.76ZM112.37,29.09v-2.76h2.76v2.76h-2.76ZM112.37,29.09v-2.76h2.76v2.76h-2.76ZM112.37,29.09v-2.76h2.76v2.76h-2.76ZM112.37,32.85v-2.76h2.76v2.76h-2.76ZM112.37,32.85v-2.76h2.76v2.76h-2.76ZM112.37,32.85v-2.76h2.76v2.76h-2.76ZM112.37,32.85v-2.76h2.76v2.76h-2.76ZM112.37,36.61v-2.76h2.76v2.76h-2.76ZM112.37,36.61v-2.76h2.76v2.76h-2.76ZM112.37,36.61v-2.76h2.76v2.76h-2.76ZM112.37,36.61v-2.76h2.76v2.76h-2.76ZM112.37,40.37v-2.76h2.76v2.76h-2.76ZM112.37,40.37v-2.76h2.76v2.76h-2.76ZM112.37,40.37v-2.76h2.76v2.76h-2.76ZM112.37,40.37v-2.76h2.76v2.76h-2.76ZM116.13,17.8v-2.76h2.76v2.76h-2.76ZM116.13,17.8v-2.76h2.76v2.76h-2.76ZM116.13,17.8v-2.76h2.76v2.76h-2.76ZM116.13,17.8v-2.76h2.76v2.76h-2.76ZM116.13,29.09v-2.76h2.76v2.76h-2.76ZM116.13,29.09v-2.76h2.76v2.76h-2.76ZM116.13,29.09v-2.76h2.76v2.76h-2.76ZM116.13,29.09v-2.76h2.76v2.76h-2.76ZM116.13,44.13v-2.76h2.76v2.76h-2.76ZM116.13,44.13v-2.76h2.76v2.76h-2.76ZM116.13,44.13v-2.76h2.76v2.76h-2.76ZM116.13,44.13v-2.76h2.76v2.76h-2.76ZM119.89,17.8v-2.76h2.76v2.76h-2.76ZM119.89,17.8v-2.76h2.76v2.76h-2.76ZM119.89,17.8v-2.76h2.76v2.76h-2.76ZM119.89,17.8v-2.76h2.76v2.76h-2.76ZM119.89,29.09v-2.76h2.76v2.76h-2.76ZM119.89,29.09v-2.76h2.76v2.76h-2.76ZM119.89,29.09v-2.76h2.76v2.76h-2.76ZM119.89,29.09v-2.76h2.76v2.76h-2.76ZM119.89,44.13v-2.76h2.76v2.76h-2.76ZM119.89,44.13v-2.76h2.76v2.76h-2.76ZM119.89,44.13v-2.76h2.76v2.76h-2.76ZM119.89,44.13v-2.76h2.76v2.76h-2.76ZM123.65,17.8v-2.76h2.76v2.76h-2.76ZM123.65,17.8v-2.76h2.76v2.76h-2.76ZM123.65,17.8v-2.76h2.76v2.76h-2.76ZM123.65,17.8v-2.76h2.76v2.76h-2.76ZM123.65,29.09v-2.76h2.76v2.76h-2.76ZM123.65,29.09v-2.76h2.76v2.76h-2.76ZM123.65,29.09v-2.76h2.76v2.76h-2.76ZM123.65,29.09v-2.76h2.76v2.76h-2.76ZM123.65,44.13v-2.76h2.76v2.76h-2.76ZM123.65,44.13v-2.76h2.76v2.76h-2.76ZM123.65,44.13v-2.76h2.76v2.76h-2.76ZM123.65,44.13v-2.76h2.76v2.76h-2.76ZM127.41,21.56v-2.76h2.76v2.76h-2.76ZM127.41,21.56v-2.76h2.76v2.76h-2.76ZM127.41,21.56v-2.76h2.76v2.76h-2.76ZM127.41,21.56v-2.76h2.76v2.76h-2.76ZM127.41,25.33v-2.76h2.76v2.76h-2.76ZM127.41,25.33v-2.76h2.76v2.76h-2.76ZM127.41,25.33v-2.76h2.76v2.76h-2.76ZM127.41,25.33v-2.76h2.76v2.76h-2.76ZM127.41,29.09v-2.76h2.76v2.76h-2.76ZM127.41,29.09v-2.76h2.76v2.76h-2.76ZM127.41,29.09v-2.76h2.76v2.76h-2.76ZM127.41,29.09v-2.76h2.76v2.76h-2.76ZM127.41,40.37v-2.76h2.76v2.76h-2.76ZM127.41,40.37v-2.76h2.76v2.76h-2.76ZM127.41,40.37v-2.76h2.76v2.76h-2.76ZM127.41,40.37v-2.76h2.76v2.76h-2.76ZM144.9,6.52v-2.76h2.76v2.76h-2.76ZM144.9,6.52v-2.76h2.76v2.76h-2.76ZM144.9,6.52v-2.76h2.76v2.76h-2.76ZM144.9,6.52v-2.76h2.76v2.76h-2.76ZM144.9,10.28v-2.76h2.76v2.76h-2.76ZM144.9,10.28v-2.76h2.76v2.76h-2.76ZM144.9,10.28v-2.76h2.76v2.76h-2.76ZM144.9,10.28v-2.76h2.76v2.76h-2.76ZM144.9,14.04v-2.76h2.76v2.76h-2.76ZM144.9,14.04v-2.76h2.76v2.76h-2.76ZM144.9,14.04v-2.76h2.76v2.76h-2.76ZM144.9,14.04v-2.76h2.76v2.76h-2.76ZM144.9,17.8v-2.76h2.76v2.76h-2.76ZM144.9,17.8v-2.76h2.76v2.76h-2.76ZM144.9,17.8v-2.76h2.76v2.76h-2.76ZM144.9,17.8v-2.76h2.76v2.76h-2.76ZM144.9,21.56v-2.76h2.76v2.76h-2.76ZM144.9,21.56v-2.76h2.76v2.76h-2.76ZM144.9,21.56v-2.76h2.76v2.76h-2.76ZM144.9,21.56v-2.76h2.76v2.76h-2.76ZM144.9,25.33v-2.76h2.76v2.76h-2.76ZM144.9,25.33v-2.76h2.76v2.76h-2.76ZM144.9,25.33v-2.76h2.76v2.76h-2.76ZM144.9,25.33v-2.76h2.76v2.76h-2.76ZM144.9,29.09v-2.76h2.76v2.76h-2.76ZM144.9,29.09v-2.76h2.76v2.76h-2.76ZM144.9,29.09v-2.76h2.76v2.76h-2.76ZM144.9,29.09v-2.76h2.76v2.76h-2.76ZM144.9,32.85v-2.76h2.76v2.76h-2.76ZM144.9,32.85v-2.76h2.76v2.76h-2.76ZM144.9,32.85v-2.76h2.76v2.76h-2.76ZM144.9,32.85v-2.76h2.76v2.76h-2.76ZM144.9,36.61v-2.76h2.76v2.76h-2.76ZM144.9,36.61v-2.76h2.76v2.76h-2.76ZM144.9,36.61v-2.76h2.76v2.76h-2.76ZM144.9,36.61v-2.76h2.76v2.76h-2.76ZM144.9,40.37v-2.76h2.76v2.76h-2.76ZM144.9,40.37v-2.76h2.76v2.76h-2.76ZM144.9,40.37v-2.76h2.76v2.76h-2.76ZM144.9,40.37v-2.76h2.76v2.76h-2.76ZM144.9,44.13v-2.76h2.76v2.76h-2.76ZM144.9,44.13v-2.76h2.76v2.76h-2.76ZM144.9,44.13v-2.76h2.76v2.76h-2.76ZM144.9,44.13v-2.76h2.76v2.76h-2.76ZM148.66,6.52v-2.76h2.76v2.76h-2.76ZM148.66,6.52v-2.76h2.76v2.76h-2.76ZM148.66,6.52v-2.76h2.76v2.76h-2.76ZM148.66,6.52v-2.76h2.76v2.76h-2.76ZM148.66,29.09v-2.76h2.76v2.76h-2.76ZM148.66,29.09v-2.76h2.76v2.76h-2.76ZM148.66,29.09v-2.76h2.76v2.76h-2.76ZM148.66,29.09v-2.76h2.76v2.76h-2.76ZM152.42,6.52v-2.76h2.76v2.76h-2.76ZM152.42,6.52v-2.76h2.76v2.76h-2.76ZM152.42,6.52v-2.76h2.76v2.76h-2.76ZM152.42,6.52v-2.76h2.76v2.76h-2.76ZM152.42,29.09v-2.76h2.76v2.76h-2.76ZM152.42,29.09v-2.76h2.76v2.76h-2.76ZM152.42,29.09v-2.76h2.76v2.76h-2.76ZM152.42,29.09v-2.76h2.76v2.76h-2.76ZM156.18,6.52v-2.76h2.76v2.76h-2.76ZM156.18,6.52v-2.76h2.76v2.76h-2.76ZM156.18,6.52v-2.76h2.76v2.76h-2.76ZM156.18,6.52v-2.76h2.76v2.76h-2.76ZM156.18,29.09v-2.76h2.76v2.76h-2.76ZM156.18,29.09v-2.76h2.76v2.76h-2.76ZM156.18,29.09v-2.76h2.76v2.76h-2.76ZM156.18,29.09v-2.76h2.76v2.76h-2.76ZM159.94,10.28v-2.76h2.76v2.76h-2.76ZM159.94,10.28v-2.76h2.76v2.76h-2.76ZM159.94,10.28v-2.76h2.76v2.76h-2.76ZM159.94,10.28v-2.76h2.76v2.76h-2.76ZM159.94,14.04v-2.76h2.76v2.76h-2.76ZM159.94,14.04v-2.76h2.76v2.76h-2.76ZM159.94,14.04v-2.76h2.76v2.76h-2.76ZM159.94,14.04v-2.76h2.76v2.76h-2.76ZM159.94,17.8v-2.76h2.76v2.76h-2.76ZM159.94,17.8v-2.76h2.76v2.76h-2.76ZM159.94,17.8v-2.76h2.76v2.76h-2.76ZM159.94,17.8v-2.76h2.76v2.76h-2.76ZM159.94,21.56v-2.76h2.76v2.76h-2.76ZM159.94,21.56v-2.76h2.76v2.76h-2.76ZM159.94,21.56v-2.76h2.76v2.76h-2.76ZM159.94,21.56v-2.76h2.76v2.76h-2.76ZM159.94,25.33v-2.76h2.76v2.76h-2.76ZM159.94,25.33v-2.76h2.76v2.76h-2.76ZM159.94,25.33v-2.76h2.76v2.76h-2.76ZM159.94,25.33v-2.76h2.76v2.76h-2.76ZM167.75,21.56v-2.76h2.76v2.76h-2.76ZM167.75,21.56v-2.76h2.76v2.76h-2.76ZM167.75,21.56v-2.76h2.76v2.76h-2.76ZM167.75,21.56v-2.76h2.76v2.76h-2.76ZM167.75,25.33v-2.76h2.76v2.76h-2.76ZM167.75,25.33v-2.76h2.76v2.76h-2.76ZM167.75,25.33v-2.76h2.76v2.76h-2.76ZM167.75,25.33v-2.76h2.76v2.76h-2.76ZM167.75,29.09v-2.76h2.76v2.76h-2.76ZM167.75,29.09v-2.76h2.76v2.76h-2.76ZM167.75,29.09v-2.76h2.76v2.76h-2.76ZM167.75,29.09v-2.76h2.76v2.76h-2.76ZM167.75,32.85v-2.76h2.76v2.76h-2.76ZM167.75,32.85v-2.76h2.76v2.76h-2.76ZM167.75,32.85v-2.76h2.76v2.76h-2.76ZM167.75,32.85v-2.76h2.76v2.76h-2.76ZM167.75,36.61v-2.76h2.76v2.76h-2.76ZM167.75,36.61v-2.76h2.76v2.76h-2.76ZM167.75,36.61v-2.76h2.76v2.76h-2.76ZM167.75,36.61v-2.76h2.76v2.76h-2.76ZM167.75,40.37v-2.76h2.76v2.76h-2.76ZM167.75,40.37v-2.76h2.76v2.76h-2.76ZM167.75,40.37v-2.76h2.76v2.76h-2.76ZM167.75,40.37v-2.76h2.76v2.76h-2.76ZM171.51,17.8v-2.76h2.76v2.76h-2.76ZM171.51,17.8v-2.76h2.76v2.76h-2.76ZM171.51,17.8v-2.76h2.76v2.76h-2.76ZM171.51,17.8v-2.76h2.76v2.76h-2.76ZM171.51,29.09v-2.76h2.76v2.76h-2.76ZM171.51,29.09v-2.76h2.76v2.76h-2.76ZM171.51,29.09v-2.76h2.76v2.76h-2.76ZM171.51,29.09v-2.76h2.76v2.76h-2.76ZM171.51,44.13v-2.76h2.76v2.76h-2.76ZM171.51,44.13v-2.76h2.76v2.76h-2.76ZM171.51,44.13v-2.76h2.76v2.76h-2.76ZM171.51,44.13v-2.76h2.76v2.76h-2.76ZM175.27,17.8v-2.76h2.76v2.76h-2.76ZM175.27,17.8v-2.76h2.76v2.76h-2.76ZM175.27,17.8v-2.76h2.76v2.76h-2.76ZM175.27,17.8v-2.76h2.76v2.76h-2.76ZM175.27,29.09v-2.76h2.76v2.76h-2.76ZM175.27,29.09v-2.76h2.76v2.76h-2.76ZM175.27,29.09v-2.76h2.76v2.76h-2.76ZM175.27,29.09v-2.76h2.76v2.76h-2.76ZM175.27,44.13v-2.76h2.76v2.76h-2.76ZM175.27,44.13v-2.76h2.76v2.76h-2.76ZM175.27,44.13v-2.76h2.76v2.76h-2.76ZM175.27,44.13v-2.76h2.76v2.76h-2.76ZM179.03,17.8v-2.76h2.76v2.76h-2.76ZM179.03,17.8v-2.76h2.76v2.76h-2.76ZM179.03,17.8v-2.76h2.76v2.76h-2.76ZM179.03,17.8v-2.76h2.76v2.76h-2.76ZM179.03,29.09v-2.76h2.76v2.76h-2.76ZM179.03,29.09v-2.76h2.76v2.76h-2.76ZM179.03,29.09v-2.76h2.76v2.76h-2.76ZM179.03,29.09v-2.76h2.76v2.76h-2.76ZM179.03,44.13v-2.76h2.76v2.76h-2.76ZM179.03,44.13v-2.76h2.76v2.76h-2.76ZM179.03,44.13v-2.76h2.76v2.76h-2.76ZM179.03,44.13v-2.76h2.76v2.76h-2.76ZM182.79,21.56v-2.76h2.76v2.76h-2.76ZM182.79,21.56v-2.76h2.76v2.76h-2.76ZM182.79,21.56v-2.76h2.76v2.76h-2.76ZM182.79,21.56v-2.76h2.76v2.76h-2.76ZM182.79,25.33v-2.76h2.76v2.76h-2.76ZM182.79,25.33v-2.76h2.76v2.76h-2.76ZM182.79,25.33v-2.76h2.76v2.76h-2.76ZM182.79,25.33v-2.76h2.76v2.76h-2.76ZM182.79,29.09v-2.76h2.76v2.76h-2.76ZM182.79,29.09v-2.76h2.76v2.76h-2.76ZM182.79,29.09v-2.76h2.76v2.76h-2.76ZM182.79,29.09v-2.76h2.76v2.76h-2.76ZM182.79,40.37v-2.76h2.76v2.76h-2.76ZM182.79,40.37v-2.76h2.76v2.76h-2.76ZM182.79,40.37v-2.76h2.76v2.76h-2.76ZM182.79,40.37v-2.76h2.76v2.76h-2.76ZM190.6,21.56v-2.76h2.76v2.76h-2.76ZM190.6,21.56v-2.76h2.76v2.76h-2.76ZM190.6,21.56v-2.76h2.76v2.76h-2.76ZM190.6,21.56v-2.76h2.76v2.76h-2.76ZM190.6,25.33v-2.76h2.76v2.76h-2.76ZM190.6,25.33v-2.76h2.76v2.76h-2.76ZM190.6,25.33v-2.76h2.76v2.76h-2.76ZM190.6,25.33v-2.76h2.76v2.76h-2.76ZM190.6,29.09v-2.76h2.76v2.76h-2.76ZM190.6,29.09v-2.76h2.76v2.76h-2.76ZM190.6,29.09v-2.76h2.76v2.76h-2.76ZM190.6,29.09v-2.76h2.76v2.76h-2.76ZM190.6,32.85v-2.76h2.76v2.76h-2.76ZM190.6,32.85v-2.76h2.76v2.76h-2.76ZM190.6,32.85v-2.76h2.76v2.76h-2.76ZM190.6,32.85v-2.76h2.76v2.76h-2.76ZM190.6,36.61v-2.76h2.76v2.76h-2.76ZM190.6,36.61v-2.76h2.76v2.76h-2.76ZM190.6,36.61v-2.76h2.76v2.76h-2.76ZM190.6,36.61v-2.76h2.76v2.76h-2.76ZM190.6,40.37v-2.76h2.76v2.76h-2.76ZM190.6,40.37v-2.76h2.76v2.76h-2.76ZM190.6,40.37v-2.76h2.76v2.76h-2.76ZM190.6,40.37v-2.76h2.76v2.76h-2.76ZM194.36,17.8v-2.76h2.76v2.76h-2.76ZM194.36,17.8v-2.76h2.76v2.76h-2.76ZM194.36,17.8v-2.76h2.76v2.76h-2.76ZM194.36,17.8v-2.76h2.76v2.76h-2.76ZM194.36,44.13v-2.76h2.76v2.76h-2.76ZM194.36,44.13v-2.76h2.76v2.76h-2.76ZM194.36,44.13v-2.76h2.76v2.76h-2.76ZM194.36,44.13v-2.76h2.76v2.76h-2.76ZM198.12,17.8v-2.76h2.76v2.76h-2.76ZM198.12,17.8v-2.76h2.76v2.76h-2.76ZM198.12,17.8v-2.76h2.76v2.76h-2.76ZM198.12,17.8v-2.76h2.76v2.76h-2.76ZM198.12,44.13v-2.76h2.76v2.76h-2.76ZM198.12,44.13v-2.76h2.76v2.76h-2.76ZM198.12,44.13v-2.76h2.76v2.76h-2.76ZM198.12,44.13v-2.76h2.76v2.76h-2.76ZM201.88,17.8v-2.76h2.76v2.76h-2.76ZM201.88,17.8v-2.76h2.76v2.76h-2.76ZM201.88,17.8v-2.76h2.76v2.76h-2.76ZM201.88,17.8v-2.76h2.76v2.76h-2.76ZM201.88,44.13v-2.76h2.76v2.76h-2.76ZM201.88,44.13v-2.76h2.76v2.76h-2.76ZM201.88,44.13v-2.76h2.76v2.76h-2.76ZM201.88,44.13v-2.76h2.76v2.76h-2.76ZM205.64,21.56v-2.76h2.76v2.76h-2.76ZM205.64,21.56v-2.76h2.76v2.76h-2.76ZM205.64,21.56v-2.76h2.76v2.76h-2.76ZM205.64,21.56v-2.76h2.76v2.76h-2.76ZM205.64,25.33v-2.76h2.76v2.76h-2.76ZM205.64,25.33v-2.76h2.76v2.76h-2.76ZM205.64,25.33v-2.76h2.76v2.76h-2.76ZM205.64,25.33v-2.76h2.76v2.76h-2.76ZM205.64,29.09v-2.76h2.76v2.76h-2.76ZM205.64,29.09v-2.76h2.76v2.76h-2.76ZM205.64,29.09v-2.76h2.76v2.76h-2.76ZM205.64,29.09v-2.76h2.76v2.76h-2.76ZM205.64,32.85v-2.76h2.76v2.76h-2.76ZM205.64,32.85v-2.76h2.76v2.76h-2.76ZM205.64,32.85v-2.76h2.76v2.76h-2.76ZM205.64,32.85v-2.76h2.76v2.76h-2.76ZM205.64,36.61v-2.76h2.76v2.76h-2.76ZM205.64,36.61v-2.76h2.76v2.76h-2.76ZM205.64,36.61v-2.76h2.76v2.76h-2.76ZM205.64,36.61v-2.76h2.76v2.76h-2.76ZM205.64,40.37v-2.76h2.76v2.76h-2.76ZM205.64,40.37v-2.76h2.76v2.76h-2.76ZM205.64,40.37v-2.76h2.76v2.76h-2.76ZM205.64,40.37v-2.76h2.76v2.76h-2.76ZM215.33,17.8v-2.76h2.76v2.76h-2.76ZM215.33,17.8v-2.76h2.76v2.76h-2.76ZM215.33,17.8v-2.76h2.76v2.76h-2.76ZM215.33,17.8v-2.76h2.76v2.76h-2.76ZM215.33,21.56v-2.76h2.76v2.76h-2.76ZM215.33,21.56v-2.76h2.76v2.76h-2.76ZM215.33,21.56v-2.76h2.76v2.76h-2.76ZM215.33,21.56v-2.76h2.76v2.76h-2.76ZM215.33,25.33v-2.76h2.76v2.76h-2.76ZM215.33,25.33v-2.76h2.76v2.76h-2.76ZM215.33,25.33v-2.76h2.76v2.76h-2.76ZM215.33,25.33v-2.76h2.76v2.76h-2.76ZM215.33,29.09v-2.76h2.76v2.76h-2.76ZM215.33,29.09v-2.76h2.76v2.76h-2.76ZM215.33,29.09v-2.76h2.76v2.76h-2.76ZM215.33,29.09v-2.76h2.76v2.76h-2.76ZM215.33,32.85v-2.76h2.76v2.76h-2.76ZM215.33,32.85v-2.76h2.76v2.76h-2.76ZM215.33,32.85v-2.76h2.76v2.76h-2.76ZM215.33,32.85v-2.76h2.76v2.76h-2.76ZM215.33,36.61v-2.76h2.76v2.76h-2.76ZM215.33,36.61v-2.76h2.76v2.76h-2.76ZM215.33,36.61v-2.76h2.76v2.76h-2.76ZM215.33,36.61v-2.76h2.76v2.76h-2.76ZM215.33,40.37v-2.76h2.76v2.76h-2.76ZM215.33,40.37v-2.76h2.76v2.76h-2.76ZM215.33,40.37v-2.76h2.76v2.76h-2.76ZM215.33,40.37v-2.76h2.76v2.76h-2.76ZM215.33,44.13v-2.76h2.76v2.76h-2.76ZM215.33,44.13v-2.76h2.76v2.76h-2.76ZM215.33,44.13v-2.76h2.76v2.76h-2.76ZM215.33,44.13v-2.76h2.76v2.76h-2.76ZM215.33,47.89v-2.76h2.76v2.76h-2.76ZM215.33,47.89v-2.76h2.76v2.76h-2.76ZM215.33,47.89v-2.76h2.76v2.76h-2.76ZM215.33,47.89v-2.76h2.76v2.76h-2.76ZM215.33,51.65v-2.76h2.76v2.76h-2.76ZM215.33,51.65v-2.76h2.76v2.76h-2.76ZM215.33,51.65v-2.76h2.76v2.76h-2.76ZM215.33,51.65v-2.76h2.76v2.76h-2.76ZM215.33,55.42v-2.76h2.76v2.76h-2.76ZM215.33,55.42v-2.76h2.76v2.76h-2.76ZM215.33,55.42v-2.76h2.76v2.76h-2.76ZM215.33,55.42v-2.76h2.76v2.76h-2.76ZM219.09,21.56v-2.76h2.76v2.76h-2.76ZM219.09,21.56v-2.76h2.76v2.76h-2.76ZM219.09,21.56v-2.76h2.76v2.76h-2.76ZM219.09,21.56v-2.76h2.76v2.76h-2.76ZM219.09,40.37v-2.76h2.76v2.76h-2.76ZM219.09,40.37v-2.76h2.76v2.76h-2.76ZM219.09,40.37v-2.76h2.76v2.76h-2.76ZM219.09,40.37v-2.76h2.76v2.76h-2.76ZM222.85,17.8v-2.76h2.76v2.76h-2.76ZM222.85,17.8v-2.76h2.76v2.76h-2.76ZM222.85,17.8v-2.76h2.76v2.76h-2.76ZM222.85,17.8v-2.76h2.76v2.76h-2.76ZM222.85,44.13v-2.76h2.76v2.76h-2.76ZM222.85,44.13v-2.76h2.76v2.76h-2.76ZM222.85,44.13v-2.76h2.76v2.76h-2.76ZM222.85,44.13v-2.76h2.76v2.76h-2.76ZM226.61,17.8v-2.76h2.76v2.76h-2.76ZM226.61,17.8v-2.76h2.76v2.76h-2.76ZM226.61,17.8v-2.76h2.76v2.76h-2.76ZM226.61,17.8v-2.76h2.76v2.76h-2.76ZM226.61,44.13v-2.76h2.76v2.76h-2.76ZM226.61,44.13v-2.76h2.76v2.76h-2.76ZM226.61,44.13v-2.76h2.76v2.76h-2.76ZM226.61,44.13v-2.76h2.76v2.76h-2.76ZM230.37,21.56v-2.76h2.76v2.76h-2.76ZM230.37,21.56v-2.76h2.76v2.76h-2.76ZM230.37,21.56v-2.76h2.76v2.76h-2.76ZM230.37,21.56v-2.76h2.76v2.76h-2.76ZM230.37,25.33v-2.76h2.76v2.76h-2.76ZM230.37,25.33v-2.76h2.76v2.76h-2.76ZM230.37,25.33v-2.76h2.76v2.76h-2.76ZM230.37,25.33v-2.76h2.76v2.76h-2.76ZM230.37,29.09v-2.76h2.76v2.76h-2.76ZM230.37,29.09v-2.76h2.76v2.76h-2.76ZM230.37,29.09v-2.76h2.76v2.76h-2.76ZM230.37,29.09v-2.76h2.76v2.76h-2.76ZM230.37,32.85v-2.76h2.76v2.76h-2.76ZM230.37,32.85v-2.76h2.76v2.76h-2.76ZM230.37,32.85v-2.76h2.76v2.76h-2.76ZM230.37,32.85v-2.76h2.76v2.76h-2.76ZM230.37,36.61v-2.76h2.76v2.76h-2.76ZM230.37,36.61v-2.76h2.76v2.76h-2.76ZM230.37,36.61v-2.76h2.76v2.76h-2.76ZM230.37,36.61v-2.76h2.76v2.76h-2.76ZM230.37,40.37v-2.76h2.76v2.76h-2.76ZM230.37,40.37v-2.76h2.76v2.76h-2.76ZM230.37,40.37v-2.76h2.76v2.76h-2.76ZM230.37,40.37v-2.76h2.76v2.76h-2.76ZM240.06,2.76V0h2.76v2.76h-2.76ZM240.06,2.76V0h2.76v2.76h-2.76ZM240.06,2.76V0h2.76v2.76h-2.76ZM240.06,2.76V0h2.76v2.76h-2.76ZM240.06,6.52v-2.76h2.76v2.76h-2.76ZM240.06,6.52v-2.76h2.76v2.76h-2.76ZM240.06,6.52v-2.76h2.76v2.76h-2.76ZM240.06,6.52v-2.76h2.76v2.76h-2.76ZM240.06,10.28v-2.76h2.76v2.76h-2.76ZM240.06,10.28v-2.76h2.76v2.76h-2.76ZM240.06,10.28v-2.76h2.76v2.76h-2.76ZM240.06,10.28v-2.76h2.76v2.76h-2.76ZM240.06,14.04v-2.76h2.76v2.76h-2.76ZM240.06,14.04v-2.76h2.76v2.76h-2.76ZM240.06,14.04v-2.76h2.76v2.76h-2.76ZM240.06,14.04v-2.76h2.76v2.76h-2.76ZM240.06,17.8v-2.76h2.76v2.76h-2.76ZM240.06,17.8v-2.76h2.76v2.76h-2.76ZM240.06,17.8v-2.76h2.76v2.76h-2.76ZM240.06,17.8v-2.76h2.76v2.76h-2.76ZM240.06,21.56v-2.76h2.76v2.76h-2.76ZM240.06,21.56v-2.76h2.76v2.76h-2.76ZM240.06,21.56v-2.76h2.76v2.76h-2.76ZM240.06,21.56v-2.76h2.76v2.76h-2.76ZM240.06,25.33v-2.76h2.76v2.76h-2.76ZM240.06,25.33v-2.76h2.76v2.76h-2.76ZM240.06,25.33v-2.76h2.76v2.76h-2.76ZM240.06,25.33v-2.76h2.76v2.76h-2.76ZM240.06,29.09v-2.76h2.76v2.76h-2.76ZM240.06,29.09v-2.76h2.76v2.76h-2.76ZM240.06,29.09v-2.76h2.76v2.76h-2.76ZM240.06,29.09v-2.76h2.76v2.76h-2.76ZM240.06,32.85v-2.76h2.76v2.76h-2.76ZM240.06,32.85v-2.76h2.76v2.76h-2.76ZM240.06,32.85v-2.76h2.76v2.76h-2.76ZM240.06,32.85v-2.76h2.76v2.76h-2.76ZM240.06,36.61v-2.76h2.76v2.76h-2.76ZM240.06,36.61v-2.76h2.76v2.76h-2.76ZM240.06,36.61v-2.76h2.76v2.76h-2.76ZM240.06,36.61v-2.76h2.76v2.76h-2.76ZM240.06,40.37v-2.76h2.76v2.76h-2.76ZM240.06,40.37v-2.76h2.76v2.76h-2.76ZM240.06,40.37v-2.76h2.76v2.76h-2.76ZM240.06,40.37v-2.76h2.76v2.76h-2.76ZM240.06,44.13v-2.76h2.76v2.76h-2.76ZM240.06,44.13v-2.76h2.76v2.76h-2.76ZM240.06,44.13v-2.76h2.76v2.76h-2.76ZM240.06,44.13v-2.76h2.76v2.76h-2.76ZM249.74,21.56v-2.76h2.76v2.76h-2.76ZM249.74,21.56v-2.76h2.76v2.76h-2.76ZM249.74,21.56v-2.76h2.76v2.76h-2.76ZM249.74,21.56v-2.76h2.76v2.76h-2.76ZM249.74,25.33v-2.76h2.76v2.76h-2.76ZM249.74,25.33v-2.76h2.76v2.76h-2.76ZM249.74,25.33v-2.76h2.76v2.76h-2.76ZM249.74,25.33v-2.76h2.76v2.76h-2.76ZM249.74,29.09v-2.76h2.76v2.76h-2.76ZM249.74,29.09v-2.76h2.76v2.76h-2.76ZM249.74,29.09v-2.76h2.76v2.76h-2.76ZM249.74,29.09v-2.76h2.76v2.76h-2.76ZM249.74,32.85v-2.76h2.76v2.76h-2.76ZM249.74,32.85v-2.76h2.76v2.76h-2.76ZM249.74,32.85v-2.76h2.76v2.76h-2.76ZM249.74,32.85v-2.76h2.76v2.76h-2.76ZM249.74,36.61v-2.76h2.76v2.76h-2.76ZM249.74,36.61v-2.76h2.76v2.76h-2.76ZM249.74,36.61v-2.76h2.76v2.76h-2.76ZM249.74,36.61v-2.76h2.76v2.76h-2.76ZM249.74,40.37v-2.76h2.76v2.76h-2.76ZM249.74,40.37v-2.76h2.76v2.76h-2.76ZM249.74,40.37v-2.76h2.76v2.76h-2.76ZM249.74,40.37v-2.76h2.76v2.76h-2.76ZM253.5,17.8v-2.76h2.76v2.76h-2.76ZM253.5,17.8v-2.76h2.76v2.76h-2.76ZM253.5,17.8v-2.76h2.76v2.76h-2.76ZM253.5,17.8v-2.76h2.76v2.76h-2.76ZM253.5,29.09v-2.76h2.76v2.76h-2.76ZM253.5,29.09v-2.76h2.76v2.76h-2.76ZM253.5,29.09v-2.76h2.76v2.76h-2.76ZM253.5,29.09v-2.76h2.76v2.76h-2.76ZM253.5,44.13v-2.76h2.76v2.76h-2.76ZM253.5,44.13v-2.76h2.76v2.76h-2.76ZM253.5,44.13v-2.76h2.76v2.76h-2.76ZM253.5,44.13v-2.76h2.76v2.76h-2.76ZM257.26,17.8v-2.76h2.76v2.76h-2.76ZM257.26,17.8v-2.76h2.76v2.76h-2.76ZM257.26,17.8v-2.76h2.76v2.76h-2.76ZM257.26,17.8v-2.76h2.76v2.76h-2.76ZM257.26,29.09v-2.76h2.76v2.76h-2.76ZM257.26,29.09v-2.76h2.76v2.76h-2.76ZM257.26,29.09v-2.76h2.76v2.76h-2.76ZM257.26,29.09v-2.76h2.76v2.76h-2.76ZM257.26,44.13v-2.76h2.76v2.76h-2.76ZM257.26,44.13v-2.76h2.76v2.76h-2.76ZM257.26,44.13v-2.76h2.76v2.76h-2.76ZM257.26,44.13v-2.76h2.76v2.76h-2.76ZM261.03,17.8v-2.76h2.76v2.76h-2.76ZM261.03,17.8v-2.76h2.76v2.76h-2.76ZM261.03,17.8v-2.76h2.76v2.76h-2.76ZM261.03,17.8v-2.76h2.76v2.76h-2.76ZM261.03,29.09v-2.76h2.76v2.76h-2.76ZM261.03,29.09v-2.76h2.76v2.76h-2.76ZM261.03,29.09v-2.76h2.76v2.76h-2.76ZM261.03,29.09v-2.76h2.76v2.76h-2.76ZM261.03,44.13v-2.76h2.76v2.76h-2.76ZM261.03,44.13v-2.76h2.76v2.76h-2.76ZM261.03,44.13v-2.76h2.76v2.76h-2.76ZM261.03,44.13v-2.76h2.76v2.76h-2.76ZM264.79,21.56v-2.76h2.76v2.76h-2.76ZM264.79,21.56v-2.76h2.76v2.76h-2.76ZM264.79,21.56v-2.76h2.76v2.76h-2.76ZM264.79,21.56v-2.76h2.76v2.76h-2.76ZM264.79,25.33v-2.76h2.76v2.76h-2.76ZM264.79,25.33v-2.76h2.76v2.76h-2.76ZM264.79,25.33v-2.76h2.76v2.76h-2.76ZM264.79,25.33v-2.76h2.76v2.76h-2.76ZM264.79,29.09v-2.76h2.76v2.76h-2.76ZM264.79,29.09v-2.76h2.76v2.76h-2.76ZM264.79,29.09v-2.76h2.76v2.76h-2.76ZM264.79,29.09v-2.76h2.76v2.76h-2.76ZM264.79,40.37v-2.76h2.76v2.76h-2.76ZM264.79,40.37v-2.76h2.76v2.76h-2.76ZM264.79,40.37v-2.76h2.76v2.76h-2.76ZM264.79,40.37v-2.76h2.76v2.76h-2.76Z"/></g></svg>