<?xml version="1.0" encoding="UTF-8"?><svg id="Layer_2" xmlns="http://www.w3.org/2000/svg" viewBox="0 0 690.31 181.66"><defs><style>.cls-1{fill:#243345;}</style></defs><g id="Layer_1-2"><path class="cls-1" d="M498.86,0h91.38v67.89c0,32.82-7.77,58.4-23.33,76.74-15.55,18.34-39.09,30.41-68.05,36.2v-33.47c22.09-6.43,38.08-18.45,45.37-36.03,4.07-9.44,5.68-18.34,4.82-26.71h-50.19V0Z"/><path class="cls-1" d="M598.93,0h91.38v67.89c0,32.82-7.77,58.4-23.32,76.74-15.55,18.34-39.1,30.41-68.05,36.2v-33.47c22.1-6.43,38.08-18.45,45.37-36.03,4.07-9.44,5.68-18.34,4.82-26.71h-50.19V0Z"/><path class="cls-1" d="M190.61,84.62h-50.2c-.86,8.37.75,17.27,4.83,26.71,7.29,17.58,23.27,29.6,45.37,36.03v33.47c-28.96-5.79-52.5-17.86-68.05-36.2-15.55-18.34-23.32-43.92-23.32-76.74V0h91.38v84.62ZM91.38,0H0v67.89c0,32.82,7.77,58.4,23.32,76.74,15.55,18.34,39.1,30.41,68.05,36.2v-33.47c-22.1-6.43-38.08-18.45-45.37-36.03-4.07-9.44-5.68-18.34-4.82-26.71h50.19V0Z"/><path class="cls-1" d="M216.69,5.67V0h5.67v5.67h-5.67ZM216.69,5.67V0h5.67v5.67h-5.67ZM216.69,5.67V0h5.67v5.67h-5.67ZM216.69,5.67V0h5.67v5.67h-5.67ZM216.69,13.41v-5.67h5.67v5.67h-5.67ZM216.69,13.41v-5.67h5.67v5.67h-5.67ZM216.69,13.41v-5.67h5.67v5.67h-5.67ZM216.69,13.41v-5.67h5.67v5.67h-5.67ZM216.69,21.14v-5.67h5.67v5.67h-5.67ZM216.69,21.14v-5.67h5.67v5.67h-5.67ZM216.69,21.14v-5.67h5.67v5.67h-5.67ZM216.69,21.14v-5.67h5.67v5.67h-5.67ZM216.69,28.88v-5.67h5.67v5.67h-5.67ZM216.69,28.88v-5.67h5.67v5.67h-5.67ZM216.69,28.88v-5.67h5.67v5.67h-5.67ZM216.69,28.88v-5.67h5.67v5.67h-5.67ZM216.69,36.62v-5.67h5.67v5.67h-5.67ZM216.69,36.62v-5.67h5.67v5.67h-5.67ZM216.69,36.62v-5.67h5.67v5.67h-5.67ZM216.69,36.62v-5.67h5.67v5.67h-5.67ZM216.69,44.35v-5.67h5.67v5.67h-5.67ZM216.69,44.35v-5.67h5.67v5.67h-5.67ZM216.69,44.35v-5.67h5.67v5.67h-5.67ZM216.69,44.35v-5.67h5.67v5.67h-5.67ZM216.69,52.09v-5.67h5.67v5.67h-5.67ZM216.69,52.09v-5.67h5.67v5.67h-5.67ZM216.69,52.09v-5.67h5.67v5.67h-5.67ZM216.69,52.09v-5.67h5.67v5.67h-5.67ZM220.55,59.83v-5.68h5.67v5.68h-5.67ZM220.55,59.83v-5.68h5.67v5.68h-5.67ZM220.55,59.83v-5.68h5.67v5.68h-5.67ZM220.55,59.83v-5.68h5.67v5.68h-5.67ZM224.42,67.56v-5.67h5.67v5.67h-5.67ZM224.42,67.56v-5.67h5.67v5.67h-5.67ZM224.42,67.56v-5.67h5.67v5.67h-5.67ZM224.42,67.56v-5.67h5.67v5.67h-5.67ZM228.29,75.29v-5.67h5.67v5.67h-5.67ZM228.29,75.29v-5.67h5.67v5.67h-5.67ZM228.29,75.29v-5.67h5.67v5.67h-5.67ZM228.29,75.29v-5.67h5.67v5.67h-5.67ZM232.15,83.03v-5.67h5.67v5.67h-5.67ZM232.15,83.03v-5.67h5.67v5.67h-5.67ZM232.15,83.03v-5.67h5.67v5.67h-5.67ZM232.15,83.03v-5.67h5.67v5.67h-5.67ZM236.02,75.29v-5.67h5.68v5.67h-5.68ZM236.02,75.29v-5.67h5.68v5.67h-5.68ZM236.02,75.29v-5.67h5.68v5.67h-5.68ZM236.02,75.29v-5.67h5.68v5.67h-5.68ZM239.89,67.56v-5.67h5.67v5.67h-5.67ZM239.89,67.56v-5.67h5.67v5.67h-5.67ZM239.89,67.56v-5.67h5.67v5.67h-5.67ZM239.89,67.56v-5.67h5.67v5.67h-5.67ZM243.76,59.83v-5.68h5.67v5.68h-5.67ZM243.76,59.83v-5.68h5.67v5.68h-5.67ZM243.76,59.83v-5.68h5.67v5.68h-5.67ZM243.76,59.83v-5.68h5.67v5.68h-5.67ZM247.63,5.67V0h5.67v5.67h-5.67ZM247.63,5.67V0h5.67v5.67h-5.67ZM247.63,5.67V0h5.67v5.67h-5.67ZM247.63,5.67V0h5.67v5.67h-5.67ZM247.63,13.41v-5.67h5.67v5.67h-5.67ZM247.63,13.41v-5.67h5.67v5.67h-5.67ZM247.63,13.41v-5.67h5.67v5.67h-5.67ZM247.63,13.41v-5.67h5.67v5.67h-5.67ZM247.63,21.14v-5.67h5.67v5.67h-5.67ZM247.63,21.14v-5.67h5.67v5.67h-5.67ZM247.63,21.14v-5.67h5.67v5.67h-5.67ZM247.63,21.14v-5.67h5.67v5.67h-5.67ZM247.63,28.88v-5.67h5.67v5.67h-5.67ZM247.63,28.88v-5.67h5.67v5.67h-5.67ZM247.63,28.88v-5.67h5.67v5.67h-5.67ZM247.63,28.88v-5.67h5.67v5.67h-5.67ZM247.63,36.62v-5.67h5.67v5.67h-5.67ZM247.63,36.62v-5.67h5.67v5.67h-5.67ZM247.63,36.62v-5.67h5.67v5.67h-5.67ZM247.63,36.62v-5.67h5.67v5.67h-5.67ZM247.63,44.35v-5.67h5.67v5.67h-5.67ZM247.63,44.35v-5.67h5.67v5.67h-5.67ZM247.63,44.35v-5.67h5.67v5.67h-5.67ZM247.63,44.35v-5.67h5.67v5.67h-5.67ZM247.63,52.09v-5.67h5.67v5.67h-5.67ZM247.63,52.09v-5.67h5.67v5.67h-5.67ZM247.63,52.09v-5.67h5.67v5.67h-5.67ZM247.63,52.09v-5.67h5.67v5.67h-5.67ZM251.5,59.83v-5.68h5.67v5.68h-5.67ZM251.5,59.83v-5.68h5.67v5.68h-5.67ZM251.5,59.83v-5.68h5.67v5.68h-5.67ZM251.5,59.83v-5.68h5.67v5.68h-5.67ZM255.36,67.56v-5.67h5.67v5.67h-5.67ZM255.36,67.56v-5.67h5.67v5.67h-5.67ZM255.36,67.56v-5.67h5.67v5.67h-5.67ZM255.36,67.56v-5.67h5.67v5.67h-5.67ZM259.23,75.29v-5.67h5.67v5.67h-5.67ZM259.23,75.29v-5.67h5.67v5.67h-5.67ZM259.23,75.29v-5.67h5.67v5.67h-5.67ZM259.23,75.29v-5.67h5.67v5.67h-5.67ZM263.1,83.03v-5.67h5.67v5.67h-5.67ZM263.1,83.03v-5.67h5.67v5.67h-5.67ZM263.1,83.03v-5.67h5.67v5.67h-5.67ZM263.1,83.03v-5.67h5.67v5.67h-5.67ZM266.96,75.29v-5.67h5.67v5.67h-5.67ZM266.96,75.29v-5.67h5.67v5.67h-5.67ZM266.96,75.29v-5.67h5.67v5.67h-5.67ZM266.96,75.29v-5.67h5.67v5.67h-5.67ZM270.83,67.56v-5.67h5.68v5.67h-5.68ZM270.83,67.56v-5.67h5.68v5.67h-5.68ZM270.83,67.56v-5.67h5.68v5.67h-5.68ZM270.83,67.56v-5.67h5.68v5.67h-5.68ZM274.7,59.83v-5.68h5.67v5.68h-5.67ZM274.7,59.83v-5.68h5.67v5.68h-5.67ZM274.7,59.83v-5.68h5.67v5.68h-5.67ZM274.7,59.83v-5.68h5.67v5.68h-5.67ZM278.57,5.67V0h5.67v5.67h-5.67ZM278.57,5.67V0h5.67v5.67h-5.67ZM278.57,5.67V0h5.67v5.67h-5.67ZM278.57,5.67V0h5.67v5.67h-5.67ZM278.57,13.41v-5.67h5.67v5.67h-5.67ZM278.57,13.41v-5.67h5.67v5.67h-5.67ZM278.57,13.41v-5.67h5.67v5.67h-5.67ZM278.57,13.41v-5.67h5.67v5.67h-5.67ZM278.57,21.14v-5.67h5.67v5.67h-5.67ZM278.57,21.14v-5.67h5.67v5.67h-5.67ZM278.57,21.14v-5.67h5.67v5.67h-5.67ZM278.57,21.14v-5.67h5.67v5.67h-5.67ZM278.57,28.88v-5.67h5.67v5.67h-5.67ZM278.57,28.88v-5.67h5.67v5.67h-5.67ZM278.57,28.88v-5.67h5.67v5.67h-5.67ZM278.57,28.88v-5.67h5.67v5.67h-5.67ZM278.57,36.62v-5.67h5.67v5.67h-5.67ZM278.57,36.62v-5.67h5.67v5.67h-5.67ZM278.57,36.62v-5.67h5.67v5.67h-5.67ZM278.57,36.62v-5.67h5.67v5.67h-5.67ZM278.57,44.35v-5.67h5.67v5.67h-5.67ZM278.57,44.35v-5.67h5.67v5.67h-5.67ZM278.57,44.35v-5.67h5.67v5.67h-5.67ZM278.57,44.35v-5.67h5.67v5.67h-5.67ZM278.57,52.09v-5.67h5.67v5.67h-5.67ZM278.57,52.09v-5.67h5.67v5.67h-5.67ZM278.57,52.09v-5.67h5.67v5.67h-5.67ZM278.57,52.09v-5.67h5.67v5.67h-5.67ZM294.62,5.67V0h5.67v5.67h-5.67ZM294.62,5.67V0h5.67v5.67h-5.67ZM294.62,5.67V0h5.67v5.67h-5.67ZM294.62,5.67V0h5.67v5.67h-5.67ZM294.62,13.41v-5.67h5.67v5.67h-5.67ZM294.62,13.41v-5.67h5.67v5.67h-5.67ZM294.62,13.41v-5.67h5.67v5.67h-5.67ZM294.62,13.41v-5.67h5.67v5.67h-5.67ZM294.62,21.15v-5.67h5.67v5.67h-5.67ZM294.62,21.15v-5.67h5.67v5.67h-5.67ZM294.62,21.15v-5.67h5.67v5.67h-5.67ZM294.62,21.15v-5.67h5.67v5.67h-5.67ZM294.62,28.88v-5.67h5.67v5.67h-5.67ZM294.62,28.88v-5.67h5.67v5.67h-5.67ZM294.62,28.88v-5.67h5.67v5.67h-5.67ZM294.62,28.88v-5.67h5.67v5.67h-5.67ZM294.62,36.62v-5.67h5.67v5.67h-5.67ZM294.62,36.62v-5.67h5.67v5.67h-5.67ZM294.62,36.62v-5.67h5.67v5.67h-5.67ZM294.62,36.62v-5.67h5.67v5.67h-5.67ZM294.62,44.35v-5.67h5.67v5.67h-5.67ZM294.62,44.35v-5.67h5.67v5.67h-5.67ZM294.62,44.35v-5.67h5.67v5.67h-5.67ZM294.62,44.35v-5.67h5.67v5.67h-5.67ZM294.62,52.09v-5.67h5.67v5.67h-5.67ZM294.62,52.09v-5.67h5.67v5.67h-5.67ZM294.62,52.09v-5.67h5.67v5.67h-5.67ZM294.62,52.09v-5.67h5.67v5.67h-5.67ZM294.62,59.82v-5.67h5.67v5.67h-5.67ZM294.62,59.82v-5.67h5.67v5.67h-5.67ZM294.62,59.82v-5.67h5.67v5.67h-5.67ZM294.62,59.82v-5.67h5.67v5.67h-5.67ZM294.62,67.56v-5.67h5.67v5.67h-5.67ZM294.62,67.56v-5.67h5.67v5.67h-5.67ZM294.62,67.56v-5.67h5.67v5.67h-5.67ZM294.62,67.56v-5.67h5.67v5.67h-5.67ZM294.62,75.29v-5.67h5.67v5.67h-5.67ZM294.62,75.29v-5.67h5.67v5.67h-5.67ZM294.62,75.29v-5.67h5.67v5.67h-5.67ZM294.62,75.29v-5.67h5.67v5.67h-5.67ZM294.62,83.03v-5.67h5.67v5.67h-5.67ZM294.62,83.03v-5.67h5.67v5.67h-5.67ZM294.62,83.03v-5.67h5.67v5.67h-5.67ZM294.62,83.03v-5.67h5.67v5.67h-5.67ZM302.35,5.67V0h5.67v5.67h-5.67ZM302.35,5.67V0h5.67v5.67h-5.67ZM302.35,5.67V0h5.67v5.67h-5.67ZM302.35,5.67V0h5.67v5.67h-5.67ZM302.35,44.35v-5.67h5.67v5.67h-5.67ZM302.35,44.35v-5.67h5.67v5.67h-5.67ZM302.35,44.35v-5.67h5.67v5.67h-5.67ZM302.35,44.35v-5.67h5.67v5.67h-5.67ZM302.35,83.03v-5.67h5.67v5.67h-5.67ZM302.35,83.03v-5.67h5.67v5.67h-5.67ZM302.35,83.03v-5.67h5.67v5.67h-5.67ZM302.35,83.03v-5.67h5.67v5.67h-5.67ZM310.09,5.67V0h5.68v5.67h-5.68ZM310.09,5.67V0h5.68v5.67h-5.68ZM310.09,5.67V0h5.68v5.67h-5.68ZM310.09,5.67V0h5.68v5.67h-5.68ZM310.09,44.35v-5.67h5.68v5.67h-5.68ZM310.09,44.35v-5.67h5.68v5.67h-5.68ZM310.09,44.35v-5.67h5.68v5.67h-5.68ZM310.09,44.35v-5.67h5.68v5.67h-5.68ZM310.09,83.03v-5.67h5.68v5.67h-5.68ZM310.09,83.03v-5.67h5.68v5.67h-5.68ZM310.09,83.03v-5.67h5.68v5.67h-5.68ZM310.09,83.03v-5.67h5.68v5.67h-5.68ZM317.83,5.67V0h5.67v5.67h-5.67ZM317.83,5.67V0h5.67v5.67h-5.67ZM317.83,5.67V0h5.67v5.67h-5.67ZM317.83,5.67V0h5.67v5.67h-5.67ZM317.83,44.35v-5.67h5.67v5.67h-5.67ZM317.83,44.35v-5.67h5.67v5.67h-5.67ZM317.83,44.35v-5.67h5.67v5.67h-5.67ZM317.83,44.35v-5.67h5.67v5.67h-5.67ZM317.83,83.03v-5.67h5.67v5.67h-5.67ZM317.83,83.03v-5.67h5.67v5.67h-5.67ZM317.83,83.03v-5.67h5.67v5.67h-5.67ZM317.83,83.03v-5.67h5.67v5.67h-5.67ZM346.06,5.67V0h5.67v5.67h-5.67ZM346.06,5.67V0h5.67v5.67h-5.67ZM346.06,5.67V0h5.67v5.67h-5.67ZM346.06,5.67V0h5.67v5.67h-5.67ZM353.8,5.67V0h5.67v5.67h-5.67ZM353.8,5.67V0h5.67v5.67h-5.67ZM353.8,5.67V0h5.67v5.67h-5.67ZM353.8,5.67V0h5.67v5.67h-5.67ZM361.53,5.67V0h5.67v5.67h-5.67ZM361.53,5.67V0h5.67v5.67h-5.67ZM361.53,5.67V0h5.67v5.67h-5.67ZM361.53,5.67V0h5.67v5.67h-5.67ZM361.53,13.41v-5.67h5.67v5.67h-5.67ZM361.53,13.41v-5.67h5.67v5.67h-5.67ZM361.53,13.41v-5.67h5.67v5.67h-5.67ZM361.53,13.41v-5.67h5.67v5.67h-5.67ZM361.53,21.15v-5.67h5.67v5.67h-5.67ZM361.53,21.15v-5.67h5.67v5.67h-5.67ZM361.53,21.15v-5.67h5.67v5.67h-5.67ZM361.53,21.15v-5.67h5.67v5.67h-5.67ZM361.53,28.88v-5.67h5.67v5.67h-5.67ZM361.53,28.88v-5.67h5.67v5.67h-5.67ZM361.53,28.88v-5.67h5.67v5.67h-5.67ZM361.53,28.88v-5.67h5.67v5.67h-5.67ZM361.53,36.62v-5.67h5.67v5.67h-5.67ZM361.53,36.62v-5.67h5.67v5.67h-5.67ZM361.53,36.62v-5.67h5.67v5.67h-5.67ZM361.53,36.62v-5.67h5.67v5.67h-5.67ZM361.53,44.35v-5.67h5.67v5.67h-5.67ZM361.53,44.35v-5.67h5.67v5.67h-5.67ZM361.53,44.35v-5.67h5.67v5.67h-5.67ZM361.53,44.35v-5.67h5.67v5.67h-5.67ZM361.53,52.09v-5.67h5.67v5.67h-5.67ZM361.53,52.09v-5.67h5.67v5.67h-5.67ZM361.53,52.09v-5.67h5.67v5.67h-5.67ZM361.53,52.09v-5.67h5.67v5.67h-5.67ZM361.53,59.82v-5.67h5.67v5.67h-5.67ZM361.53,59.82v-5.67h5.67v5.67h-5.67ZM361.53,59.82v-5.67h5.67v5.67h-5.67ZM361.53,59.82v-5.67h5.67v5.67h-5.67ZM361.53,67.56v-5.67h5.67v5.67h-5.67ZM361.53,67.56v-5.67h5.67v5.67h-5.67ZM361.53,67.56v-5.67h5.67v5.67h-5.67ZM361.53,67.56v-5.67h5.67v5.67h-5.67ZM361.53,75.3v-5.67h5.67v5.67h-5.67ZM361.53,75.3v-5.67h5.67v5.67h-5.67ZM361.53,75.3v-5.67h5.67v5.67h-5.67ZM361.53,75.3v-5.67h5.67v5.67h-5.67ZM361.53,83.03v-5.67h5.67v5.67h-5.67ZM361.53,83.03v-5.67h5.67v5.67h-5.67ZM361.53,83.03v-5.67h5.67v5.67h-5.67ZM361.53,83.03v-5.67h5.67v5.67h-5.67ZM369.26,5.67V0h5.68v5.67h-5.68ZM369.26,5.67V0h5.68v5.67h-5.68ZM369.26,5.67V0h5.68v5.67h-5.68ZM369.26,5.67V0h5.68v5.67h-5.68ZM377,5.67V0h5.67v5.67h-5.67ZM377,5.67V0h5.67v5.67h-5.67ZM377,5.67V0h5.67v5.67h-5.67ZM377,5.67V0h5.67v5.67h-5.67ZM389.18,5.67V0h5.67v5.67h-5.67ZM389.18,5.67V0h5.67v5.67h-5.67ZM389.18,5.67V0h5.67v5.67h-5.67ZM389.18,5.67V0h5.67v5.67h-5.67ZM389.18,13.41v-5.67h5.67v5.67h-5.67ZM389.18,13.41v-5.67h5.67v5.67h-5.67ZM389.18,13.41v-5.67h5.67v5.67h-5.67ZM389.18,13.41v-5.67h5.67v5.67h-5.67ZM389.18,21.15v-5.67h5.67v5.67h-5.67ZM389.18,21.15v-5.67h5.67v5.67h-5.67ZM389.18,21.15v-5.67h5.67v5.67h-5.67ZM389.18,21.15v-5.67h5.67v5.67h-5.67ZM389.18,28.88v-5.67h5.67v5.67h-5.67ZM389.18,28.88v-5.67h5.67v5.67h-5.67ZM389.18,28.88v-5.67h5.67v5.67h-5.67ZM389.18,28.88v-5.67h5.67v5.67h-5.67ZM389.18,36.62v-5.67h5.67v5.67h-5.67ZM389.18,36.62v-5.67h5.67v5.67h-5.67ZM389.18,36.62v-5.67h5.67v5.67h-5.67ZM389.18,36.62v-5.67h5.67v5.67h-5.67ZM389.18,44.35v-5.67h5.67v5.67h-5.67ZM389.18,44.35v-5.67h5.67v5.67h-5.67ZM389.18,44.35v-5.67h5.67v5.67h-5.67ZM389.18,44.35v-5.67h5.67v5.67h-5.67ZM389.18,52.09v-5.67h5.67v5.67h-5.67ZM389.18,52.09v-5.67h5.67v5.67h-5.67ZM389.18,52.09v-5.67h5.67v5.67h-5.67ZM389.18,52.09v-5.67h5.67v5.67h-5.67ZM389.18,59.82v-5.67h5.67v5.67h-5.67ZM389.18,59.82v-5.67h5.67v5.67h-5.67ZM389.18,59.82v-5.67h5.67v5.67h-5.67ZM389.18,59.82v-5.67h5.67v5.67h-5.67ZM389.18,67.56v-5.67h5.67v5.67h-5.67ZM389.18,67.56v-5.67h5.67v5.67h-5.67ZM389.18,67.56v-5.67h5.67v5.67h-5.67ZM389.18,67.56v-5.67h5.67v5.67h-5.67ZM389.18,75.29v-5.67h5.67v5.67h-5.67ZM389.18,75.29v-5.67h5.67v5.67h-5.67ZM389.18,75.29v-5.67h5.67v5.67h-5.67ZM389.18,75.29v-5.67h5.67v5.67h-5.67ZM389.18,83.03v-5.67h5.67v5.67h-5.67ZM389.18,83.03v-5.67h5.67v5.67h-5.67ZM389.18,83.03v-5.67h5.67v5.67h-5.67ZM389.18,83.03v-5.67h5.67v5.67h-5.67ZM396.92,44.35v-5.67h5.67v5.67h-5.67ZM396.92,44.35v-5.67h5.67v5.67h-5.67ZM396.92,44.35v-5.67h5.67v5.67h-5.67ZM396.92,44.35v-5.67h5.67v5.67h-5.67ZM404.66,44.35v-5.67h5.67v5.67h-5.67ZM404.66,44.35v-5.67h5.67v5.67h-5.67ZM404.66,44.35v-5.67h5.67v5.67h-5.67ZM404.66,44.35v-5.67h5.67v5.67h-5.67ZM412.39,44.35v-5.67h5.68v5.67h-5.68ZM412.39,44.35v-5.67h5.68v5.67h-5.68ZM412.39,44.35v-5.67h5.68v5.67h-5.68ZM412.39,44.35v-5.67h5.68v5.67h-5.68ZM420.13,5.67V0h5.67v5.67h-5.67ZM420.13,5.67V0h5.67v5.67h-5.67ZM420.13,5.67V0h5.67v5.67h-5.67ZM420.13,5.67V0h5.67v5.67h-5.67ZM420.13,13.41v-5.67h5.67v5.67h-5.67ZM420.13,13.41v-5.67h5.67v5.67h-5.67ZM420.13,13.41v-5.67h5.67v5.67h-5.67ZM420.13,13.41v-5.67h5.67v5.67h-5.67ZM420.13,21.15v-5.67h5.67v5.67h-5.67ZM420.13,21.15v-5.67h5.67v5.67h-5.67ZM420.13,21.15v-5.67h5.67v5.67h-5.67ZM420.13,21.15v-5.67h5.67v5.67h-5.67ZM420.13,28.88v-5.67h5.67v5.67h-5.67ZM420.13,28.88v-5.67h5.67v5.67h-5.67ZM420.13,28.88v-5.67h5.67v5.67h-5.67ZM420.13,28.88v-5.67h5.67v5.67h-5.67ZM420.13,36.62v-5.67h5.67v5.67h-5.67ZM420.13,36.62v-5.67h5.67v5.67h-5.67ZM420.13,36.62v-5.67h5.67v5.67h-5.67ZM420.13,36.62v-5.67h5.67v5.67h-5.67ZM420.13,44.35v-5.67h5.67v5.67h-5.67ZM420.13,44.35v-5.67h5.67v5.67h-5.67ZM420.13,44.35v-5.67h5.67v5.67h-5.67ZM420.13,44.35v-5.67h5.67v5.67h-5.67ZM420.13,52.09v-5.67h5.67v5.67h-5.67ZM420.13,52.09v-5.67h5.67v5.67h-5.67ZM420.13,52.09v-5.67h5.67v5.67h-5.67ZM420.13,52.09v-5.67h5.67v5.67h-5.67ZM420.13,59.82v-5.67h5.67v5.67h-5.67ZM420.13,59.82v-5.67h5.67v5.67h-5.67ZM420.13,59.82v-5.67h5.67v5.67h-5.67ZM420.13,59.82v-5.67h5.67v5.67h-5.67ZM420.13,67.56v-5.67h5.67v5.67h-5.67ZM420.13,67.56v-5.67h5.67v5.67h-5.67ZM420.13,67.56v-5.67h5.67v5.67h-5.67ZM420.13,67.56v-5.67h5.67v5.67h-5.67ZM420.13,75.29v-5.67h5.67v5.67h-5.67ZM420.13,75.29v-5.67h5.67v5.67h-5.67ZM420.13,75.29v-5.67h5.67v5.67h-5.67ZM420.13,75.29v-5.67h5.67v5.67h-5.67ZM420.13,83.03v-5.67h5.67v5.67h-5.67ZM420.13,83.03v-5.67h5.67v5.67h-5.67ZM420.13,83.03v-5.67h5.67v5.67h-5.67ZM420.13,83.03v-5.67h5.67v5.67h-5.67ZM440.05,5.67V0h5.67v5.67h-5.67ZM440.05,5.67V0h5.67v5.67h-5.67ZM440.05,5.67V0h5.67v5.67h-5.67ZM440.05,5.67V0h5.67v5.67h-5.67ZM440.05,13.41v-5.67h5.67v5.67h-5.67ZM440.05,13.41v-5.67h5.67v5.67h-5.67ZM440.05,13.41v-5.67h5.67v5.67h-5.67ZM440.05,13.41v-5.67h5.67v5.67h-5.67ZM440.05,21.15v-5.67h5.67v5.67h-5.67ZM440.05,21.15v-5.67h5.67v5.67h-5.67ZM440.05,21.15v-5.67h5.67v5.67h-5.67ZM440.05,21.15v-5.67h5.67v5.67h-5.67ZM440.05,28.88v-5.67h5.67v5.67h-5.67ZM440.05,28.88v-5.67h5.67v5.67h-5.67ZM440.05,28.88v-5.67h5.67v5.67h-5.67ZM440.05,28.88v-5.67h5.67v5.67h-5.67ZM440.05,36.62v-5.67h5.67v5.67h-5.67ZM440.05,36.62v-5.67h5.67v5.67h-5.67ZM440.05,36.62v-5.67h5.67v5.67h-5.67ZM440.05,36.62v-5.67h5.67v5.67h-5.67ZM440.05,44.35v-5.67h5.67v5.67h-5.67ZM440.05,44.35v-5.67h5.67v5.67h-5.67ZM440.05,44.35v-5.67h5.67v5.67h-5.67ZM440.05,44.35v-5.67h5.67v5.67h-5.67ZM440.05,52.09v-5.67h5.67v5.67h-5.67ZM440.05,52.09v-5.67h5.67v5.67h-5.67ZM440.05,52.09v-5.67h5.67v5.67h-5.67ZM440.05,52.09v-5.67h5.67v5.67h-5.67ZM440.05,59.82v-5.67h5.67v5.67h-5.67ZM440.05,59.82v-5.67h5.67v5.67h-5.67ZM440.05,59.82v-5.67h5.67v5.67h-5.67ZM440.05,59.82v-5.67h5.67v5.67h-5.67ZM440.05,67.56v-5.67h5.67v5.67h-5.67ZM440.05,67.56v-5.67h5.67v5.67h-5.67ZM440.05,67.56v-5.67h5.67v5.67h-5.67ZM440.05,67.56v-5.67h5.67v5.67h-5.67ZM440.05,75.29v-5.67h5.67v5.67h-5.67ZM440.05,75.29v-5.67h5.67v5.67h-5.67ZM440.05,75.29v-5.67h5.67v5.67h-5.67ZM440.05,75.29v-5.67h5.67v5.67h-5.67ZM440.05,83.03v-5.67h5.67v5.67h-5.67ZM440.05,83.03v-5.67h5.67v5.67h-5.67ZM440.05,83.03v-5.67h5.67v5.67h-5.67ZM440.05,83.03v-5.67h5.67v5.67h-5.67ZM447.78,5.67V0h5.67v5.67h-5.67ZM447.78,5.67V0h5.67v5.67h-5.67ZM447.78,5.67V0h5.67v5.67h-5.67ZM447.78,5.67V0h5.67v5.67h-5.67ZM447.78,44.35v-5.67h5.67v5.67h-5.67ZM447.78,44.35v-5.67h5.67v5.67h-5.67ZM447.78,44.35v-5.67h5.67v5.67h-5.67ZM447.78,44.35v-5.67h5.67v5.67h-5.67ZM447.78,83.03v-5.67h5.67v5.67h-5.67ZM447.78,83.03v-5.67h5.67v5.67h-5.67ZM447.78,83.03v-5.67h5.67v5.67h-5.67ZM447.78,83.03v-5.67h5.67v5.67h-5.67ZM455.52,5.67V0h5.68v5.67h-5.68ZM455.52,5.67V0h5.68v5.67h-5.68ZM455.52,5.67V0h5.68v5.67h-5.68ZM455.52,5.67V0h5.68v5.67h-5.68ZM455.52,44.35v-5.67h5.68v5.67h-5.68ZM455.52,44.35v-5.67h5.68v5.67h-5.68ZM455.52,44.35v-5.67h5.68v5.67h-5.68ZM455.52,44.35v-5.67h5.68v5.67h-5.68ZM455.52,83.03v-5.67h5.68v5.67h-5.68ZM455.52,83.03v-5.67h5.68v5.67h-5.68ZM455.52,83.03v-5.67h5.68v5.67h-5.68ZM455.52,83.03v-5.67h5.68v5.67h-5.68ZM463.25,5.67V0h5.67v5.67h-5.67ZM463.25,5.67V0h5.67v5.67h-5.67ZM463.25,5.67V0h5.67v5.67h-5.67ZM463.25,5.67V0h5.67v5.67h-5.67ZM463.25,44.35v-5.67h5.67v5.67h-5.67ZM463.25,44.35v-5.67h5.67v5.67h-5.67ZM463.25,44.35v-5.67h5.67v5.67h-5.67ZM463.25,44.35v-5.67h5.67v5.67h-5.67ZM463.25,83.03v-5.67h5.67v5.67h-5.67ZM463.25,83.03v-5.67h5.67v5.67h-5.67ZM463.25,83.03v-5.67h5.67v5.67h-5.67ZM463.25,83.03v-5.67h5.67v5.67h-5.67ZM220.55,104.3v-5.67h5.67v5.67h-5.67ZM220.55,104.3v-5.67h5.67v5.67h-5.67ZM220.55,104.3v-5.67h5.67v5.67h-5.67ZM220.55,104.3v-5.67h5.67v5.67h-5.67ZM220.55,112.04v-5.67h5.67v5.67h-5.67ZM220.55,112.04v-5.67h5.67v5.67h-5.67ZM220.55,112.04v-5.67h5.67v5.67h-5.67ZM220.55,112.04v-5.67h5.67v5.67h-5.67ZM220.55,119.78v-5.67h5.67v5.67h-5.67ZM220.55,119.78v-5.67h5.67v5.67h-5.67ZM220.55,119.78v-5.67h5.67v5.67h-5.67ZM220.55,119.78v-5.67h5.67v5.67h-5.67ZM220.55,127.51v-5.67h5.67v5.67h-5.67ZM220.55,127.51v-5.67h5.67v5.67h-5.67ZM220.55,127.51v-5.67h5.67v5.67h-5.67ZM220.55,127.51v-5.67h5.67v5.67h-5.67ZM220.55,135.24v-5.67h5.67v5.67h-5.67ZM220.55,135.24v-5.67h5.67v5.67h-5.67ZM220.55,135.24v-5.67h5.67v5.67h-5.67ZM220.55,135.24v-5.67h5.67v5.67h-5.67ZM220.55,142.98v-5.67h5.67v5.67h-5.67ZM220.55,142.98v-5.67h5.67v5.67h-5.67ZM220.55,142.98v-5.67h5.67v5.67h-5.67ZM220.55,142.98v-5.67h5.67v5.67h-5.67ZM220.55,150.72v-5.68h5.67v5.68h-5.67ZM220.55,150.72v-5.68h5.67v5.68h-5.67ZM220.55,150.72v-5.68h5.67v5.68h-5.67ZM220.55,150.72v-5.68h5.67v5.68h-5.67ZM220.55,158.45v-5.67h5.67v5.67h-5.67ZM220.55,158.45v-5.67h5.67v5.67h-5.67ZM220.55,158.45v-5.67h5.67v5.67h-5.67ZM220.55,158.45v-5.67h5.67v5.67h-5.67ZM220.55,166.19v-5.67h5.67v5.67h-5.67ZM220.55,166.19v-5.67h5.67v5.67h-5.67ZM220.55,166.19v-5.67h5.67v5.67h-5.67ZM220.55,166.19v-5.67h5.67v5.67h-5.67ZM220.55,173.93v-5.67h5.67v5.67h-5.67ZM220.55,173.93v-5.67h5.67v5.67h-5.67ZM220.55,173.93v-5.67h5.67v5.67h-5.67ZM220.55,173.93v-5.67h5.67v5.67h-5.67ZM220.55,181.66v-5.67h5.67v5.67h-5.67ZM220.55,181.66v-5.67h5.67v5.67h-5.67ZM220.55,181.66v-5.67h5.67v5.67h-5.67ZM220.55,181.66v-5.67h5.67v5.67h-5.67ZM228.29,104.3v-5.67h5.67v5.67h-5.67ZM228.29,104.3v-5.67h5.67v5.67h-5.67ZM228.29,104.3v-5.67h5.67v5.67h-5.67ZM228.29,104.3v-5.67h5.67v5.67h-5.67ZM228.29,150.72v-5.68h5.67v5.68h-5.67ZM228.29,150.72v-5.68h5.67v5.68h-5.67ZM228.29,150.72v-5.68h5.67v5.68h-5.67ZM228.29,150.72v-5.68h5.67v5.68h-5.67ZM236.02,104.3v-5.67h5.67v5.67h-5.67ZM236.02,104.3v-5.67h5.67v5.67h-5.67ZM236.02,104.3v-5.67h5.67v5.67h-5.67ZM236.02,104.3v-5.67h5.67v5.67h-5.67ZM236.02,150.72v-5.68h5.67v5.68h-5.67ZM236.02,150.72v-5.68h5.67v5.68h-5.67ZM236.02,150.72v-5.68h5.67v5.68h-5.67ZM236.02,150.72v-5.68h5.67v5.68h-5.67ZM243.76,104.3v-5.67h5.68v5.67h-5.68ZM243.76,104.3v-5.67h5.68v5.67h-5.68ZM243.76,104.3v-5.67h5.68v5.67h-5.68ZM243.76,104.3v-5.67h5.68v5.67h-5.68ZM243.76,150.72v-5.68h5.68v5.68h-5.68ZM243.76,150.72v-5.68h5.68v5.68h-5.68ZM243.76,150.72v-5.68h5.68v5.68h-5.68ZM243.76,150.72v-5.68h5.68v5.68h-5.68ZM251.49,112.04v-5.67h5.67v5.67h-5.67ZM251.49,112.04v-5.67h5.67v5.67h-5.67ZM251.49,112.04v-5.67h5.67v5.67h-5.67ZM251.49,112.04v-5.67h5.67v5.67h-5.67ZM251.49,119.78v-5.67h5.67v5.67h-5.67ZM251.49,119.78v-5.67h5.67v5.67h-5.67ZM251.49,119.78v-5.67h5.67v5.67h-5.67ZM251.49,119.78v-5.67h5.67v5.67h-5.67ZM251.49,127.51v-5.67h5.67v5.67h-5.67ZM251.49,127.51v-5.67h5.67v5.67h-5.67ZM251.49,127.51v-5.67h5.67v5.67h-5.67ZM251.49,127.51v-5.67h5.67v5.67h-5.67ZM251.49,135.24v-5.67h5.67v5.67h-5.67ZM251.49,135.24v-5.67h5.67v5.67h-5.67ZM251.49,135.24v-5.67h5.67v5.67h-5.67ZM251.49,135.24v-5.67h5.67v5.67h-5.67ZM251.49,142.98v-5.67h5.67v5.67h-5.67ZM251.49,142.98v-5.67h5.67v5.67h-5.67ZM251.49,142.98v-5.67h5.67v5.67h-5.67ZM251.49,142.98v-5.67h5.67v5.67h-5.67ZM267.55,104.3v-5.67h5.67v5.67h-5.67ZM267.55,104.3v-5.67h5.67v5.67h-5.67ZM267.55,104.3v-5.67h5.67v5.67h-5.67ZM267.55,104.3v-5.67h5.67v5.67h-5.67ZM267.55,112.04v-5.67h5.67v5.67h-5.67ZM267.55,112.04v-5.67h5.67v5.67h-5.67ZM267.55,112.04v-5.67h5.67v5.67h-5.67ZM267.55,112.04v-5.67h5.67v5.67h-5.67ZM267.55,119.78v-5.67h5.67v5.67h-5.67ZM267.55,119.78v-5.67h5.67v5.67h-5.67ZM267.55,119.78v-5.67h5.67v5.67h-5.67ZM267.55,119.78v-5.67h5.67v5.67h-5.67ZM267.55,127.51v-5.67h5.67v5.67h-5.67ZM267.55,127.51v-5.67h5.67v5.67h-5.67ZM267.55,127.51v-5.67h5.67v5.67h-5.67ZM267.55,127.51v-5.67h5.67v5.67h-5.67ZM267.55,135.24v-5.67h5.67v5.67h-5.67ZM267.55,135.24v-5.67h5.67v5.67h-5.67ZM267.55,135.24v-5.67h5.67v5.67h-5.67ZM267.55,135.24v-5.67h5.67v5.67h-5.67ZM267.55,142.98v-5.67h5.67v5.67h-5.67ZM267.55,142.98v-5.67h5.67v5.67h-5.67ZM267.55,142.98v-5.67h5.67v5.67h-5.67ZM267.55,142.98v-5.67h5.67v5.67h-5.67ZM267.55,150.72v-5.67h5.67v5.67h-5.67ZM267.55,150.72v-5.67h5.67v5.67h-5.67ZM267.55,150.72v-5.67h5.67v5.67h-5.67ZM267.55,150.72v-5.67h5.67v5.67h-5.67ZM267.55,158.45v-5.67h5.67v5.67h-5.67ZM267.55,158.45v-5.67h5.67v5.67h-5.67ZM267.55,158.45v-5.67h5.67v5.67h-5.67ZM267.55,158.45v-5.67h5.67v5.67h-5.67ZM267.55,166.19v-5.67h5.67v5.67h-5.67ZM267.55,166.19v-5.67h5.67v5.67h-5.67ZM267.55,166.19v-5.67h5.67v5.67h-5.67ZM267.55,166.19v-5.67h5.67v5.67h-5.67ZM267.55,173.92v-5.67h5.67v5.67h-5.67ZM267.55,173.92v-5.67h5.67v5.67h-5.67ZM267.55,173.92v-5.67h5.67v5.67h-5.67ZM267.55,173.92v-5.67h5.67v5.67h-5.67ZM267.55,181.66v-5.67h5.67v5.67h-5.67ZM267.55,181.66v-5.67h5.67v5.67h-5.67ZM267.55,181.66v-5.67h5.67v5.67h-5.67ZM267.55,181.66v-5.67h5.67v5.67h-5.67ZM275.28,104.3v-5.67h5.67v5.67h-5.67ZM275.28,104.3v-5.67h5.67v5.67h-5.67ZM275.28,104.3v-5.67h5.67v5.67h-5.67ZM275.28,104.3v-5.67h5.67v5.67h-5.67ZM275.28,142.98v-5.67h5.67v5.67h-5.67ZM275.28,142.98v-5.67h5.67v5.67h-5.67ZM275.28,142.98v-5.67h5.67v5.67h-5.67ZM275.28,142.98v-5.67h5.67v5.67h-5.67ZM275.28,181.66v-5.67h5.67v5.67h-5.67ZM275.28,181.66v-5.67h5.67v5.67h-5.67ZM275.28,181.66v-5.67h5.67v5.67h-5.67ZM275.28,181.66v-5.67h5.67v5.67h-5.67ZM283.01,104.3v-5.67h5.68v5.67h-5.68ZM283.01,104.3v-5.67h5.68v5.67h-5.68ZM283.01,104.3v-5.67h5.68v5.67h-5.68ZM283.01,104.3v-5.67h5.68v5.67h-5.68ZM283.01,142.98v-5.67h5.68v5.67h-5.68ZM283.01,142.98v-5.67h5.68v5.67h-5.68ZM283.01,142.98v-5.67h5.68v5.67h-5.68ZM283.01,142.98v-5.67h5.68v5.67h-5.68ZM283.01,181.66v-5.67h5.68v5.67h-5.68ZM283.01,181.66v-5.67h5.68v5.67h-5.68ZM283.01,181.66v-5.67h5.68v5.67h-5.68ZM283.01,181.66v-5.67h5.68v5.67h-5.68ZM290.75,104.3v-5.67h5.67v5.67h-5.67ZM290.75,104.3v-5.67h5.67v5.67h-5.67ZM290.75,104.3v-5.67h5.67v5.67h-5.67ZM290.75,104.3v-5.67h5.67v5.67h-5.67ZM290.75,142.98v-5.67h5.67v5.67h-5.67ZM290.75,142.98v-5.67h5.67v5.67h-5.67ZM290.75,142.98v-5.67h5.67v5.67h-5.67ZM290.75,142.98v-5.67h5.67v5.67h-5.67ZM290.75,181.66v-5.67h5.67v5.67h-5.67ZM290.75,181.66v-5.67h5.67v5.67h-5.67ZM290.75,181.66v-5.67h5.67v5.67h-5.67ZM290.75,181.66v-5.67h5.67v5.67h-5.67ZM306.8,112.04v-5.67h5.67v5.67h-5.67ZM306.8,112.04v-5.67h5.67v5.67h-5.67ZM306.8,112.04v-5.67h5.67v5.67h-5.67ZM306.8,112.04v-5.67h5.67v5.67h-5.67ZM306.8,119.77v-5.67h5.67v5.67h-5.67ZM306.8,119.77v-5.67h5.67v5.67h-5.67ZM306.8,119.77v-5.67h5.67v5.67h-5.67ZM306.8,119.77v-5.67h5.67v5.67h-5.67ZM306.8,127.51v-5.67h5.67v5.67h-5.67ZM306.8,127.51v-5.67h5.67v5.67h-5.67ZM306.8,127.51v-5.67h5.67v5.67h-5.67ZM306.8,127.51v-5.67h5.67v5.67h-5.67ZM306.8,135.25v-5.67h5.67v5.67h-5.67ZM306.8,135.25v-5.67h5.67v5.67h-5.67ZM306.8,135.25v-5.67h5.67v5.67h-5.67ZM306.8,135.25v-5.67h5.67v5.67h-5.67ZM306.8,142.98v-5.67h5.67v5.67h-5.67ZM306.8,142.98v-5.67h5.67v5.67h-5.67ZM306.8,142.98v-5.67h5.67v5.67h-5.67ZM306.8,142.98v-5.67h5.67v5.67h-5.67ZM306.8,150.72v-5.67h5.67v5.67h-5.67ZM306.8,150.72v-5.67h5.67v5.67h-5.67ZM306.8,150.72v-5.67h5.67v5.67h-5.67ZM306.8,150.72v-5.67h5.67v5.67h-5.67ZM306.8,158.45v-5.67h5.67v5.67h-5.67ZM306.8,158.45v-5.67h5.67v5.67h-5.67ZM306.8,158.45v-5.67h5.67v5.67h-5.67ZM306.8,158.45v-5.67h5.67v5.67h-5.67ZM306.8,166.19v-5.67h5.67v5.67h-5.67ZM306.8,166.19v-5.67h5.67v5.67h-5.67ZM306.8,166.19v-5.67h5.67v5.67h-5.67ZM306.8,166.19v-5.67h5.67v5.67h-5.67ZM306.8,173.92v-5.67h5.67v5.67h-5.67ZM306.8,173.92v-5.67h5.67v5.67h-5.67ZM306.8,173.92v-5.67h5.67v5.67h-5.67ZM306.8,173.92v-5.67h5.67v5.67h-5.67ZM314.54,104.3v-5.67h5.67v5.67h-5.67ZM314.54,104.3v-5.67h5.67v5.67h-5.67ZM314.54,104.3v-5.67h5.67v5.67h-5.67ZM314.54,104.3v-5.67h5.67v5.67h-5.67ZM314.54,181.66v-5.68h5.67v5.68h-5.67ZM314.54,181.66v-5.68h5.67v5.68h-5.67ZM314.54,181.66v-5.68h5.67v5.68h-5.67ZM314.54,181.66v-5.68h5.67v5.68h-5.67ZM322.27,104.3v-5.67h5.67v5.67h-5.67ZM322.27,104.3v-5.67h5.67v5.67h-5.67ZM322.27,104.3v-5.67h5.67v5.67h-5.67ZM322.27,104.3v-5.67h5.67v5.67h-5.67ZM322.27,181.66v-5.68h5.67v5.68h-5.67ZM322.27,181.66v-5.68h5.67v5.68h-5.67ZM322.27,181.66v-5.68h5.67v5.68h-5.67ZM322.27,181.66v-5.68h5.67v5.68h-5.67ZM330.01,104.3v-5.67h5.68v5.67h-5.68ZM330.01,104.3v-5.67h5.68v5.67h-5.68ZM330.01,104.3v-5.67h5.68v5.67h-5.68ZM330.01,104.3v-5.67h5.68v5.67h-5.68ZM330.01,181.66v-5.68h5.68v5.68h-5.68ZM330.01,181.66v-5.68h5.68v5.68h-5.68ZM330.01,181.66v-5.68h5.68v5.68h-5.68ZM330.01,181.66v-5.68h5.68v5.68h-5.68ZM337.74,112.04v-5.67h5.67v5.67h-5.67ZM337.74,112.04v-5.67h5.67v5.67h-5.67ZM337.74,112.04v-5.67h5.67v5.67h-5.67ZM337.74,112.04v-5.67h5.67v5.67h-5.67ZM337.74,119.77v-5.67h5.67v5.67h-5.67ZM337.74,119.77v-5.67h5.67v5.67h-5.67ZM337.74,119.77v-5.67h5.67v5.67h-5.67ZM337.74,119.77v-5.67h5.67v5.67h-5.67ZM337.74,127.51v-5.67h5.67v5.67h-5.67ZM337.74,127.51v-5.67h5.67v5.67h-5.67ZM337.74,127.51v-5.67h5.67v5.67h-5.67ZM337.74,127.51v-5.67h5.67v5.67h-5.67ZM337.74,135.25v-5.67h5.67v5.67h-5.67ZM337.74,135.25v-5.67h5.67v5.67h-5.67ZM337.74,135.25v-5.67h5.67v5.67h-5.67ZM337.74,135.25v-5.67h5.67v5.67h-5.67ZM337.74,142.98v-5.67h5.67v5.67h-5.67ZM337.74,142.98v-5.67h5.67v5.67h-5.67ZM337.74,142.98v-5.67h5.67v5.67h-5.67ZM337.74,142.98v-5.67h5.67v5.67h-5.67ZM337.74,150.72v-5.67h5.67v5.67h-5.67ZM337.74,150.72v-5.67h5.67v5.67h-5.67ZM337.74,150.72v-5.67h5.67v5.67h-5.67ZM337.74,150.72v-5.67h5.67v5.67h-5.67ZM337.74,158.45v-5.67h5.67v5.67h-5.67ZM337.74,158.45v-5.67h5.67v5.67h-5.67ZM337.74,158.45v-5.67h5.67v5.67h-5.67ZM337.74,158.45v-5.67h5.67v5.67h-5.67ZM337.74,166.19v-5.67h5.67v5.67h-5.67ZM337.74,166.19v-5.67h5.67v5.67h-5.67ZM337.74,166.19v-5.67h5.67v5.67h-5.67ZM337.74,166.19v-5.67h5.67v5.67h-5.67ZM337.74,173.92v-5.67h5.67v5.67h-5.67ZM337.74,173.92v-5.67h5.67v5.67h-5.67ZM337.74,173.92v-5.67h5.67v5.67h-5.67ZM337.74,173.92v-5.67h5.67v5.67h-5.67ZM357.66,104.3v-5.67h5.67v5.67h-5.67ZM357.66,104.3v-5.67h5.67v5.67h-5.67ZM357.66,104.3v-5.67h5.67v5.67h-5.67ZM357.66,104.3v-5.67h5.67v5.67h-5.67ZM357.66,112.04v-5.67h5.67v5.67h-5.67ZM357.66,112.04v-5.67h5.67v5.67h-5.67ZM357.66,112.04v-5.67h5.67v5.67h-5.67ZM357.66,112.04v-5.67h5.67v5.67h-5.67ZM357.66,119.78v-5.67h5.67v5.67h-5.67ZM357.66,119.78v-5.67h5.67v5.67h-5.67ZM357.66,119.78v-5.67h5.67v5.67h-5.67ZM357.66,119.78v-5.67h5.67v5.67h-5.67ZM357.66,127.51v-5.67h5.67v5.67h-5.67ZM357.66,127.51v-5.67h5.67v5.67h-5.67ZM357.66,127.51v-5.67h5.67v5.67h-5.67ZM357.66,127.51v-5.67h5.67v5.67h-5.67ZM357.66,135.24v-5.67h5.67v5.67h-5.67ZM357.66,135.24v-5.67h5.67v5.67h-5.67ZM357.66,135.24v-5.67h5.67v5.67h-5.67ZM357.66,135.24v-5.67h5.67v5.67h-5.67ZM357.66,142.98v-5.67h5.67v5.67h-5.67ZM357.66,142.98v-5.67h5.67v5.67h-5.67ZM357.66,142.98v-5.67h5.67v5.67h-5.67ZM357.66,142.98v-5.67h5.67v5.67h-5.67ZM357.66,150.72v-5.68h5.67v5.68h-5.67ZM357.66,150.72v-5.68h5.67v5.68h-5.67ZM357.66,150.72v-5.68h5.67v5.68h-5.67ZM357.66,150.72v-5.68h5.67v5.68h-5.67ZM357.66,158.45v-5.67h5.67v5.67h-5.67ZM357.66,158.45v-5.67h5.67v5.67h-5.67ZM357.66,158.45v-5.67h5.67v5.67h-5.67ZM357.66,158.45v-5.67h5.67v5.67h-5.67ZM357.66,166.19v-5.67h5.67v5.67h-5.67ZM357.66,166.19v-5.67h5.67v5.67h-5.67ZM357.66,166.19v-5.67h5.67v5.67h-5.67ZM357.66,166.19v-5.67h5.67v5.67h-5.67ZM357.66,173.93v-5.67h5.67v5.67h-5.67ZM357.66,173.93v-5.67h5.67v5.67h-5.67ZM357.66,173.93v-5.67h5.67v5.67h-5.67ZM357.66,173.93v-5.67h5.67v5.67h-5.67ZM357.66,181.66v-5.67h5.67v5.67h-5.67ZM357.66,181.66v-5.67h5.67v5.67h-5.67ZM357.66,181.66v-5.67h5.67v5.67h-5.67ZM357.66,181.66v-5.67h5.67v5.67h-5.67ZM365.4,104.3v-5.67h5.67v5.67h-5.67ZM365.4,104.3v-5.67h5.67v5.67h-5.67ZM365.4,104.3v-5.67h5.67v5.67h-5.67ZM365.4,104.3v-5.67h5.67v5.67h-5.67ZM365.4,150.72v-5.68h5.67v5.68h-5.67ZM365.4,150.72v-5.68h5.67v5.68h-5.67ZM365.4,150.72v-5.68h5.67v5.68h-5.67ZM365.4,150.72v-5.68h5.67v5.68h-5.67ZM373.13,104.3v-5.67h5.67v5.67h-5.67ZM373.13,104.3v-5.67h5.67v5.67h-5.67ZM373.13,104.3v-5.67h5.67v5.67h-5.67ZM373.13,104.3v-5.67h5.67v5.67h-5.67ZM373.13,150.72v-5.68h5.67v5.68h-5.67ZM373.13,150.72v-5.68h5.67v5.68h-5.67ZM373.13,150.72v-5.68h5.67v5.68h-5.67ZM373.13,150.72v-5.68h5.67v5.68h-5.67ZM380.87,104.3v-5.67h5.68v5.67h-5.68ZM380.87,104.3v-5.67h5.68v5.67h-5.68ZM380.87,104.3v-5.67h5.68v5.67h-5.68ZM380.87,104.3v-5.67h5.68v5.67h-5.68ZM380.87,150.72v-5.68h5.68v5.68h-5.68ZM380.87,150.72v-5.68h5.68v5.68h-5.68ZM380.87,150.72v-5.68h5.68v5.68h-5.68ZM380.87,150.72v-5.68h5.68v5.68h-5.68ZM388.6,112.04v-5.67h5.67v5.67h-5.67ZM388.6,112.04v-5.67h5.67v5.67h-5.67ZM388.6,112.04v-5.67h5.67v5.67h-5.67ZM388.6,112.04v-5.67h5.67v5.67h-5.67ZM388.6,119.78v-5.67h5.67v5.67h-5.67ZM388.6,119.78v-5.67h5.67v5.67h-5.67ZM388.6,119.78v-5.67h5.67v5.67h-5.67ZM388.6,119.78v-5.67h5.67v5.67h-5.67ZM388.6,127.51v-5.67h5.67v5.67h-5.67ZM388.6,127.51v-5.67h5.67v5.67h-5.67ZM388.6,127.51v-5.67h5.67v5.67h-5.67ZM388.6,127.51v-5.67h5.67v5.67h-5.67ZM388.6,135.24v-5.67h5.67v5.67h-5.67ZM388.6,135.24v-5.67h5.67v5.67h-5.67ZM388.6,135.24v-5.67h5.67v5.67h-5.67ZM388.6,135.24v-5.67h5.67v5.67h-5.67ZM388.6,142.98v-5.67h5.67v5.67h-5.67ZM388.6,142.98v-5.67h5.67v5.67h-5.67ZM388.6,142.98v-5.67h5.67v5.67h-5.67ZM388.6,142.98v-5.67h5.67v5.67h-5.67ZM404.66,104.3v-5.67h5.67v5.67h-5.67ZM404.66,104.3v-5.67h5.67v5.67h-5.67ZM404.66,104.3v-5.67h5.67v5.67h-5.67ZM404.66,104.3v-5.67h5.67v5.67h-5.67ZM404.66,112.04v-5.67h5.67v5.67h-5.67ZM404.66,112.04v-5.67h5.67v5.67h-5.67ZM404.66,112.04v-5.67h5.67v5.67h-5.67ZM404.66,112.04v-5.67h5.67v5.67h-5.67ZM404.66,119.78v-5.67h5.67v5.67h-5.67ZM404.66,119.78v-5.67h5.67v5.67h-5.67ZM404.66,119.78v-5.67h5.67v5.67h-5.67ZM404.66,119.78v-5.67h5.67v5.67h-5.67ZM404.66,127.51v-5.67h5.67v5.67h-5.67ZM404.66,127.51v-5.67h5.67v5.67h-5.67ZM404.66,127.51v-5.67h5.67v5.67h-5.67ZM404.66,127.51v-5.67h5.67v5.67h-5.67ZM404.66,135.24v-5.67h5.67v5.67h-5.67ZM404.66,135.24v-5.67h5.67v5.67h-5.67ZM404.66,135.24v-5.67h5.67v5.67h-5.67ZM404.66,135.24v-5.67h5.67v5.67h-5.67ZM404.66,142.98v-5.67h5.67v5.67h-5.67ZM404.66,142.98v-5.67h5.67v5.67h-5.67ZM404.66,142.98v-5.67h5.67v5.67h-5.67ZM404.66,142.98v-5.67h5.67v5.67h-5.67ZM404.66,150.72v-5.67h5.67v5.67h-5.67ZM404.66,150.72v-5.67h5.67v5.67h-5.67ZM404.66,150.72v-5.67h5.67v5.67h-5.67ZM404.66,150.72v-5.67h5.67v5.67h-5.67ZM404.66,158.45v-5.67h5.67v5.67h-5.67ZM404.66,158.45v-5.67h5.67v5.67h-5.67ZM404.66,158.45v-5.67h5.67v5.67h-5.67ZM404.66,158.45v-5.67h5.67v5.67h-5.67ZM404.66,166.19v-5.67h5.67v5.67h-5.67ZM404.66,166.19v-5.67h5.67v5.67h-5.67ZM404.66,166.19v-5.67h5.67v5.67h-5.67ZM404.66,166.19v-5.67h5.67v5.67h-5.67ZM404.66,173.92v-5.67h5.67v5.67h-5.67ZM404.66,173.92v-5.67h5.67v5.67h-5.67ZM404.66,173.92v-5.67h5.67v5.67h-5.67ZM404.66,173.92v-5.67h5.67v5.67h-5.67ZM404.66,181.66v-5.67h5.67v5.67h-5.67ZM404.66,181.66v-5.67h5.67v5.67h-5.67ZM404.66,181.66v-5.67h5.67v5.67h-5.67ZM404.66,181.66v-5.67h5.67v5.67h-5.67ZM412.39,181.66v-5.67h5.67v5.67h-5.67ZM412.39,181.66v-5.67h5.67v5.67h-5.67ZM412.39,181.66v-5.67h5.67v5.67h-5.67ZM412.39,181.66v-5.67h5.67v5.67h-5.67ZM420.12,181.66v-5.67h5.68v5.67h-5.68ZM420.12,181.66v-5.67h5.68v5.67h-5.68ZM420.12,181.66v-5.67h5.68v5.67h-5.68ZM420.12,181.66v-5.67h5.68v5.67h-5.68ZM427.86,181.66v-5.67h5.67v5.67h-5.67ZM427.86,181.66v-5.67h5.67v5.67h-5.67ZM427.86,181.66v-5.67h5.67v5.67h-5.67ZM427.86,181.66v-5.67h5.67v5.67h-5.67ZM443.91,104.3v-5.67h5.67v5.67h-5.67ZM443.91,104.3v-5.67h5.67v5.67h-5.67ZM443.91,104.3v-5.67h5.67v5.67h-5.67ZM443.91,104.3v-5.67h5.67v5.67h-5.67ZM443.91,112.04v-5.67h5.67v5.67h-5.67ZM443.91,112.04v-5.67h5.67v5.67h-5.67ZM443.91,112.04v-5.67h5.67v5.67h-5.67ZM443.91,112.04v-5.67h5.67v5.67h-5.67ZM443.91,119.78v-5.67h5.67v5.67h-5.67ZM443.91,119.78v-5.67h5.67v5.67h-5.67ZM443.91,119.78v-5.67h5.67v5.67h-5.67ZM443.91,119.78v-5.67h5.67v5.67h-5.67ZM443.91,127.51v-5.67h5.67v5.67h-5.67ZM443.91,127.51v-5.67h5.67v5.67h-5.67ZM443.91,127.51v-5.67h5.67v5.67h-5.67ZM443.91,127.51v-5.67h5.67v5.67h-5.67ZM443.91,135.24v-5.67h5.67v5.67h-5.67ZM443.91,135.24v-5.67h5.67v5.67h-5.67ZM443.91,135.24v-5.67h5.67v5.67h-5.67ZM443.91,135.24v-5.67h5.67v5.67h-5.67ZM443.91,142.98v-5.67h5.67v5.67h-5.67ZM443.91,142.98v-5.67h5.67v5.67h-5.67ZM443.91,142.98v-5.67h5.67v5.67h-5.67ZM443.91,142.98v-5.67h5.67v5.67h-5.67ZM443.91,150.72v-5.67h5.67v5.67h-5.67ZM443.91,150.72v-5.67h5.67v5.67h-5.67ZM443.91,150.72v-5.67h5.67v5.67h-5.67ZM443.91,150.72v-5.67h5.67v5.67h-5.67ZM443.91,158.45v-5.67h5.67v5.67h-5.67ZM443.91,158.45v-5.67h5.67v5.67h-5.67ZM443.91,158.45v-5.67h5.67v5.67h-5.67ZM443.91,158.45v-5.67h5.67v5.67h-5.67ZM443.91,166.19v-5.67h5.67v5.67h-5.67ZM443.91,166.19v-5.67h5.67v5.67h-5.67ZM443.91,166.19v-5.67h5.67v5.67h-5.67ZM443.91,166.19v-5.67h5.67v5.67h-5.67ZM443.91,173.92v-5.67h5.67v5.67h-5.67ZM443.91,173.92v-5.67h5.67v5.67h-5.67ZM443.91,173.92v-5.67h5.67v5.67h-5.67ZM443.91,173.92v-5.67h5.67v5.67h-5.67ZM443.91,181.66v-5.67h5.67v5.67h-5.67ZM443.91,181.66v-5.67h5.67v5.67h-5.67ZM443.91,181.66v-5.67h5.67v5.67h-5.67ZM443.91,181.66v-5.67h5.67v5.67h-5.67ZM451.65,104.3v-5.67h5.67v5.67h-5.67ZM451.65,104.3v-5.67h5.67v5.67h-5.67ZM451.65,104.3v-5.67h5.67v5.67h-5.67ZM451.65,104.3v-5.67h5.67v5.67h-5.67ZM451.65,142.98v-5.67h5.67v5.67h-5.67ZM451.65,142.98v-5.67h5.67v5.67h-5.67ZM451.65,142.98v-5.67h5.67v5.67h-5.67ZM451.65,142.98v-5.67h5.67v5.67h-5.67ZM451.65,181.66v-5.67h5.67v5.67h-5.67ZM451.65,181.66v-5.67h5.67v5.67h-5.67ZM451.65,181.66v-5.67h5.67v5.67h-5.67ZM451.65,181.66v-5.67h5.67v5.67h-5.67ZM459.38,104.3v-5.67h5.68v5.67h-5.68ZM459.38,104.3v-5.67h5.68v5.67h-5.68ZM459.38,104.3v-5.67h5.68v5.67h-5.68ZM459.38,104.3v-5.67h5.68v5.67h-5.68ZM459.38,142.98v-5.67h5.68v5.67h-5.68ZM459.38,142.98v-5.67h5.68v5.67h-5.68ZM459.38,142.98v-5.67h5.68v5.67h-5.68ZM459.38,142.98v-5.67h5.68v5.67h-5.68ZM459.38,181.66v-5.67h5.68v5.67h-5.68ZM459.38,181.66v-5.67h5.68v5.67h-5.68ZM459.38,181.66v-5.67h5.68v5.67h-5.68ZM459.38,181.66v-5.67h5.68v5.67h-5.68ZM467.12,104.3v-5.67h5.67v5.67h-5.67ZM467.12,104.3v-5.67h5.67v5.67h-5.67ZM467.12,104.3v-5.67h5.67v5.67h-5.67ZM467.12,104.3v-5.67h5.67v5.67h-5.67ZM467.12,142.98v-5.67h5.67v5.67h-5.67ZM467.12,142.98v-5.67h5.67v5.67h-5.67ZM467.12,142.98v-5.67h5.67v5.67h-5.67ZM467.12,142.98v-5.67h5.67v5.67h-5.67ZM467.12,181.66v-5.67h5.67v5.67h-5.67ZM467.12,181.66v-5.67h5.67v5.67h-5.67ZM467.12,181.66v-5.67h5.67v5.67h-5.67ZM467.12,181.66v-5.67h5.67v5.67h-5.67Z"/></g></svg>