<?xml version="1.0" encoding="UTF-8"?><svg id="Layer_2" xmlns="http://www.w3.org/2000/svg" viewBox="0 0 431.26 527.29"><defs><style>.cls-1{fill:#243345;}</style></defs><g id="Layer_1-2"><path class="cls-1" d="M.53,231.58v-9.53h9.53v9.53H.53ZM.53,231.58v-9.53h9.53v9.53H.53ZM.53,231.58v-9.53h9.53v9.53H.53ZM.53,231.58v-9.53h9.53v9.53H.53ZM.53,244.58v-9.53h9.53v9.53H.53ZM.53,244.58v-9.53h9.53v9.53H.53ZM.53,244.58v-9.53h9.53v9.53H.53ZM.53,244.58v-9.53h9.53v9.53H.53ZM.53,257.58v-9.53h9.53v9.53H.53ZM.53,257.58v-9.53h9.53v9.53H.53ZM.53,257.58v-9.53h9.53v9.53H.53ZM.53,257.58v-9.53h9.53v9.53H.53ZM.53,270.57v-9.53h9.53v9.53H.53ZM.53,270.57v-9.53h9.53v9.53H.53ZM.53,270.57v-9.53h9.53v9.53H.53ZM.53,270.57v-9.53h9.53v9.53H.53ZM.53,283.57v-9.53h9.53v9.53H.53ZM.53,283.57v-9.53h9.53v9.53H.53ZM.53,283.57v-9.53h9.53v9.53H.53ZM.53,283.57v-9.53h9.53v9.53H.53ZM.53,296.57v-9.53h9.53v9.53H.53ZM.53,296.57v-9.53h9.53v9.53H.53ZM.53,296.57v-9.53h9.53v9.53H.53ZM.53,296.57v-9.53h9.53v9.53H.53ZM.53,309.57v-9.53h9.53v9.53H.53ZM.53,309.57v-9.53h9.53v9.53H.53ZM.53,309.57v-9.53h9.53v9.53H.53ZM.53,309.57v-9.53h9.53v9.53H.53ZM7.03,322.57v-9.53h9.53v9.53H7.03ZM7.03,322.57v-9.53h9.53v9.53H7.03ZM7.03,322.57v-9.53h9.53v9.53H7.03ZM7.03,322.57v-9.53h9.53v9.53H7.03ZM13.52,335.57v-9.53h9.53v9.53h-9.53ZM13.52,335.57v-9.53h9.53v9.53h-9.53ZM13.52,335.57v-9.53h9.53v9.53h-9.53ZM13.52,335.57v-9.53h9.53v9.53h-9.53ZM20.02,348.57v-9.53h9.53v9.53h-9.53ZM20.02,348.57v-9.53h9.53v9.53h-9.53ZM20.02,348.57v-9.53h9.53v9.53h-9.53ZM20.02,348.57v-9.53h9.53v9.53h-9.53ZM26.52,361.56v-9.53h9.53v9.53h-9.53ZM26.52,361.56v-9.53h9.53v9.53h-9.53ZM26.52,361.56v-9.53h9.53v9.53h-9.53ZM26.52,361.56v-9.53h9.53v9.53h-9.53ZM33.02,348.57v-9.53h9.53v9.53h-9.53ZM33.02,348.57v-9.53h9.53v9.53h-9.53ZM33.02,348.57v-9.53h9.53v9.53h-9.53ZM33.02,348.57v-9.53h9.53v9.53h-9.53ZM39.52,335.57v-9.53h9.53v9.53h-9.53ZM39.52,335.57v-9.53h9.53v9.53h-9.53ZM39.52,335.57v-9.53h9.53v9.53h-9.53ZM39.52,335.57v-9.53h9.53v9.53h-9.53ZM46.02,322.57v-9.53h9.53v9.53h-9.53ZM46.02,322.57v-9.53h9.53v9.53h-9.53ZM46.02,322.57v-9.53h9.53v9.53h-9.53ZM46.02,322.57v-9.53h9.53v9.53h-9.53ZM52.52,231.58v-9.53h9.53v9.53h-9.53ZM52.52,231.58v-9.53h9.53v9.53h-9.53ZM52.52,231.58v-9.53h9.53v9.53h-9.53ZM52.52,231.58v-9.53h9.53v9.53h-9.53ZM52.52,244.58v-9.53h9.53v9.53h-9.53ZM52.52,244.58v-9.53h9.53v9.53h-9.53ZM52.52,244.58v-9.53h9.53v9.53h-9.53ZM52.52,244.58v-9.53h9.53v9.53h-9.53ZM52.52,257.58v-9.53h9.53v9.53h-9.53ZM52.52,257.58v-9.53h9.53v9.53h-9.53ZM52.52,257.58v-9.53h9.53v9.53h-9.53ZM52.52,257.58v-9.53h9.53v9.53h-9.53ZM52.52,270.57v-9.53h9.53v9.53h-9.53ZM52.52,270.57v-9.53h9.53v9.53h-9.53ZM52.52,270.57v-9.53h9.53v9.53h-9.53ZM52.52,270.57v-9.53h9.53v9.53h-9.53ZM52.52,283.57v-9.53h9.53v9.53h-9.53ZM52.52,283.57v-9.53h9.53v9.53h-9.53ZM52.52,283.57v-9.53h9.53v9.53h-9.53ZM52.52,283.57v-9.53h9.53v9.53h-9.53ZM52.52,296.57v-9.53h9.53v9.53h-9.53ZM52.52,296.57v-9.53h9.53v9.53h-9.53ZM52.52,296.57v-9.53h9.53v9.53h-9.53ZM52.52,296.57v-9.53h9.53v9.53h-9.53ZM52.52,309.57v-9.53h9.53v9.53h-9.53ZM52.52,309.57v-9.53h9.53v9.53h-9.53ZM52.52,309.57v-9.53h9.53v9.53h-9.53ZM52.52,309.57v-9.53h9.53v9.53h-9.53ZM59.02,322.57v-9.53h9.53v9.53h-9.53ZM59.02,322.57v-9.53h9.53v9.53h-9.53ZM59.02,322.57v-9.53h9.53v9.53h-9.53ZM59.02,322.57v-9.53h9.53v9.53h-9.53ZM65.52,335.57v-9.53h9.53v9.53h-9.53ZM65.52,335.57v-9.53h9.53v9.53h-9.53ZM65.52,335.57v-9.53h9.53v9.53h-9.53ZM65.52,335.57v-9.53h9.53v9.53h-9.53ZM72.02,348.57v-9.53h9.53v9.53h-9.53ZM72.02,348.57v-9.53h9.53v9.53h-9.53ZM72.02,348.57v-9.53h9.53v9.53h-9.53ZM72.02,348.57v-9.53h9.53v9.53h-9.53ZM78.51,361.56v-9.53h9.53v9.53h-9.53ZM78.51,361.56v-9.53h9.53v9.53h-9.53ZM78.51,361.56v-9.53h9.53v9.53h-9.53ZM78.51,361.56v-9.53h9.53v9.53h-9.53ZM85.01,348.57v-9.53h9.53v9.53h-9.53ZM85.01,348.57v-9.53h9.53v9.53h-9.53ZM85.01,348.57v-9.53h9.53v9.53h-9.53ZM85.01,348.57v-9.53h9.53v9.53h-9.53ZM91.52,335.57v-9.53h9.53v9.53h-9.53ZM91.52,335.57v-9.53h9.53v9.53h-9.53ZM91.52,335.57v-9.53h9.53v9.53h-9.53ZM91.52,335.57v-9.53h9.53v9.53h-9.53ZM98.02,322.57v-9.53h9.53v9.53h-9.53ZM98.02,322.57v-9.53h9.53v9.53h-9.53ZM98.02,322.57v-9.53h9.53v9.53h-9.53ZM98.02,322.57v-9.53h9.53v9.53h-9.53ZM104.51,231.58v-9.53h9.53v9.53h-9.53ZM104.51,231.58v-9.53h9.53v9.53h-9.53ZM104.51,231.58v-9.53h9.53v9.53h-9.53ZM104.51,231.58v-9.53h9.53v9.53h-9.53ZM104.51,244.58v-9.53h9.53v9.53h-9.53ZM104.51,244.58v-9.53h9.53v9.53h-9.53ZM104.51,244.58v-9.53h9.53v9.53h-9.53ZM104.51,244.58v-9.53h9.53v9.53h-9.53ZM104.51,257.58v-9.53h9.53v9.53h-9.53ZM104.51,257.58v-9.53h9.53v9.53h-9.53ZM104.51,257.58v-9.53h9.53v9.53h-9.53ZM104.51,257.58v-9.53h9.53v9.53h-9.53ZM104.51,270.57v-9.53h9.53v9.53h-9.53ZM104.51,270.57v-9.53h9.53v9.53h-9.53ZM104.51,270.57v-9.53h9.53v9.53h-9.53ZM104.51,270.57v-9.53h9.53v9.53h-9.53ZM104.51,283.57v-9.53h9.53v9.53h-9.53ZM104.51,283.57v-9.53h9.53v9.53h-9.53ZM104.51,283.57v-9.53h9.53v9.53h-9.53ZM104.51,283.57v-9.53h9.53v9.53h-9.53ZM104.51,296.57v-9.53h9.53v9.53h-9.53ZM104.51,296.57v-9.53h9.53v9.53h-9.53ZM104.51,296.57v-9.53h9.53v9.53h-9.53ZM104.51,296.57v-9.53h9.53v9.53h-9.53ZM104.51,309.57v-9.53h9.53v9.53h-9.53ZM104.51,309.57v-9.53h9.53v9.53h-9.53ZM104.51,309.57v-9.53h9.53v9.53h-9.53ZM104.51,309.57v-9.53h9.53v9.53h-9.53ZM131.48,231.58v-9.53h9.53v9.53h-9.53ZM131.48,231.58v-9.53h9.53v9.53h-9.53ZM131.48,231.58v-9.53h9.53v9.53h-9.53ZM131.48,231.58v-9.53h9.53v9.53h-9.53ZM131.48,244.58v-9.53h9.53v9.53h-9.53ZM131.48,244.58v-9.53h9.53v9.53h-9.53ZM131.48,244.58v-9.53h9.53v9.53h-9.53ZM131.48,244.58v-9.53h9.53v9.53h-9.53ZM131.48,257.58v-9.53h9.53v9.53h-9.53ZM131.48,257.58v-9.53h9.53v9.53h-9.53ZM131.48,257.58v-9.53h9.53v9.53h-9.53ZM131.48,257.58v-9.53h9.53v9.53h-9.53ZM131.48,270.57v-9.53h9.53v9.53h-9.53ZM131.48,270.57v-9.53h9.53v9.53h-9.53ZM131.48,270.57v-9.53h9.53v9.53h-9.53ZM131.48,270.57v-9.53h9.53v9.53h-9.53ZM131.48,283.57v-9.53h9.53v9.53h-9.53ZM131.48,283.57v-9.53h9.53v9.53h-9.53ZM131.48,283.57v-9.53h9.53v9.53h-9.53ZM131.48,283.57v-9.53h9.53v9.53h-9.53ZM131.48,296.57v-9.53h9.53v9.53h-9.53ZM131.48,296.57v-9.53h9.53v9.53h-9.53ZM131.48,296.57v-9.53h9.53v9.53h-9.53ZM131.48,296.57v-9.53h9.53v9.53h-9.53ZM131.48,309.57v-9.53h9.53v9.53h-9.53ZM131.48,309.57v-9.53h9.53v9.53h-9.53ZM131.48,309.57v-9.53h9.53v9.53h-9.53ZM131.48,309.57v-9.53h9.53v9.53h-9.53ZM131.48,322.57v-9.53h9.53v9.53h-9.53ZM131.48,322.57v-9.53h9.53v9.53h-9.53ZM131.48,322.57v-9.53h9.53v9.53h-9.53ZM131.48,322.57v-9.53h9.53v9.53h-9.53ZM131.48,335.57v-9.53h9.53v9.53h-9.53ZM131.48,335.57v-9.53h9.53v9.53h-9.53ZM131.48,335.57v-9.53h9.53v9.53h-9.53ZM131.48,335.57v-9.53h9.53v9.53h-9.53ZM131.48,348.57v-9.53h9.53v9.53h-9.53ZM131.48,348.57v-9.53h9.53v9.53h-9.53ZM131.48,348.57v-9.53h9.53v9.53h-9.53ZM131.48,348.57v-9.53h9.53v9.53h-9.53ZM131.48,361.56v-9.53h9.53v9.53h-9.53ZM131.48,361.56v-9.53h9.53v9.53h-9.53ZM131.48,361.56v-9.53h9.53v9.53h-9.53ZM131.48,361.56v-9.53h9.53v9.53h-9.53ZM144.48,231.58v-9.53h9.53v9.53h-9.53ZM144.48,231.58v-9.53h9.53v9.53h-9.53ZM144.48,231.58v-9.53h9.53v9.53h-9.53ZM144.48,231.58v-9.53h9.53v9.53h-9.53ZM144.48,296.57v-9.53h9.53v9.53h-9.53ZM144.48,296.57v-9.53h9.53v9.53h-9.53ZM144.48,296.57v-9.53h9.53v9.53h-9.53ZM144.48,296.57v-9.53h9.53v9.53h-9.53ZM144.48,361.56v-9.53h9.53v9.53h-9.53ZM144.48,361.56v-9.53h9.53v9.53h-9.53ZM144.48,361.56v-9.53h9.53v9.53h-9.53ZM144.48,361.56v-9.53h9.53v9.53h-9.53ZM157.48,231.58v-9.53h9.53v9.53h-9.53ZM157.48,231.58v-9.53h9.53v9.53h-9.53ZM157.48,231.58v-9.53h9.53v9.53h-9.53ZM157.48,231.58v-9.53h9.53v9.53h-9.53ZM157.48,296.57v-9.53h9.53v9.53h-9.53ZM157.48,296.57v-9.53h9.53v9.53h-9.53ZM157.48,296.57v-9.53h9.53v9.53h-9.53ZM157.48,296.57v-9.53h9.53v9.53h-9.53ZM157.48,361.56v-9.53h9.53v9.53h-9.53ZM157.48,361.56v-9.53h9.53v9.53h-9.53ZM157.48,361.56v-9.53h9.53v9.53h-9.53ZM157.48,361.56v-9.53h9.53v9.53h-9.53ZM170.48,231.58v-9.53h9.53v9.53h-9.53ZM170.48,231.58v-9.53h9.53v9.53h-9.53ZM170.48,231.58v-9.53h9.53v9.53h-9.53ZM170.48,231.58v-9.53h9.53v9.53h-9.53ZM170.48,296.57v-9.53h9.53v9.53h-9.53ZM170.48,296.57v-9.53h9.53v9.53h-9.53ZM170.48,296.57v-9.53h9.53v9.53h-9.53ZM170.48,296.57v-9.53h9.53v9.53h-9.53ZM170.48,361.56v-9.53h9.53v9.53h-9.53ZM170.48,361.56v-9.53h9.53v9.53h-9.53ZM170.48,361.56v-9.53h9.53v9.53h-9.53ZM170.48,361.56v-9.53h9.53v9.53h-9.53ZM217.92,231.58v-9.53h9.53v9.53h-9.53ZM217.92,231.58v-9.53h9.53v9.53h-9.53ZM217.92,231.58v-9.53h9.53v9.53h-9.53ZM217.92,231.58v-9.53h9.53v9.53h-9.53ZM230.92,231.58v-9.53h9.53v9.53h-9.53ZM230.92,231.58v-9.53h9.53v9.53h-9.53ZM230.92,231.58v-9.53h9.53v9.53h-9.53ZM230.92,231.58v-9.53h9.53v9.53h-9.53ZM243.91,231.58v-9.53h9.53v9.53h-9.53ZM243.91,231.58v-9.53h9.53v9.53h-9.53ZM243.91,231.58v-9.53h9.53v9.53h-9.53ZM243.91,231.58v-9.53h9.53v9.53h-9.53ZM243.91,244.58v-9.53h9.53v9.53h-9.53ZM243.91,244.58v-9.53h9.53v9.53h-9.53ZM243.91,244.58v-9.53h9.53v9.53h-9.53ZM243.91,244.58v-9.53h9.53v9.53h-9.53ZM243.91,257.58v-9.53h9.53v9.53h-9.53ZM243.91,257.58v-9.53h9.53v9.53h-9.53ZM243.91,257.58v-9.53h9.53v9.53h-9.53ZM243.91,257.58v-9.53h9.53v9.53h-9.53ZM243.91,270.58v-9.53h9.53v9.53h-9.53ZM243.91,270.58v-9.53h9.53v9.53h-9.53ZM243.91,270.58v-9.53h9.53v9.53h-9.53ZM243.91,270.58v-9.53h9.53v9.53h-9.53ZM243.91,283.57v-9.53h9.53v9.53h-9.53ZM243.91,283.57v-9.53h9.53v9.53h-9.53ZM243.91,283.57v-9.53h9.53v9.53h-9.53ZM243.91,283.57v-9.53h9.53v9.53h-9.53ZM243.91,296.57v-9.53h9.53v9.53h-9.53ZM243.91,296.57v-9.53h9.53v9.53h-9.53ZM243.91,296.57v-9.53h9.53v9.53h-9.53ZM243.91,296.57v-9.53h9.53v9.53h-9.53ZM243.91,309.57v-9.53h9.53v9.53h-9.53ZM243.91,309.57v-9.53h9.53v9.53h-9.53ZM243.91,309.57v-9.53h9.53v9.53h-9.53ZM243.91,309.57v-9.53h9.53v9.53h-9.53ZM243.91,322.57v-9.53h9.53v9.53h-9.53ZM243.91,322.57v-9.53h9.53v9.53h-9.53ZM243.91,322.57v-9.53h9.53v9.53h-9.53ZM243.91,322.57v-9.53h9.53v9.53h-9.53ZM243.91,335.57v-9.53h9.53v9.53h-9.53ZM243.91,335.57v-9.53h9.53v9.53h-9.53ZM243.91,335.57v-9.53h9.53v9.53h-9.53ZM243.91,335.57v-9.53h9.53v9.53h-9.53ZM243.91,348.57v-9.53h9.53v9.53h-9.53ZM243.91,348.57v-9.53h9.53v9.53h-9.53ZM243.91,348.57v-9.53h9.53v9.53h-9.53ZM243.91,348.57v-9.53h9.53v9.53h-9.53ZM243.91,361.57v-9.54h9.53v9.54h-9.53ZM243.91,361.57v-9.54h9.53v9.54h-9.53ZM243.91,361.57v-9.54h9.53v9.54h-9.53ZM243.91,361.57v-9.54h9.53v9.54h-9.53ZM256.92,231.58v-9.53h9.53v9.53h-9.53ZM256.92,231.58v-9.53h9.53v9.53h-9.53ZM256.92,231.58v-9.53h9.53v9.53h-9.53ZM256.92,231.58v-9.53h9.53v9.53h-9.53ZM269.91,231.58v-9.53h9.53v9.53h-9.53ZM269.91,231.58v-9.53h9.53v9.53h-9.53ZM269.91,231.58v-9.53h9.53v9.53h-9.53ZM269.91,231.58v-9.53h9.53v9.53h-9.53ZM290.39,231.58v-9.53h9.53v9.53h-9.53ZM290.39,231.58v-9.53h9.53v9.53h-9.53ZM290.39,231.58v-9.53h9.53v9.53h-9.53ZM290.39,231.58v-9.53h9.53v9.53h-9.53ZM290.39,244.58v-9.53h9.53v9.53h-9.53ZM290.39,244.58v-9.53h9.53v9.53h-9.53ZM290.39,244.58v-9.53h9.53v9.53h-9.53ZM290.39,244.58v-9.53h9.53v9.53h-9.53ZM290.39,257.58v-9.53h9.53v9.53h-9.53ZM290.39,257.58v-9.53h9.53v9.53h-9.53ZM290.39,257.58v-9.53h9.53v9.53h-9.53ZM290.39,257.58v-9.53h9.53v9.53h-9.53ZM290.39,270.57v-9.53h9.53v9.53h-9.53ZM290.39,270.57v-9.53h9.53v9.53h-9.53ZM290.39,270.57v-9.53h9.53v9.53h-9.53ZM290.39,270.57v-9.53h9.53v9.53h-9.53ZM290.39,283.57v-9.53h9.53v9.53h-9.53ZM290.39,283.57v-9.53h9.53v9.53h-9.53ZM290.39,283.57v-9.53h9.53v9.53h-9.53ZM290.39,283.57v-9.53h9.53v9.53h-9.53ZM290.39,296.57v-9.53h9.53v9.53h-9.53ZM290.39,296.57v-9.53h9.53v9.53h-9.53ZM290.39,296.57v-9.53h9.53v9.53h-9.53ZM290.39,296.57v-9.53h9.53v9.53h-9.53ZM290.39,309.57v-9.53h9.53v9.53h-9.53ZM290.39,309.57v-9.53h9.53v9.53h-9.53ZM290.39,309.57v-9.53h9.53v9.53h-9.53ZM290.39,309.57v-9.53h9.53v9.53h-9.53ZM290.39,322.57v-9.53h9.53v9.53h-9.53ZM290.39,322.57v-9.53h9.53v9.53h-9.53ZM290.39,322.57v-9.53h9.53v9.53h-9.53ZM290.39,322.57v-9.53h9.53v9.53h-9.53ZM290.39,335.57v-9.53h9.53v9.53h-9.53ZM290.39,335.57v-9.53h9.53v9.53h-9.53ZM290.39,335.57v-9.53h9.53v9.53h-9.53ZM290.39,335.57v-9.53h9.53v9.53h-9.53ZM290.39,348.57v-9.53h9.53v9.53h-9.53ZM290.39,348.57v-9.53h9.53v9.53h-9.53ZM290.39,348.57v-9.53h9.53v9.53h-9.53ZM290.39,348.57v-9.53h9.53v9.53h-9.53ZM290.39,361.56v-9.53h9.53v9.53h-9.53ZM290.39,361.56v-9.53h9.53v9.53h-9.53ZM290.39,361.56v-9.53h9.53v9.53h-9.53ZM290.39,361.56v-9.53h9.53v9.53h-9.53ZM303.38,296.57v-9.53h9.53v9.53h-9.53ZM303.38,296.57v-9.53h9.53v9.53h-9.53ZM303.38,296.57v-9.53h9.53v9.53h-9.53ZM303.38,296.57v-9.53h9.53v9.53h-9.53ZM316.38,296.57v-9.53h9.53v9.53h-9.53ZM316.38,296.57v-9.53h9.53v9.53h-9.53ZM316.38,296.57v-9.53h9.53v9.53h-9.53ZM316.38,296.57v-9.53h9.53v9.53h-9.53ZM329.38,296.57v-9.53h9.53v9.53h-9.53ZM329.38,296.57v-9.53h9.53v9.53h-9.53ZM329.38,296.57v-9.53h9.53v9.53h-9.53ZM329.38,296.57v-9.53h9.53v9.53h-9.53ZM342.38,231.58v-9.53h9.53v9.53h-9.53ZM342.38,231.58v-9.53h9.53v9.53h-9.53ZM342.38,231.58v-9.53h9.53v9.53h-9.53ZM342.38,231.58v-9.53h9.53v9.53h-9.53ZM342.38,244.58v-9.53h9.53v9.53h-9.53ZM342.38,244.58v-9.53h9.53v9.53h-9.53ZM342.38,244.58v-9.53h9.53v9.53h-9.53ZM342.38,244.58v-9.53h9.53v9.53h-9.53ZM342.38,257.58v-9.53h9.53v9.53h-9.53ZM342.38,257.58v-9.53h9.53v9.53h-9.53ZM342.38,257.58v-9.53h9.53v9.53h-9.53ZM342.38,257.58v-9.53h9.53v9.53h-9.53ZM342.38,270.57v-9.53h9.53v9.53h-9.53ZM342.38,270.57v-9.53h9.53v9.53h-9.53ZM342.38,270.57v-9.53h9.53v9.53h-9.53ZM342.38,270.57v-9.53h9.53v9.53h-9.53ZM342.38,283.57v-9.53h9.53v9.53h-9.53ZM342.38,283.57v-9.53h9.53v9.53h-9.53ZM342.38,283.57v-9.53h9.53v9.53h-9.53ZM342.38,283.57v-9.53h9.53v9.53h-9.53ZM342.38,296.57v-9.53h9.53v9.53h-9.53ZM342.38,296.57v-9.53h9.53v9.53h-9.53ZM342.38,296.57v-9.53h9.53v9.53h-9.53ZM342.38,296.57v-9.53h9.53v9.53h-9.53ZM342.38,309.57v-9.53h9.53v9.53h-9.53ZM342.38,309.57v-9.53h9.53v9.53h-9.53ZM342.38,309.57v-9.53h9.53v9.53h-9.53ZM342.38,309.57v-9.53h9.53v9.53h-9.53ZM342.38,322.57v-9.53h9.53v9.53h-9.53ZM342.38,322.57v-9.53h9.53v9.53h-9.53ZM342.38,322.57v-9.53h9.53v9.53h-9.53ZM342.38,322.57v-9.53h9.53v9.53h-9.53ZM342.38,335.57v-9.53h9.53v9.53h-9.53ZM342.38,335.57v-9.53h9.53v9.53h-9.53ZM342.38,335.57v-9.53h9.53v9.53h-9.53ZM342.38,335.57v-9.53h9.53v9.53h-9.53ZM342.38,348.57v-9.53h9.53v9.53h-9.53ZM342.38,348.57v-9.53h9.53v9.53h-9.53ZM342.38,348.57v-9.53h9.53v9.53h-9.53ZM342.38,348.57v-9.53h9.53v9.53h-9.53ZM342.38,361.56v-9.53h9.53v9.53h-9.53ZM342.38,361.56v-9.53h9.53v9.53h-9.53ZM342.38,361.56v-9.53h9.53v9.53h-9.53ZM342.38,361.56v-9.53h9.53v9.53h-9.53ZM375.85,231.58v-9.53h9.53v9.53h-9.53ZM375.85,231.58v-9.53h9.53v9.53h-9.53ZM375.85,231.58v-9.53h9.53v9.53h-9.53ZM375.85,231.58v-9.53h9.53v9.53h-9.53ZM375.85,244.58v-9.53h9.53v9.53h-9.53ZM375.85,244.58v-9.53h9.53v9.53h-9.53ZM375.85,244.58v-9.53h9.53v9.53h-9.53ZM375.85,244.58v-9.53h9.53v9.53h-9.53ZM375.85,257.58v-9.53h9.53v9.53h-9.53ZM375.85,257.58v-9.53h9.53v9.53h-9.53ZM375.85,257.58v-9.53h9.53v9.53h-9.53ZM375.85,257.58v-9.53h9.53v9.53h-9.53ZM375.85,270.57v-9.53h9.53v9.53h-9.53ZM375.85,270.57v-9.53h9.53v9.53h-9.53ZM375.85,270.57v-9.53h9.53v9.53h-9.53ZM375.85,270.57v-9.53h9.53v9.53h-9.53ZM375.85,283.57v-9.53h9.53v9.53h-9.53ZM375.85,283.57v-9.53h9.53v9.53h-9.53ZM375.85,283.57v-9.53h9.53v9.53h-9.53ZM375.85,283.57v-9.53h9.53v9.53h-9.53ZM375.85,296.57v-9.53h9.53v9.53h-9.53ZM375.85,296.57v-9.53h9.53v9.53h-9.53ZM375.85,296.57v-9.53h9.53v9.53h-9.53ZM375.85,296.57v-9.53h9.53v9.53h-9.53ZM375.85,309.57v-9.53h9.53v9.53h-9.53ZM375.85,309.57v-9.53h9.53v9.53h-9.53ZM375.85,309.57v-9.53h9.53v9.53h-9.53ZM375.85,309.57v-9.53h9.53v9.53h-9.53ZM375.85,322.57v-9.53h9.53v9.53h-9.53ZM375.85,322.57v-9.53h9.53v9.53h-9.53ZM375.85,322.57v-9.53h9.53v9.53h-9.53ZM375.85,322.57v-9.53h9.53v9.53h-9.53ZM375.85,335.57v-9.53h9.53v9.53h-9.53ZM375.85,335.57v-9.53h9.53v9.53h-9.53ZM375.85,335.57v-9.53h9.53v9.53h-9.53ZM375.85,335.57v-9.53h9.53v9.53h-9.53ZM375.85,348.57v-9.53h9.53v9.53h-9.53ZM375.85,348.57v-9.53h9.53v9.53h-9.53ZM375.85,348.57v-9.53h9.53v9.53h-9.53ZM375.85,348.57v-9.53h9.53v9.53h-9.53ZM375.85,361.56v-9.53h9.53v9.53h-9.53ZM375.85,361.56v-9.53h9.53v9.53h-9.53ZM375.85,361.56v-9.53h9.53v9.53h-9.53ZM375.85,361.56v-9.53h9.53v9.53h-9.53ZM388.84,231.58v-9.53h9.53v9.53h-9.53ZM388.84,231.58v-9.53h9.53v9.53h-9.53ZM388.84,231.58v-9.53h9.53v9.53h-9.53ZM388.84,231.58v-9.53h9.53v9.53h-9.53ZM388.84,296.57v-9.53h9.53v9.53h-9.53ZM388.84,296.57v-9.53h9.53v9.53h-9.53ZM388.84,296.57v-9.53h9.53v9.53h-9.53ZM388.84,296.57v-9.53h9.53v9.53h-9.53ZM388.84,361.56v-9.53h9.53v9.53h-9.53ZM388.84,361.56v-9.53h9.53v9.53h-9.53ZM388.84,361.56v-9.53h9.53v9.53h-9.53ZM388.84,361.56v-9.53h9.53v9.53h-9.53ZM401.85,231.58v-9.53h9.53v9.53h-9.53ZM401.85,231.58v-9.53h9.53v9.53h-9.53ZM401.85,231.58v-9.53h9.53v9.53h-9.53ZM401.85,231.58v-9.53h9.53v9.53h-9.53ZM401.85,296.57v-9.53h9.53v9.53h-9.53ZM401.85,296.57v-9.53h9.53v9.53h-9.53ZM401.85,296.57v-9.53h9.53v9.53h-9.53ZM401.85,296.57v-9.53h9.53v9.53h-9.53ZM401.85,361.56v-9.53h9.53v9.53h-9.53ZM401.85,361.56v-9.53h9.53v9.53h-9.53ZM401.85,361.56v-9.53h9.53v9.53h-9.53ZM401.85,361.56v-9.53h9.53v9.53h-9.53ZM414.84,231.58v-9.53h9.53v9.53h-9.53ZM414.84,231.58v-9.53h9.53v9.53h-9.53ZM414.84,231.58v-9.53h9.53v9.53h-9.53ZM414.84,231.58v-9.53h9.53v9.53h-9.53ZM414.84,296.57v-9.53h9.53v9.53h-9.53ZM414.84,296.57v-9.53h9.53v9.53h-9.53ZM414.84,296.57v-9.53h9.53v9.53h-9.53ZM414.84,296.57v-9.53h9.53v9.53h-9.53ZM414.84,361.56v-9.53h9.53v9.53h-9.53ZM414.84,361.56v-9.53h9.53v9.53h-9.53ZM414.84,361.56v-9.53h9.53v9.53h-9.53ZM414.84,361.56v-9.53h9.53v9.53h-9.53ZM7.03,397.31v-9.53h9.53v9.53H7.03ZM7.03,397.31v-9.53h9.53v9.53H7.03ZM7.03,397.31v-9.53h9.53v9.53H7.03ZM7.03,397.31v-9.53h9.53v9.53H7.03ZM7.03,410.31v-9.53h9.53v9.53H7.03ZM7.03,410.31v-9.53h9.53v9.53H7.03ZM7.03,410.31v-9.53h9.53v9.53H7.03ZM7.03,410.31v-9.53h9.53v9.53H7.03ZM7.03,423.3v-9.53h9.53v9.53H7.03ZM7.03,423.3v-9.53h9.53v9.53H7.03ZM7.03,423.3v-9.53h9.53v9.53H7.03ZM7.03,423.3v-9.53h9.53v9.53H7.03ZM7.03,436.31v-9.53h9.53v9.53H7.03ZM7.03,436.31v-9.53h9.53v9.53H7.03ZM7.03,436.31v-9.53h9.53v9.53H7.03ZM7.03,436.31v-9.53h9.53v9.53H7.03ZM7.03,449.3v-9.53h9.53v9.53H7.03ZM7.03,449.3v-9.53h9.53v9.53H7.03ZM7.03,449.3v-9.53h9.53v9.53H7.03ZM7.03,449.3v-9.53h9.53v9.53H7.03ZM7.03,462.3v-9.53h9.53v9.53H7.03ZM7.03,462.3v-9.53h9.53v9.53H7.03ZM7.03,462.3v-9.53h9.53v9.53H7.03ZM7.03,462.3v-9.53h9.53v9.53H7.03ZM7.03,475.3v-9.53h9.53v9.53H7.03ZM7.03,475.3v-9.53h9.53v9.53H7.03ZM7.03,475.3v-9.53h9.53v9.53H7.03ZM7.03,475.3v-9.53h9.53v9.53H7.03ZM7.03,488.3v-9.53h9.53v9.53H7.03ZM7.03,488.3v-9.53h9.53v9.53H7.03ZM7.03,488.3v-9.53h9.53v9.53H7.03ZM7.03,488.3v-9.53h9.53v9.53H7.03ZM7.03,501.3v-9.53h9.53v9.53H7.03ZM7.03,501.3v-9.53h9.53v9.53H7.03ZM7.03,501.3v-9.53h9.53v9.53H7.03ZM7.03,501.3v-9.53h9.53v9.53H7.03ZM7.03,514.29v-9.53h9.53v9.53H7.03ZM7.03,514.29v-9.53h9.53v9.53H7.03ZM7.03,514.29v-9.53h9.53v9.53H7.03ZM7.03,514.29v-9.53h9.53v9.53H7.03ZM7.03,527.29v-9.53h9.53v9.53H7.03ZM7.03,527.29v-9.53h9.53v9.53H7.03ZM7.03,527.29v-9.53h9.53v9.53H7.03ZM7.03,527.29v-9.53h9.53v9.53H7.03ZM20.02,397.31v-9.53h9.53v9.53h-9.53ZM20.02,397.31v-9.53h9.53v9.53h-9.53ZM20.02,397.31v-9.53h9.53v9.53h-9.53ZM20.02,397.31v-9.53h9.53v9.53h-9.53ZM20.02,475.3v-9.53h9.53v9.53h-9.53ZM20.02,475.3v-9.53h9.53v9.53h-9.53ZM20.02,475.3v-9.53h9.53v9.53h-9.53ZM20.02,475.3v-9.53h9.53v9.53h-9.53ZM33.02,397.31v-9.53h9.53v9.53h-9.53ZM33.02,397.31v-9.53h9.53v9.53h-9.53ZM33.02,397.31v-9.53h9.53v9.53h-9.53ZM33.02,397.31v-9.53h9.53v9.53h-9.53ZM33.02,475.3v-9.53h9.53v9.53h-9.53ZM33.02,475.3v-9.53h9.53v9.53h-9.53ZM33.02,475.3v-9.53h9.53v9.53h-9.53ZM33.02,475.3v-9.53h9.53v9.53h-9.53ZM46.02,397.31v-9.53h9.53v9.53h-9.53ZM46.02,397.31v-9.53h9.53v9.53h-9.53ZM46.02,397.31v-9.53h9.53v9.53h-9.53ZM46.02,397.31v-9.53h9.53v9.53h-9.53ZM46.02,475.3v-9.53h9.53v9.53h-9.53ZM46.02,475.3v-9.53h9.53v9.53h-9.53ZM46.02,475.3v-9.53h9.53v9.53h-9.53ZM46.02,475.3v-9.53h9.53v9.53h-9.53ZM59.02,410.31v-9.53h9.53v9.53h-9.53ZM59.02,410.31v-9.53h9.53v9.53h-9.53ZM59.02,410.31v-9.53h9.53v9.53h-9.53ZM59.02,410.31v-9.53h9.53v9.53h-9.53ZM59.02,423.3v-9.53h9.53v9.53h-9.53ZM59.02,423.3v-9.53h9.53v9.53h-9.53ZM59.02,423.3v-9.53h9.53v9.53h-9.53ZM59.02,423.3v-9.53h9.53v9.53h-9.53ZM59.02,436.31v-9.53h9.53v9.53h-9.53ZM59.02,436.31v-9.53h9.53v9.53h-9.53ZM59.02,436.31v-9.53h9.53v9.53h-9.53ZM59.02,436.31v-9.53h9.53v9.53h-9.53ZM59.02,449.3v-9.53h9.53v9.53h-9.53ZM59.02,449.3v-9.53h9.53v9.53h-9.53ZM59.02,449.3v-9.53h9.53v9.53h-9.53ZM59.02,449.3v-9.53h9.53v9.53h-9.53ZM59.02,462.3v-9.53h9.53v9.53h-9.53ZM59.02,462.3v-9.53h9.53v9.53h-9.53ZM59.02,462.3v-9.53h9.53v9.53h-9.53ZM59.02,462.3v-9.53h9.53v9.53h-9.53ZM85.99,397.31v-9.53h9.53v9.53h-9.53ZM85.99,397.31v-9.53h9.53v9.53h-9.53ZM85.99,397.31v-9.53h9.53v9.53h-9.53ZM85.99,397.31v-9.53h9.53v9.53h-9.53ZM85.99,410.31v-9.53h9.53v9.53h-9.53ZM85.99,410.31v-9.53h9.53v9.53h-9.53ZM85.99,410.31v-9.53h9.53v9.53h-9.53ZM85.99,410.31v-9.53h9.53v9.53h-9.53ZM85.99,423.31v-9.53h9.53v9.53h-9.53ZM85.99,423.31v-9.53h9.53v9.53h-9.53ZM85.99,423.31v-9.53h9.53v9.53h-9.53ZM85.99,423.31v-9.53h9.53v9.53h-9.53ZM85.99,436.3v-9.53h9.53v9.53h-9.53ZM85.99,436.3v-9.53h9.53v9.53h-9.53ZM85.99,436.3v-9.53h9.53v9.53h-9.53ZM85.99,436.3v-9.53h9.53v9.53h-9.53ZM85.99,449.3v-9.53h9.53v9.53h-9.53ZM85.99,449.3v-9.53h9.53v9.53h-9.53ZM85.99,449.3v-9.53h9.53v9.53h-9.53ZM85.99,449.3v-9.53h9.53v9.53h-9.53ZM85.99,462.3v-9.53h9.53v9.53h-9.53ZM85.99,462.3v-9.53h9.53v9.53h-9.53ZM85.99,462.3v-9.53h9.53v9.53h-9.53ZM85.99,462.3v-9.53h9.53v9.53h-9.53ZM85.99,475.3v-9.53h9.53v9.53h-9.53ZM85.99,475.3v-9.53h9.53v9.53h-9.53ZM85.99,475.3v-9.53h9.53v9.53h-9.53ZM85.99,475.3v-9.53h9.53v9.53h-9.53ZM85.99,488.3v-9.53h9.53v9.53h-9.53ZM85.99,488.3v-9.53h9.53v9.53h-9.53ZM85.99,488.3v-9.53h9.53v9.53h-9.53ZM85.99,488.3v-9.53h9.53v9.53h-9.53ZM85.99,501.3v-9.53h9.53v9.53h-9.53ZM85.99,501.3v-9.53h9.53v9.53h-9.53ZM85.99,501.3v-9.53h9.53v9.53h-9.53ZM85.99,501.3v-9.53h9.53v9.53h-9.53ZM85.99,514.3v-9.53h9.53v9.53h-9.53ZM85.99,514.3v-9.53h9.53v9.53h-9.53ZM85.99,514.3v-9.53h9.53v9.53h-9.53ZM85.99,514.3v-9.53h9.53v9.53h-9.53ZM85.99,527.29v-9.53h9.53v9.53h-9.53ZM85.99,527.29v-9.53h9.53v9.53h-9.53ZM85.99,527.29v-9.53h9.53v9.53h-9.53ZM85.99,527.29v-9.53h9.53v9.53h-9.53ZM98.98,397.31v-9.53h9.53v9.53h-9.53ZM98.98,397.31v-9.53h9.53v9.53h-9.53ZM98.98,397.31v-9.53h9.53v9.53h-9.53ZM98.98,397.31v-9.53h9.53v9.53h-9.53ZM98.98,462.3v-9.53h9.53v9.53h-9.53ZM98.98,462.3v-9.53h9.53v9.53h-9.53ZM98.98,462.3v-9.53h9.53v9.53h-9.53ZM98.98,462.3v-9.53h9.53v9.53h-9.53ZM98.98,527.29v-9.53h9.53v9.53h-9.53ZM98.98,527.29v-9.53h9.53v9.53h-9.53ZM98.98,527.29v-9.53h9.53v9.53h-9.53ZM98.98,527.29v-9.53h9.53v9.53h-9.53ZM111.99,397.31v-9.53h9.53v9.53h-9.53ZM111.99,397.31v-9.53h9.53v9.53h-9.53ZM111.99,397.31v-9.53h9.53v9.53h-9.53ZM111.99,397.31v-9.53h9.53v9.53h-9.53ZM111.99,462.3v-9.53h9.53v9.53h-9.53ZM111.99,462.3v-9.53h9.53v9.53h-9.53ZM111.99,462.3v-9.53h9.53v9.53h-9.53ZM111.99,462.3v-9.53h9.53v9.53h-9.53ZM111.99,527.29v-9.53h9.53v9.53h-9.53ZM111.99,527.29v-9.53h9.53v9.53h-9.53ZM111.99,527.29v-9.53h9.53v9.53h-9.53ZM111.99,527.29v-9.53h9.53v9.53h-9.53ZM124.98,397.31v-9.53h9.53v9.53h-9.53ZM124.98,397.31v-9.53h9.53v9.53h-9.53ZM124.98,397.31v-9.53h9.53v9.53h-9.53ZM124.98,397.31v-9.53h9.53v9.53h-9.53ZM124.98,462.3v-9.53h9.53v9.53h-9.53ZM124.98,462.3v-9.53h9.53v9.53h-9.53ZM124.98,462.3v-9.53h9.53v9.53h-9.53ZM124.98,462.3v-9.53h9.53v9.53h-9.53ZM124.98,527.29v-9.53h9.53v9.53h-9.53ZM124.98,527.29v-9.53h9.53v9.53h-9.53ZM124.98,527.29v-9.53h9.53v9.53h-9.53ZM124.98,527.29v-9.53h9.53v9.53h-9.53ZM151.95,410.31v-9.53h9.53v9.53h-9.53ZM151.95,410.31v-9.53h9.53v9.53h-9.53ZM151.95,410.31v-9.53h9.53v9.53h-9.53ZM151.95,410.31v-9.53h9.53v9.53h-9.53ZM151.95,423.31v-9.53h9.53v9.53h-9.53ZM151.95,423.31v-9.53h9.53v9.53h-9.53ZM151.95,423.31v-9.53h9.53v9.53h-9.53ZM151.95,423.31v-9.53h9.53v9.53h-9.53ZM151.95,436.3v-9.53h9.53v9.53h-9.53ZM151.95,436.3v-9.53h9.53v9.53h-9.53ZM151.95,436.3v-9.53h9.53v9.53h-9.53ZM151.95,436.3v-9.53h9.53v9.53h-9.53ZM151.95,449.31v-9.53h9.53v9.53h-9.53ZM151.95,449.31v-9.53h9.53v9.53h-9.53ZM151.95,449.31v-9.53h9.53v9.53h-9.53ZM151.95,449.31v-9.53h9.53v9.53h-9.53ZM151.95,462.3v-9.53h9.53v9.53h-9.53ZM151.95,462.3v-9.53h9.53v9.53h-9.53ZM151.95,462.3v-9.53h9.53v9.53h-9.53ZM151.95,462.3v-9.53h9.53v9.53h-9.53ZM151.95,475.3v-9.53h9.53v9.53h-9.53ZM151.95,475.3v-9.53h9.53v9.53h-9.53ZM151.95,475.3v-9.53h9.53v9.53h-9.53ZM151.95,475.3v-9.53h9.53v9.53h-9.53ZM151.95,488.3v-9.53h9.53v9.53h-9.53ZM151.95,488.3v-9.53h9.53v9.53h-9.53ZM151.95,488.3v-9.53h9.53v9.53h-9.53ZM151.95,488.3v-9.53h9.53v9.53h-9.53ZM151.95,501.3v-9.53h9.53v9.53h-9.53ZM151.95,501.3v-9.53h9.53v9.53h-9.53ZM151.95,501.3v-9.53h9.53v9.53h-9.53ZM151.95,501.3v-9.53h9.53v9.53h-9.53ZM151.95,514.3v-9.53h9.53v9.53h-9.53ZM151.95,514.3v-9.53h9.53v9.53h-9.53ZM151.95,514.3v-9.53h9.53v9.53h-9.53ZM151.95,514.3v-9.53h9.53v9.53h-9.53ZM164.95,397.31v-9.53h9.53v9.53h-9.53ZM164.95,397.31v-9.53h9.53v9.53h-9.53ZM164.95,397.31v-9.53h9.53v9.53h-9.53ZM164.95,397.31v-9.53h9.53v9.53h-9.53ZM164.95,527.29v-9.53h9.53v9.53h-9.53ZM164.95,527.29v-9.53h9.53v9.53h-9.53ZM164.95,527.29v-9.53h9.53v9.53h-9.53ZM164.95,527.29v-9.53h9.53v9.53h-9.53ZM177.95,397.31v-9.53h9.53v9.53h-9.53ZM177.95,397.31v-9.53h9.53v9.53h-9.53ZM177.95,397.31v-9.53h9.53v9.53h-9.53ZM177.95,397.31v-9.53h9.53v9.53h-9.53ZM177.95,527.29v-9.53h9.53v9.53h-9.53ZM177.95,527.29v-9.53h9.53v9.53h-9.53ZM177.95,527.29v-9.53h9.53v9.53h-9.53ZM177.95,527.29v-9.53h9.53v9.53h-9.53ZM190.95,397.31v-9.53h9.53v9.53h-9.53ZM190.95,397.31v-9.53h9.53v9.53h-9.53ZM190.95,397.31v-9.53h9.53v9.53h-9.53ZM190.95,397.31v-9.53h9.53v9.53h-9.53ZM190.95,527.29v-9.53h9.53v9.53h-9.53ZM190.95,527.29v-9.53h9.53v9.53h-9.53ZM190.95,527.29v-9.53h9.53v9.53h-9.53ZM190.95,527.29v-9.53h9.53v9.53h-9.53ZM203.95,410.31v-9.53h9.53v9.53h-9.53ZM203.95,410.31v-9.53h9.53v9.53h-9.53ZM203.95,410.31v-9.53h9.53v9.53h-9.53ZM203.95,410.31v-9.53h9.53v9.53h-9.53ZM203.95,423.31v-9.53h9.53v9.53h-9.53ZM203.95,423.31v-9.53h9.53v9.53h-9.53ZM203.95,423.31v-9.53h9.53v9.53h-9.53ZM203.95,423.31v-9.53h9.53v9.53h-9.53ZM203.95,436.3v-9.53h9.53v9.53h-9.53ZM203.95,436.3v-9.53h9.53v9.53h-9.53ZM203.95,436.3v-9.53h9.53v9.53h-9.53ZM203.95,436.3v-9.53h9.53v9.53h-9.53ZM203.95,449.31v-9.53h9.53v9.53h-9.53ZM203.95,449.31v-9.53h9.53v9.53h-9.53ZM203.95,449.31v-9.53h9.53v9.53h-9.53ZM203.95,449.31v-9.53h9.53v9.53h-9.53ZM203.95,462.3v-9.53h9.53v9.53h-9.53ZM203.95,462.3v-9.53h9.53v9.53h-9.53ZM203.95,462.3v-9.53h9.53v9.53h-9.53ZM203.95,462.3v-9.53h9.53v9.53h-9.53ZM203.95,475.3v-9.53h9.53v9.53h-9.53ZM203.95,475.3v-9.53h9.53v9.53h-9.53ZM203.95,475.3v-9.53h9.53v9.53h-9.53ZM203.95,475.3v-9.53h9.53v9.53h-9.53ZM203.95,488.3v-9.53h9.53v9.53h-9.53ZM203.95,488.3v-9.53h9.53v9.53h-9.53ZM203.95,488.3v-9.53h9.53v9.53h-9.53ZM203.95,488.3v-9.53h9.53v9.53h-9.53ZM203.95,501.3v-9.53h9.53v9.53h-9.53ZM203.95,501.3v-9.53h9.53v9.53h-9.53ZM203.95,501.3v-9.53h9.53v9.53h-9.53ZM203.95,501.3v-9.53h9.53v9.53h-9.53ZM203.95,514.3v-9.53h9.53v9.53h-9.53ZM203.95,514.3v-9.53h9.53v9.53h-9.53ZM203.95,514.3v-9.53h9.53v9.53h-9.53ZM203.95,514.3v-9.53h9.53v9.53h-9.53ZM237.42,397.31v-9.53h9.53v9.53h-9.53ZM237.42,397.31v-9.53h9.53v9.53h-9.53ZM237.42,397.31v-9.53h9.53v9.53h-9.53ZM237.42,397.31v-9.53h9.53v9.53h-9.53ZM237.42,410.31v-9.53h9.53v9.53h-9.53ZM237.42,410.31v-9.53h9.53v9.53h-9.53ZM237.42,410.31v-9.53h9.53v9.53h-9.53ZM237.42,410.31v-9.53h9.53v9.53h-9.53ZM237.42,423.3v-9.53h9.53v9.53h-9.53ZM237.42,423.3v-9.53h9.53v9.53h-9.53ZM237.42,423.3v-9.53h9.53v9.53h-9.53ZM237.42,423.3v-9.53h9.53v9.53h-9.53ZM237.42,436.31v-9.53h9.53v9.53h-9.53ZM237.42,436.31v-9.53h9.53v9.53h-9.53ZM237.42,436.31v-9.53h9.53v9.53h-9.53ZM237.42,436.31v-9.53h9.53v9.53h-9.53ZM237.42,449.3v-9.53h9.53v9.53h-9.53ZM237.42,449.3v-9.53h9.53v9.53h-9.53ZM237.42,449.3v-9.53h9.53v9.53h-9.53ZM237.42,449.3v-9.53h9.53v9.53h-9.53ZM237.42,462.3v-9.53h9.53v9.53h-9.53ZM237.42,462.3v-9.53h9.53v9.53h-9.53ZM237.42,462.3v-9.53h9.53v9.53h-9.53ZM237.42,462.3v-9.53h9.53v9.53h-9.53ZM237.42,475.3v-9.53h9.53v9.53h-9.53ZM237.42,475.3v-9.53h9.53v9.53h-9.53ZM237.42,475.3v-9.53h9.53v9.53h-9.53ZM237.42,475.3v-9.53h9.53v9.53h-9.53ZM237.42,488.3v-9.53h9.53v9.53h-9.53ZM237.42,488.3v-9.53h9.53v9.53h-9.53ZM237.42,488.3v-9.53h9.53v9.53h-9.53ZM237.42,488.3v-9.53h9.53v9.53h-9.53ZM237.42,501.3v-9.53h9.53v9.53h-9.53ZM237.42,501.3v-9.53h9.53v9.53h-9.53ZM237.42,501.3v-9.53h9.53v9.53h-9.53ZM237.42,501.3v-9.53h9.53v9.53h-9.53ZM237.42,514.29v-9.53h9.53v9.53h-9.53ZM237.42,514.29v-9.53h9.53v9.53h-9.53ZM237.42,514.29v-9.53h9.53v9.53h-9.53ZM237.42,514.29v-9.53h9.53v9.53h-9.53ZM237.42,527.29v-9.53h9.53v9.53h-9.53ZM237.42,527.29v-9.53h9.53v9.53h-9.53ZM237.42,527.29v-9.53h9.53v9.53h-9.53ZM237.42,527.29v-9.53h9.53v9.53h-9.53ZM250.41,397.31v-9.53h9.53v9.53h-9.53ZM250.41,397.31v-9.53h9.53v9.53h-9.53ZM250.41,397.31v-9.53h9.53v9.53h-9.53ZM250.41,397.31v-9.53h9.53v9.53h-9.53ZM250.41,475.3v-9.53h9.53v9.53h-9.53ZM250.41,475.3v-9.53h9.53v9.53h-9.53ZM250.41,475.3v-9.53h9.53v9.53h-9.53ZM250.41,475.3v-9.53h9.53v9.53h-9.53ZM263.41,397.31v-9.53h9.53v9.53h-9.53ZM263.41,397.31v-9.53h9.53v9.53h-9.53ZM263.41,397.31v-9.53h9.53v9.53h-9.53ZM263.41,397.31v-9.53h9.53v9.53h-9.53ZM263.41,475.3v-9.53h9.53v9.53h-9.53ZM263.41,475.3v-9.53h9.53v9.53h-9.53ZM263.41,475.3v-9.53h9.53v9.53h-9.53ZM263.41,475.3v-9.53h9.53v9.53h-9.53ZM276.41,397.31v-9.53h9.53v9.53h-9.53ZM276.41,397.31v-9.53h9.53v9.53h-9.53ZM276.41,397.31v-9.53h9.53v9.53h-9.53ZM276.41,397.31v-9.53h9.53v9.53h-9.53ZM276.41,475.3v-9.53h9.53v9.53h-9.53ZM276.41,475.3v-9.53h9.53v9.53h-9.53ZM276.41,475.3v-9.53h9.53v9.53h-9.53ZM276.41,475.3v-9.53h9.53v9.53h-9.53ZM289.41,410.31v-9.53h9.53v9.53h-9.53ZM289.41,410.31v-9.53h9.53v9.53h-9.53ZM289.41,410.31v-9.53h9.53v9.53h-9.53ZM289.41,410.31v-9.53h9.53v9.53h-9.53ZM289.41,423.3v-9.53h9.53v9.53h-9.53ZM289.41,423.3v-9.53h9.53v9.53h-9.53ZM289.41,423.3v-9.53h9.53v9.53h-9.53ZM289.41,423.3v-9.53h9.53v9.53h-9.53ZM289.41,436.31v-9.53h9.53v9.53h-9.53ZM289.41,436.31v-9.53h9.53v9.53h-9.53ZM289.41,436.31v-9.53h9.53v9.53h-9.53ZM289.41,436.31v-9.53h9.53v9.53h-9.53ZM289.41,449.3v-9.53h9.53v9.53h-9.53ZM289.41,449.3v-9.53h9.53v9.53h-9.53ZM289.41,449.3v-9.53h9.53v9.53h-9.53ZM289.41,449.3v-9.53h9.53v9.53h-9.53ZM289.41,462.3v-9.53h9.53v9.53h-9.53ZM289.41,462.3v-9.53h9.53v9.53h-9.53ZM289.41,462.3v-9.53h9.53v9.53h-9.53ZM289.41,462.3v-9.53h9.53v9.53h-9.53ZM316.38,397.31v-9.53h9.53v9.53h-9.53ZM316.38,397.31v-9.53h9.53v9.53h-9.53ZM316.38,397.31v-9.53h9.53v9.53h-9.53ZM316.38,397.31v-9.53h9.53v9.53h-9.53ZM316.38,410.31v-9.53h9.53v9.53h-9.53ZM316.38,410.31v-9.53h9.53v9.53h-9.53ZM316.38,410.31v-9.53h9.53v9.53h-9.53ZM316.38,410.31v-9.53h9.53v9.53h-9.53ZM316.38,423.31v-9.53h9.53v9.53h-9.53ZM316.38,423.31v-9.53h9.53v9.53h-9.53ZM316.38,423.31v-9.53h9.53v9.53h-9.53ZM316.38,423.31v-9.53h9.53v9.53h-9.53ZM316.38,436.3v-9.53h9.53v9.53h-9.53ZM316.38,436.3v-9.53h9.53v9.53h-9.53ZM316.38,436.3v-9.53h9.53v9.53h-9.53ZM316.38,436.3v-9.53h9.53v9.53h-9.53ZM316.38,449.3v-9.53h9.53v9.53h-9.53ZM316.38,449.3v-9.53h9.53v9.53h-9.53ZM316.38,449.3v-9.53h9.53v9.53h-9.53ZM316.38,449.3v-9.53h9.53v9.53h-9.53ZM316.38,462.3v-9.53h9.53v9.53h-9.53ZM316.38,462.3v-9.53h9.53v9.53h-9.53ZM316.38,462.3v-9.53h9.53v9.53h-9.53ZM316.38,462.3v-9.53h9.53v9.53h-9.53ZM316.38,475.3v-9.53h9.53v9.53h-9.53ZM316.38,475.3v-9.53h9.53v9.53h-9.53ZM316.38,475.3v-9.53h9.53v9.53h-9.53ZM316.38,475.3v-9.53h9.53v9.53h-9.53ZM316.38,488.3v-9.53h9.53v9.53h-9.53ZM316.38,488.3v-9.53h9.53v9.53h-9.53ZM316.38,488.3v-9.53h9.53v9.53h-9.53ZM316.38,488.3v-9.53h9.53v9.53h-9.53ZM316.38,501.3v-9.53h9.53v9.53h-9.53ZM316.38,501.3v-9.53h9.53v9.53h-9.53ZM316.38,501.3v-9.53h9.53v9.53h-9.53ZM316.38,501.3v-9.53h9.53v9.53h-9.53ZM316.38,514.3v-9.53h9.53v9.53h-9.53ZM316.38,514.3v-9.53h9.53v9.53h-9.53ZM316.38,514.3v-9.53h9.53v9.53h-9.53ZM316.38,514.3v-9.53h9.53v9.53h-9.53ZM316.38,527.29v-9.53h9.53v9.53h-9.53ZM316.38,527.29v-9.53h9.53v9.53h-9.53ZM316.38,527.29v-9.53h9.53v9.53h-9.53ZM316.38,527.29v-9.53h9.53v9.53h-9.53ZM329.37,527.29v-9.53h9.53v9.53h-9.53ZM329.37,527.29v-9.53h9.53v9.53h-9.53ZM329.37,527.29v-9.53h9.53v9.53h-9.53ZM329.37,527.29v-9.53h9.53v9.53h-9.53ZM342.38,527.29v-9.53h9.53v9.53h-9.53ZM342.38,527.29v-9.53h9.53v9.53h-9.53ZM342.38,527.29v-9.53h9.53v9.53h-9.53ZM342.38,527.29v-9.53h9.53v9.53h-9.53ZM355.37,527.29v-9.53h9.53v9.53h-9.53ZM355.37,527.29v-9.53h9.53v9.53h-9.53ZM355.37,527.29v-9.53h9.53v9.53h-9.53ZM355.37,527.29v-9.53h9.53v9.53h-9.53ZM382.34,397.31v-9.53h9.53v9.53h-9.53ZM382.34,397.31v-9.53h9.53v9.53h-9.53ZM382.34,397.31v-9.53h9.53v9.53h-9.53ZM382.34,397.31v-9.53h9.53v9.53h-9.53ZM382.34,410.31v-9.53h9.53v9.53h-9.53ZM382.34,410.31v-9.53h9.53v9.53h-9.53ZM382.34,410.31v-9.53h9.53v9.53h-9.53ZM382.34,410.31v-9.53h9.53v9.53h-9.53ZM382.34,423.31v-9.53h9.53v9.53h-9.53ZM382.34,423.31v-9.53h9.53v9.53h-9.53ZM382.34,423.31v-9.53h9.53v9.53h-9.53ZM382.34,423.31v-9.53h9.53v9.53h-9.53ZM382.34,436.3v-9.53h9.53v9.53h-9.53ZM382.34,436.3v-9.53h9.53v9.53h-9.53ZM382.34,436.3v-9.53h9.53v9.53h-9.53ZM382.34,436.3v-9.53h9.53v9.53h-9.53ZM382.34,449.3v-9.53h9.53v9.53h-9.53ZM382.34,449.3v-9.53h9.53v9.53h-9.53ZM382.34,449.3v-9.53h9.53v9.53h-9.53ZM382.34,449.3v-9.53h9.53v9.53h-9.53ZM382.34,462.3v-9.53h9.53v9.53h-9.53ZM382.34,462.3v-9.53h9.53v9.53h-9.53ZM382.34,462.3v-9.53h9.53v9.53h-9.53ZM382.34,462.3v-9.53h9.53v9.53h-9.53ZM382.34,475.3v-9.53h9.53v9.53h-9.53ZM382.34,475.3v-9.53h9.53v9.53h-9.53ZM382.34,475.3v-9.53h9.53v9.53h-9.53ZM382.34,475.3v-9.53h9.53v9.53h-9.53ZM382.34,488.3v-9.53h9.53v9.53h-9.53ZM382.34,488.3v-9.53h9.53v9.53h-9.53ZM382.34,488.3v-9.53h9.53v9.53h-9.53ZM382.34,488.3v-9.53h9.53v9.53h-9.53ZM382.34,501.3v-9.53h9.53v9.53h-9.53ZM382.34,501.3v-9.53h9.53v9.53h-9.53ZM382.34,501.3v-9.53h9.53v9.53h-9.53ZM382.34,501.3v-9.53h9.53v9.53h-9.53ZM382.34,514.3v-9.53h9.53v9.53h-9.53ZM382.34,514.3v-9.53h9.53v9.53h-9.53ZM382.34,514.3v-9.53h9.53v9.53h-9.53ZM382.34,514.3v-9.53h9.53v9.53h-9.53ZM382.34,527.29v-9.53h9.53v9.53h-9.53ZM382.34,527.29v-9.53h9.53v9.53h-9.53ZM382.34,527.29v-9.53h9.53v9.53h-9.53ZM382.34,527.29v-9.53h9.53v9.53h-9.53ZM395.34,397.31v-9.53h9.53v9.53h-9.53ZM395.34,397.31v-9.53h9.53v9.53h-9.53ZM395.34,397.31v-9.53h9.53v9.53h-9.53ZM395.34,397.31v-9.53h9.53v9.53h-9.53ZM395.34,462.3v-9.53h9.53v9.53h-9.53ZM395.34,462.3v-9.53h9.53v9.53h-9.53ZM395.34,462.3v-9.53h9.53v9.53h-9.53ZM395.34,462.3v-9.53h9.53v9.53h-9.53ZM395.34,527.29v-9.53h9.53v9.53h-9.53ZM395.34,527.29v-9.53h9.53v9.53h-9.53ZM395.34,527.29v-9.53h9.53v9.53h-9.53ZM395.34,527.29v-9.53h9.53v9.53h-9.53ZM408.34,397.31v-9.53h9.53v9.53h-9.53ZM408.34,397.31v-9.53h9.53v9.53h-9.53ZM408.34,397.31v-9.53h9.53v9.53h-9.53ZM408.34,397.31v-9.53h9.53v9.53h-9.53ZM408.34,462.3v-9.53h9.53v9.53h-9.53ZM408.34,462.3v-9.53h9.53v9.53h-9.53ZM408.34,462.3v-9.53h9.53v9.53h-9.53ZM408.34,462.3v-9.53h9.53v9.53h-9.53ZM408.34,527.29v-9.53h9.53v9.53h-9.53ZM408.34,527.29v-9.53h9.53v9.53h-9.53ZM408.34,527.29v-9.53h9.53v9.53h-9.53ZM408.34,527.29v-9.53h9.53v9.53h-9.53ZM421.34,397.31v-9.53h9.53v9.53h-9.53ZM421.34,397.31v-9.53h9.53v9.53h-9.53ZM421.34,397.31v-9.53h9.53v9.53h-9.53ZM421.34,397.31v-9.53h9.53v9.53h-9.53ZM421.34,462.3v-9.53h9.53v9.53h-9.53ZM421.34,462.3v-9.53h9.53v9.53h-9.53ZM421.34,462.3v-9.53h9.53v9.53h-9.53ZM421.34,462.3v-9.53h9.53v9.53h-9.53ZM421.34,527.29v-9.53h9.53v9.53h-9.53ZM421.34,527.29v-9.53h9.53v9.53h-9.53ZM421.34,527.29v-9.53h9.53v9.53h-9.53ZM421.34,527.29v-9.53h9.53v9.53h-9.53Z"/><path class="cls-1" d="M219.97,0h100.85v74.93c0,36.22-8.58,64.45-25.74,84.7-17.16,20.24-43.15,33.56-75.11,39.95v-36.93c24.38-7.1,42.02-20.37,50.07-39.77,4.5-10.42,6.27-20.24,5.33-29.48h-55.4V0ZM210.38,0h-100.85v74.93c0,36.22,8.58,64.45,25.74,84.7,17.16,20.24,43.15,33.56,75.11,39.95v-36.93c-24.38-7.1-42.02-20.37-50.07-39.77-4.5-10.42-6.27-20.24-5.33-29.48h55.4V0ZM330.41,93.4h55.4c.95,9.23-.82,19.05-5.33,29.48-8.05,19.41-25.69,32.67-50.07,39.77v36.93c31.96-6.39,57.94-19.71,75.11-39.95,17.17-20.24,25.74-48.47,25.74-84.7V0h-100.85v93.4ZM100.85,0H0v74.93c0,36.22,8.58,64.45,25.74,84.7,17.16,20.24,43.15,33.56,75.11,39.95v-36.93c-24.38-7.1-42.02-20.37-50.07-39.77-4.5-10.42-6.27-20.24-5.33-29.48h55.4V0Z"/></g></svg>