<?xml version="1.0" encoding="UTF-8"?>
<!-- Generator: Adobe Illustrator 16.0.0, SVG Export Plug-In . SVG Version: 6.00 Build 0)  -->
<svg xmlns="http://www.w3.org/2000/svg" xmlns:xlink="http://www.w3.org/1999/xlink" version="1.1" id="Capa_1" x="0px" y="0px" width="234.667px" height="46.666px" viewBox="0 0 234.667 46.666" style="enable-background:new 0 0 234.667 46.666;" xml:space="preserve">
<g>
	<defs>
		<path id="SVGID_1_" d="M159.856,10.285c-2.591,0-4.691,2.101-4.691,4.691v14.603c0,2.592,2.101,4.691,4.691,4.691h66.879    c2.591,0,4.691-2.1,4.691-4.691V14.977c0-2.591-2.101-4.691-4.691-4.691H159.856z"></path>
	</defs>
	<clipPath id="SVGID_2_">
		<use xlink:href="#SVGID_1_" style="overflow:visible;"></use>
	</clipPath>
	
		<linearGradient id="SVGID_3_" gradientUnits="userSpaceOnUse" x1="-365.6768" y1="372.8105" x2="-365.4678" y2="372.8105" gradientTransform="matrix(364.236 0 0 -364.236 133347.9063 135813.3281)">
		<stop offset="0" style="stop-color:#5A9BC7"></stop>
		<stop offset="1" style="stop-color:#4460A6"></stop>
	</linearGradient>
	<rect x="155.165" y="10.285" style="clip-path:url(#SVGID_2_);fill:url(#SVGID_3_);" width="76.262" height="23.985"></rect>
</g>
<g>
	<defs>
		<rect id="SVGID_4_" x="-418" y="-460.67" width="1920" height="1080"></rect>
	</defs>
	<clipPath id="SVGID_5_">
		<use xlink:href="#SVGID_4_" style="overflow:visible;"></use>
	</clipPath>
	<path style="clip-path:url(#SVGID_5_);fill:#FFCD03;" d="M19.456,25.522c-1.783-1.783-4.674-1.783-6.457,0l0,0.001l-3.98,3.98   l0-0.001c-1.783,1.782-1.783,4.674,0,6.456c1.783,1.783,4.673,1.783,6.457,0l3.98-3.979C21.239,30.196,21.239,27.306,19.456,25.522   "></path>
	<path style="clip-path:url(#SVGID_5_);fill:#ED5942;" d="M36.407,8.571c-1.783-1.783-4.673-1.783-6.457,0l0,0.001l-3.98,3.979l0,0   c-1.783,1.782-1.783,4.674,0,6.456c1.783,1.783,4.673,1.783,6.457,0l3.98-3.98C38.19,13.245,38.19,10.354,36.407,8.571"></path>
	<path style="clip-path:url(#SVGID_5_);fill:#3657A3;" d="M19.456,19.008c1.783-1.782,1.783-4.674,0-6.456h0l-3.98-3.979l0-0.001   c-1.783-1.783-4.674-1.783-6.457,0c-1.783,1.782-1.783,4.673,0,6.456l3.98,3.98C14.782,20.791,17.673,20.791,19.456,19.008"></path>
	<path style="clip-path:url(#SVGID_5_);fill:#7AC9C2;" d="M36.407,35.959c1.783-1.782,1.783-4.674,0-6.456l0,0.001l-3.98-3.98   l0-0.001c-1.783-1.783-4.674-1.783-6.457,0c-1.783,1.783-1.783,4.674,0,6.457l3.98,3.979   C31.734,37.742,34.625,37.742,36.407,35.959"></path>
	<path style="clip-path:url(#SVGID_5_);fill:#595959;" d="M109.671,30.652c-4.611,0-8.35-3.738-8.35-8.35s3.739-8.351,8.35-8.351   s8.351,3.739,8.351,8.351S114.282,30.652,109.671,30.652 M109.671,10.479c-3.317,0-6.314,1.366-8.461,3.565   c-0.003-0.016-0.008-0.032-0.015-0.048l-1.184-2.829c-0.037-0.087-0.121-0.143-0.214-0.143H98.08c-0.128,0-0.232,0.104-0.232,0.232   v30.181c0,0.129,0.104,0.232,0.232,0.232h2.902c0.128,0,0.232-0.104,0.232-0.232V30.564c2.146,2.197,5.142,3.562,8.457,3.562   c6.53,0,11.824-5.293,11.824-11.823C121.495,15.773,116.201,10.479,109.671,10.479"></path>
	<path style="clip-path:url(#SVGID_5_);fill:#595959;" d="M136.604,30.6c-4.612,0-8.351-3.738-8.351-8.351   c0-4.611,3.739-8.351,8.351-8.351c4.611,0,8.35,3.739,8.35,8.351C144.954,26.861,141.215,30.6,136.604,30.6 M136.604,10.426   c-6.53,0-11.824,5.294-11.824,11.823c0,6.53,5.293,11.823,11.824,11.823c6.529,0,11.823-5.293,11.823-11.823   C148.427,15.72,143.133,10.426,136.604,10.426"></path>
	<path style="clip-path:url(#SVGID_5_);fill:#595959;" d="M85.453,22.423c-0.069-0.085-0.069-0.208,0-0.293l8.766-10.727   c0.124-0.15,0.016-0.377-0.179-0.377h-3.75c-0.069,0-0.135,0.03-0.179,0.084l-6.772,8.287c-0.092,0.113-0.266,0.113-0.358,0   l-6.772-8.287c-0.044-0.054-0.11-0.084-0.179-0.084h-3.75c-0.195,0-0.303,0.227-0.18,0.377l8.766,10.727   c0.07,0.085,0.07,0.208,0,0.293l-8.782,10.748c-0.124,0.15-0.017,0.377,0.179,0.377h3.75c0.069,0,0.135-0.03,0.179-0.084   l6.789-8.308c0.092-0.113,0.266-0.113,0.358,0l6.789,8.308c0.044,0.054,0.109,0.084,0.179,0.084h3.75   c0.195,0,0.302-0.227,0.179-0.377L85.453,22.423z"></path>
	<path style="clip-path:url(#SVGID_5_);fill:#595959;" d="M51.386,20.565c0.779-3.804,4.145-6.667,8.181-6.667   c4.035,0,7.402,2.863,8.18,6.667H51.386z M59.567,10.426c-6.802,0-12.263,5.743-11.796,12.646   c0.392,5.789,5.046,10.5,10.831,10.962c3.395,0.271,6.507-0.904,8.816-2.962c0.097-0.087,0.102-0.238,0.012-0.334l-2.073-2.182   c-0.085-0.09-0.224-0.095-0.318-0.013c-1.467,1.276-3.376,2.056-5.473,2.056c-4.036,0-7.402-2.862-8.181-6.667h16.361h1.906h1.401   c0.116,0,0.215-0.086,0.23-0.201c0.064-0.485,0.106-0.979,0.106-1.482C71.391,15.72,66.097,10.426,59.567,10.426"></path>
	<path style="clip-path:url(#SVGID_5_);fill:#FFFFFF;" d="M172.928,16.078c1.201,0,2.204,0.389,3.009,1.165   c0.805,0.775,1.207,1.75,1.207,2.922c0,1.167-0.402,2.139-1.207,2.915c-0.805,0.775-1.808,1.163-3.009,1.163h-2.535v4.035   c0,0.091-0.073,0.164-0.164,0.164h-1.708c-0.09,0-0.163-0.073-0.163-0.164V16.242c0-0.09,0.073-0.164,0.163-0.164H172.928z    M172.833,22.321c0.655,0,1.194-0.205,1.616-0.612c0.423-0.409,0.634-0.923,0.634-1.544c0-0.62-0.211-1.135-0.634-1.543   c-0.422-0.408-0.961-0.612-1.616-0.612h-2.44v4.312H172.833z"></path>
	<path style="clip-path:url(#SVGID_5_);fill:#FFFFFF;" d="M190.271,28.337l-1.019-2.585h-5.518l-1.01,2.584   c-0.025,0.063-0.087,0.106-0.155,0.106h-1.795c-0.118,0-0.199-0.12-0.154-0.229l4.832-12.029c0.026-0.063,0.086-0.105,0.155-0.105   h1.689c0.068,0,0.129,0.041,0.154,0.104l4.975,12.029c0.046,0.11-0.035,0.231-0.154,0.231h-1.844   C190.358,28.442,190.296,28.399,190.271,28.337 M186.477,18.726l-2.035,5.207h4.104L186.477,18.726z"></path>
	<path style="clip-path:url(#SVGID_5_);fill:#FFFFFF;" d="M201.259,28.632c-1.403,0-2.53-0.366-3.384-1.1   c-0.813-0.698-1.239-1.634-1.277-2.805c-0.003-0.094,0.075-0.175,0.168-0.175h1.735c0.087,0,0.153,0.071,0.159,0.157   c0.036,0.593,0.277,1.063,0.724,1.412c0.486,0.381,1.105,0.57,1.857,0.57c0.684,0,1.262-0.168,1.733-0.501   c0.471-0.333,0.707-0.775,0.707-1.327c0-0.121-0.012-0.234-0.034-0.341c-0.023-0.106-0.063-0.205-0.121-0.298   c-0.058-0.092-0.112-0.173-0.164-0.245s-0.134-0.143-0.245-0.211c-0.112-0.069-0.205-0.128-0.276-0.178   c-0.072-0.049-0.186-0.1-0.341-0.155c-0.155-0.054-0.276-0.097-0.362-0.129c-0.086-0.03-0.223-0.071-0.41-0.12   s-0.324-0.084-0.414-0.104c-0.089-0.02-0.237-0.056-0.444-0.106c-1.052-0.253-1.811-0.492-2.276-0.716   c-1.046-0.506-1.632-1.279-1.759-2.319c-0.022-0.16-0.034-0.327-0.034-0.5c0-1.109,0.389-1.978,1.167-2.604   c0.779-0.627,1.833-0.939,3.16-0.939c1.333,0,2.378,0.339,3.134,1.017c0.718,0.645,1.095,1.512,1.131,2.603   c0.003,0.094-0.075,0.174-0.168,0.174h-1.675c-0.086,0-0.153-0.07-0.159-0.157c-0.035-0.522-0.25-0.938-0.646-1.244   c-0.435-0.335-0.987-0.504-1.66-0.504c-0.644,0-1.18,0.139-1.608,0.418c-0.428,0.278-0.642,0.663-0.642,1.15   c0,0.185,0.03,0.351,0.09,0.501c0.061,0.149,0.161,0.283,0.301,0.4c0.141,0.118,0.279,0.217,0.415,0.297   c0.135,0.081,0.327,0.161,0.577,0.242c0.25,0.08,0.46,0.144,0.63,0.189c0.169,0.046,0.409,0.106,0.72,0.182   c1.063,0.264,1.83,0.509,2.302,0.732c1.075,0.523,1.689,1.308,1.845,2.354c0.028,0.189,0.043,0.388,0.043,0.595   c0,0.799-0.203,1.488-0.608,2.069s-0.944,1.012-1.616,1.293C202.862,28.49,202.104,28.632,201.259,28.632"></path>
	<path style="clip-path:url(#SVGID_5_);fill:#FFFFFF;" d="M215.489,28.632c-1.402,0-2.53-0.366-3.384-1.1   c-0.813-0.698-1.239-1.633-1.277-2.805c-0.003-0.094,0.075-0.175,0.169-0.175h1.734c0.086,0,0.153,0.071,0.158,0.157   c0.037,0.593,0.277,1.063,0.725,1.412c0.485,0.381,1.105,0.57,1.857,0.57c0.684,0,1.262-0.168,1.733-0.501   c0.471-0.333,0.707-0.775,0.707-1.327c0-0.121-0.012-0.234-0.034-0.341c-0.024-0.106-0.064-0.205-0.121-0.298   c-0.058-0.092-0.112-0.173-0.164-0.245s-0.134-0.143-0.246-0.211c-0.112-0.069-0.204-0.128-0.275-0.178   c-0.072-0.049-0.185-0.1-0.34-0.155c-0.156-0.054-0.276-0.097-0.362-0.129c-0.086-0.03-0.223-0.071-0.409-0.12   c-0.187-0.049-0.325-0.084-0.414-0.104c-0.09-0.02-0.238-0.056-0.444-0.106c-1.052-0.253-1.811-0.492-2.276-0.716   c-1.046-0.506-1.632-1.279-1.759-2.319c-0.023-0.16-0.034-0.327-0.034-0.5c0-1.109,0.39-1.978,1.168-2.604   c0.779-0.627,1.832-0.939,3.16-0.939c1.333,0,2.378,0.339,3.134,1.017c0.718,0.645,1.095,1.512,1.131,2.603   c0.003,0.094-0.075,0.174-0.168,0.174h-1.674c-0.087,0-0.154-0.07-0.16-0.157c-0.035-0.522-0.25-0.938-0.646-1.244   c-0.434-0.335-0.987-0.504-1.66-0.504c-0.644,0-1.18,0.139-1.608,0.418c-0.428,0.278-0.643,0.663-0.643,1.15   c0,0.185,0.03,0.351,0.091,0.501c0.061,0.149,0.161,0.283,0.302,0.4c0.141,0.118,0.278,0.217,0.414,0.297   c0.135,0.081,0.328,0.161,0.578,0.242c0.25,0.08,0.46,0.144,0.629,0.189s0.41,0.106,0.72,0.182   c1.064,0.264,1.831,0.509,2.302,0.732c1.075,0.523,1.689,1.308,1.845,2.354c0.028,0.189,0.043,0.388,0.043,0.595   c0,0.799-0.203,1.488-0.608,2.069s-0.944,1.012-1.616,1.293C217.093,28.49,216.334,28.632,215.489,28.632"></path>
</g>
</svg>
