<?xml version="1.0" encoding="UTF-8"?>
<svg id="Layer_1" xmlns="http://www.w3.org/2000/svg" version="1.1" viewBox="0 0 300 55.6">
  <!-- Generator: Adobe Illustrator 30.4.0, SVG Export Plug-In . SVG Version: 2.1.4 Build 226)  -->
  <defs>
    <style>
      .st0 {
        fill: #fff;
      }
    </style>
  </defs>
  <rect class="st0" x=".5" y="52.5" width="295.1" height="3"/>
  <path class="st0" d="M47,34.1h.1l7.8-23c.5-1.4,1-3,1-3.8,0-2-3-5.6-4.3-5.8l-2.7-.5V0h15.8v.9c-.6,0-1.1.1-1.5.5l-4.3,4.2c-1.1,1.1-2.1,2.7-2.5,3.9l-12.3,35.7h-.5l-11.1-32.1h-.1l-11,32.1h-.6L7.6,6.7c-.4-1.4-1.7-3.4-3.6-4.5L1.7,1V0h18.2v.9c-2.1.1-4.9,3.5-4.9,5.3s.6,2.6,1,3.7l8.1,24.3h.1l7-20.1c.6-1.6.7-2,.7-2.4,0-.6-1.5-4.9-1.9-5.5-1.1-2.3-4.5-5-6.9-5.3V0h19.5v.9c-.5.1-1,.2-1.4.5-1.8,1.1-3.5,3-3.5,4.6s.7,3,1.2,4.4l8.1,23.7ZM4.3,1v.2l4.7,3.7v.7l-.6.3,12.6,37.2h.1l1.1-3c.3-.6.4-1.1.4-1.4,0-.6-.3-1.3-.6-2.2L12.8,9.3c-.5-1.4-.8-2.7-.8-4.1s.6-1.6,1.2-2.1l2.6-2h0c0-.1-11.4-.1-11.4-.1ZM26.7,1h0c0,.1.3.1.3.1l4.7,3.7v.7l-.6.3,12.7,37.2h.1l1.2-3.2c.2-.6.3-1,.3-1.3,0-.5,0-1-.2-1.5l-9.8-28.5c-.4-1.2-.7-2.1-.7-3.1s.5-1.6,1.2-2.2l2.4-2.2h0c0-.1-11.5-.1-11.5-.1ZM52.9,1h0c1.8,1.4,3.1,3.1,4,5.1,1.1-1.9,2.7-3.8,4.2-5.1h-8.1ZM60,44.7v-.7c.5,0,1.2,0,1.7-.1.8-.2,2.6-1.6,2.6-2.6V14.5c0-.9-1.7-3.1-2.8-3.2-.6,0-1.3,0-1.8,0v-.7h15v.7c-.5,0-1,0-1.6.1-.9.1-2.5,1.5-2.5,2.6v26.1c0,1.3.9,2.8,2.2,3.5.7.3,1.6.4,2.3.4v.7h-15ZM63.2,11.3h0c0,0,2.4,2.3,2.4,2.3v.5l-.7.4v26.6c0,1.7-1.2,2.4-1.8,2.8h0c0,.1,7.5.1,7.5.1h0c-1-.8-2.4-1.6-2.4-3V13.4l2-2h0c0,0-7,0-7,0h0ZM77.1,44.7v-.7c3.9-.1,5.9-4.7,5.9-7.1V14.7c0-.6-3-3.1-4-3.2-.7-.1-1.3-.2-1.9-.2v-.7h10.3l25,26.4v-18.7c0-1.6-3-5.6-5.3-6.6-.8-.3-2-.3-2.7-.3v-.7h14.5v.7c-.4,0-1.2,0-1.9.4-1.4.6-3.9,3.6-3.9,6.3v27.4h-.8l-28.5-30.3v21.1c0,2.7,3.2,7.6,5.2,7.7h2.4v.7h-14.2ZM80.3,11.3h0c.6.4,1.6,1.2,2.3,1.9l29.7,31.3v-4l-26.8-28.5c-.4-.4-.7-.8-1.3-.8h-3.9ZM108.1,11.3h0c1.6,1.2,3.4,2.9,4.1,4.9h0c.2-1.4.7-3.3,1.8-4.8h0c0,0-6,0-6,0ZM84.9,44c-.5-1-1.3-2.7-1.7-4.3h0c-.6,1.8-1.8,3.3-3.3,4.2h0c0,0,5.1,0,5.1,0h0ZM154.9,10.6c-.1,1.3-.1,2.6-.1,3.9,0,1.8.1,3.6.6,5.3l-.8.2c-1.1-3.1-7.8-8.7-11.2-8.7s-3,1.6-3,2.8v26c0,2.8,2.8,3.8,5.1,3.8v.7h-16.2v-.7c2.2,0,5.2-1.1,5.2-3.8V14c0-1-1.9-2.7-3.3-2.7-3.1,0-8.8,5.9-10.4,8.5h-.8c.5-3.1.5-6.1.5-9.2,0,0,34.5,0,34.5,0ZM133.5,11.3h0c0,0,2.2,2,2.2,2v.5l-.5.4v26.2c0,1.9-1.5,2.9-2.5,3.5h0c0,.1,8.3.1,8.3.1h0c-1.7-1.4-3-1.9-3-3.1V13.5l2.4-2.1h0c0,0-7,0-7,0ZM146.5,11.3h0c2.3,1.2,5.2,3.3,6.9,5.3h0c-.4-1.6-1.1-4.6-1-5.3,0,0-5.9,0-5.9,0ZM121.3,17.1h0c1.1-2.3,3.1-4.2,4.7-5.7h0c0,0-4.8,0-4.8,0v5.8ZM193.9,45.1c-1.1.4-2.2.7-3.7.7-5.8,0-9.3-4.7-11.2-8.8l-2.5-5.3c-1.9-3.9-3.2-4.7-5.1-4.7h-2.9v13.8c0,1.9,1.8,3.3,3.6,3.3h1.6v.7h-15.7v-.7c.2,0,.9,0,1.7-.4.8-.3,2.7-1.5,2.7-2.8V14.5c0-1-.9-2.5-2.1-2.9-.7-.2-1.6-.2-2.3-.2v-.7h11.2c2,0,4.1-.1,6-.1,7.8,0,12.9,4.4,12.9,9,0,7-6.5,7.4-12.5,7.5h0c4.4,1.1,7.2,5.3,8.9,8.5l1.7,3.4c1.3,2.6,2.9,5.6,5.9,5.6s1.3-.1,1.8-.3v.8ZM168.6,44h0c0,0-1.7-1.6-1.7-1.6-.6-.4-.7-.8-.7-1.3V13.3l2.4-1.9h0c0,0-7.1,0-7.1,0h0c.9.7,1.9,1.6,2.4,2.1v.6l-.8.5v26.9c0,.6-.4,1-.7,1.2l-1.7,1.2h0c0,.1,8,.1,8,.1ZM168.5,26.2h5.7c1.6,0,3.1-.1,4.3-.8,1.9-.9,3.2-3.1,3.2-6.1,0-4.8-2.8-8.2-7.9-8.2s-5.3,1-5.3,3.6v11.4ZM180.4,33.2c-1.4-2.5-3.2-4.9-5.2-5.2h0c.8,1.1,1.7,2.6,2.5,4.2,1.6,3.2,2,4.5,3.8,7.3,1.9,2.8,5,5.5,8.5,5.6h0c-2.4-1.2-4.6-3.2-6.4-6.4l-3.1-5.5ZM179.4,25.8h0c3.8-.2,6-2.9,6-6.6s-3.1-6.6-6.6-7.4h0c2,1.4,3.7,3.8,3.7,7.5,0,2.4-1,5.2-3,6.4M207.3,10.6v.7c-1.2,0-2.2,0-2.8.2-.5.1-2.1,1.3-2.1,3.1v19.9c0,4.8,5.3,8.8,10,8.8s10.9-5.6,10.9-13.2v-12.5c0-1.4-2.9-5.4-5.6-6.2-.6-.2-2-.2-2.7-.2v-.7h15.4v.7c-.5,0-1.2.2-1.9.4-2.4.8-4.5,5.1-4.5,6.1v12.8c0,8.7-5.3,14.4-14.1,14.4s-13.5-5-13.5-13.5V14c0-.9-1.6-2.2-2.6-2.5-.5-.1-1.4-.1-2-.1v-.7s15.6,0,15.6,0ZM195,11.3h0c0,0,2.8,2.1,2.8,2.1v.5l-.8.4v17.6c0,7.5,6,12,11.4,12.6h0c-1-.5-1.9-1-2.8-1.5-4.6-2.8-5.6-6-5.6-9.7V13.4c.8-.7,1.7-1.4,2.5-2h0c0,0-7.5,0-7.5,0ZM219.2,11.3h0c1.8,1,3.4,2.9,4.4,4.9h0c.4-2,1.1-3.7,1.8-4.9h-6.2ZM232,32.6h.9c1.3,4.5,5.6,11.8,11,11.8s8.1-3.2,8.1-8.4c0-8.6-18.4-5.5-18.4-16.7s5.4-9.1,10.8-9.1,3.8.3,5.6.3,2.3-.1,3.5-.3c.1,2.8.6,6.8,1,9.5l-.7.2c-1.9-3.8-4.6-9.1-9.6-9.1s-6.5,2.2-6.5,5.6c0,9.1,18.2,4.7,18.2,17.1s-6.5,11.5-13.7,11.5-7-.6-9.4-1.4l-1-11.1ZM234.4,43.3c1.6.5,3.9.9,5.8,1h0c-2.4-1-4.9-3-6.6-5.6h0,0c0,0,0,0,0,0h0c0,1.2,0,2.4,0,3.6,0,.7.4.8.8,1M250.4,42.4h0c2.4-1.5,4-4.6,4-7.8,0-11.6-18.2-7.6-18.2-16.5s1.5-4.8,2.8-5.9h0c-2.7,1-4.8,4.2-4.8,6.9,0,5.4,4.4,7.3,9.2,9,4.3,1.5,9.1,2.9,9.1,8.4s-.9,4.4-2.3,5.9M251.6,11.2h-1.1c-.9,0-1.8-.2-2.7-.3h0c2.1,1,3.6,2.9,4.8,4.7h0c0-.1-1-4.5-1-4.5ZM294.2,10.6c0,1.3-.1,2.6-.1,3.9,0,1.8.1,3.6.6,5.3l-.8.2c-1.1-3.1-7.8-8.7-11.2-8.7s-3,1.6-3,2.8v26c0,2.8,2.8,3.8,5.1,3.8v.7h-16.2v-.7c2.2,0,5.2-1.1,5.2-3.8V14c0-1-2-2.7-3.3-2.7-3.1,0-8.8,5.9-10.4,8.5h-.8c.5-3.1.5-6.1.5-9.2,0,0,34.5,0,34.5,0ZM272.8,11.3h0c0,0,2.2,2,2.2,2v.5l-.5.4v26.2c0,1.9-1.5,2.9-2.5,3.5h0c0,.1,8.3.1,8.3.1h0c-1.6-1.4-3-1.9-3-3.1V13.5l2.5-2.1h0c0,0-7,0-7,0ZM285.8,11.3h0c2.3,1.2,5.2,3.3,6.9,5.3h.1c-.4-1.6-1.1-4.6-1-5.3,0,0-5.9,0-5.9,0ZM260.6,17.1h.1c1.1-2.3,3.1-4.2,4.7-5.7h0c0,0-4.8,0-4.8,0v5.8h0ZM296,12.2c0-.9.8-1.6,1.7-1.6s1.8.7,1.8,1.6-.8,1.6-1.8,1.6-1.7-.7-1.7-1.6M296.3,12.2c0,.7.7,1.3,1.5,1.3s1.4-.6,1.4-1.3-.6-1.3-1.5-1.3-1.4.6-1.4,1.3M297.8,13h-.9c0,0,.2,0,.2,0v-1.5h-.2c0,0,1.1,0,1.1,0,.3,0,.6.1.6.4s-.4.4-.6.4h0c.4,0,.6.2.6.4s0,.3,0,.3h.2c0,0-.3.1-.3.1-.4,0-.5-.1-.5-.5,0-.3,0-.4-.3-.4h-.1v.8h.2q0,0,0,0ZM297.5,12.1h.1c.3,0,.4,0,.4-.2v-.2c0-.1,0-.2-.3-.2h-.2v.6h0Z"/>
</svg>